#File written by RizomUV 2023.0.70.ge90189e8. Compilation :Sep 22 2023,12:42:11
mtllib tobogan cuarto.mtl
#begin vertices
v 8.148247 9.628788 71.34146
v 7.670456 9.628787 72.88758
v 8.260059 9.628787 74.34735
v 11.64323 9.628789 71.05875
v 12.23284 9.628788 72.51852
v 11.75505 9.628787 74.06464
v 8.735728 9.628789 70.7704
v 9.469869 9.628789 70.43244
v 10.26212 9.628789 70.36835
v 11.01692 9.628789 70.58587
v 8.886374 9.628787 74.82023
v 9.641176 9.628787 75.03773
v 10.43343 9.628787 74.97365
v 11.16756 9.628787 74.6357
v 7.837775 9.628787 73.67615
v 12.12501 9.628788 73.32935
v 7.778281 9.628788 72.07675
v 12.06552 9.628788 71.72994
v 8.148247 23.63144 71.34146
v 7.670456 23.63144 72.88758
v 8.260059 23.63144 74.34735
v 11.64323 23.63144 71.05875
v 12.23284 23.63144 72.51852
v 11.75505 23.63144 74.06464
v 8.735728 23.63144 70.7704
v 9.469869 23.63144 70.43244
v 10.26212 23.63144 70.36835
v 11.01692 23.63144 70.58587
v 8.886374 23.63144 74.82023
v 9.641176 23.63144 75.03773
v 10.43343 23.63144 74.97365
v 11.16756 23.63144 74.6357
v 7.837775 23.63144 73.67615
v 12.12501 23.63144 73.32935
v 7.778281 23.63144 72.07675
v 12.06552 23.63144 71.72994
v 8.148247 23.86645 71.34146
v 7.670456 23.86645 72.88758
v 8.260059 23.86645 74.34735
v 11.64323 23.86645 71.05875
v 12.23284 23.86645 72.51852
v 11.75505 23.86645 74.06464
v 8.735728 23.86645 70.7704
v 9.469869 23.86645 70.43244
v 10.26212 23.86645 70.36835
v 11.01692 23.86645 70.58587
v 8.886374 23.86645 74.82023
v 9.641176 23.86645 75.03773
v 10.43343 23.86645 74.97365
v 11.16756 23.86645 74.6357
v 7.837775 23.86645 73.67615
v 12.12501 23.86645 73.32935
v 7.778281 23.86645 72.07675
v 12.06552 23.86645 71.72994
v 8.585977 23.63144 70.55213
v 7.934808 23.63144 71.1849
v 7.525337 23.63144 71.99873
v 7.405949 23.63144 72.89775
v 7.592482 23.63144 73.77564
v 8.065091 23.63144 74.52639
v 11.1353 23.63144 70.34911
v 11.8382 23.63144 70.87971
v 12.31081 23.63144 71.63045
v 12.49735 23.63144 72.50835
v 12.37796 23.63144 73.40736
v 11.96849 23.63144 74.2212
v 10.28853 23.63144 70.10497
v 9.402824 23.63144 70.17637
v 8.768 23.63144 75.05698
v 11.31732 23.63144 74.85397
v 10.50047 23.63144 75.22972
v 9.61477 23.63144 75.30112
v 8.585977 23.86645 70.55213
v 7.934808 23.86645 71.1849
v 7.525337 23.86645 71.99873
v 7.405949 23.86645 72.89775
v 7.592482 23.86645 73.77564
v 8.065091 23.86645 74.52639
v 11.1353 23.86645 70.34911
v 11.8382 23.86645 70.87971
v 12.31081 23.86645 71.63045
v 12.49735 23.86645 72.50835
v 12.37796 23.86645 73.40736
v 11.96849 23.86645 74.2212
v 10.28853 23.86645 70.10497
v 9.402824 23.86645 70.17637
v 8.768 23.86645 75.05698
v 11.31732 23.86645 74.85397
v 10.50047 23.86645 75.22972
v 9.61477 23.86645 75.30112
#end vertices

#begin 110 textures vertices 
vt 0.2913126 0.1820632 0
vt 0.2177713 0.218373 0
vt 0.146111 0.2537542 0
vt 0.4702322 0.09372462 0
vt 0.5418926 0.05834338 0
vt 0.6154338 0.02203355 0
vt 0.3280273 0.163936 0
vt 0.3642445 0.1460543 0
vt 0.3998631 0.1284682 0
vt 0.4350642 0.1110883 0
vt 0.1109429 0.2711178 0
vt 0.07574196 0.2884977 0
vt 0.04012329 0.3060839 0
vt 0.00390625 0.3239655 0
vt 0.181647 0.2362088 0
vt 0.5785478 0.04024548 0
vt 0.2544265 0.2002752 0
vt 0.5057679 0.07617939 0
vt 0.6011277 0.8095572 0
vt 0.5275864 0.845867 0
vt 0.455926 0.8812481 0
vt 0.7800473 0.7212186 0
vt 0.8517077 0.6858374 0
vt 0.9252489 0.6495275 0
vt 0.6378423 0.79143 0
vt 0.6740596 0.7735483 0
vt 0.7096782 0.7559622 0
vt 0.7448792 0.7385822 0
vt 0.420758 0.8986118 0
vt 0.385557 0.9159917 0
vt 0.3499384 0.9335778 0
vt 0.9619636 0.6314002 0
vt 0.4914621 0.8637028 0
vt 0.8883628 0.6677394 0
vt 0.5642416 0.8277692 0
vt 0.815583 0.7036734 0
vt 0.1202166 0.9960937 -0.2133459
vt 0.04535172 0.9960934 0.02891486
vt 0.1377363 0.9960934 0.2576455
vt 0.6678444 0.9960937 -0.2576444
vt 0.7602293 0.9960937 -0.0289136
vt 0.6853644 0.9960934 0.213347
vt 0.2122687 0.9960937 -0.302825
vt 0.3273009 0.9960937 -0.3557797
vt 0.451438 0.9960937 -0.3658214
vt 0.5697075 0.9960937 -0.3317393
vt 0.2358733 0.9960934 0.3317405
vt 0.3541429 0.9960934 0.3658214
vt 0.4782801 0.9960934 0.3557797
vt 0.593312 0.9960934 0.3028261
vt 0.07156886 0.9960934 0.1524749
vt 0.7433341 0.9960934 0.0981348
vt 0.06224677 0.9960937 -0.09813354
vt 0.7340118 0.9960937 -0.152475
vt 0.1888043 0.9592701 -0.3370255
vt 0.08677291 0.9592701 -0.2378777
vt 0.0226131 0.9592701 -0.1103581
vt 0.00390625 0.9592698 0.03050839
vt 0.03313401 0.9592698 0.1680647
vt 0.1071869 0.9592698 0.285699
vt 0.5882558 0.9592701 -0.3688365
vt 0.6983938 0.9592701 -0.2856979
vt 0.7724467 0.9592701 -0.1680649
vt 0.8016748 0.9592701 -0.03050713
vt 0.7829676 0.9592698 0.1103594
vt 0.7188079 0.9592698 0.2378788
vt 0.4555758 0.9592701 -0.4070906
vt 0.3167956 0.9592701 -0.3959036
vt 0.2173254 0.9592698 0.3688376
vt 0.6167764 0.9592698 0.3370268
vt 0.4887851 0.9592698 0.3959036
vt 0.3500053 0.9592698 0.4070906
vt 0.1888043 0.9960937 -0.3370255
vt 0.08677291 0.9960937 -0.2378777
vt 0.0226131 0.9960937 -0.1103581
vt 0.00390625 0.9960934 0.03050839
vt 0.03313401 0.9960934 0.1680647
vt 0.1071869 0.9960934 0.285699
vt 0.5882558 0.9960937 -0.3688365
vt 0.6983938 0.9960937 -0.2856979
vt 0.7724467 0.9960937 -0.1680649
vt 0.8016748 0.9960937 -0.03050713
vt 0.7829676 0.9960934 0.1103594
vt 0.7188079 0.9960934 0.2378788
vt 0.4555758 0.9960937 -0.4070906
vt 0.3167956 0.9960937 -0.3959036
vt 0.2173254 0.9960934 0.3688376
vt 0.6167764 0.9960934 0.3370268
vt 0.4887851 0.9960934 0.3959036
vt 0.3500053 0.9960934 0.4070906
vt 0.2358733 0.9592698 0.3317405
vt 0.3541429 0.9592698 0.3658214
vt 0.7602293 0.9592701 -0.0289136
vt 0.4782801 0.9592698 0.3557797
vt 0.6853644 0.9592698 0.213347
vt 0.593312 0.9592698 0.3028261
vt 0.7433341 0.9592698 0.0981348
vt 0.7340118 0.9592701 -0.152475
vt 0.6678444 0.9592701 -0.2576444
vt 0.5697075 0.9592701 -0.3317393
vt 0.451438 0.9592701 -0.3658214
vt 0.3273009 0.9592701 -0.3557797
vt 0.2122687 0.9592701 -0.302825
vt 0.1202166 0.9592701 -0.2133459
vt 0.06224677 0.9592701 -0.09813354
vt 0.04535172 0.9592698 0.02891486
vt 0.07156886 0.9592698 0.1524749
vt 0.1377363 0.9592698 0.2576455
vt 0.6521485 0.00390625 0
vt 0.3137213 0.9514594 0
#end 110 textures vertices 

#begin 31 normals 
vn 0.4472 -0 -0.8944
vn 0.0998 -0 -0.995
vn 0.9267 -0 -0.3759
vn 0.9993 -0 -0.0384
vn -0.0998 -0 0.995
vn -0.4472 -0 0.8944
vn -0.8063 -0 -0.5915
vn -0.5657 -0 -0.8246
vn 0.2533 -0 0.9674
vn 0.9556 -0 0.2947
vn 0.8063 -0 0.5915
vn -0.2533 -0 -0.9674
vn -0.9993 -0 0.0384
vn -0.9556 -0 -0.2947
vn 0.5657 -0 0.8246
vn -0.7366 -0 0.6764
vn -0.9267 -0 0.3759
vn 0.7366 -0 -0.6764
vn -0 1 -0
vn 0.1 -0 -0.995
vn -0.1 -0 0.995
vn 0.9266 -0 -0.3761
vn 0.9993 -0 -0.0387
vn 0.253 -0 0.9675
vn 0.5656 -0 0.8247
vn -0.9993 -0 0.0387
vn 0.7364 -0 -0.6765
vn -0.7364 -0 0.6765
vn -0.9266 -0 0.3761
vn -0.5656 -0 -0.8247
vn -0.253 -0 -0.9675
#end 31 normals 

#begin 72 faces
o Container:014
s 1
f 11/11/1 29/29/1 30/30/2 12/12/2 
f 15/15/3 2/2/4 20/20/4 33/33/3 
f 9/9/5 10/10/6 28/28/6 27/27/5 
f 6/6/7 14/109/8 32/32/8 24/24/7 
f 8/8/9 9/9/5 27/27/5 26/26/9 
f 17/17/10 1/1/11 19/19/11 35/35/10 
f 13/13/12 31/31/12 32/110/8 14/14/8 
f 5/5/13 16/16/14 34/34/14 23/23/13 
f 1/1/11 7/7/15 25/25/15 19/19/11 
f 10/10/6 4/4/16 22/22/16 28/28/6 
f 2/2/4 17/17/10 35/35/10 20/20/4 
f 7/7/15 8/8/9 26/26/9 25/25/15 
f 18/18/17 5/5/13 23/23/13 36/36/17 
f 11/11/1 3/3/18 21/21/18 29/29/1 
f 12/12/2 30/30/2 31/31/12 13/13/12 
f 3/3/18 15/15/3 33/33/3 21/21/18 
f 16/16/14 6/6/7 24/24/7 34/34/14 
f 4/4/16 18/18/17 36/36/17 22/22/16 
f 24/95/19 32/96/19 70/70/19 66/66/19 
f 38/38/19 76/76/19 77/77/19 51/51/19 
f 43/43/19 73/73/19 74/74/19 37/37/19 
f 29/91/19 21/108/19 60/60/19 69/69/19 
f 47/47/19 87/87/19 90/90/19 48/48/19 
f 25/103/19 26/102/19 68/68/19 55/55/19 
f 48/48/19 90/90/19 89/89/19 49/49/19 
f 26/102/19 27/101/19 67/67/19 68/68/19 
f 49/49/19 89/89/19 88/88/19 50/50/19 
f 27/101/19 28/100/19 61/61/19 67/67/19 
f 50/50/19 88/88/19 84/84/19 42/42/19 
f 34/97/19 24/95/19 66/66/19 65/65/19 
f 39/39/19 78/78/19 87/87/19 47/47/19 
f 36/98/19 23/93/19 64/64/19 63/63/19 
f 44/44/19 86/86/19 73/73/19 43/43/19 
f 22/99/19 36/98/19 63/63/19 62/62/19 
f 28/100/19 22/99/19 62/62/19 61/61/19 
f 45/45/19 85/85/19 86/86/19 44/44/19 
f 69/69/1 87/87/1 90/90/20 72/72/20 
f 67/67/21 61/61/6 79/79/6 85/85/21 
f 59/59/22 58/58/23 76/76/23 77/77/22 
f 68/68/24 67/67/21 85/85/21 86/86/24 
f 56/56/11 55/55/25 73/73/25 74/74/11 
f 64/64/26 65/65/14 83/83/14 82/82/26 
f 55/55/25 68/68/24 86/86/24 73/73/25 
f 58/58/23 57/57/10 75/75/10 76/76/23 
f 57/57/10 56/56/11 74/74/11 75/75/10 
f 69/69/1 60/60/27 78/78/27 87/87/1 
f 60/60/27 59/59/22 77/77/22 78/78/27 
f 62/62/28 63/63/29 81/81/29 80/80/28 
f 66/66/7 70/70/30 88/88/30 84/84/7 
f 61/61/6 62/62/28 80/80/28 79/79/6 
f 71/71/31 89/89/31 88/88/30 70/70/30 
f 63/63/29 64/64/26 82/82/26 81/81/29 
f 72/72/20 90/90/20 89/89/31 71/71/31 
f 65/65/14 66/66/7 84/84/7 83/83/14 
f 53/53/19 75/75/19 76/76/19 38/38/19 
f 52/52/19 83/83/19 82/82/19 41/41/19 
f 32/96/19 31/94/19 71/71/19 70/70/19 
f 51/51/19 77/77/19 78/78/19 39/39/19 
f 37/37/19 74/74/19 75/75/19 53/53/19 
f 31/94/19 30/92/19 72/72/19 71/71/19 
f 40/40/19 80/80/19 79/79/19 46/46/19 
f 54/54/19 81/81/19 80/80/19 40/40/19 
f 30/92/19 29/91/19 69/69/19 72/72/19 
f 41/41/19 82/82/19 81/81/19 54/54/19 
f 19/104/19 25/103/19 55/55/19 56/56/19 
f 33/107/19 20/106/19 58/58/19 59/59/19 
f 42/42/19 84/84/19 83/83/19 52/52/19 
f 20/106/19 35/105/19 57/57/19 58/58/19 
f 23/93/19 34/97/19 65/65/19 64/64/19 
f 46/46/19 79/79/19 85/85/19 45/45/19 
f 21/108/19 33/107/19 59/59/19 60/60/19 
f 35/105/19 19/104/19 56/56/19 57/57/19 
#end 72 faces

#ZOMPROPERTIES_04{
#ZOMPROPERTIES_04 table {Mesh table {SymPlane table {Point vector3d 0 0 0 Normal vector3d 1 0 0 Threshold double 0.01 
#ZOMPROPERTIES_04 Enabled bool false EdgeID int -1 SymEdgeID int -1 UPos double 0.5 LocalMode bool false } RootGroup C
#ZOMPROPERTIES_04 SubMeshGroup {Children table {Tile_0_0 CSubMeshGroup {Children table {} BBoxUV box3d 0 0 0 0 0 0 BBo
#ZOMPROPERTIES_04 x3D box3d 0 0 0 0 0 0 Area3D double 0 AreaUV double 0.794694 IsRoot bool false Properties table {Sel
#ZOMPROPERTIES_04 ected bool false Box box3d 0 1 0 1 0 1 U int 0 V int 0 NU int 0 NV int 0 Tiling vector3d 1 1 1 TileR
#ZOMPROPERTIES_04 atioMode string "1:1" Overflow string "Off" Pack table {BoxFrameEdit bool false Behavior string "Fre
#ZOMPROPERTIES_04 e" } } IsTile bool true PolyIDs ints { 18 48 28 66 55 63 61 60 69 35 32 20 58 54 19 57 30 22 24 26 5
#ZOMPROPERTIES_04 2 59 56 62 36 45 21 70 46 65 38 67 43 71 44 64 40 23 42 25 39 27 37 34 49 33 47 31 51 68 41 29 50 53
#ZOMPROPERTIES_04  0 14 6 13 15 1 10 5 8 11 4 2 9 17 12 7 16 3 } } } BBoxUV box3d 0 0 0 0 0 0 BBox3D box3d 0 0 0 0 0 0
#ZOMPROPERTIES_04  Area3D double 0 AreaUV double 0 IsRoot bool true Properties table {Selected bool false Box box3d 0 
#ZOMPROPERTIES_04 1 0 1 0 1 U int 0 V int 0 NU int 1 NV int 1 Tiling vector3d 1 1 1 TileRatioMode string "1:1" Overflo
#ZOMPROPERTIES_04 w string "Off" Pack table {Rotate table {Mode int 0 Min double 0 Max double 90 Step double 0 } Paddi
#ZOMPROPERTIES_04 ngSize double 0.0078125 MarginSize double 0.00390625 Resolution int 256 MapResolution int 2048 Scali
#ZOMPROPERTIES_04 ng table {TexelDensity double 1024 Mode int 2 } LayoutScalingMode int 2 MaxMutations int 1 } } IsTil
#ZOMPROPERTIES_04 e bool false PolyIDs ints { } } Maps table {Pin table {PrimType string "Vertex" Size int 1 DefaultVa
#ZOMPROPERTIES_04 lue double 0 ScaleType string "Normalized" MergeMode string "Max" MinValue double 0 MaxValue double 
#ZOMPROPERTIES_04 1 Data doubles { r 110 0 } } Density table {PrimType string "Polygon" Size int 1 DefaultValue double
#ZOMPROPERTIES_04  1 ScaleType string "Log" MergeMode string "Average" MinValue double 0.1 MaxValue double 4 Data doub
#ZOMPROPERTIES_04 les { r 72 1 } } Protect table {PrimType string "Vertex" Size int 1 DefaultValue double 0 ScaleType 
#ZOMPROPERTIES_04 string "Normalized" MergeMode string "Average" MinValue double -1 MaxValue double 1 Data doubles { r
#ZOMPROPERTIES_04  110 0 } } } } }
#ZOMPROPERTIES_04}


#ZOMSCENE_01{
#ZOMSCENE_01 CScene {Settings table {AxisSystem table {UpVector string "y" } Unit string "cm" TexelDensityDisplay
#ZOMSCENE_01 Unit string "tx/cm" } Root table {} }
#ZOMSCENE_01}

#begin 0 fatal error vertex (that RizomUV cannot handle)
#end 0 fatal error vertex (that RizomUV cannot handle)

#begin 0 error vertex
#end 0 error vertex
