#File written by RizomUV 2023.0.70.ge90189e8. Compilation :Sep 22 2023,12:42:11
mtllib Cable mic.mtl
#begin vertices
v 15.57481 6.116871 21.89665
v 15.55791 6.09938 21.90153
v 15.5513 6.07548 21.90218
v 15.55676 6.051577 21.89842
v 15.57282 6.034073 21.89128
v 15.59517 6.02766 21.88265
v 15.61783 6.034056 21.87486
v 15.63473 6.051548 21.86999
v 15.64134 6.075447 21.86934
v 15.63588 6.099351 21.87309
v 15.61982 6.116855 21.88024
v 15.59747 6.123268 21.88886
v 15.63499 6.070428 22.05959
v 15.61568 6.054945 22.05791
v 15.60575 6.033816 22.04953
v 15.60787 6.012701 22.03669
v 15.62145 5.997258 22.02282
v 15.64287 5.991625 22.01165
v 15.66639 5.997313 22.00617
v 15.68569 6.012794 22.00785
v 15.69562 6.033924 22.01623
v 15.69351 6.055039 22.02907
v 15.67992 6.070482 22.04293
v 15.6585 6.076115 22.0541
v 15.67614 5.966511 22.16996
v 15.65479 5.956176 22.16272
v 15.64208 5.942029 22.1468
v 15.64143 5.92786 22.12645
v 15.653 5.917467 22.10713
v 15.6737 5.913633 22.09402
v 15.69799 5.917387 22.09063
v 15.71934 5.927723 22.09786
v 15.73205 5.94187 22.11379
v 15.7327 5.956038 22.13414
v 15.72113 5.966432 22.15346
v 15.70042 5.970265 22.16657
v 15.69736 5.821899 22.23108
v 15.67507 5.817492 22.22112
v 15.66113 5.81119 22.2016
v 15.65927 5.804683 22.17773
v 15.67 5.799714 22.15593
v 15.69043 5.797614 22.14202
v 15.71509 5.798946 22.13974
v 15.73738 5.803353 22.14969
v 15.75132 5.809655 22.16922
v 15.75318 5.816162 22.19308
v 15.74245 5.821132 22.21489
v 15.72202 5.823232 22.2288
v 15.7003 5.652253 22.25271
v 15.6779 5.652425 22.24206
v 15.66382 5.65195 22.22164
v 15.66183 5.650955 22.19694
v 15.67246 5.649708 22.17456
v 15.69287 5.64854 22.16051
v 15.71758 5.647768 22.15855
v 15.73998 5.647595 22.16921
v 15.75407 5.64807 22.18962
v 15.75606 5.649065 22.21432
v 15.74542 5.650313 22.2367
v 15.72502 5.65148 22.25075
v 15.68696 5.468052 22.24531
v 15.66478 5.471496 22.23474
v 15.65097 5.474922 22.21442
v 15.64922 5.477414 22.1898
v 15.66 5.478302 22.16748
v 15.68043 5.47735 22.15344
v 15.70502 5.474813 22.15143
v 15.72719 5.47137 22.162
v 15.741 5.467943 22.18232
v 15.74275 5.465452 22.20694
v 15.73197 5.464563 22.22926
v 15.71155 5.465515 22.2433
v 15.65861 5.27873 22.21752
v 15.63682 5.284719 22.20729
v 15.62342 5.290893 22.18735
v 15.622 5.295597 22.16304
v 15.63294 5.297572 22.14087
v 15.65331 5.296288 22.12678
v 15.67766 5.29209 22.12455
v 15.69945 5.286102 22.13477
v 15.71285 5.279928 22.15471
v 15.71427 5.275223 22.17902
v 15.70333 5.273248 22.20119
v 15.68295 5.274531 22.21528
v 15.61633 5.09465 22.17723
v 15.5949 5.102289 22.16735
v 15.58185 5.110028 22.14773
v 15.58066 5.115794 22.12363
v 15.59167 5.118041 22.10152
v 15.61191 5.116168 22.08731
v 15.63597 5.110676 22.08481
v 15.6574 5.103038 22.0947
v 15.67045 5.095299 22.11431
v 15.67164 5.089533 22.13841
v 15.66064 5.087286 22.16053
v 15.64039 5.089159 22.17474
v 15.53255 4.789078 22.10543
v 15.51118 4.796967 22.0956
v 15.49814 4.804767 22.076
v 15.49692 4.810388 22.05187
v 15.50784 4.812325 22.02968
v 15.52798 4.810057 22.01538
v 15.55195 4.804193 22.0128
v 15.57331 4.796304 22.02263
v 15.58635 4.788504 22.04224
v 15.58757 4.782883 22.06636
v 15.57665 4.780946 22.08855
v 15.55651 4.783214 22.10285
v 15.44868 4.469648 22.04028
v 15.42714 4.476871 22.03032
v 15.41389 4.483834 22.01055
v 15.41246 4.48867 21.98626
v 15.42325 4.490085 21.96397
v 15.44336 4.487699 21.94965
v 15.4674 4.482151 21.94713
v 15.48894 4.474928 21.95709
v 15.5022 4.467965 21.97687
v 15.50362 4.463129 22.00115
v 15.49283 4.461714 22.02344
v 15.47273 4.4641 22.03777
v 15.36773 4.129108 21.98401
v 15.34596 4.135358 21.97389
v 15.33244 4.141204 21.95393
v 15.33079 4.145078 21.92949
v 15.34145 4.145944 21.90711
v 15.36156 4.143568 21.89279
v 15.38574 4.138588 21.89036
v 15.40751 4.132338 21.90048
v 15.42103 4.126493 21.92044
v 15.42268 4.122618 21.94488
v 15.41202 4.121752 21.96727
v 15.39191 4.124128 21.98159
v 15.29285 3.760758 21.93897
v 15.27085 3.765811 21.92871
v 15.25706 3.770346 21.90859
v 15.2552 3.773145 21.88401
v 15.26574 3.773461 21.86157
v 15.28588 3.771207 21.84726
v 15.31021 3.766988 21.84493
v 15.33222 3.761935 21.8552
v 15.346 3.757401 21.87532
v 15.34787 3.754601 21.89989
v 15.33732 3.754286 21.92234
v 15.31719 3.756539 21.93664
v 15.22723 3.357901 21.90754
v 15.205 3.361624 21.89717
v 15.19099 3.364742 21.87694
v 15.18894 3.36642 21.85228
v 15.1994 3.366208 21.82979
v 15.21957 3.364163 21.8155
v 15.24405 3.360833 21.81324
v 15.26627 3.35711 21.82361
v 15.28028 3.353992 21.84384
v 15.28233 3.352314 21.8685
v 15.27187 3.352526 21.89099
v 15.2517 3.354571 21.90528
v 15.17403 2.913853 21.89212
v 15.15165 2.916196 21.8817
v 15.13746 2.917877 21.86142
v 15.13528 2.918444 21.83672
v 15.14568 2.917746 21.81421
v 15.16588 2.91597 21.79993
v 15.19047 2.913591 21.7977
v 15.21286 2.911248 21.80812
v 15.22704 2.909568 21.8284
v 15.22923 2.909 21.8531
v 15.21882 2.909698 21.87561
v 15.19862 2.911474 21.88989
v 15.13661 2.42263 21.89509
v 15.11425 2.425257 21.88466
v 15.10003 2.426564 21.86439
v 15.09774 2.4262 21.83969
v 15.108 2.424264 21.81719
v 15.12806 2.421273 21.80292
v 15.15255 2.41803 21.8007
v 15.17491 2.415404 21.81112
v 15.18914 2.414097 21.8314
v 15.19143 2.414461 21.85609
v 15.18116 2.416397 21.87859
v 15.1611 2.419387 21.89286
v 15.08849 2.161931 21.90756
v 15.06636 2.165888 21.89707
v 15.05219 2.167542 21.87678
v 15.04978 2.166452 21.85212
v 15.05977 2.162909 21.82969
v 15.07949 2.157862 21.81552
v 15.10365 2.152664 21.81338
v 15.12578 2.148707 21.82386
v 15.13995 2.147053 21.84416
v 15.14236 2.148143 21.86882
v 15.13237 2.151686 21.89124
v 15.11265 2.156733 21.90542
v 14.98837 1.735587 21.94243
v 14.96623 1.739471 21.93195
v 14.95194 1.740576 21.91171
v 14.94934 1.738606 21.88712
v 14.95912 1.73409 21.86477
v 14.97866 1.728236 21.85066
v 15.00273 1.722615 21.84856
v 15.02487 1.718731 21.85904
v 15.03916 1.717626 21.87929
v 15.04176 1.719595 21.90387
v 15.03198 1.724112 21.92622
v 15.01244 1.729965 21.94033
v 14.87811 1.221224 22.00719
v 14.85568 1.22366 21.99691
v 14.84105 1.223113 21.97688
v 14.83816 1.219731 21.95248
v 14.84778 1.214418 21.93024
v 14.86733 1.208599 21.91613
v 14.89157 1.203833 21.91391
v 14.91401 1.201396 21.9242
v 14.92863 1.201943 21.94423
v 14.93152 1.205326 21.96863
v 14.92191 1.210638 21.99087
v 14.90236 1.216457 22.00498
v 14.79951 0.696641 22.10913
v 14.77667 0.696031 22.09948
v 14.76162 0.692296 22.08011
v 14.7584 0.686436 22.05623
v 14.76788 0.680022 22.03422
v 14.7875 0.674773 22.01998
v 14.81202 0.672093 22.01734
v 14.83486 0.672703 22.02699
v 14.8499 0.676438 22.04635
v 14.85312 0.682298 22.07024
v 14.84365 0.688712 22.09225
v 14.82402 0.693962 22.10648
v 14.79367 0.240453 22.2546
v 14.77102 0.23361 22.24716
v 14.75616 0.223497 22.23006
v 14.75309 0.212824 22.20788
v 14.76263 0.20445 22.18657
v 14.78221 0.200619 22.17183
v 14.80659 0.202359 22.16762
v 14.82924 0.209201 22.17506
v 14.84409 0.219315 22.19216
v 14.84716 0.229988 22.21434
v 14.83763 0.238362 22.23565
v 14.81805 0.242192 22.25039
v 14.89864 -0.069995 22.4478
v 14.88039 -0.086789 22.44742
v 14.87001 -0.107007 22.43748
v 14.87027 -0.125231 22.42066
v 14.88112 -0.136579 22.40145
v 14.89964 -0.138011 22.38502
v 14.92087 -0.129141 22.37575
v 14.93912 -0.112348 22.37613
v 14.9495 -0.092131 22.38607
v 14.94924 -0.073906 22.40289
v 14.93839 -0.062558 22.4221
v 14.91987 -0.061126 22.43854
v 15.1566 -0.167403 22.69966
v 15.14622 -0.188509 22.70754
v 15.14395 -0.213169 22.70611
v 15.15039 -0.234772 22.69577
v 15.16381 -0.247533 22.67927
v 15.18063 -0.248031 22.66104
v 15.19633 -0.236133 22.64597
v 15.2067 -0.215026 22.63808
v 15.20898 -0.190367 22.63951
v 15.20254 -0.168763 22.64986
v 15.18912 -0.156003 22.66635
v 15.1723 -0.155505 22.68458
v 15.4533 -0.145435 22.96006
v 15.44505 -0.166643 22.96993
v 15.44536 -0.191424 22.97093
v 15.45416 -0.213141 22.96279
v 15.46907 -0.225973 22.94768
v 15.48611 -0.226481 22.92967
v 15.50071 -0.21453 22.91356
v 15.50896 -0.193323 22.90369
v 15.50865 -0.16854 22.90269
v 15.49985 -0.146824 22.91084
v 15.48494 -0.133993 22.92594
v 15.4679 -0.133484 22.94396
v 15.68255 -0.139114 23.19274
v 15.67322 -0.160353 23.20152
v 15.67292 -0.185153 23.2019
v 15.68174 -0.206868 23.19378
v 15.69732 -0.219681 23.17935
v 15.71548 -0.220158 23.16246
v 15.73136 -0.208171 23.14764
v 15.74069 -0.186932 23.13887
v 15.74099 -0.162132 23.13849
v 15.73217 -0.140417 23.1466
v 15.71659 -0.127604 23.16104
v 15.69843 -0.127128 23.17792
v 15.8641 -0.142734 23.39959
v 15.85406 -0.163962 23.40757
v 15.85331 -0.188755 23.40745
v 15.86206 -0.210469 23.39926
v 15.87797 -0.223287 23.38518
v 15.89676 -0.223773 23.369
v 15.91341 -0.211798 23.35505
v 15.92346 -0.19057 23.34707
v 15.9242 -0.165777 23.34719
v 15.91545 -0.144063 23.35538
v 15.89955 -0.131245 23.36945
v 15.88075 -0.130759 23.38563
v 16.02061 -0.150856 23.58529
v 16.01052 -0.172082 23.59322
v 16.00963 -0.196869 23.59294
v 16.01818 -0.218575 23.58451
v 16.03388 -0.231383 23.5702
v 16.05252 -0.231863 23.55384
v 16.06911 -0.219885 23.53982
v 16.0792 -0.198659 23.53189
v 16.08009 -0.173873 23.53218
v 16.07154 -0.152167 23.5406
v 16.05584 -0.139358 23.55491
v 16.0372 -0.138878 23.57127
v 16.17468 -0.158004 23.7543
v 16.16541 -0.17926 23.76312
v 16.16481 -0.204057 23.76313
v 16.17301 -0.22575 23.75434
v 16.18784 -0.238528 23.7391
v 16.20531 -0.238966 23.7215
v 16.22074 -0.226946 23.70624
v 16.23 -0.20569 23.69743
v 16.23061 -0.180893 23.69742
v 16.2224 -0.1592 23.70621
v 16.20757 -0.146422 23.72145
v 16.19011 -0.145985 23.73905
v 16.34864 -0.158622 23.91058
v 16.3411 -0.179873 23.9209
v 16.34123 -0.204669 23.92157
v 16.34899 -0.226363 23.91239
v 16.36233 -0.239144 23.89583
v 16.37764 -0.239587 23.87633
v 16.39084 -0.227572 23.8591
v 16.39839 -0.206321 23.84877
v 16.39826 -0.181526 23.84811
v 16.39049 -0.159832 23.85729
v 16.37716 -0.14705 23.87385
v 16.36184 -0.146608 23.89335
v 16.56556 -0.147189 24.05859
v 16.5594 -0.168401 24.06988
v 16.55968 -0.193192 24.07064
v 16.56632 -0.214919 24.06069
v 16.57754 -0.227758 24.04267
v 16.59033 -0.228272 24.02143
v 16.60127 -0.216321 24.00264
v 16.60743 -0.195109 23.99136
v 16.60715 -0.170318 23.99059
v 16.60051 -0.148592 24.00055
v 16.58929 -0.135752 24.01856
v 16.5765 -0.135238 24.03981
v 16.79909 -0.145288 24.18145
v 16.79337 -0.166499 24.19297
v 16.79273 -0.191293 24.19325
v 16.79735 -0.213027 24.18223
v 16.80599 -0.225878 24.16285
v 16.81633 -0.226401 24.14031
v 16.8256 -0.214458 24.12065
v 16.83132 -0.193247 24.10913
v 16.83195 -0.168452 24.10885
v 16.82733 -0.146718 24.11987
v 16.8187 -0.133867 24.13925
v 16.80836 -0.133344 24.16179
v 17.0517 -0.157225 24.28133
v 17.04723 -0.178462 24.29334
v 17.04661 -0.203257 24.29363
v 17.05 -0.224966 24.28212
v 17.0565 -0.237772 24.2619
v 17.06436 -0.238244 24.23838
v 17.07148 -0.226255 24.21786
v 17.07595 -0.205018 24.20585
v 17.07657 -0.180223 24.20556
v 17.07318 -0.158514 24.21707
v 17.06668 -0.145708 24.23729
v 17.05882 -0.145236 24.26082
v 17.336 -0.156027 24.35984
v 17.33443 -0.177199 24.37267
v 17.33583 -0.20195 24.37352
v 17.33981 -0.223646 24.36218
v 17.3453 -0.236474 24.34167
v 17.35084 -0.236997 24.3175
v 17.35494 -0.225075 24.29614
v 17.35651 -0.203902 24.28331
v 17.35512 -0.179152 24.28246
v 17.35114 -0.157455 24.2938
v 17.34564 -0.144628 24.31431
v 17.3401 -0.144104 24.33848
v 17.66697 -0.115217 24.41948
v 17.66908 -0.13591 24.43299
v 17.67367 -0.160244 24.43444
v 17.67949 -0.181699 24.42344
v 17.68499 -0.194526 24.40293
v 17.6887 -0.195288 24.37842
v 17.68962 -0.183782 24.35647
v 17.6875 -0.163089 24.34295
v 17.68292 -0.138755 24.3415
v 17.6771 -0.1173 24.35251
v 17.67159 -0.104473 24.37301
v 17.66789 -0.10371 24.39752
v 18.0601 -0.008293 24.46244
v 18.06576 -0.028027 24.47637
v 18.07372 -0.051446 24.47821
v 18.08186 -0.072275 24.46747
v 18.08799 -0.084932 24.44704
v 18.09047 -0.086027 24.42239
v 18.08863 -0.075266 24.40011
v 18.08298 -0.055532 24.38619
v 18.07501 -0.032113 24.38435
v 18.06688 -0.011284 24.39508
v 18.06075 0.001374 24.41552
v 18.05827 0.002469 24.44017
v 18.53071 0.191633 24.49062
v 18.53926 0.173108 24.50473
v 18.55015 0.150914 24.50676
v 18.56046 0.130998 24.49617
v 18.56744 0.118696 24.47579
v 18.56921 0.117304 24.45109
v 18.5653 0.127196 24.42868
v 18.55676 0.145721 24.41457
v 18.54587 0.167915 24.41254
v 18.53555 0.187831 24.42313
v 18.52857 0.200133 24.44351
v 18.5268 0.201525 24.46821
v 19.09204 0.51051 24.50576
v 19.1047 0.494535 24.5199
v 19.11972 0.474905 24.52196
v 19.13308 0.456877 24.51139
v 19.1412 0.445284 24.49102
v 19.1419 0.44323 24.46631
v 19.135 0.451267 24.44388
v 19.12234 0.467242 24.42974
v 19.10732 0.486872 24.42768
v 19.09396 0.5049 24.43825
v 19.08584 0.516494 24.45862
v 19.08514 0.518547 24.48333
v 19.43435 0.852697 24.46784
v 19.45174 0.841416 24.48146
v 19.47144 0.826419 24.483
v 19.48816 0.811723 24.47207
v 19.49743 0.801268 24.45157
v 19.49676 0.797854 24.42701
v 19.48634 0.802396 24.40497
v 19.46895 0.813677 24.39135
v 19.44925 0.828674 24.3898
v 19.43253 0.84337 24.40074
v 19.42326 0.853825 24.42123
v 19.42393 0.857239 24.44579
v 19.74555 1.383814 24.36105
v 19.76543 1.376446 24.37393
v 19.78759 1.36534 24.37475
v 19.80611 1.353472 24.36328
v 19.81601 1.344021 24.34259
v 19.81465 1.339521 24.31824
v 19.8024 1.341177 24.29674
v 19.78252 1.348545 24.28385
v 19.76036 1.359651 24.28304
v 19.74184 1.371519 24.29451
v 19.73194 1.38097 24.31519
v 19.73329 1.38547 24.33955
v 20.03288 2.043349 24.21285
v 20.05358 2.037786 24.22534
v 20.07661 2.028576 24.22574
v 20.09579 2.018188 24.21394
v 20.10601 2.009405 24.19312
v 20.1045 2.004581 24.16883
v 20.09168 2.005007 24.1476
v 20.07099 2.010571 24.13511
v 20.04796 2.019781 24.13471
v 20.02877 2.030169 24.1465
v 20.01856 2.038952 24.16733
v 20.02006 2.043776 24.19162
v 20.30325 2.768929 24.05122
v 20.32415 2.763919 24.06359
v 20.34747 2.755457 24.06383
v 20.36695 2.745811 24.05187
v 20.37736 2.737565 24.03093
v 20.37593 2.732929 24.0066
v 20.36303 2.733145 23.98542
v 20.34212 2.738155 23.97305
v 20.31881 2.746618 23.97281
v 20.29933 2.756264 23.98476
v 20.28892 2.76451 24.00571
v 20.29035 2.769146 24.03004
v 20.56424 3.498636 23.90416
v 20.58497 3.493153 23.91662
v 20.60823 3.484551 23.91689
v 20.6278 3.475136 23.90489
v 20.63841 3.46743 23.88384
v 20.63724 3.463499 23.85937
v 20.62459 3.464395 23.83806
v 20.60385 3.469879 23.82559
v 20.58059 3.47848 23.82532
v 20.56103 3.487895 23.83733
v 20.55042 3.495601 23.85838
v 20.55159 3.499532 23.88284
v 20.82365 4.170791 23.79962
v 20.84366 4.16352 23.81234
v 20.86644 4.153714 23.81278
v 20.88588 4.143999 23.80082
v 20.89677 4.136979 23.77967
v 20.8962 4.134535 23.755
v 20.88431 4.137321 23.7334
v 20.86429 4.144592 23.72069
v 20.84152 4.154398 23.72024
v 20.82208 4.164113 23.7322
v 20.81118 4.171133 23.75335
v 20.81176 4.173577 23.77803
v 21.08877 4.722552 23.76564
v 21.10762 4.7128 23.77848
v 21.1297 4.701521 23.779
v 21.14911 4.691738 23.76704
v 21.16064 4.68607 23.74582
v 21.1612 4.686038 23.72103
v 21.15064 4.69165 23.69929
v 21.1318 4.701402 23.68645
v 21.10971 4.712681 23.68594
v 21.0903 4.722465 23.69789
v 21.07877 4.728132 23.71911
v 21.07821 4.728164 23.74391
v 21.20841 4.943406 23.7842
v 21.22654 4.932254 23.79693
v 21.24859 4.920914 23.79744
v 21.26866 4.912425 23.78559
v 21.28137 4.90906 23.76455
v 21.2833 4.911723 23.73996
v 21.27395 4.9197 23.71842
v 21.25582 4.930852 23.70568
v 21.23377 4.942192 23.70518
v 21.2137 4.950682 23.71703
v 21.20099 4.954045 23.73806
v 21.19906 4.951383 23.76265
v 21.30211 5.138403 23.82563
v 21.31998 5.126708 23.83825
v 21.34246 5.116251 23.83895
v 21.36353 5.109837 23.82754
v 21.37755 5.109182 23.80709
v 21.38075 5.114464 23.78306
v 21.37228 5.124266 23.76191
v 21.35441 5.135962 23.74929
v 21.33193 5.146418 23.7486
v 21.31086 5.152833 23.76
v 21.29685 5.153487 23.78046
v 21.29364 5.148205 23.80448
v 21.37524 5.307809 23.88486
v 21.39275 5.295285 23.89719
v 21.4155 5.285433 23.8981
v 21.43739 5.28089 23.88735
v 21.45255 5.282876 23.86782
v 21.45693 5.290857 23.84475
v 21.44935 5.302695 23.82431
v 21.43185 5.315219 23.81199
v 21.4091 5.325072 23.81108
v 21.38722 5.329614 23.82183
v 21.37205 5.327629 23.84135
v 21.36766 5.319647 23.86443
v 21.43237 5.45073 23.95676
v 21.44939 5.437014 23.96848
v 21.47221 5.427343 23.96948
v 21.49471 5.424309 23.9595
v 21.51087 5.428725 23.9412
v 21.51635 5.439407 23.9195
v 21.50969 5.453494 23.9002
v 21.49267 5.46721 23.88848
v 21.46985 5.476881 23.88748
v 21.44735 5.479915 23.89746
v 21.43119 5.475499 23.91575
v 21.42571 5.464817 23.93746
v 21.47802 5.566272 24.03631
v 21.49436 5.550892 24.04688
v 21.51702 5.540825 24.04761
v 21.53992 5.538769 24.0383
v 21.55693 5.545274 24.02146
v 21.56349 5.558598 24.00159
v 21.55784 5.57517 23.98402
v 21.54149 5.590549 23.97346
v 21.51884 5.600616 23.97273
v 21.49594 5.602673 23.98203
v 21.47893 5.596168 23.99888
v 21.47237 5.582844 24.01874
v 21.51675 5.653553 24.11872
v 21.53204 5.635918 24.12711
v 21.55416 5.624704 24.12674
v 21.57719 5.622917 24.11769
v 21.59495 5.631034 24.1024
v 21.60269 5.646883 24.08496
v 21.59833 5.666215 24.07004
v 21.58304 5.68385 24.06165
v 21.56092 5.695064 24.06202
v 21.53789 5.696852 24.07107
v 21.52013 5.688734 24.08636
v 21.51239 5.672886 24.1038
v 21.55306 5.711274 24.19898
v 21.56631 5.6907 24.20302
v 21.58709 5.67755 24.19978
v 21.60983 5.675349 24.19012
v 21.62844 5.684686 24.17664
v 21.63792 5.703058 24.16294
v 21.63575 5.725543 24.15269
v 21.6225 5.746118 24.14865
v 21.60172 5.759267 24.1519
v 21.57898 5.761468 24.16155
v 21.56037 5.752132 24.17504
v 21.55088 5.73376 24.18874
v 21.60959 5.746912 24.31399
v 21.61968 5.724379 24.31159
v 21.63827 5.709876 24.30389
v 21.66039 5.70729 24.29296
v 21.68011 5.717313 24.28174
v 21.69214 5.737261 24.27322
v 21.69326 5.761787 24.26969
v 21.68318 5.784321 24.2721
v 21.66459 5.798823 24.2798
v 21.64247 5.80141 24.29073
v 21.62275 5.791386 24.30195
v 21.61072 5.771439 24.31047
v 21.67473 5.738863 24.43826
v 21.68159 5.71662 24.42969
v 21.69795 5.702317 24.41773
v 21.71943 5.699788 24.40559
v 21.74027 5.709711 24.39652
v 21.7549 5.729425 24.39295
v 21.75938 5.75365 24.39583
v 21.75252 5.775894 24.4044
v 21.73616 5.790196 24.41636
v 21.71468 5.792726 24.4285
v 21.69383 5.782803 24.43757
v 21.67921 5.763088 24.44115
v 21.74419 5.690938 24.56321
v 21.74834 5.670506 24.54978
v 21.76281 5.657468 24.53442
v 21.78373 5.655319 24.52126
v 21.80548 5.664633 24.51382
v 21.82224 5.682916 24.5141
v 21.82952 5.705268 24.52201
v 21.82537 5.7257 24.53545
v 21.81089 5.738738 24.5508
v 21.78998 5.740887 24.56396
v 21.76823 5.731573 24.5714
v 21.75146 5.71329 24.57113
v 21.8135 5.606971 24.67993
v 21.81533 5.589344 24.66257
v 21.82816 5.578286 24.64445
v 21.84855 5.57676 24.63042
v 21.87105 5.585176 24.62423
v 21.88962 5.601276 24.62756
v 21.8993 5.620749 24.63949
v 21.89747 5.638377 24.65685
v 21.88464 5.649435 24.67497
v 21.86425 5.65096 24.68901
v 21.84175 5.642546 24.69519
v 21.82317 5.626444 24.69187
v 21.87822 5.490884 24.7795
v 21.87795 5.477026 24.75893
v 21.88928 5.468654 24.73851
v 21.90919 5.468011 24.72373
v 21.93233 5.475271 24.71853
v 21.9525 5.488488 24.72431
v 21.96431 5.504119 24.73953
v 21.96458 5.517978 24.7601
v 21.95325 5.52635 24.78051
v 21.93335 5.526993 24.7953
v 21.9102 5.519732 24.8005
v 21.89003 5.506516 24.79471
v 21.93388 5.346628 24.85305
v 21.93175 5.337635 24.83003
v 21.94174 5.332759 24.80786
v 21.96119 5.333307 24.79247
v 21.98488 5.339131 24.788
v 22.00647 5.348672 24.79563
v 22.02016 5.359372 24.81332
v 22.0223 5.368364 24.83634
v 22.01231 5.37324 24.85851
v 21.99286 5.372692 24.8739
v 21.96917 5.366868 24.87838
v 21.94758 5.357327 24.87074
v 21.97605 5.178166 24.89171
v 21.97246 5.175005 24.86737
v 21.98141 5.174342 24.84425
v 22.00049 5.176353 24.82853
v 22.0246 5.180501 24.82443
v 22.04728 5.185674 24.83306
v 22.06244 5.190486 24.85208
v 22.06603 5.193647 24.87642
v 22.05709 5.194311 24.89955
v 22.038 5.192299 24.91527
v 22.0139 5.18815 24.91936
v 21.99122 5.182978 24.91074
#end vertices

#begin 780 textures vertices 
vt 0.5401206 0.8990398 0
vt 0.5318489 0.8934465 0
vt 0.5241049 0.8873742 0
vt 0.6225915 0.9266189 0
vt 0.6145888 0.9216509 0
vt 0.6061428 0.9176244 0
vt 0.5972158 0.9146426 0
vt 0.5878546 0.9126234 0
vt 0.5781836 0.9111021 0
vt 0.5683595 0.9094632 0
vt 0.5585695 0.9071317 0
vt 0.5490491 0.9037262 0
vt 0.5683053 0.8398547 0
vt 0.5599208 0.8358701 0
vt 0.5516205 0.8317893 0
vt 0.5432628 0.8276187 0
vt 0.6380748 0.8687299 0
vt 0.6291476 0.8649607 0
vt 0.620162 0.8613915 0
vt 0.6112229 0.8579295 0
vt 0.6024753 0.854531 0
vt 0.5938648 0.8510806 0
vt 0.5852939 0.8474805 0
vt 0.576761 0.8437026 0
vt 0.5903813 0.791161 0
vt 0.58192 0.787311 0
vt 0.5735153 0.7835345 0
vt 0.5650715 0.7797179 0
vt 0.6586673 0.8227339 0
vt 0.6499129 0.8188643 0
vt 0.6411459 0.8149031 0
vt 0.6325979 0.8109469 0
vt 0.6242296 0.8069923 0
vt 0.615906 0.8030375 0
vt 0.6074864 0.7990766 0
vt 0.5989542 0.7951217 0
vt 0.6129488 0.741163 0
vt 0.6043302 0.7372924 0
vt 0.5957359 0.7334995 0
vt 0.5871347 0.7296916 0
vt 0.6812053 0.7738409 0
vt 0.6725654 0.7698631 0
vt 0.6639754 0.7658066 0
vt 0.655497 0.7616893 0
vt 0.647096 0.7575351 0
vt 0.6386838 0.7533708 0
vt 0.6301827 0.7492321 0
vt 0.6215847 0.7451538 0
vt 0.6384191 0.6850519 0
vt 0.6297433 0.681126 0
vt 0.6210777 0.67725 0
vt 0.6124128 0.6733743 0
vt 0.7072259 0.7176171 0
vt 0.6985837 0.7136228 0
vt 0.689975 0.7095796 0
vt 0.6814202 0.7054911 0
vt 0.6728931 0.7013714 0
vt 0.6643484 0.6972408 0
vt 0.6557511 0.6931259 0
vt 0.6470996 0.6890538 0
vt 0.6669105 0.622674 0
vt 0.6582307 0.61873 0
vt 0.6495519 0.6148136 0
vt 0.6408697 0.6109003 0
vt 0.7359811 0.6548601 0
vt 0.72732 0.6508746 0
vt 0.7186973 0.6468772 0
vt 0.7100864 0.642841 0
vt 0.7014866 0.6387871 0
vt 0.6928756 0.6347275 0
vt 0.6842373 0.6306761 0
vt 0.6755735 0.6266488 0
vt 0.6972758 0.556263 0
vt 0.6885915 0.5523798 0
vt 0.6798908 0.5485143 0
vt 0.6711795 0.5446437 0
vt 0.7663001 0.5883865 0
vt 0.75765 0.5843531 0
vt 0.7490125 0.5802926 0
vt 0.740417 0.5762361 0
vt 0.7318302 0.5721862 0
vt 0.7232319 0.5681565 0
vt 0.7146089 0.5641586 0
vt 0.7059573 0.560199 0
vt 0.7275376 0.4888925 0
vt 0.718637 0.4852079 0
vt 0.7097821 0.4815187 0
vt 0.04188659 0.3762502 0
vt 0.7971459 0.5218836 0
vt 0.7885608 0.5176909 0
vt 0.780008 0.5134135 0
vt 0.7714421 0.5090969 0
vt 0.7628217 0.5048083 0
vt 0.7541166 0.500612 0
vt 0.7453211 0.4965535 0
vt 0.7364481 0.4926447 0
vt 0.1102354 0.2909498 0
vt 0.1028959 0.2874084 0
vt 0.09555664 0.2838695 0
vt 0.08821877 0.2803319 0
vt 0.1688809 0.3193784 0
vt 0.1615513 0.3158245 0
vt 0.1542238 0.3122691 0
vt 0.1468979 0.3087127 0
vt 0.1395725 0.3051561 0
vt 0.1322441 0.3016003 0
vt 0.1249117 0.2980461 0
vt 0.1175746 0.2944958 0
vt 0.1585367 0.1910319 0
vt 0.1511936 0.1874805 0
vt 0.1438549 0.1839299 0
vt 0.1365199 0.18038 0
vt 0.2172748 0.2194193 0
vt 0.2099411 0.2158741 0
vt 0.2026058 0.2123288 0
vt 0.1952677 0.2087829 0
vt 0.1879259 0.2052354 0
vt 0.1805806 0.2016863 0
vt 0.1732325 0.1981346 0
vt 0.1658837 0.1945836 0
vt 0.2094099 0.08603607 0
vt 0.2021753 0.08231424 0
vt 0.1949469 0.07856868 0
vt 0.7758054 0.04316885 0
vt 0.2683427 0.1137192 0
vt 0.2609965 0.1101891 0
vt 0.2536038 0.1067557 0
vt 0.2461823 0.1033922 0
vt 0.2387554 0.100052 0
vt 0.2313503 0.09668158 0
vt 0.2239859 0.09323546 0
vt 0.2166746 0.08968585 0
vt 0.7206111 0.08265241 0
vt 0.723765 0.08562846 0
vt 0.7269181 0.08860212 0
vt 0.7300699 0.09157564 0
vt 0.695441 0.05877558 0
vt 0.6985841 0.06175946 0
vt 0.7017254 0.06474407 0
vt 0.7048661 0.06772948 0
vt 0.7080081 0.07071583 0
vt 0.7111531 0.07370267 0
vt 0.7143037 0.07668891 0
vt 0.7174568 0.0796726 0
vt 0.6712372 0.1347869 0
vt 0.6743858 0.1377644 0
vt 0.6775366 0.1407441 0
vt 0.6806867 0.1437237 0
vt 0.6460557 0.1109324 0
vt 0.6492029 0.1139137 0
vt 0.6523489 0.1168953 0
vt 0.6554939 0.119877 0
vt 0.6586419 0.1228611 0
vt 0.6617906 0.125845 0
vt 0.6649388 0.1288267 0
vt 0.6680881 0.1318077 0
vt 0.6173079 0.1917767 0
vt 0.6204524 0.1947651 0
vt 0.6235937 0.1977495 0
vt 0.6267354 0.2007336 0
vt 0.5920689 0.1678832 0
vt 0.5952244 0.1708587 0
vt 0.5983823 0.1738379 0
vt 0.6015417 0.1768211 0
vt 0.6046996 0.179807 0
vt 0.6078571 0.1827977 0
vt 0.61101 0.1857914 0
vt 0.6141603 0.1887851 0
vt 0.557794 0.2544154 0
vt 0.5609416 0.2573802 0
vt 0.5640858 0.2603593 0
vt 0.5672216 0.2633499 0
vt 0.532761 0.2306846 0
vt 0.5358828 0.2336766 0
vt 0.5389996 0.2366628 0
vt 0.5421173 0.2396408 0
vt 0.5452392 0.2426083 0
vt 0.5483668 0.2455659 0
vt 0.5515048 0.2485158 0
vt 0.5546475 0.251463 0
vt 0.5256812 0.2884194 0
vt 0.5288337 0.2913865 0
vt 0.5319909 0.2943526 0
vt 0.5351499 0.2973153 0
vt 0.5005348 0.2646096 0
vt 0.5036782 0.2675876 0
vt 0.5068202 0.2705666 0
vt 0.5099617 0.2735468 0
vt 0.5131037 0.2765271 0
vt 0.5162457 0.2795035 0
vt 0.5193887 0.2824788 0
vt 0.5225333 0.2854504 0
vt 0.472725 0.3444418 0
vt 0.47588 0.3474106 0
vt 0.4790353 0.3503781 0
vt 0.4821909 0.3533471 0
vt 0.4475547 0.3205866 0
vt 0.4506985 0.3235713 0
vt 0.4538408 0.3265578 0
vt 0.4569822 0.3295447 0
vt 0.4601249 0.3325308 0
vt 0.46327 0.3355147 0
vt 0.4664188 0.3384937 0
vt 0.4695708 0.3414699 0
vt 0.4088106 0.4119728 0
vt 0.4119574 0.41494 0
vt 0.4151055 0.4179067 0
vt 0.4182561 0.4208758 0
vt 0.3836784 0.3881489 0
vt 0.3868214 0.3911332 0
vt 0.3899611 0.3941161 0
vt 0.3930977 0.3970964 0
vt 0.3962343 0.4000743 0
vt 0.3993739 0.4030513 0
vt 0.4025176 0.4060277 0
vt 0.4056638 0.4090023 0
vt 0.3435643 0.480868 0
vt 0.3466914 0.4838231 0
vt 0.3498233 0.4867771 0
vt 0.3529668 0.4897382 0
vt 0.3185314 0.4571111 0
vt 0.3216678 0.4600994 0
vt 0.3247963 0.4630787 0
vt 0.3279165 0.4660459 0
vt 0.3310361 0.4690064 0
vt 0.3341632 0.4719688 0
vt 0.3372986 0.4749363 0
vt 0.340434 0.4779054 0
vt 0.2855325 0.5420799 0
vt 0.2885938 0.5449959 0
vt 0.2916638 0.547903 0
vt 0.294775 0.5508348 0
vt 0.2607435 0.5184875 0
vt 0.2638659 0.5214849 0
vt 0.2669593 0.5244451 0
vt 0.2700228 0.5273642 0
vt 0.2730902 0.5302687 0
vt 0.2761908 0.5331949 0
vt 0.2793215 0.5361555 0
vt 0.2824442 0.5391301 0
vt 0.2395897 0.5907678 0
vt 0.2425639 0.5935994 0
vt 0.2455114 0.5964049 0
vt 0.2485453 0.5992885 0
vt 0.214759 0.5672934 0
vt 0.2179051 0.5702632 0
vt 0.2209707 0.5731539 0
vt 0.2239465 0.5759578 0
vt 0.2269351 0.5787752 0
vt 0.2300446 0.5817112 0
vt 0.2332653 0.5847587 0
vt 0.2364839 0.5878139 0
vt 0.1942582 0.6384821 0
vt 0.1973219 0.6414414 0
vt 0.2003711 0.6444058 0
vt 0.2034409 0.647392 0
vt 0.1691393 0.6150405 0
vt 0.1723244 0.6179731 0
vt 0.1754914 0.6208783 0
vt 0.1786297 0.6237593 0
vt 0.1817508 0.6266459 0
vt 0.1848776 0.6295679 0
vt 0.1880186 0.6325316 0
vt 0.1911553 0.6355114 0
vt 0.1462578 0.6890172 0
vt 0.1493609 0.6919858 0
vt 0.1524682 0.6949722 0
vt 0.1555827 0.6979721 0
vt 0.1212213 0.6654982 0
vt 0.1243855 0.6684552 0
vt 0.1275439 0.6714001 0
vt 0.1306909 0.6743354 0
vt 0.1338236 0.6772653 0
vt 0.1369412 0.680194 0
vt 0.1400484 0.6831273 0
vt 0.1431554 0.686066 0
vt 0.1069493 0.7306783 0
vt 0.1100969 0.7336461 0
vt 0.1132456 0.7366192 0
vt 0.1163932 0.7395972 0
vt 0.08183351 0.7069014 0
vt 0.08496997 0.7098836 0
vt 0.08810373 0.7128631 0
vt 0.09123827 0.7158396 0
vt 0.09437598 0.718813 0
vt 0.0975161 0.7217836 0
vt 0.1006587 0.7247505 0
vt 0.1038034 0.7277143 0
vt 0.07385932 0.7656705 0
vt 0.07701475 0.768637 0
vt 0.08016991 0.7716057 0
vt 0.08332436 0.7745777 0
vt 0.0486962 0.7418199 0
vt 0.05183309 0.7448109 0
vt 0.05497005 0.7478017 0
vt 0.05810893 0.7507909 0
vt 0.06125206 0.7537765 0
vt 0.06439978 0.7567577 0
vt 0.06755092 0.7597329 0
vt 0.07070434 0.7627031 0
vt 0.04469261 0.7965338 0
vt 0.04782228 0.799541 0
vt 0.05097758 0.8025168 0
vt 0.00390625 0.8731969 0
vt 0.01950326 0.772573 0
vt 0.02269998 0.7755046 0
vt 0.02589279 0.778445 0
vt 0.02907066 0.7814079 0
vt 0.03222542 0.784401 0
vt 0.03535933 0.787421 0
vt 0.03847412 0.7904594 0
vt 0.04158065 0.7935021 0
vt 0.03089344 0.8611003 0
vt 0.02883118 0.8588482 0
vt 0.02677027 0.8565923 0
vt 0.02471266 0.8543339 0
vt 0.04724002 0.8793213 0
vt 0.04522377 0.8770279 0
vt 0.04320317 0.8747345 0
vt 0.04117306 0.8724423 0
vt 0.03913103 0.8701543 0
vt 0.0370773 0.8678761 0
vt 0.03501778 0.8656094 0
vt 0.03295602 0.8633523 0
vt 0.05204997 0.842067 0
vt 0.05000113 0.8397847 0
vt 0.04795751 0.8375038 0
vt 0.04591927 0.835226 0
vt 0.06848159 0.8603167 0
vt 0.0664411 0.8580374 0
vt 0.06439634 0.8557581 0
vt 0.06234489 0.8534768 0
vt 0.06028716 0.8511942 0
vt 0.05822539 0.8489132 0
vt 0.05616444 0.8466345 0
vt 0.05410426 0.8443499 0
vt 0.07581021 0.8208435 0
vt 0.0737818 0.8185676 0
vt 0.07175328 0.8162883 0
vt 0.06972492 0.814009 0
vt 0.09213474 0.8389472 0
vt 0.09008749 0.8366849 0
vt 0.08803824 0.8344223 0
vt 0.08598923 0.8321595 0
vt 0.08394303 0.8298979 0
vt 0.08190286 0.8276379 0
vt 0.07986834 0.8253779 0
vt 0.07783847 0.8231138 0
vt 0.0995357 0.7995627 0
vt 0.09750017 0.7973021 0
vt 0.09545795 0.7950374 0
vt 0.09341199 0.7927693 0
vt 0.1157595 0.8177191 0
vt 0.1137254 0.8154439 0
vt 0.1116974 0.8131694 0
vt 0.1096689 0.8108924 0
vt 0.1076411 0.8086168 0
vt 0.1056144 0.8063455 0
vt 0.1035874 0.8040783 0
vt 0.1015621 0.8018192 0
vt 0.1240984 0.7774719 0
vt 0.1220492 0.7752098 0
vt 0.1199964 0.7729488 0
vt 0.1179438 0.770687 0
vt 0.1403371 0.7957244 0
vt 0.1383093 0.7934449 0
vt 0.1362871 0.7911617 0
vt 0.1342656 0.7888752 0
vt 0.1322412 0.7865862 0
vt 0.1302125 0.784298 0
vt 0.1281799 0.7820148 0
vt 0.1261425 0.7797383 0
vt 0.1510463 0.7532743 0
vt 0.1490013 0.7510121 0
vt 0.146954 0.7487499 0
vt 0.1449059 0.7464843 0
vt 0.1673293 0.7715122 0
vt 0.165295 0.769237 0
vt 0.1632612 0.7669556 0
vt 0.1612369 0.7646774 0
vt 0.1592095 0.7623954 0
vt 0.1571753 0.7601105 0
vt 0.1551363 0.7578269 0
vt 0.153095 0.7555486 0
vt 0.1822141 0.725303 0
vt 0.1801678 0.7230346 0
vt 0.1781212 0.7207668 0
vt 0.1760776 0.7184996 0
vt 0.198516 0.7435028 0
vt 0.1964758 0.7412307 0
vt 0.1944419 0.7389598 0
vt 0.1924082 0.736683 0
vt 0.1903736 0.734404 0
vt 0.188339 0.7321257 0
vt 0.1862984 0.7298467 0
vt 0.1842556 0.7275713 0
vt 0.2199802 0.6913936 0
vt 0.2179396 0.6891303 0
vt 0.2158991 0.6868668 0
vt 0.2138543 0.6845961 0
vt 0.2362808 0.7095712 0
vt 0.2342386 0.7072994 0
vt 0.2322025 0.7050282 0
vt 0.2301715 0.7027581 0
vt 0.2281412 0.7004867 0
vt 0.2261041 0.6982093 0
vt 0.2240649 0.6959336 0
vt 0.2220223 0.6936608 0
vt 0.2671884 0.6490422 0
vt 0.2651507 0.6467885 0
vt 0.2631104 0.6445334 0
vt 0.2610671 0.6422722 0
vt 0.2834256 0.6671775 0
vt 0.2813876 0.6649024 0
vt 0.2793576 0.6626293 0
vt 0.2773347 0.6603601 0
vt 0.2753139 0.658094 0
vt 0.2732902 0.6558286 0
vt 0.271259 0.6535625 0
vt 0.2692246 0.6512994 0
vt 0.3265869 0.5956458 0
vt 0.3245786 0.5933711 0
vt 0.3225716 0.591099 0
vt 0.3205509 0.588822 0
vt 0.3429334 0.6137715 0
vt 0.3408892 0.6115005 0
vt 0.3388449 0.6092454 0
vt 0.3368034 0.6070035 0
vt 0.3347592 0.6047594 0
vt 0.3327074 0.6024976 0
vt 0.3306544 0.6002172 0
vt 0.3286111 0.5979297 0
vt 0.3714016 0.555424 0
vt 0.3693669 0.5531824 0
vt 0.3673344 0.5509404 0
vt 0.3652963 0.5486847 0
vt 0.3876632 0.5735703 0
vt 0.3856224 0.5712988 0
vt 0.3835974 0.5690329 0
vt 0.3815845 0.5667732 0
vt 0.37957 0.5645101 0
vt 0.3775416 0.5622358 0
vt 0.3754963 0.5599546 0
vt 0.3734457 0.5576803 0
vt 0.4289048 0.5037845 0
vt 0.4268679 0.50152 0
vt 0.424831 0.499254 0
vt 0.4227923 0.4969834 0
vt 0.4452085 0.5219353 0
vt 0.4431641 0.5196646 0
vt 0.4411243 0.5173954 0
vt 0.439089 0.5151281 0
vt 0.4370555 0.5128608 0
vt 0.4350208 0.5105916 0
vt 0.432983 0.5083206 0
vt 0.4309435 0.5060511 0
vt 0.4964131 0.4431442 0
vt 0.4943734 0.4408716 0
vt 0.4923334 0.4385985 0
vt 0.4902931 0.4363248 0
vt 0.5127441 0.4613241 0
vt 0.5107004 0.4590517 0
vt 0.5086575 0.4567795 0
vt 0.5066162 0.4545079 0
vt 0.5045754 0.452236 0
vt 0.502535 0.4499637 0
vt 0.5004943 0.4476906 0
vt 0.4984536 0.4454173 0
vt 0.5690527 0.3779117 0
vt 0.5670122 0.3756371 0
vt 0.5649717 0.3733622 0
vt 0.5629311 0.3710873 0
vt 0.5853912 0.3960989 0
vt 0.5833481 0.3938261 0
vt 0.5813049 0.3915534 0
vt 0.5792618 0.3892806 0
vt 0.5772189 0.3870075 0
vt 0.5751766 0.3847342 0
vt 0.573135 0.3824604 0
vt 0.5710937 0.3801863 0
vt 0.6414424 0.3129075 0
vt 0.639402 0.3106336 0
vt 0.6373615 0.3083591 0
vt 0.6353209 0.3060836 0
vt 0.6577812 0.3310964 0
vt 0.6557392 0.3288237 0
vt 0.6536972 0.3265511 0
vt 0.6516549 0.3242781 0
vt 0.6496118 0.3220045 0
vt 0.6475684 0.3197301 0
vt 0.6455253 0.3174555 0
vt 0.6434835 0.3151815 0
vt 0.7082046 0.2529848 0
vt 0.7061634 0.2507187 0
vt 0.7041212 0.2484487 0
vt 0.7020795 0.2461753 0
vt 0.7245005 0.2711546 0
vt 0.7224632 0.2688808 0
vt 0.7204292 0.2666085 0
vt 0.7183942 0.2643334 0
vt 0.716358 0.2620584 0
vt 0.71432 0.2597845 0
vt 0.7122811 0.2575142 0
vt 0.7102426 0.2552481 0
vt 0.7644971 0.2024651 0
vt 0.7624402 0.2002186 0
vt 0.7603878 0.1979595 0
vt 0.758346 0.195688 0
vt 0.7807237 0.2206638 0
vt 0.7787132 0.218366 0
vt 0.7767077 0.2160673 0
vt 0.7747015 0.2137756 0
vt 0.7726834 0.2114912 0
vt 0.7706522 0.209219 0
vt 0.7686097 0.2069612 0
vt 0.7665561 0.2047112 0
vt 0.7879011 0.1813905 0
vt 0.7858473 0.1791173 0
vt 0.7837931 0.1768452 0
vt 0.7817417 0.1745747 0
vt 0.8041967 0.1996305 0
vt 0.8021744 0.1973614 0
vt 0.8001483 0.1950854 0
vt 0.7981163 0.1928014 0
vt 0.7960783 0.1905119 0
vt 0.7940351 0.1882204 0
vt 0.7919939 0.1859362 0
vt 0.7899507 0.1836631 0
vt 0.8085464 0.1628539 0
vt 0.8065074 0.160573 0
vt 0.8044696 0.1582934 0
vt 0.8024354 0.1560168 0
vt 0.8248896 0.1810483 0
vt 0.8228497 0.1787807 0
vt 0.8208067 0.1765105 0
vt 0.8187604 0.1742369 0
vt 0.8167141 0.1719625 0
vt 0.8146701 0.1696894 0
vt 0.8126219 0.1674086 0
vt 0.8105846 0.1651326 0
vt 0.8267513 0.1465103 0
vt 0.8247186 0.1442239 0
vt 0.8226874 0.1419379 0
vt 0.8206587 0.1396558 0
vt 0.8431178 0.1646801 0
vt 0.8410707 0.1624188 0
vt 0.8390201 0.1601556 0
vt 0.8369667 0.1578882 0
vt 0.8349136 0.1556176 0
vt 0.8328641 0.153346 0
vt 0.8308201 0.1510731 0
vt 0.8287843 0.1487938 0
vt 0.8427087 0.1321693 0
vt 0.8406872 0.1298716 0
vt 0.8386668 0.1275744 0
vt 0.836647 0.125283 0
vt 0.8591302 0.1503203 0
vt 0.8570725 0.1480688 0
vt 0.8550096 0.1458174 0
vt 0.8529429 0.1435606 0
vt 0.850877 0.1412965 0
vt 0.8488173 0.1390261 0
vt 0.8467677 0.1367499 0
vt 0.844734 0.1344627 0
vt 0.8565398 0.11975 0
vt 0.8545451 0.1174319 0
vt 0.8525503 0.1151144 0
vt 0.85055 0.1128052 0
vt 0.8730385 0.1378341 0
vt 0.8709618 0.1356041 0
vt 0.8688761 0.1333793 0
vt 0.8667856 0.1311479 0
vt 0.8646983 0.1289016 0
vt 0.8626235 0.1266385 0
vt 0.8605685 0.1243596 0
vt 0.858544 0.1220609 0
vt 0.8683285 0.1092471 0
vt 0.8663837 0.1069145 0
vt 0.8644308 0.1045788 0
vt 0.8624568 0.1022497 0
vt 0.884826 0.1271529 0
vt 0.8827218 0.1249568 0
vt 0.8806078 0.1227773 0
vt 0.8784921 0.1205921 0
vt 0.8763875 0.1183817 0
vt 0.8743079 0.1161389 0
vt 0.8722822 0.1138681 0
vt 0.8702874 0.1115672 0
vt 0.8781227 0.1006406 0
vt 0.8761665 0.09837312 0
vt 0.8741859 0.09608396 0
vt 0.8721784 0.09378452 0
vt 0.8943292 0.118366 0
vt 0.8922609 0.1161535 0
vt 0.8902024 0.1139702 0
vt 0.8881529 0.1117903 0
vt 0.8861112 0.1095888 0
vt 0.8840801 0.1073612 0
vt 0.8820617 0.1051279 0
vt 0.8800787 0.1028894 0
vt 0.8902274 0.08965303 0
vt 0.8881896 0.08741339 0
vt 0.8861392 0.08515471 0
vt 0.8840864 0.08288711 0
vt 0.9064234 0.107633 0
vt 0.9043939 0.1053619 0
vt 0.9023788 0.1031073 0
vt 0.9003667 0.1008589 0
vt 0.8983456 0.098609 0
vt 0.8963193 0.09636392 0
vt 0.8942891 0.09411988 0
vt 0.8922577 0.09188364 0
vt 0.903001 0.07807448 0
vt 0.9009498 0.07585047 0
vt 0.8988968 0.07360663 0
vt 0.8968462 0.07134164 0
vt 0.919243 0.09615591 0
vt 0.9172302 0.09388248 0
vt 0.9152324 0.09161291 0
vt 0.9132306 0.08934268 0
vt 0.9112078 0.08706864 0
vt 0.9091628 0.08479482 0
vt 0.9071079 0.08253364 0
vt 0.9050532 0.08029552 0
vt 0.9167535 0.06566984 0
vt 0.9147109 0.06343035 0
vt 0.9126674 0.06117652 0
vt 0.9106306 0.05890886 0
vt 0.9330358 0.08376277 0
vt 0.93101 0.0814968 0
vt 0.9289953 0.07923319 0
vt 0.9269776 0.07696737 0
vt 0.9249449 0.07469589 0
vt 0.9229014 0.07242531 0
vt 0.9208487 0.07015875 0
vt 0.9187985 0.067908 0
vt 0.9313555 0.05257444 0
vt 0.9293358 0.05034238 0
vt 0.9273054 0.04809695 0
vt 0.9252578 0.04582991 0
vt 0.9475653 0.07057757 0
vt 0.9455468 0.06832569 0
vt 0.943538 0.06608488 0
vt 0.9415257 0.06384267 0
vt 0.939499 0.0615876 0
vt 0.9374514 0.05931574 0
vt 0.9354068 0.0570523 0
vt 0.9333756 0.05480658 0
vt 0.9465207 0.03893484 0
vt 0.9444888 0.03669918 0
vt 0.942442 0.03445586 0
vt 0.9403816 0.03220369 0
vt 0.9627109 0.0569549 0
vt 0.9606948 0.05468594 0
vt 0.9586835 0.05243213 0
vt 0.9566694 0.05018328 0
vt 0.9546466 0.04792935 0
vt 0.952615 0.04566973 0
vt 0.9505783 0.04341559 0
vt 0.9485472 0.04117107 0
vt 0.9621825 0.0249116 0
vt 0.960095 0.02272653 0
vt 0.9579902 0.02052788 0
vt 0.9558819 0.01831465 0
vt 0.978191 0.04294889 0
vt 0.9762256 0.04062633 0
vt 0.9742708 0.03832308 0
vt 0.972313 0.03603897 0
vt 0.9703381 0.03376947 0
vt 0.9683386 0.03151611 0
vt 0.9663039 0.0292948 0
vt 0.9642512 0.02709591 0
vt 0.9781398 0.009943981 0
vt 0.9756671 0.008009902 0
vt 0.9732852 0.006021016 0
vt 0.9710614 0.00390625 0
vt 0.9942336 0.02924841 0
vt 0.9925111 0.02666447 0
vt 0.9908462 0.02400038 0
vt 0.9891345 0.02133403 0
vt 0.9872817 0.0187449 0
vt 0.9852338 0.01630167 0
vt 0.9830056 0.01402144 0
vt 0.9806157 0.01191885 0
vt 0.2756416 0.1173476 0
vt 0.1762111 0.3229302 0
vt 0.7749614 0.5923924 0
vt 0.2116186 0.5643257 0
vt 0.7158831 0.7215564 0
vt 0.6922965 0.05579305 0
vt 0.224609 0.2229661 0
vt 0.8057753 0.5259528 0
vt 0.1659674 0.6121058 0
vt 0.7446551 0.6588167 0
vt 0.6429083 0.1079523 0
vt 0.5889162 0.1649104 0
vt 0.4973891 0.2616309 0
vt 0.5165783 0.8813429 0
vt 0.4444109 0.3176062 0
vt 0.5296289 0.2276914 0
vt 0.2576304 0.5154861 0
vt 0.6898358 0.7777265 0
vt 0.3153963 0.4541223 0
vt 0.6673038 0.8264902 0
vt 0.3805346 0.3851661 0
vt 0.6468227 0.8725143 0
vt 0.169369 0.773787 0
vt 0.2005608 0.7457734 0
vt 0.1177991 0.8199977 0
vt 0.1423696 0.7980021 0
vt 0.09417748 0.8412115 0
vt 0.659824 0.3333695 0
vt 0.04555776 0.7388304 0
vt 0.7265417 0.2734285 0
vt 0.01631681 0.769634 0
vt 0.5874338 0.3983716 0
vt 0.07869303 0.7039176 0
vt 0.5147878 0.4635964 0
vt 0.1180611 0.6625352 0
vt 0.8611801 0.1525795 0
vt 0.875103 0.1400797 0
vt 0.8451599 0.1669454 0
vt 0.8269344 0.1833256 0
vt 0.8062267 0.2019041 0
vt 0.0492573 0.8816145 0
vt 0.7827427 0.2229525 0
vt 0.2854688 0.6694497 0
vt 0.3449687 0.6160513 0
vt 0.2383272 0.7118403 0
vt 0.3897123 0.5758354 0
vt 0.4472548 0.5242048 0
vt 0.9084643 0.1099144 0
vt 0.9212777 0.09843129 0
vt 0.9350782 0.08603091 0
vt 0.9495999 0.07284514 0
vt 0.8963987 0.120611 0
vt 0.8868994 0.1293703 0
vt 0.9647341 0.05924013 0
vt 0.9801702 0.04527769 0
vt 0.9960938 0.03169115 0
vt 0.07051629 0.8625917 0
vt 0.7381392 0.007455775 0
vt 0.7475484 0.01643028 0
vt 0.7444532 0.01339866 0
vt 0.7413168 0.01040605 0
vt 0.7629723 0.03156722 0
vt 0.1876972 0.07485042 0
vt 0.7725897 0.04026694 0
vt 0.7661535 0.03448912 0
vt 0.7598323 0.028602 0
vt 0.7536677 0.02254793 0
vt 0.7506132 0.01948684 0
vt 0.756734 0.02559124 0
vt 0.7693655 0.037382 0
vt 0.02039986 0.8909707 0
vt 0.02237367 0.8932523 0
vt 0.02432864 0.8955623 0
vt 0.02628257 0.8978889 0
vt 0.02825181 0.9002172 0
vt 0.008020914 0.8777109 0
vt 0.01011021 0.8799252 0
vt 0.005950511 0.8754673 0
vt 0.05415989 0.8054621 0
vt 0.01220645 0.8821184 0
vt 0.01429451 0.8843046 0
vt 0.01636043 0.8865009 0
vt 0.01839486 0.8887222 0
vt 0.1224432 0.4153033 0
vt 0.05645945 0.3835067 0
vt 0.1297839 0.418837 0
vt 0.07095538 0.390883 0
vt 0.7009943 0.4777598 0
vt 0.07822745 0.3945239 0
vt 0.04919174 0.3798471 0
vt 0.0637067 0.3871984 0
vt 0.08553489 0.3980923 0
vt 0.1002645 0.4050197 0
vt 0.1076646 0.4084242 0
vt 0.1150638 0.4118398 0
vt 0.09288336 0.4015863 0
#end 780 textures vertices 

#begin 684 normals 
vn -0.3715 0.8477 0.3788
vn -0.7477 0.5127 0.422
vn -0.9347 0.0306 0.3542
vn -0.8635 -0.4682 0.1876
vn -0.55 -0.8346 -0.0303
vn -0.0878 -0.9673 -0.238
vn 0.3982 -0.8345 -0.3809
vn 0.778 -0.4681 -0.4191
vn 0.9404 0.0312 -0.3385
vn 0.8418 0.514 -0.1649
vn 0.5266 0.8488 0.0473
vn 0.0882 0.966 0.2429
vn -0.3125 0.77 0.5562
vn -0.7115 0.463 0.5286
vn -0.9309 0.0323 0.364
vn -0.9046 -0.4146 0.0992
vn -0.6256 -0.7546 -0.198
vn -0.1631 -0.8819 -0.4423
vn 0.3468 -0.7534 -0.5586
vn 0.7517 -0.4124 -0.5146
vn 0.9433 0.0348 -0.3301
vn 0.8831 0.465 -0.0617
vn 0.5977 0.7712 0.2193
vn 0.1631 0.8813 0.4434
vn -0.2124 0.5191 0.8279
vn -0.6527 0.3128 0.69
vn -0.9284 0.0229 0.3709
vn -0.9593 -0.2772 -0.054
vn -0.7236 -0.5038 -0.4718
vn -0.2784 -0.5886 -0.759
vn 0.2468 -0.5049 -0.8272
vn 0.6964 -0.2797 -0.661
vn 0.948 0.0191 -0.3177
vn 0.9454 0.3092 0.1032
vn 0.7001 0.5169 0.4927
vn 0.279 0.5927 0.7555
vn -0.1718 0.2432 0.9546
vn -0.6334 0.1535 0.7585
vn -0.9328 0.0228 0.3598
vn -0.9833 -0.1144 -0.1413
vn -0.7627 -0.2198 -0.6082
vn -0.3281 -0.2643 -0.9069
vn 0.1979 -0.2358 -0.9514
vn 0.6661 -0.1422 -0.7321
vn 0.9487 -0.0094 -0.316
vn 0.9758 0.1256 0.1791
vn 0.7488 0.227 0.6227
vn 0.331 0.2697 0.9043
vn -0.1706 0.0475 0.9842
vn -0.6365 0.0509 0.7696
vn -0.9364 0.041 0.3486
vn -0.9853 0.0206 -0.1698
vn -0.7647 -0.0051 -0.6443
vn -0.3332 -0.0295 -0.9424
vn 0.1896 -0.0461 -0.9808
vn 0.6585 -0.0501 -0.7509
vn 0.9467 -0.04 -0.3197
vn 0.9809 -0.0187 0.1935
vn 0.7575 0.0075 0.6528
vn 0.3376 0.0317 0.9407
vn -0.1809 -0.0712 0.9809
vn -0.6433 -0 0.7656
vn -0.9361 0.0716 0.3445
vn -0.9773 0.1244 -0.1717
vn -0.7525 0.1437 -0.6428
vn -0.3219 0.1237 -0.9387
vn 0.1959 0.0699 -0.9781
vn 0.6588 -0.0027 -0.7523
vn 0.9427 -0.0741 -0.3254
vn 0.9745 -0.1252 0.186
vn 0.7493 -0.143 0.6466
vn 0.3276 -0.1233 0.9367
vn -0.192 -0.1408 0.9713
vn -0.6474 -0.0165 0.762
vn -0.9309 0.1127 0.3475
vn -0.9637 0.2121 -0.1625
vn -0.7345 0.254 -0.6293
vn -0.3054 0.2268 -0.9248
vn 0.2056 0.138 -0.9689
vn 0.6595 0.0124 -0.7516
vn 0.9354 -0.116 -0.3341
vn 0.962 -0.2131 0.1708
vn 0.7343 -0.2536 0.6296
vn 0.3129 -0.2273 0.9222
vn -0.2014 -0.1682 0.965
vn -0.6497 -0.0089 0.7602
vn -0.9239 0.1531 0.3506
vn -0.9493 0.274 -0.1538
vn -0.7187 0.321 -0.6167
vn -0.2947 0.2815 -0.9132
vn 0.2081 0.1663 -0.9639
vn 0.6544 0.0068 -0.7561
vn 0.9252 -0.1543 -0.3467
vn 0.9492 -0.274 0.1548
vn 0.7205 -0.3208 0.6148
vn 0.2999 -0.2822 0.9113
vn -0.2035 -0.1574 0.9663
vn -0.6498 0.0076 0.7601
vn -0.9211 0.1704 0.35
vn -0.9455 0.2873 -0.1533
vn -0.7172 0.3274 -0.6152
vn -0.2977 0.2801 -0.9126
vn 0.2012 0.1581 -0.9667
vn 0.6467 -0.0062 -0.7627
vn 0.9197 -0.169 -0.3545
vn 0.9463 -0.2867 0.1492
vn 0.7188 -0.3274 0.6133
vn 0.2977 -0.2801 0.9126
vn -0.1976 -0.1298 0.9716
vn -0.6472 0.0213 0.762
vn -0.9225 0.1664 0.3483
vn -0.9507 0.2668 -0.1579
vn -0.7254 0.296 -0.6214
vn -0.3071 0.2463 -0.9192
vn 0.1931 0.1311 -0.9724
vn 0.6424 -0.0193 -0.7661
vn 0.9204 -0.1647 -0.3545
vn 0.9517 -0.2662 0.1529
vn 0.7268 -0.2961 0.6198
vn 0.3058 -0.2461 0.9197
vn -0.191 -0.0982 0.9767
vn -0.6452 0.0326 0.7633
vn -0.9256 0.1543 0.3457
vn -0.9582 0.2346 -0.1634
vn -0.7358 0.2524 -0.6284
vn -0.3179 0.203 -0.9261
vn 0.1849 0.0997 -0.9777
vn 0.6391 -0.0305 -0.7685
vn 0.923 -0.1527 -0.3532
vn 0.9593 -0.2341 0.1579
vn 0.7369 -0.2525 0.6271
vn 0.3154 -0.2027 0.9271
vn -0.1847 -0.0643 0.9807
vn -0.6438 0.0414 0.764
vn -0.9294 0.1357 0.3431
vn -0.9665 0.1937 -0.1685
vn -0.7465 0.2 -0.6346
vn -0.3283 0.1533 -0.9321
vn 0.1775 0.0657 -0.9819
vn 0.6368 -0.0395 -0.77
vn 0.9266 -0.1344 -0.3513
vn 0.9675 -0.1933 0.1628
vn 0.7473 -0.2001 0.6336
vn 0.325 -0.1528 0.9333
vn -0.1795 -0.03 0.9833
vn -0.643 0.0478 0.7644
vn -0.9332 0.1126 0.3412
vn -0.974 0.1473 -0.172
vn -0.7559 0.1427 -0.6389
vn -0.3371 0.1003 -0.9361
vn 0.1716 0.0312 -0.9847
vn 0.6356 -0.0464 -0.7707
vn 0.9302 -0.1117 -0.3496
vn 0.975 -0.1471 0.1664
vn 0.7565 -0.1428 0.6382
vn 0.3333 -0.0999 0.9375
vn -0.1756 0.0031 0.9845
vn -0.6424 0.052 0.7646
vn -0.9362 0.0868 0.3407
vn -0.9799 0.0985 -0.1732
vn -0.7633 0.084 -0.6406
vn -0.3438 0.0471 -0.9379
vn 0.1676 -0.0023 -0.9859
vn 0.635 -0.0513 -0.7708
vn 0.9332 -0.0866 -0.3488
vn 0.9809 -0.0986 0.1679
vn 0.7636 -0.084 0.6402
vn 0.3397 -0.0467 0.9394
vn -0.1584 0.047 0.9863
vn -0.6293 0.1024 0.7704
vn -0.93 0.1301 0.3439
vn -0.9767 0.1223 -0.1765
vn -0.7579 0.0812 -0.6473
vn -0.3358 0.0185 -0.9417
vn 0.1741 -0.049 -0.9835
vn 0.6363 -0.1032 -0.7645
vn 0.9299 -0.1301 -0.3442
vn 0.9783 -0.1227 0.167
vn 0.7682 -0.0828 0.6348
vn 0.3532 -0.0209 0.9353
vn -0.1549 0.0961 0.9833
vn -0.619 0.1792 0.7647
vn -0.916 0.2139 0.3392
vn -0.9654 0.1908 -0.1775
vn -0.7547 0.1163 -0.6457
vn -0.3418 0.0108 -0.9397
vn 0.1615 -0.0973 -0.9821
vn 0.621 -0.1793 -0.763
vn 0.9153 -0.2137 -0.3414
vn 0.9665 -0.1913 0.171
vn 0.7604 -0.1179 0.6387
vn 0.3503 -0.0128 0.9366
vn -0.1518 0.1358 0.979
vn -0.6146 0.2168 0.7585
vn -0.9114 0.2394 0.3346
vn -0.9639 0.1979 -0.178
vn -0.7594 0.1037 -0.6424
vn -0.3529 -0.018 -0.9355
vn 0.1476 -0.1349 -0.9798
vn 0.6092 -0.216 -0.763
vn 0.9087 -0.2395 -0.3419
vn 0.9649 -0.1988 0.1717
vn 0.7614 -0.1045 0.6398
vn 0.3523 0.018 0.9357
vn -0.146 0.1823 0.9723
vn -0.6144 0.2326 0.7539
vn -0.9164 0.2203 0.3341
vn -0.9735 0.1493 -0.1731
vn -0.7729 0.0391 -0.6333
vn -0.3683 -0.0815 -0.9261
vn 0.1344 -0.1806 -0.9743
vn 0.6029 -0.232 -0.7634
vn 0.9113 -0.2215 -0.347
vn 0.9748 -0.1512 0.1642
vn 0.7741 -0.0398 0.6319
vn 0.363 0.0825 0.9281
vn -0.1416 0.2565 0.9561
vn -0.6187 0.242 0.7474
vn -0.9265 0.1623 0.3396
vn -0.9871 0.0402 -0.1547
vn -0.7901 -0.0916 -0.606
vn -0.388 -0.1996 -0.8998
vn 0.1174 -0.2559 -0.9595
vn 0.5955 -0.2448 -0.7652
vn 0.9165 -0.168 -0.3632
vn 0.9892 -0.0455 0.1396
vn 0.7911 0.0897 0.6051
vn 0.3759 0.2006 0.9047
vn -0.1584 0.393 0.9058
vn -0.632 0.2431 0.7359
vn -0.9281 0.0287 0.3712
vn -0.9784 -0.1894 -0.0834
vn -0.7814 -0.357 -0.5117
vn -0.3891 -0.4357 -0.8116
vn 0.1063 -0.4044 -0.9084
vn 0.5824 -0.2661 -0.7681
vn 0.9077 -0.0545 -0.416
vn 0.9835 0.172 0.0557
vn 0.7836 0.3506 0.5129
vn 0.3633 0.4324 0.8253
vn -0.2826 0.5829 0.7618
vn -0.6464 0.222 0.73
vn -0.8374 -0.1861 0.514
vn -0.8198 -0.5465 0.1713
vn -0.5975 -0.7723 -0.2159
vn -0.2257 -0.8047 -0.5491
vn 0.2 -0.6373 -0.7442
vn 0.5772 -0.3113 -0.755
vn 0.8144 0.1031 -0.5711
vn 0.8335 0.5072 -0.2192
vn 0.5991 0.7718 0.2131
vn 0.1771 0.7954 0.5796
vn -0.4248 0.7045 0.5685
vn -0.6384 0.2505 0.7278
vn -0.6774 -0.2649 0.6863
vn -0.5387 -0.7018 0.4661
vn -0.265 -0.9554 0.1304
vn 0.0751 -0.9684 -0.238
vn 0.3996 -0.7337 -0.5495
vn 0.6238 -0.3017 -0.721
vn 0.6803 0.2177 -0.6999
vn 0.5478 0.68 -0.4874
vn 0.2635 0.9544 -0.1399
vn -0.0933 0.9642 0.2484
vn -0.4916 0.7259 0.481
vn -0.6662 0.2825 0.6902
vn -0.6603 -0.2391 0.7119
vn -0.4751 -0.695 0.5397
vn -0.162 -0.9614 0.2222
vn 0.1936 -0.9689 -0.1538
vn 0.4972 -0.7173 -0.4882
vn 0.6676 -0.274 -0.6923
vn 0.6596 0.2417 -0.7117
vn 0.4764 0.6921 -0.5423
vn 0.1675 0.9587 -0.2299
vn -0.1861 0.972 0.1438
vn -0.5065 0.7242 0.468
vn -0.7033 0.2811 0.6529
vn -0.7106 -0.2388 0.6619
vn -0.5255 -0.6944 0.4916
vn -0.1983 -0.9618 0.1885
vn 0.1817 -0.9694 -0.1649
vn 0.512 -0.7169 -0.4732
vn 0.7048 -0.2737 -0.6545
vn 0.71 0.2416 -0.6615
vn 0.5268 0.6924 -0.493
vn 0.2037 0.9597 -0.1935
vn -0.1742 0.972 0.1579
vn -0.5132 0.7222 0.4636
vn -0.7237 0.2796 0.631
vn -0.7399 -0.2386 0.629
vn -0.5571 -0.6928 0.4578
vn -0.2244 -0.9607 0.1634
vn 0.1686 -0.9701 -0.1748
vn 0.5159 -0.719 -0.4658
vn 0.7246 -0.2756 -0.6317
vn 0.7395 0.2409 -0.6286
vn 0.557 0.6929 -0.4578
vn 0.226 0.9601 -0.1649
vn -0.1656 0.971 0.1723
vn -0.5074 0.7185 0.4757
vn -0.7168 0.2762 0.6403
vn -0.7352 -0.2394 0.6342
vn -0.5578 -0.6914 0.4592
vn -0.2314 -0.9594 0.1615
vn 0.1575 -0.971 -0.1798
vn 0.5047 -0.7219 -0.4734
vn 0.7164 -0.2782 -0.6398
vn 0.7351 0.2406 -0.6338
vn 0.5558 0.6944 -0.4571
vn 0.2271 0.961 -0.1576
vn -0.1621 0.9695 0.1838
vn -0.4845 0.7141 0.5053
vn -0.6747 0.2715 0.6863
vn -0.6864 -0.242 0.6858
vn -0.5171 -0.6916 0.5043
vn -0.2107 -0.9591 0.1892
vn 0.1527 -0.9722 -0.1773
vn 0.4768 -0.7246 -0.4976
vn 0.6731 -0.2802 -0.6844
vn 0.6868 0.2414 -0.6856
vn 0.5135 0.6973 -0.5
vn 0.2011 0.9631 -0.1792
vn -0.1644 0.9681 0.189
vn -0.4448 0.712 0.5433
vn -0.5988 0.2697 0.7541
vn -0.595 -0.2425 0.7663
vn -0.4349 -0.6911 0.5772
vn -0.16 -0.9585 0.2358
vn 0.1583 -0.9728 -0.1693
vn 0.4359 -0.7267 -0.531
vn 0.5968 -0.2826 -0.751
vn 0.5953 0.2405 -0.7666
vn 0.4306 0.6981 -0.5721
vn 0.1486 0.9637 -0.2216
vn -0.172 0.9672 0.187
vn -0.3741 0.7183 0.5866
vn -0.501 0.2789 0.8192
vn -0.4961 -0.2337 0.8362
vn -0.3602 -0.6857 0.6326
vn -0.1279 -0.9571 0.26
vn 0.1399 -0.9729 -0.1843
vn 0.3709 -0.7248 -0.5806
vn 0.5011 -0.2784 -0.8194
vn 0.4944 0.2437 -0.8344
vn 0.3534 0.6982 -0.6226
vn 0.1179 0.9626 -0.2439
vn -0.1482 0.9688 0.1984
vn -0.2777 0.7196 0.6364
vn -0.3958 0.2807 0.8744
vn -0.4097 -0.2323 0.8821
vn -0.3154 -0.685 0.6568
vn -0.1367 -0.9571 0.2554
vn 0.0797 -0.973 -0.2168
vn 0.2753 -0.7244 -0.632
vn 0.3961 -0.2776 -0.8752
vn 0.4087 0.2444 -0.8793
vn 0.3105 0.6983 -0.645
vn 0.1291 0.9626 -0.2384
vn -0.086 0.9693 0.2302
vn -0.2086 0.7141 0.6683
vn -0.3004 0.2713 0.9144
vn -0.3125 -0.242 0.9186
vn -0.2423 -0.6913 0.6808
vn -0.1082 -0.9587 0.2631
vn 0.0549 -0.9727 -0.2255
vn 0.204 -0.7267 -0.656
vn 0.2989 -0.2833 -0.9113
vn 0.3128 0.2387 -0.9193
vn 0.2413 0.6959 -0.6763
vn 0.1041 0.9627 -0.2496
vn -0.0608 0.9681 0.243
vn -0.1992 0.712 0.6734
vn -0.2304 0.2679 0.9355
vn -0.2005 -0.245 0.9486
vn -0.1178 -0.6919 0.7123
vn -0.0044 -0.9572 0.2895
vn 0.1104 -0.9714 -0.2102
vn 0.1964 -0.7286 -0.6562
vn 0.2303 -0.2896 -0.929
vn 0.2021 0.2304 -0.9519
vn 0.1187 0.6894 -0.7146
vn 0.0026 0.9597 -0.281
vn -0.114 0.9669 0.2284
vn -0.236 0.707 0.6667
vn -0.1904 0.2714 0.9434
vn -0.0944 -0.2338 0.9677
vn 0.026 -0.6753 0.7371
vn 0.1395 -0.9391 0.314
vn 0.2165 -0.9573 -0.1917
vn 0.2367 -0.7233 -0.6487
vn 0.194 -0.2957 -0.9354
vn 0.0988 0.2143 -0.9718
vn -0.0238 0.6684 -0.7434
vn -0.1402 0.9402 -0.3103
vn -0.2179 0.9536 0.2075
vn -0.296 0.692 0.6584
vn -0.1762 0.2762 0.9448
vn -0.0101 -0.2111 0.9774
vn 0.1579 -0.6404 0.7516
vn 0.2841 -0.9005 0.3291
vn 0.3359 -0.9246 -0.1797
vn 0.2993 -0.7053 -0.6427
vn 0.183 -0.2976 -0.937
vn 0.0169 0.1922 -0.9812
vn -0.1546 0.6323 -0.7592
vn -0.2843 0.9006 -0.3288
vn -0.3361 0.9221 0.1917
vn -0.3589 0.6679 0.652
vn -0.1785 0.2772 0.9441
vn 0.0491 -0.186 0.9813
vn 0.2624 -0.5972 0.7579
vn 0.4059 -0.8499 0.3361
vn 0.4429 -0.8796 -0.1737
vn 0.3632 -0.6775 -0.6396
vn 0.1865 -0.2939 -0.9375
vn -0.0412 0.1705 -0.9845
vn -0.2581 0.59 -0.765
vn -0.4052 0.8497 -0.3375
vn -0.4422 0.8782 0.1821
vn -0.4393 0.6071 0.6622
vn -0.1705 0.2674 0.9484
vn 0.1406 -0.1395 0.9802
vn 0.4129 -0.5072 0.7565
vn 0.5777 -0.7428 0.3384
vn 0.5939 -0.7871 -0.1669
vn 0.4562 -0.6277 -0.6307
vn 0.1978 -0.3023 -0.9325
vn -0.1165 0.1079 -0.9873
vn -0.4023 0.4932 -0.7713
vn -0.5775 0.7433 -0.3376
vn -0.5904 0.7842 0.1908
vn -0.5305 0.5181 0.671
vn -0.1624 0.2773 0.947
vn 0.245 -0.0348 0.9689
vn 0.5856 -0.3355 0.738
vn 0.7737 -0.5485 0.3172
vn 0.7623 -0.6201 -0.1854
vn 0.5531 -0.5311 -0.6419
vn 0.1967 -0.3017 -0.9329
vn -0.2164 0.0112 -0.9762
vn -0.5744 0.324 -0.7517
vn -0.7743 0.5484 -0.3159
vn -0.7572 0.6192 0.2082
vn -0.5877 0.4433 0.6768
vn -0.1695 0.2872 0.9428
vn 0.292 0.0547 0.9548
vn 0.6738 -0.1911 0.7138
vn 0.8772 -0.3859 0.2857
vn 0.8503 -0.4793 -0.2173
vn 0.599 -0.4467 -0.6646
vn 0.1871 -0.2949 -0.937
vn -0.2771 -0.0634 -0.9587
vn -0.6678 0.186 -0.7207
vn -0.8773 0.3852 -0.2862
vn -0.8478 0.4795 0.2264
vn -0.6114 0.3997 0.683
vn -0.1777 0.2826 0.9426
vn 0.3027 0.09 0.9488
vn 0.7013 -0.1263 0.7016
vn 0.9126 -0.3086 0.2681
vn 0.8814 -0.4089 -0.2364
vn 0.6158 -0.4005 -0.6785
vn 0.1855 -0.2853 -0.9403
vn -0.2953 -0.0934 -0.9508
vn -0.6976 0.1238 -0.7057
vn -0.9123 0.308 -0.27
vn -0.8807 0.409 0.2389
vn -0.624 0.3734 0.6864
vn -0.1869 0.2686 0.9449
vn 0.3004 0.0917 0.9494
vn 0.7067 -0.1098 0.699
vn 0.9232 -0.2816 0.2615
vn 0.8926 -0.378 -0.2456
vn 0.6236 -0.3734 -0.6868
vn 0.188 -0.269 -0.9446
vn -0.2979 -0.0927 -0.9501
vn -0.7044 0.1084 -0.7015
vn -0.9226 0.2807 -0.2648
vn -0.8933 0.3778 0.2433
vn -0.6325 0.3578 0.687
vn -0.1996 0.2437 0.9491
vn 0.2876 0.0637 0.9556
vn 0.6973 -0.1335 0.7042
vn 0.9187 -0.2946 0.263
vn 0.8926 -0.3762 -0.2486
vn 0.627 -0.3568 -0.6925
vn 0.1943 -0.242 -0.9506
vn -0.2895 -0.0629 -0.9551
vn -0.696 0.1328 -0.7057
vn -0.9176 0.2933 -0.2685
vn -0.8948 0.3757 0.241
vn -0.6392 0.3512 0.6842
vn -0.2226 0.2004 0.9541
vn 0.256 -0.0052 0.9667
vn 0.6661 -0.21 0.7157
vn 0.8943 -0.3575 0.2693
vn 0.8786 -0.4073 -0.2492
vn 0.6262 -0.3471 -0.6982
vn 0.2078 -0.1945 -0.9586
vn -0.264 0.009 -0.9645
vn -0.6656 0.2098 -0.7163
vn -0.892 0.3554 -0.2793
vn -0.8831 0.4074 0.2325
vn -0.652 0.3259 0.6847
vn -0.2583 0.1221 0.9583
vn 0.2074 -0.1159 0.9714
vn 0.6168 -0.3223 0.7181
vn 0.8566 -0.4401 0.2694
vn 0.8635 -0.4381 -0.25
vn 0.6393 -0.319 -0.6997
vn 0.2468 -0.116 -0.9621
vn -0.2097 0.117 -0.9707
vn -0.6111 0.3192 -0.7244
vn -0.8521 0.4378 -0.2869
vn -0.8681 0.4408 0.2282
vn -0.6865 0.2493 0.6831
vn -0.3046 0.0142 0.9524
vn 0.16 -0.2246 0.9612
vn 0.5796 -0.4015 0.7091
vn 0.8415 -0.4695 0.2673
vn 0.8779 -0.4121 -0.244
vn 0.6818 -0.2458 -0.689
vn 0.3065 -0.0151 -0.9518
vn -0.1494 0.2194 -0.9641
vn -0.5668 0.3966 -0.7221
vn -0.8353 0.4691 -0.2868
vn -0.8804 0.4158 0.228
vn -0.735 0.1498 0.6613
vn -0.3591 -0.0967 0.9283
vn 0.1149 -0.3167 0.9416
vn 0.5564 -0.45 0.6986
vn 0.8458 -0.4613 0.2682
vn 0.9079 -0.3493 -0.2318
vn 0.7295 -0.1453 -0.6684
vn 0.3595 0.0965 -0.9281
vn -0.105 0.3129 -0.944
vn -0.5429 0.4473 -0.7108
vn -0.8382 0.4633 -0.2876
vn -0.9099 0.3549 0.2149
vn -0.7766 0.0565 0.6274
vn -0.4089 -0.2075 0.8887
vn 0.0708 -0.4149 0.9071
vn 0.5302 -0.5088 0.6783
vn 0.8443 -0.4648 0.2669
vn 0.9308 -0.2965 -0.214
vn 0.7701 -0.0503 -0.636
vn 0.407 0.2085 -0.8893
vn -0.0627 0.4124 -0.9088
vn -0.5169 0.508 -0.689
vn -0.8356 0.4692 -0.2856
vn -0.9321 0.3044 0.1963
vn -0.8107 -0.0242 0.5849
vn -0.4541 -0.3136 0.8339
vn 0.0272 -0.5175 0.8553
vn 0.5004 -0.5798 0.6429
vn 0.8361 -0.4847 0.2568
vn 0.9455 -0.2598 -0.1964
vn 0.8029 0.0333 -0.5952
vn 0.4491 0.3165 -0.8355
vn -0.0222 0.5163 -0.8561
vn -0.4881 0.5806 -0.6517
vn -0.8266 0.4915 -0.2743
vn -0.946 0.2707 0.1782
vn -0.8377 -0.0858 0.5393
vn -0.4968 -0.4105 0.7647
vn -0.0188 -0.6237 0.7815
vn 0.4642 -0.6659 0.5841
vn 0.819 -0.5265 0.2279
vn 0.9509 -0.2456 -0.1882
vn 0.8281 0.0996 -0.5517
vn 0.4869 0.417 -0.7675
vn 0.0189 0.6241 -0.7811
vn -0.4539 0.6677 -0.5901
vn -0.8086 0.5356 -0.2434
vn -0.9504 0.2607 0.1694
vn -0.8572 -0.1206 0.5007
vn -0.5403 -0.4934 0.6816
vn -0.0736 -0.7321 0.6772
vn 0.4137 -0.7696 0.4863
vn 0.7864 -0.5961 0.1618
vn 0.9432 -0.2608 -0.2057
vn 0.8451 0.1435 -0.515
vn 0.5233 0.5073 -0.6846
vn 0.0664 0.7363 -0.6734
vn -0.4065 0.7731 -0.487
vn -0.7744 0.6084 -0.1737
vn -0.9408 0.2828 0.1869
vn -0.8706 -0.1262 0.4755
vn -0.6016 -0.5624 0.5672
vn -0.163 -0.8481 0.5042
vn 0.3246 -0.8974 0.2988
vn 0.72 -0.694 0.0089
vn 0.9118 -0.2993 -0.281
vn 0.8543 0.1719 -0.4904
vn 0.572 0.5927 -0.567
vn 0.1438 0.8565 -0.4957
vn -0.3199 0.8995 -0.2975
vn -0.702 0.7118 -0.0228
vn -0.9044 0.3389 0.259
vn -0.8779 -0.1283 0.4614
vn -0.6766 -0.607 0.4168
vn -0.2856 -0.9235 0.2559
vn 0.1888 -0.9818 0.0218
vn 0.6092 -0.7625 -0.218
vn 0.8562 -0.3329 -0.395
vn 0.8677 0.1814 -0.4628
vn 0.6498 0.6416 -0.4077
vn 0.2654 0.9318 -0.2475
vn -0.1854 0.9823 -0.0246
vn -0.5891 0.7817 0.2047
vn -0.8429 0.3784 0.3825
vn -0.8842 -0.133 0.4478
vn -0.749 -0.6044 0.2714
vn -0.4068 -0.9133 0.0184
vn 0.0504 -0.9693 -0.2407
vn 0.4933 -0.7549 -0.4322
vn 0.7974 -0.333 -0.5033
vn 0.8819 0.1756 -0.4375
vn 0.731 0.6324 -0.2565
vn 0.3907 0.9205 -0.0103
vn -0.0487 0.9702 0.2375
vn -0.4759 0.7703 0.4245
vn -0.7819 0.3693 0.5023
vn -0.889 -0.1325 0.4383
vn -0.8099 -0.5646 0.1591
vn -0.5082 -0.8451 -0.166
vn -0.0645 -0.8925 -0.4464
vn 0.397 -0.6923 -0.6026
vn 0.7469 -0.3024 -0.5922
vn 0.8914 0.1666 -0.4214
vn 0.7973 0.587 -0.1401
vn 0.4952 0.8508 0.1757
vn 0.066 0.8932 0.4448
vn -0.3805 0.7045 0.5991
vn -0.7299 0.3313 0.5979
vn -0.892 -0.1296 0.433
vn -0.8618 -0.5022 0.0712
vn -0.5954 -0.7401 -0.3127
vn -0.1631 -0.7741 -0.6117
vn 0.3142 -0.5935 -0.7409
vn 0.7029 -0.2505 -0.6658
vn 0.898 0.1579 -0.4107
vn 0.8523 0.5208 -0.0484
vn 0.5836 0.7446 0.3241
vn 0.1645 0.7743 0.611
vn -0.2974 0.6035 0.7398
vn -0.6837 0.2745 0.6761
vn -0.8933 -0.1263 0.4313
vn -0.9077 -0.4197 0.0019
vn -0.6734 -0.6004 -0.4313
vn -0.2515 -0.6156 -0.7469
vn 0.2401 -0.4597 -0.855
vn 0.6632 -0.1779 -0.727
vn 0.903 0.1498 -0.4027
vn 0.9002 0.4347 0.026
vn 0.6617 0.6035 0.4448
vn 0.2527 0.6153 0.7467
vn -0.2218 0.468 0.8554
vn -0.6407 0.198 0.7418
vn -0.8932 -0.1244 0.4321
vn -0.9477 -0.3154 -0.0487
vn -0.7426 -0.4216 -0.5204
vn -0.33 -0.4112 -0.8497
vn 0.1745 -0.286 -0.9422
vn 0.628 -0.0825 -0.7738
vn 0.907 0.1415 -0.3967
vn 0.9419 0.3256 0.0824
vn 0.7304 0.4231 0.5362
vn 0.3309 0.4108 0.8496
vn -0.154 0.2926 0.9438
vn -0.6011 0.0978 0.7932
vn -0.8928 -0.1241 0.433
vn -0.9639 -0.2571 -0.0687
vn -0.7695 -0.3197 -0.5528
vn -0.3632 -0.294 -0.8841
vn 0.1432 -0.1874 -0.9718
vn 0.6106 -0.0289 -0.7914
vn 0.9088 0.137 -0.3941
vn 0.9587 0.2641 0.1052
vn 0.7569 0.3201 0.5697
vn 0.3639 0.2938 0.8839
vn -0.1217 0.1929 0.9737
vn -0.5812 0.041 0.8127
#end 684 normals 

#begin 672 faces
o BézierCurve
s 1
f 1/1/1 13/13/13 24/24/24 12/12/12 
f 2/2/2 14/14/14 13/13/13 1/1/1 
f 3/3/3 15/15/15 14/14/14 2/2/2 
f 4/698/4 16/16/16 15/15/15 3/3/3 
f 5/5/5 17/17/17 16/706/16 4/4/4 
f 6/6/6 18/18/18 17/17/17 5/5/5 
f 7/7/7 19/19/19 18/18/18 6/6/6 
f 8/8/8 20/20/20 19/19/19 7/7/7 
f 9/9/9 21/21/21 20/20/20 8/8/8 
f 10/10/10 22/22/22 21/21/21 9/9/9 
f 11/11/11 23/23/23 22/22/22 10/10/10 
f 12/12/12 24/24/24 23/23/23 11/11/11 
f 13/13/13 25/25/25 36/36/36 24/24/24 
f 14/14/14 26/26/26 25/25/25 13/13/13 
f 15/15/15 27/27/27 26/26/26 14/14/14 
f 16/16/16 28/28/28 27/27/27 15/15/15 
f 17/17/17 29/29/29 28/704/28 16/706/16 
f 18/18/18 30/30/30 29/29/29 17/17/17 
f 19/19/19 31/31/31 30/30/30 18/18/18 
f 20/20/20 32/32/32 31/31/31 19/19/19 
f 21/21/21 33/33/33 32/32/32 20/20/20 
f 22/22/22 34/34/34 33/33/33 21/21/21 
f 23/23/23 35/35/35 34/34/34 22/22/22 
f 24/24/24 36/36/36 35/35/35 23/23/23 
f 25/25/25 37/37/37 48/48/48 36/36/36 
f 26/26/26 38/38/38 37/37/37 25/25/25 
f 27/27/27 39/39/39 38/38/38 26/26/26 
f 28/28/28 40/40/40 39/39/39 27/27/27 
f 29/29/29 41/41/41 40/702/40 28/704/28 
f 30/30/30 42/42/42 41/41/41 29/29/29 
f 31/31/31 43/43/43 42/42/42 30/30/30 
f 32/32/32 44/44/44 43/43/43 31/31/31 
f 33/33/33 45/45/45 44/44/44 32/32/32 
f 34/34/34 46/46/46 45/45/45 33/33/33 
f 35/35/35 47/47/47 46/46/46 34/34/34 
f 36/36/36 48/48/48 47/47/47 35/35/35 
f 37/37/37 49/49/49 60/60/60 48/48/48 
f 38/38/38 50/50/50 49/49/49 37/37/37 
f 39/39/39 51/51/51 50/50/50 38/38/38 
f 40/40/40 52/52/52 51/51/51 39/39/39 
f 41/41/41 53/53/53 52/689/52 40/702/40 
f 42/42/42 54/54/54 53/53/53 41/41/41 
f 43/43/43 55/55/55 54/54/54 42/42/42 
f 44/44/44 56/56/56 55/55/55 43/43/43 
f 45/45/45 57/57/57 56/56/56 44/44/44 
f 46/46/46 58/58/58 57/57/57 45/45/45 
f 47/47/47 59/59/59 58/58/58 46/46/46 
f 48/48/48 60/60/60 59/59/59 47/47/47 
f 49/49/49 61/61/61 72/72/72 60/60/60 
f 50/50/50 62/62/62 61/61/61 49/49/49 
f 51/51/51 63/63/63 62/62/62 50/50/50 
f 52/52/52 64/64/64 63/63/63 51/51/51 
f 53/53/53 65/65/65 64/694/64 52/689/52 
f 54/54/54 66/66/66 65/65/65 53/53/53 
f 55/55/55 67/67/67 66/66/66 54/54/54 
f 56/56/56 68/68/68 67/67/67 55/55/55 
f 57/57/57 69/69/69 68/68/68 56/56/56 
f 58/58/58 70/70/70 69/69/69 57/57/57 
f 59/59/59 71/71/71 70/70/70 58/58/58 
f 60/60/60 72/72/72 71/71/71 59/59/59 
f 61/61/61 73/73/73 84/84/84 72/72/72 
f 62/62/62 74/74/74 73/73/73 61/61/61 
f 63/63/63 75/75/75 74/74/74 62/62/62 
f 64/64/64 76/76/76 75/75/75 63/63/63 
f 65/65/65 77/77/77 76/687/76 64/694/64 
f 66/66/66 78/78/78 77/77/77 65/65/65 
f 67/67/67 79/79/79 78/78/78 66/66/66 
f 68/68/68 80/80/80 79/79/79 67/67/67 
f 69/69/69 81/81/81 80/80/80 68/68/68 
f 70/70/70 82/82/82 81/81/81 69/69/69 
f 71/71/71 83/83/83 82/82/82 70/70/70 
f 72/72/72 84/84/84 83/83/83 71/71/71 
f 73/73/73 85/85/85 96/96/96 84/84/84 
f 74/74/74 86/86/86 85/85/85 73/73/73 
f 75/75/75 87/87/87 86/86/86 74/74/74 
f 76/76/76 88/772/88 87/87/87 75/75/75 
f 77/77/77 89/89/89 88/692/88 76/687/76 
f 78/78/78 90/90/90 89/89/89 77/77/77 
f 79/79/79 91/91/91 90/90/90 78/78/78 
f 80/80/80 92/92/92 91/91/91 79/79/79 
f 81/81/81 93/93/93 92/92/92 80/80/80 
f 82/82/82 94/94/94 93/93/93 81/81/81 
f 83/83/83 95/95/95 94/94/94 82/82/82 
f 84/84/84 96/96/96 95/95/95 83/83/83 
f 85/775/85 97/97/97 108/108/108 96/771/96 
f 86/769/86 98/98/98 97/97/97 85/775/85 
f 87/774/87 99/99/99 98/98/98 86/769/86 
f 88/88/88 100/100/100 99/99/99 87/774/87 
f 89/768/89 101/101/101 100/686/100 88/770/88 
f 90/779/90 102/102/102 101/101/101 89/768/89 
f 91/778/91 103/103/103 102/102/102 90/779/90 
f 92/777/92 104/104/104 103/103/103 91/778/91 
f 93/780/93 105/105/105 104/104/104 92/777/92 
f 94/776/94 106/106/106 105/105/105 93/780/93 
f 95/773/95 107/107/107 106/106/106 94/776/94 
f 96/771/96 108/108/108 107/107/107 95/773/95 
f 97/97/97 109/109/109 120/120/120 108/108/108 
f 98/98/98 110/110/110 109/109/109 97/97/97 
f 99/99/99 111/111/111 110/110/110 98/98/98 
f 100/100/100 112/112/112 111/111/111 99/99/99 
f 101/101/101 113/113/113 112/691/112 100/686/100 
f 102/102/102 114/114/114 113/113/113 101/101/101 
f 103/103/103 115/115/115 114/114/114 102/102/102 
f 104/104/104 116/116/116 115/115/115 103/103/103 
f 105/105/105 117/117/117 116/116/116 104/104/104 
f 106/106/106 118/118/118 117/117/117 105/105/105 
f 107/107/107 119/119/119 118/118/118 106/106/106 
f 108/108/108 120/120/120 119/119/119 107/107/107 
f 109/109/109 121/121/121 132/132/132 120/120/120 
f 110/110/110 122/122/122 121/121/121 109/109/109 
f 111/111/111 123/123/123 122/122/122 110/110/110 
f 112/112/112 124/747/124 123/123/123 111/111/111 
f 113/113/113 125/125/125 124/685/124 112/691/112 
f 114/114/114 126/126/126 125/125/125 113/113/113 
f 115/115/115 127/127/127 126/126/126 114/114/114 
f 116/116/116 128/128/128 127/127/127 115/115/115 
f 117/117/117 129/129/129 128/128/128 116/116/116 
f 118/118/118 130/130/130 129/129/129 117/117/117 
f 119/119/119 131/131/131 130/130/130 118/118/118 
f 120/120/120 132/132/132 131/131/131 119/119/119 
f 121/749/121 133/133/133 144/144/144 132/746/132 
f 122/754/122 134/134/134 133/133/133 121/749/121 
f 123/748/123 135/135/135 134/134/134 122/754/122 
f 124/124/124 136/136/136 135/135/135 123/748/123 
f 125/745/125 137/137/137 136/690/136 124/742/124 
f 126/744/126 138/138/138 137/137/137 125/745/125 
f 127/743/127 139/139/139 138/138/138 126/744/126 
f 128/752/128 140/140/140 139/139/139 127/743/127 
f 129/751/129 141/141/141 140/140/140 128/752/128 
f 130/753/130 142/142/142 141/141/141 129/751/129 
f 131/750/131 143/143/143 142/142/142 130/753/130 
f 132/746/132 144/144/144 143/143/143 131/750/131 
f 133/133/133 145/145/145 156/156/156 144/144/144 
f 134/134/134 146/146/146 145/145/145 133/133/133 
f 135/135/135 147/147/147 146/146/146 134/134/134 
f 136/136/136 148/148/148 147/147/147 135/135/135 
f 137/137/137 149/149/149 148/695/148 136/690/136 
f 138/138/138 150/150/150 149/149/149 137/137/137 
f 139/139/139 151/151/151 150/150/150 138/138/138 
f 140/140/140 152/152/152 151/151/151 139/139/139 
f 141/141/141 153/153/153 152/152/152 140/140/140 
f 142/142/142 154/154/154 153/153/153 141/141/141 
f 143/143/143 155/155/155 154/154/154 142/142/142 
f 144/144/144 156/156/156 155/155/155 143/143/143 
f 145/145/145 157/157/157 168/168/168 156/156/156 
f 146/146/146 158/158/158 157/157/157 145/145/145 
f 147/147/147 159/159/159 158/158/158 146/146/146 
f 148/148/148 160/160/160 159/159/159 147/147/147 
f 149/149/149 161/161/161 160/696/160 148/695/148 
f 150/150/150 162/162/162 161/161/161 149/149/149 
f 151/151/151 163/163/163 162/162/162 150/150/150 
f 152/152/152 164/164/164 163/163/163 151/151/151 
f 153/153/153 165/165/165 164/164/164 152/152/152 
f 154/154/154 166/166/166 165/165/165 153/153/153 
f 155/155/155 167/167/167 166/166/166 154/154/154 
f 156/156/156 168/168/168 167/167/167 155/155/155 
f 157/157/157 169/169/169 180/180/180 168/168/168 
f 158/158/158 170/170/170 169/169/169 157/157/157 
f 159/159/159 171/171/171 170/170/170 158/158/158 
f 160/160/160 172/172/172 171/171/171 159/159/159 
f 161/161/161 173/173/173 172/700/172 160/696/160 
f 162/162/162 174/174/174 173/173/173 161/161/161 
f 163/163/163 175/175/175 174/174/174 162/162/162 
f 164/164/164 176/176/176 175/175/175 163/163/163 
f 165/165/165 177/177/177 176/176/176 164/164/164 
f 166/166/166 178/178/178 177/177/177 165/165/165 
f 167/167/167 179/179/179 178/178/178 166/166/166 
f 168/168/168 180/180/180 179/179/179 167/167/167 
f 169/169/169 181/181/181 192/192/192 180/180/180 
f 170/170/170 182/182/182 181/181/181 169/169/169 
f 171/171/171 183/183/183 182/182/182 170/170/170 
f 172/172/172 184/184/184 183/183/183 171/171/171 
f 173/173/173 185/185/185 184/697/184 172/700/172 
f 174/174/174 186/186/186 185/185/185 173/173/173 
f 175/175/175 187/187/187 186/186/186 174/174/174 
f 176/176/176 188/188/188 187/187/187 175/175/175 
f 177/177/177 189/189/189 188/188/188 176/176/176 
f 178/178/178 190/190/190 189/189/189 177/177/177 
f 179/179/179 191/191/191 190/190/190 178/178/178 
f 180/180/180 192/192/192 191/191/191 179/179/179 
f 181/181/181 193/193/193 204/204/204 192/192/192 
f 182/182/182 194/194/194 193/193/193 181/181/181 
f 183/183/183 195/195/195 194/194/194 182/182/182 
f 184/184/184 196/196/196 195/195/195 183/183/183 
f 185/185/185 197/197/197 196/699/196 184/697/184 
f 186/186/186 198/198/198 197/197/197 185/185/185 
f 187/187/187 199/199/199 198/198/198 186/186/186 
f 188/188/188 200/200/200 199/199/199 187/187/187 
f 189/189/189 201/201/201 200/200/200 188/188/188 
f 190/190/190 202/202/202 201/201/201 189/189/189 
f 191/191/191 203/203/203 202/202/202 190/190/190 
f 192/192/192 204/204/204 203/203/203 191/191/191 
f 193/193/193 205/205/205 216/216/216 204/204/204 
f 194/194/194 206/206/206 205/205/205 193/193/193 
f 195/195/195 207/207/207 206/206/206 194/194/194 
f 196/196/196 208/208/208 207/207/207 195/195/195 
f 197/197/197 209/209/209 208/705/208 196/699/196 
f 198/198/198 210/210/210 209/209/209 197/197/197 
f 199/199/199 211/211/211 210/210/210 198/198/198 
f 200/200/200 212/212/212 211/211/211 199/199/199 
f 201/201/201 213/213/213 212/212/212 200/200/200 
f 202/202/202 214/214/214 213/213/213 201/201/201 
f 203/203/203 215/215/215 214/214/214 202/202/202 
f 204/204/204 216/216/216 215/215/215 203/203/203 
f 205/205/205 217/217/217 228/228/228 216/216/216 
f 206/206/206 218/218/218 217/217/217 205/205/205 
f 207/207/207 219/219/219 218/218/218 206/206/206 
f 208/208/208 220/220/220 219/219/219 207/207/207 
f 209/209/209 221/221/221 220/703/220 208/705/208 
f 210/210/210 222/222/222 221/221/221 209/209/209 
f 211/211/211 223/223/223 222/222/222 210/210/210 
f 212/212/212 224/224/224 223/223/223 211/211/211 
f 213/213/213 225/225/225 224/224/224 212/212/212 
f 214/214/214 226/226/226 225/225/225 213/213/213 
f 215/215/215 227/227/227 226/226/226 214/214/214 
f 216/216/216 228/228/228 227/227/227 215/215/215 
f 217/217/217 229/229/229 240/240/240 228/228/228 
f 218/218/218 230/230/230 229/229/229 217/217/217 
f 219/219/219 231/231/231 230/230/230 218/218/218 
f 220/220/220 232/232/232 231/231/231 219/219/219 
f 221/221/221 233/233/233 232/701/232 220/703/220 
f 222/222/222 234/234/234 233/233/233 221/221/221 
f 223/223/223 235/235/235 234/234/234 222/222/222 
f 224/224/224 236/236/236 235/235/235 223/223/223 
f 225/225/225 237/237/237 236/236/236 224/224/224 
f 226/226/226 238/238/238 237/237/237 225/225/225 
f 227/227/227 239/239/239 238/238/238 226/226/226 
f 228/228/228 240/240/240 239/239/239 227/227/227 
f 229/229/229 241/241/241 252/252/252 240/240/240 
f 230/230/230 242/242/242 241/241/241 229/229/229 
f 231/231/231 243/243/243 242/242/242 230/230/230 
f 232/232/232 244/244/244 243/243/243 231/231/231 
f 233/233/233 245/245/245 244/688/244 232/701/232 
f 234/234/234 246/246/246 245/245/245 233/233/233 
f 235/235/235 247/247/247 246/246/246 234/234/234 
f 236/236/236 248/248/248 247/247/247 235/235/235 
f 237/237/237 249/249/249 248/248/248 236/236/236 
f 238/238/238 250/250/250 249/249/249 237/237/237 
f 239/239/239 251/251/251 250/250/250 238/238/238 
f 240/240/240 252/252/252 251/251/251 239/239/239 
f 241/241/241 253/253/253 264/264/264 252/252/252 
f 242/242/242 254/254/254 253/253/253 241/241/241 
f 243/243/243 255/255/255 254/254/254 242/242/242 
f 244/244/244 256/256/256 255/255/255 243/243/243 
f 245/245/245 257/257/257 256/693/256 244/688/244 
f 246/246/246 258/258/258 257/257/257 245/245/245 
f 247/247/247 259/259/259 258/258/258 246/246/246 
f 248/248/248 260/260/260 259/259/259 247/247/247 
f 249/249/249 261/261/261 260/260/260 248/248/248 
f 250/250/250 262/262/262 261/261/261 249/249/249 
f 251/251/251 263/263/263 262/262/262 250/250/250 
f 252/252/252 264/264/264 263/263/263 251/251/251 
f 253/253/253 265/265/265 276/276/276 264/264/264 
f 254/254/254 266/266/266 265/265/265 253/253/253 
f 255/255/255 267/267/267 266/266/266 254/254/254 
f 256/256/256 268/268/268 267/267/267 255/255/255 
f 257/257/257 269/269/269 268/719/268 256/693/256 
f 258/258/258 270/270/270 269/269/269 257/257/257 
f 259/259/259 271/271/271 270/270/270 258/258/258 
f 260/260/260 272/272/272 271/271/271 259/259/259 
f 261/261/261 273/273/273 272/272/272 260/260/260 
f 262/262/262 274/274/274 273/273/273 261/261/261 
f 263/263/263 275/275/275 274/274/274 262/262/262 
f 264/264/264 276/276/276 275/275/275 263/263/263 
f 265/265/265 277/277/277 288/288/288 276/276/276 
f 266/266/266 278/278/278 277/277/277 265/265/265 
f 267/267/267 279/279/279 278/278/278 266/266/266 
f 268/268/268 280/280/280 279/279/279 267/267/267 
f 269/269/269 281/281/281 280/717/280 268/719/268 
f 270/270/270 282/282/282 281/281/281 269/269/269 
f 271/271/271 283/283/283 282/282/282 270/270/270 
f 272/272/272 284/284/284 283/283/283 271/271/271 
f 273/273/273 285/285/285 284/284/284 272/272/272 
f 274/274/274 286/286/286 285/285/285 273/273/273 
f 275/275/275 287/287/287 286/286/286 274/274/274 
f 276/276/276 288/288/288 287/287/287 275/275/275 
f 277/277/277 289/289/289 300/300/300 288/288/288 
f 278/278/278 290/290/290 289/289/289 277/277/277 
f 279/279/279 291/291/291 290/290/290 278/278/278 
f 280/280/280 292/292/292 291/291/291 279/279/279 
f 281/281/281 293/293/293 292/713/292 280/717/280 
f 282/282/282 294/294/294 293/293/293 281/281/281 
f 283/283/283 295/295/295 294/294/294 282/282/282 
f 284/284/284 296/296/296 295/295/295 283/283/283 
f 285/285/285 297/297/297 296/296/296 284/284/284 
f 286/286/286 298/298/298 297/297/297 285/285/285 
f 287/287/287 299/299/299 298/298/298 286/286/286 
f 288/288/288 300/300/300 299/299/299 287/287/287 
f 289/289/289 301/301/301 312/312/312 300/300/300 
f 290/290/290 302/302/302 301/301/301 289/289/289 
f 291/291/291 303/303/303 302/302/302 290/290/290 
f 292/292/292 304/763/304 303/303/303 291/291/291 
f 293/293/293 305/305/305 304/715/304 292/713/292 
f 294/294/294 306/306/306 305/305/305 293/293/293 
f 295/295/295 307/307/307 306/306/306 294/294/294 
f 296/296/296 308/308/308 307/307/307 295/295/295 
f 297/297/297 309/309/309 308/308/308 296/296/296 
f 298/298/298 310/310/310 309/309/309 297/297/297 
f 299/299/299 311/311/311 310/310/310 298/298/298 
f 300/300/300 312/312/312 311/311/311 299/299/299 
f 301/761/301 313/313/313 324/324/324 312/764/312 
f 302/760/302 314/314/314 313/313/313 301/761/301 
f 303/762/303 315/315/315 314/314/314 302/760/302 
f 304/304/304 316/316/316 315/315/315 303/762/303 
f 305/758/305 317/317/317 316/725/316 304/759/304 
f 306/757/306 318/318/318 317/317/317 305/758/305 
f 307/756/307 319/319/319 318/318/318 306/757/306 
f 308/755/308 320/320/320 319/319/319 307/756/307 
f 309/767/309 321/321/321 320/320/320 308/755/308 
f 310/766/310 322/322/322 321/321/321 309/767/309 
f 311/765/311 323/323/323 322/322/322 310/766/310 
f 312/764/312 324/324/324 323/323/323 311/765/311 
f 313/313/313 325/325/325 336/336/336 324/324/324 
f 314/314/314 326/326/326 325/325/325 313/313/313 
f 315/315/315 327/327/327 326/326/326 314/314/314 
f 316/316/316 328/328/328 327/327/327 315/315/315 
f 317/317/317 329/329/329 328/741/328 316/725/316 
f 318/318/318 330/330/330 329/329/329 317/317/317 
f 319/319/319 331/331/331 330/330/330 318/318/318 
f 320/320/320 332/332/332 331/331/331 319/319/319 
f 321/321/321 333/333/333 332/332/332 320/320/320 
f 322/322/322 334/334/334 333/333/333 321/321/321 
f 323/323/323 335/335/335 334/334/334 322/322/322 
f 324/324/324 336/336/336 335/335/335 323/323/323 
f 325/325/325 337/337/337 348/348/348 336/336/336 
f 326/326/326 338/338/338 337/337/337 325/325/325 
f 327/327/327 339/339/339 338/338/338 326/326/326 
f 328/328/328 340/340/340 339/339/339 327/327/327 
f 329/329/329 341/341/341 340/711/340 328/741/328 
f 330/330/330 342/342/342 341/341/341 329/329/329 
f 331/331/331 343/343/343 342/342/342 330/330/330 
f 332/332/332 344/344/344 343/343/343 331/331/331 
f 333/333/333 345/345/345 344/344/344 332/332/332 
f 334/334/334 346/346/346 345/345/345 333/333/333 
f 335/335/335 347/347/347 346/346/346 334/334/334 
f 336/336/336 348/348/348 347/347/347 335/335/335 
f 337/337/337 349/349/349 360/360/360 348/348/348 
f 338/338/338 350/350/350 349/349/349 337/337/337 
f 339/339/339 351/351/351 350/350/350 338/338/338 
f 340/340/340 352/352/352 351/351/351 339/339/339 
f 341/341/341 353/353/353 352/709/352 340/711/340 
f 342/342/342 354/354/354 353/353/353 341/341/341 
f 343/343/343 355/355/355 354/354/354 342/342/342 
f 344/344/344 356/356/356 355/355/355 343/343/343 
f 345/345/345 357/357/357 356/356/356 344/344/344 
f 346/346/346 358/358/358 357/357/357 345/345/345 
f 347/347/347 359/359/359 358/358/358 346/346/346 
f 348/348/348 360/360/360 359/359/359 347/347/347 
f 349/349/349 361/361/361 372/372/372 360/360/360 
f 350/350/350 362/362/362 361/361/361 349/349/349 
f 351/351/351 363/363/363 362/362/362 350/350/350 
f 352/352/352 364/364/364 363/363/363 351/351/351 
f 353/353/353 365/365/365 364/710/364 352/709/352 
f 354/354/354 366/366/366 365/365/365 353/353/353 
f 355/355/355 367/367/367 366/366/366 354/354/354 
f 356/356/356 368/368/368 367/367/367 355/355/355 
f 357/357/357 369/369/369 368/368/368 356/356/356 
f 358/358/358 370/370/370 369/369/369 357/357/357 
f 359/359/359 371/371/371 370/370/370 358/358/358 
f 360/360/360 372/372/372 371/371/371 359/359/359 
f 361/361/361 373/373/373 384/384/384 372/372/372 
f 362/362/362 374/374/374 373/373/373 361/361/361 
f 363/363/363 375/375/375 374/374/374 362/362/362 
f 364/364/364 376/376/376 375/375/375 363/363/363 
f 365/365/365 377/377/377 376/707/376 364/710/364 
f 366/366/366 378/378/378 377/377/377 365/365/365 
f 367/367/367 379/379/379 378/378/378 366/366/366 
f 368/368/368 380/380/380 379/379/379 367/367/367 
f 369/369/369 381/381/381 380/380/380 368/368/368 
f 370/370/370 382/382/382 381/381/381 369/369/369 
f 371/371/371 383/383/383 382/382/382 370/370/370 
f 372/372/372 384/384/384 383/383/383 371/371/371 
f 373/373/373 385/385/385 396/396/396 384/384/384 
f 374/374/374 386/386/386 385/385/385 373/373/373 
f 375/375/375 387/387/387 386/386/386 374/374/374 
f 376/376/376 388/388/388 387/387/387 375/375/375 
f 377/377/377 389/389/389 388/708/388 376/707/376 
f 378/378/378 390/390/390 389/389/389 377/377/377 
f 379/379/379 391/391/391 390/390/390 378/378/378 
f 380/380/380 392/392/392 391/391/391 379/379/379 
f 381/381/381 393/393/393 392/392/392 380/380/380 
f 382/382/382 394/394/394 393/393/393 381/381/381 
f 383/383/383 395/395/395 394/394/394 382/382/382 
f 384/384/384 396/396/396 395/395/395 383/383/383 
f 385/385/385 397/397/397 408/408/408 396/396/396 
f 386/386/386 398/398/398 397/397/397 385/385/385 
f 387/387/387 399/399/399 398/398/398 386/386/386 
f 388/388/388 400/400/400 399/399/399 387/387/387 
f 389/389/389 401/401/401 400/729/400 388/708/388 
f 390/390/390 402/402/402 401/401/401 389/389/389 
f 391/391/391 403/403/403 402/402/402 390/390/390 
f 392/392/392 404/404/404 403/403/403 391/391/391 
f 393/393/393 405/405/405 404/404/404 392/392/392 
f 394/394/394 406/406/406 405/405/405 393/393/393 
f 395/395/395 407/407/407 406/406/406 394/394/394 
f 396/396/396 408/408/408 407/407/407 395/395/395 
f 397/397/397 409/409/409 420/420/420 408/408/408 
f 398/398/398 410/410/410 409/409/409 397/397/397 
f 399/399/399 411/411/411 410/410/410 398/398/398 
f 400/400/400 412/412/412 411/411/411 399/399/399 
f 401/401/401 413/413/413 412/727/412 400/729/400 
f 402/402/402 414/414/414 413/413/413 401/401/401 
f 403/403/403 415/415/415 414/414/414 402/402/402 
f 404/404/404 416/416/416 415/415/415 403/403/403 
f 405/405/405 417/417/417 416/416/416 404/404/404 
f 406/406/406 418/418/418 417/417/417 405/405/405 
f 407/407/407 419/419/419 418/418/418 406/406/406 
f 408/408/408 420/420/420 419/419/419 407/407/407 
f 409/409/409 421/421/421 432/432/432 420/420/420 
f 410/410/410 422/422/422 421/421/421 409/409/409 
f 411/411/411 423/423/423 422/422/422 410/410/410 
f 412/412/412 424/424/424 423/423/423 411/411/411 
f 413/413/413 425/425/425 424/728/424 412/727/412 
f 414/414/414 426/426/426 425/425/425 413/413/413 
f 415/415/415 427/427/427 426/426/426 414/414/414 
f 416/416/416 428/428/428 427/427/427 415/415/415 
f 417/417/417 429/429/429 428/428/428 416/416/416 
f 418/418/418 430/430/430 429/429/429 417/417/417 
f 419/419/419 431/431/431 430/430/430 418/418/418 
f 420/420/420 432/432/432 431/431/431 419/419/419 
f 421/421/421 433/433/433 444/444/444 432/432/432 
f 422/422/422 434/434/434 433/433/433 421/421/421 
f 423/423/423 435/435/435 434/434/434 422/422/422 
f 424/424/424 436/436/436 435/435/435 423/423/423 
f 425/425/425 437/437/437 436/730/436 424/728/424 
f 426/426/426 438/438/438 437/437/437 425/425/425 
f 427/427/427 439/439/439 438/438/438 426/426/426 
f 428/428/428 440/440/440 439/439/439 427/427/427 
f 429/429/429 441/441/441 440/440/440 428/428/428 
f 430/430/430 442/442/442 441/441/441 429/429/429 
f 431/431/431 443/443/443 442/442/442 430/430/430 
f 432/432/432 444/444/444 443/443/443 431/431/431 
f 433/433/433 445/445/445 456/456/456 444/444/444 
f 434/434/434 446/446/446 445/445/445 433/433/433 
f 435/435/435 447/447/447 446/446/446 434/434/434 
f 436/436/436 448/448/448 447/447/447 435/435/435 
f 437/437/437 449/449/449 448/731/448 436/730/436 
f 438/438/438 450/450/450 449/449/449 437/437/437 
f 439/439/439 451/451/451 450/450/450 438/438/438 
f 440/440/440 452/452/452 451/451/451 439/439/439 
f 441/441/441 453/453/453 452/452/452 440/440/440 
f 442/442/442 454/454/454 453/453/453 441/441/441 
f 443/443/443 455/455/455 454/454/454 442/442/442 
f 444/444/444 456/456/456 455/455/455 443/443/443 
f 445/445/445 457/457/457 468/468/468 456/456/456 
f 446/446/446 458/458/458 457/457/457 445/445/445 
f 447/447/447 459/459/459 458/458/458 446/446/446 
f 448/448/448 460/460/460 459/459/459 447/447/447 
f 449/449/449 461/461/461 460/718/460 448/731/448 
f 450/450/450 462/462/462 461/461/461 449/449/449 
f 451/451/451 463/463/463 462/462/462 450/450/450 
f 452/452/452 464/464/464 463/463/463 451/451/451 
f 453/453/453 465/465/465 464/464/464 452/452/452 
f 454/454/454 466/466/466 465/465/465 453/453/453 
f 455/455/455 467/467/467 466/466/466 454/454/454 
f 456/456/456 468/468/468 467/467/467 455/455/455 
f 457/457/457 469/469/469 480/480/480 468/468/468 
f 458/458/458 470/470/470 469/469/469 457/457/457 
f 459/459/459 471/471/471 470/470/470 458/458/458 
f 460/460/460 472/472/472 471/471/471 459/459/459 
f 461/461/461 473/473/473 472/716/472 460/718/460 
f 462/462/462 474/474/474 473/473/473 461/461/461 
f 463/463/463 475/475/475 474/474/474 462/462/462 
f 464/464/464 476/476/476 475/475/475 463/463/463 
f 465/465/465 477/477/477 476/476/476 464/464/464 
f 466/466/466 478/478/478 477/477/477 465/465/465 
f 467/467/467 479/479/479 478/478/478 466/466/466 
f 468/468/468 480/480/480 479/479/479 467/467/467 
f 469/469/469 481/481/481 492/492/492 480/480/480 
f 470/470/470 482/482/482 481/481/481 469/469/469 
f 471/471/471 483/483/483 482/482/482 470/470/470 
f 472/472/472 484/484/484 483/483/483 471/471/471 
f 473/473/473 485/485/485 484/712/484 472/716/472 
f 474/474/474 486/486/486 485/485/485 473/473/473 
f 475/475/475 487/487/487 486/486/486 474/474/474 
f 476/476/476 488/488/488 487/487/487 475/475/475 
f 477/477/477 489/489/489 488/488/488 476/476/476 
f 478/478/478 490/490/490 489/489/489 477/477/477 
f 479/479/479 491/491/491 490/490/490 478/478/478 
f 480/480/480 492/492/492 491/491/491 479/479/479 
f 481/481/481 493/493/493 504/504/504 492/492/492 
f 482/482/482 494/494/494 493/493/493 481/481/481 
f 483/483/483 495/495/495 494/494/494 482/482/482 
f 484/484/484 496/496/496 495/495/495 483/483/483 
f 485/485/485 497/497/497 496/714/496 484/712/484 
f 486/486/486 498/498/498 497/497/497 485/485/485 
f 487/487/487 499/499/499 498/498/498 486/486/486 
f 488/488/488 500/500/500 499/499/499 487/487/487 
f 489/489/489 501/501/501 500/500/500 488/488/488 
f 490/490/490 502/502/502 501/501/501 489/489/489 
f 491/491/491 503/503/503 502/502/502 490/490/490 
f 492/492/492 504/504/504 503/503/503 491/491/491 
f 493/493/493 505/505/505 516/516/516 504/504/504 
f 494/494/494 506/506/506 505/505/505 493/493/493 
f 495/495/495 507/507/507 506/506/506 494/494/494 
f 496/496/496 508/508/508 507/507/507 495/495/495 
f 497/497/497 509/509/509 508/726/508 496/714/496 
f 498/498/498 510/510/510 509/509/509 497/497/497 
f 499/499/499 511/511/511 510/510/510 498/498/498 
f 500/500/500 512/512/512 511/511/511 499/499/499 
f 501/501/501 513/513/513 512/512/512 500/500/500 
f 502/502/502 514/514/514 513/513/513 501/501/501 
f 503/503/503 515/515/515 514/514/514 502/502/502 
f 504/504/504 516/516/516 515/515/515 503/503/503 
f 505/505/505 517/517/517 528/528/528 516/516/516 
f 506/506/506 518/518/518 517/517/517 505/505/505 
f 507/507/507 519/519/519 518/518/518 506/506/506 
f 508/508/508 520/520/520 519/519/519 507/507/507 
f 509/509/509 521/521/521 520/724/520 508/726/508 
f 510/510/510 522/522/522 521/521/521 509/509/509 
f 511/511/511 523/523/523 522/522/522 510/510/510 
f 512/512/512 524/524/524 523/523/523 511/511/511 
f 513/513/513 525/525/525 524/524/524 512/512/512 
f 514/514/514 526/526/526 525/525/525 513/513/513 
f 515/515/515 527/527/527 526/526/526 514/514/514 
f 516/516/516 528/528/528 527/527/527 515/515/515 
f 517/517/517 529/529/529 540/540/540 528/528/528 
f 518/518/518 530/530/530 529/529/529 517/517/517 
f 519/519/519 531/531/531 530/530/530 518/518/518 
f 520/520/520 532/532/532 531/531/531 519/519/519 
f 521/521/521 533/533/533 532/723/532 520/724/520 
f 522/522/522 534/534/534 533/533/533 521/521/521 
f 523/523/523 535/535/535 534/534/534 522/522/522 
f 524/524/524 536/536/536 535/535/535 523/523/523 
f 525/525/525 537/537/537 536/536/536 524/524/524 
f 526/526/526 538/538/538 537/537/537 525/525/525 
f 527/527/527 539/539/539 538/538/538 526/526/526 
f 528/528/528 540/540/540 539/539/539 527/527/527 
f 529/529/529 541/541/541 552/552/552 540/540/540 
f 530/530/530 542/542/542 541/541/541 529/529/529 
f 531/531/531 543/543/543 542/542/542 530/530/530 
f 532/532/532 544/544/544 543/543/543 531/531/531 
f 533/533/533 545/545/545 544/722/544 532/723/532 
f 534/534/534 546/546/546 545/545/545 533/533/533 
f 535/535/535 547/547/547 546/546/546 534/534/534 
f 536/536/536 548/548/548 547/547/547 535/535/535 
f 537/537/537 549/549/549 548/548/548 536/536/536 
f 538/538/538 550/550/550 549/549/549 537/537/537 
f 539/539/539 551/551/551 550/550/550 538/538/538 
f 540/540/540 552/552/552 551/551/551 539/539/539 
f 541/541/541 553/553/553 564/564/564 552/552/552 
f 542/542/542 554/554/554 553/553/553 541/541/541 
f 543/543/543 555/555/555 554/554/554 542/542/542 
f 544/544/544 556/556/556 555/555/555 543/543/543 
f 545/545/545 557/557/557 556/720/556 544/722/544 
f 546/546/546 558/558/558 557/557/557 545/545/545 
f 547/547/547 559/559/559 558/558/558 546/546/546 
f 548/548/548 560/560/560 559/559/559 547/547/547 
f 549/549/549 561/561/561 560/560/560 548/548/548 
f 550/550/550 562/562/562 561/561/561 549/549/549 
f 551/551/551 563/563/563 562/562/562 550/550/550 
f 552/552/552 564/564/564 563/563/563 551/551/551 
f 553/553/553 565/565/565 576/576/576 564/564/564 
f 554/554/554 566/566/566 565/565/565 553/553/553 
f 555/555/555 567/567/567 566/566/566 554/554/554 
f 556/556/556 568/568/568 567/567/567 555/555/555 
f 557/557/557 569/569/569 568/721/568 556/720/556 
f 558/558/558 570/570/570 569/569/569 557/557/557 
f 559/559/559 571/571/571 570/570/570 558/558/558 
f 560/560/560 572/572/572 571/571/571 559/559/559 
f 561/561/561 573/573/573 572/572/572 560/560/560 
f 562/562/562 574/574/574 573/573/573 561/561/561 
f 563/563/563 575/575/575 574/574/574 562/562/562 
f 564/564/564 576/576/576 575/575/575 563/563/563 
f 565/565/565 577/577/577 588/588/588 576/576/576 
f 566/566/566 578/578/578 577/577/577 565/565/565 
f 567/567/567 579/579/579 578/578/578 566/566/566 
f 568/568/568 580/580/580 579/579/579 567/567/567 
f 569/569/569 581/581/581 580/737/580 568/721/568 
f 570/570/570 582/582/582 581/581/581 569/569/569 
f 571/571/571 583/583/583 582/582/582 570/570/570 
f 572/572/572 584/584/584 583/583/583 571/571/571 
f 573/573/573 585/585/585 584/584/584 572/572/572 
f 574/574/574 586/586/586 585/585/585 573/573/573 
f 575/575/575 587/587/587 586/586/586 574/574/574 
f 576/576/576 588/588/588 587/587/587 575/575/575 
f 577/577/577 589/589/589 600/600/600 588/588/588 
f 578/578/578 590/590/590 589/589/589 577/577/577 
f 579/579/579 591/591/591 590/590/590 578/578/578 
f 580/580/580 592/592/592 591/591/591 579/579/579 
f 581/581/581 593/593/593 592/736/592 580/737/580 
f 582/582/582 594/594/594 593/593/593 581/581/581 
f 583/583/583 595/595/595 594/594/594 582/582/582 
f 584/584/584 596/596/596 595/595/595 583/583/583 
f 585/585/585 597/597/597 596/596/596 584/584/584 
f 586/586/586 598/598/598 597/597/597 585/585/585 
f 587/587/587 599/599/599 598/598/598 586/586/586 
f 588/588/588 600/600/600 599/599/599 587/587/587 
f 589/589/589 601/601/601 612/612/612 600/600/600 
f 590/590/590 602/602/602 601/601/601 589/589/589 
f 591/591/591 603/603/603 602/602/602 590/590/590 
f 592/592/592 604/604/604 603/603/603 591/591/591 
f 593/593/593 605/605/605 604/732/604 592/736/592 
f 594/594/594 606/606/606 605/605/605 593/593/593 
f 595/595/595 607/607/607 606/606/606 594/594/594 
f 596/596/596 608/608/608 607/607/607 595/595/595 
f 597/597/597 609/609/609 608/608/608 596/596/596 
f 598/598/598 610/610/610 609/609/609 597/597/597 
f 599/599/599 611/611/611 610/610/610 598/598/598 
f 600/600/600 612/612/612 611/611/611 599/599/599 
f 601/601/601 613/613/613 624/624/624 612/612/612 
f 602/602/602 614/614/614 613/613/613 601/601/601 
f 603/603/603 615/615/615 614/614/614 602/602/602 
f 604/604/604 616/616/616 615/615/615 603/603/603 
f 605/605/605 617/617/617 616/733/616 604/732/604 
f 606/606/606 618/618/618 617/617/617 605/605/605 
f 607/607/607 619/619/619 618/618/618 606/606/606 
f 608/608/608 620/620/620 619/619/619 607/607/607 
f 609/609/609 621/621/621 620/620/620 608/608/608 
f 610/610/610 622/622/622 621/621/621 609/609/609 
f 611/611/611 623/623/623 622/622/622 610/610/610 
f 612/612/612 624/624/624 623/623/623 611/611/611 
f 613/613/613 625/625/625 636/636/636 624/624/624 
f 614/614/614 626/626/626 625/625/625 613/613/613 
f 615/615/615 627/627/627 626/626/626 614/614/614 
f 616/616/616 628/628/628 627/627/627 615/615/615 
f 617/617/617 629/629/629 628/734/628 616/733/616 
f 618/618/618 630/630/630 629/629/629 617/617/617 
f 619/619/619 631/631/631 630/630/630 618/618/618 
f 620/620/620 632/632/632 631/631/631 619/619/619 
f 621/621/621 633/633/633 632/632/632 620/620/620 
f 622/622/622 634/634/634 633/633/633 621/621/621 
f 623/623/623 635/635/635 634/634/634 622/622/622 
f 624/624/624 636/636/636 635/635/635 623/623/623 
f 625/625/625 637/637/637 648/648/648 636/636/636 
f 626/626/626 638/638/638 637/637/637 625/625/625 
f 627/627/627 639/639/639 638/638/638 626/626/626 
f 628/628/628 640/640/640 639/639/639 627/627/627 
f 629/629/629 641/641/641 640/735/640 628/734/628 
f 630/630/630 642/642/642 641/641/641 629/629/629 
f 631/631/631 643/643/643 642/642/642 630/630/630 
f 632/632/632 644/644/644 643/643/643 631/631/631 
f 633/633/633 645/645/645 644/644/644 632/632/632 
f 634/634/634 646/646/646 645/645/645 633/633/633 
f 635/635/635 647/647/647 646/646/646 634/634/634 
f 636/636/636 648/648/648 647/647/647 635/635/635 
f 637/637/637 649/649/649 660/660/660 648/648/648 
f 638/638/638 650/650/650 649/649/649 637/637/637 
f 639/639/639 651/651/651 650/650/650 638/638/638 
f 640/640/640 652/652/652 651/651/651 639/639/639 
f 641/641/641 653/653/653 652/738/652 640/735/640 
f 642/642/642 654/654/654 653/653/653 641/641/641 
f 643/643/643 655/655/655 654/654/654 642/642/642 
f 644/644/644 656/656/656 655/655/655 643/643/643 
f 645/645/645 657/657/657 656/656/656 644/644/644 
f 646/646/646 658/658/658 657/657/657 645/645/645 
f 647/647/647 659/659/659 658/658/658 646/646/646 
f 648/648/648 660/660/660 659/659/659 647/647/647 
f 649/649/649 661/661/661 672/672/672 660/660/660 
f 650/650/650 662/662/662 661/661/661 649/649/649 
f 651/651/651 663/663/663 662/662/662 650/650/650 
f 652/652/652 664/664/664 663/663/663 651/651/651 
f 653/653/653 665/665/665 664/739/664 652/738/652 
f 654/654/654 666/666/666 665/665/665 653/653/653 
f 655/655/655 667/667/667 666/666/666 654/654/654 
f 656/656/656 668/668/668 667/667/667 655/655/655 
f 657/657/657 669/669/669 668/668/668 656/656/656 
f 658/658/658 670/670/670 669/669/669 657/657/657 
f 659/659/659 671/671/671 670/670/670 658/658/658 
f 660/660/660 672/672/672 671/671/671 659/659/659 
f 661/661/661 673/673/673 684/684/684 672/672/672 
f 662/662/662 674/674/674 673/673/673 661/661/661 
f 663/663/663 675/675/675 674/674/674 662/662/662 
f 664/664/664 676/676/676 675/675/675 663/663/663 
f 665/665/665 677/677/677 676/740/676 664/739/664 
f 666/666/666 678/678/678 677/677/677 665/665/665 
f 667/667/667 679/679/679 678/678/678 666/666/666 
f 668/668/668 680/680/680 679/679/679 667/667/667 
f 669/669/669 681/681/681 680/680/680 668/668/668 
f 670/670/670 682/682/682 681/681/681 669/669/669 
f 671/671/671 683/683/683 682/682/682 670/670/670 
f 672/672/672 684/684/684 683/683/683 671/671/671 
#end 672 faces

#ZOMPROPERTIES_04{
#ZOMPROPERTIES_04 table {Mesh table {SymPlane table {Point vector3d 0 0 0 Normal vector3d 1 0 0 Threshold double 0.01 
#ZOMPROPERTIES_04 Enabled bool false EdgeID int -1 SymEdgeID int -1 UPos double 0.5 LocalMode bool false } RootGroup C
#ZOMPROPERTIES_04 SubMeshGroup {Children table {Tile_0_0 CSubMeshGroup {Children table {} BBoxUV box3d 0 0 0 0 0 0 BBo
#ZOMPROPERTIES_04 x3D box3d 0 0 0 0 0 0 Area3D double 0 AreaUV double 0.185506 IsRoot bool false Properties table {Sel
#ZOMPROPERTIES_04 ected bool false Box box3d 0 1 0 1 0 1 U int 0 V int 0 NU int 0 NV int 0 Tiling vector3d 1 1 1 TileR
#ZOMPROPERTIES_04 atioMode string "1:1" Overflow string "Off" Pack table {BoxFrameEdit bool false Behavior string "Fre
#ZOMPROPERTIES_04 e" } } IsTile bool true PolyIDs ints { 84 96 107 106 94 95 93 92 91 90 89 88 100 101 113 114 115 116
#ZOMPROPERTIES_04  117 118 105 104 103 102 112 119 108 109 97 98 110 111 99 87 86 85 300 311 323 335 324 325 326 338 3
#ZOMPROPERTIES_04 39 327 315 303 302 314 301 313 351 363 362 361 349 350 337 348 336 347 346 334 333 321 322 310 309 3
#ZOMPROPERTIES_04 08 307 306 305 304 316 317 329 341 340 328 352 364 376 377 389 401 400 412 413 425 437 436 448 449 4
#ZOMPROPERTIES_04 61 460 472 484 496 497 509 510 522 534 546 558 570 569 568 556 557 544 545 532 533 520 521 508 580 5
#ZOMPROPERTIES_04 92 604 616 628 640 652 653 665 666 654 655 643 644 656 657 669 668 670 671 660 661 662 663 651 650 6
#ZOMPROPERTIES_04 38 637 636 647 646 634 635 623 612 624 613 625 614 626 627 639 615 603 591 579 578 566 565 553 554 5
#ZOMPROPERTIES_04 55 567 543 542 530 531 519 507 495 494 506 505 517 516 527 515 504 492 503 502 490 489 501 500 499 4
#ZOMPROPERTIES_04 87 488 476 477 478 479 468 469 470 471 459 458 446 447 435 423 411 399 387 375 374 386 385 384 372 3
#ZOMPROPERTIES_04 83 382 370 369 357 358 356 355 354 353 366 367 379 380 381 393 394 395 407 419 431 430 442 441 453 4
#ZOMPROPERTIES_04 52 464 465 463 475 474 462 450 451 439 440 428 429 417 416 404 405 406 403 415 414 402 390 391 427 4
#ZOMPROPERTIES_04 26 438 392 418 473 486 454 466 455 467 444 456 445 457 432 433 421 422 409 410 398 397 396 408 420 4
#ZOMPROPERTIES_04 43 368 378 342 343 331 332 320 330 319 344 371 359 373 434 483 482 481 493 480 491 498 511 512 524 5
#ZOMPROPERTIES_04 23 536 548 560 572 584 596 608 609 621 620 619 618 606 605 593 594 595 582 583 581 617 630 631 629 6
#ZOMPROPERTIES_04 42 607 632 633 622 610 611 600 588 599 587 586 585 598 597 574 575 564 576 577 589 601 590 602 552 5
#ZOMPROPERTIES_04 63 551 550 562 561 538 539 528 540 537 526 525 514 549 573 571 559 547 535 513 529 541 518 658 659 6
#ZOMPROPERTIES_04 48 649 645 667 664 641 485 424 388 365 318 345 360 312 0 11 23 22 21 9 10 8 20 19 7 6 18 30 29 41 40
#ZOMPROPERTIES_04  52 64 76 77 78 79 80 81 82 83 72 73 74 75 63 51 39 38 50 49 61 60 48 36 37 25 26 27 15 3 2 1 14 13 
#ZOMPROPERTIES_04 24 47 46 34 33 45 44 43 55 54 53 66 42 67 56 68 57 69 32 31 58 70 59 71 35 62 65 28 16 17 5 4 12 120
#ZOMPROPERTIES_04  131 130 142 141 140 139 138 137 136 148 149 161 173 174 175 176 177 189 190 202 201 200 199 198 197
#ZOMPROPERTIES_04  185 184 196 208 209 221 220 232 244 256 268 269 270 271 283 295 294 293 292 280 281 282 296 297 298
#ZOMPROPERTIES_04  286 287 299 288 289 290 291 279 267 266 278 254 255 243 242 230 231 219 207 195 183 171 159 158 146
#ZOMPROPERTIES_04  145 133 134 135 147 123 122 121 132 144 155 167 156 168 180 192 203 215 227 239 238 226 225 213 224
#ZOMPROPERTIES_04  223 211 222 210 235 236 248 247 259 260 272 284 285 273 274 275 263 252 264 265 253 240 241 229 217
#ZOMPROPERTIES_04  218 205 206 193 194 181 182 204 216 228 251 250 262 261 249 237 246 258 234 245 212 214 169 170 191
#ZOMPROPERTIES_04  157 179 166 154 153 165 143 277 276 257 233 172 186 187 188 178 164 152 163 151 162 150 160 124 125
#ZOMPROPERTIES_04  126 127 128 129 } } } BBoxUV box3d 0 0 0 0 0 0 BBox3D box3d 0 0 0 0 0 0 Area3D double 0 AreaUV doub
#ZOMPROPERTIES_04 le 0 IsRoot bool true Properties table {Selected bool false Box box3d 0 1 0 1 0 1 U int 0 V int 0 NU
#ZOMPROPERTIES_04  int 1 NV int 1 Tiling vector3d 1 1 1 TileRatioMode string "1:1" Overflow string "Off" Pack table {R
#ZOMPROPERTIES_04 otate table {Mode int 0 Min double 0 Max double 90 Step double 0 } PaddingSize double 0.0078125 Marg
#ZOMPROPERTIES_04 inSize double 0.00390625 Resolution int 256 MapResolution int 2048 Scaling table {TexelDensity doubl
#ZOMPROPERTIES_04 e 1024 Mode int 2 } LayoutScalingMode int 2 MaxMutations int 1 } } IsTile bool false PolyIDs ints { 
#ZOMPROPERTIES_04 } } Maps table {Pin table {PrimType string "Vertex" Size int 1 DefaultValue double 0 ScaleType strin
#ZOMPROPERTIES_04 g "Normalized" MergeMode string "Max" MinValue double 0 MaxValue double 1 Data doubles { r 780 0 } }
#ZOMPROPERTIES_04  Density table {PrimType string "Polygon" Size int 1 DefaultValue double 1 ScaleType string "Log" Me
#ZOMPROPERTIES_04 rgeMode string "Average" MinValue double 0.1 MaxValue double 4 Data doubles { r 672 1 } } Protect ta
#ZOMPROPERTIES_04 ble {PrimType string "Vertex" Size int 1 DefaultValue double 0 ScaleType string "Normalized" MergeMo
#ZOMPROPERTIES_04 de string "Average" MinValue double -1 MaxValue double 1 Data doubles { r 780 0 } } } } }
#ZOMPROPERTIES_04}


#ZOMSCENE_01{
#ZOMSCENE_01 CScene {Settings table {AxisSystem table {UpVector string "y" } Unit string "cm" TexelDensityDisplay
#ZOMSCENE_01 Unit string "tx/cm" } Root table {} }
#ZOMSCENE_01}

#begin 0 fatal error vertex (that RizomUV cannot handle)
#end 0 fatal error vertex (that RizomUV cannot handle)

#begin 0 error vertex
#end 0 error vertex
