#File written by RizomUV 2023.0.70.ge90189e8. Compilation :Sep 22 2023,12:42:11
mtllib cable piano.mtl
#begin vertices
v 22.32067 5.052206 25.92013
v 22.30103 5.050341 25.91386
v 22.28155 5.044294 25.91746
v 22.26747 5.035687 25.92996
v 22.26255 5.026825 25.94802
v 22.26812 5.020084 25.96679
v 22.28268 5.017268 25.98125
v 22.30232 5.019134 25.98751
v 22.3218 5.02518 25.98391
v 22.33588 5.033787 25.97141
v 22.34079 5.042649 25.95335
v 22.33523 5.049391 25.93458
v 22.26239 5.227307 25.99175
v 22.24396 5.221875 25.98401
v 22.22562 5.212537 25.98626
v 22.21227 5.201796 25.99789
v 22.2075 5.19253 26.01578
v 22.21257 5.187221 26.03514
v 22.22613 5.187292 26.05078
v 22.24455 5.192724 26.05851
v 22.2629 5.202061 26.05627
v 22.27625 5.212802 26.04464
v 22.28103 5.222069 26.02675
v 22.27595 5.227378 26.00739
v 22.18035 5.364062 26.0437
v 22.16426 5.354841 26.0345
v 22.14818 5.341824 26.03532
v 22.13642 5.328499 26.04594
v 22.13213 5.318437 26.06352
v 22.13646 5.314332 26.08335
v 22.14825 5.317287 26.10011
v 22.16435 5.326508 26.10931
v 22.18043 5.339525 26.10849
v 22.19219 5.35285 26.09787
v 22.19648 5.362913 26.08029
v 22.19215 5.367016 26.06046
v 22.07845 5.463923 26.08166
v 22.0659 5.451278 26.0711
v 22.0535 5.434709 26.07052
v 22.04456 5.418653 26.08007
v 22.04149 5.407413 26.09718
v 22.04511 5.404002 26.11728
v 22.05444 5.409333 26.13498
v 22.06699 5.421978 26.14554
v 22.07939 5.438548 26.14612
v 22.08833 5.454603 26.13657
v 22.0914 5.465842 26.11946
v 22.08778 5.469254 26.09936
v 21.96103 5.527622 26.11123
v 21.95277 5.512658 26.09954
v 21.9452 5.493478 26.09768
v 21.94033 5.475221 26.10616
v 21.93949 5.46278 26.12268
v 21.94288 5.459488 26.14284
v 21.94961 5.466227 26.16123
v 21.95787 5.481191 26.17291
v 21.96544 5.500371 26.17477
v 21.97031 5.518628 26.1663
v 21.97115 5.531069 26.14977
v 21.96776 5.534361 26.12961
v 21.83329 5.555823 26.13812
v 21.82918 5.539927 26.12551
v 21.82677 5.519584 26.1225
v 21.82672 5.500244 26.12989
v 21.82904 5.48709 26.14571
v 21.83311 5.483645 26.16572
v 21.83784 5.490835 26.18455
v 21.84196 5.506731 26.19717
v 21.84436 5.527074 26.20018
v 21.84441 5.546414 26.19279
v 21.84209 5.559568 26.17696
v 21.83802 5.563013 26.15696
v 21.70095 5.549765 26.16821
v 21.70007 5.533996 26.15482
v 21.70235 5.513835 26.15069
v 21.70716 5.494684 26.15692
v 21.71322 5.481676 26.17185
v 21.71891 5.478295 26.19147
v 21.7227 5.485448 26.21052
v 21.72357 5.501217 26.22391
v 21.7213 5.521379 26.22805
v 21.71649 5.540529 26.22181
v 21.71042 5.553537 26.20689
v 21.70474 5.556918 26.18727
v 21.56966 5.51135 26.20741
v 21.57087 5.496172 26.19338
v 21.57686 5.477069 26.18809
v 21.58603 5.459159 26.19298
v 21.59592 5.447241 26.20672
v 21.60389 5.444509 26.22563
v 21.60779 5.451694 26.24466
v 21.60659 5.466872 26.25869
v 21.6006 5.485975 26.26397
v 21.59143 5.503885 26.25909
v 21.58153 5.515803 26.24535
v 21.57357 5.518535 26.22643
v 21.4418 5.440056 26.26243
v 21.447 5.427507 26.2468
v 21.45861 5.4121 26.23928
v 21.47351 5.397963 26.24187
v 21.48772 5.388884 26.25389
v 21.49743 5.387296 26.27211
v 21.50003 5.393624 26.29165
v 21.49483 5.406173 26.30728
v 21.48322 5.421581 26.31481
v 21.46832 5.435718 26.31221
v 21.45411 5.444797 26.30019
v 21.4444 5.446385 26.28197
v 21.2236 5.078074 26.36531
v 21.23256 5.071046 26.34802
v 21.24875 5.062391 26.33845
v 21.26785 5.054427 26.33917
v 21.28473 5.049288 26.35
v 21.29488 5.048352 26.36802
v 21.29557 5.051868 26.38842
v 21.28662 5.058896 26.40571
v 21.27043 5.067551 26.41528
v 21.25133 5.075515 26.41456
v 21.23444 5.080653 26.40373
v 21.2243 5.08159 26.38571
v 21.04247 4.410742 26.43407
v 21.05246 4.406922 26.41634
v 21.06988 4.402042 26.40626
v 21.09006 4.39741 26.40654
v 21.10759 4.394267 26.4171
v 21.11778 4.393454 26.43511
v 21.11789 4.39519 26.45574
v 21.1079 4.399011 26.47347
v 21.09048 4.40389 26.48354
v 21.0703 4.408523 26.48326
v 21.05277 4.411666 26.47271
v 21.04258 4.412478 26.4547
v 20.87679 3.544672 26.49335
v 20.88691 3.541523 26.47557
v 20.90452 3.537552 26.46542
v 20.92489 3.533824 26.46563
v 20.94256 3.531336 26.47614
v 20.95279 3.530757 26.49413
v 20.95285 3.53224 26.51478
v 20.94272 3.535389 26.53256
v 20.92512 3.53936 26.54271
v 20.90475 3.543088 26.5425
v 20.88708 3.545575 26.53199
v 20.87685 3.546155 26.514
v 20.70758 2.585228 26.56656
v 20.71763 2.581622 26.54881
v 20.73517 2.577332 26.53869
v 20.75552 2.573508 26.53891
v 20.77322 2.571174 26.5494
v 20.78352 2.570956 26.56736
v 20.78367 2.572911 26.58797
v 20.77363 2.576517 26.60572
v 20.75608 2.580806 26.61584
v 20.73573 2.584631 26.61562
v 20.71804 2.586965 26.60513
v 20.70773 2.587183 26.58717
v 20.51693 1.639757 26.67656
v 20.52665 1.634613 26.65901
v 20.54389 1.628887 26.64908
v 20.56403 1.624112 26.64941
v 20.58169 1.621568 26.65993
v 20.59211 1.621936 26.67782
v 20.59253 1.625118 26.69827
v 20.58281 1.630261 26.71582
v 20.56557 1.635988 26.72575
v 20.54543 1.640762 26.72542
v 20.52777 1.643307 26.7149
v 20.51734 1.642938 26.69701
v 20.28735 0.816448 26.84589
v 20.29606 0.808018 26.8291
v 20.31233 0.799098 26.81991
v 20.33179 0.792078 26.82077
v 20.34923 0.788838 26.83145
v 20.35998 0.790249 26.84909
v 20.36115 0.79593 26.86896
v 20.35244 0.804359 26.88575
v 20.33617 0.81328 26.89494
v 20.31671 0.8203 26.89409
v 20.29927 0.823539 26.88341
v 20.28852 0.822129 26.86576
v 20.00263 0.223989 27.09579
v 20.00792 0.209411 27.08207
v 20.02083 0.194443 27.0759
v 20.03788 0.183095 27.07891
v 20.05452 0.178407 27.09032
v 20.06627 0.181637 27.10705
v 20.07 0.191919 27.12463
v 20.06471 0.206497 27.13835
v 20.05181 0.221465 27.14453
v 20.03475 0.232814 27.14151
v 20.01812 0.237501 27.13011
v 20.00636 0.234271 27.11337
v 19.64572 -0.033846 27.44817
v 19.64493 -0.052973 27.44028
v 19.65168 -0.072546 27.44
v 19.66416 -0.08732 27.4474
v 19.67901 -0.093337 27.46051
v 19.69227 -0.088984 27.47581
v 19.70038 -0.075428 27.48919
v 19.70116 -0.056302 27.49708
v 19.69442 -0.036729 27.49736
v 19.68194 -0.021955 27.48996
v 19.66708 -0.015938 27.47685
v 19.65383 -0.02029 27.46156
v 19.199 -0.051212 27.87422
v 19.19398 -0.070897 27.87021
v 19.19597 -0.091097 27.8743
v 19.20445 -0.1064 27.88538
v 19.21713 -0.112703 27.90048
v 19.23063 -0.10832 27.91556
v 19.24131 -0.094423 27.92658
v 19.24633 -0.074738 27.93058
v 19.24433 -0.054538 27.9265
v 19.23586 -0.039236 27.91542
v 19.22318 -0.032932 27.90032
v 19.20968 -0.037315 27.88524
v 18.7965 0.024229 28.19475
v 18.78897 0.005046 28.19274
v 18.78761 -0.014481 28.19949
v 18.79277 -0.029119 28.21319
v 18.80307 -0.034948 28.23017
v 18.81576 -0.030403 28.24589
v 18.82744 -0.016705 28.25613
v 18.83496 0.002479 28.25815
v 18.83633 0.022006 28.2514
v 18.83117 0.036644 28.2377
v 18.82086 0.042473 28.22071
v 18.80817 0.037928 28.20499
v 18.43916 0.182933 28.42215
v 18.42862 0.165115 28.42206
v 18.42332 0.147367 28.43131
v 18.42468 0.134446 28.44743
v 18.43234 0.129814 28.4661
v 18.44425 0.134711 28.48231
v 18.45721 0.147825 28.49173
v 18.46776 0.165644 28.49182
v 18.47306 0.183391 28.48257
v 18.4717 0.196312 28.46645
v 18.46404 0.200944 28.44778
v 18.45213 0.196048 28.43156
v 18.12555 0.415379 28.57034
v 18.11196 0.399815 28.5717
v 18.10281 0.384919 28.58279
v 18.10055 0.374682 28.60065
v 18.10579 0.371849 28.62048
v 18.11711 0.377177 28.63698
v 18.1315 0.389239 28.64571
v 18.14509 0.404803 28.64435
v 18.15424 0.419699 28.63325
v 18.1565 0.429935 28.6154
v 18.15126 0.432769 28.59557
v 18.13994 0.427441 28.57907
v 17.85433 0.712868 28.65267
v 17.8382 0.700066 28.65484
v 17.82595 0.68854 28.66691
v 17.82086 0.681379 28.68567
v 17.82429 0.680501 28.70606
v 17.83534 0.686141 28.72265
v 17.85102 0.696789 28.73097
v 17.86715 0.70959 28.72881
v 17.8794 0.721117 28.71673
v 17.88449 0.728278 28.69798
v 17.88105 0.729156 28.67758
v 17.87001 0.723516 28.661
v 17.62495 1.06676 28.68189
v 17.60699 1.056744 28.68432
v 17.59261 1.048462 28.69671
v 17.58566 1.044133 28.71572
v 17.588 1.044916 28.73628
v 17.59901 1.050602 28.75287
v 17.61574 1.059669 28.76104
v 17.6337 1.069684 28.75861
v 17.64808 1.077966 28.74623
v 17.65502 1.082295 28.72721
v 17.65268 1.081511 28.70666
v 17.64167 1.075826 28.69007
v 17.43745 1.467876 28.67058
v 17.4183 1.460392 28.67296
v 17.4026 1.454878 28.68529
v 17.39458 1.45281 28.70427
v 17.39638 1.454743 28.7248
v 17.40752 1.46016 28.7414
v 17.42501 1.467608 28.7496
v 17.44417 1.475092 28.74722
v 17.45986 1.480607 28.73489
v 17.46788 1.482675 28.71591
v 17.46608 1.480741 28.69537
v 17.45494 1.475325 28.67878
v 17.29189 1.906974 28.63144
v 17.27198 1.901733 28.63366
v 17.25557 1.898356 28.64583
v 17.24706 1.897748 28.66469
v 17.24873 1.900072 28.6852
v 17.26013 1.904705 28.70185
v 17.27821 1.910405 28.71019
v 17.29811 1.915646 28.70798
v 17.31452 1.919023 28.69581
v 17.32303 1.919631 28.67694
v 17.32136 1.917307 28.65643
v 17.30996 1.912675 28.63978
v 17.19449 2.356123 28.58968
v 17.17415 2.352815 28.59172
v 17.15741 2.350937 28.60377
v 17.14875 2.350994 28.62258
v 17.1505 2.352968 28.64311
v 17.16218 2.356332 28.65987
v 17.18067 2.360184 28.66837
v 17.201 2.363492 28.66632
v 17.21774 2.365369 28.65428
v 17.2264 2.365313 28.63547
v 17.22465 2.363339 28.61493
v 17.21297 2.359975 28.59817
v 17.1407 2.784142 28.55953
v 17.12017 2.782284 28.56148
v 17.10329 2.781414 28.57344
v 17.0946 2.781765 28.59223
v 17.09641 2.783242 28.6128
v 17.10825 2.785451 28.62965
v 17.12693 2.787799 28.63825
v 17.14747 2.789657 28.63631
v 17.16434 2.790527 28.62434
v 17.17303 2.790176 28.60555
v 17.17122 2.788698 28.58498
v 17.15939 2.786489 28.56814
v 17.11416 3.177296 28.5374
v 17.09356 3.176232 28.5393
v 17.07665 3.175917 28.55123
v 17.06794 3.176436 28.57001
v 17.06977 3.17765 28.5906
v 17.08166 3.179233 28.60748
v 17.10041 3.180761 28.61613
v 17.121 3.181825 28.61424
v 17.13791 3.18214 28.6023
v 17.14662 3.181621 28.58352
v 17.14479 3.180407 28.56293
v 17.1329 3.178824 28.54605
v 17.09836 3.522435 28.51962
v 17.07777 3.52129 28.52152
v 17.06086 3.520928 28.53346
v 17.05215 3.521447 28.55224
v 17.05398 3.522708 28.57282
v 17.06586 3.524373 28.5897
v 17.0846 3.525995 28.59835
v 17.10519 3.52714 28.59645
v 17.1221 3.527501 28.58451
v 17.13081 3.526982 28.56573
v 17.12898 3.525722 28.54514
v 17.1171 3.524057 28.52827
v 17.07684 3.806338 28.50254
v 17.05641 3.803605 28.50455
v 17.03961 3.802161 28.51656
v 17.03093 3.802394 28.53535
v 17.0327 3.80424 28.5559
v 17.04445 3.807206 28.57269
v 17.06302 3.810496 28.58123
v 17.08345 3.813229 28.57922
v 17.10025 3.814673 28.56721
v 17.10893 3.81444 28.54841
v 17.10716 3.812593 28.52786
v 17.09541 3.809628 28.51107
v 17.03328 4.015589 28.48256
v 17.0142 4.007969 28.48512
v 16.99832 4.003178 28.49751
v 16.98989 4.002497 28.5164
v 16.99117 4.006111 28.53675
v 17.00183 4.013051 28.55309
v 17.019 4.021456 28.56105
v 17.03808 4.029075 28.5585
v 17.05396 4.033867 28.5461
v 17.06239 4.034547 28.5272
v 17.0611 4.030933 28.50686
v 17.05045 4.023994 28.49052
v 16.95199 4.13701 28.45623
v 16.94008 4.120764 28.46102
v 16.92912 4.110053 28.47494
v 16.92205 4.107746 28.49426
v 16.92075 4.114461 28.51381
v 16.92559 4.128399 28.52834
v 16.93525 4.145826 28.53396
v 16.94716 4.162071 28.52916
v 16.95812 4.172783 28.51524
v 16.9652 4.17509 28.49592
v 16.96649 4.168375 28.47638
v 16.96166 4.154436 28.46185
v 16.81651 4.159138 28.41982
v 16.81791 4.14026 28.42821
v 16.81609 4.12774 28.4446
v 16.81154 4.124934 28.4646
v 16.80547 4.132594 28.48286
v 16.79951 4.148666 28.49447
v 16.79527 4.168846 28.49634
v 16.79387 4.187724 28.48795
v 16.79568 4.200244 28.47156
v 16.80024 4.20305 28.45156
v 16.80631 4.19539 28.4333
v 16.81226 4.179317 28.42169
#end vertices

#begin 442 textures vertices 
vt 0.9834273 0.06086957 0
vt 0.9854307 0.06339783 0
vt 0.9874371 0.06589739 0
vt 0.9622703 0.04108669 0
vt 0.9645341 0.04332043 0
vt 0.9669121 0.04543928 0
vt 0.9693814 0.04747083 0
vt 0.9718971 0.04947504 0
vt 0.9744028 0.05152251 0
vt 0.9768423 0.05367245 0
vt 0.9791717 0.05595491 0
vt 0.9813578 0.05837073 0
vt 0.9618906 0.08190638 0
vt 0.9640807 0.08416099 0
vt 0.9662723 0.0864269 0
vt 0.9684781 0.08870225 0
vt 0.9439435 0.06419687 0
vt 0.9462179 0.06642112 0
vt 0.9484811 0.06862183 0
vt 0.9507352 0.07080854 0
vt 0.9529815 0.07299655 0
vt 0.9552229 0.07520072 0
vt 0.9574571 0.07742517 0
vt 0.9596871 0.07966186 0
vt 0.9441909 0.09956308 0
vt 0.9464072 0.1017919 0
vt 0.9486214 0.1040262 0
vt 0.9508497 0.1062701 0
vt 0.9262529 0.08177473 0
vt 0.9284922 0.08402276 0
vt 0.9307405 0.0862633 0
vt 0.932972 0.08846896 0
vt 0.9352064 0.09066745 0
vt 0.937449 0.09287544 0
vt 0.9396978 0.09509771 0
vt 0.9419437 0.09732601 0
vt 0.9288438 0.1148117 0
vt 0.9310964 0.1170408 0
vt 0.9333173 0.1192602 0
vt 0.9355497 0.1214904 0
vt 0.9109489 0.09698526 0
vt 0.9131728 0.09925303 0
vt 0.9153909 0.101505 0
vt 0.9176289 0.1037492 0
vt 0.9198535 0.1059533 0
vt 0.9220912 0.1081588 0
vt 0.9243415 0.1103756 0
vt 0.9265961 0.1125973 0
vt 0.9148301 0.1287456 0
vt 0.9170789 0.130947 0
vt 0.9193386 0.1331755 0
vt 0.921572 0.1353985 0
vt 0.8969922 0.1107915 0
vt 0.899201 0.1130793 0
vt 0.9014072 0.1153574 0
vt 0.9036058 0.117615 0
vt 0.9058387 0.1198675 0
vt 0.9080668 0.1220856 0
vt 0.9103136 0.1243074 0
vt 0.9125721 0.1265314 0
vt 0.9012512 0.1422112 0
vt 0.9035073 0.1444269 0
vt 0.9057533 0.1466352 0
vt 0.9080111 0.1488801 0
vt 0.8834471 0.1240924 0
vt 0.8856485 0.1263911 0
vt 0.8878516 0.1286894 0
vt 0.8900492 0.130974 0
vt 0.8922469 0.13324 0
vt 0.8944884 0.1355043 0
vt 0.8967303 0.1377425 0
vt 0.8989883 0.139981 0
vt 0.8874437 0.1558456 0
vt 0.8896953 0.1580969 0
vt 0.891933 0.1603361 0
vt 0.8941592 0.1625753 0
vt 0.8696005 0.1376038 0
vt 0.8718128 0.1398953 0
vt 0.8740324 0.1421942 0
vt 0.8762499 0.1444898 0
vt 0.8784643 0.146776 0
vt 0.8806846 0.1490533 0
vt 0.8829287 0.1513165 0
vt 0.8851843 0.1535827 0
vt 0.8729835 0.1701165 0
vt 0.8751641 0.1724541 0
vt 0.8773133 0.1747639 0
vt 0.8794484 0.1770473 0
vt 0.8548959 0.1519377 0
vt 0.8571608 0.1541779 0
vt 0.8594304 0.1564159 0
vt 0.8617025 0.1586516 0
vt 0.8639723 0.1608873 0
vt 0.8662352 0.1631362 0
vt 0.8685115 0.1654257 0
vt 0.870765 0.1677667 0
vt 0.8572336 0.1849613 0
vt 0.8592605 0.1872955 0
vt 0.8612368 0.1896374 0
vt 0.8632305 0.1920019 0
vt 0.8396746 0.1672227 0
vt 0.8418781 0.1695249 0
vt 0.8441276 0.1717722 0
vt 0.8463748 0.1739318 0
vt 0.8485939 0.1760371 0
vt 0.8507904 0.1781641 0
vt 0.8529744 0.1803689 0
vt 0.8551316 0.1826399 0
vt 0.8110115 0.229615 0
vt 0.8131698 0.2319031 0
vt 0.815315 0.2341867 0
vt 0.8174716 0.236476 0
vt 0.7934014 0.2115074 0
vt 0.7956028 0.213801 0
vt 0.7978142 0.2160655 0
vt 0.8000198 0.2183002 0
vt 0.8022184 0.2205234 0
vt 0.8044187 0.2227607 0
vt 0.8066254 0.2250275 0
vt 0.8088277 0.2273191 0
vt 0.7351124 0.3030513 0
vt 0.7373229 0.3053414 0
vt 0.7395309 0.3076303 0
vt 0.741738 0.3099182 0
vt 0.71741 0.2847473 0
vt 0.7196182 0.2870381 0
vt 0.7218284 0.2893255 0
vt 0.72404 0.29161 0
vt 0.7262524 0.293894 0
vt 0.7284666 0.2961798 0
vt 0.7306821 0.2984687 0
vt 0.7328985 0.30076 0
vt 0.6376342 0.3972688 0
vt 0.6398466 0.3995565 0
vt 0.6420588 0.4018443 0
vt 0.6442709 0.404132 0
vt 0.6199409 0.3789599 0
vt 0.6221517 0.3812489 0
vt 0.6243624 0.383538 0
vt 0.6265731 0.3858266 0
vt 0.6287845 0.3881153 0
vt 0.6309962 0.3904038 0
vt 0.6332083 0.3926922 0
vt 0.6354213 0.3949807 0
vt 0.5296692 0.5016208 0
vt 0.5318805 0.5039076 0
vt 0.5340918 0.5061943 0
vt 0.5363041 0.5084818 0
vt 0.5119827 0.4833179 0
vt 0.5141939 0.4856064 0
vt 0.5164043 0.4878947 0
vt 0.5186145 0.4901824 0
vt 0.5208246 0.49247 0
vt 0.5230354 0.4947578 0
vt 0.5252469 0.4970461 0
vt 0.527458 0.4993337 0
vt 0.422302 0.6053881 0
vt 0.424506 0.6076732 0
vt 0.4267114 0.6099586 0
vt 0.4289199 0.6122456 0
vt 0.4046287 0.5871112 0
vt 0.40684 0.5893989 0
vt 0.4090499 0.591683 0
vt 0.4112586 0.5939643 0
vt 0.4134674 0.5962453 0
vt 0.4156772 0.5985285 0
vt 0.4178876 0.6008146 0
vt 0.4200962 0.603102 0
vt 0.325886 0.6985387 0
vt 0.3280624 0.7008161 0
vt 0.3302427 0.7030939 0
vt 0.3324368 0.7053785 0
vt 0.308267 0.6803553 0
vt 0.3104781 0.6826405 0
vt 0.312684 0.6849101 0
vt 0.3148839 0.6871669 0
vt 0.3170847 0.689422 0
vt 0.3192912 0.6916883 0
vt 0.3214996 0.6939684 0
vt 0.3237 0.6962556 0
vt 0.2483279 0.7734348 0
vt 0.250431 0.7756752 0
vt 0.2525352 0.7779129 0
vt 0.2546869 0.7801815 0
vt 0.2308093 0.7554456 0
vt 0.2330229 0.7577217 0
vt 0.2352125 0.7599478 0
vt 0.2373737 0.7621296 0
vt 0.2395409 0.7643174 0
vt 0.2417441 0.7665583 0
vt 0.2439677 0.7688509 0
vt 0.2461754 0.7711576 0
vt 0.1861095 0.8335111 0
vt 0.1882673 0.8357346 0
vt 0.1904172 0.8379514 0
vt 0.1925922 0.8401957 0
vt 0.1686361 0.8154053 0
vt 0.1708478 0.8176878 0
vt 0.1730297 0.8199472 0
vt 0.1751782 0.8221771 0
vt 0.1773212 0.8244055 0
vt 0.1794923 0.8266647 0
vt 0.1817023 0.8289598 0
vt 0.1839182 0.8312517 0
vt 0.1175426 0.8997055 0
vt 0.1197328 0.9019923 0
vt 0.1219142 0.9042774 0
vt 0.1240969 0.9065631 0
vt 0.09990212 0.8815447 0
vt 0.1021131 0.8838271 0
vt 0.1043254 0.886101 0
vt 0.1065317 0.8883627 0
vt 0.1087316 0.8906161 0
vt 0.1109302 0.8928712 0
vt 0.1131336 0.8951379 0
vt 0.1153408 0.8974187 0
vt 0.05975652 0.9555055 0
vt 0.06174778 0.957972 0
vt 0.06367175 0.9604998 0
vt 0.8752377 0.05793894 0
vt 0.04121015 0.9381805 0
vt 0.04336989 0.9405249 0
vt 0.04566912 0.9427332 0
vt 0.0480787 0.9448182 0
vt 0.05054415 0.9468301 0
vt 0.05299959 0.9488443 0
vt 0.05538198 0.950935 0
vt 0.05764144 0.953151 0
vt 0.7933496 0.1205488 0
vt 0.7965817 0.1237932 0
vt 0.7997975 0.1270222 0
vt 0.8030104 0.1302485 0
vt 0.7675291 0.09460082 0
vt 0.7707522 0.09784814 0
vt 0.7739737 0.10109 0
vt 0.7771905 0.1043233 0
vt 0.7804015 0.1075485 0
vt 0.7836199 0.1107813 0
vt 0.7868562 0.1140325 0
vt 0.7901048 0.1172932 0
vt 0.7269843 0.1866576 0
vt 0.7301971 0.1898891 0
vt 0.7333964 0.1931105 0
vt 0.7365988 0.196336 0
vt 0.7011657 0.1607997 0
vt 0.7044011 0.1640422 0
vt 0.7076366 0.1672842 0
vt 0.7108568 0.1705057 0
vt 0.7140679 0.1737157 0
vt 0.7172833 0.1769311 0
vt 0.7205115 0.1801641 0
vt 0.7237493 0.1834097 0
vt 0.6617732 0.2516621 0
vt 0.6649911 0.2548923 0
vt 0.6682005 0.2581173 0
vt 0.6714132 0.2613479 0
vt 0.6359482 0.2257941 0
vt 0.6391854 0.2290354 0
vt 0.6424182 0.2322733 0
vt 0.6456402 0.2354988 0
vt 0.6488561 0.2387177 0
vt 0.6520758 0.2419414 0
vt 0.655306 0.2451777 0
vt 0.658542 0.2484215 0
vt 0.5948805 0.3183578 0
vt 0.5981037 0.3215911 0
vt 0.6013221 0.3248216 0
vt 0.6045438 0.3280578 0
vt 0.5690394 0.2924652 0
vt 0.5722763 0.2957074 0
vt 0.5755087 0.2989466 0
vt 0.5787345 0.3021776 0
vt 0.5819563 0.3054051 0
vt 0.585182 0.3086371 0
vt 0.5884137 0.3118761 0
vt 0.5916491 0.3151188 0
vt 0.5250071 0.3880159 0
vt 0.5282348 0.3912522 0
vt 0.5314602 0.3944887 0
vt 0.5346881 0.397729 0
vt 0.4991618 0.3621167 0
vt 0.5023964 0.3653599 0
vt 0.5056241 0.3685964 0
vt 0.508851 0.3718306 0
vt 0.5120772 0.3750633 0
vt 0.515307 0.3782993 0
vt 0.5185412 0.3815394 0
vt 0.5217767 0.3847806 0
vt 0.4520418 0.4607797 0
vt 0.4552689 0.4640193 0
vt 0.4584968 0.4672611 0
vt 0.461727 0.4705057 0
vt 0.4261633 0.4348504 0
vt 0.429397 0.4380933 0
vt 0.4326333 0.4413366 0
vt 0.435866 0.4445736 0
vt 0.4391005 0.4478117 0
vt 0.4423373 0.4510528 0
vt 0.4455744 0.4542953 0
vt 0.4488085 0.4575367 0
vt 0.3797243 0.5328774 0
vt 0.38295 0.5361218 0
vt 0.3861783 0.5393679 0
vt 0.3894093 0.5426151 0
vt 0.3538384 0.5069356 0
vt 0.3570782 0.5101777 0
vt 0.360315 0.513415 0
vt 0.3635526 0.5166532 0
vt 0.3667911 0.5198944 0
vt 0.3700288 0.5231386 0
vt 0.3732648 0.5263857 0
vt 0.3764976 0.5296332 0
vt 0.3120161 0.6003742 0
vt 0.315243 0.6036224 0
vt 0.3184718 0.6068715 0
vt 0.3217025 0.6101199 0
vt 0.2861351 0.5744316 0
vt 0.289374 0.57767 0
vt 0.2926125 0.5809071 0
vt 0.2958507 0.5841455 0
vt 0.299088 0.5873863 0
vt 0.3023246 0.5906309 0
vt 0.3055582 0.5938778 0
vt 0.3087883 0.5971254 0
vt 0.2501962 0.6620141 0
vt 0.2534237 0.6652663 0
vt 0.2566513 0.6685175 0
vt 0.2598803 0.6717678 0
vt 0.2242977 0.6360583 0
vt 0.2275391 0.6392959 0
vt 0.2307813 0.6425339 0
vt 0.234023 0.6457733 0
vt 0.2372632 0.6490156 0
vt 0.2405017 0.6522617 0
vt 0.2437365 0.655511 0
vt 0.2469677 0.6587621 0
vt 0.1959911 0.7160824 0
vt 0.1992123 0.7193442 0
vt 0.2024328 0.7226045 0
vt 0.2056543 0.7258628 0
vt 0.170043 0.6900991 0
vt 0.173293 0.6933304 0
vt 0.1765444 0.6965631 0
vt 0.1797966 0.6998006 0
vt 0.1830477 0.7030451 0
vt 0.1862953 0.7062975 0
vt 0.1895344 0.7095572 0
vt 0.1927658 0.7128193 0
vt 0.1513012 0.7606602 0
vt 0.1544792 0.7639519 0
vt 0.1576584 0.7672429 0
vt 0.160844 0.7705347 0
vt 0.1252686 0.7347032 0
vt 0.1285473 0.7378932 0
vt 0.131828 0.7410849 0
vt 0.135111 0.7442902 0
vt 0.1383927 0.7475218 0
vt 0.1416635 0.7507833 0
vt 0.1449038 0.7540708 0
vt 0.1481138 0.7573658 0
vt 0.1175369 0.7937671 0
vt 0.1205616 0.7970136 0
vt 0.1236391 0.8002991 0
vt 0.1267626 0.8036351 0
vt 0.0921115 0.7685769 0
vt 0.09537137 0.7716528 0
vt 0.09860043 0.7746827 0
vt 0.1018299 0.7777227 0
vt 0.1050685 0.7808358 0
vt 0.1082917 0.7840349 0
vt 0.1114521 0.7872799 0
vt 0.1145225 0.7905285 0
vt 0.09409095 0.8158047 0
vt 0.09718684 0.8186233 0
vt 0.1004763 0.821607 0
vt 0.1038249 0.8247297 0
vt 0.07067618 0.7917981 0
vt 0.07358986 0.7950396 0
vt 0.07636768 0.7980915 0
vt 0.07915904 0.8010659 0
vt 0.08207674 0.8040825 0
vt 0.08510465 0.8071254 0
vt 0.08813562 0.8101401 0
vt 0.09112073 0.8130248 0
vt 0.07359775 0.8386656 0
vt 0.07813836 0.8403409 0
vt 0.08238892 0.8423791 0
vt 0.08615307 0.8450535 0
vt 0.04951242 0.8099356 0
vt 0.05137224 0.8143041 0
vt 0.05299604 0.8188903 0
vt 0.05483595 0.8234759 0
vt 0.05728371 0.827826 0
vt 0.06052481 0.8316637 0
vt 0.0645419 0.8346705 0
vt 0.06898944 0.8369182 0
vt 0.7152052 0.2824551 0
vt 0.166421 0.8131302 0
vt 0.9895105 0.06831789 0
vt 0.03918221 0.9357228 0
vt 0.9240166 0.07951874 0
vt 0.6979426 0.1575661 0
vt 0.8947929 0.1085085 0
vt 0.6177304 0.3766709 0
vt 0.09770262 0.8792634 0
vt 0.9416794 0.06196423 0
vt 0.7643152 0.09135739 0
vt 0.9087316 0.09471485 0
vt 0.6327178 0.2225597 0
vt 0.8812566 0.1218045 0
vt 0.5097714 0.4810293 0
vt 0.4024184 0.5848218 0
vt 0.3060611 0.6780635 0
vt 0.2286098 0.7531557 0
vt 0.5658053 0.2892272 0
vt 0.495928 0.3588751 0
vt 0.08880086 0.7654457 0
vt 0.06759576 0.7884379 0
vt 0.2210573 0.6328195 0
vt 0.1667951 0.6868676 0
vt 0.1219898 0.7315079 0
vt 0.2828964 0.5711916 0
vt 0.4229288 0.4316056 0
vt 0.3506004 0.5036929 0
vt 0.04708035 0.8059913 0
vt 0.8375552 0.1648954 0
vt 0.7912262 0.2092045 0
vt 0.8526572 0.1497141 0
vt 0.8674012 0.135326 0
vt 0.8402729 0.02222516 0
vt 0.85242 0.03590851 0
vt 0.8367991 0.01923855 0
vt 0.8716562 0.0551004 0
vt 0.8552326 0.039488 0
vt 0.8680782 0.05227944 0
vt 0.84961 0.03230986 0
vt 0.8466904 0.02878285 0
vt 0.8435842 0.02540624 0
vt 0.8645943 0.04936134 0
vt 0.8612767 0.04626399 0
vt 0.8581607 0.04296052 0
vt 0.06560693 0.9630267 0
#end 442 textures vertices 

#begin 396 normals 
vn 0.4805 0.4643 -0.744
vn 0.0016 0.379 -0.9254
vn -0.4806 0.1903 -0.8561
vn -0.832 -0.0506 -0.5524
vn -0.9557 -0.2776 -0.0979
vn -0.8181 -0.4287 0.3833
vn -0.4571 -0.4627 0.7596
vn 0.0265 -0.3709 0.9283
vn 0.4991 -0.1805 0.8475
vn 0.8364 0.0555 0.5452
vn 0.9556 0.2761 0.1032
vn 0.8274 0.4255 -0.3666
vn 0.466 0.5026 -0.7282
vn 0.0089 0.3709 -0.9286
vn -0.4545 0.1382 -0.88
vn -0.7966 -0.1338 -0.5896
vn -0.9193 -0.3696 -0.1351
vn -0.7875 -0.503 0.3562
vn -0.4403 -0.4978 0.7472
vn 0.0232 -0.358 0.9334
vn 0.4768 -0.124 0.8702
vn 0.8027 0.1412 0.5795
vn 0.919 0.3689 0.1392
vn 0.7969 0.5009 -0.3376
vn 0.4132 0.5903 -0.6934
vn 0.0156 0.3658 -0.9306
vn -0.3902 0.0408 -0.9198
vn -0.6929 -0.298 -0.6566
vn -0.8046 -0.5556 -0.2094
vn -0.692 -0.6584 0.296
vn -0.3887 -0.5789 0.7168
vn 0.0175 -0.3428 0.9392
vn 0.4151 -0.0174 0.9096
vn 0.701 0.3103 0.6422
vn 0.8041 0.5563 0.2097
vn 0.6997 0.6586 -0.2768
vn 0.3091 0.6903 -0.6541
vn 0.0001 0.3826 -0.9239
vn -0.3121 -0.0305 -0.9496
vn -0.5425 -0.4396 -0.7159
vn -0.6239 -0.7291 -0.2813
vn -0.5308 -0.8149 0.2327
vn -0.2903 -0.6738 0.6795
vn 0.0276 -0.3499 0.9364
vn 0.3346 0.0643 0.9402
vn 0.551 0.4582 0.6974
vn 0.6236 0.7315 0.2757
vn 0.5357 0.8162 -0.2164
vn 0.148 0.7755 -0.6138
vn -0.0556 0.4115 -0.9097
vn -0.2461 -0.0652 -0.9671
vn -0.3718 -0.5294 -0.7626
vn -0.3959 -0.851 -0.3451
vn -0.3097 -0.9354 0.1705
vn -0.1371 -0.7586 0.637
vn 0.0723 -0.3745 0.9244
vn 0.2601 0.1063 0.9597
vn 0.3774 0.5545 0.7417
vn 0.3958 0.8559 0.3328
vn 0.3122 0.9363 -0.1607
vn -0.0546 0.8185 -0.5719
vn -0.1571 0.4315 -0.8883
vn -0.2187 -0.0726 -0.9731
vn -0.2218 -0.5621 -0.7968
vn -0.1641 -0.9016 -0.4001
vn -0.0609 -0.9921 0.1101
vn 0.0593 -0.8056 0.5895
vn 0.1627 -0.3975 0.9031
vn 0.2214 0.1147 0.9684
vn 0.2207 0.5913 0.7757
vn 0.1621 0.9099 0.3819
vn 0.0618 0.9921 -0.1089
vn -0.2711 0.8076 -0.5238
vn -0.2945 0.4226 -0.8571
vn -0.2405 -0.0757 -0.9677
vn -0.1215 -0.558 -0.8209
vn 0.0317 -0.8927 -0.4495
vn 0.1767 -0.9831 0.0487
vn 0.2727 -0.8001 0.5343
vn 0.293 -0.3959 0.8703
vn 0.2334 0.1135 0.9657
vn 0.112 0.5878 0.8012
vn -0.038 0.9034 0.4272
vn -0.1776 0.9825 -0.0558
vn -0.478 0.7473 -0.4616
vn -0.449 0.3757 -0.8107
vn -0.3017 -0.0991 -0.9482
vn -0.0742 -0.5504 -0.8316
vn 0.1727 -0.8544 -0.4901
vn 0.3737 -0.9274 -0.0154
vn 0.4746 -0.7465 0.4663
vn 0.4441 -0.3572 0.8217
vn 0.2883 0.1303 0.9486
vn 0.0543 0.5759 0.8157
vn -0.1908 0.8624 0.4689
vn -0.3838 0.9234 0.0042
vn -0.7297 0.5887 -0.3479
vn -0.6118 0.2908 -0.7356
vn -0.3365 -0.0848 -0.9379
vn 0.0335 -0.4471 -0.8939
vn 0.404 -0.6941 -0.5958
vn 0.6625 -0.7399 -0.1166
vn 0.7241 -0.5661 0.3939
vn 0.5787 -0.2367 0.7805
vn 0.2809 0.1464 0.9485
vn -0.0853 0.4856 0.87
vn -0.4284 0.7001 0.5712
vn -0.6631 0.7376 0.1277
vn -0.9028 0.3336 -0.2712
vn -0.6917 0.1628 -0.7036
vn -0.2935 -0.0537 -0.9544
vn 0.1903 -0.2575 -0.9474
vn 0.6248 -0.3902 -0.6763
vn 0.8844 -0.414 -0.2154
vn 0.8963 -0.3229 0.3039
vn 0.6616 -0.1433 0.7361
vn 0.2505 0.0743 0.9653
vn -0.2223 0.2701 0.9368
vn -0.6331 0.3942 0.6662
vn -0.8801 0.4171 0.2269
vn -0.944 0.1953 -0.2659
vn -0.6976 0.1004 -0.7094
vn -0.2632 -0.0216 -0.9645
vn 0.2431 -0.138 -0.9601
vn 0.684 -0.217 -0.6964
vn 0.9401 -0.2375 -0.2445
vn 0.942 -0.1938 0.2739
vn 0.689 -0.0976 0.7181
vn 0.2507 0.0249 0.9677
vn -0.2529 0.1403 0.9573
vn -0.6872 0.2181 0.6929
vn -0.9395 0.2381 0.2463
vn -0.9508 0.1554 -0.268
vn -0.6979 0.0767 -0.7121
vn -0.2583 -0.0224 -0.9658
vn 0.2506 -0.1156 -0.9612
vn 0.6926 -0.1779 -0.6991
vn 0.9491 -0.1925 -0.2494
vn 0.951 -0.1554 0.2674
vn 0.6974 -0.0766 0.7126
vn 0.2564 0.0228 0.9663
vn -0.2531 0.116 0.9605
vn -0.6944 0.1781 0.6972
vn -0.9495 0.1925 0.2476
vn -0.9502 0.1535 -0.2711
vn -0.6975 0.0631 -0.7138
vn -0.2587 -0.044 -0.965
vn 0.2485 -0.1392 -0.9586
vn 0.6892 -0.1974 -0.6972
vn 0.9467 -0.203 -0.2502
vn 0.952 -0.1545 0.2642
vn 0.7025 -0.0645 0.7087
vn 0.2638 0.0429 0.9636
vn -0.2464 0.1389 0.9592
vn -0.6904 0.1974 0.696
vn -0.948 0.2027 0.2452
vn -0.9431 0.1814 -0.2788
vn -0.6959 0.0519 -0.7162
vn -0.2638 -0.0909 -0.9603
vn 0.2365 -0.209 -0.9489
vn 0.6733 -0.2718 -0.6876
vn 0.9331 -0.2631 -0.2452
vn 0.9468 -0.1848 0.2633
vn 0.708 -0.0568 0.7039
vn 0.2776 0.0869 0.9568
vn -0.2293 0.2074 0.951
vn -0.6744 0.2716 0.6866
vn -0.9359 0.262 0.2355
vn -0.9194 0.251 -0.3027
vn -0.6922 0.0371 -0.7208
vn -0.2816 -0.1851 -0.9415
vn 0.1982 -0.3563 -0.9131
vn 0.6236 -0.4345 -0.6499
vn 0.8891 -0.4014 -0.2198
vn 0.9258 -0.2638 0.2709
vn 0.7168 -0.0543 0.6952
vn 0.3111 0.1714 0.9348
vn -0.182 0.3505 0.9187
vn -0.6253 0.4331 0.6492
vn -0.8958 0.3966 0.2006
vn -0.8396 0.375 -0.393
vn -0.6902 0.0059 -0.7236
vn -0.364 -0.3581 -0.8598
vn 0.0521 -0.628 -0.7765
vn 0.454 -0.7389 -0.4978
vn 0.7414 -0.6644 -0.0942
vn 0.8426 -0.4224 0.334
vn 0.7291 -0.0695 0.6808
vn 0.419 0.3093 0.8537
vn -0.0172 0.6108 0.7916
vn -0.4561 0.7385 0.4966
vn -0.7592 0.6484 0.0555
vn -0.69 0.4932 -0.5297
vn -0.6965 0.0061 -0.7176
vn -0.518 -0.4738 -0.7122
vn -0.209 -0.8259 -0.5236
vn 0.1511 -0.9673 -0.2037
vn 0.4733 -0.8649 0.1671
vn 0.677 -0.5425 0.4973
vn 0.7075 -0.0766 0.7025
vn 0.5502 0.4171 0.7234
vn 0.2385 0.8046 0.5438
vn -0.1456 0.9675 0.2066
vn -0.4893 0.8511 -0.1906
vn -0.5317 0.5341 -0.6573
vn -0.6554 0.0328 -0.7546
vn -0.5989 -0.4743 -0.6453
vn -0.3829 -0.8488 -0.3647
vn -0.0691 -0.9976 0.0085
vn 0.2614 -0.8881 0.3781
vn 0.5254 -0.5478 0.651
vn 0.6533 -0.0609 0.7547
vn 0.6077 0.4456 0.6574
vn 0.3983 0.8338 0.3822
vn 0.0803 0.9968 0.0027
vn -0.2609 0.888 -0.3788
vn -0.3919 0.5028 -0.7705
vn -0.5787 0.0151 -0.8154
vn -0.6071 -0.4726 -0.6388
vn -0.4738 -0.8302 -0.2939
vn -0.2175 -0.968 0.1255
vn 0.0943 -0.8545 0.5108
vn 0.3817 -0.5199 0.7642
vn 0.571 -0.0484 0.8195
vn 0.6107 0.4394 0.6587
vn 0.4864 0.8134 0.3191
vn 0.2276 0.9674 -0.1107
vn -0.0955 0.8538 -0.5118
vn -0.233 0.429 -0.8727
vn -0.497 -0.024 -0.8674
vn -0.6238 -0.4663 -0.6273
vn -0.5839 -0.7806 -0.223
vn -0.3921 -0.889 0.2365
vn -0.0996 -0.7675 0.6333
vn 0.2188 -0.4478 0.867
vn 0.4818 -0.01 0.8762
vn 0.6196 0.434 0.654
vn 0.5917 0.7654 0.2532
vn 0.4008 0.8892 -0.2208
vn 0.0973 0.7659 -0.6356
vn -0.0833 0.3178 -0.9445
vn -0.4248 -0.0768 -0.902
vn -0.6484 -0.4471 -0.6162
vn -0.698 -0.6957 -0.1697
vn -0.5653 -0.7611 0.3181
vn -0.2868 -0.6295 0.7221
vn 0.0661 -0.3351 0.9399
vn 0.4036 0.0482 0.9137
vn 0.6369 0.422 0.6452
vn 0.7004 0.6852 0.1997
vn 0.5717 0.7619 -0.3043
vn 0.2834 0.6269 -0.7257
vn 0.0321 0.194 -0.9805
vn -0.3736 -0.1291 -0.9186
vn -0.6753 -0.415 -0.6097
vn -0.7958 -0.5888 -0.1416
vn -0.7075 -0.6077 0.3609
vn -0.4356 -0.4687 0.7685
vn -0.0502 -0.2077 0.9769
vn 0.3503 0.109 0.9303
vn 0.6607 0.3992 0.6357
vn 0.7948 0.5835 0.1668
vn 0.7115 0.6087 -0.3509
vn 0.4312 0.4655 -0.7729
vn 0.1063 0.0837 -0.9908
vn -0.3447 -0.1679 -0.9236
vn -0.7003 -0.3729 -0.6088
vn -0.8681 -0.4779 -0.1344
vn -0.8074 -0.4571 0.3732
vn -0.5359 -0.3169 0.7826
vn -0.1237 -0.0935 0.9879
vn 0.323 0.1555 0.9335
vn 0.6862 0.3646 0.6294
vn 0.866 0.4761 0.1529
vn 0.8095 0.4578 -0.3675
vn 0.5304 0.3136 -0.7876
vn 0.1473 -0 -0.9891
vn -0.3329 -0.1872 -0.9242
vn -0.7215 -0.3234 -0.6122
vn -0.9172 -0.3733 -0.1394
vn -0.8709 -0.3249 0.3688
vn -0.5959 -0.1911 0.78
vn -0.1634 -0.0067 0.9865
vn 0.3142 0.1802 0.9321
vn 0.7099 0.3197 0.6275
vn 0.9153 0.3733 0.1516
vn 0.8716 0.3251 -0.3671
vn 0.5895 0.188 -0.7856
vn 0.163 -0.0452 -0.9856
vn -0.3341 -0.1756 -0.926
vn -0.7404 -0.2589 -0.6203
vn -0.9499 -0.2735 -0.1512
vn -0.9087 -0.216 0.3572
vn -0.6276 -0.1014 0.7719
vn -0.1792 0.0405 0.983
vn 0.3189 0.172 0.932
vn 0.7331 0.2577 0.6294
vn 0.9493 0.2736 0.1549
vn 0.907 0.2149 -0.3622
vn 0.6181 0.0979 -0.78
vn 0.1657 -0.0521 -0.9848
vn -0.3412 -0.1342 -0.9303
vn -0.7562 -0.1806 -0.629
vn -0.9705 -0.1791 -0.1617
vn -0.9283 -0.1302 0.3484
vn -0.6399 -0.0468 0.767
vn -0.1801 0.0494 0.9824
vn 0.3298 0.1326 0.9347
vn 0.752 0.1802 0.634
vn 0.9707 0.1789 0.1607
vn 0.9255 0.129 -0.3562
vn 0.6298 0.0443 -0.7755
vn 0.1673 -0.0462 -0.9848
vn -0.345 -0.0925 -0.934
vn -0.7644 -0.114 -0.6346
vn -0.9804 -0.1052 -0.1668
vn -0.936 -0.0685 0.3453
vn -0.6425 -0.0135 0.7661
vn -0.1768 0.0452 0.9832
vn 0.3374 0.0919 0.9369
vn 0.7617 0.1139 0.6379
vn 0.9805 0.1051 0.1662
vn 0.9342 0.0679 -0.3503
vn 0.6359 0.0125 -0.7717
vn 0.1701 -0.0434 -0.9845
vn -0.3444 -0.07 -0.9362
vn -0.7664 -0.0778 -0.6377
vn -0.9835 -0.0648 -0.169
vn -0.938 -0.0345 0.3449
vn -0.6419 0.005 0.7668
vn -0.1737 0.0432 0.9839
vn 0.3415 0.0699 0.9373
vn 0.7653 0.0778 0.639
vn 0.9835 0.0648 0.1688
vn 0.9374 0.0344 -0.3467
vn 0.6394 -0.0052 -0.7689
vn 0.1744 -0.0443 -0.9837
vn -0.341 -0.073 -0.9372
vn -0.765 -0.0821 -0.6388
vn -0.9833 -0.069 -0.1684
vn -0.937 -0.0375 0.3472
vn -0.6389 0.0042 0.7693
vn -0.1694 0.0447 0.9845
vn 0.3449 0.0733 0.9358
vn 0.7663 0.0823 0.6372
vn 0.9832 0.0693 0.169
vn 0.9381 0.0379 -0.3444
vn 0.6424 -0.0037 -0.7663
vn 0.1831 -0.0503 -0.9818
vn -0.3311 -0.119 -0.9361
vn -0.7561 -0.155 -0.6358
vn -0.9754 -0.1489 -0.1627
vn -0.9293 -0.1028 0.3547
vn -0.6305 -0.0286 0.7757
vn -0.1617 0.0538 0.9854
vn 0.3476 0.1221 0.9297
vn 0.7616 0.1579 0.6286
vn 0.9746 0.1522 0.1643
vn 0.9332 0.1065 -0.3433
vn 0.6455 0.0325 -0.7631
vn 0.2069 -0.0602 -0.9765
vn -0.2804 -0.2551 -0.9254
vn -0.6929 -0.3752 -0.6157
vn -0.9104 -0.3912 -0.1347
vn -0.8724 -0.3014 0.3848
vn -0.5903 -0.1261 0.7972
vn -0.1489 0.0876 0.985
vn 0.3231 0.2772 0.9049
vn 0.7027 0.3924 0.5935
vn 0.9026 0.408 0.1371
vn 0.8779 0.322 -0.3544
vn 0.6288 0.1523 -0.7625
vn 0.2444 -0.0538 -0.9682
vn -0.0501 -0.4698 -0.8813
vn -0.3469 -0.7685 -0.5377
vn -0.5452 -0.8382 -0.0139
vn -0.5683 -0.6449 0.511
vn -0.4244 -0.2702 0.8642
vn -0.176 0.1627 0.9708
vn 0.1098 0.5456 0.8308
vn 0.3677 0.7921 0.4873
vn 0.5354 0.8443 0.0231
vn 0.5708 0.689 -0.4467
vn 0.466 0.3647 -0.8061
vn 0.2488 -0.069 -0.9661
vn 0.1226 -0.5833 -0.8029
vn -0.033 -0.9115 -0.41
vn -0.1747 -0.9814 0.0796
vn -0.2724 -0.7885 0.5514
vn -0.2953 -0.3605 0.8848
vn -0.2262 0.1845 0.9564
vn -0.0923 0.6539 0.751
vn 0.056 0.926 0.3732
vn 0.1843 0.9805 -0.0684
vn 0.273 0.8219 -0.4999
vn 0.3013 0.4537 -0.8387
#end 396 normals 

#begin 384 faces
o BézierCurve:001
s 1
f 1/1/1 13/13/13 24/24/24 12/12/12 
f 2/2/2 14/14/14 13/13/13 1/1/1 
f 3/3/3 15/15/15 14/14/14 2/2/2 
f 4/399/4 16/16/16 15/15/15 3/3/3 
f 5/5/5 17/17/17 16/406/16 4/4/4 
f 6/6/6 18/18/18 17/17/17 5/5/5 
f 7/7/7 19/19/19 18/18/18 6/6/6 
f 8/8/8 20/20/20 19/19/19 7/7/7 
f 9/9/9 21/21/21 20/20/20 8/8/8 
f 10/10/10 22/22/22 21/21/21 9/9/9 
f 11/11/11 23/23/23 22/22/22 10/10/10 
f 12/12/12 24/24/24 23/23/23 11/11/11 
f 13/13/13 25/25/25 36/36/36 24/24/24 
f 14/14/14 26/26/26 25/25/25 13/13/13 
f 15/15/15 27/27/27 26/26/26 14/14/14 
f 16/16/16 28/28/28 27/27/27 15/15/15 
f 17/17/17 29/29/29 28/401/28 16/406/16 
f 18/18/18 30/30/30 29/29/29 17/17/17 
f 19/19/19 31/31/31 30/30/30 18/18/18 
f 20/20/20 32/32/32 31/31/31 19/19/19 
f 21/21/21 33/33/33 32/32/32 20/20/20 
f 22/22/22 34/34/34 33/33/33 21/21/21 
f 23/23/23 35/35/35 34/34/34 22/22/22 
f 24/24/24 36/36/36 35/35/35 23/23/23 
f 25/25/25 37/37/37 48/48/48 36/36/36 
f 26/26/26 38/38/38 37/37/37 25/25/25 
f 27/27/27 39/39/39 38/38/38 26/26/26 
f 28/28/28 40/40/40 39/39/39 27/27/27 
f 29/29/29 41/41/41 40/408/40 28/401/28 
f 30/30/30 42/42/42 41/41/41 29/29/29 
f 31/31/31 43/43/43 42/42/42 30/30/30 
f 32/32/32 44/44/44 43/43/43 31/31/31 
f 33/33/33 45/45/45 44/44/44 32/32/32 
f 34/34/34 46/46/46 45/45/45 33/33/33 
f 35/35/35 47/47/47 46/46/46 34/34/34 
f 36/36/36 48/48/48 47/47/47 35/35/35 
f 37/37/37 49/49/49 60/60/60 48/48/48 
f 38/38/38 50/50/50 49/49/49 37/37/37 
f 39/39/39 51/51/51 50/50/50 38/38/38 
f 40/40/40 52/52/52 51/51/51 39/39/39 
f 41/41/41 53/53/53 52/403/52 40/408/40 
f 42/42/42 54/54/54 53/53/53 41/41/41 
f 43/43/43 55/55/55 54/54/54 42/42/42 
f 44/44/44 56/56/56 55/55/55 43/43/43 
f 45/45/45 57/57/57 56/56/56 44/44/44 
f 46/46/46 58/58/58 57/57/57 45/45/45 
f 47/47/47 59/59/59 58/58/58 46/46/46 
f 48/48/48 60/60/60 59/59/59 47/47/47 
f 49/49/49 61/61/61 72/72/72 60/60/60 
f 50/50/50 62/62/62 61/61/61 49/49/49 
f 51/51/51 63/63/63 62/62/62 50/50/50 
f 52/52/52 64/64/64 63/63/63 51/51/51 
f 53/53/53 65/65/65 64/410/64 52/403/52 
f 54/54/54 66/66/66 65/65/65 53/53/53 
f 55/55/55 67/67/67 66/66/66 54/54/54 
f 56/56/56 68/68/68 67/67/67 55/55/55 
f 57/57/57 69/69/69 68/68/68 56/56/56 
f 58/58/58 70/70/70 69/69/69 57/57/57 
f 59/59/59 71/71/71 70/70/70 58/58/58 
f 60/60/60 72/72/72 71/71/71 59/59/59 
f 61/61/61 73/73/73 84/84/84 72/72/72 
f 62/62/62 74/74/74 73/73/73 61/61/61 
f 63/63/63 75/75/75 74/74/74 62/62/62 
f 64/64/64 76/76/76 75/75/75 63/63/63 
f 65/65/65 77/77/77 76/429/76 64/410/64 
f 66/66/66 78/78/78 77/77/77 65/65/65 
f 67/67/67 79/79/79 78/78/78 66/66/66 
f 68/68/68 80/80/80 79/79/79 67/67/67 
f 69/69/69 81/81/81 80/80/80 68/68/68 
f 70/70/70 82/82/82 81/81/81 69/69/69 
f 71/71/71 83/83/83 82/82/82 70/70/70 
f 72/72/72 84/84/84 83/83/83 71/71/71 
f 73/73/73 85/85/85 96/96/96 84/84/84 
f 74/74/74 86/86/86 85/85/85 73/73/73 
f 75/75/75 87/87/87 86/86/86 74/74/74 
f 76/76/76 88/88/88 87/87/87 75/75/75 
f 77/77/77 89/89/89 88/428/88 76/429/76 
f 78/78/78 90/90/90 89/89/89 77/77/77 
f 79/79/79 91/91/91 90/90/90 78/78/78 
f 80/80/80 92/92/92 91/91/91 79/79/79 
f 81/81/81 93/93/93 92/92/92 80/80/80 
f 82/82/82 94/94/94 93/93/93 81/81/81 
f 83/83/83 95/95/95 94/94/94 82/82/82 
f 84/84/84 96/96/96 95/95/95 83/83/83 
f 85/85/85 97/97/97 108/108/108 96/96/96 
f 86/86/86 98/98/98 97/97/97 85/85/85 
f 87/87/87 99/99/99 98/98/98 86/86/86 
f 88/88/88 100/100/100 99/99/99 87/87/87 
f 89/89/89 101/101/101 100/426/100 88/428/88 
f 90/90/90 102/102/102 101/101/101 89/89/89 
f 91/91/91 103/103/103 102/102/102 90/90/90 
f 92/92/92 104/104/104 103/103/103 91/91/91 
f 93/93/93 105/105/105 104/104/104 92/92/92 
f 94/94/94 106/106/106 105/105/105 93/93/93 
f 95/95/95 107/107/107 106/106/106 94/94/94 
f 96/96/96 108/108/108 107/107/107 95/95/95 
f 97/97/97 109/109/109 120/120/120 108/108/108 
f 98/98/98 110/110/110 109/109/109 97/97/97 
f 99/99/99 111/111/111 110/110/110 98/98/98 
f 100/100/100 112/112/112 111/111/111 99/99/99 
f 101/101/101 113/113/113 112/427/112 100/426/100 
f 102/102/102 114/114/114 113/113/113 101/101/101 
f 103/103/103 115/115/115 114/114/114 102/102/102 
f 104/104/104 116/116/116 115/115/115 103/103/103 
f 105/105/105 117/117/117 116/116/116 104/104/104 
f 106/106/106 118/118/118 117/117/117 105/105/105 
f 107/107/107 119/119/119 118/118/118 106/106/106 
f 108/108/108 120/120/120 119/119/119 107/107/107 
f 109/109/109 121/121/121 132/132/132 120/120/120 
f 110/110/110 122/122/122 121/121/121 109/109/109 
f 111/111/111 123/123/123 122/122/122 110/110/110 
f 112/112/112 124/124/124 123/123/123 111/111/111 
f 113/113/113 125/125/125 124/397/124 112/427/112 
f 114/114/114 126/126/126 125/125/125 113/113/113 
f 115/115/115 127/127/127 126/126/126 114/114/114 
f 116/116/116 128/128/128 127/127/127 115/115/115 
f 117/117/117 129/129/129 128/128/128 116/116/116 
f 118/118/118 130/130/130 129/129/129 117/117/117 
f 119/119/119 131/131/131 130/130/130 118/118/118 
f 120/120/120 132/132/132 131/131/131 119/119/119 
f 121/121/121 133/133/133 144/144/144 132/132/132 
f 122/122/122 134/134/134 133/133/133 121/121/121 
f 123/123/123 135/135/135 134/134/134 122/122/122 
f 124/124/124 136/136/136 135/135/135 123/123/123 
f 125/125/125 137/137/137 136/404/136 124/397/124 
f 126/126/126 138/138/138 137/137/137 125/125/125 
f 127/127/127 139/139/139 138/138/138 126/126/126 
f 128/128/128 140/140/140 139/139/139 127/127/127 
f 129/129/129 141/141/141 140/140/140 128/128/128 
f 130/130/130 142/142/142 141/141/141 129/129/129 
f 131/131/131 143/143/143 142/142/142 130/130/130 
f 132/132/132 144/144/144 143/143/143 131/131/131 
f 133/133/133 145/145/145 156/156/156 144/144/144 
f 134/134/134 146/146/146 145/145/145 133/133/133 
f 135/135/135 147/147/147 146/146/146 134/134/134 
f 136/136/136 148/148/148 147/147/147 135/135/135 
f 137/137/137 149/149/149 148/411/148 136/404/136 
f 138/138/138 150/150/150 149/149/149 137/137/137 
f 139/139/139 151/151/151 150/150/150 138/138/138 
f 140/140/140 152/152/152 151/151/151 139/139/139 
f 141/141/141 153/153/153 152/152/152 140/140/140 
f 142/142/142 154/154/154 153/153/153 141/141/141 
f 143/143/143 155/155/155 154/154/154 142/142/142 
f 144/144/144 156/156/156 155/155/155 143/143/143 
f 145/145/145 157/157/157 168/168/168 156/156/156 
f 146/146/146 158/158/158 157/157/157 145/145/145 
f 147/147/147 159/159/159 158/158/158 146/146/146 
f 148/148/148 160/160/160 159/159/159 147/147/147 
f 149/149/149 161/161/161 160/412/160 148/411/148 
f 150/150/150 162/162/162 161/161/161 149/149/149 
f 151/151/151 163/163/163 162/162/162 150/150/150 
f 152/152/152 164/164/164 163/163/163 151/151/151 
f 153/153/153 165/165/165 164/164/164 152/152/152 
f 154/154/154 166/166/166 165/165/165 153/153/153 
f 155/155/155 167/167/167 166/166/166 154/154/154 
f 156/156/156 168/168/168 167/167/167 155/155/155 
f 157/157/157 169/169/169 180/180/180 168/168/168 
f 158/158/158 170/170/170 169/169/169 157/157/157 
f 159/159/159 171/171/171 170/170/170 158/158/158 
f 160/160/160 172/172/172 171/171/171 159/159/159 
f 161/161/161 173/173/173 172/413/172 160/412/160 
f 162/162/162 174/174/174 173/173/173 161/161/161 
f 163/163/163 175/175/175 174/174/174 162/162/162 
f 164/164/164 176/176/176 175/175/175 163/163/163 
f 165/165/165 177/177/177 176/176/176 164/164/164 
f 166/166/166 178/178/178 177/177/177 165/165/165 
f 167/167/167 179/179/179 178/178/178 166/166/166 
f 168/168/168 180/180/180 179/179/179 167/167/167 
f 169/169/169 181/181/181 192/192/192 180/180/180 
f 170/170/170 182/182/182 181/181/181 169/169/169 
f 171/171/171 183/183/183 182/182/182 170/170/170 
f 172/172/172 184/184/184 183/183/183 171/171/171 
f 173/173/173 185/185/185 184/414/184 172/413/172 
f 174/174/174 186/186/186 185/185/185 173/173/173 
f 175/175/175 187/187/187 186/186/186 174/174/174 
f 176/176/176 188/188/188 187/187/187 175/175/175 
f 177/177/177 189/189/189 188/188/188 176/176/176 
f 178/178/178 190/190/190 189/189/189 177/177/177 
f 179/179/179 191/191/191 190/190/190 178/178/178 
f 180/180/180 192/192/192 191/191/191 179/179/179 
f 181/181/181 193/193/193 204/204/204 192/192/192 
f 182/182/182 194/194/194 193/193/193 181/181/181 
f 183/183/183 195/195/195 194/194/194 182/182/182 
f 184/184/184 196/196/196 195/195/195 183/183/183 
f 185/185/185 197/197/197 196/398/196 184/414/184 
f 186/186/186 198/198/198 197/197/197 185/185/185 
f 187/187/187 199/199/199 198/198/198 186/186/186 
f 188/188/188 200/200/200 199/199/199 187/187/187 
f 189/189/189 201/201/201 200/200/200 188/188/188 
f 190/190/190 202/202/202 201/201/201 189/189/189 
f 191/191/191 203/203/203 202/202/202 190/190/190 
f 192/192/192 204/204/204 203/203/203 191/191/191 
f 193/193/193 205/205/205 216/216/216 204/204/204 
f 194/194/194 206/206/206 205/205/205 193/193/193 
f 195/195/195 207/207/207 206/206/206 194/194/194 
f 196/196/196 208/208/208 207/207/207 195/195/195 
f 197/197/197 209/209/209 208/405/208 196/398/196 
f 198/198/198 210/210/210 209/209/209 197/197/197 
f 199/199/199 211/211/211 210/210/210 198/198/198 
f 200/200/200 212/212/212 211/211/211 199/199/199 
f 201/201/201 213/213/213 212/212/212 200/200/200 
f 202/202/202 214/214/214 213/213/213 201/201/201 
f 203/203/203 215/215/215 214/214/214 202/202/202 
f 204/204/204 216/216/216 215/215/215 203/203/203 
f 205/205/205 217/217/217 228/228/228 216/216/216 
f 206/206/206 218/218/218 217/217/217 205/205/205 
f 207/207/207 219/219/219 218/218/218 206/206/206 
f 208/208/208 220/442/220 219/219/219 207/207/207 
f 209/209/209 221/221/221 220/400/220 208/405/208 
f 210/210/210 222/222/222 221/221/221 209/209/209 
f 211/211/211 223/223/223 222/222/222 210/210/210 
f 212/212/212 224/224/224 223/223/223 211/211/211 
f 213/213/213 225/225/225 224/224/224 212/212/212 
f 214/214/214 226/226/226 225/225/225 213/213/213 
f 215/215/215 227/227/227 226/226/226 214/214/214 
f 216/216/216 228/228/228 227/227/227 215/215/215 
f 217/439/217 229/229/229 240/240/240 228/440/228 
f 218/435/218 230/230/230 229/229/229 217/439/217 
f 219/433/219 231/231/231 230/230/230 218/435/218 
f 220/220/220 232/232/232 231/231/231 219/433/219 
f 221/430/221 233/233/233 232/407/232 220/432/220 
f 222/438/222 234/234/234 233/233/233 221/430/221 
f 223/437/223 235/235/235 234/234/234 222/438/222 
f 224/436/224 236/236/236 235/235/235 223/437/223 
f 225/431/225 237/237/237 236/236/236 224/436/224 
f 226/434/226 238/238/238 237/237/237 225/431/225 
f 227/441/227 239/239/239 238/238/238 226/434/226 
f 228/440/228 240/240/240 239/239/239 227/441/227 
f 229/229/229 241/241/241 252/252/252 240/240/240 
f 230/230/230 242/242/242 241/241/241 229/229/229 
f 231/231/231 243/243/243 242/242/242 230/230/230 
f 232/232/232 244/244/244 243/243/243 231/231/231 
f 233/233/233 245/245/245 244/402/244 232/407/232 
f 234/234/234 246/246/246 245/245/245 233/233/233 
f 235/235/235 247/247/247 246/246/246 234/234/234 
f 236/236/236 248/248/248 247/247/247 235/235/235 
f 237/237/237 249/249/249 248/248/248 236/236/236 
f 238/238/238 250/250/250 249/249/249 237/237/237 
f 239/239/239 251/251/251 250/250/250 238/238/238 
f 240/240/240 252/252/252 251/251/251 239/239/239 
f 241/241/241 253/253/253 264/264/264 252/252/252 
f 242/242/242 254/254/254 253/253/253 241/241/241 
f 243/243/243 255/255/255 254/254/254 242/242/242 
f 244/244/244 256/256/256 255/255/255 243/243/243 
f 245/245/245 257/257/257 256/409/256 244/402/244 
f 246/246/246 258/258/258 257/257/257 245/245/245 
f 247/247/247 259/259/259 258/258/258 246/246/246 
f 248/248/248 260/260/260 259/259/259 247/247/247 
f 249/249/249 261/261/261 260/260/260 248/248/248 
f 250/250/250 262/262/262 261/261/261 249/249/249 
f 251/251/251 263/263/263 262/262/262 250/250/250 
f 252/252/252 264/264/264 263/263/263 251/251/251 
f 253/253/253 265/265/265 276/276/276 264/264/264 
f 254/254/254 266/266/266 265/265/265 253/253/253 
f 255/255/255 267/267/267 266/266/266 254/254/254 
f 256/256/256 268/268/268 267/267/267 255/255/255 
f 257/257/257 269/269/269 268/415/268 256/409/256 
f 258/258/258 270/270/270 269/269/269 257/257/257 
f 259/259/259 271/271/271 270/270/270 258/258/258 
f 260/260/260 272/272/272 271/271/271 259/259/259 
f 261/261/261 273/273/273 272/272/272 260/260/260 
f 262/262/262 274/274/274 273/273/273 261/261/261 
f 263/263/263 275/275/275 274/274/274 262/262/262 
f 264/264/264 276/276/276 275/275/275 263/263/263 
f 265/265/265 277/277/277 288/288/288 276/276/276 
f 266/266/266 278/278/278 277/277/277 265/265/265 
f 267/267/267 279/279/279 278/278/278 266/266/266 
f 268/268/268 280/280/280 279/279/279 267/267/267 
f 269/269/269 281/281/281 280/416/280 268/415/268 
f 270/270/270 282/282/282 281/281/281 269/269/269 
f 271/271/271 283/283/283 282/282/282 270/270/270 
f 272/272/272 284/284/284 283/283/283 271/271/271 
f 273/273/273 285/285/285 284/284/284 272/272/272 
f 274/274/274 286/286/286 285/285/285 273/273/273 
f 275/275/275 287/287/287 286/286/286 274/274/274 
f 276/276/276 288/288/288 287/287/287 275/275/275 
f 277/277/277 289/289/289 300/300/300 288/288/288 
f 278/278/278 290/290/290 289/289/289 277/277/277 
f 279/279/279 291/291/291 290/290/290 278/278/278 
f 280/280/280 292/292/292 291/291/291 279/279/279 
f 281/281/281 293/293/293 292/423/292 280/416/280 
f 282/282/282 294/294/294 293/293/293 281/281/281 
f 283/283/283 295/295/295 294/294/294 282/282/282 
f 284/284/284 296/296/296 295/295/295 283/283/283 
f 285/285/285 297/297/297 296/296/296 284/284/284 
f 286/286/286 298/298/298 297/297/297 285/285/285 
f 287/287/287 299/299/299 298/298/298 286/286/286 
f 288/288/288 300/300/300 299/299/299 287/287/287 
f 289/289/289 301/301/301 312/312/312 300/300/300 
f 290/290/290 302/302/302 301/301/301 289/289/289 
f 291/291/291 303/303/303 302/302/302 290/290/290 
f 292/292/292 304/304/304 303/303/303 291/291/291 
f 293/293/293 305/305/305 304/424/304 292/423/292 
f 294/294/294 306/306/306 305/305/305 293/293/293 
f 295/295/295 307/307/307 306/306/306 294/294/294 
f 296/296/296 308/308/308 307/307/307 295/295/295 
f 297/297/297 309/309/309 308/308/308 296/296/296 
f 298/298/298 310/310/310 309/309/309 297/297/297 
f 299/299/299 311/311/311 310/310/310 298/298/298 
f 300/300/300 312/312/312 311/311/311 299/299/299 
f 301/301/301 313/313/313 324/324/324 312/312/312 
f 302/302/302 314/314/314 313/313/313 301/301/301 
f 303/303/303 315/315/315 314/314/314 302/302/302 
f 304/304/304 316/316/316 315/315/315 303/303/303 
f 305/305/305 317/317/317 316/422/316 304/424/304 
f 306/306/306 318/318/318 317/317/317 305/305/305 
f 307/307/307 319/319/319 318/318/318 306/306/306 
f 308/308/308 320/320/320 319/319/319 307/307/307 
f 309/309/309 321/321/321 320/320/320 308/308/308 
f 310/310/310 322/322/322 321/321/321 309/309/309 
f 311/311/311 323/323/323 322/322/322 310/310/310 
f 312/312/312 324/324/324 323/323/323 311/311/311 
f 313/313/313 325/325/325 336/336/336 324/324/324 
f 314/314/314 326/326/326 325/325/325 313/313/313 
f 315/315/315 327/327/327 326/326/326 314/314/314 
f 316/316/316 328/328/328 327/327/327 315/315/315 
f 317/317/317 329/329/329 328/419/328 316/422/316 
f 318/318/318 330/330/330 329/329/329 317/317/317 
f 319/319/319 331/331/331 330/330/330 318/318/318 
f 320/320/320 332/332/332 331/331/331 319/319/319 
f 321/321/321 333/333/333 332/332/332 320/320/320 
f 322/322/322 334/334/334 333/333/333 321/321/321 
f 323/323/323 335/335/335 334/334/334 322/322/322 
f 324/324/324 336/336/336 335/335/335 323/323/323 
f 325/325/325 337/337/337 348/348/348 336/336/336 
f 326/326/326 338/338/338 337/337/337 325/325/325 
f 327/327/327 339/339/339 338/338/338 326/326/326 
f 328/328/328 340/340/340 339/339/339 327/327/327 
f 329/329/329 341/341/341 340/420/340 328/419/328 
f 330/330/330 342/342/342 341/341/341 329/329/329 
f 331/331/331 343/343/343 342/342/342 330/330/330 
f 332/332/332 344/344/344 343/343/343 331/331/331 
f 333/333/333 345/345/345 344/344/344 332/332/332 
f 334/334/334 346/346/346 345/345/345 333/333/333 
f 335/335/335 347/347/347 346/346/346 334/334/334 
f 336/336/336 348/348/348 347/347/347 335/335/335 
f 337/337/337 349/349/349 360/360/360 348/348/348 
f 338/338/338 350/350/350 349/349/349 337/337/337 
f 339/339/339 351/351/351 350/350/350 338/338/338 
f 340/340/340 352/352/352 351/351/351 339/339/339 
f 341/341/341 353/353/353 352/421/352 340/420/340 
f 342/342/342 354/354/354 353/353/353 341/341/341 
f 343/343/343 355/355/355 354/354/354 342/342/342 
f 344/344/344 356/356/356 355/355/355 343/343/343 
f 345/345/345 357/357/357 356/356/356 344/344/344 
f 346/346/346 358/358/358 357/357/357 345/345/345 
f 347/347/347 359/359/359 358/358/358 346/346/346 
f 348/348/348 360/360/360 359/359/359 347/347/347 
f 349/349/349 361/361/361 372/372/372 360/360/360 
f 350/350/350 362/362/362 361/361/361 349/349/349 
f 351/351/351 363/363/363 362/362/362 350/350/350 
f 352/352/352 364/364/364 363/363/363 351/351/351 
f 353/353/353 365/365/365 364/417/364 352/421/352 
f 354/354/354 366/366/366 365/365/365 353/353/353 
f 355/355/355 367/367/367 366/366/366 354/354/354 
f 356/356/356 368/368/368 367/367/367 355/355/355 
f 357/357/357 369/369/369 368/368/368 356/356/356 
f 358/358/358 370/370/370 369/369/369 357/357/357 
f 359/359/359 371/371/371 370/370/370 358/358/358 
f 360/360/360 372/372/372 371/371/371 359/359/359 
f 361/361/361 373/373/373 384/384/384 372/372/372 
f 362/362/362 374/374/374 373/373/373 361/361/361 
f 363/363/363 375/375/375 374/374/374 362/362/362 
f 364/364/364 376/376/376 375/375/375 363/363/363 
f 365/365/365 377/377/377 376/418/376 364/417/364 
f 366/366/366 378/378/378 377/377/377 365/365/365 
f 367/367/367 379/379/379 378/378/378 366/366/366 
f 368/368/368 380/380/380 379/379/379 367/367/367 
f 369/369/369 381/381/381 380/380/380 368/368/368 
f 370/370/370 382/382/382 381/381/381 369/369/369 
f 371/371/371 383/383/383 382/382/382 370/370/370 
f 372/372/372 384/384/384 383/383/383 371/371/371 
f 373/373/373 385/385/385 396/396/396 384/384/384 
f 374/374/374 386/386/386 385/385/385 373/373/373 
f 375/375/375 387/387/387 386/386/386 374/374/374 
f 376/376/376 388/388/388 387/387/387 375/375/375 
f 377/377/377 389/389/389 388/425/388 376/418/376 
f 378/378/378 390/390/390 389/389/389 377/377/377 
f 379/379/379 391/391/391 390/390/390 378/378/378 
f 380/380/380 392/392/392 391/391/391 379/379/379 
f 381/381/381 393/393/393 392/392/392 380/380/380 
f 382/382/382 394/394/394 393/393/393 381/381/381 
f 383/383/383 395/395/395 394/394/394 382/382/382 
f 384/384/384 396/396/396 395/395/395 383/383/383 
#end 384 faces

#ZOMPROPERTIES_04{
#ZOMPROPERTIES_04 table {Mesh table {SymPlane table {Point vector3d 0 0 0 Normal vector3d 1 0 0 Threshold double 0.01 
#ZOMPROPERTIES_04 Enabled bool false EdgeID int -1 SymEdgeID int -1 UPos double 0.5 LocalMode bool false } RootGroup C
#ZOMPROPERTIES_04 SubMeshGroup {Children table {Tile_0_0 CSubMeshGroup {Children table {} BBoxUV box3d 0 0 0 0 0 0 BBo
#ZOMPROPERTIES_04 x3D box3d 0 0 0 0 0 0 Area3D double 0 AreaUV double 0.110122 IsRoot bool false Properties table {Sel
#ZOMPROPERTIES_04 ected bool false Box box3d 0 1 0 1 0 1 U int 0 V int 0 NU int 0 NV int 0 Tiling vector3d 1 1 1 TileR
#ZOMPROPERTIES_04 atioMode string "1:1" Overflow string "Off" Pack table {BoxFrameEdit bool false Behavior string "Fre
#ZOMPROPERTIES_04 e" } } IsTile bool true PolyIDs ints { 0 11 10 22 34 33 32 44 56 57 69 68 67 66 65 64 52 40 41 42 54
#ZOMPROPERTIES_04  43 55 30 31 19 20 8 9 21 7 6 5 17 16 4 28 18 29 53 76 77 89 88 100 112 124 136 148 160 172 173 174 
#ZOMPROPERTIES_04 186 185 197 209 208 196 210 211 212 213 214 215 204 205 193 194 206 207 195 183 182 170 171 159 147 
#ZOMPROPERTIES_04 135 123 122 134 133 145 144 156 168 179 178 166 167 155 143 132 120 121 109 110 111 99 87 86 85 84 9
#ZOMPROPERTIES_04 5 94 106 105 93 81 92 104 103 91 79 90 102 101 113 114 126 125 138 139 140 141 142 130 131 119 108 9
#ZOMPROPERTIES_04 6 118 117 129 128 116 115 127 153 152 164 163 162 150 149 161 175 187 199 188 200 189 201 190 202 19
#ZOMPROPERTIES_04 1 203 177 176 151 165 137 78 80 107 82 83 71 60 72 61 73 62 74 63 75 51 39 38 26 27 15 3 2 1 14 13 2
#ZOMPROPERTIES_04 5 24 36 48 59 58 47 35 23 12 46 37 49 50 70 97 98 154 180 169 181 157 158 146 192 198 184 45 216 227
#ZOMPROPERTIES_04  239 238 250 249 261 260 272 271 283 282 281 269 268 280 292 293 305 317 316 328 340 352 364 376 377
#ZOMPROPERTIES_04  378 379 380 381 382 383 372 373 374 375 363 362 350 351 339 338 326 325 313 314 315 303 302 290 289
#ZOMPROPERTIES_04  288 276 264 265 277 278 279 291 267 266 254 255 243 231 230 229 217 218 228 240 251 263 262 274 286
#ZOMPROPERTIES_04  298 310 311 323 312 324 335 334 322 321 309 308 320 319 331 343 355 354 366 353 356 344 345 333 346
#ZOMPROPERTIES_04  358 357 369 370 359 348 349 361 336 360 347 371 368 367 332 342 341 330 318 306 307 295 296 297 284
#ZOMPROPERTIES_04  285 294 329 337 300 299 287 275 273 252 253 241 219 242 301 327 365 304 256 257 258 270 259 247 248
#ZOMPROPERTIES_04  236 237 225 224 223 222 221 220 232 233 245 246 234 244 235 226 } } } BBoxUV box3d 0 0 0 0 0 0 BBox
#ZOMPROPERTIES_04 3D box3d 0 0 0 0 0 0 Area3D double 0 AreaUV double 0 IsRoot bool true Properties table {Selected boo
#ZOMPROPERTIES_04 l false Box box3d 0 1 0 1 0 1 U int 0 V int 0 NU int 1 NV int 1 Tiling vector3d 1 1 1 TileRatioMode 
#ZOMPROPERTIES_04 string "1:1" Overflow string "Off" Pack table {Rotate table {Mode int 0 Min double 0 Max double 90 S
#ZOMPROPERTIES_04 tep double 0 } PaddingSize double 0.0078125 MarginSize double 0.00390625 Resolution int 256 MapResol
#ZOMPROPERTIES_04 ution int 2048 Scaling table {TexelDensity double 1024 Mode int 2 } LayoutScalingMode int 2 MaxMutat
#ZOMPROPERTIES_04 ions int 1 } } IsTile bool false PolyIDs ints { } } Maps table {Pin table {PrimType string "Vertex" 
#ZOMPROPERTIES_04 Size int 1 DefaultValue double 0 ScaleType string "Normalized" MergeMode string "Max" MinValue doubl
#ZOMPROPERTIES_04 e 0 MaxValue double 1 Data doubles { r 442 0 } } Density table {PrimType string "Polygon" Size int 1
#ZOMPROPERTIES_04  DefaultValue double 1 ScaleType string "Log" MergeMode string "Average" MinValue double 0.1 MaxValu
#ZOMPROPERTIES_04 e double 4 Data doubles { r 384 1 } } Protect table {PrimType string "Vertex" Size int 1 DefaultValu
#ZOMPROPERTIES_04 e double 0 ScaleType string "Normalized" MergeMode string "Average" MinValue double -1 MaxValue doub
#ZOMPROPERTIES_04 le 1 Data doubles { r 442 0 } } } } }
#ZOMPROPERTIES_04}


#ZOMSCENE_01{
#ZOMSCENE_01 CScene {Settings table {AxisSystem table {UpVector string "y" } Unit string "cm" TexelDensityDisplay
#ZOMSCENE_01 Unit string "tx/cm" } Root table {} }
#ZOMSCENE_01}

#begin 0 fatal error vertex (that RizomUV cannot handle)
#end 0 fatal error vertex (that RizomUV cannot handle)

#begin 0 error vertex
#end 0 error vertex
