#File written by RizomUV 2023.0.70.ge90189e8. Compilation :Sep 22 2023,12:42:11
mtllib Fiesta ventana.mtl
#begin vertices
v 45.88482 0.111739 -11.38658
v 47.53881 0.111739 -11.38658
v 49.1928 0.111739 -11.38658
v 50.84679 0.111739 -11.38658
v 52.50078 0.111739 -11.38658
v 54.15478 0.111739 -11.38658
v 55.79192 0.111739 -11.38658
v 45.88482 9.311736 -11.38658
v 45.88482 0.756407 -11.38658
v 47.53881 0.756407 -11.38658
v 47.53881 9.311736 -11.38658
v 49.1928 0.756407 -11.38658
v 49.1928 9.311736 -11.38658
v 50.84679 0.756407 -11.38658
v 50.84679 9.311736 -11.38658
v 52.50078 0.756407 -11.38658
v 52.50078 9.311736 -11.38658
v 54.15478 0.756407 -11.38658
v 54.15478 9.311736 -11.38658
v 45.88482 0.756407 -11.38658
v 45.88482 0.111739 -11.38658
v 55.79192 0.111739 -11.38658
v 47.53881 0.111739 -11.38658
v 49.1928 0.111739 -11.38658
v 50.84679 0.111739 -11.38658
v 52.50078 0.111739 -11.38658
v 54.15478 0.111739 -11.38658
v 47.53881 9.311736 -11.38658
v 49.1928 9.311736 -11.38658
v 50.84679 9.311736 -11.38658
v 52.50078 9.311736 -11.38658
v 54.15478 9.311736 -11.38658
v 45.88482 9.311736 -11.38658
v 47.53881 0.756407 -11.38658
v 49.1928 0.756407 -11.38658
v 50.84679 0.756407 -11.38658
v 52.50078 0.756407 -11.38658
v 54.15478 0.756407 -11.38658
v 45.88482 8.297667 -11.38658
v 45.88482 2.808146 -11.38658
v 45.88482 0.111739 -11.29246
v 45.88482 0.756407 -11.29246
v 47.53881 2.808146 -11.38658
v 47.53881 8.297667 -11.38658
v 49.1928 2.808146 -11.38658
v 49.1928 8.297667 -11.38658
v 50.84679 2.808146 -11.38658
v 50.84679 8.297667 -11.38658
v 52.50078 2.808146 -11.38658
v 52.50078 8.297667 -11.38658
v 54.15478 2.808146 -11.38658
v 54.15478 8.297667 -11.38658
v 55.79192 2.808146 -11.38658
v 55.79194 8.297667 -11.38658
v 47.53881 2.808146 -11.38658
v 47.53881 8.297667 -11.38658
v 49.1928 2.808146 -11.38658
v 49.1928 8.297667 -11.38658
v 50.84679 2.808146 -11.38658
v 50.84679 8.297667 -11.38658
v 52.50078 2.808146 -11.38658
v 52.50078 8.297667 -11.38658
v 54.15478 2.808146 -11.38658
v 54.15478 8.297667 -11.38658
v 55.79192 2.808146 -11.38658
v 55.79194 8.297667 -11.38658
v 47.53881 0.111739 -11.29246
v 49.1928 0.111739 -11.29246
v 50.84679 0.111739 -11.29246
v 52.50078 0.111739 -11.29246
v 54.15478 0.111739 -11.29246
v 55.79192 0.111739 -11.29246
v 47.57668 9.288516 -11.29246
v 49.15493 9.288516 -11.29246
v 50.88467 9.288516 -11.29246
v 52.46291 9.288516 -11.29246
v 54.19265 9.288516 -11.29246
v 55.79194 9.288516 -11.29246
v 45.88482 9.311736 -11.29246
v 47.57668 0.803387 -11.29246
v 47.57668 8.320887 -11.29246
v 49.15493 0.803387 -11.29246
v 49.15493 8.320887 -11.29246
v 50.88467 0.803387 -11.29246
v 50.88467 8.320887 -11.29246
v 52.46291 0.803387 -11.29246
v 52.46291 8.320887 -11.29246
v 54.19265 0.803387 -11.29246
v 54.19265 8.320887 -11.29246
v 55.79192 0.803387 -11.29246
v 55.79194 8.320887 -11.29246
v 47.57668 2.761165 -11.29246
v 49.15493 2.761165 -11.29246
v 50.88467 2.761165 -11.29246
v 52.46291 2.761165 -11.29246
v 54.19265 2.761165 -11.29246
v 55.79192 2.761165 -11.29246
v 52.50078 9.956404 -11.17512
v 47.53881 9.956404 -11.17512
v 45.88482 9.956404 -11.17512
v 50.84679 9.956404 -11.17512
v 45.88482 0.111739 -11.17512
v 49.1928 9.956404 -11.17512
v 47.53881 0.111739 -11.17512
v 49.1928 0.111739 -11.17512
v 54.15478 9.956404 -11.17512
v 55.79194 9.956404 -11.17512
v 54.15478 0.111739 -11.17512
v 55.79192 0.111739 -11.17512
v 52.50078 0.111739 -11.17512
v 50.84679 0.111739 -11.17512
v 46.01568 8.186396 -11.58939
v 46.01568 2.919416 -11.58939
v 47.53881 2.919416 -11.58939
v 47.53881 2.919416 -11.58939
v 49.1928 2.919416 -11.58939
v 49.1928 2.919416 -11.58939
v 50.84679 2.919416 -11.58939
v 50.84679 2.919416 -11.58939
v 52.50078 2.919416 -11.58939
v 52.50078 2.919416 -11.58939
v 54.15478 2.919416 -11.58939
v 54.15478 2.919416 -11.58939
v 55.67791 2.919416 -11.58939
v 55.67791 8.186396 -11.58939
v 54.15478 8.186396 -11.58939
v 54.15478 8.186396 -11.58939
v 52.50078 8.186396 -11.58939
v 52.50078 8.186396 -11.58939
v 50.84679 8.186396 -11.58939
v 50.84679 8.186396 -11.58939
v 49.1928 8.186396 -11.58939
v 49.1928 8.186396 -11.58939
v 47.53881 8.186396 -11.58939
v 47.53881 8.186396 -11.58939
v 47.53881 3.024111 -11.58939
v 47.53881 3.024111 -11.58939
v 49.1928 3.024111 -11.58939
v 49.1928 3.024111 -11.58939
v 50.84679 3.024111 -11.58939
v 50.84679 3.024111 -11.58939
v 52.50078 3.024111 -11.58939
v 52.50078 3.024111 -11.58939
v 54.15478 3.024111 -11.58939
v 54.15478 3.024111 -11.58939
v 55.55478 3.024111 -11.58939
v 55.55478 8.081701 -11.58939
v 54.15478 8.081701 -11.58939
v 54.15478 8.081701 -11.58939
v 52.50078 8.081701 -11.58939
v 52.50078 8.081701 -11.58939
v 50.84679 8.081701 -11.58939
v 50.84679 8.081701 -11.58939
v 49.1928 8.081701 -11.58939
v 49.1928 8.081701 -11.58939
v 47.53881 8.081701 -11.58939
v 47.53881 8.081701 -11.58939
v 46.1388 8.081701 -11.58939
v 46.1388 3.024111 -11.58939
v 47.53881 3.024111 -11.8641
v 47.53881 3.024111 -11.8641
v 46.1388 3.024111 -11.8641
v 49.1928 3.024111 -11.8641
v 49.1928 3.024111 -11.8641
v 50.84679 3.024111 -11.8641
v 50.84679 3.024111 -11.8641
v 52.50078 3.024111 -11.8641
v 52.50078 3.024111 -11.8641
v 54.15478 3.024111 -11.8641
v 54.15478 3.024111 -11.8641
v 55.55478 3.024111 -11.8641
v 55.55478 8.081701 -11.8641
v 54.15478 8.081701 -11.8641
v 54.15478 8.081701 -11.8641
v 52.50078 8.081701 -11.8641
v 52.50078 8.081701 -11.8641
v 50.84679 8.081701 -11.8641
v 50.84679 8.081701 -11.8641
v 49.1928 8.081701 -11.8641
v 49.1928 8.081701 -11.8641
v 47.53881 8.081701 -11.8641
v 47.53881 8.081701 -11.8641
v 46.1388 8.081701 -11.8641
v 50.29546 9.311736 -11.38658
v 49.74413 9.311736 -11.38658
v 50.29546 9.311736 -11.38658
v 49.74413 9.311736 -11.38658
v 50.29546 8.297667 -11.38658
v 49.74413 8.297667 -11.38658
v 50.30809 9.288516 -11.29246
v 49.73151 9.288516 -11.29246
v 50.29546 9.956404 -11.17512
v 49.74413 9.956404 -11.17512
v 50.29546 8.186396 -11.58939
v 49.74413 8.186396 -11.58939
v 50.29546 8.081701 -11.58939
v 49.74413 8.081701 -11.58939
v 50.29546 8.081701 -11.8641
v 49.74413 8.081701 -11.8641
v 49.74413 0.111739 -11.38658
v 50.29546 0.111739 -11.38658
v 50.29546 0.756407 -11.38658
v 49.74413 0.756407 -11.38658
v 49.74413 0.111739 -11.38658
v 50.29546 0.111739 -11.38658
v 50.29546 0.756407 -11.38658
v 49.74413 0.756407 -11.38658
v 49.74413 0.111739 -11.29246
v 50.29546 0.111739 -11.29246
v 50.29546 2.808146 -11.38658
v 49.74413 2.808146 -11.38658
v 50.30809 0.803387 -11.29246
v 49.73151 0.803387 -11.29246
v 49.74413 0.111739 -11.17512
v 50.29546 0.111739 -11.17512
v 50.29546 2.919416 -11.58939
v 49.74413 2.919416 -11.58939
v 50.29546 3.024111 -11.58939
v 49.74413 3.024111 -11.58939
v 50.29546 3.024111 -11.8641
v 49.74413 3.024111 -11.8641
v 53.05212 0.111739 -11.38658
v 53.60345 0.111739 -11.38658
v 53.60345 0.756407 -11.38658
v 53.05212 0.756407 -11.38658
v 53.05212 0.111739 -11.38658
v 53.60345 0.111739 -11.38658
v 53.60345 0.756407 -11.38658
v 53.05212 0.756407 -11.38658
v 53.05212 0.111739 -11.29246
v 53.60345 0.111739 -11.29246
v 53.60345 2.808146 -11.38658
v 53.05212 2.808146 -11.38658
v 53.61607 0.803387 -11.29246
v 53.03949 0.803387 -11.29246
v 53.05212 0.111739 -11.17512
v 53.60345 0.111739 -11.17512
v 53.60345 2.919416 -11.58939
v 53.05212 2.919416 -11.58939
v 53.60345 3.024111 -11.58939
v 53.05212 3.024111 -11.58939
v 53.60345 3.024111 -11.8641
v 53.05212 3.024111 -11.8641
v 53.60345 9.311736 -11.38658
v 53.05212 9.311736 -11.38658
v 53.60345 9.311736 -11.38658
v 53.05212 9.311736 -11.38658
v 53.60345 8.297667 -11.38658
v 53.05212 8.297667 -11.38658
v 53.61607 9.288516 -11.29246
v 53.03949 9.288516 -11.29246
v 53.60345 9.956404 -11.17512
v 53.05212 9.956404 -11.17512
v 53.60345 8.186396 -11.58939
v 53.05212 8.186396 -11.58939
v 53.60345 8.081701 -11.58939
v 53.05212 8.081701 -11.58939
v 53.60345 8.081701 -11.8641
v 53.05212 8.081701 -11.8641
v 50.26722 9.259796 -11.28147
v 49.77237 9.259796 -11.28147
v 50.26722 8.349606 -11.28147
v 49.77237 8.349606 -11.28147
v 50.26722 0.861495 -11.28147
v 49.77237 0.861495 -11.28147
v 50.26722 2.703058 -11.28147
v 49.77237 2.703058 -11.28147
v 53.57521 0.861495 -11.28147
v 53.08035 0.861495 -11.28147
v 53.57521 2.703058 -11.28147
v 53.08035 2.703058 -11.28147
v 53.57521 9.259796 -11.28147
v 53.08035 9.259796 -11.28147
v 53.57521 8.349606 -11.28147
v 53.08035 8.349606 -11.28147
v 52.46614 9.345335 -11.17512
v 52.46291 9.288516 -11.23194
v 52.46386 9.305159 -11.19176
v 50.88144 9.345336 -11.17512
v 50.88467 9.288516 -11.23194
v 50.88372 9.305158 -11.19176
v 45.88482 0.69965 -11.17512
v 45.88482 0.756407 -11.23194
v 45.88482 0.739783 -11.19176
v 49.15815 9.345341 -11.17512
v 49.15493 9.288516 -11.23194
v 49.15587 9.305161 -11.19176
v 47.57346 9.345343 -11.17512
v 47.57668 9.288516 -11.23194
v 47.57574 9.30516 -11.19176
v 54.18943 9.345335 -11.17512
v 54.19265 9.288516 -11.23194
v 54.1917 9.305159 -11.19176
v 55.79194 9.345335 -11.17512
v 55.79194 9.288516 -11.23194
v 55.79194 9.305159 -11.19176
v 45.88482 9.311736 -11.23194
v 45.88482 9.368521 -11.17512
v 45.88482 9.328369 -11.19176
v 47.57668 0.803387 -11.23194
v 47.57357 0.746547 -11.17512
v 47.57577 0.786739 -11.19176
v 49.15493 0.803387 -11.23194
v 49.15804 0.746552 -11.17512
v 49.15584 0.786741 -11.19176
v 50.88467 0.803387 -11.23194
v 50.88155 0.746562 -11.17512
v 50.88376 0.786743 -11.19176
v 52.46291 0.803387 -11.23194
v 52.46603 0.746564 -11.17512
v 52.46382 0.786744 -11.19176
v 54.19265 0.803387 -11.23194
v 54.18954 0.746566 -11.17512
v 54.19174 0.786745 -11.19176
v 55.79192 0.803387 -11.23194
v 55.79192 0.746567 -11.17512
v 55.79192 0.786745 -11.19176
v 50.30701 9.345337 -11.17512
v 50.30809 9.288516 -11.23194
v 50.30777 9.305159 -11.19176
v 49.73151 9.288516 -11.23194
v 49.73258 9.345339 -11.17512
v 49.73182 9.305159 -11.19176
v 50.30809 0.803387 -11.23194
v 50.30705 0.74656 -11.17512
v 50.30779 0.786743 -11.19176
v 49.73254 0.746557 -11.17512
v 49.73151 0.803387 -11.23194
v 49.73181 0.786742 -11.19176
v 53.61607 0.803387 -11.23194
v 53.61503 0.746566 -11.17512
v 53.61577 0.786745 -11.19176
v 53.04053 0.746565 -11.17512
v 53.03949 0.803387 -11.23194
v 53.03979 0.786744 -11.19176
v 53.61499 9.345335 -11.17512
v 53.61607 9.288516 -11.23194
v 53.61575 9.305159 -11.19176
v 53.03949 9.288516 -11.23194
v 53.04057 9.345335 -11.17512
v 53.03981 9.305159 -11.19176
v 47.53881 2.919416 -11.44688
v 47.53881 2.860433 -11.38658
v 47.53881 2.90214 -11.40424
v 47.53881 2.85997 -11.38658
v 47.53881 2.919416 -11.447
v 47.53881 2.902005 -11.40428
v 49.1928 2.859779 -11.38658
v 49.1928 2.919416 -11.44699
v 49.1928 2.901949 -11.40428
v 49.1928 2.859715 -11.38658
v 49.1928 2.919416 -11.44687
v 49.1928 2.90193 -11.40424
v 50.84679 2.919416 -11.44683
v 50.84679 2.859562 -11.38658
v 50.84679 2.901886 -11.40423
v 50.84679 2.859474 -11.38658
v 50.84679 2.919416 -11.44692
v 50.84679 2.90186 -11.40426
v 52.50078 2.859529 -11.38658
v 52.50078 2.919416 -11.44689
v 52.50078 2.901876 -11.40425
v 52.50078 2.85977 -11.38658
v 52.50078 2.919416 -11.44673
v 52.50078 2.901946 -11.4042
v 54.15478 2.919416 -11.44653
v 54.15478 2.860404 -11.38658
v 54.15478 2.902132 -11.40414
v 54.15478 2.860791 -11.38658
v 54.15478 2.919416 -11.44649
v 54.15478 2.902245 -11.40413
v 55.74626 2.861297 -11.38658
v 55.67791 2.919416 -11.44634
v 55.69793 2.902393 -11.40409
v 55.74626 8.244515 -11.38658
v 55.67791 8.186396 -11.44634
v 55.69793 8.203419 -11.40409
v 54.15478 8.24502 -11.38658
v 54.15478 8.186396 -11.44649
v 54.15478 8.203568 -11.40413
v 54.15478 8.245409 -11.38658
v 54.15478 8.186396 -11.44653
v 54.15478 8.203681 -11.40414
v 52.50078 8.246042 -11.38658
v 52.50078 8.186396 -11.44673
v 52.50078 8.203866 -11.4042
v 52.50078 8.246284 -11.38658
v 52.50078 8.186396 -11.44689
v 52.50078 8.203938 -11.40425
v 50.84679 8.246338 -11.38658
v 50.84679 8.186396 -11.44692
v 50.84679 8.203952 -11.40426
v 50.84679 8.246249 -11.38658
v 50.84679 8.186396 -11.44683
v 50.84679 8.203927 -11.40423
v 49.1928 8.246096 -11.38658
v 49.1928 8.186396 -11.44687
v 49.1928 8.203882 -11.40424
v 49.1928 8.246034 -11.38658
v 49.1928 8.186396 -11.44699
v 49.1928 8.203864 -11.40428
v 47.53881 8.245842 -11.38658
v 47.53881 8.186396 -11.447
v 47.53881 8.203808 -11.40428
v 47.53881 8.245379 -11.38658
v 47.53881 8.186396 -11.44688
v 47.53881 8.203671 -11.40424
v 46.01568 8.186396 -11.4467
v 45.94694 8.244843 -11.38658
v 45.99555 8.203514 -11.40419
v 45.94694 2.860969 -11.38658
v 46.01568 2.919416 -11.4467
v 45.99555 2.902298 -11.40419
v 50.29546 8.246056 -11.38658
v 50.29546 8.186396 -11.44666
v 50.29546 8.203871 -11.40418
v 49.74413 8.186396 -11.44668
v 49.74413 8.246006 -11.38658
v 49.74413 8.203856 -11.40418
v 50.29546 2.919416 -11.44666
v 50.29546 2.859757 -11.38658
v 50.29546 2.901942 -11.40418
v 49.74413 2.859807 -11.38658
v 49.74413 2.919416 -11.44668
v 49.74413 2.901957 -11.40418
v 53.60345 2.919416 -11.44643
v 53.60345 2.860299 -11.38658
v 53.60345 2.902101 -11.40411
v 53.05212 2.860094 -11.38658
v 53.05212 2.919416 -11.4465
v 53.05212 2.902041 -11.40413
v 53.60345 8.245512 -11.38658
v 53.60345 8.186396 -11.44643
v 53.60345 8.203711 -11.40411
v 53.05212 8.186396 -11.4465
v 53.05212 8.245718 -11.38658
v 53.05212 8.203772 -11.40413
v 55.79194 9.288516 -11.41698
v 47.53881 3.024111 -11.8641
v 47.53881 3.024111 -11.8641
v 46.1388 3.024111 -11.8641
v 49.1928 3.024111 -11.8641
v 49.1928 3.024111 -11.8641
v 50.84679 3.024111 -11.8641
v 50.84679 3.024111 -11.8641
v 52.50079 3.024111 -11.8641
v 52.50079 3.024111 -11.8641
v 54.15478 3.024111 -11.8641
v 54.15478 3.024111 -11.8641
v 55.55478 3.024111 -11.8641
v 55.55478 8.081702 -11.8641
v 54.15478 8.081702 -11.8641
v 54.15478 8.081702 -11.8641
v 52.50079 8.081702 -11.8641
v 52.50079 8.081702 -11.8641
v 50.84679 8.081702 -11.8641
v 50.84679 8.081702 -11.8641
v 49.1928 8.081702 -11.8641
v 49.1928 8.081702 -11.8641
v 47.53881 8.081702 -11.8641
v 47.53881 8.081702 -11.8641
v 46.1388 8.081702 -11.8641
v 49.76165 2.980113 -11.63089
v 49.76165 8.095801 -11.63089
v 49.76165 2.980113 -11.71192
v 49.76165 8.095801 -11.71192
v 49.95736 2.980113 -11.63089
v 49.95736 8.095801 -11.63089
v 49.95736 2.980113 -11.71192
v 49.95736 8.095801 -11.71192
v 53.16822 2.980113 -11.63089
v 53.16822 8.095801 -11.63089
v 53.16822 2.980113 -11.71192
v 53.16822 8.095801 -11.71192
v 53.36393 2.980113 -11.63089
v 53.36393 8.095801 -11.63089
v 53.36393 2.980113 -11.71192
v 53.36393 8.095801 -11.71192
v 55.62968 6.541785 -11.63089
v 46.07352 6.541786 -11.63089
v 55.62968 6.541785 -11.71192
v 46.07352 6.541786 -11.71192
v 55.62968 6.737505 -11.63089
v 46.07352 6.737506 -11.63089
v 55.62968 6.737505 -11.71192
v 46.07352 6.737506 -11.71192
v 55.62968 4.529297 -11.63089
v 46.07352 4.529298 -11.63089
v 55.62968 4.529297 -11.71192
v 46.07352 4.529298 -11.71192
v 55.62968 4.725017 -11.63089
v 46.07352 4.725018 -11.63089
v 55.62968 4.725017 -11.71192
v 46.07352 4.725018 -11.71192
#end vertices

#begin 709 textures vertices 
vt 0.6755528 0.6771718 0
vt 0.6914756 0.6038399 0
vt 0.7252578 0.5361383 0
vt 0.7615168 0.4719055 0
vt 0.7980042 0.408524 0
vt 0.834273 0.3450254 0
vt 0.8703452 0.2822345 0
vt 0.9588468 0.7286005 0
vt 0.7220957 0.6899711 0
vt 0.7353634 0.6208504 0
vt 0.915828 0.7882676 0
vt 0.5955172 0.1826834 0
vt 0.8721969 0.8407036 0
vt 0.623126 0.1907231 0
vt 0.8752347 0.858801 0
vt 0.6607145 0.2113441 0
vt 0.7528747 0.9316508 0
vt 0.7099885 0.174183 0
vt 0.6816173 0.9132017 0
vt 0.7220915 0.6899667 0
vt 0.6755584 0.6771704 0
vt 0.8703461 0.2822351 0
vt 0.6914871 0.6038374 0
vt 0.7252644 0.5361374 0
vt 0.7615173 0.4719058 0
vt 0.7980053 0.4085249 0
vt 0.8342732 0.3450265 0
vt 0.5171587 0.801832 0
vt 0.8721973 0.8407037 0
vt 0.8752341 0.8588009 0
vt 0.7468289 0.756627 0
vt 0.8195818 0.7690665 0
vt 0.9516763 0.7257853 0
vt 0.00390625 0.03996414 0
vt 0.5955145 0.18268 0
vt 0.6231297 0.1907231 0
vt 0.6607113 0.2113458 0
vt 0.7099909 0.174179 0
vt 0.9349745 0.2310794 0
vt 0.8177379 0.7001182 0
vt 0.6795785 0.6783152 0
vt 0.7176328 0.6889139 0
vt 0.8201793 0.6262445 0
vt 0.9524025 0.8146004 0
vt 0.5040396 0.1789086 0
vt 0.9055019 0.8711202 0
vt 0.5653779 0.2653585 0
vt 0.8452706 0.891903 0
vt 0.6559187 0.3012155 0
vt 0.7956695 0.9468584 0
vt 0.7938396 0.2074215 0
vt 0.6653242 0.95527 0
vt 0.05976443 0.3298896 0
vt 0.0154302 0.5675415 0
vt 0.0782583 0.0913106 0
vt 0.5058201 0.7578557 0
vt 0.504035 0.1789044 0
vt 0.9055024 0.87112 0
vt 0.9140818 0.3666539 0
vt 0.8452703 0.8919026 0
vt 0.655914 0.3012192 0
vt 0.7956745 0.9468554 0
vt 0.802903 0.1467988 0
vt 0.6653236 0.9552702 0
vt 0.05976167 0.3298844 0
vt 0.9090956 0.7617987 0
vt 0.6953338 0.605388 0
vt 0.7289365 0.5381021 0
vt 0.765121 0.4739882 0
vt 0.8016117 0.4106006 0
vt 0.8378822 0.3470976 0
vt 0.8739536 0.2843111 0
vt 0.5215522 0.8030476 0
vt 0.5900155 0.7754378 0
vt 0.6691756 0.7584249 0
vt 0.7427894 0.7585383 0
vt 0.8225767 0.772465 0
vt 0.8903535 0.8019345 0
vt 0.4579969 0.8466892 0
vt 0.2002941 0.4455799 0
vt 0.5097892 0.760386 0
vt 0.7632493 0.5585398 0
vt 0.5725557 0.7382546 0
vt 0.08034202 0.3859563 0
vt 0.6739378 0.7144305 0
vt 0.835282 0.4318518 0
vt 0.7404771 0.7174315 0
vt 0.9214398 0.00390625 0
vt 0.8459086 0.7341637 0
vt 0.9913721 0.01225605 0
vt 0.9056209 0.7642489 0
vt 0.07909449 0.08646031 0
vt 0.2961741 0.5009974 0
vt 0.5785361 0.1336811 0
vt 0.6357804 0.1730993 0
vt 0.9112183 0.08951522 0
vt 0.866673 0.1807436 0
vt 0.7422001 0.7926355 0
vt 0.5362779 0.8335926 0
vt 0.4759653 0.8735527 0
vt 0.6706347 0.7923725 0
vt 0.6846388 0.679759 0
vt 0.6023216 0.8072063 0
vt 0.7000972 0.6073119 0
vt 0.733517 0.5405395 0
vt 0.8110097 0.8049165 0
vt 0.8780174 0.8328977 0
vt 0.842383 0.3496799 0
vt 0.8784513 0.2868979 0
vt 0.8061085 0.4131873 0
vt 0.7696185 0.4765774 0
vt 0.4227294 0.8383666 0
vt 0.866539 0.003939614 0
vt 0.8306472 0.6202781 0
vt 0.8306471 0.6202773 0
vt 0.9434117 0.2986508 0
vt 0.9434112 0.2986511 0
vt 0.9034521 0.3599468 0
vt 0.9034519 0.3599474 0
vt 0.8642736 0.4211434 0
vt 0.8642737 0.421144 0
vt 0.8248222 0.4824934 0
vt 0.8248217 0.4824937 0
vt 0.7894578 0.5396043 0
vt 0.00390625 0.5604019 0
vt 0.07007792 0.7750052 0
vt 0.07007833 0.7750048 0
vt 0.1418754 0.7872267 0
vt 0.1418759 0.787227 0
vt 0.2135678 0.7997266 0
vt 0.2135683 0.7997268 0
vt 0.2853396 0.81244 0
vt 0.28534 0.8124397 0
vt 0.3568867 0.8254943 0
vt 0.3568869 0.8254949 0
vt 0.526556 0.05545985 0
vt 0.5265574 0.05545846 0
vt 0.5879908 0.01477709 0
vt 0.5879911 0.01477764 0
vt 0.6573217 0.0113946 0
vt 0.6573222 0.0113951 0
vt 0.7282519 0.01432665 0
vt 0.7282518 0.01432699 0
vt 0.7867248 0.05116918 0
vt 0.786726 0.05116973 0
vt 0.8450938 0.04529679 0
vt 0.9045644 0.2457032 0
vt 0.4907965 0.7551231 0
vt 0.4907961 0.7551237 0
vt 0.7846605 0.2992468 0
vt 0.7846604 0.299247 0
vt 0.7163868 0.3260486 0
vt 0.7163867 0.3260483 0
vt 0.6433598 0.3159163 0
vt 0.6433591 0.315916 0
vt 0.5688709 0.3005284 0
vt 0.5688705 0.300528 0
vt 0.5084389 0.3000175 0
vt 0.4696198 0.07557236 0
vt 0.2210415 0.3508008 0
vt 0.221041 0.3507997 0
vt 0.1847685 0.3909582 0
vt 0.2918964 0.3460977 0
vt 0.2918969 0.3460975 0
vt 0.3612344 0.3605414 0
vt 0.361235 0.3605411 0
vt 0.4289046 0.3886621 0
vt 0.4289049 0.3886626 0
vt 0.4801692 0.4300447 0
vt 0.4801697 0.4300448 0
vt 0.5039204 0.4852694 0
vt 0.5189851 0.7019821 0
vt 0.4832374 0.7453937 0
vt 0.4832373 0.7453938 0
vt 0.4146811 0.7652002 0
vt 0.414681 0.7652001 0
vt 0.3426751 0.7724786 0
vt 0.342675 0.7724784 0
vt 0.2876906 0.7291398 0
vt 0.2876907 0.7291393 0
vt 0.2374538 0.6729194 0
vt 0.2374535 0.6729192 0
vt 0.2074619 0.6196806 0
vt 0.8965295 0.870953 0
vt 0.8556706 0.8588085 0
vt 0.8965294 0.8709525 0
vt 0.6163206 0.7654302 0
vt 0.9297405 0.9056179 0
vt 0.8889803 0.8891907 0
vt 0.6423333 0.7642598 0
vt 0.616716 0.7697678 0
vt 0.6480715 0.796873 0
vt 0.6249577 0.8020283 0
vt 0.6921145 0.3314468 0
vt 0.666999 0.3269062 0
vt 0.316432 0.7731075 0
vt 0.6678436 0.3223323 0
vt 0.3234055 0.7627086 0
vt 0.3049503 0.7469104 0
vt 0.7372834 0.5145635 0
vt 0.7493381 0.4931762 0
vt 0.9945679 0.318331 0
vt 0.5953622 0.2075384 0
vt 0.7372838 0.5145638 0
vt 0.7493382 0.4931767 0
vt 0.6028113 0.1778484 0
vt 0.5953622 0.2075381 0
vt 0.7409192 0.5165922 0
vt 0.7529576 0.4952318 0
vt 0.9663565 0.4126115 0
vt 0.9401549 0.3258027 0
vt 0.7878671 0.5143601 0
vt 0.5956144 0.2049382 0
vt 0.7454549 0.519119 0
vt 0.7574718 0.4977939 0
vt 0.9163629 0.3393042 0
vt 0.6099795 0.00390625 0
vt 0.6333818 0.01002175 0
vt 0.3176244 0.3365916 0
vt 0.3392916 0.3524307 0
vt 0.3157988 0.348718 0
vt 0.8100775 0.3874016 0
vt 0.822153 0.3662221 0
vt 0.5470205 0.06486269 0
vt 0.6850716 0.2123184 0
vt 0.810078 0.387402 0
vt 0.8221532 0.3662226 0
vt 0.8643429 0.3903323 0
vt 0.6850714 0.2123179 0
vt 0.8136945 0.3894632 0
vt 0.8257693 0.3682834 0
vt 0.5612403 0.1622422 0
vt 0.8615977 0.4483768 0
vt 0.8605797 0.3875429 0
vt 0.8479472 0.409687 0
vt 0.8182007 0.3920347 0
vt 0.8302759 0.3708553 0
vt 0.8379126 0.4620238 0
vt 0.7515179 0.01903345 0
vt 0.7670742 0.0369571 0
vt 0.4567437 0.3872469 0
vt 0.4687114 0.4110333 0
vt 0.4507061 0.3977711 0
vt 0.7044701 0.922061 0
vt 0.7291871 0.9253398 0
vt 0.705503 0.919006 0
vt 0.7709333 0.7592749 0
vt 0.6938803 0.9625977 0
vt 0.08626986 0.02508856 0
vt 0.7954448 0.7679603 0
vt 0.7696576 0.7634403 0
vt 0.7884639 0.8004326 0
vt 0.7651035 0.7964293 0
vt 0.8343235 0.2911627 0
vt 0.8096939 0.2959189 0
vt 0.4655784 0.7646272 0
vt 0.8084963 0.2914718 0
vt 0.4622691 0.7524656 0
vt 0.4379757 0.7577508 0
vt 0.9019046 0.8707808 0
vt 0.9175174 0.8558679 0
vt 0.9301907 0.9001805 0
vt 0.9456656 0.8851892 0
vt 0.9883546 0.1108886 0
vt 0.9672852 0.1053216 0
vt 0.9634995 0.406082 0
vt 0.9465681 0.1837299 0
vt 0.02536877 0.06939437 0
vt 0.00390625 0.07317227 0
vt 0.03942795 0.1492656 0
vt 0.5363018 0.1598573 0
vt 0.0290635 0.02909041 0
vt 0.2180208 0.00390625 0
vt 0.06907319 0.0484395 0
vt 0.08036075 0.02738929 0
vt 0.7424547 0.7651612 0
vt 0.742584 0.7612524 0
vt 0.7424871 0.7632058 0
vt 0.6696817 0.7651275 0
vt 0.6694489 0.7611816 0
vt 0.669597 0.7631543 0
vt 0.710723 0.6872225 0
vt 0.7147874 0.6882068 0
vt 0.7127517 0.6877058 0
vt 0.5921891 0.781674 0
vt 0.5908402 0.7780181 0
vt 0.5914833 0.7798552 0
vt 0.5246926 0.8089186 0
vt 0.5229095 0.8054251 0
vt 0.5238332 0.8071568 0
vt 0.8204708 0.7789802 0
vt 0.8217633 0.775167 0
vt 0.8211443 0.777086 0
vt 0.8878037 0.8077184 0
vt 0.8892934 0.8042951 0
vt 0.8885445 0.8060027 0
vt 0.4595307 0.848862 0
vt 0.4616949 0.8520206 0
vt 0.4606201 0.8504362 0
vt 0.7293091 0.6171441 0
vt 0.7258932 0.6158667 0
vt 0.7276133 0.6164739 0
vt 0.7609126 0.5572382 0
vt 0.7576096 0.5552571 0
vt 0.7592493 0.5562704 0
vt 0.7981545 0.4910069 0
vt 0.794751 0.4892102 0
vt 0.7964672 0.4900837 0
vt 0.8329608 0.4305193 0
vt 0.8296935 0.4284854 0
vt 0.831313 0.4295271 0
vt 0.8709051 0.3641032 0
vt 0.8675007 0.3623093 0
vt 0.8692172 0.3631815 0
vt 0.9061264 0.3028006 0
vt 0.9027922 0.300884 0
vt 0.9044594 0.3018423 0
vt 0.6436243 0.7705013 0
vt 0.6429008 0.766806 0
vt 0.6432768 0.7686492 0
vt 0.6172438 0.7723251 0
vt 0.6180822 0.7759919 0
vt 0.6176491 0.77416 0
vt 0.78554 0.513039 0
vt 0.7821724 0.5111802 0
vt 0.7838612 0.5121014 0
vt 0.7697878 0.5332131 0
vt 0.7731264 0.5351285 0
vt 0.7714529 0.534179 0
vt 0.8582556 0.3862158 0
vt 0.8548936 0.3843479 0
vt 0.8565794 0.3852738 0
vt 0.8423059 0.406414 0
vt 0.8456228 0.4083607 0
vt 0.8439597 0.4073957 0
vt 0.7942954 0.7742469 0
vt 0.7950169 0.7705396 0
vt 0.7946715 0.7723947 0
vt 0.769176 0.766 0
vt 0.7685691 0.7697105 0
vt 0.768859 0.7678512 0
vt 0.8254207 0.6233806 0
vt 0.8221004 0.6252453 0
vt 0.8237467 0.6243288 0
vt 0.8220834 0.625254 0
vt 0.9895679 0.2420423 0
vt 0.8237423 0.6243261 0
vt 0.9519064 0.3045042 0
vt 0.9485306 0.3022735 0
vt 0.9502119 0.3034153 0
vt 0.9519087 0.3045059 0
vt 0.9485345 0.3022771 0
vt 0.9502133 0.3034166 0
vt 0.9087925 0.3632228 0
vt 0.9122028 0.3653963 0
vt 0.910501 0.364313 0
vt 0.912206 0.3653986 0
vt 0.9087887 0.3632213 0
vt 0.9105002 0.3643143 0
vt 0.8729029 0.4268162 0
vt 0.8694975 0.4246239 0
vt 0.8712072 0.4257183 0
vt 0.8728938 0.4268107 0
vt 0.8695035 0.4246285 0
vt 0.8712044 0.4257203 0
vt 0.8301219 0.4858932 0
vt 0.8335134 0.4880368 0
vt 0.831826 0.4869729 0
vt 0.8334986 0.4880283 0
vt 0.8301227 0.4858943 0
vt 0.8318209 0.4869734 0
vt 0.7966234 0.5475545 0
vt 0.7948199 0.5429094 0
vt 0.7960672 0.5447108 0
vt 0.01387896 0.5648662 0
vt 0.01009905 0.5615573 0
vt 0.01198559 0.5626719 0
vt 0.6644837 0.9574567 0
vt 0.07108628 0.7687931 0
vt 0.1625124 0.007930866 0
vt 0.6644901 0.9574406 0
vt 0.07108644 0.7687944 0
vt 0.07144471 0.7668105 0
vt 0.7406696 0.9774482 0
vt 0.1428962 0.781033 0
vt 0.740146 0.9794123 0
vt 0.7974765 0.9482698 0
vt 0.1428955 0.7810407 0
vt 0.7990897 0.9495255 0
vt 0.8465281 0.8937738 0
vt 0.2146965 0.7935527 0
vt 0.84767 0.8953898 0
vt 0.8465304 0.893777 0
vt 0.2146979 0.793549 0
vt 0.215044 0.7915509 0
vt 0.9072424 0.8726179 0
vt 0.2863824 0.8062579 0
vt 0.9087849 0.8739474 0
vt 0.9072446 0.8726196 0
vt 0.2863821 0.8062631 0
vt 0.9087869 0.8739472 0
vt 0.9542206 0.8160164 0
vt 0.3581062 0.8193397 0
vt 0.9558152 0.8172688 0
vt 0.9542368 0.816029 0
vt 0.3581074 0.8193353 0
vt 0.3584641 0.8173415 0
vt 0.423926 0.8321987 0
vt 0.9957392 0.7585919 0
vt 0.9382668 0.225469 0
vt 0.8202908 0.6971713 0
vt 0.824546 0.6937379 0
vt 0.8584301 0.006088405 0
vt 0.8703932 0.9046297 0
vt 0.2385697 0.79798 0
vt 0.8708512 0.9065154 0
vt 0.2624478 0.8022464 0
vt 0.8905486 0.8908438 0
vt 0.8919295 0.8923135 0
vt 0.9216848 0.3426778 0
vt 0.9250919 0.3448532 0
vt 0.9233932 0.3437678 0
vt 0.9382587 0.3245455 0
vt 0.9348918 0.3223106 0
vt 0.9365802 0.3234319 0
vt 0.8432059 0.4654201 0
vt 0.846578 0.4675785 0
vt 0.8448992 0.4665042 0
vt 0.8596713 0.4471377 0
vt 0.8562862 0.4449611 0
vt 0.8579852 0.4460527 0
vt 0.6873723 0.9662657 0
vt 0.09505682 0.7728119 0
vt 0.6866511 0.9681474 0
vt 0.118972 0.7770114 0
vt 0.7169754 0.9711461 0
vt 0.7164546 0.9730999 0
vt 0.8959278 0.8035028 0
vt 0.05965167 0.1546146 0
vt 0.05965664 0.1546178 0
vt 0.00390625 0.1809402 0
vt 0.1255277 0.1235185 0
vt 0.1255329 0.1235164 0
vt 0.1913959 0.09241336 0
vt 0.1914013 0.09241545 0
vt 0.2572652 0.06132044 0
vt 0.2572691 0.06132482 0
vt 0.3231419 0.03022999 0
vt 0.3231474 0.0302296 0
vt 0.3788946 0.00390625 0
vt 0.4739696 0.2052795 0
vt 0.4181951 0.2316563 0
vt 0.4182501 0.2316833 0
vt 0.3523824 0.2627819 0
vt 0.3523879 0.2627829 0
vt 0.2865177 0.2938699 0
vt 0.2865172 0.2938758 0
vt 0.2206434 0.3249695 0
vt 0.2206438 0.3249752 0
vt 0.1547763 0.3560656 0
vt 0.1547819 0.3560665 0
vt 0.09903649 0.3823289 0
vt 0.6480585 0.02819553 0
vt 0.1963664 0.4127659 0
vt 0.4216521 0.4091973 0
vt 0.1963664 0.4091973 0
vt 0.6541531 0.02210096 0
vt 0.8134541 0.181402 0
vt 0.6566764 0.01957758 0
vt 0.8159775 0.1788786 0
vt 0.6087809 0.02605924 0
vt 0.1963664 0.4013418 0
vt 0.4216521 0.3977732 0
vt 0.1963664 0.3977732 0
vt 0.6148755 0.01996467 0
vt 0.7741766 0.1792657 0
vt 0.6173989 0.0174413 0
vt 0.7766999 0.1767424 0
vt 0.7267116 0.4036496 0
vt 0.3203694 0.2941548 0
vt 0.7276401 0.4002039 0
vt 0.3212979 0.2907091 0
vt 0.4111769 0.8140511 0
vt 0.3181269 0.3024771 0
vt 0.4102484 0.8174969 0
vt 0.00390625 0.7080021 0
vt 0.7581337 0.3885297 0
vt 0.3517915 0.2790349 0
vt 0.7590622 0.3850839 0
vt 0.35272 0.2755892 0
vt 0.6939755 0.4147401 0
vt 0.3495489 0.2873572 0
vt 0.693047 0.4181858 0
vt 0.2867048 0.308691 0
vt 0.2169869 0.3392548 0
vt 0.1727998 0.3900336 0
vt 0.2169893 0.3392541 0
vt 0.2786865 0.7375843 0
vt 0.3424984 0.3406199 0
vt 0.2927871 0.3336796 0
vt 0.2786867 0.7375836 0
vt 0.6100336 0.008464207 0
vt 0.2927878 0.3336795 0
vt 0.3663406 0.3492191 0
vt 0.3663412 0.3492189 0
vt 0.4336626 0.3773739 0
vt 0.4336629 0.3773743 0
vt 0.7489412 0.02296003 0
vt 0.4776481 0.4027828 0
vt 0.4414319 0.7695414 0
vt 0.4914064 0.4247718 0
vt 0.4914068 0.424772 0
vt 0.5157963 0.4823146 0
vt 0.5309848 0.7037039 0
vt 0.8516839 0.2739343 0
vt 0.8516838 0.2739349 0
vt 0.8325947 0.2867951 0
vt 0.4176376 0.7769982 0
vt 0.4176374 0.7769983 0
vt 0.3420934 0.7845639 0
vt 0.342093 0.7845634 0
vt 0.6924195 0.3268704 0
vt 0.2966321 0.75603 0
vt 0.2280159 0.6806294 0
vt 0.2280157 0.6806288 0
vt 0.1954946 0.6224531 0
vt 0.5243867 0.05138422 0
vt 0.9296497 0.3188231 0
vt 0.4634539 0.07221319 0
vt 0.5243866 0.05138412 0
vt 0.5858687 0.01062475 0
vt 0.5858697 0.01062464 0
vt 0.6340425 0.005389886 0
vt 0.657542 0.006771399 0
vt 0.6575422 0.006771306 0
vt 0.729096 0.009783898 0
vt 0.7290965 0.009784532 0
vt 0.850983 0.4415508 0
vt 0.7701396 0.0335492 0
vt 0.787925 0.04668952 0
vt 0.7879234 0.04668923 0
vt 0.8492121 0.03975092 0
vt 0.9110264 0.2480603 0
vt 0.09398824 0.779011 0
vt 0.8548734 0.2771836 0
vt 0.9367498 0.2279579 0
vt 0.8548733 0.2771841 0
vt 0.7867475 0.3034036 0
vt 0.7867472 0.3034034 0
vt 0.2374342 0.804166 0
vt 0.7178892 0.3304618 0
vt 0.2613816 0.8084422 0
vt 0.7178886 0.3304623 0
vt 0.6424579 0.3204822 0
vt 0.642458 0.3204817 0
vt 0.5684046 0.3051621 0
vt 0.5684046 0.3051616 0
vt 0.5036551 0.3051529 0
vt 0.9516814 0.7257829 0
vt 0.9177191 0.8503042 0
vt 0.5740392 0.7337151 0
vt 0.6409076 0.7601428 0
vt 0.665079 0.7565452 0
vt 0.5929882 0.772112 0
vt 0.9524042 0.8146061 0
vt 0.9158181 0.788271 0
vt 0.4555984 0.8432445 0
vt 0.9177195 0.8503042 0
vt 0.8698412 0.9026109 0
vt 0.9513303 0.8851326 0
vt 0.671195 0.7106087 0
vt 0.4251811 0.8303877 0
vt 0.07034453 0.05411707 0
vt 0.8450731 0.7295431 0
vt 0.09424467 0.03134396 0
vt 0.7055029 0.9190065 0
vt 0.7956517 0.7636073 0
vt 0.7435207 0.7137502 0
vt 0.7291876 0.9253395 0
vt 0.7528796 0.9316482 0
vt 0.681617 0.9132008 0
vt 0.9458601 0.2219034 0
vt 0.9399554 0.2240522 0
vt 0.9954482 0.754977 0
vt 0.1179007 0.783217 0
vt 0.09701601 0.03273388 0
vt 0.004970971 0.7576113 0
vt 0.01542723 0.5675361 0
vt 0.00390625 0.7638243 0
vt 0.09974795 0.0337365 0
vt 0.02354504 0.03100175 0
vt 0.1193151 0.7750241 0
vt 0.004441018 0.7554871 0
vt 0.1432589 0.7790417 0
vt 0.09540053 0.7708281 0
vt 0.1432552 0.7790408 0
vt 0.07143985 0.7668111 0
vt 0.9960938 0.7615153 0
vt 0.6637734 0.9593225 0
vt 0.9558229 0.8172673 0
vt 0.3584578 0.8173391 0
vt 0.2389348 0.7959899 0
vt 0.8476614 0.8953954 0
vt 0.2627914 0.8002528 0
vt 0.2867548 0.8042629 0
vt 0.2867546 0.8042647 0
vt 0.2150424 0.7915514 0
vt 0.4216521 0.4013418 0
vt 0.768082 0.1853603 0
vt 0.004834752 0.7045564 0
vt 0.724469 0.4119719 0
vt 0.4216521 0.4127659 0
vt 0.8073596 0.1874966 0
vt 0.2876333 0.3052453 0
vt 0.7558911 0.396852 0
vt 0.8556682 0.005156665 0
vt 0.8523019 0.00390625 0
vt 0.8224254 0.6948184 0
vt 0.8606343 0.006088446 0
vt 0.8310041 0.6932829 0
vt 0.04644824 0.3323882 0
vt 0.05264104 0.3335437 0
vt 0.05480257 0.3331843 0
vt 0.05735982 0.3318204 0
vt 0.7975671 0.550484 0
vt 0.8764348 0.3691934 0
vt 0.7008911 0.1966487 0
vt 0.7234847 0.1620303 0
vt 0.8522651 0.4115047 0
vt 0.8642357 0.1846801 0
vt 0.8354996 0.4891903 0
vt 0.5325431 0.1660975 0
vt 0.7850148 0.2300968 0
vt 0.6345265 0.1778607 0
vt 0.5745357 0.1365476 0
vt 0.9084466 0.3041345 0
vt 0.8732265 0.3654348 0
vt 0.7816023 0.05898539 0
vt 0.5454181 0.2516002 0
vt 0.9387126 0.4039913 0
vt 0.1973124 0.00390625 0
vt 0.2021557 0.004801654 0
vt 0.731645 0.6181382 0
vt 0.7353562 0.6208459 0
vt 0.1499776 0.07856416 0
vt 0.9948067 0.2455758 0
vt 0.7864322 0.05994325 0
vt 0.9811505 0.09786503 0
vt 0.8067538 0.1437311 0
vt 0.5558942 0.1575286 0
vt 0.5432741 0.07090162 0
vt 0.01796543 0.1530435 0
vt 0.5238709 0.07443226 0
vt 0.1444753 0.4127448 0
vt 0.1112448 0.4923005 0
vt 0.5624953 0.0489694 0
vt 0.04711158 0.4655121 0
vt 0.9886216 0.3222255 0
vt 0.9695429 0.3172324 0
vt 0.9676375 0.1892969 0
vt 0.944754 0.399921 0
vt 0.1475247 0.07429492 0
vt 0.2651379 0.4205603 0
vt 0.2313303 0.526017 0
vt 0.008152502 0.03746429 0
vt 0.6028115 0.1778486 0
vt 0.9666897 0.3105007 0
vt 0.5577201 0.04776773 0
vt 0.6266635 0.1871752 0
vt 0.8401625 0.4326973 0
vt 0.7206629 0.1579889 0
vt 0.5184425 0.0695351 0
vt 0.7008912 0.1966493 0
vt 0.6013614 0.1742876 0
vt 0.7754636 0.5364338 0
vt 0.6004754 0.1819773 0
vt 0.8004745 0.4923412 0
vt 0.9537903 0.3057855 0
vt 0.9537891 0.3057801 0
vt 0.5027315 0.2035594 0
vt 0.5653832 0.2653602 0
vt 0.9140842 0.3666491 0
vt 0.9270082 0.3460806 0
vt 0.6800526 0.3028861 0
vt 0.8748363 0.4279971 0
vt 0.8748341 0.4279906 0
vt 0.7938444 0.2074184 0
vt 0.8485121 0.4688179 0
vt 0.8355028 0.4891877 0
vt 0.8254249 0.6233774 0
vt 0.9843801 0.2385348 0
vt 0.8201764 0.6262411 0
vt 0.9929124 0.2443017 0
vt 0.9912495 0.2431784 0
vt 0.2537561 0.02206245 0
vt 0.2438849 0.04149108 0
vt 0.2081496 0.02333488 0
vt 0.0397138 0.009363787 0
vt 0.797485 0.9482765 0
vt 0.7990897 0.9495294 0
vt 0.7412614 0.9752253 0
vt 0.1618064 0.006078258 0
vt 0.1609795 0.00390625 0
vt 0.6637695 0.9593258 0
vt 0.6927635 0.9667865 0
vt 0.6882032 0.9641019 0
vt 0.6932828 0.9648387 0
vt 0.7175705 0.9689139 0
vt 0.03767871 0.00390625 0
#end 709 textures vertices 

#begin 209 normals 
vn -0 1 -0
vn -0 0.9908 0.135
vn -0 0.7071 -0.7071
vn -0 0.9848 -0.1736
vn -0 0.9733 -0.2294
vn -0 -0.9978 -0.0665
vn -0 -0.9927 -0.1206
vn -0 -0.9808 0.1951
vn -0 -0 1
vn -0 0.7071 0.7071
vn -0.0052 0.9958 -0.0914
vn -0 0.195 0.9808
vn -0.0069 -0.9926 -0.1211
vn -0.0069 -0.9994 -0.0334
vn -0.0103 -0.9981 -0.0606
vn -0.9277 -0 0.3733
vn -0 0.8947 0.4466
vn -0 -1 -0
vn -0.0069 0.9927 -0.1207
vn -0.0208 0.9925 -0.1207
vn -0.0139 0.9976 -0.0671
vn 0.9277 -0 0.3733
vn -0 -0.9709 0.2395
vn -0 -0.9709 -0.2395
vn -0 0.9918 -0.1281
vn -0 0.9808 0.1951
vn -0 -0.1951 0.9808
vn -0 0.9918 -0.128
vn -0 0.1951 0.9808
vn 1 -0 -0
vn 0.7071 0.7071 -0
vn -0.0027 -0.1935 0.9811
vn -0.0014 -0.1959 0.9806
vn -0.0067 -0.9808 0.1949
vn -0.0135 -0.9807 0.1953
vn -0.0135 0.9808 0.1947
vn -0.0272 0.9803 0.1955
vn -0.0028 0.1968 0.9804
vn -0.0053 0.192 0.9814
vn -0 0.9771 0.2129
vn -0 0.9816 0.1908
vn 0.4472 0.8944 -0
vn -0 0.9954 0.0958
vn -0.0001 0.9811 0.1935
vn -0 0.1965 0.9805
vn -0 0.1966 0.9805
vn -0 0.9953 0.0965
vn -0 0.981 0.1939
vn 0.0001 0.981 0.1939
vn -0.0001 0.1969 0.9804
vn -0.0001 0.1966 0.9805
vn -0 0.9816 0.1909
vn -0 0.977 0.213
vn -0 0.9812 0.1929
vn -0 0.9954 0.0959
vn -0.9704 -0 0.2413
vn -1 -0 -0
vn -0 -0.977 0.2131
vn -0 -0.9816 0.1909
vn -0 -0.1973 0.9803
vn -0 -0.1976 0.9803
vn -0 -0.981 0.1939
vn -0 -0.1964 0.9805
vn 0.0001 -0.1962 0.9806
vn -0 -0.9813 0.1926
vn -0 -0.9816 0.1908
vn -0 -0.9771 0.2129
vn 0.9705 -0 0.2412
vn -0 -0.1965 0.9805
vn -0 -0 -1
vn -0 0.1963 0.9805
vn -0.0001 -0.1966 0.9805
vn -0.0001 -0.1969 0.9804
vn 0.0488 -0.0466 0.9977
vn 0.0001 -0.1994 0.9799
vn 0.0001 0.1994 0.9799
vn 0.0488 0.0466 0.9977
vn -0 0.1975 0.9803
vn -0 0.1973 0.9803
vn 0.7138 0.6873 0.1349
vn -0 -0.1963 0.9806
vn -0 -0.1963 0.9805
vn -0 0.1976 0.9803
vn -0.0488 0.0466 0.9977
vn -0 0.1993 0.9799
vn -0 -0.1966 0.9805
vn -0.0488 -0.0466 0.9977
vn 0.0001 0.1962 0.9806
vn -0 0.1964 0.9805
vn -0 -0.1993 0.9799
vn -0 -0.9811 0.1937
vn -0.0001 -0.9811 0.1935
vn 0.0001 -0.981 0.1939
vn -0.9658 -0 0.2594
vn -0 0.9811 0.1937
vn -0 -0.7072 0.707
vn -0.0001 0.9811 0.1934
vn -0.0001 -0.9811 0.1934
vn -0 -0.9813 0.1927
vn -0 -0.9812 0.1929
vn 0.9658 -0 0.2594
vn -0 0.7072 0.707
vn -0 0.8965 0.443
vn -0 -0.8965 0.443
vn -0 0.9239 0.3827
vn -0 0.3827 0.9239
vn -0 -0.3827 0.9239
vn -0 -0.9239 0.3827
vn -0 0.3826 0.9239
vn -0 0.9238 0.3828
vn -0 -0.3826 0.9239
vn -0.013 0.9239 0.3825
vn -0.0051 0.3828 0.9238
vn -0.0025 -0.3827 0.9239
vn -0.0064 -0.9239 0.3826
vn -0.0257 0.9237 0.3822
vn -0.0106 0.383 0.9237
vn -0.0053 -0.3829 0.9238
vn -0.0127 -0.9239 0.3825
vn 0.3406 -0 0.9402
vn 0.9038 -0 0.428
vn 1 -0 -0.0008
vn 1 -0 -0.0005
vn 1 -0 -0.0002
vn 0.0001 0.9272 0.3745
vn 0.0001 0.3909 0.9204
vn -0 0.9258 0.378
vn -0 0.3874 0.9219
vn -1 -0 0.0008
vn -1 -0 -0.0001
vn -1 -0 -0.0038
vn -1 -0 -0.0039
vn -0.0001 0.9251 0.3798
vn -0 0.925 0.38
vn -0 0.3854 0.9228
vn -0.0001 0.3856 0.9227
vn 1 -0 -0.0003
vn -0 0.9248 0.3805
vn -0 0.3849 0.923
vn -1 -0 -0.0003
vn -1 -0 0.0001
vn -1 -0 0.0005
vn -0.0002 0.9251 0.3797
vn -0.0001 0.9252 0.3794
vn -0.0002 0.386 0.9225
vn -0.0002 0.3857 0.9226
vn -1 -0 0.0007
vn -1 -0 0.0002
vn -0.0001 0.9271 0.3747
vn -0.0001 0.3907 0.9205
vn -0.3405 -0 0.9403
vn -0.9037 -0 0.4282
vn -0.0001 -0.3907 0.9205
vn -0.0001 -0.9271 0.3747
vn -1 -0 0.0003
vn -1 -0 -0.0005
vn -1 -0 -0.0011
vn -0.0002 -0.3857 0.9226
vn -0.0002 -0.386 0.9225
vn -0.0001 -0.9252 0.3794
vn -0.0002 -0.9251 0.3797
vn -0 -0.3849 0.923
vn -0 -0.9248 0.3805
vn 1 -0 0.0001
vn 1 -0 0.0006
vn 1 -0 0.001
vn -0.0001 -0.3856 0.9227
vn -0 -0.3854 0.9228
vn -0.0001 -0.925 0.38
vn -0.0001 -0.9251 0.3798
vn -0.9994 -0 -0.0351
vn -1 -0 -0.0067
vn -0.9994 -0 -0.0343
vn -0 -0.3874 0.9219
vn -0 -0.9258 0.378
vn 1 -0 -0.0004
vn 1 -0 -0.0001
vn 1 -0 -0.0006
vn 0.0001 -0.3909 0.9204
vn 0.0001 -0.9272 0.3745
vn 0.0001 -0.385 0.9229
vn 0.0001 -0.3849 0.923
vn 0.0001 -0.9248 0.3805
vn 0.0001 -0.9248 0.3804
vn 0.0001 0.9248 0.3803
vn 0.0001 0.9248 0.3805
vn 0.0001 0.3849 0.923
vn 0.0001 0.385 0.9229
vn -0 0.9256 0.3786
vn -0 0.9257 0.3781
vn -0 0.3873 0.922
vn -0.0001 0.3868 0.9222
vn -0.0001 -0.3868 0.9222
vn -0 -0.3873 0.922
vn -0 -0.9257 0.3781
vn -0 -0.9256 0.3786
vn -0 -0 1
vn -1 -0 -0
vn 1 -0 -0
vn -0 -0 1
vn -1 -0 -0
vn 1 -0 -0
vn -0 -0 1
vn -0 -1 -0
vn -0 1 -0
vn -0 -0 1
vn -0 -1 -0
vn -0 1 -0
vn -0 -0 1
#end 209 normals 

#begin 407 faces
o Plane:062
s 1
f 201/201/1 4/4/1 25/25/1 205/205/1 
f 2/2/1 3/3/1 24/24/1 23/23/1 
f 184/184/2 15/15/1 30/30/1 186/186/1 
f 47/47/3 14/14/1 36/36/4 59/681/3 
f 1/1/1 2/2/1 23/23/1 21/21/1 
f 203/203/1 12/12/1 35/35/4 207/207/5 
f 46/46/3 13/13/1 29/29/1 58/58/3 
f 74/74/6 191/191/7 321/321/8 286/286/8 
f 248/706/9 52/52/9 19/19/9 244/244/9 
f 85/85/9 87/87/9 76/76/9 75/75/9 
f 244/576/2 19/19/1 32/581/1 246/246/1 
f 188/569/9 48/48/9 15/15/9 184/184/9 
f 43/43/10 10/10/1 34/644/11 55/692/10 
f 225/225/1 16/16/1 37/37/4 229/229/5 
f 39/584/9 44/44/9 11/11/9 8/8/9 
f 105/105/9 214/214/9 327/327/12 304/304/12 
f 33/567/13 28/28/13 73/73/14 79/79/15 
f 32/32/16 64/574/16 89/89/16 77/77/16 
f 61/634/17 59/635/17 94/94/17 95/95/17 
f 205/205/18 25/25/18 69/69/18 209/209/18 
f 34/644/11 20/20/19 42/42/20 80/643/21 
f 37/628/22 61/634/22 95/95/22 86/671/22 
f 56/56/23 58/561/23 83/83/23 81/81/23 
f 23/23/18 24/24/18 68/68/18 67/67/18 
f 62/578/22 31/31/22 76/76/22 87/87/22 
f 57/645/17 55/55/17 92/92/17 93/662/17 
f 21/21/18 23/23/18 67/67/18 41/41/18 
f 59/635/16 36/668/16 84/656/16 94/94/16 
f 186/562/24 30/563/24 75/75/6 190/190/7 
f 30/563/16 60/571/16 85/85/16 75/75/16 
f 89/89/9 91/91/9 78/78/9 77/77/9 
f 50/50/10 17/17/1 31/580/1 62/62/10 
f 4/4/1 5/5/1 26/26/1 25/25/1 
f 10/10/1 9/9/1 20/20/19 34/644/11 
f 223/223/1 6/6/1 27/27/1 227/227/1 
f 51/51/10 18/18/1 38/38/4 63/687/10 
f 8/559/1 11/11/1 28/566/1 33/33/1 
f 6/6/1 7/7/1 22/22/1 27/27/1 
f 84/677/25 212/212/5 324/324/26 306/306/26 
f 318/318/27 279/279/27 101/101/9 192/192/9 
f 53/53/1 54/54/1 66/588/1 65/65/1 
f 19/19/1 52/52/3 64/64/3 32/581/1 
f 16/16/1 49/49/3 61/61/3 37/37/4 
f 207/207/5 35/35/4 82/676/28 213/213/5 
f 35/642/22 57/645/22 93/662/22 82/641/22 
f 215/215/9 111/111/9 307/307/29 325/325/29 
f 9/9/9 10/10/9 43/43/9 40/40/9 
f 11/11/1 44/44/10 56/565/10 28/566/1 
f 202/666/9 14/14/9 47/47/9 210/639/9 
f 224/673/9 18/18/9 51/51/9 232/633/9 
f 403/403/30 406/406/30 135/135/31 134/134/31 
f 12/12/1 45/45/10 57/57/10 35/35/4 
f 15/15/1 48/48/3 60/60/3 30/30/1 
f 67/67/18 68/68/18 105/105/18 104/104/18 
f 81/81/9 83/83/9 74/74/9 73/73/9 
f 110/110/9 236/236/9 333/333/29 310/310/29 
f 80/80/9 82/663/9 93/93/9 92/664/9 
f 84/84/9 86/654/9 95/655/9 94/657/9 
f 88/88/9 90/90/9 97/648/9 96/96/9 
f 25/25/18 26/26/18 70/70/18 69/69/18 
f 60/571/23 62/578/23 87/87/23 85/85/23 
f 63/63/16 38/638/16 88/647/16 96/649/16 
f 227/227/18 27/27/18 71/71/18 231/231/18 
f 65/630/17 63/63/17 96/649/17 97/97/17 
f 27/27/18 22/22/18 72/72/18 71/71/18 
f 64/574/23 66/66/23 91/91/23 89/89/23 
f 229/629/5 37/670/4 86/86/25 235/235/5 
f 28/28/16 56/56/16 81/81/16 73/73/16 
f 246/577/24 32/32/24 77/77/6 250/250/7 
f 55/55/16 34/34/16 80/665/16 92/92/16 
f 58/561/22 29/564/22 74/74/22 83/83/22 
f 298/298/32 288/288/33 99/99/9 100/100/9 
f 86/86/25 84/677/25 306/306/26 309/309/26 
f 90/636/1 88/637/28 312/312/26 315/315/26 
f 250/250/7 77/77/6 292/292/8 337/337/8 
f 79/79/15 73/73/14 289/289/34 297/297/35 
f 291/291/27 294/294/27 107/107/9 106/106/9 
f 276/276/27 340/340/27 253/253/9 98/98/9 
f 190/190/7 75/75/6 280/280/8 319/319/8 
f 235/235/5 86/86/25 309/309/26 334/334/26 
f 82/82/28 80/643/21 300/300/36 303/303/26 
f 80/643/21 42/42/20 283/283/37 300/300/36 
f 285/285/27 322/322/27 193/193/9 103/103/9 
f 41/41/18 67/67/18 104/104/18 102/102/18 
f 77/77/6 78/78/18 295/295/8 292/292/8 
f 69/69/18 70/70/18 110/110/18 111/111/18 
f 191/191/7 190/190/7 319/319/8 321/321/8 
f 209/209/18 69/69/18 111/111/18 215/215/18 
f 102/102/9 104/104/9 301/301/38 282/282/39 
f 237/237/9 108/108/9 313/313/29 331/331/29 
f 71/71/18 72/72/18 109/109/18 108/108/18 
f 104/104/9 105/105/9 304/304/12 301/301/38 
f 336/336/27 291/291/27 106/106/9 252/252/9 
f 231/231/18 71/71/18 108/108/18 237/237/18 
f 412/412/40 342/342/41 114/114/42 113/620/1 
f 349/349/43 352/352/44 117/117/1 116/116/1 
f 45/678/9 211/211/9 423/423/45 351/351/46 
f 358/358/47 361/361/47 120/120/1 119/119/1 
f 420/420/48 354/354/49 118/118/1 216/216/1 
f 361/361/47 364/364/44 121/121/1 120/120/1 
f 49/685/9 233/233/9 429/429/50 363/363/51 
f 370/370/52 373/373/53 124/124/1 123/123/1 
f 426/426/54 366/366/55 122/122/1 238/238/1 
f 373/622/56 376/376/56 125/125/57 124/621/57 
f 376/587/58 379/379/59 126/126/18 125/589/18 
f 379/379/30 382/382/30 127/127/31 126/126/31 
f 52/52/9 248/706/9 432/432/60 381/381/61 
f 385/385/30 388/388/30 129/129/31 128/128/31 
f 388/388/62 391/391/62 130/130/18 129/129/18 
f 391/391/1 394/394/1 131/131/1 130/130/1 
f 48/48/9 188/569/9 414/414/63 393/393/64 
f 397/397/1 400/400/1 133/133/1 132/132/1 
f 58/58/9 56/565/9 402/402/61 399/399/61 
f 400/400/65 403/403/65 134/134/18 133/133/18 
f 406/406/66 408/408/67 112/112/18 135/135/18 
f 408/583/68 412/619/68 113/113/30 112/582/30 
f 188/569/9 189/189/9 418/418/69 414/414/63 
f 43/43/10 55/692/10 345/345/9 343/343/9 
f 148/148/1 149/149/1 174/174/1 173/173/1 
f 64/64/3 52/52/3 381/381/70 378/378/70 
f 59/59/9 61/686/9 360/360/71 357/357/71 
f 56/565/10 44/44/10 405/405/9 402/402/9 
f 249/708/9 50/701/9 384/384/72 436/436/73 
f 61/686/3 49/685/3 363/363/70 360/360/70 
f 44/44/9 39/584/9 409/409/74 405/405/75 
f 40/40/9 43/43/9 343/343/76 411/411/77 
f 50/50/10 62/62/10 387/387/9 384/699/9 
f 232/688/9 51/689/9 367/367/78 427/427/79 
f 39/39/9 40/617/9 411/616/77 409/546/74 
f 346/346/80 349/349/43 116/116/1 115/691/42 
f 62/62/9 60/60/9 390/390/81 387/387/82 
f 51/689/10 63/631/10 369/369/9 367/367/9 
f 55/646/9 57/679/9 348/348/83 345/693/83 
f 60/60/3 48/48/3 393/393/70 390/390/70 
f 63/631/9 65/625/9 372/372/84 369/369/85 
f 57/679/10 45/678/10 351/351/9 348/348/9 
f 189/189/9 46/46/9 396/396/86 418/418/69 
f 65/65/9 66/588/9 375/375/87 372/624/84 
f 210/683/9 47/682/9 355/355/88 421/421/89 
f 46/46/3 58/58/3 399/399/70 396/396/70 
f 66/575/9 64/703/9 378/702/90 375/586/87 
f 47/682/3 59/59/3 357/357/70 355/355/70 
f 114/527/42 115/530/42 137/137/1 136/136/1 
f 115/530/9 116/531/9 138/138/9 137/137/9 
f 116/531/1 117/532/1 139/139/1 138/138/1 
f 216/533/9 118/534/9 140/140/9 218/218/9 
f 118/534/1 119/535/1 141/141/1 140/140/1 
f 119/535/9 120/536/9 142/142/9 141/141/9 
f 120/536/1 121/537/1 143/143/1 142/142/1 
f 238/539/9 122/540/9 144/144/9 240/240/9 
f 122/540/1 123/541/1 145/145/1 144/144/1 
f 123/541/9 124/542/9 146/146/9 145/145/9 
f 124/542/9 125/543/9 147/147/9 146/146/9 
f 125/543/9 126/545/9 148/515/9 147/147/9 
f 126/545/31 127/547/31 149/516/1 148/515/1 
f 255/255/9 128/548/9 150/150/9 257/257/9 
f 128/548/31 129/549/31 151/151/1 150/150/1 
f 129/549/9 130/551/9 152/152/9 151/151/9 
f 130/551/1 131/553/1 153/153/1 152/152/1 
f 195/195/9 132/554/9 154/154/9 197/197/9 
f 132/554/1 133/555/1 155/155/1 154/154/1 
f 133/555/9 134/556/9 156/156/9 155/155/9 
f 134/556/31 135/557/31 157/157/1 156/156/1 
f 135/557/9 112/558/9 158/158/9 157/157/9 
f 112/558/9 113/529/9 159/159/9 158/158/9 
f 113/529/9 114/527/9 136/136/9 159/159/9 
f 141/505/1 142/506/1 167/167/1 166/166/1 
f 156/524/1 157/525/1 182/182/1 181/181/1 
f 257/510/18 150/518/18 175/175/18 259/259/18 
f 142/506/1 143/507/1 168/168/1 167/167/1 
f 157/525/18 158/526/18 183/183/18 182/182/18 
f 136/495/1 137/497/1 161/161/1 160/160/1 
f 150/518/1 151/519/1 176/176/1 175/175/1 
f 240/509/1 144/511/1 169/169/1 242/242/1 
f 158/526/30 159/496/30 162/162/30 183/183/30 
f 159/496/1 136/495/1 160/160/1 162/162/1 
f 151/519/18 152/520/18 177/177/18 176/176/18 
f 144/511/1 145/512/1 170/170/1 169/169/1 
f 137/497/1 138/500/1 163/163/1 161/161/1 
f 152/520/1 153/521/1 178/178/1 177/177/1 
f 145/512/1 146/513/1 171/171/1 170/170/1 
f 138/500/1 139/503/1 164/164/1 163/163/1 
f 197/523/18 154/498/18 179/179/18 199/199/18 
f 146/513/57 147/514/57 172/172/57 171/171/57 
f 218/499/1 140/504/1 165/165/1 220/220/1 
f 154/498/1 155/501/1 180/180/1 179/179/1 
f 147/514/18 148/148/18 173/173/18 172/172/18 
f 140/504/1 141/505/1 166/166/1 165/165/1 
f 155/501/18 156/524/18 181/181/18 180/180/18 
f 153/521/18 196/196/18 198/198/18 178/178/18 
f 196/196/18 197/523/18 199/199/18 198/198/18 
f 131/553/9 194/194/9 196/522/9 153/153/9 
f 194/194/9 195/195/9 197/197/9 196/522/9 
f 417/417/91 397/397/92 132/132/18 195/552/18 
f 211/211/9 210/683/9 421/421/89 423/423/45 
f 394/394/93 415/415/62 194/550/18 131/131/18 
f 415/415/62 417/417/91 195/552/18 194/550/18 
f 73/73/14 74/74/6 286/286/8 289/289/34 
f 212/212/5 213/675/5 328/328/26 324/324/26 
f 288/288/33 285/285/27 103/103/9 99/99/9 
f 322/322/27 318/318/27 192/192/9 193/193/9 
f 29/564/24 187/187/24 191/191/7 74/74/6 
f 187/187/24 186/562/24 190/190/7 191/191/7 
f 46/46/9 189/189/9 185/185/9 13/13/9 
f 185/568/94 189/570/94 263/263/94 261/261/94 
f 13/13/1 185/568/2 187/560/1 29/29/1 
f 185/568/2 184/184/2 186/186/1 187/560/1 
f 139/503/1 219/219/1 221/221/1 164/164/1 
f 219/219/1 218/499/1 220/220/1 221/221/1 
f 117/532/9 217/217/9 219/502/9 139/139/9 
f 217/217/9 216/533/9 218/218/9 219/502/9 
f 354/354/49 358/358/47 119/119/1 118/118/1 
f 233/233/9 232/688/9 427/427/79 429/429/50 
f 352/352/44 424/424/95 217/528/1 117/117/1 
f 424/424/95 420/420/48 216/216/1 217/528/1 
f 68/68/18 208/208/18 214/214/18 105/105/18 
f 208/208/18 209/209/18 215/215/18 214/214/18 
f 213/675/5 82/82/28 303/303/26 328/328/26 
f 234/234/5 235/235/5 334/334/26 330/330/26 
f 12/12/9 203/203/9 211/680/9 45/45/9 
f 225/672/96 224/224/96 268/651/96 269/653/96 
f 36/36/4 206/206/5 212/674/5 84/669/25 
f 206/206/5 207/207/5 213/213/5 212/674/5 
f 111/111/9 110/110/9 310/310/29 307/307/29 
f 214/214/9 215/215/9 325/325/29 327/327/12 
f 24/24/18 204/204/18 208/208/18 68/68/18 
f 204/204/18 205/205/18 209/209/18 208/208/18 
f 14/14/1 202/666/1 206/206/5 36/36/4 
f 202/666/1 203/203/1 207/207/5 206/206/5 
f 3/3/1 200/200/1 204/204/1 24/24/1 
f 200/200/1 201/201/1 205/205/1 204/204/1 
f 143/507/1 241/241/1 243/243/1 168/168/1 
f 241/241/1 240/509/1 242/242/1 243/243/1 
f 121/537/9 239/239/9 241/508/9 143/143/9 
f 239/239/9 238/539/9 240/240/9 241/508/9 
f 366/366/55 370/370/52 123/123/1 122/122/1 
f 248/248/9 249/708/9 436/436/73 432/707/60 
f 364/364/44 430/430/97 239/538/1 121/121/1 
f 430/430/97 426/426/54 238/238/1 239/538/1 
f 70/70/18 230/230/18 236/236/18 110/110/18 
f 230/230/18 231/231/18 237/237/18 236/236/18 
f 88/637/28 234/234/5 330/330/26 312/312/26 
f 251/251/7 250/250/7 337/337/8 339/339/8 
f 38/626/4 228/228/5 234/234/5 88/637/28 
f 228/228/5 229/629/5 235/235/5 234/234/5 
f 26/26/18 226/226/18 230/230/18 70/70/18 
f 226/226/18 227/227/18 231/231/18 230/230/18 
f 108/108/9 109/109/9 316/316/29 313/313/29 
f 236/236/9 237/237/9 331/331/29 333/333/29 
f 16/16/9 225/225/9 233/684/9 49/49/9 
f 211/640/94 203/667/94 265/659/94 267/661/94 
f 5/5/1 222/222/1 226/226/1 26/26/1 
f 222/222/1 223/223/1 227/227/1 226/226/1 
f 18/18/1 224/673/1 228/627/5 38/38/4 
f 224/673/1 225/225/1 229/229/5 228/627/5 
f 149/149/18 256/256/18 258/258/18 174/174/18 
f 256/256/18 257/510/18 259/259/18 258/258/18 
f 127/547/9 254/254/9 256/517/9 149/516/9 
f 254/254/9 255/255/9 257/257/9 256/517/9 
f 435/435/98 385/385/92 128/128/18 255/585/18 
f 382/382/99 433/433/100 254/544/18 127/127/18 
f 433/433/100 435/435/98 255/585/18 254/544/18 
f 75/75/6 76/76/6 277/277/8 280/280/8 
f 31/31/24 247/247/24 251/251/7 76/76/6 
f 247/247/24 246/577/24 250/250/7 251/251/7 
f 279/279/27 276/276/27 98/98/9 101/101/9 
f 340/340/27 336/336/27 252/252/9 253/253/9 
f 17/17/1 245/245/2 247/579/1 31/580/1 
f 245/245/2 244/576/2 246/246/1 247/579/1 
f 50/701/9 249/708/9 245/245/9 17/17/9 
f 248/573/101 244/591/101 272/272/101 274/274/101 
f 263/263/9 262/262/9 260/260/9 261/261/9 
f 265/265/9 264/264/9 266/660/9 267/267/9 
f 269/269/9 268/268/9 270/270/9 271/652/9 
f 275/695/9 274/696/9 272/697/9 273/273/9 
f 232/232/102 233/632/102 271/271/102 270/650/102 
f 202/202/101 210/210/101 266/266/101 264/658/101 
f 188/188/101 184/184/101 260/260/101 262/262/101 
f 203/667/96 202/202/96 264/658/96 265/659/96 
f 210/210/102 211/640/102 267/661/102 266/266/102 
f 184/184/2 185/568/2 261/261/103 260/260/103 
f 233/632/94 225/672/94 269/653/94 271/271/94 
f 189/570/104 188/188/104 262/262/104 263/263/104 
f 224/224/101 232/232/101 270/650/101 268/651/101 
f 244/591/2 245/709/2 273/698/103 272/272/103 
f 245/709/94 249/249/94 275/275/94 273/698/94 
f 249/249/104 248/573/104 274/274/104 275/275/104 
f 315/315/26 312/312/26 314/314/105 317/317/105 
f 317/317/106 314/314/106 313/313/29 316/316/29 
f 294/294/27 291/291/27 293/293/107 296/296/107 
f 296/296/108 293/293/108 292/292/8 295/295/8 
f 334/334/26 309/309/26 311/311/105 335/335/105 
f 335/335/109 311/311/109 310/310/29 333/333/29 
f 340/340/27 276/276/27 278/278/107 341/341/107 
f 341/341/108 278/278/108 277/277/8 339/339/8 
f 309/309/26 306/306/26 308/308/105 311/311/105 
f 311/311/109 308/308/109 307/307/29 310/310/29 
f 276/276/27 279/279/27 281/281/107 278/278/107 
f 278/278/108 281/281/108 280/280/8 277/277/8 
f 328/328/26 303/303/26 305/305/110 329/329/110 
f 329/329/109 305/305/109 304/304/12 327/327/12 
f 322/322/27 285/285/27 287/287/111 323/323/111 
f 323/323/108 287/287/108 286/286/8 321/321/8 
f 303/303/26 300/300/36 302/302/112 305/305/110 
f 305/305/109 302/302/113 301/301/38 304/304/12 
f 285/285/27 288/288/33 290/290/114 287/287/111 
f 287/287/108 290/290/115 289/289/34 286/286/8 
f 300/300/36 283/283/37 284/284/116 302/302/112 
f 302/302/113 284/284/117 282/282/39 301/301/38 
f 288/288/33 298/298/32 299/299/118 290/290/114 
f 290/290/115 299/299/119 297/297/35 289/289/34 
f 279/279/27 318/318/27 320/320/111 281/281/107 
f 281/281/108 320/320/108 319/319/8 280/280/8 
f 318/318/27 322/322/27 323/323/111 320/320/111 
f 320/320/108 323/323/108 321/321/8 319/319/8 
f 306/306/26 324/324/26 326/326/105 308/308/105 
f 308/308/109 326/326/109 325/325/29 307/307/29 
f 324/324/26 328/328/26 329/329/110 326/326/105 
f 326/326/109 329/329/109 327/327/12 325/325/29 
f 312/312/26 330/330/26 332/332/105 314/314/105 
f 314/314/106 332/332/106 331/331/29 313/313/29 
f 330/330/26 334/334/26 335/335/105 332/332/105 
f 332/332/106 335/335/109 333/333/29 331/331/29 
f 291/291/27 336/336/27 338/338/107 293/293/107 
f 293/293/108 338/338/108 337/337/8 292/292/8 
f 336/336/27 340/340/27 341/341/107 338/338/107 
f 338/338/108 341/341/108 339/339/8 337/337/8 
f 76/76/6 251/251/7 339/339/8 277/277/8 
f 409/546/74 411/616/77 413/413/120 410/410/120 
f 410/410/121 413/413/121 412/619/68 408/583/68 
f 343/343/122 345/345/122 347/347/123 344/344/124 
f 344/344/124 347/347/123 346/690/30 342/342/30 
f 342/342/41 412/412/40 413/618/125 344/344/125 
f 344/344/126 413/618/126 411/411/77 343/343/76 
f 349/349/43 346/346/80 347/694/127 350/350/127 
f 350/350/128 347/694/128 345/693/83 348/348/83 
f 352/352/129 349/349/129 350/350/130 353/353/131 
f 353/353/131 350/350/130 348/348/132 351/351/132 
f 424/424/95 352/352/44 353/353/133 425/425/134 
f 425/425/135 353/353/136 351/351/46 423/423/45 
f 355/355/137 357/357/137 359/359/124 356/356/124 
f 356/356/124 359/359/124 358/358/124 354/354/124 
f 361/361/47 358/358/47 359/359/138 362/362/138 
f 362/362/139 359/359/139 357/357/71 360/360/71 
f 364/364/140 361/361/140 362/362/141 365/365/141 
f 365/365/141 362/362/141 360/360/142 363/363/142 
f 430/430/97 364/364/44 365/365/143 431/431/144 
f 431/431/145 365/365/146 363/363/51 429/429/50 
f 367/367/147 369/369/147 371/371/148 368/368/142 
f 368/368/142 371/371/148 370/370/57 366/366/57 
f 373/373/53 370/370/52 371/371/149 374/374/149 
f 374/374/150 371/371/150 369/369/85 372/372/84 
f 372/624/84 375/375/87 377/377/151 374/623/151 
f 374/623/152 377/377/152 376/376/56 373/622/56 
f 375/586/87 378/702/90 380/380/153 377/590/153 
f 377/593/154 380/597/154 379/379/59 376/587/58 
f 382/382/147 379/379/147 380/597/155 383/383/156 
f 383/599/156 380/704/155 378/378/157 381/381/157 
f 436/436/73 384/384/72 386/386/158 437/437/159 
f 437/592/160 386/596/161 385/385/92 435/435/98 
f 384/699/157 387/387/157 389/389/140 386/700/57 
f 386/596/57 389/594/140 388/388/147 385/385/147 
f 387/387/82 390/390/81 392/392/162 389/389/162 
f 389/594/163 392/607/163 391/391/62 388/388/62 
f 394/394/164 391/391/164 392/607/165 395/395/165 
f 395/603/165 392/392/165 390/390/166 393/393/166 
f 418/418/69 396/396/86 398/398/167 419/419/168 
f 419/604/169 398/605/170 397/397/92 417/417/91 
f 396/396/171 399/399/171 401/401/172 398/398/173 
f 398/605/173 401/606/172 400/400/57 397/397/57 
f 399/399/61 402/402/61 404/404/174 401/401/174 
f 401/606/175 404/601/175 403/403/65 400/400/65 
f 406/406/30 403/403/30 404/601/176 407/407/177 
f 407/600/177 404/404/176 402/402/178 405/405/178 
f 405/405/75 409/409/74 410/598/179 407/600/179 
f 407/407/180 410/572/180 408/408/67 406/406/66 
f 393/393/64 414/414/63 416/416/181 395/603/182 
f 395/395/183 416/602/184 415/415/62 394/394/93 
f 414/414/63 418/418/69 419/419/168 416/416/181 
f 416/602/184 419/604/169 417/417/91 415/415/62 
f 354/354/49 420/420/48 422/422/185 356/356/186 
f 356/356/187 422/422/188 421/421/89 355/355/88 
f 420/420/48 424/424/95 425/425/134 422/422/185 
f 422/422/188 425/425/135 423/423/45 421/421/89 
f 366/366/55 426/426/54 428/428/189 368/368/190 
f 368/368/191 428/428/192 427/427/79 367/367/78 
f 426/426/54 430/430/97 431/431/144 428/428/189 
f 428/428/192 431/431/145 429/429/50 427/427/79 
f 381/381/61 432/432/60 434/434/193 383/599/194 
f 383/383/195 434/595/196 433/433/100 382/382/99 
f 432/707/60 436/436/73 437/437/159 434/705/193 
f 434/595/196 437/592/160 435/435/98 433/433/100 
f 342/342/41 346/690/80 115/115/42 114/114/42 
f 78/78/30 91/91/30 66/66/30 438/438/30 
o Plane:064
s 1
f 439/439/197 440/440/197 442/442/197 443/443/197 444/444/197 445/445/197 446/446/197 447/447/197 448/448/197 449/449/197 450/450/197 451/451/197 452/452/197 453/453/197 454/454/197 455/455/197 456/456/197 457/457/197 458/458/197 459/459/197 460/460/197 461/461/197 462/462/197 441/441/197 
o Cube:077
s 1
f 463/612/198 464/464/198 466/466/198 465/465/198 
f 469/469/199 470/470/199 468/468/199 467/467/199 
f 467/467/200 468/468/200 464/613/200 463/463/200 
o Cube:078
s 1
f 471/608/201 472/472/201 474/474/201 473/473/201 
f 477/477/202 478/478/202 476/476/202 475/475/202 
f 475/475/203 476/476/203 472/609/203 471/471/203 
o Cube:079
s 1
f 479/479/204 480/480/204 482/482/204 481/481/204 
f 485/485/205 486/486/205 484/610/205 483/483/205 
f 483/611/206 484/484/206 480/480/206 479/479/206 
o Cube:080
s 1
f 487/487/207 488/488/207 490/490/207 489/489/207 
f 493/493/208 494/494/208 492/614/208 491/491/208 
f 491/615/209 492/492/209 488/488/209 487/487/209 
#end 407 faces

#ZOMPROPERTIES_04{
#ZOMPROPERTIES_04 table {Mesh table {SymPlane table {Point vector3d 0 0 0 Normal vector3d 1 0 0 Threshold double 0.01 
#ZOMPROPERTIES_04 Enabled bool false EdgeID int -1 SymEdgeID int -1 UPos double 0.5 LocalMode bool false } RootGroup C
#ZOMPROPERTIES_04 SubMeshGroup {Children table {Tile_0_0 CSubMeshGroup {Children table {} BBoxUV box3d 0 0 0 0 0 0 BBo
#ZOMPROPERTIES_04 x3D box3d 0 0 0 0 0 0 Area3D double 0 AreaUV double 0.250679 IsRoot bool false Properties table {Sel
#ZOMPROPERTIES_04 ected bool false Box box3d 0 1 0 1 0 1 U int 0 V int 0 NU int 0 NV int 0 Tiling vector3d 1 1 1 TileR
#ZOMPROPERTIES_04 atioMode string "1:1" Overflow string "Off" Pack table {BoxFrameEdit bool false Behavior string "Fre
#ZOMPROPERTIES_04 e" } } IsTile bool true PolyIDs ints { 140 354 270 286 285 284 61 63 398 395 274 18 27 21 25 69 44 2
#ZOMPROPERTIES_04 20 281 275 283 250 278 276 279 405 402 273 272 399 400 396 397 40 137 352 353 103 115 329 328 128 50
#ZOMPROPERTIES_04  114 375 372 371 113 111 369 367 193 196 379 377 364 363 361 107 259 359 391 389 356 355 104 105 260
#ZOMPROPERTIES_04  261 108 109 195 13 42 249 254 253 49 35 95 336 337 339 96 194 383 381 380 98 211 97 99 237 238 102 
#ZOMPROPERTIES_04 235 101 350 349 348 351 134 131 127 212 387 347 346 100 123 345 343 120 141 138 340 342 344 386 384 
#ZOMPROPERTIES_04 385 341 214 382 338 213 135 132 335 334 129 3 227 221 222 43 5 51 219 228 48 401 403 404 406 56 57 5
#ZOMPROPERTIES_04 8 142 143 144 209 210 145 146 147 148 233 234 149 150 151 152 153 154 257 258 155 156 157 158 191 19
#ZOMPROPERTIES_04 2 159 160 161 162 163 164 165 2 52 133 365 362 130 126 360 31 267 268 10 41 119 357 388 106 8 269 12
#ZOMPROPERTIES_04 2 236 390 358 376 110 116 378 366 368 370 373 121 124 14 47 36 374 112 139 6 205 206 280 277 282 204
#ZOMPROPERTIES_04  271 203 136 11 118 255 256 168 172 176 179 189 190 182 185 188 167 170 174 175 171 178 181 207 208 
#ZOMPROPERTIES_04 184 187 166 169 231 232 173 177 180 183 186 7 302 301 305 306 310 75 16 67 22 70 54 197 309 71 199 8
#ZOMPROPERTIES_04 2 200 39 265 77 266 92 76 289 290 324 74 84 30 65 17 393 68 264 242 326 325 294 327 262 9 60 29 24 2
#ZOMPROPERTIES_04 8 78 312 314 313 311 297 298 86 202 201 263 293 323 0 19 59 85 223 296 316 315 317 299 300 304 303 8
#ZOMPROPERTIES_04 0 81 20 33 46 125 333 332 94 392 331 330 117 12 217 198 307 308 88 83 26 4 1 229 225 226 216 224 318
#ZOMPROPERTIES_04  45 15 91 87 215 53 23 230 38 72 79 66 244 218 321 319 320 288 247 90 64 37 34 252 246 62 93 240 248
#ZOMPROPERTIES_04  322 292 291 89 55 239 245 251 287 73 241 243 295 32 394 } } } BBoxUV box3d 0 0 0 0 0 0 BBox3D box3d
#ZOMPROPERTIES_04  0 0 0 0 0 0 Area3D double 0 AreaUV double 0 IsRoot bool true Properties table {Selected bool false 
#ZOMPROPERTIES_04 Box box3d 0 1 0 1 0 1 U int 0 V int 0 NU int 1 NV int 1 Tiling vector3d 1 1 1 TileRatioMode string "
#ZOMPROPERTIES_04 1:1" Overflow string "Off" Pack table {Rotate table {Mode int 0 Min double 0 Max double 90 Step doub
#ZOMPROPERTIES_04 le 0 } PaddingSize double 0.0078125 MarginSize double 0.00390625 Resolution int 256 MapResolution in
#ZOMPROPERTIES_04 t 2048 Scaling table {TexelDensity double 1024 Mode int 2 } LayoutScalingMode int 2 MaxMutations int
#ZOMPROPERTIES_04  1 } } IsTile bool false PolyIDs ints { } } Maps table {Pin table {PrimType string "Vertex" Size int
#ZOMPROPERTIES_04  1 DefaultValue double 0 ScaleType string "Normalized" MergeMode string "Max" MinValue double 0 MaxV
#ZOMPROPERTIES_04 alue double 1 Data doubles { r 709 0 } } Density table {PrimType string "Polygon" Size int 1 Default
#ZOMPROPERTIES_04 Value double 1 ScaleType string "Log" MergeMode string "Average" MinValue double 0.1 MaxValue double
#ZOMPROPERTIES_04  4 Data doubles { r 407 1 } } Protect table {PrimType string "Vertex" Size int 1 DefaultValue double
#ZOMPROPERTIES_04  0 ScaleType string "Normalized" MergeMode string "Average" MinValue double -1 MaxValue double 1 Dat
#ZOMPROPERTIES_04 a doubles { r 709 0 } } } } }
#ZOMPROPERTIES_04}


#ZOMSCENE_01{
#ZOMSCENE_01 CScene {Settings table {AxisSystem table {UpVector string "y" } Unit string "cm" TexelDensityDisplay
#ZOMSCENE_01 Unit string "tx/cm" } Root table {} }
#ZOMSCENE_01}

#begin 0 fatal error vertex (that RizomUV cannot handle)
#end 0 fatal error vertex (that RizomUV cannot handle)

#begin 0 error vertex
#end 0 error vertex
