#File written by RizomUV 2023.0.70.ge90189e8. Compilation :Sep 22 2023,12:42:11
mtllib Blanca pared.mtl
#begin vertices
v 5.029314 -0.201296 -13.26369
v 7.291066 -0.068007 -13.17932
v 5.029314 9.64337 -13.26369
v 6.226835 -0.068007 -13.17932
v 6.123166 -0.201296 -13.26369
v 7.217017 -0.201296 -13.26369
v 8.310869 -0.201296 -13.26369
v 9.404721 -0.201296 -13.26369
v 10.49857 -0.201296 -13.26369
v 11.59242 -0.201296 -13.26369
v 12.68628 -0.201296 -13.26369
v 13.78013 -0.201296 -13.26369
v 13.78013 9.64337 -13.26369
v 12.68628 9.64337 -13.26369
v 11.59242 9.64337 -13.26369
v 10.49857 9.64337 -13.26369
v 9.404721 9.64337 -13.26369
v 8.310869 9.64337 -13.26369
v 7.217017 9.64337 -13.26369
v 6.123166 9.64337 -13.26369
v 8.355299 -0.068007 -13.17932
v 9.419531 -0.068007 -13.17932
v 10.48376 -0.068007 -13.17932
v 11.548 -0.068007 -13.17932
v 12.61223 -0.068007 -13.17932
v 13.67646 -0.068007 -13.17932
v 13.67646 9.51008 -13.17932
v 12.61223 9.51008 -13.17932
v 11.548 9.51008 -13.17932
v 10.48376 9.51008 -13.17932
v 9.419531 9.51008 -13.17932
v 8.355299 9.51008 -13.17932
v 7.291066 9.51008 -13.17932
v 6.226835 9.51008 -13.17932
#end vertices

#begin 34 textures vertices 
vt 0.00390625 0.03375083 0
vt 0.2261225 0.04253368 0
vt 0.03393844 0.9960938 0
vt 0.1236563 0.04359141 0
vt 0.1103342 0.03044873 0
vt 0.2358835 0.02897609 0
vt 0.3423037 0.02529019 0
vt 0.4626554 0.02205715 0
vt 0.5690654 0.01863109 0
vt 0.6893994 0.01399935 0
vt 0.7958081 0.01086699 0
vt 0.9210945 0.00390625 0
vt 0.9514984 0.9680775 0
vt 0.8259059 0.9693138 0
vt 0.7194445 0.9728506 0
vt 0.5990349 0.9759233 0
vt 0.4925759 0.9792052 0
vt 0.3721821 0.9836289 0
vt 0.26573 0.9865282 0
vt 0.1403921 0.9930968 0
vt 0.351829 0.03827232 0
vt 0.4550307 0.03559017 0
vt 0.5774799 0.03154361 0
vt 0.6807376 0.02771284 0
vt 0.80619 0.02366898 0
vt 0.9088297 0.01819222 0
vt 0.9381681 0.9548914 0
vt 0.8356708 0.9557633 0
vt 0.7099133 0.9598507 0
vt 0.6066648 0.9623996 0
vt 0.4841588 0.9662831 0
vt 0.3808529 0.9699383 0
vt 0.2553487 0.973712 0
vt 0.152672 0.9788711 0
#end 34 textures vertices 

#begin 11 normals 
vn -0 -0 1
vn 0.9849 -0 -0.1729
vn -0 0.5348 0.845
vn -0.8848 -0 0.466
vn -0 -0.5348 0.845
vn -0.9849 -0 -0.1729
vn 0.8848 -0 0.466
vn -0.7516 -0 -0.6597
vn 0.6312 -0 0.7756
vn -0.6312 -0 0.7756
vn 0.7516 -0 -0.6597
#end 11 normals 

#begin 24 faces
o Container
s 1
f 4/4/1 2/2/1 33/33/1 34/34/1 
f 1/1/1 5/5/1 20/20/1 3/3/1 
f 8/8/2 17/17/2 31/31/2 22/22/2 
f 6/6/1 7/7/1 18/18/1 19/19/1 
f 15/15/3 16/16/3 30/30/3 29/29/3 
f 8/8/1 9/9/1 16/16/1 17/17/1 
f 18/18/4 7/7/4 21/21/4 32/32/4 
f 10/10/1 11/11/1 14/14/1 15/15/1 
f 7/7/5 8/8/5 22/22/5 21/21/5 
f 21/21/1 22/22/1 31/31/1 32/32/1 
f 23/23/1 24/24/1 29/29/1 30/30/1 
f 25/25/1 26/26/1 27/27/1 28/28/1 
f 9/9/5 10/10/5 24/24/5 23/23/5 
f 16/16/6 9/9/6 23/23/6 30/30/6 
f 17/17/3 18/18/3 32/32/3 31/31/3 
f 10/10/7 15/15/7 29/29/7 24/24/7 
f 11/11/5 12/12/5 26/26/5 25/25/5 
f 14/14/8 11/11/8 25/25/8 28/28/8 
f 19/19/3 20/20/3 34/34/3 33/33/3 
f 12/12/9 13/13/9 27/27/9 26/26/9 
f 5/5/5 6/6/5 2/2/5 4/4/5 
f 20/20/10 5/5/10 4/4/10 34/34/10 
f 13/13/3 14/14/3 28/28/3 27/27/3 
f 6/6/11 19/19/11 33/33/11 2/2/11 
#end 24 faces

#ZOMPROPERTIES_04{
#ZOMPROPERTIES_04 table {Mesh table {SymPlane table {Point vector3d 0 0 0 Normal vector3d 1 0 0 Threshold double 0.01 
#ZOMPROPERTIES_04 Enabled bool false EdgeID int -1 SymEdgeID int -1 UPos double 0.5 LocalMode bool false } RootGroup C
#ZOMPROPERTIES_04 SubMeshGroup {Children table {Tile_0_0 CSubMeshGroup {Children table {} BBoxUV box3d 0 0 0 0 0 0 BBo
#ZOMPROPERTIES_04 x3D box3d 0 0 0 0 0 0 Area3D double 0 AreaUV double 0.880828 IsRoot bool false Properties table {Sel
#ZOMPROPERTIES_04 ected bool false Box box3d 0 1 0 1 0 1 U int 0 V int 0 NU int 0 NV int 0 Tiling vector3d 1 1 1 TileR
#ZOMPROPERTIES_04 atioMode string "1:1" Overflow string "Off" Pack table {BoxFrameEdit bool false Behavior string "Fre
#ZOMPROPERTIES_04 e" } } IsTile bool true PolyIDs ints { 0 18 21 1 23 3 6 9 2 5 13 10 15 7 17 11 19 22 16 4 12 14 8 20
#ZOMPROPERTIES_04  } } } BBoxUV box3d 0 0 0 0 0 0 BBox3D box3d 0 0 0 0 0 0 Area3D double 0 AreaUV double 0 IsRoot bool
#ZOMPROPERTIES_04  true Properties table {Selected bool false Box box3d 0 1 0 1 0 1 U int 0 V int 0 NU int 1 NV int 1 
#ZOMPROPERTIES_04 Tiling vector3d 1 1 1 TileRatioMode string "1:1" Overflow string "Off" Pack table {Rotate table {Mod
#ZOMPROPERTIES_04 e int 0 Min double 0 Max double 90 Step double 0 } PaddingSize double 0.0078125 MarginSize double 0.
#ZOMPROPERTIES_04 00390625 Resolution int 256 MapResolution int 2048 Scaling table {TexelDensity double 1024 Mode int 
#ZOMPROPERTIES_04 2 } LayoutScalingMode int 2 MaxMutations int 1 } } IsTile bool false PolyIDs ints { } } Maps table {
#ZOMPROPERTIES_04 Pin table {PrimType string "Vertex" Size int 1 DefaultValue double 0 ScaleType string "Normalized" M
#ZOMPROPERTIES_04 ergeMode string "Max" MinValue double 0 MaxValue double 1 Data doubles { r 34 0 } } Density table {P
#ZOMPROPERTIES_04 rimType string "Polygon" Size int 1 DefaultValue double 1 ScaleType string "Log" MergeMode string "A
#ZOMPROPERTIES_04 verage" MinValue double 0.1 MaxValue double 4 Data doubles { r 24 1 } } Protect table {PrimType stri
#ZOMPROPERTIES_04 ng "Vertex" Size int 1 DefaultValue double 0 ScaleType string "Normalized" MergeMode string "Average
#ZOMPROPERTIES_04 " MinValue double -1 MaxValue double 1 Data doubles { r 34 0 } } } } }
#ZOMPROPERTIES_04}


#ZOMSCENE_01{
#ZOMSCENE_01 CScene {Settings table {AxisSystem table {UpVector string "y" } Unit string "cm" TexelDensityDisplay
#ZOMSCENE_01 Unit string "tx/cm" } Root table {} }
#ZOMSCENE_01}

#begin 0 fatal error vertex (that RizomUV cannot handle)
#end 0 fatal error vertex (that RizomUV cannot handle)

#begin 0 error vertex
#end 0 error vertex
