#File written by RizomUV 2023.0.70.ge90189e8. Compilation :Sep 22 2023,12:42:11
mtllib techo blanco.mtl
#begin vertices
v 5.029314 9.64337 -13.26369
v 7.291066 9.559002 -13.02647
v 5.029314 9.643364 4.257097
v 6.226835 9.559002 -13.02647
v 6.123166 9.64337 -13.26369
v 7.217017 9.64337 -13.26369
v 8.310869 9.64337 -13.26369
v 9.404721 9.64337 -13.26369
v 10.49857 9.64337 -13.26369
v 11.59242 9.64337 -13.26369
v 12.68628 9.64337 -13.26369
v 13.78013 9.64337 -13.26369
v 13.78013 9.643364 4.257097
v 12.68628 9.643364 4.257097
v 11.59242 9.643364 4.257097
v 10.49857 9.643364 4.257097
v 9.404721 9.643364 4.257097
v 8.310869 9.643364 4.257097
v 7.217017 9.643364 4.257097
v 6.123166 9.643364 4.257097
v 8.355299 9.559002 -13.02647
v 9.419531 9.559002 -13.02647
v 10.48376 9.559002 -13.02647
v 11.548 9.559002 -13.02647
v 12.61223 9.559002 -13.02647
v 13.67646 9.559002 -13.02647
v 13.67646 9.558996 4.01988
v 12.61223 9.558996 4.01988
v 11.548 9.558996 4.01988
v 10.48376 9.558996 4.01988
v 9.419531 9.558996 4.01988
v 8.355299 9.558996 4.01988
v 7.291066 9.558996 4.01988
v 6.226835 9.558996 4.01988
#end vertices

#begin 34 textures vertices 
vt 0.8806838 0.00390625 0
vt 0.895708 0.1211475 0
vt 0.00390625 0.217724 0
vt 0.8836312 0.06810502 0
vt 0.8939996 0.05853628 0
vt 0.9089619 0.1237047 0
vt 0.9223292 0.1783238 0
vt 0.9372086 0.2403457 0
vt 0.9505415 0.2949709 0
vt 0.965954 0.3568679 0
vt 0.9792455 0.4115014 0
vt 0.9960937 0.4761873 0
vt 0.1190284 0.6900981 0
vt 0.1041055 0.6249171 0
vt 0.09076765 0.5702883 0
vt 0.07592224 0.5082547 0
vt 0.06261839 0.4536195 0
vt 0.04724192 0.3917102 0
vt 0.03398436 0.337066 0
vt 0.01718406 0.2723651 0
vt 0.9115778 0.1859517 0
vt 0.924262 0.2390331 0
vt 0.9396933 0.3020779 0
vt 0.9528425 0.3550649 0
vt 0.9687 0.4198195 0
vt 0.9823725 0.4725344 0
vt 0.1294039 0.680527 0
vt 0.1173585 0.6274749 0
vt 0.1015228 0.5626591 0
vt 0.08886692 0.5095681 0
vt 0.07346828 0.446512 0
vt 0.06034958 0.3935148 0
vt 0.04453114 0.3287475 0
vt 0.03089724 0.276021 0
#end 34 textures vertices 

#begin 11 normals 
vn -0 -1 -0
vn 0.9849 0.1729 -0
vn -0 -0.9422 0.3351
vn -0.8848 -0.466 -0
vn -0 -0.9422 -0.3351
vn -0.9849 0.1729 -0
vn 0.8848 -0.466 -0
vn -0.7516 0.6597 -0
vn 0.6312 -0.7756 -0
vn -0.6312 -0.7756 -0
vn 0.7516 0.6597 -0
#end 11 normals 

#begin 24 faces
o Container:010
s 1
f 4/4/1 2/2/1 33/33/1 34/34/1 
f 1/1/1 5/5/1 20/20/1 3/3/1 
f 8/8/2 17/17/2 31/31/2 22/22/2 
f 6/6/1 7/7/1 18/18/1 19/19/1 
f 15/15/3 16/16/3 30/30/3 29/29/3 
f 8/8/1 9/9/1 16/16/1 17/17/1 
f 18/18/4 7/7/4 21/21/4 32/32/4 
f 10/10/1 11/11/1 14/14/1 15/15/1 
f 7/7/5 8/8/5 22/22/5 21/21/5 
f 21/21/1 22/22/1 31/31/1 32/32/1 
f 23/23/1 24/24/1 29/29/1 30/30/1 
f 25/25/1 26/26/1 27/27/1 28/28/1 
f 9/9/5 10/10/5 24/24/5 23/23/5 
f 16/16/6 9/9/6 23/23/6 30/30/6 
f 17/17/3 18/18/3 32/32/3 31/31/3 
f 10/10/7 15/15/7 29/29/7 24/24/7 
f 11/11/5 12/12/5 26/26/5 25/25/5 
f 14/14/8 11/11/8 25/25/8 28/28/8 
f 19/19/3 20/20/3 34/34/3 33/33/3 
f 12/12/9 13/13/9 27/27/9 26/26/9 
f 5/5/5 6/6/5 2/2/5 4/4/5 
f 20/20/10 5/5/10 4/4/10 34/34/10 
f 13/13/3 14/14/3 28/28/3 27/27/3 
f 6/6/11 19/19/11 33/33/11 2/2/11 
#end 24 faces

#ZOMPROPERTIES_04{
#ZOMPROPERTIES_04 table {Mesh table {SymPlane table {Point vector3d 0 0 0 Normal vector3d 1 0 0 Threshold double 0.01 
#ZOMPROPERTIES_04 Enabled bool false EdgeID int -1 SymEdgeID int -1 UPos double 0.5 LocalMode bool false } RootGroup C
#ZOMPROPERTIES_04 SubMeshGroup {Children table {Tile_0_0 CSubMeshGroup {Children table {} BBoxUV box3d 0 0 0 0 0 0 BBo
#ZOMPROPERTIES_04 x3D box3d 0 0 0 0 0 0 Area3D double 0 AreaUV double 0.438095 IsRoot bool false Properties table {Sel
#ZOMPROPERTIES_04 ected bool false Box box3d 0 1 0 1 0 1 U int 0 V int 0 NU int 0 NV int 0 Tiling vector3d 1 1 1 TileR
#ZOMPROPERTIES_04 atioMode string "1:1" Overflow string "Off" Pack table {BoxFrameEdit bool false Behavior string "Fre
#ZOMPROPERTIES_04 e" } } IsTile bool true PolyIDs ints { 0 18 21 1 23 3 6 9 2 5 13 10 15 7 17 11 19 22 16 4 12 14 8 20
#ZOMPROPERTIES_04  } } } BBoxUV box3d 0 0 0 0 0 0 BBox3D box3d 0 0 0 0 0 0 Area3D double 0 AreaUV double 0 IsRoot bool
#ZOMPROPERTIES_04  true Properties table {Selected bool false Box box3d 0 1 0 1 0 1 U int 0 V int 0 NU int 1 NV int 1 
#ZOMPROPERTIES_04 Tiling vector3d 1 1 1 TileRatioMode string "1:1" Overflow string "Off" Pack table {Rotate table {Mod
#ZOMPROPERTIES_04 e int 0 Min double 0 Max double 90 Step double 0 } PaddingSize double 0.0078125 MarginSize double 0.
#ZOMPROPERTIES_04 00390625 Resolution int 256 MapResolution int 2048 Scaling table {TexelDensity double 1024 Mode int 
#ZOMPROPERTIES_04 2 } LayoutScalingMode int 2 MaxMutations int 1 } } IsTile bool false PolyIDs ints { } } Maps table {
#ZOMPROPERTIES_04 Pin table {PrimType string "Vertex" Size int 1 DefaultValue double 0 ScaleType string "Normalized" M
#ZOMPROPERTIES_04 ergeMode string "Max" MinValue double 0 MaxValue double 1 Data doubles { r 34 0 } } Density table {P
#ZOMPROPERTIES_04 rimType string "Polygon" Size int 1 DefaultValue double 1 ScaleType string "Log" MergeMode string "A
#ZOMPROPERTIES_04 verage" MinValue double 0.1 MaxValue double 4 Data doubles { r 24 1 } } Protect table {PrimType stri
#ZOMPROPERTIES_04 ng "Vertex" Size int 1 DefaultValue double 0 ScaleType string "Normalized" MergeMode string "Average
#ZOMPROPERTIES_04 " MinValue double -1 MaxValue double 1 Data doubles { r 34 0 } } } } }
#ZOMPROPERTIES_04}


#ZOMSCENE_01{
#ZOMSCENE_01 CScene {Settings table {AxisSystem table {UpVector string "y" } Unit string "cm" TexelDensityDisplay
#ZOMSCENE_01 Unit string "tx/cm" } Root table {} }
#ZOMSCENE_01}

#begin 0 fatal error vertex (that RizomUV cannot handle)
#end 0 fatal error vertex (that RizomUV cannot handle)

#begin 0 error vertex
#end 0 error vertex
