#File written by RizomUV 2023.0.70.ge90189e8. Compilation :Sep 22 2023,12:42:11
mtllib socalo blanco.mtl
#begin vertices
v 13.8733 9.448512 -12.98594
v 13.8733 9.770034 -12.98594
v 14.15102 9.448512 -12.98594
v 14.15102 9.770034 -12.98594
v 14.15102 9.609273 -12.98594
v 13.74544 9.448512 -12.98594
v 13.74544 9.609273 -12.98594
v 13.81805 9.609273 -12.98594
v 13.8733 9.664528 -12.98594
v 13.85712 9.625456 -12.98594
v 13.73022 9.448512 -13.11372
v 13.73022 9.770034 -13.11372
v 13.73022 9.448512 -13.39143
v 13.73022 9.770034 -13.39143
v 13.73022 9.609273 -13.39143
v 13.73022 9.609273 -12.98586
v 13.73022 9.448512 -12.98586
v 13.73022 9.664528 -13.11372
v 13.73022 9.609273 -13.05846
v 13.73022 9.625456 -13.09753
v 13.83956 9.448512 -13.04053
v 13.78954 9.448512 -13.0847
v 13.74157 9.448512 -12.98712
v 13.73612 9.448512 -12.98671
v 13.74157 9.609273 -12.98712
v 13.73612 9.609273 -12.98671
v 13.79713 9.609273 -13.01732
v 13.76633 9.609273 -13.04227
v 13.82713 9.625456 -13.03373
v 13.78274 9.625456 -13.07227
v 13.83956 9.664528 -13.04053
v 13.78954 9.664528 -13.0847
v 13.83956 9.770034 -13.04053
v 13.78954 9.770034 -13.0847
v 14.05289 9.770034 -13.15727
v 13.90627 9.770034 -13.29803
v 14.05289 9.609273 -13.15727
v 13.90627 9.609273 -13.29803
v 14.05289 9.448512 -13.15727
v 13.90627 9.448512 -13.29803
#end vertices

#begin 48 textures vertices 
vt 0.2082927 0.6264799 0
vt 0.8706983 0.1878829 0
vt 0.4885463 0.6588431 0
vt 0.7583318 0.4940477 0
vt 0.6259649 0.5766404 0
vt 0.08365901 0.6004693 0
vt 0.04545649 0.7500276 0
vt 0.1148574 0.7730167 0
vt 0.1809729 0.8253737 0
vt 0.1531856 0.793067 0
vt 0.09411921 0.4730119 0
vt 0.04799236 0.9960938 0
vt 0.1704461 0.2030335 0
vt 0.4755111 0.00390625 0
vt 0.2964162 0.09896272 0
vt 0.03099749 0.7461934 0
vt 0.06915641 0.5969539 0
vt 0.01021395 0.8999508 0
vt 0.01091476 0.8154496 0
vt 0.00390625 0.8579483 0
vt 0.1836014 0.5675526 0
vt 0.1444589 0.5146589 0
vt 0.0799542 0.59893 0
vt 0.07479144 0.5979369 0
vt 0.04151339 0.7495144 0
vt 0.03646388 0.747953 0
vt 0.08419819 0.7939538 0
vt 0.04876514 0.8080974 0
vt 0.1073368 0.8209501 0
vt 0.05707034 0.842594 0
vt 0.1274919 0.8543388 0
vt 0.06957238 0.8798784 0
vt 0.1690731 0.9464792 0
vt 0.1083606 0.9724244 0
vt 0.6777247 0.3234707 0
vt 0.570263 0.1693764 0
vt 0.5308257 0.4118636 0
vt 0.419124 0.2489489 0
vt 0.4035293 0.4919983 0
vt 0.2970479 0.3399034 0
vt 0.7852329 0.0857267 0
vt 0.2258543 0.919019 0
vt 0.8239289 0.1420761 0
vt 0.7614171 0.02301891 0
vt 0.6593483 0.3282016 0
vt 0.7978123 0.4642441 0
vt 0.5446956 0.1593717 0
vt 0.4230021 0.00390625 0
#end 48 textures vertices 

#begin 30 normals 
vn -0 -1 -0
vn -0.2909 -0 0.9567
vn -0.1101 -0 0.9939
vn 0.1088 -0 0.9941
vn 0.143 -0 0.9897
vn -0 1 -0
vn -0.2552 0.9529 0.1641
vn -0.18 0.9698 0.1646
vn -0.1295 0.9714 0.1992
vn -0.1153 0.9623 0.2464
vn -0.366 0.9004 0.2353
vn -0.3319 0.9005 0.281
vn -0.2302 0.9032 0.3623
vn -0.1788 0.9066 0.3823
vn -0.7996 0.3361 0.4977
vn -0.8391 0.1588 0.5202
vn -0.7545 0.1676 0.6345
vn -0.7141 0.3351 0.6146
vn -0.5453 0.1698 0.8208
vn -0.5221 0.339 0.7826
vn -0.4321 0.1652 0.8865
vn -0.4099 0.3449 0.8444
vn -0.8507 -0 0.5257
vn -0.7645 -0 0.6446
vn -0.5556 -0 0.8314
vn -0.4394 -0 0.8983
vn 0.8677 -0 -0.497
vn 0.7882 -0 -0.6155
vn 0.5862 -0 -0.8101
vn 0.4687 -0 -0.8834
#end 30 normals 

#begin 30 faces
o Cube:040
s 1
f 1/1/1 6/6/1 23/23/1 21/21/1 
f 21/21/1 23/23/1 24/24/1 22/22/1 
f 22/22/1 24/24/1 17/17/1 11/11/1 
f 6/6/2 7/7/2 25/25/3 23/23/3 
f 23/23/3 25/25/3 26/26/4 24/24/4 
f 24/24/4 26/26/4 16/16/5 17/17/5 
f 7/7/6 8/8/7 27/27/8 25/25/6 
f 25/25/6 27/27/8 28/28/9 26/26/6 
f 26/26/6 28/28/9 19/19/10 16/16/6 
f 8/8/7 10/10/11 29/29/12 27/27/8 
f 27/27/8 29/29/12 30/30/13 28/28/9 
f 28/28/9 30/30/13 20/20/14 19/19/10 
f 10/10/15 9/9/16 31/31/17 29/29/18 
f 29/29/18 31/31/17 32/32/19 30/30/20 
f 30/30/20 32/32/19 18/18/21 20/20/22 
f 9/9/16 2/42/23 33/33/24 31/31/17 
f 31/31/17 33/33/24 34/34/25 32/32/19 
f 32/32/19 34/34/25 12/12/26 18/18/21 
f 2/2/6 4/46/6 35/35/6 33/43/6 
f 33/43/6 35/35/6 36/36/6 34/41/6 
f 34/41/6 36/36/6 14/14/6 12/44/6 
f 4/4/27 5/5/27 37/37/28 35/45/28 
f 35/45/28 37/37/28 38/38/29 36/47/29 
f 36/47/29 38/38/29 15/15/30 14/48/30 
f 5/5/27 3/3/27 39/39/28 37/37/28 
f 37/37/28 39/39/28 40/40/29 38/38/29 
f 38/38/29 40/40/29 13/13/30 15/15/30 
f 3/3/1 1/1/1 21/21/1 39/39/1 
f 39/39/1 21/21/1 22/22/1 40/40/1 
f 40/40/1 22/22/1 11/11/1 13/13/1 
#end 30 faces

#ZOMPROPERTIES_04{
#ZOMPROPERTIES_04 table {Mesh table {SymPlane table {Point vector3d 0 0 0 Normal vector3d 1 0 0 Threshold double 0.01 
#ZOMPROPERTIES_04 Enabled bool false EdgeID int -1 SymEdgeID int -1 UPos double 0.5 LocalMode bool false } RootGroup C
#ZOMPROPERTIES_04 SubMeshGroup {Children table {Tile_0_0 CSubMeshGroup {Children table {} BBoxUV box3d 0 0 0 0 0 0 BBo
#ZOMPROPERTIES_04 x3D box3d 0 0 0 0 0 0 Area3D double 0 AreaUV double 0.403658 IsRoot bool false Properties table {Sel
#ZOMPROPERTIES_04 ected bool false Box box3d 0 1 0 1 0 1 U int 0 V int 0 NU int 0 NV int 0 Tiling vector3d 1 1 1 TileR
#ZOMPROPERTIES_04 atioMode string "1:1" Overflow string "Off" Pack table {BoxFrameEdit bool false Behavior string "Fre
#ZOMPROPERTIES_04 e" } } IsTile bool true PolyIDs ints { 18 19 20 0 1 2 29 26 25 28 24 27 21 22 23 5 8 11 14 17 16 15 
#ZOMPROPERTIES_04 12 9 6 3 7 10 13 4 } } } BBoxUV box3d 0 0 0 0 0 0 BBox3D box3d 0 0 0 0 0 0 Area3D double 0 AreaUV do
#ZOMPROPERTIES_04 uble 0 IsRoot bool true Properties table {Selected bool false Box box3d 0 1 0 1 0 1 U int 0 V int 0 
#ZOMPROPERTIES_04 NU int 1 NV int 1 Tiling vector3d 1 1 1 TileRatioMode string "1:1" Overflow string "Off" Pack table 
#ZOMPROPERTIES_04 {Rotate table {Mode int 0 Min double 0 Max double 90 Step double 0 } PaddingSize double 0.0078125 Ma
#ZOMPROPERTIES_04 rginSize double 0.00390625 Resolution int 256 MapResolution int 2048 Scaling table {TexelDensity dou
#ZOMPROPERTIES_04 ble 1024 Mode int 2 } LayoutScalingMode int 2 MaxMutations int 1 } } IsTile bool false PolyIDs ints 
#ZOMPROPERTIES_04 { } } Maps table {Pin table {PrimType string "Vertex" Size int 1 DefaultValue double 0 ScaleType str
#ZOMPROPERTIES_04 ing "Normalized" MergeMode string "Max" MinValue double 0 MaxValue double 1 Data doubles { r 48 0 } 
#ZOMPROPERTIES_04 } Density table {PrimType string "Polygon" Size int 1 DefaultValue double 1 ScaleType string "Log" M
#ZOMPROPERTIES_04 ergeMode string "Average" MinValue double 0.1 MaxValue double 4 Data doubles { r 30 1 } } Protect ta
#ZOMPROPERTIES_04 ble {PrimType string "Vertex" Size int 1 DefaultValue double 0 ScaleType string "Normalized" MergeMo
#ZOMPROPERTIES_04 de string "Average" MinValue double -1 MaxValue double 1 Data doubles { r 48 0 } } } } }
#ZOMPROPERTIES_04}


#ZOMSCENE_01{
#ZOMSCENE_01 CScene {Settings table {AxisSystem table {UpVector string "y" } Unit string "cm" TexelDensityDisplay
#ZOMSCENE_01 Unit string "tx/cm" } Root table {} }
#ZOMSCENE_01}

#begin 0 fatal error vertex (that RizomUV cannot handle)
#end 0 fatal error vertex (that RizomUV cannot handle)

#begin 0 error vertex
#end 0 error vertex
