#File written by RizomUV 2023.0.70.ge90189e8. Compilation :Sep 22 2023,12:42:11
mtllib portaretrato.mtl
#begin vertices
v 5.086573 17.15379 47.60454
v 5.072177 17.21945 47.66907
v 5.082357 17.17302 47.65017
v 4.591919 19.41007 47.66907
v 4.577524 19.47573 47.60454
v 4.581739 19.4565 47.65017
v 5.072177 17.21945 45.93814
v 5.086573 17.15379 46.00268
v 5.082357 17.17302 45.95704
v 4.577524 19.47573 46.00268
v 4.591919 19.41007 45.93814
v 4.581739 19.4565 45.95704
v 5.178747 17.25734 47.54511
v 5.164299 17.32324 47.60979
v 5.174515 17.27665 47.59084
v 4.719016 19.35433 47.60979
v 4.704568 19.42023 47.54511
v 4.708799 19.40093 47.59084
v 5.164299 17.32324 45.99742
v 5.178747 17.25734 46.0621
v 5.174515 17.27665 46.01637
v 4.704568 19.42023 46.0621
v 4.719016 19.35433 45.99742
v 4.708799 19.40093 46.01637
v 4.687133 19.49976 46.00282
v 4.701581 19.43386 45.93814
v 4.691364 19.48045 45.95708
v 5.181734 17.24372 45.93814
v 5.196182 17.17782 46.00282
v 5.19195 17.19712 45.95708
v 5.196182 17.17782 47.6044
v 5.181734 17.24372 47.66907
v 5.19195 17.19712 47.65013
v 4.701581 19.43386 47.66907
v 4.687133 19.49976 47.6044
v 4.691364 19.48045 47.65013
v 4.672249 19.34433 45.99742
v 4.657854 19.40999 46.06196
v 4.662071 19.39076 46.01633
v 5.132033 17.2471 46.06196
v 5.117638 17.31276 45.99742
v 5.127817 17.26634 46.01633
v 5.117638 17.31276 47.60979
v 5.132033 17.2471 47.54525
v 5.127817 17.26634 47.59089
v 4.657854 19.40999 47.54525
v 4.672249 19.34433 47.60979
v 4.662071 19.39076 47.59089
v 4.657854 19.40999 45.99742
v 5.132034 17.2471 45.99742
v 5.132034 17.2471 47.60979
v 4.657854 19.40999 47.60979
v 4.68084 19.41503 45.99742
v 5.155019 17.25214 45.99742
v 5.155019 17.25214 47.60979
v 4.68084 19.41503 47.60979
v 3.849629 17.10473 47.06457
v 3.823444 17.12492 47.06457
v 3.849629 17.10473 46.53413
v 3.823444 17.12492 46.53413
v 4.869974 18.42854 47.06457
v 4.843789 18.44872 47.06457
v 4.869974 18.42854 46.53413
v 4.843789 18.44872 46.53413
v 4.12309 17.45952 46.53413
v 4.096905 17.47971 46.53413
v 4.12309 17.45952 47.06457
v 4.096905 17.47971 47.06457
v 3.849629 17.10473 46.79935
v 3.823444 17.12492 46.79935
v 4.869974 18.42854 46.79935
v 4.843789 18.44872 46.79935
v 4.096905 17.47971 46.79935
v 4.12309 17.45952 46.79935
#end vertices

#begin 109 textures vertices 
vt 0.04518426 0.05172684 0
vt 0.05647435 0.0405629 0
vt 0.04841893 0.04377102 0
vt 0.4899402 0.04955602 0
vt 0.5007336 0.05922253 0
vt 0.4968145 0.05295791 0
vt 0.05047762 0.3719308 0
vt 0.03968368 0.3622759 0
vt 0.04360409 0.3685371 0
vt 0.4951812 0.3697153 0
vt 0.4838974 0.3808812 0
vt 0.4919496 0.377672 0
vt 0.3004409 0.4542206 0
vt 0.3091668 0.4615896 0
vt 0.03577497 0.0255503 0
vt 0.3366167 0.8570083 0
vt 0.3289358 0.86657 0
vt 0.5111175 0.0343017 0
vt 0.01303775 0.5015532 0
vt 0.02074255 0.491986 0
vt 0.02931906 0.3872042 0
vt 0.04917602 0.9041128 0
vt 0.04046424 0.896751 0
vt 0.504606 0.3958901 0
vt 0.512541 0.3778632 0
vt 0.489967 0.4000006 0
vt 0.501138 0.3884962 0
vt 0.04386284 0.3913236 0
vt 0.0214838 0.3694833 0
vt 0.03290262 0.3799724 0
vt 0.02782684 0.04357643 0
vt 0.05041143 0.02144221 0
vt 0.03923638 0.0329472 0
vt 0.4965758 0.03016938 0
vt 0.5189377 0.05202954 0
vt 0.5075259 0.04153231 0
vt 0.03140394 0.8980661 0
vt 0.04963932 0.9132583 0
vt 0.03831803 0.9085196 0
vt 0.01877884 0.4830776 0
vt 0.00390625 0.5014997 0
vt 0.009019065 0.4902012 0
vt 0.3182027 0.4602756 0
vt 0.2999668 0.4450757 0
vt 0.3112936 0.4498179 0
vt 0.3308862 0.8754814 0
vt 0.3457725 0.8570571 0
vt 0.3406568 0.8683656 0
vt 0.4509285 0.9856647 0
vt 0.9811334 0.9804473 0
vt 0.9773342 0.5943659 0
vt 0.4471293 0.5995833 0
vt 0.53592 0.5456081 0
vt 0.9819125 0.5517229 0
vt 0.9863652 0.2269627 0
vt 0.5403726 0.2208479 0
vt 0.2809616 0.8247745 0
vt 0.3674897 0.807468 0
vt 0.1387317 0.7374763 0
vt 0.9322809 0.04789111 0
vt 0.06711295 0.4948323 0
vt 0.8132533 0.009722124 0
vt 0.8184997 0.1157918 0
vt 0.8167188 0.1100919 0
vt 0.5838316 0.1239704 0
vt 0.5835933 0.1176247 0
vt 0.3741272 0.8924751 0
vt 0.8824881 0.133251 0
vt 0.3735509 0.7570952 0
vt 0.9077839 0.00390625 0
vt 0.8232871 0.05936792 0
vt 0.816815 0.05969918 0
vt 0.8579911 0.08926612 0
vt 0.3002219 0.5355705 0
vt 0.581987 0.06694584 0
vt 0.1412917 0.6838519 0
vt 0.2209331 0.7462746 0
vt 0.3666969 0.6217422 0
vt 0.5807695 0.01594052 0
vt 0.2976861 0.4854097 0
vt 0.367275 0.757122 0
vt 0.3678515 0.8925017 0
vt 0.9567779 0.09187597 0
vt 0.8334942 0.04528126 0
vt 0.3670604 0.7067759 0
vt 0.3729727 0.6217153 0
vt 0.3733363 0.7067492 0
vt 0.1909257 0.7488777 0
vt 0.3737656 0.8074412 0
vt 0.2709278 0.7403339 0
vt 0.2309669 0.8307152 0
vt 0.2384053 0.6955488 0
vt 0.3067459 0.455327 0
vt 0.06490036 0.01061384 0
vt 0.4824461 0.01869601 0
vt 0.334944 0.8636786 0
vt 0.01333979 0.05079145 0
vt 0.01474044 0.4948861 0
vt 0.007557564 0.3613981 0
vt 0.05799892 0.4027966 0
vt 0.4754908 0.4108298 0
vt 0.04286468 0.9030086 0
vt 0.5270302 0.3706547 0
vt 0.5328629 0.0601118 0
vt 0.5806674 0.009588934 0
vt 0.3026344 0.5853314 0
vt 0.8148334 0.00390625 0
vt 0.07197008 0.5986368 0
vt 0.07268575 0.5463897 0
#end 109 textures vertices 

#begin 58 normals 
vn 0.0405 -0.1833 0.9822
vn -0.0399 0.1834 0.9822
vn -0.04 0.1839 0.9821
vn 0.0406 -0.1838 0.9821
vn -0.2104 0.9565 -0.202
vn -0.2104 0.9565 0.202
vn -0.2104 0.9564 0.2028
vn -0.2104 0.9564 -0.2028
vn 0.209 -0.9568 0.202
vn 0.209 -0.9568 -0.202
vn 0.209 -0.9567 -0.2028
vn 0.209 -0.9567 0.2028
vn -0.2094 0.9567 -0.2022
vn -0.2094 0.9566 -0.2025
vn -0.2094 0.9566 0.2025
vn -0.2094 0.9567 0.2022
vn -0.9768 -0.2141 -0
vn 0.0407 -0.1838 -0.9821
vn -0.04 0.184 -0.9821
vn -0.0399 0.1835 -0.9822
vn 0.0405 -0.1833 -0.9822
vn 0.0393 -0.1833 -0.9823
vn -0.041 0.1829 -0.9823
vn -0.0412 0.1841 -0.9821
vn 0.0396 -0.1844 -0.9821
vn -0.041 0.1829 0.9823
vn 0.0393 -0.1833 0.9823
vn 0.0396 -0.1844 0.9821
vn -0.0412 0.1841 0.9821
vn 0.9768 0.2141 -0
vn 0.21 -0.9566 -0.2022
vn 0.21 -0.9565 -0.2025
vn 0.1972 -0.8967 -0.3963
vn 0.0797 -0.3606 -0.9293
vn -0.196 0.8969 -0.3963
vn -0.0784 0.3609 -0.9293
vn 0.21 -0.9565 0.2025
vn 0.21 -0.9566 0.2022
vn 0.1972 -0.8967 0.3963
vn 0.0797 -0.3605 0.9293
vn -0.196 0.8969 0.3963
vn -0.0784 0.3608 0.9293
vn -0.198 0.8965 -0.3964
vn -0.0807 0.3604 -0.9293
vn 0.1952 -0.8971 -0.3964
vn 0.0775 -0.3611 -0.9293
vn -0.0807 0.3604 0.9293
vn -0.198 0.8965 0.3964
vn 0.0775 -0.3611 0.9293
vn 0.1952 -0.8971 0.3964
vn 0.9768 0.2141 -0
vn 0.9768 0.2141 -0
vn -0.6105 -0.792 -0
vn -0 -0 -1
vn 0.6105 0.792 -0
vn -0 -0 1
vn 0.792 -0.6105 -0
vn -0.792 0.6105 -0
#end 58 normals 

#begin 55 faces
o Cube:103
s 1
f 32/32/1 34/34/2 4/4/3 2/2/4 
f 13/13/5 20/20/6 40/40/7 44/44/8 
f 22/22/9 17/17/10 46/46/11 38/38/12 
f 25/25/13 10/10/14 5/5/15 35/35/16 
f 1/1/17 3/3/17 2/2/17 4/4/17 6/6/17 5/5/17 10/10/17 12/12/17 11/11/17 7/7/17 9/9/17 8/8/17 
f 7/7/18 11/11/19 26/26/20 28/28/21 
f 16/16/22 14/14/23 43/43/24 47/47/25 
f 19/19/26 23/23/27 37/37/28 41/41/29 
f 20/99/30 13/97/30 31/31/30 29/29/30 
f 14/94/30 16/95/30 34/34/30 32/32/30 
f 17/104/30 22/103/30 25/25/30 35/35/30 
f 23/101/30 19/100/30 28/28/30 26/26/30 
f 29/29/31 8/8/32 9/9/33 30/30/33 
f 30/30/34 9/9/34 7/7/18 28/28/21 
f 10/10/14 25/25/13 27/27/35 12/12/35 
f 12/12/36 27/27/36 26/26/20 11/11/19 
f 1/1/37 31/31/38 33/33/39 3/3/39 
f 3/3/40 33/33/40 32/32/1 2/2/4 
f 35/35/16 5/5/15 6/6/41 36/36/41 
f 36/36/42 6/6/42 4/4/3 34/34/2 
f 25/25/30 22/103/30 24/24/30 27/27/30 
f 27/27/30 24/24/30 23/101/30 26/26/30 
f 20/99/30 29/29/30 30/30/30 21/21/30 
f 21/21/30 30/30/30 28/28/30 19/100/30 
f 14/94/30 32/32/30 33/33/30 15/15/30 
f 15/15/30 33/33/30 31/31/30 13/97/30 
f 34/34/30 16/95/30 18/18/30 36/36/30 
f 36/36/30 18/18/30 17/104/30 35/35/30 
f 13/13/5 44/44/8 45/45/43 15/93/43 
f 15/93/44 45/45/44 43/43/24 14/14/23 
f 46/46/11 17/17/10 18/96/45 48/48/45 
f 48/48/46 18/96/46 16/16/22 47/47/25 
f 19/19/26 41/41/29 42/42/47 21/98/47 
f 21/98/48 42/42/48 40/40/7 20/20/6 
f 37/37/28 23/23/27 24/102/49 39/39/49 
f 39/39/50 24/102/50 22/22/9 38/38/12 
f 8/8/32 29/29/31 31/31/38 1/1/37 
o Cube:104
s 0
f 50/50/51 49/49/51 52/52/51 51/51/51 
o Cube:105
s 0
f 54/54/52 53/53/52 56/56/52 55/55/52 
o Cube:106
s 0
f 69/69/53 70/81/53 60/85/53 59/87/53 
f 65/65/54 66/66/54 64/64/54 63/63/54 
f 71/71/55 72/72/55 62/62/55 61/107/55 
f 67/67/56 68/82/56 58/58/56 57/89/56 
f 74/74/57 71/109/57 61/61/57 67/80/57 
f 73/73/58 70/60/58 58/83/58 68/68/58 
f 72/72/58 73/75/58 68/79/58 62/62/58 
f 69/91/57 74/77/57 67/90/57 57/57/57 
f 61/107/56 62/62/56 68/79/56 67/105/56 
f 59/87/54 60/85/54 66/78/54 65/86/54 
f 59/59/57 65/76/57 74/92/57 69/88/57 
f 64/64/58 66/66/58 73/75/58 72/72/58 
f 66/84/58 60/70/58 70/60/58 73/73/58 
f 65/106/57 63/108/57 71/109/57 74/74/57 
f 63/63/55 64/64/55 72/72/55 71/71/55 
f 57/89/53 58/58/53 70/81/53 69/69/53 
#end 55 faces

#ZOMPROPERTIES_04{
#ZOMPROPERTIES_04 table {Mesh table {SymPlane table {Point vector3d 0 0 0 Normal vector3d 1 0 0 Threshold double 0.01 
#ZOMPROPERTIES_04 Enabled bool false EdgeID int -1 SymEdgeID int -1 UPos double 0.5 LocalMode bool false } RootGroup C
#ZOMPROPERTIES_04 SubMeshGroup {Children table {Tile_0_0 CSubMeshGroup {Children table {} BBoxUV box3d 0 0 0 0 0 0 BBo
#ZOMPROPERTIES_04 x3D box3d 0 0 0 0 0 0 Area3D double 0 AreaUV double 0.632138 IsRoot bool false Properties table {Sel
#ZOMPROPERTIES_04 ected bool false Box box3d 0 1 0 1 0 1 U int 0 V int 0 NU int 0 NV int 0 Tiling vector3d 1 1 1 TileR
#ZOMPROPERTIES_04 atioMode string "1:1" Overflow string "Off" Pack table {BoxFrameEdit bool false Behavior string "Fre
#ZOMPROPERTIES_04 e" } } IsTile bool true PolyIDs ints { 39 48 54 42 49 46 44 51 1 33 32 7 34 35 2 30 31 6 29 28 43 52
#ZOMPROPERTIES_04  40 50 45 47 41 53 38 0 4 17 16 25 24 9 8 22 23 11 21 20 14 3 18 19 27 26 10 15 5 36 12 13 37 } } } 
#ZOMPROPERTIES_04 BBoxUV box3d 0 0 0 0 0 0 BBox3D box3d 0 0 0 0 0 0 Area3D double 0 AreaUV double 0 IsRoot bool true P
#ZOMPROPERTIES_04 roperties table {Selected bool false Box box3d 0 1 0 1 0 1 U int 0 V int 0 NU int 1 NV int 1 Tiling 
#ZOMPROPERTIES_04 vector3d 1 1 1 TileRatioMode string "1:1" Overflow string "Off" Pack table {Rotate table {Mode int 0
#ZOMPROPERTIES_04  Min double 0 Max double 90 Step double 0 } PaddingSize double 0.0078125 MarginSize double 0.0039062
#ZOMPROPERTIES_04 5 Resolution int 256 MapResolution int 2048 Scaling table {TexelDensity double 1024 Mode int 2 } Lay
#ZOMPROPERTIES_04 outScalingMode int 2 MaxMutations int 1 } } IsTile bool false PolyIDs ints { } } Maps table {Pin tab
#ZOMPROPERTIES_04 le {PrimType string "Vertex" Size int 1 DefaultValue double 0 ScaleType string "Normalized" MergeMod
#ZOMPROPERTIES_04 e string "Max" MinValue double 0 MaxValue double 1 Data doubles { r 109 0 } } Density table {PrimTyp
#ZOMPROPERTIES_04 e string "Polygon" Size int 1 DefaultValue double 1 ScaleType string "Log" MergeMode string "Average
#ZOMPROPERTIES_04 " MinValue double 0.1 MaxValue double 4 Data doubles { r 55 1 } } Protect table {PrimType string "Ve
#ZOMPROPERTIES_04 rtex" Size int 1 DefaultValue double 0 ScaleType string "Normalized" MergeMode string "Average" MinV
#ZOMPROPERTIES_04 alue double -1 MaxValue double 1 Data doubles { r 109 0 } } } } }
#ZOMPROPERTIES_04}


#ZOMSCENE_01{
#ZOMSCENE_01 CScene {Settings table {AxisSystem table {UpVector string "y" } Unit string "cm" TexelDensityDisplay
#ZOMSCENE_01 Unit string "tx/cm" } Root table {} }
#ZOMSCENE_01}

#begin 0 fatal error vertex (that RizomUV cannot handle)
#end 0 fatal error vertex (that RizomUV cannot handle)

#begin 0 error vertex
#end 0 error vertex
