#File written by RizomUV 2023.0.70.ge90189e8. Compilation :Sep 22 2023,12:42:11
mtllib CELULAR2.mtl
#begin vertices
v 31.06722 7.050993 28.45324
v 31.06722 7.081623 28.49136
v 31.06722 7.055097 28.4723
v 31.06722 7.066308 28.48625
v 31.06722 7.703151 28.49136
v 31.06722 7.733781 28.45324
v 31.06722 7.718466 28.48625
v 31.06722 7.729677 28.4723
v 31.06722 7.081623 27.1161
v 31.06722 7.050993 27.15421
v 31.06722 7.066308 27.1212
v 31.06722 7.055097 27.13515
v 31.06722 7.733781 27.15421
v 31.06722 7.703151 27.1161
v 31.06722 7.729677 27.13515
v 31.06722 7.718466 27.1212
v 31.01961 7.081204 28.39224
v 31.01961 7.111883 28.43051
v 31.01961 7.085314 28.41137
v 31.01961 7.096543 28.42538
v 31.01961 7.672892 28.43051
v 31.01961 7.703569 28.39224
v 31.01961 7.688231 28.42538
v 31.01961 7.69946 28.41137
v 31.01961 7.111883 27.17695
v 31.01961 7.081204 27.21521
v 31.01961 7.096543 27.18208
v 31.01961 7.085314 27.19608
v 31.01961 7.703569 27.21521
v 31.01961 7.672892 27.17695
v 31.01961 7.69946 27.19608
v 31.01961 7.688231 27.18208
v 31.01961 7.733781 27.15436
v 31.01961 7.703103 27.1161
v 31.01961 7.729671 27.13523
v 31.01961 7.718441 27.12122
v 31.01961 7.081671 27.1161
v 31.01961 7.050993 27.15436
v 31.01961 7.066332 27.12122
v 31.01961 7.055104 27.13523
v 31.01961 7.050993 28.45309
v 31.01961 7.081671 28.49136
v 31.01961 7.055104 28.47223
v 31.01961 7.066332 28.48623
v 31.01961 7.703103 28.49136
v 31.01961 7.733781 28.45309
v 31.01961 7.718441 28.48623
v 31.01961 7.729671 28.47223
v 31.04877 7.67294 27.17695
v 31.04877 7.703569 27.21506
v 31.04877 7.688255 27.18205
v 31.04877 7.699466 27.196
v 31.04877 7.081204 27.21506
v 31.04877 7.111834 27.17695
v 31.04877 7.085308 27.196
v 31.04877 7.096519 27.18205
v 31.04877 7.111834 28.43051
v 31.04877 7.081204 28.39239
v 31.04877 7.096519 28.4254
v 31.04877 7.085308 28.41145
v 31.04877 7.703569 28.39239
v 31.04877 7.67294 28.43051
v 31.04877 7.699466 28.41145
v 31.04877 7.688255 28.4254
v 31.04877 7.703569 27.17695
v 31.04877 7.081204 27.17695
v 31.04877 7.081204 28.43051
v 31.04877 7.703569 28.43051
v 31.04877 7.081204 28.265
v 31.04877 7.081204 27.34246
v 31.04877 7.703569 27.34246
v 31.04877 7.703569 28.265
v 31.04877 7.552125 27.17695
v 31.04877 7.232649 27.17695
v 31.04877 7.445632 27.17695
v 31.04877 7.339141 27.17695
v 31.04877 7.232649 28.43051
v 31.04877 7.552125 28.43051
v 31.04877 7.33914 28.4305
v 31.04877 7.445633 28.4305
v 31.02854 7.550821 27.34246
v 31.02854 7.233953 27.34246
v 31.02086 7.450378 27.34246
v 31.02086 7.334396 27.34246
v 31.02854 7.233953 28.265
v 31.02854 7.550821 28.265
v 31.02086 7.334396 28.265
v 31.02086 7.450378 28.265
#end vertices

#begin 104 textures vertices 
vt 0.06547456 0.1311883 0
vt 0.05114924 0.1436515 0
vt 0.05788048 0.1328989 0
vt 0.05283163 0.1375919 0
vt 0.05555516 0.4209208 0
vt 0.06877626 0.4304723 0
vt 0.05779285 0.4260602 0
vt 0.0622298 0.4303366 0
vt 0.6684862 0.1403173 0
vt 0.6553711 0.1302692 0
vt 0.6663166 0.135095 0
vt 0.6619035 0.1306593 0
vt 0.6559894 0.4282889 0
vt 0.6701445 0.4158298 0
vt 0.663516 0.4265702 0
vt 0.6683948 0.4218307 0
vt 0.7253272 0.4424258 0
vt 0.7315842 0.4499484 0
vt 0.06034382 0.1073871 0
vt 0.03495077 0.1220433 0
vt 0.9241738 0.4446841 0
vt 0.9315035 0.4368852 0
vt 0.0394234 0.4419244 0
vt 0.06458997 0.4553569 0
vt 0.7516028 0.02953089 0
vt 0.7442848 0.03737243 0
vt 0.6864022 0.1205254 0
vt 0.6612392 0.1062324 0
vt 0.9504843 0.03213672 0
vt 0.9442033 0.0246726 0
vt 0.6613467 0.4523065 0
vt 0.6861077 0.437772 0
vt 0.6629583 0.4473877 0
vt 0.6856831 0.4234809 0
vt 0.6724462 0.4388411 0
vt 0.679066 0.4304786 0
vt 0.6846876 0.1331194 0
vt 0.662642 0.1110071 0
vt 0.6781706 0.1265551 0
vt 0.6719897 0.1187134 0
vt 0.05882869 0.1122814 0
vt 0.03573706 0.1360143 0
vt 0.04913744 0.1206767 0
vt 0.04240489 0.1289809 0
vt 0.03947082 0.4288631 0
vt 0.06269555 0.4497569 0
vt 0.04637119 0.4349821 0
vt 0.0531063 0.4424987 0
vt 0.9446466 0.01464336 0
vt 0.9605478 0.03207793 0
vt 0.9516219 0.01785638 0
vt 0.9574929 0.02356366 0
vt 0.7342868 0.03637707 0
vt 0.7506669 0.01957539 0
vt 0.7379292 0.02820701 0
vt 0.7438879 0.02281761 0
vt 0.7311622 0.4599302 0
vt 0.7152636 0.4424844 0
vt 0.7241789 0.4567211 0
vt 0.7183105 0.4510013 0
vt 0.9415015 0.4378812 0
vt 0.9251354 0.4546855 0
vt 0.9378604 0.446046 0
vt 0.9319064 0.4514326 0
vt 0.02692946 0.971235 0
vt 0.02831688 0.4988551 0
vt 0.9778622 0.5016277 0
vt 0.9764748 0.9740077 0
vt 0.8524049 0.5009489 0
vt 0.1537756 0.4989757 0
vt 0.1523905 0.9719139 0
vt 0.8510198 0.9738871 0
vt 0.02711117 0.8564949 0
vt 0.02778743 0.6135798 0
vt 0.02691587 0.7755345 0
vt 0.02707597 0.6945435 0
vt 0.9776805 0.6163686 0
vt 0.9770042 0.8592837 0
vt 0.9778743 0.6973275 0
vt 0.9777157 0.77832 0
vt 0.1532171 0.8553542 0
vt 0.1539209 0.6154389 0
vt 0.1536139 0.7792341 0
vt 0.1538851 0.6915845 0
vt 0.8515783 0.6175094 0
vt 0.8508746 0.8574247 0
vt 0.8511815 0.6936294 0
vt 0.8509103 0.781279 0
vt 0.9304897 0.4411663 0
vt 0.9499482 0.02788885 0
vt 0.9277962 0.444464 0
vt 0.6376658 0.4604959 0
vt 0.01885206 0.4251288 0
vt 0.01417721 0.1397232 0
vt 0.7281087 0.4500935 0
vt 0.08844269 0.462813 0
vt 0.9476854 0.02449328 0
vt 0.7061432 0.4203333 0
vt 0.7068105 0.1378579 0
vt 0.7479864 0.02978449 0
vt 0.745298 0.03308694 0
vt 0.6371973 0.09806439 0
vt 0.08443217 0.09913393 0
vt 0.7258642 0.4466848 0
#end 104 textures vertices 

#begin 54 normals 
vn -0 -0 1
vn -0 1 -0
vn 1 -0 -0
vn -0 -0 -1
vn -0 -1 -0
vn -1 -0 -0
vn -0.0006 -0.9776 -0.2103
vn -0.0009 -0.7798 -0.626
vn -0.0004 -0.3166 -0.9486
vn -0.0006 0.9776 -0.2103
vn -0.0009 0.7798 -0.626
vn -0.0004 0.3166 -0.9486
vn -0.0006 -0.9776 0.2103
vn -0.0009 -0.7798 0.626
vn -0.0004 -0.3166 0.9486
vn -0.0006 0.9776 0.2103
vn -0.0009 0.7798 0.626
vn -0.0004 0.3166 0.9486
vn 0.0008 -0.3167 -0.9485
vn 0.0015 -0.7798 -0.626
vn 0.0009 -0.9776 -0.2103
vn 0.0008 -0.3167 0.9485
vn 0.0015 -0.7798 0.626
vn 0.0009 -0.9776 0.2103
vn 0.0009 0.9776 0.2103
vn 0.0015 0.7798 0.626
vn 0.0008 0.3167 0.9485
vn 0.0009 0.9776 -0.2103
vn 0.0015 0.7798 -0.626
vn 0.0008 0.3167 -0.9485
vn -0.996 0.0662 -0.0606
vn -0.996 -0.0662 -0.0606
vn -0.996 -0.0662 0.0606
vn -0.996 0.0662 0.0606
vn -0.9946 -0.0989 0.0303
vn -0.9946 -0.0989 -0.0303
vn -0.9946 0.0989 -0.0303
vn -0.9946 0.0989 0.0303
vn -0.9934 0.0516 -0.1023
vn -0.9934 -0.0516 -0.1023
vn -0.9877 0.018 -0.1555
vn -0.9877 -0.018 -0.1555
vn -0.9934 -0.0516 0.1023
vn -0.9934 0.0516 0.1023
vn -0.9877 -0.018 0.1555
vn -0.9877 0.018 0.1555
vn -0.9956 0.0777 -0.0515
vn -0.9956 -0.0777 -0.0515
vn -0.9966 0.0285 -0.0777
vn -0.9966 -0.0285 -0.0777
vn -0.9956 -0.0777 0.0515
vn -0.9956 0.0777 0.0515
vn -0.9966 -0.0285 0.0777
vn -0.9966 0.0285 0.0777
#end 54 normals 

#begin 64 faces
o Cube:021
s 0
f 42/42/1 2/2/1 5/5/1 45/45/1 
f 17/17/2 58/58/2 53/53/2 26/26/2 
f 25/25/1 54/54/1 49/49/1 30/30/1 
f 33/33/2 46/46/2 6/6/2 13/13/2 
f 1/1/3 10/10/3 12/12/3 11/11/3 9/9/3 14/14/3 16/16/3 15/15/3 13/13/3 6/6/3 8/8/3 7/7/3 5/5/3 2/2/3 4/4/3 3/3/3 
f 9/9/4 37/37/4 34/34/4 14/14/4 
f 21/21/4 62/62/4 57/57/4 18/18/4 
f 29/29/5 50/50/5 61/61/5 22/22/5 
f 26/102/6 38/38/6 41/41/6 17/103/6 
f 30/98/6 34/34/6 37/37/6 25/99/6 
f 22/96/6 46/46/6 33/33/6 29/92/6 
f 18/94/6 42/42/6 45/45/6 21/93/6 
f 38/38/7 40/40/7 12/12/7 10/10/7 
f 40/40/8 39/39/8 11/11/8 12/12/8 
f 39/39/9 37/37/9 9/9/9 11/11/9 
f 13/13/10 15/15/10 35/35/10 33/33/10 
f 15/15/11 16/16/11 36/36/11 35/35/11 
f 16/16/12 14/14/12 34/34/12 36/36/12 
f 1/1/13 3/3/13 43/43/13 41/41/13 
f 3/3/14 4/4/14 44/44/14 43/43/14 
f 4/4/15 2/2/15 42/42/15 44/44/15 
f 46/46/16 48/48/16 8/8/16 6/6/16 
f 48/48/17 47/47/17 7/7/17 8/8/17 
f 47/47/18 45/45/18 5/5/18 7/7/18 
f 33/33/6 35/35/6 31/31/6 29/92/6 
f 35/35/6 36/36/6 32/32/6 31/31/6 
f 36/36/6 34/34/6 30/98/6 32/32/6 
f 26/102/6 28/28/6 40/40/6 38/38/6 
f 28/28/6 27/27/6 39/39/6 40/40/6 
f 27/27/6 25/99/6 37/37/6 39/39/6 
f 18/94/6 20/20/6 44/44/6 42/42/6 
f 20/20/6 19/19/6 43/43/6 44/44/6 
f 19/19/6 17/103/6 41/41/6 43/43/6 
f 45/45/6 47/47/6 23/23/6 21/93/6 
f 47/47/6 48/48/6 24/24/6 23/23/6 
f 48/48/6 46/46/6 22/96/6 24/24/6 
f 21/21/19 23/91/19 64/64/19 62/62/19 
f 23/91/20 24/89/20 63/63/20 64/64/20 
f 24/89/21 22/22/21 61/61/21 63/63/21 
f 49/49/22 51/51/22 32/97/22 30/30/22 
f 51/51/23 52/52/23 31/90/23 32/97/23 
f 52/52/24 50/50/24 29/29/24 31/90/24 
f 53/53/25 55/55/25 28/101/25 26/26/25 
f 55/55/26 56/56/26 27/100/26 28/101/26 
f 56/56/27 54/54/27 25/25/27 27/100/27 
f 17/17/28 19/104/28 60/60/28 58/58/28 
f 19/104/29 20/95/29 59/59/29 60/60/29 
f 20/95/30 18/18/30 57/57/30 59/59/30 
f 10/10/5 1/1/5 41/41/5 38/38/5 
o Cube:022
s 1
f 81/81/47 86/86/52 72/72/38 71/71/37 
f 86/86/52 78/78/44 68/68/34 72/72/38 
f 73/73/39 81/81/47 71/71/37 65/65/31 
f 69/69/35 67/67/33 77/77/43 85/85/51 
f 70/70/36 69/69/35 85/85/51 82/82/48 
f 86/86/52 88/88/54 80/80/46 78/78/44 
f 88/88/54 87/87/53 79/79/45 80/80/46 
f 87/87/53 85/85/51 77/77/43 79/79/45 
f 73/73/39 75/75/41 83/83/49 81/81/47 
f 75/75/41 76/76/42 84/84/50 83/83/49 
f 76/76/42 74/74/40 82/82/48 84/84/50 
f 81/81/47 83/83/49 88/88/54 86/86/52 
f 83/83/49 84/84/50 87/87/53 88/88/54 
f 84/84/50 82/82/48 85/85/51 87/87/53 
f 66/66/32 70/70/36 82/82/48 74/74/40 
#end 64 faces

#ZOMPROPERTIES_04{
#ZOMPROPERTIES_04 table {Mesh table {SymPlane table {Point vector3d 0 0 0 Normal vector3d 1 0 0 Threshold double 0.01 
#ZOMPROPERTIES_04 Enabled bool false EdgeID int -1 SymEdgeID int -1 UPos double 0.5 LocalMode bool false } RootGroup C
#ZOMPROPERTIES_04 SubMeshGroup {Children table {Tile_0_0 CSubMeshGroup {Children table {} BBoxUV box3d 0 0 0 0 0 0 BBo
#ZOMPROPERTIES_04 x3D box3d 0 0 0 0 0 0 Area3D double 0 AreaUV double 0.708003 IsRoot bool false Properties table {Sel
#ZOMPROPERTIES_04 ected bool false Box box3d 0 1 0 1 0 1 U int 0 V int 0 NU int 0 NV int 0 Tiling vector3d 1 1 1 TileR
#ZOMPROPERTIES_04 atioMode string "1:1" Overflow string "Off" Pack table {BoxFrameEdit bool false Behavior string "Fre
#ZOMPROPERTIES_04 e" } } IsTile bool true PolyIDs ints { 1 42 43 44 2 39 40 41 7 38 37 36 6 47 46 45 0 23 22 34 35 10 
#ZOMPROPERTIES_04 3 4 20 19 18 48 8 32 27 12 16 15 25 24 26 9 5 14 13 29 28 17 31 30 21 33 11 49 50 54 55 61 58 59 63 
#ZOMPROPERTIES_04 53 62 56 52 57 60 51 } } } BBoxUV box3d 0 0 0 0 0 0 BBox3D box3d 0 0 0 0 0 0 Area3D double 0 AreaUV 
#ZOMPROPERTIES_04 double 0 IsRoot bool true Properties table {Selected bool false Box box3d 0 1 0 1 0 1 U int 0 V int 
#ZOMPROPERTIES_04 0 NU int 1 NV int 1 Tiling vector3d 1 1 1 TileRatioMode string "1:1" Overflow string "Off" Pack tabl
#ZOMPROPERTIES_04 e {Rotate table {Mode int 0 Min double 0 Max double 90 Step double 0 } PaddingSize double 0.0078125 
#ZOMPROPERTIES_04 MarginSize double 0.00390625 Resolution int 256 MapResolution int 2048 Scaling table {TexelDensity d
#ZOMPROPERTIES_04 ouble 1024 Mode int 2 } LayoutScalingMode int 2 MaxMutations int 1 } } IsTile bool false PolyIDs int
#ZOMPROPERTIES_04 s { } } Maps table {Pin table {PrimType string "Vertex" Size int 1 DefaultValue double 0 ScaleType s
#ZOMPROPERTIES_04 tring "Normalized" MergeMode string "Max" MinValue double 0 MaxValue double 1 Data doubles { r 104 0
#ZOMPROPERTIES_04  } } Density table {PrimType string "Polygon" Size int 1 DefaultValue double 1 ScaleType string "Log
#ZOMPROPERTIES_04 " MergeMode string "Average" MinValue double 0.1 MaxValue double 4 Data doubles { r 64 1 } } Protect
#ZOMPROPERTIES_04  table {PrimType string "Vertex" Size int 1 DefaultValue double 0 ScaleType string "Normalized" Merg
#ZOMPROPERTIES_04 eMode string "Average" MinValue double -1 MaxValue double 1 Data doubles { r 104 0 } } } } }
#ZOMPROPERTIES_04}


#ZOMSCENE_01{
#ZOMSCENE_01 CScene {Settings table {AxisSystem table {UpVector string "y" } Unit string "cm" TexelDensityDisplay
#ZOMSCENE_01 Unit string "tx/cm" } Root table {} }
#ZOMSCENE_01}

#begin 0 fatal error vertex (that RizomUV cannot handle)
#end 0 fatal error vertex (that RizomUV cannot handle)

#begin 0 error vertex
#end 0 error vertex
