#File written by RizomUV 2023.0.70.ge90189e8. Compilation :Sep 22 2023,12:42:11
mtllib fiesta cortina.mtl
#begin vertices
v 62.33506 9.956403 -11.45812
v 62.33506 9.956403 -11.45812
v 62.33506 9.956403 -11.36399
v 62.33506 9.288515 -11.36399
v 62.33506 9.956403 -11.24666
v 62.33506 9.345333 -11.24666
v 62.33506 9.288515 -11.30347
v 62.33506 9.305157 -11.26329
v 62.33506 9.288515 -11.48851
v 62.33506 2.808144 -11.45812
v 62.33506 8.297666 -11.45812
v 62.33506 0.111738 -11.45812
v 62.33506 0.111738 -11.45812
v 62.33506 0.111738 -11.36399
v 62.33506 0.803386 -11.36399
v 62.33506 2.761164 -11.36399
v 62.33506 0.111738 -11.24666
v 62.33506 0.803386 -11.30347
v 62.33506 0.746566 -11.24666
v 62.33506 0.786744 -11.26329
v 62.33506 6.982184 -11.45812
v 62.33506 5.648043 -11.45812
v 62.33506 4.706276 -11.45812
v 69.41648 9.956403 -11.45812
v 69.41648 9.956403 -11.45812
v 69.41648 9.956403 -11.36399
v 69.41648 9.288515 -11.36399
v 69.41648 9.956403 -11.24666
v 69.41648 9.345333 -11.24666
v 69.41648 9.288515 -11.30347
v 69.41648 9.305157 -11.26329
v 69.41648 9.288515 -11.48851
v 69.41648 2.808144 -11.45812
v 69.41648 8.297666 -11.45812
v 69.41648 0.111738 -11.45812
v 69.41648 0.111738 -11.45812
v 69.41648 0.111738 -11.36399
v 69.41648 0.803386 -11.36399
v 69.41648 2.761164 -11.36399
v 69.41648 0.111738 -11.24666
v 69.41648 0.803386 -11.30347
v 69.41648 0.746566 -11.24666
v 69.41648 0.786744 -11.26329
v 69.41648 6.982184 -11.45812
v 69.41648 5.648043 -11.45812
v 69.41648 4.706276 -11.45812
v 62.35691 0.472579 -10.96649
v 69.41264 0.472579 -11.20449
v 62.35691 9.392769 -11.35843
v 69.41264 9.392769 -11.2706
v 64.16411 0.297636 -11.08298
v 63.74729 9.392769 -11.25697
v 66.0634 0.480902 -10.40228
v 65.00667 0.484138 -10.30902
v 65.54204 0.485263 -10.2766
v 68.42454 0.481452 -10.50337
v 67.36588 0.480776 -10.34
v 67.89327 0.483241 -10.24915
v 67.54027 9.384146 -11.29616
v 68.66414 9.384962 -11.30135
v 68.10216 9.382295 -11.28934
v 64.26263 9.384091 -11.34355
v 65.31995 9.380684 -11.3148
v 64.78467 9.379518 -11.28266
v 62.35691 7.608731 -11.35843
v 62.35691 5.824693 -11.35843
v 62.35691 4.040655 -11.35843
v 62.35691 2.256617 -11.35843
v 69.41264 2.256617 -11.20449
v 69.41264 4.040655 -11.20449
v 69.41264 5.824693 -11.20449
v 69.41264 7.608731 -11.20449
v 63.74729 7.608731 -11.37797
v 63.74729 5.824693 -11.27317
v 63.74729 4.040655 -11.28138
v 63.74729 2.256617 -10.88904
v 67.50539 7.603472 -11.29213
v 67.47051 5.822798 -11.13325
v 67.43563 4.042124 -11.08738
v 67.40076 2.26145 -10.64097
v 67.93505 2.263052 -10.56693
v 67.97683 4.042862 -11.03015
v 68.01861 5.822673 -11.09282
v 68.06038 7.602484 -11.26851
v 68.47247 2.262154 -10.62163
v 68.52039 4.042856 -11.07363
v 68.56831 5.823558 -11.12508
v 68.61623 7.60426 -11.28955
v 64.41144 7.604101 -11.11992
v 64.56024 5.82411 -10.99635
v 64.70905 4.044119 -10.98579
v 64.85786 2.264129 -10.57469
v 65.39056 2.264114 -10.52352
v 65.23909 4.042965 -10.91588
v 65.08762 5.821816 -10.9077
v 64.93614 7.600667 -11.01253
v 65.91471 2.260858 -10.6305
v 65.76602 4.040814 -11.00415
v 65.61733 5.820771 -10.97726
v 65.46864 7.600728 -11.06338
v 66.91379 0.476061 -10.5138
v 66.25556 0.477806 -10.49151
v 66.58272 0.47513 -10.56043
v 65.96166 9.389454 -11.49141
v 66.93712 9.389562 -11.29516
v 66.58334 9.390859 -11.27674
v 66.23589 7.606253 -11.28057
v 66.93579 7.606709 -11.34497
v 66.58342 7.607413 -11.33978
v 66.23812 5.8233 -11.16808
v 66.93308 5.823941 -11.21769
v 66.58327 5.824065 -11.22614
v 66.24139 4.040721 -11.16606
v 66.92861 4.041253 -11.20233
v 66.58292 4.040849 -11.22445
v 66.92223 2.258632 -10.7856
v 66.24658 2.258742 -10.75947
v 66.58258 2.25783 -10.82079
#end vertices

#begin 122 textures vertices 
vt 0.8504403 0.3207045 0
vt 0.8504486 0.320713 0
vt 0.8588621 0.3207128 0
vt 0.9372419 0.3207126 0
vt 0.8693622 0.3207127 0
vt 0.9240434 0.3207126 0
vt 0.931826 0.3207126 0
vt 0.9279346 0.3207126 0
vt 0.7413924 0.289464 0
vt 0.7412396 0.07880647 0
vt 0.741369 0.2572416 0
vt 0.7307198 0.9515008 0
vt 0.7307268 0.9515102 0
vt 0.7391397 0.9515038 0
vt 0.8196456 0.951504 0
vt 0.7412371 0.07538713 0
vt 0.7496397 0.9515038 0
vt 0.8142297 0.951504 0
vt 0.8064469 0.9515039 0
vt 0.8103383 0.951504 0
vt 0.741338 0.2144823 0
vt 0.7413066 0.1711165 0
vt 0.7412844 0.1405047 0
vt 0.8504331 0.9543791 0
vt 0.8504414 0.9543882 0
vt 0.8588638 0.9543882 0
vt 0.9372436 0.954388 0
vt 0.8693639 0.9543882 0
vt 0.9240451 0.954388 0
vt 0.9318277 0.954388 0
vt 0.9279364 0.954388 0
vt 0.948386 0.954388 0
vt 0.9714188 0.07863952 0
vt 0.9715483 0.2570747 0
vt 0.7307146 0.3178284 0
vt 0.7307216 0.3178382 0
vt 0.7391411 0.3178284 0
vt 0.9713702 0.01158323 0
vt 0.9714164 0.07522018 0
vt 0.7496412 0.3178284 0
vt 0.8142311 0.3178285 0
vt 0.8064483 0.3178285 0
vt 0.8103398 0.3178285 0
vt 0.9715172 0.2143154 0
vt 0.9714858 0.1709495 0
vt 0.9714636 0.1403377 0
vt -0.0176417 0.1297787 0
vt 0.7093946 0.1282658 0
vt 0.01157759 0.972402 0
vt 0.684195 0.9682232 0
vt 0.1517193 0.1026677 0
vt 0.1435458 0.9699259 0
vt 0.3600729 0.1196977 0
vt 0.2591892 0.1190599 0
vt 0.3096296 0.1185434 0
vt 0.5948284 0.1201002 0
vt 0.4885176 0.1179792 0
vt 0.5391229 0.1167675 0
vt 0.5075639 0.9682277 0
vt 0.6134541 0.9677069 0
vt 0.5604767 0.9676888 0
vt 0.1929351 0.9697588 0
vt 0.2931831 0.9684584 0
vt 0.2425415 0.968212 0
vt 0.008149923 0.8035679 0
vt 0.006774369 0.6353623 0
vt 0.004658825 0.4678228 0
vt -0.003343895 0.3012559 0
vt 0.6958517 0.2969708 0
vt 0.6849308 0.464426 0
vt 0.6830506 0.6315929 0
vt 0.6836352 0.7997107 0
vt 0.139151 0.8016095 0
vt 0.1384264 0.6332905 0
vt 0.1359216 0.4654594 0
vt 0.1354529 0.292645 0
vt 0.5029107 0.7998124 0
vt 0.4991285 0.6305919 0
vt 0.4955854 0.4618911 0
vt 0.4911414 0.2885434 0
vt 0.5417763 0.2872024 0
vt 0.547393 0.4611582 0
vt 0.5510101 0.6302023 0
vt 0.5553988 0.7994041 0
vt 0.5923993 0.2880238 0
vt 0.5994146 0.4616359 0
vt 0.6029297 0.6305194 0
vt 0.6079504 0.7995252 0
vt 0.2061832 0.8001214 0
vt 0.2194237 0.6314808 0
vt 0.2312473 0.4621859 0
vt 0.2449173 0.2889085 0
vt 0.2953808 0.2879967 0
vt 0.2822828 0.4612041 0
vt 0.2697677 0.6305196 0
vt 0.256609 0.7985207 0
vt 0.3458364 0.289207 0
vt 0.333259 0.4617567 0
vt 0.320047 0.6304078 0
vt 0.3070095 0.7987337 0
vt 0.4429137 0.120371 0
vt 0.3799968 0.1206104 0
vt 0.4114405 0.1211469 0
vt 0.3557069 0.9713965 0
vt 0.4508032 0.9692145 0
vt 0.4174824 0.9697916 0
vt 0.3822585 0.8010705 0
vt 0.4488689 0.8006012 0
vt 0.415583 0.8009437 0
vt 0.3814508 0.6313283 0
vt 0.4477217 0.6313345 0
vt 0.414571 0.631517 0
vt 0.3808584 0.4632203 0
vt 0.4463303 0.4633362 0
vt 0.4136055 0.4636952 0
vt 0.4440289 0.2910198 0
vt 0.3794024 0.290991 0
vt 0.4117336 0.29173 0
vt 0.9715716 0.2892971 0
vt 0.9483842 0.3207125 0
vt 0.8196471 0.3178286 0
vt 0.741191 0.01175017 0
#end 122 textures vertices 

#begin 86 normals 
vn -0 -1 -0
vn -0 -0 1
vn -0 0.8947 0.4466
vn -0 1 -0
vn -0 0.0153 0.9999
vn -0 0.9808 0.1951
vn -0 0.9239 0.3827
vn -0 -0.1951 0.9808
vn -0 -0.3827 0.9239
vn -0 0.3827 0.9239
vn -0 0.1951 0.9808
vn -0 -0.9239 0.3827
vn -0 -0.9808 0.1951
vn -0 0.0307 0.9995
vn -0.1074 0.0406 0.9934
vn 0.5542 0.0202 0.8321
vn -0.0294 -0.0339 0.999
vn -0.0749 0.0228 0.9969
vn -0.3174 -0.0122 0.9482
vn -0.0863 -0.0059 0.9963
vn 0.3024 0.1461 0.9419
vn -0.2816 0.0436 0.9585
vn 0.077 0.1432 0.9867
vn 0.416 0.0674 0.9069
vn -0.2363 0.164 0.9577
vn 0.0572 0.1456 0.9877
vn -0.0357 -0.0023 0.9994
vn -0.0239 0.0158 0.9996
vn 0.0016 0.008 1
vn -0.1499 0.0698 0.9862
vn 0.1682 0.1535 0.9737
vn -0.0471 0.137 0.9895
vn -0.0265 -0.0023 0.9996
vn -0.041 0.0135 0.9991
vn -0.1255 0.0527 0.9907
vn -0.1507 0.0748 0.9857
vn 0.4611 0.0667 0.8848
vn 0.243 0.0633 0.968
vn 0.0584 0.0295 0.9979
vn -0.0394 0.0345 0.9986
vn -0.1344 0.016 0.9908
vn -0.1848 0.0155 0.9827
vn -0.2097 0.0728 0.9751
vn -0.2593 0.0774 0.9627
vn -0.063 0.0428 0.9971
vn -0.1143 0.0567 0.9918
vn -0.1629 0.134 0.9775
vn -0.2107 0.2019 0.9565
vn 0.0254 0.1965 0.9802
vn -0.0126 0.1415 0.9899
vn -0.0073 0.0628 0.998
vn -0.0017 0.0513 0.9987
vn 0.3257 0.125 0.9372
vn 0.1636 0.1007 0.9814
vn 0.059 0.046 0.9972
vn -0.0001 0.0425 0.9991
vn -0.2097 0.0618 0.9758
vn -0.2451 0.0175 0.9693
vn -0.2141 0.0976 0.9719
vn -0.2458 0.1213 0.9617
vn 0.0524 0.1801 0.9823
vn 0.0179 0.1085 0.9939
vn -0.0178 0.0255 0.9995
vn -0.0387 0.0967 0.9946
vn 0.2778 0.1825 0.9431
vn 0.245 0.1134 0.9629
vn 0.2126 0.0343 0.9765
vn 0.1844 0.1086 0.9768
vn -0.2235 0.1513 0.9629
vn 0.2898 0.145 0.946
vn 0.0363 0.1474 0.9884
vn 0.0743 0.1001 0.9922
vn -0.0053 -0.0221 0.9997
vn -0.0626 -0.0015 0.998
vn 0.1322 0.0769 0.9882
vn -0.0344 0.026 0.9991
vn 0.009 0.0319 0.9995
vn 0.2311 0.034 0.9723
vn -0.0899 0.0432 0.995
vn 0.0718 0.0342 0.9968
vn 0.2445 0.1109 0.9633
vn -0.1408 0.12 0.9827
vn 0.0532 0.1127 0.9922
vn -0.194 0.1903 0.9624
vn 0.2703 0.1819 0.9454
vn 0.0405 0.1859 0.9817
#end 86 normals 

#begin 77 faces
o Plane:070
s 1
f 14/14/1 13/13/1 36/36/1 37/37/1 
f 21/21/2 22/22/2 45/45/2 44/44/2 
f 10/10/3 16/16/3 39/39/3 33/33/3 
f 2/2/4 3/3/4 26/26/4 25/25/4 
f 17/17/1 14/14/1 37/37/1 40/40/1 
f 3/3/4 5/5/4 28/28/4 26/26/4 
f 11/11/5 21/21/2 44/44/2 34/34/5 
f 18/18/6 20/20/7 43/43/7 41/41/6 
f 6/6/8 8/8/9 31/31/9 29/29/8 
f 20/20/10 19/19/11 42/42/11 43/43/10 
f 22/22/2 23/23/2 46/46/2 45/45/2 
f 8/8/12 7/7/13 30/30/13 31/31/12 
f 19/19/11 17/17/2 40/40/2 42/42/11 
f 7/7/13 4/4/1 27/27/1 30/30/13 
f 9/9/14 11/11/5 34/34/5 32/119/14 
f 15/15/4 18/18/6 41/41/6 38/121/4 
f 5/5/2 6/6/8 29/29/8 28/28/2 
f 23/23/2 10/10/2 33/33/2 46/46/2 
f 13/13/4 12/12/4 35/35/4 36/36/4 
f 4/4/1 9/120/1 32/32/1 27/27/1 
f 16/16/2 15/122/2 38/38/2 39/39/2 
f 1/1/4 2/2/4 25/25/4 24/24/4 
o Plane:071
s 1
f 76/76/44 68/68/36 47/47/15 51/51/19 
f 104/104/72 63/63/31 100/100/68 107/107/75 
f 69/69/37 85/85/53 56/56/24 48/48/16 
f 80/80/48 116/116/84 101/101/69 57/57/25 
f 80/80/48 57/57/25 58/58/26 81/81/49 
f 81/81/49 58/58/26 56/56/24 85/85/53 
f 92/92/60 54/54/22 55/55/23 93/93/61 
f 93/93/61 55/55/23 53/53/21 97/97/65 
f 92/92/60 76/76/44 51/51/19 54/54/22 
f 62/62/30 52/52/20 73/73/41 89/89/57 
f 89/89/57 73/73/41 74/74/42 90/90/58 
f 90/90/58 74/74/42 75/75/43 91/91/59 
f 91/91/59 75/75/43 76/76/44 92/92/60 
f 64/64/32 96/96/64 100/100/68 63/63/31 
f 96/96/64 95/95/63 99/99/67 100/100/68 
f 95/95/63 94/94/62 98/98/66 99/99/67 
f 94/94/62 93/93/61 97/97/65 98/98/66 
f 62/62/30 89/89/57 96/96/64 64/64/32 
f 89/89/57 90/90/58 95/95/63 96/96/64 
f 90/90/58 91/91/59 94/94/62 95/95/63 
f 91/91/59 92/92/60 93/93/61 94/94/62 
f 61/61/29 84/84/52 88/88/56 60/60/28 
f 84/84/52 83/83/51 87/87/55 88/88/56 
f 83/83/51 82/82/50 86/86/54 87/87/55 
f 82/82/50 81/81/49 85/85/53 86/86/54 
f 59/59/27 77/77/45 84/84/52 61/61/29 
f 77/77/45 78/78/46 83/83/51 84/84/52 
f 78/78/46 79/79/47 82/82/50 83/83/51 
f 79/79/47 80/80/48 81/81/49 82/82/50 
f 59/59/27 105/105/73 108/108/76 77/77/45 
f 78/78/46 111/111/79 114/114/82 79/79/47 
f 79/79/47 114/114/82 116/116/84 80/80/48 
f 50/50/18 60/60/28 88/88/56 72/72/40 
f 72/72/40 88/88/56 87/87/55 71/71/39 
f 71/71/39 87/87/55 86/86/54 70/70/38 
f 70/70/38 86/86/54 85/85/53 69/69/37 
f 77/77/45 108/108/76 111/111/79 78/78/46 
f 107/107/75 100/100/68 99/99/67 110/110/78 
f 110/110/78 99/99/67 98/98/66 113/113/81 
f 113/113/81 98/98/66 97/97/65 117/117/85 
f 52/52/20 49/49/17 65/65/33 73/73/41 
f 73/73/41 65/65/33 66/66/34 74/74/42 
f 74/74/42 66/66/34 67/67/35 75/75/43 
f 75/75/43 67/67/35 68/68/36 76/76/44 
f 117/117/85 102/102/70 103/103/71 118/118/86 
f 118/118/86 103/103/71 101/101/69 116/116/84 
f 104/104/72 107/107/75 109/109/77 106/106/74 
f 106/106/74 109/109/77 108/108/76 105/105/73 
f 107/107/75 110/110/78 112/112/80 109/109/77 
f 109/109/77 112/112/80 111/111/79 108/108/76 
f 110/110/78 113/113/81 115/115/83 112/112/80 
f 112/112/80 115/115/83 114/114/82 111/111/79 
f 113/113/81 117/117/85 118/118/86 115/115/83 
f 115/115/83 118/118/86 116/116/84 114/114/82 
f 117/117/85 97/97/65 53/53/21 102/102/70 
#end 77 faces

#ZOMPROPERTIES_04{
#ZOMPROPERTIES_04 table {Mesh table {SymPlane table {Point vector3d 0 0 0 Normal vector3d 1 0 0 Threshold double 0.01 
#ZOMPROPERTIES_04 Enabled bool false EdgeID int -1 SymEdgeID int -1 UPos double 0.5 LocalMode bool false } RootGroup C
#ZOMPROPERTIES_04 SubMeshGroup {Children table {Tile_0_0 CSubMeshGroup {Children table {} BBoxUV box3d 0 0 0 0 0 0 BBo
#ZOMPROPERTIES_04 x3D box3d 0 0 0 0 0 0 Area3D double 0 AreaUV double 0.767082 IsRoot bool false Properties table {Sel
#ZOMPROPERTIES_04 ected bool false Box box3d 0 1 0 1 0 1 U int 0 V int 0 NU int 0 NV int 0 Tiling vector3d 1 1 1 TileR
#ZOMPROPERTIES_04 atioMode string "1:1" Overflow string "Off" Pack table {BoxFrameEdit bool false Behavior string "Fre
#ZOMPROPERTIES_04 e" } } IsTile bool true PolyIDs ints { 0 18 4 12 9 7 15 3 5 16 8 11 13 19 21 1 10 17 2 20 6 14 22 65
#ZOMPROPERTIES_04  64 63 62 31 39 35 23 68 69 51 47 43 54 55 56 57 24 27 26 25 67 66 76 29 28 30 42 34 41 33 40 37 60 
#ZOMPROPERTIES_04 59 72 73 52 58 49 45 50 48 53 75 71 74 70 61 36 38 46 44 32 } } } BBoxUV box3d 0 0 0 0 0 0 BBox3D bo
#ZOMPROPERTIES_04 x3d 0 0 0 0 0 0 Area3D double 0 AreaUV double 0 IsRoot bool true Properties table {Selected bool fal
#ZOMPROPERTIES_04 se Box box3d 0 1 0 1 0 1 U int 0 V int 0 NU int 1 NV int 1 Tiling vector3d 1 1 1 TileRatioMode strin
#ZOMPROPERTIES_04 g "1:1" Overflow string "Off" Pack table {Rotate table {Mode int 0 Min double 0 Max double 90 Step d
#ZOMPROPERTIES_04 ouble 0 } PaddingSize double 0.0078125 MarginSize double 0.00390625 Resolution int 256 MapResolution
#ZOMPROPERTIES_04  int 2048 Scaling table {TexelDensity double 1024 Mode int 2 } LayoutScalingMode int 2 MaxMutations 
#ZOMPROPERTIES_04 int 1 } } IsTile bool false PolyIDs ints { } } Maps table {Pin table {PrimType string "Vertex" Size 
#ZOMPROPERTIES_04 int 1 DefaultValue double 0 ScaleType string "Normalized" MergeMode string "Max" MinValue double 0 M
#ZOMPROPERTIES_04 axValue double 1 Data doubles { r 122 0 } } Density table {PrimType string "Polygon" Size int 1 Defa
#ZOMPROPERTIES_04 ultValue double 1 ScaleType string "Log" MergeMode string "Average" MinValue double 0.1 MaxValue dou
#ZOMPROPERTIES_04 ble 4 Data doubles { r 77 1 } } Protect table {PrimType string "Vertex" Size int 1 DefaultValue doub
#ZOMPROPERTIES_04 le 0 ScaleType string "Normalized" MergeMode string "Average" MinValue double -1 MaxValue double 1 D
#ZOMPROPERTIES_04 ata doubles { r 122 0 } } } } }
#ZOMPROPERTIES_04}


#ZOMSCENE_01{
#ZOMSCENE_01 CScene {Settings table {AxisSystem table {UpVector string "y" } Unit string "cm" TexelDensityDisplay
#ZOMSCENE_01 Unit string "tx/cm" } Root table {} }
#ZOMSCENE_01}

#begin 0 fatal error vertex (that RizomUV cannot handle)
#end 0 fatal error vertex (that RizomUV cannot handle)

#begin 0 error vertex
#end 0 error vertex
