#File written by RizomUV 2023.0.70.ge90189e8. Compilation :Sep 22 2023,12:42:11
mtllib CUARTO CORTINA.mtl
#begin vertices
v 10.83447 11.25863 32.3757
v 32.50029 11.25863 32.00287
v 10.83447 31.8975 31.76173
v 32.50029 31.8975 31.89932
v 16.38378 10.85894 32.19321
v 15.10386 31.8975 31.92067
v 22.21587 11.27765 33.25951
v 18.971 11.28504 32.74896
v 20.61494 11.28761 32.79975
v 29.46617 11.27891 33.10116
v 26.21534 11.27736 33.35708
v 27.8348 11.28299 33.49938
v 26.75085 31.8778 31.85928
v 30.20188 31.87966 31.85115
v 28.47622 31.87357 31.86997
v 16.68632 31.87768 31.78505
v 19.93297 31.86989 31.83008
v 18.28931 31.86723 31.88043
v 10.83447 27.56264 31.76173
v 10.83447 23.48664 31.76173
v 10.83447 19.41064 31.76173
v 10.83447 15.33464 31.76173
v 32.50029 15.33464 32.00287
v 32.50029 19.41064 32.00287
v 32.50029 23.48664 32.00287
v 32.50029 27.56265 32.00287
v 15.10386 27.56264 31.73112
v 15.10386 23.48664 32.37001
v 15.10386 19.41064 31.88244
v 15.10386 15.33464 32.49702
v 26.64373 27.55063 31.86559
v 26.53663 23.48231 32.11447
v 26.42954 19.41399 32.18632
v 26.32245 15.34568 32.8856
v 27.96309 15.34934 33.00159
v 28.09138 19.41568 32.27597
v 28.21967 23.48203 32.17781
v 28.34793 27.54837 31.9026
v 29.61332 15.34729 32.91591
v 29.76046 19.41567 32.20786
v 29.90761 23.48405 32.12727
v 30.05476 27.55243 31.86963
v 17.14325 27.55207 32.13535
v 17.60017 23.48531 32.32893
v 18.05712 19.41855 32.34546
v 18.51407 15.3518 32.3328
v 20.14982 15.35176 32.41295
v 19.68469 19.41592 32.45497
v 19.21956 23.48007 32.46779
v 18.75444 27.54422 32.30358
v 21.7593 15.34433 32.63514
v 21.30272 19.411 32.3167
v 20.84615 23.47768 32.35883
v 20.38957 27.54436 32.22392
v 24.82713 11.26659 33.08482
v 22.80594 11.27057 33.11974
v 23.81053 11.26446 33.01178
v 21.90347 31.88993 31.8614
v 24.89877 31.89017 31.86084
v 23.81242 31.89314 31.88971
v 22.74554 27.55698 31.8837
v 24.8947 27.55803 31.78282
v 23.81268 27.55964 31.79095
v 22.75238 23.48346 32.05991
v 24.88638 23.48492 31.98221
v 23.81221 23.48521 31.96897
v 22.76241 19.41079 32.06308
v 24.87265 19.41201 32.00625
v 23.81113 19.41108 31.97161
v 24.85307 15.33924 32.65906
v 22.77836 15.33949 32.69998
v 23.8101 15.33741 32.60393
#end vertices

#begin 72 textures vertices 
vt 0.00390625 0.02259248 0
vt 0.9960938 0.02466081 0
vt 0.01040919 0.9532109 0
vt 0.9850376 0.9514466 0
vt 0.2534129 0.00390625 0
vt 0.2029059 0.9525109 0
vt 0.5207583 0.02002668 0
vt 0.3724669 0.02362816 0
vt 0.4462112 0.02312626 0
vt 0.8509867 0.0210701 0
vt 0.7024172 0.01989395 0
vt 0.7754759 0.0194491 0
vt 0.7268595 0.9503963 0
vt 0.8817867 0.9505019 0
vt 0.8043152 0.9501805 0
vt 0.2744013 0.9517915 0
vt 0.4206255 0.9505449 0
vt 0.3466432 0.9506073 0
vt 0.009528703 0.7579477 0
vt 0.008445938 0.5743057 0
vt 0.007572097 0.390974 0
vt 0.005528524 0.2076724 0
vt 0.9902839 0.2079903 0
vt 0.9863476 0.3907648 0
vt 0.9854078 0.5735154 0
vt 0.9853487 0.7566215 0
vt 0.201185 0.7580928 0
vt 0.202037 0.573692 0
vt 0.1995346 0.3902702 0
vt 0.2000148 0.206046 0
vt 0.7221787 0.7558894 0
vt 0.7173813 0.572564 0
vt 0.7122997 0.3894704 0
vt 0.7069189 0.2039019 0
vt 0.7806811 0.2033918 0
vt 0.7872869 0.3891759 0
vt 0.7930111 0.5723887 0
vt 0.798698 0.7557367 0
vt 0.8546805 0.2037829 0
vt 0.8626588 0.3894605 0
vt 0.8688052 0.5726778 0
vt 0.8753448 0.7560283 0
vt 0.2943156 0.7567815 0
vt 0.3140758 0.5735928 0
vt 0.3339701 0.3905371 0
vt 0.3534438 0.2075177 0
vt 0.4271439 0.2068988 0
vt 0.407371 0.3900344 0
vt 0.3870367 0.5728521 0
vt 0.3669106 0.7555234 0
vt 0.5003067 0.2053111 0
vt 0.4804278 0.3894765 0
vt 0.4601936 0.572574 0
vt 0.4402868 0.7553495 0
vt 0.6389489 0.02076393 0
vt 0.5479248 0.02074549 0
vt 0.5932253 0.02101563 0
vt 0.5091566 0.9512518 0
vt 0.6437184 0.9510232 0
vt 0.594907 0.951237 0
vt 0.5470266 0.7564373 0
vt 0.6436079 0.7563457 0
vt 0.5950743 0.7564981 0
vt 0.5468845 0.5730288 0
vt 0.6430067 0.5730243 0
vt 0.5946968 0.57314 0
vt 0.5469745 0.3901104 0
vt 0.6418379 0.3901278 0
vt 0.5941933 0.3903103 0
vt 0.6400596 0.2049422 0
vt 0.546305 0.2047955 0
vt 0.5930182 0.2051922 0
#end 72 textures vertices 

#begin 72 normals 
vn -0.0551 0.028 0.9981
vn 0.3217 0.0157 0.9467
vn -0.015 -0.0219 0.9996
vn -0.0383 0.0147 0.9992
vn -0.0606 0.0126 0.9981
vn -0.0441 -0.0038 0.999
vn -0.0692 0.1161 0.9908
vn -0.0524 0.0472 0.9975
vn -0.1274 0.0961 0.9872
vn 0.2275 0.0495 0.9725
vn -0.124 0.1157 0.9855
vn 0.0294 0.1005 0.9945
vn -0.0182 -0.0015 0.9998
vn -0.0121 0.0102 0.9999
vn 0.0008 0.0052 1
vn -0.0773 0.0455 0.996
vn 0.0543 0.0792 0.9954
vn -0.024 0.0889 0.9958
vn -0.0411 0.0279 0.9988
vn -0.0763 0.0093 0.997
vn -0.0924 0.0075 0.9957
vn -0.0777 0.0518 0.9956
vn 0.2566 0.0498 0.9652
vn 0.1269 0.0444 0.9909
vn 0.0298 0.0203 0.9993
vn -0.0201 0.0232 0.9995
vn -0.0585 0.0411 0.9974
vn -0.0773 0.0133 0.9969
vn -0.0776 0.0061 0.997
vn -0.0661 0.044 0.9968
vn -0.0322 0.0294 0.999
vn -0.0586 0.0391 0.9975
vn -0.0843 0.0933 0.9921
vn -0.1105 0.1424 0.9836
vn 0.0131 0.1361 0.9906
vn -0.0065 0.0975 0.9952
vn -0.0037 0.0431 0.9991
vn -0.0009 0.035 0.9994
vn 0.1738 0.0897 0.9807
vn 0.0845 0.0699 0.994
vn 0.0301 0.0316 0.999
vn -0 0.0289 0.9996
vn -0.082 0.0585 0.9949
vn -0.0821 0.0134 0.9965
vn -0.0645 -0.0013 0.9979
vn -0.053 0.0355 0.998
vn -0.0776 0.0522 0.9956
vn -0.0194 0.0024 0.9998
vn -0.0091 0.0175 0.9998
vn -0.0199 0.0637 0.9978
vn -0.0291 0.0963 0.9949
vn 0.0714 0.0392 0.9967
vn 0.1103 0.0239 0.9936
vn 0.078 0.0612 0.9951
vn -0.1169 0.1064 0.9874
vn 0.0728 0.1158 0.9906
vn 0.0186 0.1017 0.9946
vn 0.0482 0.0286 0.9984
vn -0.0027 -0.0142 0.9999
vn 0.0193 -0.0136 0.9997
vn 0.0798 0.0338 0.9962
vn -0.0176 0.0183 0.9997
vn 0.0303 0.0155 0.9994
vn 0.1203 0.0238 0.9924
vn -0.046 0.0297 0.9985
vn 0.0367 0.0235 0.999
vn 0.1034 0.07 0.9922
vn -0.0726 0.0832 0.9939
vn 0.0273 0.0776 0.9966
vn -0.1014 0.1337 0.9858
vn 0.0776 0.1261 0.989
vn 0.0209 0.1287 0.9915
#end 72 normals 

#begin 55 faces
o Plane:116
s 1
f 30/30/30 22/22/22 1/1/1 5/5/5 
f 58/58/58 17/17/17 54/54/54 61/61/61 
f 23/23/23 39/39/39 10/10/10 2/2/2 
f 34/34/34 70/70/70 55/55/55 11/11/11 
f 34/34/34 11/11/11 12/12/12 35/35/35 
f 35/35/35 12/12/12 10/10/10 39/39/39 
f 46/46/46 8/8/8 9/9/9 47/47/47 
f 47/47/47 9/9/9 7/7/7 51/51/51 
f 46/46/46 30/30/30 5/5/5 8/8/8 
f 16/16/16 6/6/6 27/27/27 43/43/43 
f 43/43/43 27/27/27 28/28/28 44/44/44 
f 44/44/44 28/28/28 29/29/29 45/45/45 
f 45/45/45 29/29/29 30/30/30 46/46/46 
f 18/18/18 50/50/50 54/54/54 17/17/17 
f 50/50/50 49/49/49 53/53/53 54/54/54 
f 49/49/49 48/48/48 52/52/52 53/53/53 
f 48/48/48 47/47/47 51/51/51 52/52/52 
f 16/16/16 43/43/43 50/50/50 18/18/18 
f 43/43/43 44/44/44 49/49/49 50/50/50 
f 44/44/44 45/45/45 48/48/48 49/49/49 
f 45/45/45 46/46/46 47/47/47 48/48/48 
f 15/15/15 38/38/38 42/42/42 14/14/14 
f 38/38/38 37/37/37 41/41/41 42/42/42 
f 37/37/37 36/36/36 40/40/40 41/41/41 
f 36/36/36 35/35/35 39/39/39 40/40/40 
f 13/13/13 31/31/31 38/38/38 15/15/15 
f 31/31/31 32/32/32 37/37/37 38/38/38 
f 32/32/32 33/33/33 36/36/36 37/37/37 
f 33/33/33 34/34/34 35/35/35 36/36/36 
f 13/13/13 59/59/59 62/62/62 31/31/31 
f 32/32/32 65/65/65 68/68/68 33/33/33 
f 33/33/33 68/68/68 70/70/70 34/34/34 
f 4/4/4 14/14/14 42/42/42 26/26/26 
f 26/26/26 42/42/42 41/41/41 25/25/25 
f 25/25/25 41/41/41 40/40/40 24/24/24 
f 24/24/24 40/40/40 39/39/39 23/23/23 
f 31/31/31 62/62/62 65/65/65 32/32/32 
f 61/61/61 54/54/54 53/53/53 64/64/64 
f 64/64/64 53/53/53 52/52/52 67/67/67 
f 67/67/67 52/52/52 51/51/51 71/71/71 
f 6/6/6 3/3/3 19/19/19 27/27/27 
f 27/27/27 19/19/19 20/20/20 28/28/28 
f 28/28/28 20/20/20 21/21/21 29/29/29 
f 29/29/29 21/21/21 22/22/22 30/30/30 
f 71/71/71 56/56/56 57/57/57 72/72/72 
f 72/72/72 57/57/57 55/55/55 70/70/70 
f 58/58/58 61/61/61 63/63/63 60/60/60 
f 60/60/60 63/63/63 62/62/62 59/59/59 
f 61/61/61 64/64/64 66/66/66 63/63/63 
f 63/63/63 66/66/66 65/65/65 62/62/62 
f 64/64/64 67/67/67 69/69/69 66/66/66 
f 66/66/66 69/69/69 68/68/68 65/65/65 
f 67/67/67 71/71/71 72/72/72 69/69/69 
f 69/69/69 72/72/72 70/70/70 68/68/68 
f 71/71/71 51/51/51 7/7/7 56/56/56 
#end 55 faces

#ZOMPROPERTIES_04{
#ZOMPROPERTIES_04 table {Mesh table {SymPlane table {Point vector3d 0 0 0 Normal vector3d 1 0 0 Threshold double 0.01 
#ZOMPROPERTIES_04 Enabled bool false EdgeID int -1 SymEdgeID int -1 UPos double 0.5 LocalMode bool false } RootGroup C
#ZOMPROPERTIES_04 SubMeshGroup {Children table {Tile_0_0 CSubMeshGroup {Children table {} BBoxUV box3d 0 0 0 0 0 0 BBo
#ZOMPROPERTIES_04 x3D box3d 0 0 0 0 0 0 Area3D double 0 AreaUV double 0.91418 IsRoot bool false Properties table {Sele
#ZOMPROPERTIES_04 cted bool false Box box3d 0 1 0 1 0 1 U int 0 V int 0 NU int 0 NV int 0 Tiling vector3d 1 1 1 TileRa
#ZOMPROPERTIES_04 tioMode string "1:1" Overflow string "Off" Pack table {BoxFrameEdit bool false Behavior string "Free
#ZOMPROPERTIES_04 " } } IsTile bool true PolyIDs ints { 0 43 42 41 40 9 17 13 1 46 47 29 25 21 32 33 34 35 2 5 4 3 45 
#ZOMPROPERTIES_04 44 54 7 6 8 20 12 19 11 18 15 38 37 50 51 30 36 27 23 28 26 31 53 49 52 48 39 14 16 24 22 10 } } } B
#ZOMPROPERTIES_04 BoxUV box3d 0 0 0 0 0 0 BBox3D box3d 0 0 0 0 0 0 Area3D double 0 AreaUV double 0 IsRoot bool true Pr
#ZOMPROPERTIES_04 operties table {Selected bool false Box box3d 0 1 0 1 0 1 U int 0 V int 0 NU int 1 NV int 1 Tiling v
#ZOMPROPERTIES_04 ector3d 1 1 1 TileRatioMode string "1:1" Overflow string "Off" Pack table {Rotate table {Mode int 0 
#ZOMPROPERTIES_04 Min double 0 Max double 90 Step double 0 } PaddingSize double 0.0078125 MarginSize double 0.00390625
#ZOMPROPERTIES_04  Resolution int 256 MapResolution int 2048 Scaling table {TexelDensity double 1024 Mode int 2 } Layo
#ZOMPROPERTIES_04 utScalingMode int 2 MaxMutations int 1 } } IsTile bool false PolyIDs ints { } } Maps table {Pin tabl
#ZOMPROPERTIES_04 e {PrimType string "Vertex" Size int 1 DefaultValue double 0 ScaleType string "Normalized" MergeMode
#ZOMPROPERTIES_04  string "Max" MinValue double 0 MaxValue double 1 Data doubles { r 72 0 } } Density table {PrimType 
#ZOMPROPERTIES_04 string "Polygon" Size int 1 DefaultValue double 1 ScaleType string "Log" MergeMode string "Average" 
#ZOMPROPERTIES_04 MinValue double 0.1 MaxValue double 4 Data doubles { r 55 1 } } Protect table {PrimType string "Vert
#ZOMPROPERTIES_04 ex" Size int 1 DefaultValue double 0 ScaleType string "Normalized" MergeMode string "Average" MinVal
#ZOMPROPERTIES_04 ue double -1 MaxValue double 1 Data doubles { r 72 0 } } } } }
#ZOMPROPERTIES_04}


#ZOMSCENE_01{
#ZOMSCENE_01 CScene {Settings table {AxisSystem table {UpVector string "y" } Unit string "cm" TexelDensityDisplay
#ZOMSCENE_01 Unit string "tx/cm" } Root table {} }
#ZOMSCENE_01}

#begin 0 fatal error vertex (that RizomUV cannot handle)
#end 0 fatal error vertex (that RizomUV cannot handle)

#begin 0 error vertex
#end 0 error vertex
