#File written by RizomUV 2023.0.70.ge90189e8. Compilation :Sep 22 2023,12:42:11
mtllib pared cortina.mtl
#begin vertices
v 0.564525 -2.054543 -16.70483
v 0.564525 7.604851 -16.70483
v -11.11766 -2.054543 -16.70483
v -11.11766 7.604851 -16.70483
v -10.07402 -1.376842 -16.70483
v 0.361766 -1.376842 -16.70483
v 0.361766 6.546012 -16.70483
v -10.07402 6.546012 -16.70483
v -9.100954 -0.762446 -16.88006
v -0.2837 -0.762446 -16.88006
v -0.2837 5.931617 -16.88006
v -9.100954 5.931617 -16.88006
v -9.100954 -0.762446 -17.04068
v -0.2837 -0.762446 -17.04068
v -0.2837 5.931617 -17.04068
v -9.100954 5.931617 -17.04068
v -9.100954 -0.762447 -16.95461
v -0.2837 -0.762447 -16.95461
v -0.2837 5.931616 -16.95461
v -9.100954 5.931616 -16.95461
v -20.38293 6.86557 -16.8612
v -20.38293 7.934944 -16.8612
v -20.38293 6.86557 -17.16033
v -20.38293 7.934944 -17.16033
v 2.114561 6.86557 -16.8612
v 2.114561 7.934944 -16.8612
v 2.114561 6.86557 -17.16033
v 2.114561 7.934944 -17.16033
v -10.09856 6.86557 -17.16033
v -10.09856 7.934944 -17.16033
v -10.09856 6.86557 -16.8612
v -10.09856 7.934944 -16.8612
v -10.37214 6.86557 -17.16033
v -10.37214 7.934944 -16.8612
v -10.37214 7.934944 -17.16033
v -10.37214 6.86557 -16.8612
v 1.083617 7.934944 -17.16033
v 1.083617 6.86557 -16.8612
v 1.083617 6.86557 -17.16033
v 1.083617 7.934944 -16.8612
v 0.832631 6.86557 -17.16033
v 0.832631 7.934944 -16.8612
v 0.832631 7.934944 -17.16033
v 0.832631 6.86557 -16.8612
v -10.37214 -0.79402 -16.8612
v -10.09856 -0.79402 -16.8612
v -10.09856 -0.79402 -17.16033
v -10.37214 -0.79402 -17.16033
v 0.832631 -0.79402 -16.8612
v 1.083617 -0.79402 -16.8612
v 1.083617 -0.79402 -17.16033
v 0.832631 -0.79402 -17.16033
v -20.38293 6.86557 -16.67013
v -20.38293 7.934944 -16.67013
v 2.114561 7.934944 -16.67013
v 2.114561 6.86557 -16.67013
v 1.083617 6.86557 -16.67013
v -10.37214 7.934944 -16.67013
v -10.37214 6.86557 -16.67013
v -10.09856 6.86557 -16.67013
v 0.832631 7.934944 -16.67013
v -10.09856 7.934944 -16.67013
v 0.832631 6.86557 -16.67013
v 1.083617 7.934944 -16.67013
v -20.38293 7.934944 -17.3815
v -20.38293 6.86557 -17.3815
v -10.37214 6.86557 -17.3815
v 1.083617 7.934944 -17.3815
v 2.114561 7.934944 -17.3815
v 2.114561 6.86557 -17.3815
v 0.832631 6.86557 -17.3815
v -10.09856 6.86557 -17.3815
v -10.37214 7.934944 -17.3815
v -10.09856 7.934944 -17.3815
v 0.832631 7.934944 -17.3815
v 1.083617 6.86557 -17.3815
v -10.09856 -0.79402 -17.3815
v -10.37214 -0.79402 -17.3815
v 1.083617 -0.79402 -17.3815
v 0.832631 -0.79402 -17.3815
v -21.87942 6.86557 -17.16033
v -21.87942 6.86557 -16.8612
v -21.87942 7.934944 -16.8612
v -21.87942 7.934944 -17.16033
v -21.87942 6.86557 -16.67013
v -21.87942 6.86557 -17.3815
v -21.87942 7.934944 -17.3815
v -21.87942 7.934944 -16.67013
v -20.38293 6.86557 11.56507
v -20.38293 7.934944 11.56507
v -21.87942 6.86557 11.56507
v -21.87942 7.934944 11.56507
v -20.38293 6.364394 -16.67013
v -21.87942 6.364394 -16.67013
v -20.38293 6.364394 11.56507
v -21.87942 6.364394 11.56507
v -10.27276 6.53129 -17.09211
v -10.27276 6.971405 -17.20182
v -10.27276 6.516711 -17.15059
v -10.27276 6.956826 -17.2603
v 0.926443 6.53129 -17.09211
v 0.926443 6.971405 -17.20182
v 0.926443 6.516711 -17.15059
v 0.926443 6.956826 -17.2603
v -10.27276 6.241877 -17.08591
v -10.27276 6.681992 -17.19562
v -10.27276 6.227298 -17.14439
v -10.27276 6.667413 -17.25411
v 0.926443 6.241877 -17.08591
v 0.926443 6.681992 -17.19562
v 0.926443 6.227298 -17.14439
v 0.926443 6.667413 -17.25411
v -10.27276 5.948551 -17.07145
v -10.27276 6.388666 -17.18117
v -10.27276 5.933972 -17.12994
v -10.27276 6.374087 -17.23965
v 0.926443 5.948551 -17.07145
v 0.926443 6.388666 -17.18117
v 0.926443 5.933972 -17.12994
v 0.926443 6.374087 -17.23965
v -10.27276 5.665261 -17.05683
v -10.27276 6.105376 -17.16655
v -10.27276 5.650682 -17.11532
v -10.27276 6.090797 -17.22503
v 0.926443 5.665261 -17.05683
v 0.926443 6.105376 -17.16655
v 0.926443 5.650682 -17.11532
v 0.926443 6.090797 -17.22503
v -10.27276 5.375848 -17.05064
v -10.27276 5.815963 -17.16035
v -10.27276 5.361269 -17.10912
v -10.27276 5.801384 -17.21884
v 0.926443 5.375848 -17.05064
v 0.926443 5.815963 -17.16035
v 0.926443 5.361269 -17.10912
v 0.926443 5.801384 -17.21884
v -10.27276 5.082522 -17.03618
v -10.27276 5.522637 -17.14589
v -10.27276 5.067943 -17.09466
v -10.27276 5.508058 -17.20438
v 0.926443 5.082522 -17.03618
v 0.926443 5.522637 -17.14589
v 0.926443 5.067943 -17.09466
v 0.926443 5.508058 -17.20438
#end vertices

#begin 221 textures vertices 
vt 0.972174 0.5605995 0
vt 0.9719277 0.9330761 0
vt 0.5220713 0.5604428 0
vt 0.5218616 0.9329199 0
vt 0.5622407 0.5865295 0
vt 0.9643573 0.5867004 0
vt 0.9641539 0.8922694 0
vt 0.5620553 0.8921961 0
vt 0.6000792 0.6109258 0
vt 0.9389166 0.6110569 0
vt 0.9386916 0.8679283 0
vt 0.5998434 0.867798 0
vt 0.1206941 0.1355639 0
vt 0.3000442 0.3643486 0
vt 0.4700902 0.2326917 0
vt 0.2907395 0.00390625 0
vt 0.02731836 0.6334798 0
vt 0.4948419 0.6334798 0
vt 0.4948419 0.9884239 0
vt 0.02731836 0.9884239 0
vt 0.7642561 0.1277268 0
vt 0.7230721 0.08312011 0
vt 0.7706838 0.1325381 0
vt 0.7184462 0.07638659 0
vt 0.3513542 0.5637905 0
vt 0.3330346 0.5433109 0
vt 0.3474141 0.5703734 0
vt 0.3260357 0.5447794 0
vt 0.5862876 0.3434092 0
vt 0.4927 0.2520187 0
vt 0.1834437 0.1193667 0
vt 0.4994532 0.2564964 0
vt 0.5913599 0.3382826 0
vt 0.5047549 0.2490755 0
vt 0.4993119 0.2431006 0
vt 0.1856209 0.1120082 0
vt 0.3358761 0.5154226 0
vt 0.3773304 0.5668479 0
vt 0.3765813 0.5746749 0
vt 0.3434589 0.5189994 0
vt 0.3896919 0.5670152 0
vt 0.346985 0.5134617 0
vt 0.3399563 0.5093128 0
vt 0.3835687 0.5616371 0
vt 0.3906477 0.1732588 0
vt 0.3884234 0.1799013 0
vt 0.3870945 0.1874766 0
vt 0.3008151 0.2181361 0
vt 0.2556082 0.5940799 0
vt 0.1633586 0.288872 0
vt 0.3354127 0.03739795 0
vt 0.3341339 0.01938374 0
vt 0.7411198 0.1120086 0
vt 0.9831297 0.5236498 0
vt 0.3373676 0.5425529 0
vt 0.3541567 0.5594738 0
vt 0.3759746 0.5622475 0
vt 0.5082348 0.2528688 0
vt 0.5815134 0.3292423 0
vt 0.5274918 0.2760551 0
vt 0.3515 0.516069 0
vt 0.5037763 0.2593332 0
vt 0.3770619 0.5303636 0
vt 0.3483658 0.5214627 0
vt 0.05059715 0.05591948 0
vt 0.02447956 0.05543161 0
vt 0.2922687 0.2094058 0
vt 0.3303499 0.512824 0
vt 0.3205278 0.5458582 0
vt 0.3446166 0.5753801 0
vt 0.3942213 0.5709887 0
vt 0.01978764 0.3066094 0
vt 0.4954368 0.2385314 0
vt 0.4875528 0.2489044 0
vt 0.0409182 0.5740725 0
vt 0.01468611 0.5797146 0
vt 0.2905299 0.2153253 0
vt 0.3293036 0.1980014 0
vt 0.3354181 0.03166846 0
vt 0.3351035 0.02509659 0
vt 0.7803156 0.08778036 0
vt 0.7723988 0.08900973 0
vt 0.7580746 0.07141684 0
vt 0.7592369 0.06449061 0
vt 0.7672009 0.08932431 0
vt 0.7861126 0.08664064 0
vt 0.05127988 0.01937043 0
vt 0.7575768 0.07609187 0
vt 0.5088554 0.4916432 0
vt 0.5014428 0.493979 0
vt 0.4943908 0.4865122 0
vt 0.4807246 0.4881698 0
vt 0.7466879 0.1225495 0
vt 0.7537909 0.0866055 0
vt 0.5081142 0.4896607 0
vt 0.5019344 0.4846758 0
vt 0.4426198 0.1697089 0
vt 0.8803805 0.00390625 0
vt 0.4418003 0.1682894 0
vt 0.4356327 0.1576068 0
vt 0.8740048 0.3086513 0
vt 0.6985716 0.00390625 0
vt 0.7055587 0.01600837 0
vt 0.6993911 0.005325767 0
vt 0.9019645 0.00390625 0
vt 0.8058301 0.1760075 0
vt 0.9036036 0.00390625 0
vt 0.9159388 0.00390625 0
vt 0.6883578 0.3324227 0
vt 0.9175779 0.3084683 0
vt 0.9036036 0.3084683 0
vt 0.9159388 0.3084683 0
vt 0.09525882 0.2920096 0
vt 0.08292494 0.2921908 0
vt 0.6746092 0.9596944 0
vt 0.081286 0.2922149 0
vt 0.09973407 0.5965387 0
vt 0.08740019 0.59672 0
vt 0.101373 0.5965146 0
vt 0.9793209 0.9518894 0
vt 0.197454 0.5932578 0
vt 0.2097829 0.5928633 0
vt 0.6758937 0.9800165 0
vt 0.2114212 0.5928108 0
vt 0.1877136 0.2888515 0
vt 0.2000425 0.288457 0
vt 0.1860753 0.288904 0
vt 0.9806054 0.9722115 0
vt 0.9502905 0.00390625 0
vt 0.1158115 0.2966236 0
vt 0.9519296 0.00390625 0
vt 0.9642648 0.00390625 0
vt 0.1370499 0.6006946 0
vt 0.9659039 0.3084683 0
vt 0.9519296 0.3084683 0
vt 0.9642648 0.3084683 0
vt 0.9261275 0.00390625 0
vt 0.2241128 0.2833252 0
vt 0.9277666 0.00390625 0
vt 0.9401018 0.00390625 0
vt 0.2457971 0.5873646 0
vt 0.9417409 0.3084683 0
vt 0.9277666 0.3084683 0
vt 0.9401018 0.3084683 0
vt 0.4649222 0.2325822 0
vt 0.3011391 0.3592835 0
vt 0.2896445 0.008971244 0
vt 0.1258622 0.1356734 0
vt 0.5290345 0.2731484 0
vt 0.5762306 0.3346289 0
vt 0.3796529 0.558202 0
vt 0.3737473 0.5367256 0
vt 0.2817304 0.2565726 0
vt 0.5958279 0.3423295 0
vt 0.2650352 0.1812231 0
vt 0.585318 0.3328023 0
vt 0.5801567 0.3380428 0
vt 0.1811016 0.1274002 0
vt 0.173179 0.6080512 0
vt 0.5467176 0.01003633 0
vt 0.2687074 0.259035 0
vt 0.5472106 0.01699323 0
vt 0.5462783 0.00390625 0
vt 0.1606987 0.6079489 0
vt 0.04603003 0.3004157 0
vt 0.715032 0.07141521 0
vt 0.0408037 0.5802024 0
vt 0.3348532 0.5060987 0
vt 0.04590522 0.3070972 0
vt 0.04033336 0.6053814 0
vt 0.01421577 0.6048936 0
vt 0.3761402 0.5805173 0
vt 0.5908187 0.3473802 0
vt 0.01480061 0.5735847 0
vt 0.01991244 0.2999278 0
vt 0.7754213 0.1361566 0
vt 0.02516229 0.01888256 0
vt 0.7601316 0.059168 0
vt 0.982341 0.453714 0
vt 0.9802431 0.4336734 0
vt 0.982923 0.4634813 0
vt 0.7260335 0.08741651 0
vt 0.9839805 0.5025605 0
vt 0.7601568 0.1246311 0
vt 0.9842626 0.4926698 0
vt 0.9805506 0.5527268 0
vt 0.2334677 0.5877435 0
vt 0.9417409 0.00390625 0
vt 0.2364421 0.2829463 0
vt 0.9261275 0.3084683 0
vt 0.1247199 0.6010554 0
vt 0.9659039 0.00390625 0
vt 0.1281415 0.2962628 0
vt 0.9502905 0.3084683 0
vt 0.980422 0.9845453 0
vt 0.1958157 0.5933102 0
vt 0.6760771 0.9676827 0
vt 0.2016808 0.2884046 0
vt 0.9791375 0.9642233 0
vt 0.09689776 0.2919855 0
vt 0.6747926 0.9473606 0
vt 0.08576125 0.5967441 0
vt 0.7930305 0.1402285 0
vt 0.9175779 0.00390625 0
vt 0.6804703 0.3540646 0
vt 0.9019645 0.3084683 0
vt 0.8616928 0.3078944 0
vt 0.4348131 0.1561873 0
vt 0.8926924 0.004663127 0
vt 0.7063783 0.01742788 0
vt 0.3934206 0.1662377 0
vt 0.2822808 0.2499168 0
vt 0.1880338 0.1039776 0
vt 0.2455363 0.2686753 0
vt 0.2817919 0.2595466 0
vt 0.1756077 0.2882289 0
vt 0.1663559 0.2801345 0
vt 0.5476176 0.0231152 0
vt 0.1502117 0.6078495 0
vt 0.2686927 0.5945915 0
vt 0.153131 0.2880544 0
#end 221 textures vertices 

#begin 44 normals 
vn -0.0346 0.0341 0.9988
vn -0.0346 -0.0341 0.9988
vn -0.1321 -0.1411 0.9811
vn -0.1321 0.1411 0.9811
vn 0.0287 0.0254 0.9993
vn -0 -0 1
vn 0.0287 -0.0254 0.9993
vn 0.0815 -0.1519 0.985
vn 0.0815 0.1519 0.985
vn -0 1 -0
vn 1 -0 -0
vn -1 -0 -0
vn -0 -1 -0
vn -0 -0 1
vn -0 -0 -1
vn -0 -1 -0
vn 1 -0 -0
vn -0 1 -0
vn -0 -0 1
vn -1 -0 -0
vn -0 -0.2419 -0.9703
vn -0 0.2419 0.9703
vn -0 -0.9703 0.2419
vn -0 0.9703 -0.2419
vn -0 -0.2419 -0.9703
vn -0 0.2419 0.9703
vn -0 -0.9703 0.2419
vn -0 0.9703 -0.2419
vn -0 -0.2419 -0.9703
vn -0 0.2419 0.9703
vn -0 -0.9703 0.2419
vn -0 0.9703 -0.2419
vn -0 -0.2419 -0.9703
vn -0 0.2419 0.9703
vn -0 -0.9703 0.2419
vn -0 0.9703 -0.2419
vn -0 -0.2419 -0.9703
vn -0 0.2419 0.9703
vn -0 -0.9703 0.2419
vn -0 0.9703 -0.2419
vn -0 -0.2419 -0.9703
vn -0 0.2419 0.9703
vn -0 -0.9703 0.2419
vn -0 0.9703 -0.2419
#end 44 normals 

#begin 111 faces
o Plane
s 1
f 6/6/1 7/7/2 11/11/3 10/10/4 
f 6/6/1 5/5/5 3/3/6 1/1/6 
f 7/7/2 6/6/1 1/1/6 2/2/6 
f 8/8/7 7/7/2 2/2/6 4/4/6 
f 5/5/5 8/8/7 4/4/6 3/3/6 
f 7/7/2 8/8/7 12/12/8 11/11/3 
f 5/5/5 6/6/1 10/10/4 9/9/9 
f 8/8/7 5/5/5 9/9/9 12/12/8 
f 9/148/10 10/146/10 14/14/10 13/13/10 
f 12/147/11 9/148/11 13/13/11 16/16/11 
f 10/146/12 11/145/12 15/15/12 14/14/12 
f 11/145/13 12/147/13 16/16/13 15/15/13 
o Plane:001
s 1
f 17/17/14 18/18/14 19/19/14 20/20/14 
o Cube:008
s 1
f 65/65/15 66/66/15 86/177/15 87/87/15 
f 51/51/16 52/52/16 80/80/16 79/79/16 
f 27/27/17 28/28/17 26/26/17 25/25/17 
f 26/26/18 40/40/18 64/64/18 55/55/18 
f 39/39/16 27/27/16 25/25/16 38/38/16 
f 35/35/18 24/24/18 22/22/18 34/34/18 
f 43/43/18 30/30/18 32/32/18 42/42/18 
f 31/31/19 36/36/19 45/45/19 46/46/19 
f 38/38/16 25/25/16 56/56/16 57/57/16 
f 35/35/18 30/30/18 74/74/18 73/73/18 
f 37/37/18 28/28/18 69/69/18 68/68/18 
f 23/23/16 33/33/16 36/156/16 21/21/16 
f 30/30/18 35/35/18 34/34/18 32/32/18 
f 40/40/18 42/42/18 61/61/18 64/64/18 
f 21/21/16 36/156/16 59/59/16 53/184/16 
f 28/28/18 37/37/18 40/40/18 26/26/18 
f 41/41/16 29/29/16 72/173/16 71/71/16 
f 48/48/20 33/155/20 67/67/20 78/78/20 
f 33/33/16 23/23/16 66/176/16 67/154/16 
f 29/29/16 41/41/16 44/44/16 31/157/16 
f 25/25/17 26/26/17 55/55/17 56/56/17 
f 37/37/18 43/43/18 42/42/18 40/40/18 
f 48/211/16 47/47/16 46/46/16 45/45/16 
f 52/217/16 51/216/16 50/50/16 49/221/16 
f 36/36/20 33/213/20 48/211/20 45/45/20 
f 39/159/17 38/164/17 50/50/17 51/216/17 
f 44/161/20 41/215/20 52/220/20 49/49/20 
f 29/158/17 31/31/17 46/46/17 47/47/17 
f 23/23/16 21/21/16 82/82/16 81/81/16 
f 38/164/19 44/219/19 49/221/19 50/50/19 
f 59/149/19 58/58/19 54/182/19 53/53/19 
f 63/63/19 61/61/19 62/62/19 60/60/19 
f 60/60/19 62/62/19 58/58/19 59/149/19 
f 56/56/19 55/55/19 64/64/19 57/152/19 
f 57/152/19 64/64/19 61/61/19 63/63/19 
f 36/156/16 31/157/16 60/150/16 59/59/16 
f 32/32/18 34/34/18 58/58/18 62/62/18 
f 34/34/18 22/22/18 54/182/18 58/58/18 
f 22/22/18 24/24/18 84/84/18 83/83/18 
f 42/42/18 32/32/18 62/62/18 61/61/18 
f 31/157/16 44/44/16 63/151/16 60/150/16 
f 44/44/16 38/38/16 57/57/16 63/151/16 
f 76/76/15 68/167/15 69/170/15 70/171/15 
f 67/175/15 73/165/15 74/169/15 72/72/15 
f 66/66/15 65/65/15 73/165/15 67/175/15 
f 71/160/15 76/162/15 79/79/15 80/80/15 
f 71/174/15 75/75/15 68/167/15 76/76/15 
f 72/72/15 74/169/15 75/75/15 71/174/15 
f 67/67/15 72/153/15 77/77/15 78/78/15 
f 43/43/18 37/37/18 68/68/18 75/168/18 
f 28/28/17 27/27/17 70/70/17 69/69/17 
f 29/214/17 47/212/17 77/77/17 72/153/17 
f 24/24/18 35/35/18 73/73/18 65/166/18 
f 39/218/17 51/51/17 79/79/17 76/162/17 
f 27/27/16 39/39/16 76/172/16 70/70/16 
f 30/30/18 43/43/18 75/168/18 74/74/18 
f 52/52/20 41/163/20 71/160/20 80/80/20 
f 47/212/16 48/48/16 78/78/16 77/77/16 
f 82/82/20 83/83/20 84/84/20 81/81/20 
f 81/81/20 84/84/20 87/178/20 86/86/20 
f 83/83/20 82/82/20 85/85/20 88/88/20 
f 24/24/18 65/166/18 87/178/18 84/84/18 
f 21/21/16 53/184/16 85/85/16 82/82/16 
f 54/182/18 22/22/18 83/83/18 88/88/18 
f 54/54/18 88/186/18 92/92/18 90/90/18 
f 66/176/16 23/23/16 81/81/16 86/86/16 
f 89/89/19 90/90/19 92/92/19 91/91/19 
f 88/180/20 85/179/20 91/91/20 92/92/20 
f 91/91/20 85/179/20 94/181/20 96/96/20 
f 53/183/17 54/54/17 90/90/17 89/89/17 
f 94/181/16 93/185/16 95/95/16 96/96/16 
f 89/89/19 91/91/19 96/96/19 95/95/19 
f 85/85/15 53/184/15 93/93/15 94/94/15 
f 53/183/17 89/89/17 95/95/17 93/185/17 
o Cube:009
s 1
f 99/99/21 100/100/21 104/104/21 103/103/21 
f 101/101/22 102/207/22 98/98/22 97/209/22 
f 99/99/23 103/103/23 101/210/23 97/97/23 
f 104/104/24 100/100/24 98/208/24 102/102/24 
o Cube:010
s 1
f 107/107/25 108/108/25 112/112/25 111/111/25 
f 109/109/26 110/203/26 106/106/26 105/205/26 
f 107/107/27 111/111/27 109/206/27 105/105/27 
f 112/112/28 108/108/28 106/204/28 110/110/28 
o Cube:011
s 1
f 115/115/29 116/201/29 120/120/29 119/199/29 
f 117/117/30 118/118/30 114/114/30 113/113/30 
f 115/200/31 119/119/31 117/117/31 113/113/31 
f 120/202/32 116/116/32 114/114/32 118/118/32 
o Cube:012
s 1
f 123/123/33 124/197/33 128/128/33 127/195/33 
f 125/125/34 126/126/34 122/122/34 121/121/34 
f 123/196/35 127/127/35 125/125/35 121/121/35 
f 128/198/36 124/124/36 122/122/36 126/126/36 
o Cube:013
s 1
f 131/131/37 132/132/37 136/136/37 135/135/37 
f 133/133/38 134/191/38 130/130/38 129/193/38 
f 131/131/39 135/135/39 133/194/39 129/129/39 
f 136/136/40 132/132/40 130/192/40 134/134/40 
o Cube:014
s 1
f 139/139/41 140/140/41 144/144/41 143/143/41 
f 141/141/42 142/187/42 138/138/42 137/189/42 
f 139/139/43 143/143/43 141/190/43 137/137/43 
f 144/144/44 140/140/44 138/188/44 142/142/44 
#end 111 faces

#ZOMPROPERTIES_04{
#ZOMPROPERTIES_04 table {Mesh table {SymPlane table {Point vector3d 0 0 0 Normal vector3d 1 0 0 Threshold double 0.01 
#ZOMPROPERTIES_04 Enabled bool false EdgeID int -1 SymEdgeID int -1 UPos double 0.5 LocalMode bool false } RootGroup C
#ZOMPROPERTIES_04 SubMeshGroup {Children table {Tile_0_0 CSubMeshGroup {Children table {} BBoxUV box3d 0 0 0 0 0 0 BBo
#ZOMPROPERTIES_04 x3D box3d 0 0 0 0 0 0 Area3D double 0 AreaUV double 0.417812 IsRoot bool false Properties table {Sel
#ZOMPROPERTIES_04 ected bool false Box box3d 0 1 0 1 0 1 U int 0 V int 0 NU int 0 NV int 0 Tiling vector3d 1 1 1 TileR
#ZOMPROPERTIES_04 atioMode string "1:1" Overflow string "Off" Pack table {BoxFrameEdit bool false Behavior string "Fre
#ZOMPROPERTIES_04 e" } } IsTile bool true PolyIDs ints { 8 10 11 9 92 88 99 95 108 104 14 58 69 66 30 61 70 64 39 87 9
#ZOMPROPERTIES_04 0 89 96 98 97 100 102 101 103 106 105 107 110 109 91 94 93 20 35 37 40 36 42 38 13 57 56 60 59 55 77
#ZOMPROPERTIES_04  79 84 83 81 86 82 80 15 33 46 47 44 45 43 50 18 65 22 68 62 23 34 26 52 19 28 25 74 72 71 73 75 27 
#ZOMPROPERTIES_04 48 53 54 21 32 29 24 31 78 41 85 76 51 49 16 63 67 17 0 5 7 6 1 2 4 3 12 } } } BBoxUV box3d 0 0 0 0 
#ZOMPROPERTIES_04 0 0 BBox3D box3d 0 0 0 0 0 0 Area3D double 0 AreaUV double 0 IsRoot bool true Properties table {Sele
#ZOMPROPERTIES_04 cted bool false Box box3d 0 1 0 1 0 1 U int 0 V int 0 NU int 1 NV int 1 Tiling vector3d 1 1 1 TileRa
#ZOMPROPERTIES_04 tioMode string "1:1" Overflow string "Off" Pack table {Rotate table {Mode int 0 Min double 0 Max dou
#ZOMPROPERTIES_04 ble 90 Step double 0 } PaddingSize double 0.0078125 MarginSize double 0.00390625 Resolution int 256 
#ZOMPROPERTIES_04 MapResolution int 2048 Scaling table {TexelDensity double 1024 Mode int 2 } LayoutScalingMode int 2 
#ZOMPROPERTIES_04 MaxMutations int 1 } } IsTile bool false PolyIDs ints { } } Maps table {Pin table {PrimType string "
#ZOMPROPERTIES_04 Vertex" Size int 1 DefaultValue double 0 ScaleType string "Normalized" MergeMode string "Max" MinVal
#ZOMPROPERTIES_04 ue double 0 MaxValue double 1 Data doubles { r 221 0 } } Density table {PrimType string "Polygon" Si
#ZOMPROPERTIES_04 ze int 1 DefaultValue double 1 ScaleType string "Log" MergeMode string "Average" MinValue double 0.1
#ZOMPROPERTIES_04  MaxValue double 4 Data doubles { r 111 1 } } Protect table {PrimType string "Vertex" Size int 1 Def
#ZOMPROPERTIES_04 aultValue double 0 ScaleType string "Normalized" MergeMode string "Average" MinValue double -1 MaxVa
#ZOMPROPERTIES_04 lue double 1 Data doubles { r 221 0 } } } } }
#ZOMPROPERTIES_04}


#ZOMSCENE_01{
#ZOMSCENE_01 CScene {Settings table {AxisSystem table {UpVector string "y" } Unit string "cm" TexelDensityDisplay
#ZOMSCENE_01 Unit string "tx/cm" } Root table {} }
#ZOMSCENE_01}

#begin 0 fatal error vertex (that RizomUV cannot handle)
#end 0 fatal error vertex (that RizomUV cannot handle)

#begin 0 error vertex
#end 0 error vertex
