# Blender 4.2.8 LTS
# www.blender.org
mtllib untitled.mtl
o Cube
v -0.000000 -0.091145 -2.682677
v 0.000000 0.091146 -2.682677
v -2.682677 0.091146 0.000000
v 2.682677 0.091146 0.000000
v 3.131828 0.091145 1.967858
v 3.226351 0.091145 1.553729
v 3.226350 0.091145 1.128949
v 3.131828 0.091145 0.714819
v 2.947523 0.091145 0.332106
v 2.682677 -0.091146 0.000000
v 2.947523 -0.091146 0.332106
v 3.131828 -0.091146 0.714819
v 3.226350 -0.091146 1.128949
v 3.226350 -0.091146 1.553728
v 3.131828 -0.091146 1.967858
v -2.947523 0.091146 0.332106
v -3.131828 0.091146 0.714819
v -3.226350 0.091146 1.128949
v -3.226350 0.091146 1.553729
v -3.131828 0.091146 1.967858
v -2.682677 -0.091146 0.000000
v -3.131828 -0.091146 1.967858
v -3.226351 -0.091146 1.553728
v -3.226351 -0.091146 1.128949
v -3.131828 -0.091146 0.714819
v -2.947523 -0.091146 0.332106
v 2.999960 0.091145 2.241686
v 2.999959 -0.091146 2.241685
v 0.440991 -0.091146 2.241686
v -2.999960 -0.091146 2.241686
v -2.999959 0.091145 2.241686
v -2.279332 -0.091146 2.241686
v -0.440991 -0.091146 2.241686
v -2.269558 0.238508 0.000000
v 2.269558 0.238508 0.000000
v 2.493619 0.238508 1.988595
v 2.649542 0.238508 1.664818
v 2.729509 0.238508 1.314462
v 2.729508 0.238508 0.955096
v 2.649542 0.238508 0.604741
v 2.493619 0.238508 0.280964
v 2.269558 0.084289 -0.000000
v 2.493619 0.084289 0.280963
v 2.649542 0.084289 0.604741
v 2.729508 0.084289 0.955096
v 2.729508 0.084289 1.314462
v 2.649542 0.084289 1.664818
v 2.493619 0.084289 1.988595
v -2.493619 0.238508 0.280964
v -2.649542 0.238508 0.604741
v -2.729508 0.238508 0.955096
v -2.729508 0.238508 1.314462
v -2.649542 0.238508 1.664818
v -2.493619 0.238508 1.988595
v -2.269558 0.084289 0.000000
v -2.493619 0.084289 1.988595
v -2.649542 0.084289 1.664818
v -2.729509 0.084289 1.314462
v -2.729508 0.084289 0.955096
v -2.649542 0.084289 0.604741
v -2.493619 0.084289 0.280963
v 2.291786 0.084289 2.241686
v 2.291787 0.238508 2.241686
v 0.027872 0.084289 2.241686
v -0.027873 0.084289 2.241686
v -0.290070 0.084289 2.241686
v -2.291786 0.084289 2.241686
v -2.291786 0.238508 2.241686
v -1.879798 0.360034 0.000000
v 1.879798 0.360034 0.000000
v 2.065380 0.360033 1.647086
v 2.194525 0.360033 1.378912
v 2.260759 0.360033 1.088724
v 2.260759 0.360033 0.791074
v 2.194525 0.360033 0.500886
v 2.065380 0.360033 0.232713
v 1.879798 0.360033 1.879798
v 0.232713 0.360033 2.065380
v 0.500886 0.360033 2.194525
v 1.378912 0.360033 2.194525
v 1.647086 0.360033 2.065380
v 1.879798 0.232299 1.879798
v 1.647085 0.232299 2.065380
v 1.378911 0.232299 2.194525
v 0.500886 0.232299 2.194525
v 0.232712 0.232299 2.065380
v 1.879798 0.232299 0.000000
v 2.065380 0.232299 0.232712
v 2.194525 0.232299 0.500886
v 2.260759 0.232299 0.791074
v 2.260759 0.232299 1.088724
v 2.194525 0.232299 1.378911
v 2.065380 0.232299 1.647085
v -1.879798 0.360033 1.879798
v 0.000000 0.360033 1.879798
v -1.647085 0.360033 2.065380
v -1.378911 0.360033 2.194525
v -0.500886 0.360033 2.194525
v -0.232712 0.360033 2.065380
v -2.065380 0.360034 0.232713
v -2.194525 0.360034 0.500886
v -2.260759 0.360034 0.791074
v -2.260759 0.360034 1.088724
v -2.194525 0.360033 1.378912
v -2.065380 0.360033 1.647085
v -1.879798 0.232299 0.000000
v -2.065380 0.232299 1.647085
v -2.194525 0.232299 1.378911
v -2.260759 0.232299 1.088724
v -2.260759 0.232299 0.791074
v -2.194525 0.232299 0.500886
v -2.065380 0.232299 0.232712
v -0.000000 0.232299 1.879798
v -1.879798 0.232299 1.879798
v -0.232713 0.232299 2.065380
v -0.500886 0.232299 2.194525
v -1.378912 0.232299 2.194525
v -1.647085 0.232299 2.065380
v 0.960356 0.360033 2.241685
v 1.172292 0.360033 2.241685
v 0.707507 0.232299 2.241685
v 1.172289 0.232299 2.241686
v 0.707508 0.360033 2.241685
v -0.707508 0.360033 2.241686
v -0.960354 0.360033 2.241686
v -0.799432 0.232299 2.241686
v -0.707508 0.232299 2.241685
v -1.172289 0.360033 2.241686
v -1.172289 0.232299 2.241685
v -1.498089 0.459814 0.000000
v 1.498090 0.459814 0.000000
v 1.645988 0.459813 1.312631
v 1.748909 0.459814 1.098913
v 1.801694 0.459814 0.867650
v 1.801693 0.459814 0.630440
v 1.748909 0.459814 0.399177
v 1.645988 0.459814 0.185459
v 1.498090 0.459813 1.498090
v 0.185458 0.459814 1.645988
v 0.399177 0.459814 1.748909
v 0.630440 0.459813 1.801693
v 0.867650 0.459813 1.801693
v 1.098913 0.459813 1.748909
v 1.312632 0.459813 1.645988
v 1.498090 0.358016 1.498090
v 1.312631 0.358016 1.645988
v 1.098912 0.358016 1.748909
v 0.867650 0.358016 1.801693
v 0.630440 0.358016 1.801693
v 0.399177 0.358016 1.748909
v 0.185458 0.358016 1.645988
v 1.498089 0.358017 0.000000
v 1.645988 0.358017 0.185458
v 1.748909 0.358017 0.399177
v 1.801693 0.358017 0.630440
v 1.801693 0.358016 0.867650
v 1.748909 0.358016 1.098912
v 1.645988 0.358016 1.312631
v -1.498090 0.459814 1.498090
v 0.000000 0.459814 1.498090
v -1.312631 0.459814 1.645988
v -1.098912 0.459814 1.748909
v -0.867650 0.459814 1.801693
v -0.630440 0.459814 1.801693
v -0.399177 0.459814 1.748909
v -0.185458 0.459814 1.645988
v -1.645988 0.459814 0.185458
v -1.748909 0.459814 0.399177
v -1.801693 0.459814 0.630440
v -1.801693 0.459814 0.867650
v -1.748909 0.459814 1.098913
v -1.645988 0.459814 1.312631
v -1.498090 0.358017 0.000000
v -1.645988 0.358017 1.312631
v -1.748909 0.358017 1.098912
v -1.801693 0.358017 0.867650
v -1.801693 0.358017 0.630440
v -1.748909 0.358017 0.399177
v -1.645988 0.358017 0.185458
v -0.000000 0.358016 1.498090
v -1.498090 0.358017 1.498090
v -0.185458 0.358016 1.645988
v -0.399177 0.358016 1.748909
v -0.630440 0.358016 1.801693
v -0.867650 0.358016 1.801693
v -1.098913 0.358016 1.748909
v -1.312631 0.358017 1.645988
v -0.025838 0.084289 -2.243721
v 0.025838 0.084289 -2.243721
v -0.013983 0.084289 -2.251642
v -0.000000 0.084289 -2.254423
v 0.013983 0.084289 -2.251642
v 0.025838 0.238508 -2.243720
v -0.025837 0.238508 -2.243720
v 0.013983 0.238508 -2.251641
v 0.000000 0.238508 -2.254422
v -0.013983 0.238508 -2.251641
v -0.025838 0.232299 -1.853960
v 0.025838 0.232299 -1.853960
v -0.013983 0.232299 -1.861881
v -0.000000 0.232299 -1.864662
v 0.013983 0.232299 -1.861881
v 0.025838 0.360034 -1.853960
v -0.025838 0.360034 -1.853960
v 0.013983 0.360034 -1.861881
v -0.000000 0.360034 -1.864662
v -0.013983 0.360034 -1.861881
v -0.025838 0.358017 -1.472252
v 0.025838 0.358017 -1.472252
v -0.013983 0.358017 -1.480173
v -0.000000 0.358017 -1.482954
v 0.013983 0.358017 -1.480173
v 0.025838 0.459814 -1.472252
v -0.025838 0.459814 -1.472252
v 0.013983 0.459814 -1.480173
v -0.000000 0.459814 -1.482954
v -0.013983 0.459814 -1.480173
vn -0.7071 -0.0000 -0.7071
vn -0.7456 -0.0000 -0.6663
vn -0.0000 1.0000 -0.0000
vn -0.0000 -1.0000 -0.0000
vn 0.7071 -0.0000 -0.7071
vn 0.7456 -0.0000 -0.6663
vn 0.9439 -0.0000 0.3303
vn 0.9937 -0.0000 0.1120
vn 0.9937 -0.0000 -0.1120
vn 0.9439 -0.0000 -0.3303
vn 0.8467 -0.0000 -0.5320
vn -0.9439 -0.0000 0.3303
vn -0.9937 -0.0000 0.1120
vn -0.9937 -0.0000 -0.1120
vn -0.9439 -0.0000 -0.3303
vn -0.8467 -0.0000 -0.5320
vn -0.0000 -0.0000 1.0000
vn -0.9010 -0.0000 0.4339
vn 0.9010 -0.0000 0.4339
vn 0.6344 -0.0000 -0.7730
vn -0.6344 -0.0000 -0.7730
vn 0.8467 -0.0000 0.5320
vn -0.8467 -0.0000 0.5320
vn 0.7818 -0.0000 0.6235
vn -0.7818 -0.0000 0.6235
vn 0.7071 -0.0000 0.7071
vn 0.5320 -0.0000 0.8467
vn 0.3303 -0.0000 0.9439
vn 0.1120 -0.0000 0.9937
vn -0.3303 -0.0000 0.9439
vn -0.5320 -0.0000 0.8467
vn -0.6235 -0.0000 0.7818
vn -0.7071 -0.0000 0.7071
vn -0.1120 -0.0000 0.9937
vn 0.6235 -0.0000 0.7818
vn 0.3827 -0.0000 -0.9239
vn -0.0000 -0.0000 -1.0000
vn -0.3827 -0.0000 -0.9239
vt 0.331967 0.648907
vt 0.061183 0.648907
vt 0.061183 0.600486
vt 0.331967 0.600486
vt 0.000184 0.097345
vt 0.007352 0.076862
vt 0.023488 0.051181
vt 0.044935 0.029734
vt 0.070616 0.013598
vt 0.099244 0.003580
vt 0.129383 0.000184
vt 0.400273 0.000184
vt 0.400273 0.271074
vt 0.396877 0.301214
vt 0.386860 0.329842
vt 0.370723 0.355523
vt 0.349277 0.376969
vt 0.323596 0.393106
vt 0.303113 0.400273
vt 0.000184 0.327471
vt 0.226544 0.327471
vt 0.271074 0.372001
vt 0.271074 0.598361
vt 0.000184 0.598361
vt 0.455456 0.359290
vt 0.455456 0.087269
vt 0.504098 0.087269
vt 0.504098 0.359290
vt 0.003580 0.297332
vt 0.013598 0.268704
vt 0.029734 0.243022
vt 0.051181 0.221576
vt 0.076862 0.205439
vt 0.097345 0.198272
vt 0.820014 0.537016
vt 0.871585 0.537016
vt 0.871585 0.566203
vt 0.820014 0.566203
vt 0.871585 0.591530
vt 0.820014 0.591530
vt 0.455456 0.000078
vt 0.504098 0.000078
vt 0.504098 0.027171
vt 0.455456 0.027171
vt 0.504098 0.056729
vt 0.455456 0.056729
vt 0.625683 0.089083
vt 0.576449 0.089083
vt 0.576449 0.058156
vt 0.625683 0.058156
vt 0.576449 0.028004
vt 0.625683 0.028004
vt 0.576449 0.000140
vt 0.625683 0.000140
vt 0.001359 0.648907
vt 0.001359 0.600486
vt 0.030782 0.600486
vt 0.030782 0.648907
vt 0.363890 0.464817
vt 0.400273 0.501200
vt 0.393106 0.521683
vt 0.376969 0.547364
vt 0.355523 0.568811
vt 0.329842 0.584947
vt 0.301214 0.594965
vt 0.453552 0.049304
vt 0.453552 0.173896
vt 0.453552 0.233672
vt 0.453552 0.407104
vt 0.402684 0.407104
vt 0.402684 0.000464
vt 0.453552 0.000464
vt 0.625683 0.110656
vt 0.576449 0.110656
vt 0.820014 0.514419
vt 0.871585 0.514419
vt 0.579199 0.347781
vt 0.602168 0.350369
vt 0.626387 0.358843
vt 0.648114 0.372495
vt 0.666258 0.390639
vt 0.679909 0.412365
vt 0.688384 0.436585
vt 0.691257 0.462083
vt 0.691257 0.688648
vt 0.691058 0.689646
vt 0.690493 0.690493
vt 0.689646 0.691058
vt 0.688648 0.691257
vt 0.462083 0.691257
vt 0.436585 0.688384
vt 0.412365 0.679909
vt 0.390639 0.666258
vt 0.372495 0.648114
vt 0.358843 0.626387
vt 0.350369 0.602168
vt 0.347781 0.579199
vt 0.736390 0.595203
vt 0.736390 0.407116
vt 0.770492 0.407116
vt 0.770492 0.595203
vt 0.278271 0.737705
vt 0.051692 0.737705
vt 0.051692 0.696721
vt 0.278271 0.696721
vt 0.620553 0.344262
vt 0.620553 0.117903
vt 0.623367 0.115088
vt 0.849727 0.115088
vt 0.849727 0.341653
vt 0.849528 0.342652
vt 0.848963 0.343498
vt 0.848116 0.344064
vt 0.847118 0.344262
vt 0.595055 0.341389
vt 0.570835 0.332915
vt 0.549109 0.319263
vt 0.530965 0.301119
vt 0.517313 0.279393
vt 0.508839 0.255173
vt 0.506251 0.232205
vt 0.774172 0.531059
vt 0.816940 0.531059
vt 0.816940 0.557250
vt 0.774172 0.557250
vt 0.816940 0.581455
vt 0.774172 0.581455
vt 0.816940 0.602459
vt 0.774172 0.602459
vt 0.692437 0.389427
vt 0.733607 0.389427
vt 0.733607 0.412359
vt 0.692437 0.412359
vt 0.733607 0.437375
vt 0.692437 0.437375
vt 0.733607 0.463223
vt 0.692437 0.463223
vt 0.167822 0.781421
vt 0.167822 0.739541
vt 0.193469 0.739541
vt 0.193469 0.781421
vt 0.219776 0.739541
vt 0.219776 0.781421
vt 0.245424 0.739541
vt 0.245424 0.781421
vt 0.269126 0.739541
vt 0.269126 0.781421
vt 0.001057 0.737705
vt 0.001057 0.696721
vt 0.025960 0.696721
vt 0.025960 0.737705
vt 0.636605 0.101850
vt 0.737669 0.000786
vt 0.760638 0.003374
vt 0.784857 0.011849
vt 0.806584 0.025500
vt 0.824727 0.043644
vt 0.838379 0.065371
vt 0.846854 0.089590
vt 0.136492 0.650954
vt 0.154263 0.650954
vt 0.158041 0.650954
vt 0.311475 0.650954
vt 0.311475 0.693989
vt 0.000828 0.693989
vt 0.000828 0.650954
vt 0.774172 0.506859
vt 0.816940 0.506859
vt 0.146471 0.781421
vt 0.146471 0.739541
vt 0.278116 0.769199
vt 0.280495 0.748080
vt 0.287515 0.728020
vt 0.298822 0.710025
vt 0.313850 0.694997
vt 0.331845 0.683690
vt 0.351905 0.676670
vt 0.373024 0.674291
vt 0.394144 0.676670
vt 0.414204 0.683690
vt 0.427017 0.691741
vt 0.437717 0.702441
vt 0.450483 0.715207
vt 0.458534 0.728020
vt 0.465553 0.748080
vt 0.467933 0.769199
vt 0.489052 0.771579
vt 0.509112 0.778598
vt 0.521925 0.786649
vt 0.534691 0.799415
vt 0.545392 0.810116
vt 0.553443 0.822929
vt 0.560462 0.842989
vt 0.562842 0.864108
vt 0.560462 0.885227
vt 0.553443 0.905287
vt 0.542135 0.923282
vt 0.527107 0.938310
vt 0.509112 0.949618
vt 0.489052 0.956637
vt 0.467933 0.959016
vt 0.280725 0.959016
vt 0.279726 0.958818
vt 0.278880 0.958252
vt 0.278314 0.957406
vt 0.278116 0.956407
vt 0.535519 0.002716
vt 0.535519 0.152098
vt 0.508338 0.152098
vt 0.508338 0.002716
vt 0.690839 0.729508
vt 0.503602 0.729508
vt 0.503602 0.695560
vt 0.690839 0.695560
vt 0.728216 0.918033
vt 0.728216 0.728216
vt 0.918033 0.728216
vt 0.918033 0.915424
vt 0.917834 0.916422
vt 0.917269 0.917269
vt 0.916422 0.917834
vt 0.915424 0.918033
vt 0.707097 0.915653
vt 0.687036 0.908634
vt 0.669041 0.897327
vt 0.654013 0.882299
vt 0.642706 0.864304
vt 0.635687 0.844243
vt 0.633307 0.823124
vt 0.635687 0.802005
vt 0.642706 0.781945
vt 0.650757 0.769132
vt 0.674223 0.745666
vt 0.687036 0.737615
vt 0.707097 0.730595
vt 0.730595 0.707097
vt 0.737615 0.687036
vt 0.745666 0.674223
vt 0.750307 0.669582
vt 0.769132 0.650757
vt 0.781945 0.642706
vt 0.802005 0.635687
vt 0.823124 0.633307
vt 0.844243 0.635687
vt 0.864304 0.642706
vt 0.882299 0.654013
vt 0.897327 0.669041
vt 0.908634 0.687036
vt 0.915653 0.707097
vt 0.573770 0.055004
vt 0.538252 0.055004
vt 0.538252 0.033252
vt 0.573770 0.033252
vt 0.538252 0.013150
vt 0.573771 0.013150
vt 0.538252 0.000730
vt 0.573771 0.000730
vt 0.578594 0.763171
vt 0.578594 0.797814
vt 0.556833 0.797814
vt 0.556833 0.763171
vt 0.535617 0.797814
vt 0.535617 0.763171
vt 0.573770 0.077315
vt 0.538252 0.077315
vt 0.573770 0.099067
vt 0.538252 0.099067
vt 0.573771 0.119168
vt 0.538252 0.119168
vt 0.573771 0.136612
vt 0.538252 0.136612
vt 0.736390 0.345988
vt 0.770492 0.345988
vt 0.770492 0.364983
vt 0.736390 0.364983
vt 0.770492 0.385705
vt 0.736390 0.385705
vt 0.448087 0.409283
vt 0.448087 0.443989
vt 0.428446 0.443989
vt 0.428446 0.409283
vt 0.407191 0.443989
vt 0.407191 0.409283
vt 0.385391 0.443989
vt 0.385391 0.409283
vt 0.364136 0.443989
vt 0.364136 0.409283
vt 0.344495 0.443989
vt 0.344495 0.409283
vt 0.461659 0.729508
vt 0.461659 0.695560
vt 0.482287 0.695560
vt 0.482287 0.729508
vt 0.180426 0.819672
vt 0.180426 0.785029
vt 0.201642 0.785029
vt 0.201642 0.819672
vt 0.223403 0.785029
vt 0.223403 0.819672
vt 0.238510 0.785029
vt 0.238510 0.819672
vt 0.507992 0.328123
vt 0.543716 0.328123
vt 0.543716 0.348341
vt 0.507992 0.348341
vt 0.543716 0.370219
vt 0.507992 0.370219
vt 0.507992 0.315631
vt 0.543716 0.315631
vt 0.593701 0.763171
vt 0.593701 0.797814
vt 0.624317 0.797814
vt 0.610356 0.797814
vt 0.624317 0.763171
vt 0.263071 0.785029
vt 0.269126 0.785029
vt 0.269126 0.819672
vt 0.252470 0.819672
vt 0.001232 0.815940
vt 0.003129 0.799109
vt 0.008723 0.783122
vt 0.017734 0.768781
vt 0.029710 0.756805
vt 0.044051 0.747794
vt 0.060038 0.742200
vt 0.076869 0.740303
vt 0.093700 0.742200
vt 0.109686 0.747794
vt 0.124027 0.756805
vt 0.136004 0.768781
vt 0.145015 0.783122
vt 0.150609 0.799109
vt 0.152505 0.815940
vt 0.169336 0.817836
vt 0.185323 0.823430
vt 0.199664 0.832441
vt 0.211641 0.844418
vt 0.220652 0.858759
vt 0.226246 0.874746
vt 0.228142 0.891577
vt 0.226246 0.908407
vt 0.220652 0.924394
vt 0.211641 0.938735
vt 0.199664 0.950712
vt 0.185323 0.959723
vt 0.169336 0.965317
vt 0.152505 0.967213
vt 0.003841 0.967213
vt 0.002843 0.967015
vt 0.001996 0.966449
vt 0.001431 0.965603
vt 0.001232 0.964604
vt 0.651222 0.759563
vt 0.502513 0.759563
vt 0.502513 0.732504
vt 0.651222 0.732504
vt 0.848727 0.512295
vt 0.848727 0.361022
vt 1.000000 0.361022
vt 1.000000 0.509686
vt 0.999801 0.510684
vt 0.999236 0.511531
vt 0.998389 0.512096
vt 0.997391 0.512295
vt 0.831896 0.510399
vt 0.815909 0.504805
vt 0.801568 0.495794
vt 0.789592 0.483817
vt 0.780581 0.469476
vt 0.774987 0.453489
vt 0.773090 0.436658
vt 0.774987 0.419828
vt 0.780581 0.403841
vt 0.789592 0.389500
vt 0.801568 0.377523
vt 0.815909 0.368512
vt 0.831896 0.362918
vt 0.850623 0.344191
vt 0.856217 0.328204
vt 0.865228 0.313863
vt 0.877205 0.301887
vt 0.891546 0.292876
vt 0.907533 0.287282
vt 0.924363 0.285385
vt 0.941194 0.287282
vt 0.957181 0.292876
vt 0.971522 0.301887
vt 0.983498 0.313863
vt 0.992510 0.328204
vt 0.998104 0.344191
vt 0.028689 0.175214
vt 0.000302 0.175214
vt 0.000302 0.157830
vt 0.028689 0.157830
vt 0.000302 0.141764
vt 0.028689 0.141764
vt 0.000302 0.127823
vt 0.028689 0.127823
vt 0.483607 0.427596
vt 0.456126 0.427596
vt 0.456126 0.412043
vt 0.483607 0.412043
vt 0.456126 0.395214
vt 0.483607 0.395214
vt 0.456126 0.377951
vt 0.483607 0.377951
vt 0.456126 0.361122
vt 0.483607 0.361122
vt 0.028689 0.193046
vt 0.000302 0.193046
vt 0.028689 0.210430
vt 0.000302 0.210430
vt 0.028689 0.226496
vt 0.000302 0.226496
vt 0.028689 0.240437
vt 0.000302 0.240437
vt 0.535519 0.200820
vt 0.508338 0.200820
vt 0.508338 0.185680
vt 0.535519 0.185680
vt 0.508338 0.169163
vt 0.535519 0.169163
vt 0.668069 0.346658
vt 0.668069 0.374317
vt 0.652415 0.374317
vt 0.652415 0.346658
vt 0.377515 0.475410
vt 0.377515 0.447929
vt 0.394345 0.447929
vt 0.394345 0.475410
vt 0.411607 0.447929
vt 0.411607 0.475410
vt 0.428436 0.447929
vt 0.428436 0.475410
vt 0.443989 0.447929
vt 0.443989 0.475410
vt 0.469082 0.759563
vt 0.469082 0.732504
vt 0.485524 0.732504
vt 0.485524 0.759563
vt 0.685007 0.346658
vt 0.685007 0.374317
vt 0.702381 0.346658
vt 0.702381 0.374317
vt 0.719319 0.346658
vt 0.719319 0.374317
vt 0.734973 0.346658
vt 0.734973 0.374317
vt 0.030096 0.159825
vt 0.058743 0.159825
vt 0.058743 0.173894
vt 0.030096 0.173894
vt 0.058743 0.190107
vt 0.030096 0.190107
vt 0.058743 0.207650
vt 0.030096 0.207650
vt 0.692437 0.690831
vt 0.733607 0.690831
vt 0.733607 0.691818
vt 0.692437 0.691818
vt 0.733607 0.692623
vt 0.692437 0.692623
vt 0.280055 0.696721
vt 0.280055 0.737705
vt 0.279254 0.737705
vt 0.279254 0.696721
vt 0.770492 0.596190
vt 0.736390 0.596190
vt 0.770492 0.596995
vt 0.736390 0.596995
vt 0.692623 0.695560
vt 0.692623 0.729508
vt 0.691822 0.729508
vt 0.691822 0.695560
vt 0.508338 0.001729
vt 0.535519 0.001729
vt 0.508338 0.000924
vt 0.535519 0.000924
vt 0.653005 0.732504
vt 0.653005 0.759563
vt 0.652204 0.759563
vt 0.652204 0.732504
s 1
f 1/1/1 21/2/2 3/3/2 2/4/1
f 27/5/3 5/6/3 6/7/3 7/8/3 8/9/3 9/10/3 4/11/3 2/12/3 3/13/3 16/14/3 17/15/3 18/16/3 19/17/3 20/18/3 31/19/3
f 10/20/4 29/21/4 33/22/4 21/23/4 1/24/4
f 2/25/5 4/26/6 10/27/6 1/28/5
f 10/20/4 11/29/4 12/30/4 13/31/4 14/32/4 15/33/4 28/34/4 29/21/4
f 5/35/7 15/36/7 14/37/8 6/38/8
f 6/38/8 14/37/8 13/39/9 7/40/9
f 7/41/9 13/42/9 12/43/10 8/44/10
f 8/44/10 12/43/10 11/45/11 9/46/11
f 9/46/11 11/45/11 10/27/6 4/26/6
f 22/47/12 20/48/12 19/49/13 23/50/13
f 23/50/13 19/49/13 18/51/14 24/52/14
f 24/52/14 18/51/14 17/53/15 25/54/15
f 25/55/15 17/56/15 16/57/16 26/58/16
f 26/58/16 16/57/16 3/3/2 21/2/2
f 33/22/4 32/59/4 30/60/4 22/61/4 23/62/4 24/63/4 25/64/4 26/65/4 21/23/4
f 32/66/17 33/67/17 29/68/17 28/69/17 27/70/17 31/71/17 30/72/17
f 30/73/18 31/74/18 20/48/12 22/47/12
f 27/75/19 28/76/19 15/36/7 5/35/7
f 63/77/3 36/78/3 37/79/3 38/80/3 39/81/3 40/82/3 41/83/3 35/84/3 193/85/3 195/86/3 196/87/3 197/88/3 194/89/3 34/90/3 49/91/3 50/92/3 51/93/3 52/94/3 53/95/3 54/96/3 68/97/3
f 203/98/20 70/99/6 87/100/6 199/101/20
f 188/102/21 55/103/2 34/104/2 194/105/21
f 42/106/4 64/107/4 65/108/4 55/109/4 188/110/4 190/111/4 191/112/4 192/113/4 189/114/4
f 42/106/4 43/115/4 44/116/4 45/117/4 46/118/4 47/119/4 48/120/4 62/121/4 64/107/4
f 36/122/22 48/123/22 47/124/7 37/125/7
f 37/125/7 47/124/7 46/126/8 38/127/8
f 38/127/8 46/126/8 45/128/9 39/129/9
f 39/130/9 45/131/9 44/132/10 40/133/10
f 40/133/10 44/132/10 43/134/11 41/135/11
f 41/135/11 43/134/11 42/136/6 35/137/6
f 56/138/23 54/139/23 53/140/12 57/141/12
f 57/141/12 53/140/12 52/142/13 58/143/13
f 58/143/13 52/142/13 51/144/14 59/145/14
f 59/145/14 51/144/14 50/146/15 60/147/15
f 60/148/15 50/149/15 49/150/16 61/151/16
f 61/151/16 49/150/16 34/104/2 55/103/2
f 65/108/4 66/152/4 67/153/4 56/154/4 57/155/4 58/156/4 59/157/4 60/158/4 61/159/4 55/109/4
f 66/160/17 65/161/17 64/162/17 62/163/17 63/164/17 68/165/17 67/166/17
f 63/167/24 62/168/24 48/123/22 36/122/22
f 67/169/25 68/170/25 54/139/23 56/138/23
f 69/171/3 100/172/3 101/173/3 102/174/3 103/175/3 104/176/3 105/177/3 94/178/3 96/179/3 97/180/3 128/181/3 125/182/3 124/183/3 98/184/3 99/185/3 95/186/3 78/187/3 79/188/3 123/189/3 119/190/3 120/191/3 80/192/3 81/193/3 77/194/3 71/195/3 72/196/3 73/197/3 74/198/3 75/199/3 76/200/3 70/201/3 203/202/3 205/203/3 206/204/3 207/205/3 204/206/3
f 213/207/20 131/208/6 152/209/6 209/210/20
f 198/211/21 106/212/2 69/213/2 204/214/21
f 87/215/4 113/216/4 106/217/4 198/218/4 200/219/4 201/220/4 202/221/4 199/222/4
f 87/215/4 88/223/4 89/224/4 90/225/4 91/226/4 92/227/4 93/228/4 82/229/4 83/230/4 84/231/4 122/232/4 121/233/4 85/234/4 86/235/4 113/216/4
f 113/216/4 115/236/4 116/237/4 127/238/4 126/239/4 129/240/4 117/241/4 118/242/4 114/243/4 107/244/4 108/245/4 109/246/4 110/247/4 111/248/4 112/249/4 106/217/4
f 82/250/26 77/251/26 81/252/27 83/253/27
f 83/253/27 81/252/27 80/254/28 84/255/28
f 84/255/28 80/254/28 120/256/29 122/257/29
f 85/258/30 79/259/30 78/260/31 86/261/31
f 86/261/31 78/260/31 95/262/32 113/263/32
f 77/251/26 82/250/26 93/264/22 71/265/22
f 71/265/22 93/264/22 92/266/7 72/267/7
f 72/267/7 92/266/7 91/268/8 73/269/8
f 73/269/8 91/268/8 90/270/9 74/271/9
f 74/272/9 90/273/9 89/274/10 75/275/10
f 75/275/10 89/274/10 88/276/11 76/277/11
f 76/277/11 88/276/11 87/100/6 70/99/6
f 114/278/33 94/279/33 105/280/23 107/281/23
f 107/281/23 105/280/23 104/282/12 108/283/12
f 108/283/12 104/282/12 103/284/13 109/285/13
f 109/285/13 103/284/13 102/286/14 110/287/14
f 110/287/14 102/286/14 101/288/15 111/289/15
f 111/290/15 101/291/15 100/292/16 112/293/16
f 112/293/16 100/292/16 69/213/2 106/212/2
f 94/294/33 114/295/33 118/296/31 96/297/31
f 96/297/31 118/296/31 117/298/30 97/299/30
f 97/299/30 117/298/30 129/300/34 128/301/34
f 98/302/28 116/303/28 115/304/27 99/305/27
f 99/305/27 115/304/27 113/306/35 95/307/35
f 124/308/29 127/309/29 116/303/28 98/302/28
f 121/310/34 123/311/34 79/259/30 85/258/30
f 120/312/29 119/313/17 123/311/34 121/310/34 122/314/29
f 126/315/17 127/316/29 124/317/29 125/318/17 128/301/34 129/300/34
f 130/319/3 167/320/3 168/321/3 169/322/3 170/323/3 171/324/3 172/325/3 159/326/3 161/327/3 162/328/3 163/329/3 164/330/3 165/331/3 166/332/3 160/333/3 139/334/3 140/335/3 141/336/3 142/337/3 143/338/3 144/339/3 138/340/3 132/341/3 133/342/3 134/343/3 135/344/3 136/345/3 137/346/3 131/347/3 213/348/3 215/349/3 216/350/3 217/351/3 214/352/3
f 208/353/21 173/354/2 130/355/2 214/356/21
f 152/357/4 180/358/4 173/359/4 208/360/4 210/361/4 211/362/4 212/363/4 209/364/4
f 152/357/4 153/365/4 154/366/4 155/367/4 156/368/4 157/369/4 158/370/4 145/371/4 146/372/4 147/373/4 148/374/4 149/375/4 150/376/4 151/377/4 180/358/4
f 180/358/4 182/378/4 183/379/4 184/380/4 185/381/4 186/382/4 187/383/4 181/384/4 174/385/4 175/386/4 176/387/4 177/388/4 178/389/4 179/390/4 173/359/4
f 145/391/26 138/392/26 144/393/27 146/394/27
f 146/394/27 144/393/27 143/395/28 147/396/28
f 147/396/28 143/395/28 142/397/29 148/398/29
f 148/399/29 142/400/29 141/401/34 149/402/34
f 149/402/34 141/401/34 140/403/30 150/404/30
f 150/404/30 140/403/30 139/405/31 151/406/31
f 151/406/31 139/405/31 160/407/32 180/408/32
f 138/392/26 145/391/26 158/409/22 132/410/22
f 132/410/22 158/409/22 157/411/7 133/412/7
f 133/412/7 157/411/7 156/413/8 134/414/8
f 134/414/8 156/413/8 155/415/9 135/416/9
f 135/417/9 155/418/9 154/419/10 136/420/10
f 136/420/10 154/419/10 153/421/11 137/422/11
f 137/422/11 153/421/11 152/209/6 131/208/6
f 181/423/33 159/424/33 172/425/23 174/426/23
f 174/427/23 172/428/23 171/429/12 175/430/12
f 175/430/12 171/429/12 170/431/13 176/432/13
f 176/432/13 170/431/13 169/433/14 177/434/14
f 177/434/14 169/433/14 168/435/15 178/436/15
f 178/437/15 168/438/15 167/439/16 179/440/16
f 179/440/16 167/439/16 130/355/2 173/354/2
f 159/424/33 181/423/33 187/441/31 161/442/31
f 161/442/31 187/441/31 186/443/30 162/444/30
f 162/444/30 186/443/30 185/445/34 163/446/34
f 163/446/34 185/445/34 184/447/29 164/448/29
f 164/449/29 184/450/29 183/451/28 165/452/28
f 165/452/28 183/451/28 182/453/27 166/454/27
f 166/454/27 182/453/27 180/455/35 160/456/35
f 193/457/20 189/458/20 192/459/36 195/460/36
f 195/460/36 192/459/36 191/461/37 196/462/37
f 196/463/37 191/464/37 190/465/38 197/466/38
f 197/466/38 190/465/38 188/102/21 194/105/21
f 203/98/20 199/101/20 202/467/36 205/468/36
f 205/468/36 202/467/36 201/469/37 206/470/37
f 206/471/37 201/472/37 200/473/38 207/474/38
f 207/474/38 200/473/38 198/211/21 204/214/21
f 213/207/20 209/210/20 212/475/36 215/476/36
f 215/476/36 212/475/36 211/477/37 216/478/37
f 216/479/37 211/480/37 210/481/38 217/482/38
f 217/482/38 210/481/38 208/353/21 214/356/21
f 193/457/20 35/137/6 42/136/6 189/458/20
