#File written by RizomUV 2023.0.70.ge90189e8. Compilation :Sep 22 2023,12:42:11
mtllib fiessta enganche 2.mtl
#begin vertices
v 47.53881 9.956404 -11.38658
v 43.70787 9.956404 -11.38658
v 55.79194 9.956404 -11.38658
v 54.15477 9.956404 -11.38658
v 52.50078 9.956404 -11.38658
v 50.84679 9.956404 -11.38658
v 49.1928 9.956404 -11.38658
v 58.46202 11.42274 -11.17512
v 58.46202 11.42274 -11.29246
v 52.50078 9.956404 -11.17512
v 47.53881 9.956404 -11.17512
v 43.70787 9.956404 -11.17512
v 50.84679 9.956404 -11.17512
v 49.1928 9.956404 -11.17512
v 54.15477 9.956404 -11.17512
v 55.79194 9.956404 -11.17512
v 58.46202 11.42274 -11.38658
v 58.46202 9.956404 -11.17512
v 50.29546 9.956404 -11.38658
v 49.74413 9.956404 -11.38658
v 50.29546 9.956404 -11.17512
v 49.74413 9.956404 -11.17512
v 53.60344 9.956404 -11.38658
v 53.05212 9.956404 -11.38658
v 58.46202 9.956404 -11.38658
v 53.60344 9.956404 -11.17512
v 53.05212 9.956404 -11.17512
v 43.70787 11.42274 -11.29246
v 43.70787 11.42274 -11.17512
v 47.53881 11.42274 -11.29246
v 49.1928 11.42274 -11.29246
v 49.74413 11.42274 -11.29246
v 47.53881 11.42274 -11.38658
v 43.70787 11.42274 -11.38658
v 52.50078 11.42274 -11.29246
v 50.84679 11.42274 -11.29246
v 55.79194 11.42274 -11.38658
v 54.15477 11.42274 -11.38658
v 53.05212 11.42274 -11.38658
v 52.50078 11.42274 -11.38658
v 50.84679 11.42274 -11.38658
v 49.74413 11.42274 -11.38658
v 49.1928 11.42274 -11.38658
v 53.05212 11.42274 -11.29246
v 55.79194 11.42274 -11.29246
v 54.15477 11.42274 -11.29246
v 50.84679 11.42274 -11.17512
v 49.1928 11.42274 -11.17512
v 47.53881 11.42274 -11.17512
v 49.74413 11.42274 -11.17512
v 52.50078 11.42274 -11.17512
v 53.05212 11.42274 -11.17512
v 55.79194 11.42274 -11.17512
v 54.15477 11.42274 -11.17512
v 50.29546 11.42274 -11.29246
v 50.29546 11.42274 -11.38658
v 50.29546 11.42274 -11.17512
v 53.60344 11.42274 -11.38658
v 53.60344 11.42274 -11.29246
v 53.60344 11.42274 -11.17512
#end vertices

#begin 72 textures vertices 
vt 0.2403944 0.2933338 0
vt 0.00390625 0.1074788 0
vt 0.7498692 0.6937279 0
vt 0.6488054 0.6143023 0
vt 0.5467026 0.5340602 0
vt 0.4446001 0.4538182 0
vt 0.3424972 0.373576 0
vt 0.9960938 0.7196925 0
vt 0.9904011 0.726936 0
vt 0.6178409 0.6068876 0
vt 0.3115327 0.3661612 0
vt 0.07504449 0.1803062 0
vt 0.5157384 0.5266456 0
vt 0.4136354 0.4464034 0
vt 0.7199437 0.6871297 0
vt 0.8210074 0.7665553 0
vt 0.9858348 0.7327463 0
vt 0.9858348 0.8960924 0
vt 0.4105657 0.4270707 0
vt 0.3765314 0.4003233 0
vt 0.4817039 0.4998981 0
vt 0.4476696 0.4731507 0
vt 0.6147711 0.5875549 0
vt 0.5807371 0.5608077 0
vt 0.9146965 0.823265 0
vt 0.6859094 0.6603823 0
vt 0.6518753 0.6336351 0
vt 0.07961079 0.01114978 0
vt 0.00390625 0.2708249 0
vt 0.316099 0.1970048 0
vt 0.4182017 0.277247 0
vt 0.4522359 0.3039943 0
vt 0.3115327 0.2028152 0
vt 0.07504449 0.0169601 0
vt 0.6224072 0.4377312 0
vt 0.5203047 0.3574892 0
vt 0.8210074 0.6032092 0
vt 0.7199437 0.5237836 0
vt 0.6518753 0.470289 0
vt 0.6178409 0.4435415 0
vt 0.5157384 0.3632996 0
vt 0.4476696 0.3098046 0
vt 0.4136354 0.2830573 0
vt 0.6564417 0.4644787 0
vt 0.8255737 0.5973989 0
vt 0.72451 0.5179733 0
vt 0.4446001 0.6171643 0
vt 0.3424972 0.536922 0
vt 0.2403944 0.4566799 0
vt 0.3765314 0.5636694 0
vt 0.5467026 0.6974062 0
vt 0.6621343 0.4572352 0
vt 0.8312664 0.5901554 0
vt 0.6488054 0.7776484 0
vt 0.4862702 0.3307417 0
vt 0.4817039 0.336552 0
vt 0.4105657 0.5904168 0
vt 0.6859094 0.4970362 0
vt 0.6904757 0.4912259 0
vt 0.6147711 0.750901 0
vt 0.6280999 0.4304876 0
vt 0.5259973 0.3502457 0
vt 0.7498692 0.857074 0
vt 0.4238944 0.2700034 0
vt 0.9146965 0.9866111 0
vt 0.7302026 0.5107298 0
vt 0.5807371 0.7241538 0
vt 0.6961683 0.4839824 0
vt 0.3217916 0.1897613 0
vt 0.08530345 0.00390625 0
vt 0.4579286 0.2967508 0
vt 0.4919629 0.3234982 0
#end 72 textures vertices 

#begin 3 normals 
vn -0 -0 1
vn -0 -0 -1
vn -0 1 -0
#end 3 normals 

#begin 44 faces
o Plane:066
s 1
f 13/13/1 10/10/1 51/51/1 47/47/1 
f 3/3/2 4/4/2 38/38/2 37/37/2 
f 26/26/1 15/15/1 54/54/1 60/60/1 
f 1/1/2 2/2/2 34/34/2 33/33/2 
f 14/14/1 22/22/1 50/50/1 48/48/1 
f 23/23/2 24/24/2 39/39/2 58/58/2 
f 22/22/1 21/21/1 57/57/1 50/50/1 
f 11/11/1 14/14/1 48/48/1 49/49/1 
f 19/19/2 20/20/2 42/42/2 56/56/2 
f 4/4/2 23/23/2 58/58/2 38/38/2 
f 7/7/2 1/1/2 33/33/2 43/43/2 
f 21/21/1 13/13/1 47/47/1 57/57/1 
f 37/37/3 45/45/3 9/9/3 17/17/3 
f 45/45/3 53/53/3 8/8/3 9/9/3 
f 12/12/1 11/11/1 49/49/1 29/29/1 
f 6/6/2 19/19/2 56/56/2 41/41/2 
f 20/20/2 7/7/2 43/43/2 42/42/2 
f 15/15/1 16/16/1 53/63/1 54/54/1 
f 33/33/3 34/34/3 28/28/3 30/30/3 
f 30/30/3 28/28/3 29/70/3 49/69/3 
f 43/43/3 33/33/3 30/30/3 31/31/3 
f 32/32/3 31/31/3 48/64/3 50/71/3 
f 37/37/3 38/38/3 46/46/3 45/45/3 
f 39/39/3 40/40/3 35/35/3 44/44/3 
f 40/40/3 41/41/3 36/36/3 35/35/3 
f 42/42/3 43/43/3 31/31/3 32/32/3 
f 45/45/3 46/46/3 54/66/3 53/53/3 
f 35/35/3 36/36/3 47/62/3 51/61/3 
f 31/31/3 30/30/3 49/69/3 48/64/3 
f 41/41/3 56/56/3 55/55/3 36/36/3 
f 56/56/3 42/42/3 32/32/3 55/55/3 
f 36/36/3 55/55/3 57/72/3 47/62/3 
f 55/55/3 32/32/3 50/71/3 57/72/3 
f 38/38/3 58/58/3 59/59/3 46/46/3 
f 58/58/3 39/39/3 44/44/3 59/59/3 
f 46/46/3 59/59/3 60/68/3 54/66/3 
f 59/59/3 44/44/3 52/52/3 60/68/3 
f 27/27/1 26/26/1 60/60/1 52/67/1 
f 24/24/2 5/5/2 40/40/2 39/39/2 
f 10/10/1 27/27/1 52/67/1 51/51/1 
f 5/5/2 6/6/2 41/41/2 40/40/2 
f 3/3/2 37/37/2 17/17/2 25/25/2 
f 53/63/1 16/16/1 18/18/1 8/65/1 
f 51/61/3 52/52/3 44/44/3 35/35/3 
#end 44 faces

#ZOMPROPERTIES_04{
#ZOMPROPERTIES_04 table {Mesh table {SymPlane table {Point vector3d 0 0 0 Normal vector3d 1 0 0 Threshold double 0.01 
#ZOMPROPERTIES_04 Enabled bool false EdgeID int -1 SymEdgeID int -1 UPos double 0.5 LocalMode bool false } RootGroup C
#ZOMPROPERTIES_04 SubMeshGroup {Children table {Tile_0_0 CSubMeshGroup {Children table {} BBoxUV box3d 0 0 0 0 0 0 BBo
#ZOMPROPERTIES_04 x3D box3d 0 0 0 0 0 0 Area3D double 0 AreaUV double 0.285959 IsRoot bool false Properties table {Sel
#ZOMPROPERTIES_04 ected bool false Box box3d 0 1 0 1 0 1 U int 0 V int 0 NU int 0 NV int 0 Tiling vector3d 1 1 1 TileR
#ZOMPROPERTIES_04 atioMode string "1:1" Overflow string "Off" Pack table {BoxFrameEdit bool false Behavior string "Fre
#ZOMPROPERTIES_04 e" } } IsTile bool true PolyIDs ints { 0 39 37 2 17 42 11 6 4 7 14 1 22 26 35 36 43 23 24 27 31 32 2
#ZOMPROPERTIES_04 1 28 19 18 3 10 16 8 15 30 25 20 29 40 38 5 9 33 34 13 12 41 } } } BBoxUV box3d 0 0 0 0 0 0 BBox3D b
#ZOMPROPERTIES_04 ox3d 0 0 0 0 0 0 Area3D double 0 AreaUV double 0 IsRoot bool true Properties table {Selected bool fa
#ZOMPROPERTIES_04 lse Box box3d 0 1 0 1 0 1 U int 0 V int 0 NU int 1 NV int 1 Tiling vector3d 1 1 1 TileRatioMode stri
#ZOMPROPERTIES_04 ng "1:1" Overflow string "Off" Pack table {Rotate table {Mode int 0 Min double 0 Max double 90 Step 
#ZOMPROPERTIES_04 double 0 } PaddingSize double 0.0078125 MarginSize double 0.00390625 Resolution int 256 MapResolutio
#ZOMPROPERTIES_04 n int 2048 Scaling table {TexelDensity double 1024 Mode int 2 } LayoutScalingMode int 2 MaxMutations
#ZOMPROPERTIES_04  int 1 } } IsTile bool false PolyIDs ints { } } Maps table {Pin table {PrimType string "Vertex" Size
#ZOMPROPERTIES_04  int 1 DefaultValue double 0 ScaleType string "Normalized" MergeMode string "Max" MinValue double 0 
#ZOMPROPERTIES_04 MaxValue double 1 Data doubles { r 72 0 } } Density table {PrimType string "Polygon" Size int 1 Defa
#ZOMPROPERTIES_04 ultValue double 1 ScaleType string "Log" MergeMode string "Average" MinValue double 0.1 MaxValue dou
#ZOMPROPERTIES_04 ble 4 Data doubles { r 44 1 } } Protect table {PrimType string "Vertex" Size int 1 DefaultValue doub
#ZOMPROPERTIES_04 le 0 ScaleType string "Normalized" MergeMode string "Average" MinValue double -1 MaxValue double 1 D
#ZOMPROPERTIES_04 ata doubles { r 72 0 } } } } }
#ZOMPROPERTIES_04}


#ZOMSCENE_01{
#ZOMSCENE_01 CScene {Settings table {AxisSystem table {UpVector string "y" } Unit string "cm" TexelDensityDisplay
#ZOMSCENE_01 Unit string "tx/cm" } Root table {} }
#ZOMSCENE_01}

#begin 0 fatal error vertex (that RizomUV cannot handle)
#end 0 fatal error vertex (that RizomUV cannot handle)

#begin 0 error vertex
#end 0 error vertex
