#File written by RizomUV 2023.0.70.ge90189e8. Compilation :Sep 22 2023,12:42:11
mtllib cuarto mesa2.mtl
#begin vertices
v 29.45149 9.932375 35.56462
v 29.45149 13.99637 35.56462
v 36.74148 9.932375 36.84082
v 36.74148 13.99637 36.84082
v 29.45149 14.76721 35.56462
v 36.74148 14.76721 36.84082
v 28.78625 14.30112 34.81584
v 29.07063 13.99637 35.13593
v 28.86954 14.08563 34.9096
v 37.62153 14.30112 36.36257
v 37.24532 13.99637 36.56702
v 37.51134 14.08563 36.42245
v 28.99216 14.76721 35.04761
v 28.78625 14.54654 34.81584
v 28.84656 14.70257 34.88372
v 37.34913 14.76721 36.51061
v 37.62153 14.54654 36.36257
v 37.54175 14.70257 36.40593
v 28.66808 9.932375 41.39346
v 28.476 9.932375 41.13684
v 28.66946 13.99637 41.39371
v 28.47615 13.99637 41.136
v 35.76599 9.932375 42.41305
v 35.49815 9.932375 42.58916
v 35.76614 13.99637 42.41221
v 35.49677 13.99637 42.58891
v 28.4773 14.76721 41.12944
v 28.68491 14.76721 41.39641
v 35.48132 14.76721 42.58621
v 35.76728 14.76721 42.40565
v 27.97257 13.99637 41.40831
v 28.16959 13.99637 41.66821
v 27.79035 14.30112 41.87212
v 27.5961 14.30112 41.61427
v 27.70642 14.08563 41.55362
v 27.90187 14.08563 41.81248
v 36.43137 14.30112 43.161
v 36.16108 14.30112 43.33752
v 35.87367 13.99637 43.01691
v 36.14726 13.99637 42.8394
v 36.07645 14.08563 43.24354
v 36.34821 14.08563 43.06648
v 27.5962 14.54654 41.61368
v 27.79137 14.54654 41.8723
v 28.07456 14.76721 41.72615
v 27.86947 14.76721 41.46069
v 27.67636 14.70257 41.5682
v 27.87498 14.70257 41.82962
v 36.22643 14.76721 42.92368
v 35.94335 14.76721 43.10369
v 36.16006 14.54654 43.33735
v 36.43148 14.54654 43.16041
v 36.09592 14.70257 43.26879
v 36.37154 14.70257 43.0904
v 29.45149 11.96438 35.56462
v 36.74148 11.96438 36.84082
v 28.66877 11.96438 41.39359
v 28.47607 11.96438 41.13642
v 35.49746 11.96438 42.58904
v 35.76606 11.96438 42.41263
v 28.66882 12.11014 41.39359
v 35.76606 12.11014 42.4126
v 29.45149 12.11014 35.56462
v 36.74148 12.11014 36.84082
v 28.47608 12.11014 41.13639
v 35.49741 12.11014 42.58903
v 35.5216 12.11014 42.45085
v 35.52165 11.96438 42.45086
v 28.69296 11.96438 41.25541
v 28.69301 12.11014 41.25542
#end vertices

#begin 96 textures vertices 
vt 0.9233219 0.007482499 0
vt 0.7666932 0.987298 0
vt 0.9250308 0.7148408 0
vt 0.7735661 0.7115899 0
vt 0.327108 0.7720458 0
vt 0.7094646 0.6113534 0
vt 0.09054032 0.2370165 0
vt 0.1163226 0.2523215 0
vt 0.102187 0.245235 0
vt 0.518592 0.02321199 0
vt 0.708321 0.9255693 0
vt 0.7195977 0.9396029 0
vt 0.3085477 0.8060671 0
vt 0.08009388 0.2283383 0
vt 0.3025064 0.8176377 0
vt 0.7468034 0.6218795 0
vt 0.5120283 0.01060926 0
vt 0.759321 0.6256383 0
vt 0.9270607 0.2305268 0
vt 0.9267107 0.2184878 0
vt 0.7750617 0.2324584 0
vt 0.08663753 0.5710059 0
vt 0.9283572 0.5027613 0
vt 0.9284994 0.4905623 0
vt 0.3647936 0.9172378 0
vt 0.7766141 0.4901762 0
vt 0.2033334 0.4805169 0
vt 0.2112987 0.4632817 0
vt 0.5688602 0.3120775 0
vt 0.5867844 0.3183276 0
vt 0.05739162 0.5816343 0
vt 0.06121042 0.5974641 0
vt 0.0300879 0.5993001 0
vt 0.02696209 0.5890234 0
vt 0.04110487 0.5874027 0
vt 0.04393471 0.5954349 0
vt 0.3369162 0.9726435 0
vt 0.3266326 0.9681069 0
vt 0.3348825 0.9378955 0
vt 0.3496247 0.944064 0
vt 0.3332237 0.9553678 0
vt 0.3409753 0.9590662 0
vt 0.01305442 0.5876125 0
vt 0.01862833 0.607216 0
vt 0.1737404 0.4529826 0
vt 0.1658641 0.4700896 0
vt 0.1532754 0.46678 0
vt 0.01343361 0.6158216 0
vt 0.6054459 0.2841667 0
vt 0.5877081 0.2779268 0
vt 0.3166034 0.9776213 0
vt 0.3361307 0.9864813 0
vt 0.3071385 0.9808613 0
vt 0.6118415 0.2728259 0
vt 0.847606 0.008672921 0
vt 0.8492855 0.7132057 0
vt 0.851141 0.2316488 0
vt 0.8508383 0.2197609 0
vt 0.8527602 0.4901031 0
vt 0.8525368 0.5021098 0
vt 0.8454386 0.231936 0
vt 0.8471041 0.5020652 0
vt 0.8370199 0.9890797 0
vt 0.8438512 0.7130902 0
vt 0.8453999 0.2198558 0
vt 0.8470374 0.490103 0
vt 0.7419477 0.1201878 0
vt 0.8475788 0.4897552 0
vt 0.8460033 0.2319938 0
vt 0.1585786 0.3670745 0
vt 0.8506192 0.2322809 0
vt 0.1533831 0.3548096 0
vt 0.8521791 0.4897647 0
vt 0.7367605 0.1079194 0
vt 0.1418062 0.2643809 0
vt 0.3369119 0.9065278 0
vt 0.09188748 0.602241 0
vt 0.7750364 0.2205211 0
vt 0.5016932 0.08287623 0
vt 0.7766661 0.5019358 0
vt 0.8424559 0.9892169 0
vt 0.8421753 0.008753259 0
vt 0.7718241 0.009778539 0
vt 0.9182188 0.9911245 0
vt 0.3387248 0.9960938 0
vt 0.722294 0.9770289 0
vt 0.5938452 0.2661506 0
vt 0.1610288 0.4491833 0
vt 0.00390625 0.5836503 0
vt 0.07445056 0.2224704 0
vt 0.6869409 0.9007883 0
vt 0.5140179 0.05382724 0
vt 0.5199213 0.03741197 0
vt 0.7245665 0.9529927 0
vt 0.7251137 0.9670625 0
vt 0.5041163 0.00390625 0
#end 96 textures vertices 

#begin 68 normals 
vn -0.1724 -0 0.985
vn 0.1724 -0 -0.985
vn -0 -1 -0
vn 0.1584 -0.9761 -0.1486
vn 0.1682 -0.9818 0.0885
vn -0.1883 -0.9818 0.0261
vn -0.0985 -0.9761 -0.1936
vn -0.985 -0 -0.1724
vn -0 1 -0
vn -0.0808 0.9748 0.208
vn 0.0053 0.9748 0.2231
vn -0.9674 -0.1882 -0.1694
vn -0.9674 -0.1881 -0.1694
vn -0.9676 0.1871 -0.1694
vn -0.9674 0.1882 -0.1694
vn 0.347 -0.9359 0.0608
vn 0.2328 -0.9575 0.1701
vn 0.0886 -0.9512 0.2956
vn -0.1838 -0.9512 0.2479
vn -0.0823 -0.9747 0.2078
vn 0.0069 -0.9747 0.2234
vn -0.0985 0.9761 -0.1936
vn -0.1878 0.9819 0.0259
vn 0.985 -0 0.1724
vn 0.1678 0.9819 0.0881
vn 0.1584 0.9761 -0.1486
vn 0.1706 -0.1471 -0.9743
vn 0.1706 0.1471 -0.9743
vn -0.1706 -0.147 0.9743
vn -0.1706 0.1455 0.9745
vn -0.1621 -0.3403 0.9262
vn 0.1621 -0.3403 -0.9262
vn 0.0739 -0.9036 -0.422
vn 0.9674 -0.1881 0.1694
vn 0.9674 -0.1882 0.1694
vn 0.9674 0.1882 0.1694
vn 0.9676 0.1871 0.1694
vn -0.1622 0.3403 0.9262
vn -0.8963 -0.4147 -0.1569
vn -0.2767 -0.9575 0.0809
vn -0.347 -0.9359 -0.0608
vn 0.2303 0.9582 0.1696
vn 0.347 0.9359 0.0608
vn -0.1823 0.952 0.2457
vn 0.0879 0.952 0.2931
vn 0.0739 0.9036 -0.422
vn 0.1621 0.3403 -0.9262
vn 0.8963 0.4147 0.1569
vn -0.347 0.9359 -0.0608
vn -0.2742 0.9582 0.0813
vn -0.8963 0.4147 -0.1569
vn 0.8963 -0.4147 0.1569
vn -0.8002 0.0002 0.5998
vn -0.8001 0.0002 0.5999
vn 0.5491 0.0002 0.8358
vn 0.5492 0.0002 0.8357
vn -0.6909 -0.5011 0.5211
vn 0.4728 -0.5011 0.7248
vn -0.6869 0.5075 0.5202
vn 0.4694 0.5075 0.7226
vn -0.7985 0.0023 0.6021
vn 0.5464 0.0023 0.8375
vn 0.5488 0.0002 0.8359
vn -0.8004 0.0002 0.5994
vn -0.8003 0.0002 0.5996
vn 0.5487 0.0002 0.836
vn -0.985 -0.0003 -0.1724
vn 0.985 -0.0003 0.1724
#end 68 normals 

#begin 65 faces
o Cube:037
s 1
f 66/66/1 26/26/1 21/21/1 61/61/1 
f 63/63/2 2/2/2 4/4/2 64/64/2 
f 25/25/3 4/91/3 11/11/4 40/40/5 
f 2/75/3 22/22/3 31/31/6 8/8/7 
f 65/65/8 22/78/8 2/83/8 63/82/8 
f 29/29/9 28/28/9 45/45/10 50/50/11 
f 7/7/12 34/34/13 43/43/14 14/14/15 
f 12/12/16 42/42/17 40/40/5 11/11/4 
f 41/41/18 36/36/19 32/32/20 39/39/21 
f 27/27/9 5/5/9 13/13/22 46/46/23 
f 64/64/24 4/4/24 25/80/24 62/62/24 
f 6/6/9 30/30/9 49/49/25 16/16/26 
f 6/6/9 5/5/9 27/27/9 28/28/9 29/29/9 30/30/9 
f 10/10/27 7/7/27 14/14/28 17/17/28 
f 5/5/9 6/6/9 16/16/26 13/13/22 
f 4/79/3 2/75/3 8/8/7 11/92/4 
f 33/33/29 38/38/29 51/51/30 44/44/30 
f 38/38/29 33/33/29 36/36/31 41/41/31 
f 7/7/27 10/10/27 12/93/32 9/9/32 
f 9/9/33 12/93/33 11/92/4 8/8/7 
f 37/37/34 10/94/35 17/95/36 52/52/37 
f 53/53/38 48/48/38 44/44/30 51/51/30 
f 34/34/13 7/7/12 9/9/39 35/35/39 
f 35/35/40 9/9/41 8/8/7 31/31/6 
f 21/77/3 26/76/3 39/39/21 32/32/20 
f 16/16/26 49/49/25 54/54/42 18/18/43 
f 50/50/11 45/45/10 48/88/44 53/87/45 
f 13/13/22 16/16/26 18/18/46 15/15/46 
f 15/90/47 18/96/47 17/17/28 14/14/28 
f 18/86/48 54/85/48 52/52/37 17/95/36 
f 46/46/23 13/13/22 15/15/49 47/47/50 
f 47/89/51 15/90/51 14/14/15 43/43/14 
f 10/94/35 37/37/34 42/42/52 12/12/52 
f 61/61/53 21/21/54 22/78/54 65/65/53 
f 59/59/55 24/24/56 23/23/56 60/60/55 
f 36/36/57 33/33/57 34/34/57 35/35/57 
f 32/32/20 36/36/19 35/35/40 31/31/6 
f 38/38/58 41/41/58 42/42/58 37/37/58 
f 41/41/18 39/39/21 40/40/5 42/42/17 
f 21/77/3 32/32/20 31/31/6 22/22/3 
f 25/25/3 40/40/5 39/39/21 26/76/3 
f 48/88/44 45/45/10 46/46/23 47/47/50 
f 44/44/59 48/48/59 47/89/59 43/43/59 
f 50/50/11 53/87/45 54/54/42 49/49/25 
f 53/53/60 51/51/60 52/52/60 54/85/60 
f 33/33/61 44/44/61 43/43/61 34/34/61 
f 49/49/25 30/30/9 29/29/9 50/50/11 
f 27/27/9 46/46/23 45/45/10 28/28/9 
f 37/37/62 52/52/62 51/51/62 38/38/62 
f 66/66/63 59/59/55 60/60/55 62/62/63 
f 19/19/64 57/57/65 58/58/65 20/20/64 
f 3/3/24 56/56/24 60/60/24 23/23/24 
f 20/20/8 58/58/8 55/55/8 1/1/8 
f 1/84/2 55/81/2 56/56/2 3/3/2 
f 24/24/1 59/59/1 57/57/1 19/19/1 
f 26/26/66 66/66/63 62/62/63 25/80/66 
f 57/57/65 61/61/53 65/65/53 58/58/65 
f 56/56/24 64/64/24 62/62/24 60/60/24 
f 58/58/8 65/65/8 63/82/8 55/55/8 
f 55/81/2 63/63/2 64/64/2 56/56/2 
f 59/59/67 66/66/67 67/73/67 68/68/67 
f 68/74/1 67/67/1 70/70/1 69/72/1 
f 57/57/9 59/59/9 68/68/9 69/69/9 
f 61/61/68 57/57/68 69/69/68 70/71/68 
f 66/66/3 61/61/3 70/71/3 67/73/3 
#end 65 faces

#ZOMPROPERTIES_04{
#ZOMPROPERTIES_04 table {Mesh table {SymPlane table {Point vector3d 0 0 0 Normal vector3d 1 0 0 Threshold double 0.01 
#ZOMPROPERTIES_04 Enabled bool false EdgeID int -1 SymEdgeID int -1 UPos double 0.5 LocalMode bool false } RootGroup C
#ZOMPROPERTIES_04 SubMeshGroup {Children table {Tile_0_0 CSubMeshGroup {Children table {} BBoxUV box3d 0 0 0 0 0 0 BBo
#ZOMPROPERTIES_04 x3D box3d 0 0 0 0 0 0 Area3D double 0 AreaUV double 0.474895 IsRoot bool false Properties table {Sel
#ZOMPROPERTIES_04 ected bool false Box box3d 0 1 0 1 0 1 U int 0 V int 0 NU int 0 NV int 0 Tiling vector3d 1 1 1 TileR
#ZOMPROPERTIES_04 atioMode string "1:1" Overflow string "Off" Pack table {BoxFrameEdit bool false Behavior string "Fre
#ZOMPROPERTIES_04 e" } } IsTile bool true PolyIDs ints { 61 2 7 32 20 29 44 48 16 17 8 24 39 3 15 19 18 13 28 31 42 6 
#ZOMPROPERTIES_04 45 35 22 23 36 40 38 37 21 0 33 4 58 56 50 54 34 51 53 59 1 10 55 49 60 62 57 63 64 52 5 26 41 30 27
#ZOMPROPERTIES_04  25 43 11 12 47 9 14 46 } } } BBoxUV box3d 0 0 0 0 0 0 BBox3D box3d 0 0 0 0 0 0 Area3D double 0 Area
#ZOMPROPERTIES_04 UV double 0 IsRoot bool true Properties table {Selected bool false Box box3d 0 1 0 1 0 1 U int 0 V i
#ZOMPROPERTIES_04 nt 0 NU int 1 NV int 1 Tiling vector3d 1 1 1 TileRatioMode string "1:1" Overflow string "Off" Pack t
#ZOMPROPERTIES_04 able {Rotate table {Mode int 0 Min double 0 Max double 90 Step double 0 } PaddingSize double 0.00781
#ZOMPROPERTIES_04 25 MarginSize double 0.00390625 Resolution int 256 MapResolution int 2048 Scaling table {TexelDensit
#ZOMPROPERTIES_04 y double 1024 Mode int 2 } LayoutScalingMode int 2 MaxMutations int 1 } } IsTile bool false PolyIDs 
#ZOMPROPERTIES_04 ints { } } Maps table {Pin table {PrimType string "Vertex" Size int 1 DefaultValue double 0 ScaleTyp
#ZOMPROPERTIES_04 e string "Normalized" MergeMode string "Max" MinValue double 0 MaxValue double 1 Data doubles { r 96
#ZOMPROPERTIES_04  0 } } Density table {PrimType string "Polygon" Size int 1 DefaultValue double 1 ScaleType string "L
#ZOMPROPERTIES_04 og" MergeMode string "Average" MinValue double 0.1 MaxValue double 4 Data doubles { r 65 1 } } Prote
#ZOMPROPERTIES_04 ct table {PrimType string "Vertex" Size int 1 DefaultValue double 0 ScaleType string "Normalized" Me
#ZOMPROPERTIES_04 rgeMode string "Average" MinValue double -1 MaxValue double 1 Data doubles { r 96 0 } } } } }
#ZOMPROPERTIES_04}


#ZOMSCENE_01{
#ZOMSCENE_01 CScene {Settings table {AxisSystem table {UpVector string "y" } Unit string "cm" TexelDensityDisplay
#ZOMSCENE_01 Unit string "tx/cm" } Root table {} }
#ZOMSCENE_01}

#begin 0 fatal error vertex (that RizomUV cannot handle)
#end 0 fatal error vertex (that RizomUV cannot handle)

#begin 0 error vertex
#end 0 error vertex
