#File written by RizomUV 2023.0.70.ge90189e8. Compilation :Sep 22 2023,12:42:11
mtllib techo agujero contaniner.mtl
#begin vertices
v 5.029314 9.64337 59.72782
v 7.291066 9.559002 59.96504
v 5.029314 9.643364 77.2486
v 6.226835 9.559002 59.96504
v 6.123166 9.64337 59.72782
v 7.217017 9.64337 59.72782
v 8.310869 9.64337 59.72782
v 9.404721 9.64337 59.72782
v 10.49857 9.64337 59.72782
v 11.59242 9.64337 59.72782
v 12.68628 9.64337 59.72782
v 13.78013 9.64337 59.72782
v 13.78013 9.643364 77.2486
v 12.68628 9.643364 77.2486
v 11.59242 9.643364 77.2486
v 10.49857 9.643364 77.2486
v 9.404721 9.643364 77.2486
v 8.310869 9.643364 77.2486
v 7.217017 9.643364 77.2486
v 6.123166 9.643364 77.2486
v 8.355299 9.559002 59.96504
v 9.419531 9.559002 59.96504
v 10.48376 9.559002 59.96504
v 11.548 9.559002 59.96504
v 12.61223 9.559002 59.96504
v 13.67646 9.559002 59.96504
v 13.67646 9.558996 77.01139
v 12.61223 9.558996 77.01139
v 11.548 9.558996 77.01139
v 10.48376 9.558996 77.01139
v 9.419531 9.558996 77.01139
v 8.355299 9.558996 77.01139
v 7.291066 9.558996 77.01139
v 6.226835 9.558996 77.01139
v 5.029314 9.643367 68.48821
v 6.123166 9.643367 68.48821
v 7.217017 9.643367 68.48821
v 8.310869 9.643367 68.48821
v 9.404721 9.643367 68.48821
v 10.49857 9.643367 68.48821
v 11.59242 9.643367 68.48821
v 12.68628 9.643367 68.48821
v 13.78013 9.643367 68.48821
v 6.226835 9.558999 68.48821
v 7.291066 9.558999 68.48821
v 8.355299 9.558999 68.48821
v 9.419531 9.558999 68.48821
v 10.48376 9.558999 68.48821
v 11.548 9.558999 68.48821
v 12.61223 9.558999 68.48821
v 13.67646 9.558999 68.48821
v 6.123166 9.643367 69.94828
v 6.123166 9.643366 71.40834
v 6.123166 9.643366 72.86841
v 6.123166 9.643365 74.32848
v 6.123166 9.643365 75.78854
v 7.217017 9.643367 69.94828
v 7.217017 9.643366 71.40834
v 7.217017 9.643366 72.86841
v 7.217017 9.643365 74.32848
v 7.217017 9.643365 75.78854
v 8.310869 9.643367 69.94828
v 8.148247 9.628788 71.34146
v 7.670456 9.628787 72.88758
v 8.260059 9.628787 74.34735
v 8.310869 9.643365 75.78854
v 9.404721 9.643367 69.94828
v 9.404721 9.643365 75.78854
v 10.49857 9.643367 69.94828
v 10.49857 9.643365 75.78854
v 11.59242 9.643367 69.94828
v 11.64323 9.628789 71.05875
v 12.23284 9.628788 72.51852
v 11.75505 9.628787 74.06464
v 11.59242 9.643365 75.78854
v 12.68628 9.643367 69.94828
v 12.68628 9.643366 71.40834
v 12.68628 9.643366 72.86841
v 12.68628 9.643365 74.32848
v 12.68628 9.643365 75.78854
v 13.78013 9.643367 69.94828
v 13.78013 9.643366 71.40834
v 13.78013 9.643366 72.86841
v 13.78013 9.643365 74.32848
v 13.78013 9.643365 75.78854
v 6.226835 9.558999 69.90874
v 6.226835 9.558998 71.32927
v 6.226835 9.558998 72.7498
v 6.226835 9.558997 74.17033
v 6.226835 9.558997 75.59086
v 7.291066 9.558999 69.90874
v 7.291066 9.558998 71.32927
v 7.291066 9.558998 72.7498
v 7.291066 9.558997 74.17033
v 7.291066 9.558997 75.59086
v 8.355299 9.558999 69.90874
v 8.355299 9.558997 75.59086
v 9.419531 9.558999 69.90874
v 9.419531 9.558997 75.59086
v 10.48376 9.558999 69.90874
v 10.48376 9.558997 75.59086
v 11.548 9.558999 69.90874
v 11.548 9.558997 75.59086
v 12.61223 9.558999 69.90874
v 12.61223 9.558998 71.32927
v 12.61223 9.558998 72.7498
v 12.61223 9.558997 74.17033
v 12.61223 9.558997 75.59086
v 13.67646 9.558999 69.90874
v 13.67646 9.558998 71.32927
v 13.67646 9.558998 72.7498
v 13.67646 9.558997 74.17033
v 13.67646 9.558997 75.59086
v 5.029314 9.643365 75.78854
v 5.029314 9.643365 74.32848
v 5.029314 9.643366 72.86841
v 5.029314 9.643366 71.40834
v 5.029314 9.643367 69.94828
v 6.123166 9.643366 70.67831
v 7.217017 9.643366 70.67831
v 8.735728 9.628789 70.7704
v 9.469869 9.628789 70.43244
v 10.26212 9.628789 70.36835
v 11.01692 9.628789 70.58587
v 12.68628 9.643366 70.67831
v 13.78013 9.643366 70.67831
v 6.226835 9.558998 70.619
v 7.291066 9.558998 70.619
v 12.61223 9.558998 70.619
v 13.67646 9.558998 70.619
v 5.029314 9.643366 70.67831
v 6.123166 9.643365 75.05851
v 7.217017 9.643365 75.05851
v 8.886374 9.628787 74.82023
v 9.641176 9.628787 75.03773
v 10.43343 9.628787 74.97365
v 11.16756 9.628787 74.6357
v 12.68628 9.643365 75.05851
v 13.78013 9.643365 75.05851
v 6.226835 9.558997 74.88059
v 7.291066 9.558997 74.88059
v 12.61223 9.558997 74.88059
v 13.67646 9.558997 74.88059
v 5.029314 9.643365 75.05851
v 6.123166 9.643365 73.59844
v 7.217017 9.643365 73.59844
v 7.837775 9.628787 73.67615
v 12.12501 9.628788 73.32935
v 12.68628 9.643365 73.59844
v 13.78013 9.643365 73.59844
v 6.226835 9.558997 73.46007
v 7.291066 9.558997 73.46007
v 12.61223 9.558997 73.46007
v 13.67646 9.558997 73.46007
v 5.029314 9.643365 73.59844
v 6.123166 9.643366 72.13837
v 7.217017 9.643366 72.13837
v 7.778281 9.628788 72.07675
v 12.06552 9.628788 71.72994
v 12.68628 9.643366 72.13837
v 13.78013 9.643366 72.13837
v 6.226835 9.558998 72.03954
v 7.291066 9.558998 72.03954
v 12.61223 9.558998 72.03954
v 13.67646 9.558998 72.03954
v 5.029314 9.643366 72.13837
#end vertices

#begin 222 textures vertices 
vt 0.8749462 0.1461489 0
vt 0.8863424 0.08479055 0
vt 0.3795862 0.8597187 0
vt 0.8440463 0.05337207 0
vt 0.8454867 0.03941132 0
vt 0.5066527 0.00390625 0
vt 0.388594 0.00390625 0
vt 0.6024973 0.06925989 0
vt 0.294273 0.00390625 0
vt 0.6992086 0.1334316 0
vt 0.9403904 0.2363893 0
vt 0.9960938 0.2704197 0
vt 0.5323415 0.9953491 0
vt 0.278935 0.9002428 0
vt 0.7213562 0.1072285 0
vt 0.14753 0.8538064 0
vt 0.06361961 0.107509 0
vt 0.04104915 0.7689456 0
vt 0.3929807 0.8028199 0
vt 0.4184665 0.9004853 0
vt 0.3856906 0.01668823 0
vt 0.4296288 0.04718288 0
vt 0.2909509 0.0163021 0
vt 0.335673 0.04577927 0
vt 0.9380007 0.249405 0
vt 0.9834782 0.2773232 0
vt 0.5281823 0.9827347 0
vt 0.4759995 0.9699444 0
vt 0.7214295 0.09460305 0
vt 0.6674624 0.06639138 0
vt 0.06708252 0.09543559 0
vt 0.01758516 0.05226892 0
vt 0.398199 0.7919474 0
vt 0.3578872 0.7568039 0
vt 0.6259701 0.5145407 0
vt 0.5969937 0.4068472 0
vt 0.6514313 0.443297 0
vt 0.1394834 0.3731094 0
vt 0.3577837 0.4319165 0
vt 0.04519161 0.3717547 0
vt 0.09687269 0.406906 0
vt 0.6907926 0.6043885 0
vt 0.7454169 0.6418367 0
vt 0.6025356 0.4105811 0
vt 0.6467717 0.4401999 0
vt 0.1434818 0.3757326 0
vt 0.1880268 0.4051058 0
vt 0.04875828 0.374144 0
vt 0.09296445 0.4041488 0
vt 0.6954451 0.6076054 0
vt 0.739815 0.6380072 0
vt 0.5596013 0.4712362 0
vt 0.5227589 0.5351689 0
vt 0.4848202 0.5973916 0
vt 0.4430921 0.6558264 0
vt 0.4701941 0.8484225 0
vt 0.6138611 0.5072148 0
vt 0.5766364 0.5717226 0
vt 0.5378307 0.6369126 0
vt 0.4939581 0.6990568 0
vt 0.05625103 0.6791372 0
vt 0.2693074 0.4610649 0
vt 0.2275534 0.5175343 0
vt 0.1665576 0.5748683 0
vt 0.1437025 0.660103 0
vt 0.06590826 0.00390625 0
vt 0.1495926 0.46864 0
vt 0.108616 0.04821942 0
vt 0.00390625 0.4323225 0
vt 0.6961543 0.004416714 0
vt 0.05016252 0.4652065 0
vt 0.3740027 0.5986313 0
vt 0.3474639 0.6729249 0
vt 0.2793102 0.735006 0
vt 0.7532506 0.03764848 0
vt 0.6434212 0.6627032 0
vt 0.5950111 0.7199426 0
vt 0.5468235 0.7785065 0
vt 0.5079602 0.8429954 0
vt 0.2904938 0.8317489 0
vt 0.6965491 0.7015254 0
vt 0.6486078 0.7576451 0
vt 0.6039843 0.8120374 0
vt 0.568969 0.8670659 0
vt 0.5473745 0.9258029 0
vt 0.5661863 0.4731458 0
vt 0.5302645 0.5354755 0
vt 0.4933846 0.5964827 0
vt 0.45299 0.654117 0
vt 0.4077926 0.7072615 0
vt 0.6102347 0.5024251 0
vt 0.5740082 0.5652047 0
vt 0.5365102 0.6283884 0
vt 0.4945093 0.6889061 0
vt 0.4485839 0.744361 0
vt 0.1069043 0.4361511 0
vt 0.07193551 0.006432842 0
vt 0.1491473 0.4640705 0
vt 0.1077026 0.04273779 0
vt 0.008332639 0.4309343 0
vt 0.7006782 0.00390625 0
vt 0.04913147 0.4601045 0
vt 0.7501005 0.03298656 0
vt 0.649273 0.6643971 0
vt 0.6021729 0.720075 0
vt 0.5554156 0.7765437 0
vt 0.5167396 0.8379187 0
vt 0.489238 0.9037849 0
vt 0.6925019 0.6957971 0
vt 0.6456805 0.7506762 0
vt 0.6016435 0.80397 0
vt 0.5659095 0.8583639 0
vt 0.5428277 0.9159598 0
vt 0.4312218 0.8092015 0
vt 0.4760009 0.758123 0
vt 0.5153307 0.7027539 0
vt 0.5517512 0.6428937 0
vt 0.5879478 0.5798332 0
vt 0.5411856 0.5033236 0
vt 0.5952524 0.5394368 0
vt 0.266314 0.5079641 0
vt 0.3059872 0.5140037 0
vt 0.3400561 0.5327696 0
vt 0.36415 0.5624417 0
vt 0.6194451 0.6913423 0
vt 0.6723818 0.7298907 0
vt 0.5482238 0.5044014 0
vt 0.5921284 0.5337775 0
vt 0.6258955 0.6922918 0
vt 0.6689418 0.723518 0
vt 0.5697487 0.611687 0
vt 0.4203254 0.6832684 0
vt 0.4704275 0.7278897 0
vt 0.1511095 0.7019161 0
vt 0.1699723 0.7357314 0
vt 0.2021385 0.7534304 0
vt 0.2409789 0.7535979 0
vt 0.4927379 0.8775682 0
vt 0.5564731 0.8956285 0
vt 0.4310074 0.6812541 0
vt 0.4718771 0.717172 0
vt 0.5015596 0.8706384 0
vt 0.5526854 0.8867507 0
vt 0.454423 0.7841116 0
vt 0.4645658 0.6271912 0
vt 0.5165342 0.668742 0
vt 0.1492937 0.616196 0
vt 0.3160774 0.7065342 0
vt 0.5257272 0.8098426 0
vt 0.5849084 0.8392315 0
vt 0.4737621 0.6258427 0
vt 0.5161351 0.6592833 0
vt 0.534578 0.8064303 0
vt 0.5823484 0.8308014 0
vt 0.4962076 0.7310357 0
vt 0.50409 0.5666152 0
vt 0.5577048 0.6042854 0
vt 0.1933078 0.5406559 0
vt 0.3679463 0.6363692 0
vt 0.5704639 0.7487316 0
vt 0.6255817 0.7849521 0
vt 0.512095 0.5662506 0
vt 0.5556333 0.5968125 0
vt 0.5783955 0.7479681 0
vt 0.6230514 0.7774193 0
vt 0.5337185 0.6733169 0
vt 0.2171368 0.8849425 0
vt 0.2363175 0.8174223 0
vt 0.1867277 0.7910579 0
vt 0.6574328 0.0766486 0
vt 0.09628035 0.8149988 0
vt 0.1378993 0.7601596 0
vt 0.00390625 0.05771845 0
vt 0.09839721 0.7191726 0
vt 0.4976599 0.5278486 0
vt 0.3018212 0.7979718 0
vt 0.4812824 0.9117276 0
vt 0.3553016 0.7000184 0
vt 0.4695928 0.9809964 0
vt 0.7444651 0.1639667 0
vt 0.4029501 0.6421098 0
vt 0.4271106 0.6138294 0
vt 0.4508185 0.5855107 0
vt 0.3786775 0.6705766 0
vt 0.3344414 0.7310039 0
vt 0.3168731 0.7637858 0
vt 0.6477151 0.09964664 0
vt 0.402241 0.4621678 0
vt 0.3615536 0.5218584 0
vt 0.1017396 0.4371151 0
vt 0.3064886 0.3980135 0
vt 0.5518851 0.03431489 0
vt 0.316447 0.4921199 0
vt 0.1915549 0.4075255 0
vt 0.4399722 0.03938014 0
vt 0.4531736 0.49681 0
vt 0.4071399 0.5542662 0
vt 0.3465232 0.03818767 0
vt 0.3960091 0.7094455 0
vt 0.5784523 0.7053579 0
vt 0.4945503 0.8222024 0
vt 0.3443662 0.7614231 0
vt 0.6156087 0.6419625 0
vt 0.5173543 0.7947154 0
vt 0.5388633 0.7660333 0
vt 0.5591509 0.7361847 0
vt 0.5971518 0.67386 0
vt 0.6340547 0.6098225 0
vt 0.6715084 0.5453279 0
vt 0.9204089 0.1772894 0
vt 0.1482258 0.5610949 0
vt 0.00390625 0.7263948 0
vt 0.1680272 0.5285872 0
vt 0.08106942 0.6517389 0
vt 0.4455179 0.7553886 0
vt 0.1045139 0.6230116 0
vt 0.1868895 0.4961437 0
vt 0.1270073 0.5928079 0
vt 0.2054373 0.4639761 0
vt 0.2239779 0.4318721 0
vt 0.2614105 0.3681883 0
vt 0.8975747 0.07767619 0
#end 222 textures vertices 

#begin 57 normals 
vn -0 -1 -0
vn 0.9849 0.1729 -0
vn -0.0023 -1 0.0035
vn -0.0027 -1 0.0061
vn -0 -0.9422 0.3351
vn -0.0007 -0.9999 0.0113
vn 0.0011 -0.9999 0.0108
vn -0.8848 -0.466 -0
vn 0.0026 -1 0.006
vn 0.0022 -1 0.0034
vn -0 -0.9422 -0.3351
vn -0.9849 0.1729 -0
vn 0.8848 -0.466 -0
vn -0.7516 0.6597 -0
vn 0.6312 -0.7756 -0
vn -0.6312 -0.7756 -0
vn 0.7516 0.6597 -0
vn -0 0.9197 -0.3925
vn -0.0055 -0.9999 -0.0154
vn -0.0033 -1 -0.0076
vn -0.0018 -0.9999 -0.0172
vn -0.0024 -0.9996 -0.0269
vn 0.0028 -1 -0.0042
vn 0.0034 -1 -0.0076
vn 0.0044 -0.9998 -0.0202
vn 0.0087 -0.9999 -0.0072
vn 0.0165 -0.9998 -0.0061
vn 0.0131 -0.9999 -0.0061
vn 0.0225 -0.9997 -0.0054
vn 0.0259 -0.9997 -0.0044
vn 0.0282 -0.9996 -0
vn 0.0287 -0.9996 -0.0013
vn 0.0222 -0.9997 0.0034
vn 0.0219 -0.9998 0.0034
vn 0.0139 -0.9999 0.0047
vn 0.0127 -0.9999 0.0047
vn 0.0046 -0.9999 0.0105
vn 0.0072 -1 0.0058
vn 0.0013 -0.9998 -0.018
vn -0.0003 -0.9998 0.0177
vn 0.0016 -0.9999 0.0164
vn -0.0026 -1 -0.004
vn -0.0085 -0.9999 -0.0067
vn -0.0137 -0.9999 -0.0053
vn -0.016 -0.9999 -0.0052
vn -0.0246 -0.9997 -0.0035
vn -0.0231 -0.9997 -0.004
vn -0.0281 -0.9996 0.0006
vn -0.0281 -0.9996 0.0005
vn -0.0228 -0.9997 0.0041
vn -0.0208 -0.9998 0.0046
vn -0.0119 -0.9999 0.0054
vn -0.0141 -0.9999 0.0054
vn -0.0073 -1 0.0062
vn -0.0036 -0.9999 0.0127
vn -0 -0.9995 -0.0304
vn -0 -0.4243 0.9055
#end 57 normals 

#begin 138 faces
o Container:013
s 1
f 90/90/1 95/95/1 33/33/1 34/34/1 
f 114/114/1 56/56/1 20/20/1 3/3/1 
f 68/68/2 17/17/2 31/31/2 99/99/2 
f 61/61/3 66/174/4 18/18/1 19/212/1 
f 15/15/5 16/170/5 30/30/5 29/29/5 
f 68/172/6 70/169/7 16/16/1 17/171/1 
f 38/38/8 7/7/8 21/21/8 46/46/8 
f 75/168/9 80/80/10 14/14/1 15/167/1 
f 7/7/11 8/195/11 22/22/11 21/21/11 
f 97/97/1 99/99/1 31/31/1 32/32/1 
f 101/101/1 103/103/1 29/29/1 30/30/1 
f 108/108/1 113/113/1 27/27/1 28/28/1 
f 9/9/11 10/198/11 24/24/11 23/23/11 
f 40/40/12 9/9/12 23/23/12 48/48/12 
f 17/17/5 18/173/5 32/32/5 31/31/5 
f 75/75/13 15/15/13 29/29/13 103/103/13 
f 11/11/11 12/12/11 26/26/11 25/25/11 
f 42/42/14 11/11/14 25/25/14 50/50/14 
f 19/19/5 20/202/5 34/34/5 33/33/5 
f 85/85/15 13/13/15 27/27/15 113/113/15 
f 5/5/11 6/222/11 2/2/11 4/4/11 
f 36/36/16 5/5/16 4/4/16 44/44/16 
f 13/13/5 14/179/5 28/28/5 27/27/5 
f 61/215/17 19/19/17 33/33/17 95/95/17 
f 6/222/17 37/37/17 45/45/17 2/2/17 
f 52/52/16 36/36/16 44/44/16 86/86/16 
f 12/12/15 43/43/15 51/51/15 26/26/15 
f 76/76/14 42/42/14 50/50/14 104/104/14 
f 10/198/13 41/41/13 49/49/13 24/24/13 
f 69/69/12 40/40/12 48/48/12 100/100/12 
f 25/25/1 26/26/1 51/51/1 50/50/1 
f 23/23/1 24/24/1 49/49/1 48/48/1 
f 21/21/1 22/22/1 47/47/1 46/46/1 
f 10/10/1 11/180/1 42/175/1 41/196/1 
f 62/190/8 38/38/8 46/46/8 96/96/8 
f 8/8/1 9/187/1 40/188/1 39/39/1 
f 6/6/1 7/192/1 38/191/1 37/221/1 
f 8/195/2 39/194/2 47/47/2 22/22/2 
f 1/1/1 5/210/1 36/209/1 35/35/1 
f 4/4/1 2/2/1 45/45/1 44/44/1 
f 18/173/8 66/66/8 97/97/8 32/32/8 
f 16/170/12 70/70/12 101/101/12 30/30/12 
f 14/179/14 80/177/14 108/108/14 28/28/14 
f 138/138/14 79/79/14 107/107/14 142/142/14 
f 149/149/14 78/78/14 106/106/14 153/153/14 
f 160/160/14 77/77/14 105/105/14 164/164/14 
f 125/125/14 76/76/14 104/104/14 129/129/14 
f 20/202/16 56/199/16 90/90/16 34/34/16 
f 132/132/16 55/55/16 89/89/16 140/140/16 
f 145/145/16 54/54/16 88/88/16 151/151/16 
f 156/156/16 53/53/16 87/87/16 162/162/16 
f 119/119/16 52/52/16 86/86/16 127/127/16 
f 37/37/17 57/57/17 91/91/17 45/45/17 
f 120/120/17 58/58/17 92/92/17 128/128/17 
f 157/157/17 59/59/17 93/93/17 163/163/17 
f 146/146/17 60/60/17 94/94/17 152/152/17 
f 133/133/17 61/215/17 95/95/17 141/141/17 
f 43/43/15 81/81/15 109/109/15 51/51/15 
f 126/126/15 82/82/15 110/110/15 130/130/15 
f 161/161/15 83/83/15 111/111/15 165/165/15 
f 150/150/15 84/84/15 112/112/15 154/154/15 
f 139/139/15 85/85/15 113/113/15 143/143/15 
f 41/41/13 71/71/13 102/102/13 49/49/13 
f 50/50/1 51/51/1 109/109/1 104/104/1 
f 129/129/1 130/130/1 110/110/1 105/105/1 
f 164/164/1 165/165/1 111/111/1 106/106/1 
f 153/153/1 154/154/1 112/112/1 107/107/1 
f 142/142/1 143/143/1 113/113/1 108/108/1 
f 48/48/1 49/49/1 102/102/1 100/100/1 
f 103/103/18 101/101/18 70/70/18 75/75/18 
f 46/46/1 47/47/1 98/98/1 96/96/1 
f 121/121/19 62/62/20 67/193/21 122/122/22 
f 41/196/1 42/175/1 76/183/23 71/197/24 
f 124/124/25 125/182/26 77/181/27 72/72/28 
f 159/159/29 160/184/30 78/178/31 73/73/32 
f 148/148/33 149/185/34 79/186/35 74/74/36 
f 137/137/37 138/176/38 80/80/10 75/168/9 
f 39/39/1 40/188/1 69/189/39 67/193/21 
f 135/135/40 136/136/41 70/169/7 68/172/6 
f 37/221/1 38/191/1 62/62/20 57/220/42 
f 120/219/43 121/121/19 63/63/44 58/217/45 
f 157/213/46 158/158/47 64/64/48 59/211/49 
f 146/218/50 147/147/51 65/65/52 60/216/53 
f 133/214/54 134/134/55 66/174/4 61/61/3 
f 39/194/2 67/67/2 98/98/2 47/47/2 
f 123/123/56 69/189/39 71/197/24 124/124/25 
f 35/35/1 36/209/1 52/208/1 118/118/1 
f 131/131/1 119/203/1 53/207/1 117/117/1 
f 166/166/1 156/200/1 54/206/1 116/116/1 
f 155/155/1 145/205/1 55/204/1 115/115/1 
f 144/144/1 132/201/1 56/56/1 114/114/1 
f 44/44/1 45/45/1 91/91/1 86/86/1 
f 127/127/1 128/128/1 92/92/1 87/87/1 
f 162/162/1 163/163/1 93/93/1 88/88/1 
f 151/151/1 152/152/1 94/94/1 89/89/1 
f 140/140/1 141/141/1 95/95/1 90/90/1 
f 68/68/18 99/99/18 97/97/18 66/66/18 
f 102/102/57 71/71/57 69/69/57 100/100/57 
f 67/67/57 62/190/57 96/96/57 98/98/57 
f 86/86/1 91/91/1 128/128/1 127/127/1 
f 118/118/1 52/208/1 119/203/1 131/131/1 
f 57/220/42 62/62/20 121/121/19 120/219/43 
f 67/193/21 69/189/39 123/123/56 122/122/22 
f 71/197/24 76/183/23 125/182/26 124/124/25 
f 104/104/1 109/109/1 130/130/1 129/129/1 
f 81/81/15 126/126/15 130/130/15 109/109/15 
f 57/57/17 120/120/17 128/128/17 91/91/17 
f 53/53/16 119/119/16 127/127/16 87/87/16 
f 77/77/14 125/125/14 129/129/14 105/105/14 
f 89/89/1 94/94/1 141/141/1 140/140/1 
f 115/115/1 55/204/1 132/201/1 144/144/1 
f 70/169/7 136/136/41 137/137/37 75/168/9 
f 60/216/53 65/65/52 134/134/55 133/214/54 
f 74/74/36 79/186/35 138/176/38 137/137/37 
f 66/174/4 134/134/55 135/135/40 68/172/6 
f 107/107/1 112/112/1 143/143/1 142/142/1 
f 84/84/15 139/139/15 143/143/15 112/112/15 
f 60/60/17 133/133/17 141/141/17 94/94/17 
f 56/199/16 132/132/16 140/140/16 90/90/16 
f 80/177/14 138/138/14 142/142/14 108/108/14 
f 88/88/1 93/93/1 152/152/1 151/151/1 
f 116/116/1 54/206/1 145/205/1 155/155/1 
f 59/211/49 64/64/48 147/147/51 146/218/50 
f 73/73/32 78/178/31 149/185/34 148/148/33 
f 106/106/1 111/111/1 154/154/1 153/153/1 
f 83/83/15 150/150/15 154/154/15 111/111/15 
f 59/59/17 146/146/17 152/152/17 93/93/17 
f 55/55/16 145/145/16 151/151/16 89/89/16 
f 79/79/14 149/149/14 153/153/14 107/107/14 
f 87/87/1 92/92/1 163/163/1 162/162/1 
f 117/117/1 53/207/1 156/200/1 166/166/1 
f 58/217/45 63/63/44 158/158/47 157/213/46 
f 72/72/28 77/181/27 160/184/30 159/159/29 
f 105/105/1 110/110/1 165/165/1 164/164/1 
f 82/82/15 161/161/15 165/165/15 110/110/15 
f 58/58/17 157/157/17 163/163/17 92/92/17 
f 54/54/16 156/156/16 162/162/16 88/88/16 
f 78/78/14 160/160/14 164/164/14 106/106/14 
#end 138 faces

#ZOMPROPERTIES_04{
#ZOMPROPERTIES_04 table {Mesh table {SymPlane table {Point vector3d 0 0 0 Normal vector3d 1 0 0 Threshold double 0.01 
#ZOMPROPERTIES_04 Enabled bool false EdgeID int -1 SymEdgeID int -1 UPos double 0.5 LocalMode bool false } RootGroup C
#ZOMPROPERTIES_04 SubMeshGroup {Children table {Tile_0_0 CSubMeshGroup {Children table {} BBoxUV box3d 0 0 0 0 0 0 BBo
#ZOMPROPERTIES_04 x3D box3d 0 0 0 0 0 0 Area3D double 0 AreaUV double 0.375336 IsRoot bool false Properties table {Sel
#ZOMPROPERTIES_04 ected bool false Box box3d 0 1 0 1 0 1 U int 0 V int 0 NU int 0 NV int 0 Tiling vector3d 1 1 1 TileR
#ZOMPROPERTIES_04 atioMode string "1:1" Overflow string "Off" Pack table {BoxFrameEdit bool false Behavior string "Fre
#ZOMPROPERTIES_04 e" } } IsTile bool true PolyIDs ints { 4 10 69 15 41 2 9 96 40 14 12 31 68 97 29 62 13 28 6 32 70 98
#ZOMPROPERTIES_04  34 84 37 8 1 90 110 89 121 88 130 87 100 86 38 0 18 47 23 56 117 55 126 54 135 53 106 52 24 20 21 2
#ZOMPROPERTIES_04 5 51 99 107 92 50 129 136 93 49 120 127 48 109 118 95 94 91 39 11 22 42 19 61 116 60 125 59 134 58 1
#ZOMPROPERTIES_04 05 104 63 30 16 26 17 57 27 46 108 45 133 137 44 124 128 66 43 119 67 115 65 64 3 83 112 82 122 81 1
#ZOMPROPERTIES_04 31 80 101 79 36 71 102 85 103 73 132 74 123 75 113 76 7 111 78 114 5 72 33 77 35 } } } BBoxUV box3d 
#ZOMPROPERTIES_04 0 0 0 0 0 0 BBox3D box3d 0 0 0 0 0 0 Area3D double 0 AreaUV double 0 IsRoot bool true Properties tab
#ZOMPROPERTIES_04 le {Selected bool false Box box3d 0 1 0 1 0 1 U int 0 V int 0 NU int 1 NV int 1 Tiling vector3d 1 1 
#ZOMPROPERTIES_04 1 TileRatioMode string "1:1" Overflow string "Off" Pack table {Rotate table {Mode int 0 Min double 0
#ZOMPROPERTIES_04  Max double 90 Step double 0 } PaddingSize double 0.0078125 MarginSize double 0.00390625 Resolution 
#ZOMPROPERTIES_04 int 256 MapResolution int 2048 Scaling table {TexelDensity double 1024 Mode int 2 } LayoutScalingMod
#ZOMPROPERTIES_04 e int 2 MaxMutations int 1 } } IsTile bool false PolyIDs ints { } } Maps table {Pin table {PrimType 
#ZOMPROPERTIES_04 string "Vertex" Size int 1 DefaultValue double 0 ScaleType string "Normalized" MergeMode string "Max
#ZOMPROPERTIES_04 " MinValue double 0 MaxValue double 1 Data doubles { r 222 0 } } Density table {PrimType string "Pol
#ZOMPROPERTIES_04 ygon" Size int 1 DefaultValue double 1 ScaleType string "Log" MergeMode string "Average" MinValue do
#ZOMPROPERTIES_04 uble 0.1 MaxValue double 4 Data doubles { r 138 1 } } Protect table {PrimType string "Vertex" Size i
#ZOMPROPERTIES_04 nt 1 DefaultValue double 0 ScaleType string "Normalized" MergeMode string "Average" MinValue double 
#ZOMPROPERTIES_04 -1 MaxValue double 1 Data doubles { r 222 0 } } } } }
#ZOMPROPERTIES_04}


#ZOMSCENE_01{
#ZOMSCENE_01 CScene {Settings table {AxisSystem table {UpVector string "y" } Unit string "cm" TexelDensityDisplay
#ZOMSCENE_01 Unit string "tx/cm" } Root table {} }
#ZOMSCENE_01}

#begin 0 fatal error vertex (that RizomUV cannot handle)
#end 0 fatal error vertex (that RizomUV cannot handle)

#begin 0 error vertex
#end 0 error vertex
