# This file uses centimeters as units for non-parametric coordinates.

v -27.541599 40.579582 0.000000
v 27.541599 40.579582 0.000000
v -27.541599 0.528388 0.000000
v 27.541599 0.528388 0.000000
v 23.031487 40.579582 0.000000
v 23.031487 0.528388 0.000000
v -22.491041 40.579582 0.000000
v -22.491041 0.528388 0.000000
v -27.541599 37.117977 0.000000
v 27.541599 37.117977 0.000000
v -27.541599 4.299039 0.000000
v 27.541599 4.299039 0.000000
v 23.639187 37.555031 2.705215
v -23.084482 37.555031 2.705215
v -23.084482 3.870141 2.705215
v 23.639187 3.870141 2.705215
v -27.913044 0.355259 5.504441
v -28.268303 0.000000 5.149182
v -23.084482 0.000000 5.149182
v -23.084482 0.355259 5.504441
v -27.913044 40.752716 5.504441
v -28.268303 41.107975 5.149182
v -23.084482 41.107975 5.149182
v -23.084482 40.752716 5.504441
v -27.913044 3.870141 5.504441
v -28.268303 3.870141 5.149182
v 28.268303 0.000000 5.149182
v 27.913044 0.355259 5.504441
v 28.268303 3.870141 5.149182
v 27.913044 3.870141 5.504441
v 28.268303 41.107975 5.149182
v 27.913044 40.752716 5.504441
v 23.639187 41.107975 5.149182
v 23.639187 40.752716 5.504441
v 23.639187 0.000000 5.149182
v 23.639187 0.355259 5.504441
v -27.913044 37.555031 5.504441
v -28.268303 37.555031 5.149182
v 28.268303 37.555031 5.149182
v 27.913044 37.555031 5.504441
v -23.084482 37.555031 5.252536
v -23.336388 37.806934 5.504441
v 23.639187 37.555031 5.252536
v 23.891092 37.806934 5.504441
v -23.084482 3.870141 5.252536
v -23.336388 3.618236 5.504441
v 23.639187 3.870141 5.252536
v 23.891092 3.618236 5.504441
v -23.084482 41.192211 0.310431
v 23.639187 41.192211 0.310429
v 28.337082 41.176754 0.325889
v 28.352541 37.555031 0.310431
v 28.352539 3.870141 0.310429
v 28.337082 -0.068779 0.325889
v 23.639187 -0.084237 0.310431
v -23.084482 -0.084236 0.310429
v -28.337082 -0.068779 0.325889
v -28.352541 3.870141 0.310431
v -28.352539 37.555031 0.310429
v -28.337082 41.176754 0.325887
vt 0.060108 0.681569
vt 0.064006 0.676056
vt 0.512793 0.679957
vt 0.507280 0.676058
vt 0.058496 0.059589
vt 0.511181 0.057976
vt 0.512793 0.623076
vt 0.569294 0.623076
vt 0.569294 0.679957
vt 0.001992 0.679955
vt 0.060110 0.057974
vt 0.060111 0.001473
vt 0.060107 0.738071
vt 0.102574 0.681570
vt 0.102574 0.738071
vt 0.512795 0.059591
vt 0.569296 0.059591
vt 0.058496 0.110383
vt 0.001994 0.110383
vt 0.001995 0.059589
vt 0.512795 0.110385
vt 0.569296 0.110386
vt 0.058493 0.623074
vt 0.001992 0.623073
vt 0.511178 0.738072
vt 0.472195 0.057976
vt 0.472195 0.001475
vt 0.511181 0.001475
vt 0.472192 0.681571
vt 0.472192 0.738072
vt 0.102577 0.057974
vt 0.102577 0.001473
vt 0.966921 0.563881
vt 0.969618 0.567695
vt 0.603576 0.567695
vt 0.998008 0.539305
vt 0.994194 0.036360
vt 0.998008 0.033663
vt 0.969618 0.005273
vt 0.606273 0.009087
vt 0.603576 0.005273
vt 0.579000 0.536608
vt 0.575186 0.539305
vt 0.575186 0.033663
vt 0.994194 0.536608
vt 0.966921 0.036360
vt 0.606273 0.563881
vt 0.966921 0.536608
vt 0.579000 0.036360
vt 0.606273 0.536608
vt 0.966921 0.009087
vt 0.606273 0.036360
vt 0.064006 0.623074
vt 0.099810 0.625838
vt 0.064009 0.063487
vt 0.102577 0.063487
vt 0.064008 0.110383
vt 0.472192 0.676058
vt 0.474957 0.625839
vt 0.507282 0.110385
vt 0.474959 0.107621
vt 0.507282 0.063489
vt 0.507280 0.623076
vt 0.102574 0.676057
vt 0.099812 0.107619
vt 0.472195 0.063489
vt 0.511178 0.681571
vt 0.058493 0.679955
vt 0.565273 0.623076
vt 0.565275 0.110386
vt 0.565276 0.059591
vt 0.511181 0.005496
vt 0.472195 0.005496
vt 0.102577 0.005494
vt 0.060111 0.005494
vt 0.006016 0.059589
vt 0.006015 0.110383
vt 0.006013 0.623073
vt 0.006013 0.679954
vt 0.060108 0.734049
vt 0.102574 0.734050
vt 0.472192 0.734051
vt 0.565273 0.679957
vt 0.511178 0.734051
vn 0.000000 0.000000 1.000000
vn 0.000000 0.000000 1.000000
vn 0.000000 0.000000 1.000000
vn 0.000000 0.000000 1.000000
vn 0.000000 -0.707107 0.707107
vn 0.000000 -0.707107 0.707107
vn 0.000000 -0.707107 0.707107
vn 0.000000 -0.707107 0.707107
vn -0.707107 0.000000 0.707107
vn -0.707107 0.000000 0.707107
vn -0.707107 0.000000 0.707107
vn -0.707107 0.000000 0.707107
vn 0.000000 -0.707107 0.707107
vn 0.000000 -0.707107 0.707107
vn -0.707107 0.000000 0.707107
vn -0.707107 0.000000 0.707107
vn -0.707107 0.000000 0.707107
vn -0.707107 0.000000 0.707107
vn 0.000000 0.707105 0.707109
vn 0.000000 0.707105 0.707109
vn 0.000000 0.707107 0.707107
vn 0.000000 0.707107 0.707107
vn 0.000000 0.707107 0.707107
vn 0.000000 0.707107 0.707107
vn 0.000000 -0.707107 0.707107
vn 0.000000 -0.707107 0.707107
vn 0.707107 0.000000 0.707107
vn 0.707107 0.000000 0.707107
vn 0.707107 0.000000 0.707107
vn 0.707107 0.000000 0.707107
vn 0.707107 0.000000 0.707107
vn 0.707107 0.000000 0.707107
vn 0.707107 0.000000 0.707107
vn 0.707107 0.000000 0.707107
vn 0.000000 0.707105 0.707108
vn 0.000000 0.707106 0.707108
vn -0.001540 0.999229 -0.039236
vn -0.000180 0.998216 -0.059708
vn -0.000081 0.452470 -0.891779
vn -0.002025 0.463683 -0.885999
vn -0.002025 -0.463686 -0.885997
vn -0.000081 -0.452474 -0.891778
vn -0.000180 -0.998216 -0.059707
vn -0.001540 -0.999229 -0.039235
vn 0.994569 -0.000250 -0.104076
vn 0.996607 -0.002140 -0.082276
vn 0.366832 -0.002601 -0.930283
vn 0.358060 -0.000155 -0.933699
vn -0.366833 -0.002601 -0.930283
vn -0.996607 -0.002140 -0.082276
vn -0.994569 -0.000250 -0.104076
vn -0.358060 -0.000155 -0.933699
vn 0.000182 0.998318 -0.057981
vn 0.001723 0.999228 -0.039247
vn 0.002266 0.463445 -0.886123
vn 0.000080 0.452406 -0.891812
vn 0.001723 -0.999228 -0.039246
vn 0.000182 -0.998318 -0.057981
vn 0.000080 -0.452410 -0.891810
vn 0.002266 -0.463449 -0.886121
vn -0.358004 0.000154 -0.933720
vn -0.994698 0.000252 -0.102838
vn -0.996606 0.002328 -0.082285
vn -0.366691 0.002830 -0.930338
vn 0.996606 0.002328 -0.082285
vn 0.994698 0.000252 -0.102838
vn 0.358004 0.000154 -0.933720
vn 0.366693 0.002830 -0.930338
vn 0.707107 0.000000 0.707107
vn 0.707107 0.000000 0.707107
vn 0.707107 0.000000 0.707107
vn 0.707107 0.000000 0.707107
vn 0.000000 -0.707115 0.707099
vn 0.000000 -0.707115 0.707099
vn 0.000000 -0.707115 0.707099
vn 0.000000 -0.707115 0.707099
vn -0.707107 0.000000 0.707107
vn -0.707107 0.000000 0.707107
vn -0.707107 0.000000 0.707107
vn -0.707107 0.000000 0.707107
vn 0.000000 0.707107 0.707107
vn 0.000000 0.707107 0.707107
vn 0.000000 0.707107 0.707107
vn 0.000000 0.707107 0.707107
vn 0.000000 -1.000000 0.000000
vn 0.000000 -1.000000 0.000000
vn 0.000000 -1.000000 0.000000
vn 0.000000 -1.000000 0.000000
vn 1.000000 0.000000 0.000000
vn 1.000000 0.000000 0.000000
vn 1.000000 0.000000 0.000000
vn 1.000000 0.000000 0.000000
vn 0.000000 1.000000 0.000000
vn 0.000000 1.000000 0.000000
vn 0.000000 1.000000 0.000000
vn 0.000000 1.000000 0.000000
vn -1.000000 0.000000 0.000000
vn -1.000000 0.000000 0.000000
vn -1.000000 0.000000 0.000000
vn -1.000000 0.000000 0.000000
vn 0.000000 0.000000 1.000000
vn 0.000000 0.000000 1.000000
vn 0.000000 0.000000 1.000000
vn 0.000000 0.000000 1.000000
vn -0.000000 0.000000 1.000000
vn -0.000000 0.000000 1.000000
vn -0.000000 0.000000 1.000000
vn -0.000000 0.000000 1.000000
vn 0.000000 0.000000 1.000000
vn 0.000000 0.000000 1.000000
vn 0.000000 0.000000 1.000000
vn 0.000000 0.000000 1.000000
vn 0.000000 0.000000 1.000000
vn -0.000000 0.000000 1.000000
vn -0.000000 0.000000 1.000000
vn 0.000000 0.000000 1.000000
vn -0.000146 0.999851 0.017250
vn 0.000148 0.999851 0.017265
vn 0.001631 0.999873 0.015846
vn 0.999851 0.000204 0.017257
vn 0.999872 0.002120 0.015850
vn 0.999851 -0.000202 0.017245
vn 0.999873 -0.001948 0.015849
vn 0.000148 -0.999851 0.017265
vn 0.001631 -0.999873 0.015846
vn -0.000146 -0.999851 0.017250
vn -0.001457 -0.999873 0.015845
vn -0.999873 -0.001948 0.015849
vn -0.999851 -0.000202 0.017245
vn -0.999851 0.000204 0.017257
vn -0.999872 0.002120 0.015850
vn -0.001457 0.999873 0.015845
f 13/46/1 14/48/2 15/50/3 16/52/4
f 17/2/5 18/68/6 19/23/7 20/53/8
f 18/1/9 17/2/10 25/64/11 26/14/12
f 20/53/8 19/23/7 35/18/13 36/57/14
f 21/4/15 22/67/16 38/29/17 37/58/18
f 22/3/19 21/4/20 24/63/21 23/7/22
f 23/7/22 24/63/21 34/60/23 33/21/24
f 26/14/12 25/64/11 37/58/18 38/29/17
f 27/5/25 28/55/26 36/57/14 35/18/13
f 28/55/27 27/11/28 29/31/29 30/56/30
f 30/56/30 29/31/29 39/26/31 40/66/32
f 31/6/33 32/62/34 40/66/32 39/26/31
f 32/62/35 31/16/36 33/21/24 34/60/23
f 60/83/37 49/69/38 7/8/39 1/9/40
f 3/10/41 8/24/42 56/78/43 57/79/44
f 53/74/45 54/75/46 4/12/47 12/32/48
f 3/13/49 57/80/50 58/81/51 11/15/52
f 50/70/53 51/71/54 2/17/55 5/22/56
f 54/76/57 55/77/58 6/19/59 4/20/60
f 49/69/38 50/70/53 5/22/56 7/8/39
f 55/77/58 56/78/43 8/24/42 6/19/59
f 9/30/61 59/82/62 60/84/63 1/25/64
f 51/72/65 52/73/66 10/27/67 2/28/68
f 11/15/52 58/81/51 59/82/62 9/30/61
f 52/73/66 53/74/45 12/32/48 10/27/67
f 41/33/69 42/34/70 46/35/71 45/47/72
f 42/36/73 41/45/74 43/37/75 44/38/76
f 44/39/77 43/51/78 47/40/79 48/41/80
f 45/42/81 46/43/82 48/44/83 47/49/84
f 43/37/85 41/45/86 14/48/87 13/46/88
f 41/33/89 45/47/90 15/50/91 14/48/92
f 45/42/93 47/49/94 16/52/95 15/50/96
f 47/40/97 43/51/98 13/46/99 16/52/100
f 17/2/101 20/53/102 46/54/103 25/64/104
f 48/65/105 36/57/106 28/55/107 30/56/108
f 48/65/105 46/54/103 20/53/102 36/57/106
f 37/58/109 42/59/110 24/63/111 21/4/112
f 34/60/113 44/61/114 40/66/115 32/62/116
f 24/63/111 42/59/110 44/61/114 34/60/113
f 25/64/104 46/54/103 42/59/110 37/58/109
f 44/61/114 48/65/105 30/56/108 40/66/115
f 23/7/117 33/21/118 50/70/53 49/69/38
f 33/21/118 31/16/119 51/71/54 50/70/53
f 39/26/120 52/73/66 51/72/65 31/6/121
f 29/31/122 53/74/45 52/73/66 39/26/120
f 27/11/123 54/75/46 53/74/45 29/31/122
f 35/18/124 55/77/58 54/76/57 27/5/125
f 19/23/126 56/78/43 55/77/58 35/18/124
f 57/79/44 56/78/43 19/23/126 18/68/127
f 58/81/51 57/80/50 18/1/128 26/14/129
f 59/82/62 58/81/51 26/14/129 38/29/130
f 60/84/63 59/82/62 38/29/130 22/67/131
f 22/3/132 23/7/117 49/69/38 60/83/37
