#File written by RizomUV 2023.0.70.ge90189e8. Compilation :Sep 22 2023,12:42:11
mtllib ESCENARIO CON LUZ2.mtl
#begin vertices
v 49.62957 -1.085208 -2.829789
v 50.29906 -0.485114 -2.964241
v 49.62957 -1.085208 -10.63381
v 50.29906 -0.485114 -10.49936
v 59.58833 -1.085208 -2.829789
v 59.58833 -1.085208 -10.63381
v 59.58833 -0.485114 -10.49936
v 54.60895 -1.085208 -10.63381
v 54.60895 -0.485114 -10.49936
v 54.60895 -1.085208 -2.829789
v 55.27844 -0.485114 -2.964241
v 59.58833 -0.485114 3.041003
v 59.58833 -1.085208 3.175455
v 54.60895 -1.085208 3.175455
v 55.27844 -0.485114 3.041003
v 62.26052 -0.485114 -10.49936
v 62.93001 -1.085208 -10.63381
v 62.93001 -1.085208 -2.829789
v 62.26052 -0.485114 3.041003
v 62.93001 -1.085208 3.175455
v 62.26052 -0.485114 -2.829789
v 59.43381 0.021531 -10.0451
v 59.43381 0.021531 -2.91507
v 61.91801 0.021531 -2.91507
v 55.42711 0.021531 -3.040063
v 54.80472 0.021531 -10.0451
v 59.43381 0.021531 2.54272
v 50.79803 0.021531 -3.040063
v 50.79803 0.021531 -10.0451
v 55.42711 0.021531 2.54272
v 61.91801 0.021531 -10.0451
v 61.91801 0.021531 2.54272
v 62.59744 -0.485114 -2.829789
v 62.93001 -0.764748 -2.829789
v 62.76373 -0.522577 -2.829789
v 62.88545 -0.624931 -2.829789
v 49.62957 -0.764748 -2.829789
v 49.98196 -0.485114 -2.900559
v 49.67678 -0.624931 -2.83927
v 49.80576 -0.522577 -2.865174
v 49.98354 -0.485114 -10.56273
v 49.62957 -0.764748 -10.63381
v 49.80655 -0.522577 -10.59827
v 49.67699 -0.624931 -10.62429
v 54.60895 -0.764748 -10.63381
v 54.60895 -0.485114 -10.5484
v 54.60895 -0.624931 -10.62237
v 54.60895 -0.522577 -10.59111
v 59.58833 -0.485114 -10.54961
v 59.58833 -0.764748 -10.63381
v 59.58833 -0.522577 -10.59171
v 59.58833 -0.624931 -10.62253
v 54.60895 -0.764748 -2.829789
v 54.95274 -0.485114 -2.898833
v 54.65501 -0.624931 -2.839039
v 54.78085 -0.522577 -2.864311
v 59.58833 -0.764748 3.175455
v 59.58833 -0.485114 3.099212
v 59.58833 -0.624931 3.16524
v 59.58833 -0.522577 3.137333
v 54.95327 -0.485114 3.106306
v 54.60895 -0.764748 3.175455
v 54.78111 -0.522577 3.14088
v 54.65508 -0.624931 3.166191
v 62.93001 -0.764748 -10.63381
v 62.59459 -0.485114 -10.56645
v 62.88507 -0.624931 -10.62479
v 62.7623 -0.522577 -10.60013
v 62.59606 -0.485114 3.108389
v 62.93001 -0.764748 3.175455
v 62.76304 -0.522577 3.141922
v 62.88527 -0.624931 3.16647
v 51.09092 -0.057047 -9.121666
v 51.09092 0.052594 -9.121666
v 51.09092 -0.057047 -9.99774
v 51.09092 0.052594 -9.99774
v 51.96699 -0.057047 -9.121666
v 51.96699 0.052594 -9.121666
v 51.96699 -0.057047 -9.99774
v 51.96699 0.052594 -9.99774
v 52.0546 -0.057047 -9.121666
v 52.0546 0.052594 -9.121666
v 52.0546 -0.057047 -9.99774
v 52.0546 0.052594 -9.99774
v 52.93068 -0.057047 -9.121666
v 52.93068 0.052594 -9.121666
v 52.93068 -0.057047 -9.99774
v 52.93068 0.052594 -9.99774
v 53.01828 -0.057047 -9.121666
v 53.01828 0.052594 -9.121666
v 53.01828 -0.057047 -9.99774
v 53.01828 0.052594 -9.99774
v 53.89436 -0.057047 -9.121666
v 53.89436 0.052594 -9.121666
v 53.89436 -0.057047 -9.99774
v 53.89436 0.052594 -9.99774
v 53.98196 -0.057047 -9.121666
v 53.98196 0.052594 -9.121666
v 53.98196 -0.057047 -9.99774
v 53.98196 0.052594 -9.99774
v 54.85804 -0.057047 -9.121666
v 54.85804 0.052594 -9.121666
v 54.85804 -0.057047 -9.99774
v 54.85804 0.052594 -9.99774
v 54.94565 -0.057047 -9.121666
v 54.94565 0.052594 -9.121666
v 54.94565 -0.057047 -9.99774
v 54.94565 0.052594 -9.99774
v 55.82172 -0.057047 -9.121666
v 55.82172 0.052594 -9.121666
v 55.82172 -0.057047 -9.99774
v 55.82172 0.052594 -9.99774
v 55.90933 -0.057047 -9.121666
v 55.90933 0.052594 -9.121666
v 55.90933 -0.057047 -9.99774
v 55.90933 0.052594 -9.99774
v 56.7854 -0.057047 -9.121666
v 56.7854 0.052594 -9.121666
v 56.7854 -0.057047 -9.99774
v 56.7854 0.052594 -9.99774
v 56.87301 -0.057047 -9.121666
v 56.87301 0.052594 -9.121666
v 56.87301 -0.057047 -9.99774
v 56.87301 0.052594 -9.99774
v 57.74908 -0.057047 -9.121666
v 57.74908 0.052594 -9.121666
v 57.74908 -0.057047 -9.99774
v 57.74908 0.052594 -9.99774
v 57.83669 -0.057047 -9.121666
v 57.83669 0.052594 -9.121666
v 57.83669 -0.057047 -9.99774
v 57.83669 0.052594 -9.99774
v 58.71277 -0.057047 -9.121666
v 58.71277 0.052594 -9.121666
v 58.71277 -0.057047 -9.99774
v 58.71277 0.052594 -9.99774
v 58.80037 -0.057047 -9.121666
v 58.80037 0.052594 -9.121666
v 58.80037 -0.057047 -9.99774
v 58.80037 0.052594 -9.99774
v 59.67645 -0.057047 -9.121666
v 59.67645 0.052594 -9.121666
v 59.67645 -0.057047 -9.99774
v 59.67645 0.052594 -9.99774
v 59.76406 -0.057047 -9.121666
v 59.76406 0.052594 -9.121666
v 59.76406 -0.057047 -9.99774
v 59.76406 0.052594 -9.99774
v 60.64013 -0.057047 -9.121666
v 60.64013 0.052594 -9.121666
v 60.64013 -0.057047 -9.99774
v 60.64013 0.052594 -9.99774
v 60.72774 -0.057047 -9.121666
v 60.72774 0.052594 -9.121666
v 60.72774 -0.057047 -9.99774
v 60.72774 0.052594 -9.99774
v 61.60381 -0.057047 -9.121666
v 61.60381 0.052594 -9.121666
v 61.60381 -0.057047 -9.99774
v 61.60381 0.052594 -9.99774
v 51.09092 -0.057047 -8.081361
v 51.09092 0.052594 -8.081361
v 51.09092 -0.057047 -8.957435
v 51.09092 0.052594 -8.957435
v 51.96699 -0.057047 -8.081361
v 51.96699 0.052594 -8.081361
v 51.96699 -0.057047 -8.957435
v 51.96699 0.052594 -8.957435
v 52.0546 -0.057047 -8.081361
v 52.0546 0.052594 -8.081361
v 52.0546 -0.057047 -8.957435
v 52.0546 0.052594 -8.957435
v 52.93068 -0.057047 -8.081361
v 52.93068 0.052594 -8.081361
v 52.93068 -0.057047 -8.957435
v 52.93068 0.052594 -8.957435
v 53.01828 -0.057047 -8.081361
v 53.01828 0.052594 -8.081361
v 53.01828 -0.057047 -8.957435
v 53.01828 0.052594 -8.957435
v 53.89436 -0.057047 -8.081361
v 53.89436 0.052594 -8.081361
v 53.89436 -0.057047 -8.957435
v 53.89436 0.052594 -8.957435
v 53.98196 -0.057047 -8.081361
v 53.98196 0.052594 -8.081361
v 53.98196 -0.057047 -8.957435
v 53.98196 0.052594 -8.957435
v 54.85804 -0.057047 -8.081361
v 54.85804 0.052594 -8.081361
v 54.85804 -0.057047 -8.957435
v 54.85804 0.052594 -8.957435
v 54.94565 -0.057047 -8.081361
v 54.94565 0.052594 -8.081361
v 54.94565 -0.057047 -8.957435
v 54.94565 0.052594 -8.957435
v 55.82172 -0.057047 -8.081361
v 55.82172 0.052594 -8.081361
v 55.82172 -0.057047 -8.957435
v 55.82172 0.052594 -8.957435
v 55.90933 -0.057047 -8.081361
v 55.90933 0.052594 -8.081361
v 55.90933 -0.057047 -8.957435
v 55.90933 0.052594 -8.957435
v 56.7854 -0.057047 -8.081361
v 56.7854 0.052594 -8.081361
v 56.7854 -0.057047 -8.957435
v 56.7854 0.052594 -8.957435
v 56.87301 -0.057047 -8.081361
v 56.87301 0.052594 -8.081361
v 56.87301 -0.057047 -8.957435
v 56.87301 0.052594 -8.957435
v 57.74908 -0.057047 -8.081361
v 57.74908 0.052594 -8.081361
v 57.74908 -0.057047 -8.957435
v 57.74908 0.052594 -8.957435
v 57.83669 -0.057047 -8.081361
v 57.83669 0.052594 -8.081361
v 57.83669 -0.057047 -8.957435
v 57.83669 0.052594 -8.957435
v 58.71277 -0.057047 -8.081361
v 58.71277 0.052594 -8.081361
v 58.71277 -0.057047 -8.957435
v 58.71277 0.052594 -8.957435
v 58.80037 -0.057047 -8.081361
v 58.80037 0.052594 -8.081361
v 58.80037 -0.057047 -8.957435
v 58.80037 0.052594 -8.957435
v 59.67645 -0.057047 -8.081361
v 59.67645 0.052594 -8.081361
v 59.67645 -0.057047 -8.957435
v 59.67645 0.052594 -8.957435
v 59.76406 -0.057047 -8.081361
v 59.76406 0.052594 -8.081361
v 59.76406 -0.057047 -8.957435
v 59.76406 0.052594 -8.957435
v 60.64013 -0.057047 -8.081361
v 60.64013 0.052594 -8.081361
v 60.64013 -0.057047 -8.957435
v 60.64013 0.052594 -8.957435
v 60.72774 -0.057047 -8.081361
v 60.72774 0.052594 -8.081361
v 60.72774 -0.057047 -8.957435
v 60.72774 0.052594 -8.957435
v 61.60381 -0.057047 -8.081361
v 61.60381 0.052594 -8.081361
v 61.60381 -0.057047 -8.957435
v 61.60381 0.052594 -8.957435
v 51.09092 -0.057047 -7.036091
v 51.09092 0.052594 -7.036091
v 51.09092 -0.057047 -7.912165
v 51.09092 0.052594 -7.912165
v 51.96699 -0.057047 -7.036091
v 51.96699 0.052594 -7.036091
v 51.96699 -0.057047 -7.912165
v 51.96699 0.052594 -7.912165
v 52.0546 -0.057047 -7.036091
v 52.0546 0.052594 -7.036091
v 52.0546 -0.057047 -7.912165
v 52.0546 0.052594 -7.912165
v 52.93068 -0.057047 -7.036091
v 52.93068 0.052594 -7.036091
v 52.93068 -0.057047 -7.912165
v 52.93068 0.052594 -7.912165
v 53.01828 -0.057047 -7.036091
v 53.01828 0.052594 -7.036091
v 53.01828 -0.057047 -7.912165
v 53.01828 0.052594 -7.912165
v 53.89436 -0.057047 -7.036091
v 53.89436 0.052594 -7.036091
v 53.89436 -0.057047 -7.912165
v 53.89436 0.052594 -7.912165
v 53.98196 -0.057047 -7.036091
v 53.98196 0.052594 -7.036091
v 53.98196 -0.057047 -7.912165
v 53.98196 0.052594 -7.912165
v 54.85804 -0.057047 -7.036091
v 54.85804 0.052594 -7.036091
v 54.85804 -0.057047 -7.912165
v 54.85804 0.052594 -7.912165
v 54.94565 -0.057047 -7.036091
v 54.94565 0.052594 -7.036091
v 54.94565 -0.057047 -7.912165
v 54.94565 0.052594 -7.912165
v 55.82172 -0.057047 -7.036091
v 55.82172 0.052594 -7.036091
v 55.82172 -0.057047 -7.912165
v 55.82172 0.052594 -7.912165
v 55.90933 -0.057047 -7.036091
v 55.90933 0.052594 -7.036091
v 55.90933 -0.057047 -7.912165
v 55.90933 0.052594 -7.912165
v 56.7854 -0.057047 -7.036091
v 56.7854 0.052594 -7.036091
v 56.7854 -0.057047 -7.912165
v 56.7854 0.052594 -7.912165
v 56.87301 -0.057047 -7.036091
v 56.87301 0.052594 -7.036091
v 56.87301 -0.057047 -7.912165
v 56.87301 0.052594 -7.912165
v 57.74908 -0.057047 -7.036091
v 57.74908 0.052594 -7.036091
v 57.74908 -0.057047 -7.912165
v 57.74908 0.052594 -7.912165
v 57.83669 -0.057047 -7.036091
v 57.83669 0.052594 -7.036091
v 57.83669 -0.057047 -7.912165
v 57.83669 0.052594 -7.912165
v 58.71277 -0.057047 -7.036091
v 58.71277 0.052594 -7.036091
v 58.71277 -0.057047 -7.912165
v 58.71277 0.052594 -7.912165
v 58.80037 -0.057047 -7.036091
v 58.80037 0.052594 -7.036091
v 58.80037 -0.057047 -7.912165
v 58.80037 0.052594 -7.912165
v 59.67645 -0.057047 -7.036091
v 59.67645 0.052594 -7.036091
v 59.67645 -0.057047 -7.912165
v 59.67645 0.052594 -7.912165
v 59.76406 -0.057047 -7.036091
v 59.76406 0.052594 -7.036091
v 59.76406 -0.057047 -7.912165
v 59.76406 0.052594 -7.912165
v 60.64013 -0.057047 -7.036091
v 60.64013 0.052594 -7.036091
v 60.64013 -0.057047 -7.912165
v 60.64013 0.052594 -7.912165
v 60.72774 -0.057047 -7.036091
v 60.72774 0.052594 -7.036091
v 60.72774 -0.057047 -7.912165
v 60.72774 0.052594 -7.912165
v 61.60381 -0.057047 -7.036091
v 61.60381 0.052594 -7.036091
v 61.60381 -0.057047 -7.912165
v 61.60381 0.052594 -7.912165
v 51.09092 -0.057047 -5.995786
v 51.09092 0.052594 -5.995786
v 51.09092 -0.057047 -6.87186
v 51.09092 0.052594 -6.87186
v 51.96699 -0.057047 -5.995786
v 51.96699 0.052594 -5.995786
v 51.96699 -0.057047 -6.87186
v 51.96699 0.052594 -6.87186
v 52.0546 -0.057047 -5.995786
v 52.0546 0.052594 -5.995786
v 52.0546 -0.057047 -6.87186
v 52.0546 0.052594 -6.87186
v 52.93068 -0.057047 -5.995786
v 52.93068 0.052594 -5.995786
v 52.93068 -0.057047 -6.87186
v 52.93068 0.052594 -6.87186
v 53.01828 -0.057047 -5.995786
v 53.01828 0.052594 -5.995786
v 53.01828 -0.057047 -6.87186
v 53.01828 0.052594 -6.87186
v 53.89436 -0.057047 -5.995786
v 53.89436 0.052594 -5.995786
v 53.89436 -0.057047 -6.87186
v 53.89436 0.052594 -6.87186
v 53.98196 -0.057047 -5.995786
v 53.98196 0.052594 -5.995786
v 53.98196 -0.057047 -6.87186
v 53.98196 0.052594 -6.87186
v 54.85804 -0.057047 -5.995786
v 54.85804 0.052594 -5.995786
v 54.85804 -0.057047 -6.87186
v 54.85804 0.052594 -6.87186
v 54.94565 -0.057047 -5.995786
v 54.94565 0.052594 -5.995786
v 54.94565 -0.057047 -6.87186
v 54.94565 0.052594 -6.87186
v 55.82172 -0.057047 -5.995786
v 55.82172 0.052594 -5.995786
v 55.82172 -0.057047 -6.87186
v 55.82172 0.052594 -6.87186
v 55.90933 -0.057047 -5.995786
v 55.90933 0.052594 -5.995786
v 55.90933 -0.057047 -6.87186
v 55.90933 0.052594 -6.87186
v 56.7854 -0.057047 -5.995786
v 56.7854 0.052594 -5.995786
v 56.7854 -0.057047 -6.87186
v 56.7854 0.052594 -6.87186
v 56.87301 -0.057047 -5.995786
v 56.87301 0.052594 -5.995786
v 56.87301 -0.057047 -6.87186
v 56.87301 0.052594 -6.87186
v 57.74908 -0.057047 -5.995786
v 57.74908 0.052594 -5.995786
v 57.74908 -0.057047 -6.87186
v 57.74908 0.052594 -6.87186
v 57.83669 -0.057047 -5.995786
v 57.83669 0.052594 -5.995786
v 57.83669 -0.057047 -6.87186
v 57.83669 0.052594 -6.87186
v 58.71277 -0.057047 -5.995786
v 58.71277 0.052594 -5.995786
v 58.71277 -0.057047 -6.87186
v 58.71277 0.052594 -6.87186
v 58.80037 -0.057047 -5.995786
v 58.80037 0.052594 -5.995786
v 58.80037 -0.057047 -6.87186
v 58.80037 0.052594 -6.87186
v 59.67645 -0.057047 -5.995786
v 59.67645 0.052594 -5.995786
v 59.67645 -0.057047 -6.87186
v 59.67645 0.052594 -6.87186
v 59.76406 -0.057047 -5.995786
v 59.76406 0.052594 -5.995786
v 59.76406 -0.057047 -6.87186
v 59.76406 0.052594 -6.87186
v 60.64013 -0.057047 -5.995786
v 60.64013 0.052594 -5.995786
v 60.64013 -0.057047 -6.87186
v 60.64013 0.052594 -6.87186
v 60.72774 -0.057047 -5.995786
v 60.72774 0.052594 -5.995786
v 60.72774 -0.057047 -6.87186
v 60.72774 0.052594 -6.87186
v 61.60381 -0.057047 -5.995786
v 61.60381 0.052594 -5.995786
v 61.60381 -0.057047 -6.87186
v 61.60381 0.052594 -6.87186
v 51.09092 -0.057047 -5.051364
v 51.09092 0.052594 -5.051364
v 51.09092 -0.057047 -5.927439
v 51.09092 0.052594 -5.927439
v 51.96699 -0.057047 -5.051364
v 51.96699 0.052594 -5.051364
v 51.96699 -0.057047 -5.927439
v 51.96699 0.052594 -5.927439
v 52.0546 -0.057047 -5.051364
v 52.0546 0.052594 -5.051364
v 52.0546 -0.057047 -5.927439
v 52.0546 0.052594 -5.927439
v 52.93068 -0.057047 -5.051364
v 52.93068 0.052594 -5.051364
v 52.93068 -0.057047 -5.927439
v 52.93068 0.052594 -5.927439
v 53.01828 -0.057047 -5.051364
v 53.01828 0.052594 -5.051364
v 53.01828 -0.057047 -5.927439
v 53.01828 0.052594 -5.927439
v 53.89436 -0.057047 -5.051364
v 53.89436 0.052594 -5.051364
v 53.89436 -0.057047 -5.927439
v 53.89436 0.052594 -5.927439
v 53.98196 -0.057047 -5.051364
v 53.98196 0.052594 -5.051364
v 53.98196 -0.057047 -5.927439
v 53.98196 0.052594 -5.927439
v 54.85804 -0.057047 -5.051364
v 54.85804 0.052594 -5.051364
v 54.85804 -0.057047 -5.927439
v 54.85804 0.052594 -5.927439
v 54.94565 -0.057047 -5.051364
v 54.94565 0.052594 -5.051364
v 54.94565 -0.057047 -5.927439
v 54.94565 0.052594 -5.927439
v 55.82172 -0.057047 -5.051364
v 55.82172 0.052594 -5.051364
v 55.82172 -0.057047 -5.927439
v 55.82172 0.052594 -5.927439
v 55.90933 -0.057047 -5.051364
v 55.90933 0.052594 -5.051364
v 55.90933 -0.057047 -5.927439
v 55.90933 0.052594 -5.927439
v 56.7854 -0.057047 -5.051364
v 56.7854 0.052594 -5.051364
v 56.7854 -0.057047 -5.927439
v 56.7854 0.052594 -5.927439
v 56.87301 -0.057047 -5.051364
v 56.87301 0.052594 -5.051364
v 56.87301 -0.057047 -5.927439
v 56.87301 0.052594 -5.927439
v 57.74908 -0.057047 -5.051364
v 57.74908 0.052594 -5.051364
v 57.74908 -0.057047 -5.927439
v 57.74908 0.052594 -5.927439
v 57.83669 -0.057047 -5.051364
v 57.83669 0.052594 -5.051364
v 57.83669 -0.057047 -5.927439
v 57.83669 0.052594 -5.927439
v 58.71277 -0.057047 -5.051364
v 58.71277 0.052594 -5.051364
v 58.71277 -0.057047 -5.927439
v 58.71277 0.052594 -5.927439
v 58.80037 -0.057047 -5.051364
v 58.80037 0.052594 -5.051364
v 58.80037 -0.057047 -5.927439
v 58.80037 0.052594 -5.927439
v 59.67645 -0.057047 -5.051364
v 59.67645 0.052594 -5.051364
v 59.67645 -0.057047 -5.927439
v 59.67645 0.052594 -5.927439
v 59.76406 -0.057047 -5.051364
v 59.76406 0.052594 -5.051364
v 59.76406 -0.057047 -5.927439
v 59.76406 0.052594 -5.927439
v 60.64013 -0.057047 -5.051364
v 60.64013 0.052594 -5.051364
v 60.64013 -0.057047 -5.927439
v 60.64013 0.052594 -5.927439
v 60.72774 -0.057047 -5.051364
v 60.72774 0.052594 -5.051364
v 60.72774 -0.057047 -5.927439
v 60.72774 0.052594 -5.927439
v 61.60381 -0.057047 -5.051364
v 61.60381 0.052594 -5.051364
v 61.60381 -0.057047 -5.927439
v 61.60381 0.052594 -5.927439
v 51.09092 -0.057047 -4.100039
v 51.09092 0.052594 -4.100039
v 51.09092 -0.057047 -4.976114
v 51.09092 0.052594 -4.976114
v 51.96699 -0.057047 -4.100039
v 51.96699 0.052594 -4.100039
v 51.96699 -0.057047 -4.976114
v 51.96699 0.052594 -4.976114
v 52.0546 -0.057047 -4.100039
v 52.0546 0.052594 -4.100039
v 52.0546 -0.057047 -4.976114
v 52.0546 0.052594 -4.976114
v 52.93068 -0.057047 -4.100039
v 52.93068 0.052594 -4.100039
v 52.93068 -0.057047 -4.976114
v 52.93068 0.052594 -4.976114
v 53.01828 -0.057047 -4.100039
v 53.01828 0.052594 -4.100039
v 53.01828 -0.057047 -4.976114
v 53.01828 0.052594 -4.976114
v 53.89436 -0.057047 -4.100039
v 53.89436 0.052594 -4.100039
v 53.89436 -0.057047 -4.976114
v 53.89436 0.052594 -4.976114
v 53.98196 -0.057047 -4.100039
v 53.98196 0.052594 -4.100039
v 53.98196 -0.057047 -4.976114
v 53.98196 0.052594 -4.976114
v 54.85804 -0.057047 -4.100039
v 54.85804 0.052594 -4.100039
v 54.85804 -0.057047 -4.976114
v 54.85804 0.052594 -4.976114
v 54.94565 -0.057047 -4.100039
v 54.94565 0.052594 -4.100039
v 54.94565 -0.057047 -4.976114
v 54.94565 0.052594 -4.976114
v 55.82172 -0.057047 -4.100039
v 55.82172 0.052594 -4.100039
v 55.82172 -0.057047 -4.976114
v 55.82172 0.052594 -4.976114
v 55.90933 -0.057047 -4.100039
v 55.90933 0.052594 -4.100039
v 55.90933 -0.057047 -4.976114
v 55.90933 0.052594 -4.976114
v 56.7854 -0.057047 -4.100039
v 56.7854 0.052594 -4.100039
v 56.7854 -0.057047 -4.976114
v 56.7854 0.052594 -4.976114
v 56.87301 -0.057047 -4.100039
v 56.87301 0.052594 -4.100039
v 56.87301 -0.057047 -4.976114
v 56.87301 0.052594 -4.976114
v 57.74908 -0.057047 -4.100039
v 57.74908 0.052594 -4.100039
v 57.74908 -0.057047 -4.976114
v 57.74908 0.052594 -4.976114
v 57.83669 -0.057047 -4.100039
v 57.83669 0.052594 -4.100039
v 57.83669 -0.057047 -4.976114
v 57.83669 0.052594 -4.976114
v 58.71277 -0.057047 -4.100039
v 58.71277 0.052594 -4.100039
v 58.71277 -0.057047 -4.976114
v 58.71277 0.052594 -4.976114
v 58.80037 -0.057047 -4.100039
v 58.80037 0.052594 -4.100039
v 58.80037 -0.057047 -4.976114
v 58.80037 0.052594 -4.976114
v 59.67645 -0.057047 -4.100039
v 59.67645 0.052594 -4.100039
v 59.67645 -0.057047 -4.976114
v 59.67645 0.052594 -4.976114
v 59.76406 -0.057047 -4.100039
v 59.76406 0.052594 -4.100039
v 59.76406 -0.057047 -4.976114
v 59.76406 0.052594 -4.976114
v 60.64013 -0.057047 -4.100039
v 60.64013 0.052594 -4.100039
v 60.64013 -0.057047 -4.976114
v 60.64013 0.052594 -4.976114
v 60.72774 -0.057047 -4.100039
v 60.72774 0.052594 -4.100039
v 60.72774 -0.057047 -4.976114
v 60.72774 0.052594 -4.976114
v 61.60381 -0.057047 -4.100039
v 61.60381 0.052594 -4.100039
v 61.60381 -0.057047 -4.976114
v 61.60381 0.052594 -4.976114
v 51.09092 -0.057047 -3.1206
v 51.09092 0.052594 -3.1206
v 51.09092 -0.057047 -3.996675
v 51.09092 0.052594 -3.996675
v 51.96699 -0.057047 -3.1206
v 51.96699 0.052594 -3.1206
v 51.96699 -0.057047 -3.996675
v 51.96699 0.052594 -3.996675
v 52.0546 -0.057047 -3.1206
v 52.0546 0.052594 -3.1206
v 52.0546 -0.057047 -3.996675
v 52.0546 0.052594 -3.996675
v 52.93068 -0.057047 -3.1206
v 52.93068 0.052594 -3.1206
v 52.93068 -0.057047 -3.996675
v 52.93068 0.052594 -3.996675
v 53.01828 -0.057047 -3.1206
v 53.01828 0.052594 -3.1206
v 53.01828 -0.057047 -3.996675
v 53.01828 0.052594 -3.996675
v 53.89436 -0.057047 -3.1206
v 53.89436 0.052594 -3.1206
v 53.89436 -0.057047 -3.996675
v 53.89436 0.052594 -3.996675
v 53.98196 -0.057047 -3.1206
v 53.98196 0.052594 -3.1206
v 53.98196 -0.057047 -3.996675
v 53.98196 0.052594 -3.996675
v 54.85804 -0.057047 -3.1206
v 54.85804 0.052594 -3.1206
v 54.85804 -0.057047 -3.996675
v 54.85804 0.052594 -3.996675
v 54.94565 -0.057047 -3.1206
v 54.94565 0.052594 -3.1206
v 54.94565 -0.057047 -3.996675
v 54.94565 0.052594 -3.996675
v 55.82172 -0.057047 -3.1206
v 55.82172 0.052594 -3.1206
v 55.82172 -0.057047 -3.996675
v 55.82172 0.052594 -3.996675
v 55.90933 -0.057047 -3.1206
v 55.90933 0.052594 -3.1206
v 55.90933 -0.057047 -3.996675
v 55.90933 0.052594 -3.996675
v 56.7854 -0.057047 -3.1206
v 56.7854 0.052594 -3.1206
v 56.7854 -0.057047 -3.996675
v 56.7854 0.052594 -3.996675
v 56.87301 -0.057047 -3.1206
v 56.87301 0.052594 -3.1206
v 56.87301 -0.057047 -3.996675
v 56.87301 0.052594 -3.996675
v 57.74908 -0.057047 -3.1206
v 57.74908 0.052594 -3.1206
v 57.74908 -0.057047 -3.996675
v 57.74908 0.052594 -3.996675
v 57.83669 -0.057047 -3.1206
v 57.83669 0.052594 -3.1206
v 57.83669 -0.057047 -3.996675
v 57.83669 0.052594 -3.996675
v 58.71277 -0.057047 -3.1206
v 58.71277 0.052594 -3.1206
v 58.71277 -0.057047 -3.996675
v 58.71277 0.052594 -3.996675
v 58.80037 -0.057047 -3.1206
v 58.80037 0.052594 -3.1206
v 58.80037 -0.057047 -3.996675
v 58.80037 0.052594 -3.996675
v 59.67645 -0.057047 -3.1206
v 59.67645 0.052594 -3.1206
v 59.67645 -0.057047 -3.996675
v 59.67645 0.052594 -3.996675
v 59.76406 -0.057047 -3.1206
v 59.76406 0.052594 -3.1206
v 59.76406 -0.057047 -3.996675
v 59.76406 0.052594 -3.996675
v 60.64013 -0.057047 -3.1206
v 60.64013 0.052594 -3.1206
v 60.64013 -0.057047 -3.996675
v 60.64013 0.052594 -3.996675
v 60.72774 -0.057047 -3.1206
v 60.72774 0.052594 -3.1206
v 60.72774 -0.057047 -3.996675
v 60.72774 0.052594 -3.996675
v 61.60381 -0.057047 -3.1206
v 61.60381 0.052594 -3.1206
v 61.60381 -0.057047 -3.996675
v 61.60381 0.052594 -3.996675
v 55.87408 -0.057047 -2.061166
v 55.87408 0.052594 -2.061166
v 55.87408 -0.057047 -2.93724
v 55.87408 0.052594 -2.93724
v 56.75016 -0.057047 -2.061166
v 56.75016 0.052594 -2.061166
v 56.75016 -0.057047 -2.93724
v 56.75016 0.052594 -2.93724
v 56.83777 -0.057047 -2.061166
v 56.83777 0.052594 -2.061166
v 56.83777 -0.057047 -2.93724
v 56.83777 0.052594 -2.93724
v 57.71384 -0.057047 -2.061166
v 57.71384 0.052594 -2.061166
v 57.71384 -0.057047 -2.93724
v 57.71384 0.052594 -2.93724
v 57.80145 -0.057047 -2.061166
v 57.80145 0.052594 -2.061166
v 57.80145 -0.057047 -2.93724
v 57.80145 0.052594 -2.93724
v 58.67753 -0.057047 -2.061166
v 58.67753 0.052594 -2.061166
v 58.67753 -0.057047 -2.93724
v 58.67753 0.052594 -2.93724
v 58.76513 -0.057047 -2.061166
v 58.76513 0.052594 -2.061166
v 58.76513 -0.057047 -2.93724
v 58.76513 0.052594 -2.93724
v 59.6412 -0.057047 -2.061166
v 59.6412 0.052594 -2.061166
v 59.6412 -0.057047 -2.93724
v 59.6412 0.052594 -2.93724
v 59.72881 -0.057047 -2.061166
v 59.72881 0.052594 -2.061166
v 59.72881 -0.057047 -2.93724
v 59.72881 0.052594 -2.93724
v 60.60489 -0.057047 -2.061166
v 60.60489 0.052594 -2.061166
v 60.60489 -0.057047 -2.93724
v 60.60489 0.052594 -2.93724
v 60.69249 -0.057047 -2.061166
v 60.69249 0.052594 -2.061166
v 60.69249 -0.057047 -2.93724
v 60.69249 0.052594 -2.93724
v 61.56857 -0.057047 -2.061166
v 61.56857 0.052594 -2.061166
v 61.56857 -0.057047 -2.93724
v 61.56857 0.052594 -2.93724
v 55.87408 -0.057047 -0.948889
v 55.87408 0.052594 -0.948889
v 55.87408 -0.057047 -1.824963
v 55.87408 0.052594 -1.824963
v 56.75016 -0.057047 -0.948889
v 56.75016 0.052594 -0.948889
v 56.75016 -0.057047 -1.824963
v 56.75016 0.052594 -1.824963
v 56.83777 -0.057047 -0.948889
v 56.83777 0.052594 -0.948889
v 56.83777 -0.057047 -1.824963
v 56.83777 0.052594 -1.824963
v 57.71384 -0.057047 -0.948889
v 57.71384 0.052594 -0.948889
v 57.71384 -0.057047 -1.824963
v 57.71384 0.052594 -1.824963
v 57.80145 -0.057047 -0.948889
v 57.80145 0.052594 -0.948889
v 57.80145 -0.057047 -1.824963
v 57.80145 0.052594 -1.824963
v 58.67753 -0.057047 -0.948889
v 58.67753 0.052594 -0.948889
v 58.67753 -0.057047 -1.824963
v 58.67753 0.052594 -1.824963
v 58.76513 -0.057047 -0.948889
v 58.76513 0.052594 -0.948889
v 58.76513 -0.057047 -1.824963
v 58.76513 0.052594 -1.824963
v 59.6412 -0.057047 -0.948889
v 59.6412 0.052594 -0.948889
v 59.6412 -0.057047 -1.824963
v 59.6412 0.052594 -1.824963
v 59.72881 -0.057047 -0.948889
v 59.72881 0.052594 -0.948889
v 59.72881 -0.057047 -1.824963
v 59.72881 0.052594 -1.824963
v 60.60489 -0.057047 -0.948889
v 60.60489 0.052594 -0.948889
v 60.60489 -0.057047 -1.824963
v 60.60489 0.052594 -1.824963
v 60.69249 -0.057047 -0.948889
v 60.69249 0.052594 -0.948889
v 60.69249 -0.057047 -1.824963
v 60.69249 0.052594 -1.824963
v 61.56857 -0.057047 -0.948889
v 61.56857 0.052594 -0.948889
v 61.56857 -0.057047 -1.824963
v 61.56857 0.052594 -1.824963
v 55.87408 -0.057047 0.1177
v 55.87408 0.052594 0.1177
v 55.87408 -0.057047 -0.758375
v 55.87408 0.052594 -0.758375
v 56.75016 -0.057047 0.1177
v 56.75016 0.052594 0.1177
v 56.75016 -0.057047 -0.758375
v 56.75016 0.052594 -0.758375
v 56.83777 -0.057047 0.1177
v 56.83777 0.052594 0.1177
v 56.83777 -0.057047 -0.758375
v 56.83777 0.052594 -0.758375
v 57.71384 -0.057047 0.1177
v 57.71384 0.052594 0.1177
v 57.71384 -0.057047 -0.758375
v 57.71384 0.052594 -0.758375
v 57.80145 -0.057047 0.1177
v 57.80145 0.052594 0.1177
v 57.80145 -0.057047 -0.758375
v 57.80145 0.052594 -0.758375
v 58.67753 -0.057047 0.1177
v 58.67753 0.052594 0.1177
v 58.67753 -0.057047 -0.758375
v 58.67753 0.052594 -0.758375
v 58.76513 -0.057047 0.1177
v 58.76513 0.052594 0.1177
v 58.76513 -0.057047 -0.758375
v 58.76513 0.052594 -0.758375
v 59.6412 -0.057047 0.1177
v 59.6412 0.052594 0.1177
v 59.6412 -0.057047 -0.758375
v 59.6412 0.052594 -0.758375
v 59.72881 -0.057047 0.1177
v 59.72881 0.052594 0.1177
v 59.72881 -0.057047 -0.758375
v 59.72881 0.052594 -0.758375
v 60.60489 -0.057047 0.1177
v 60.60489 0.052594 0.1177
v 60.60489 -0.057047 -0.758375
v 60.60489 0.052594 -0.758375
v 60.69249 -0.057047 0.1177
v 60.69249 0.052594 0.1177
v 60.69249 -0.057047 -0.758375
v 60.69249 0.052594 -0.758375
v 61.56857 -0.057047 0.1177
v 61.56857 0.052594 0.1177
v 61.56857 -0.057047 -0.758375
v 61.56857 0.052594 -0.758375
v 55.87408 -0.057047 1.166081
v 55.87408 0.052594 1.166081
v 55.87408 -0.057047 0.290007
v 55.87408 0.052594 0.290007
v 56.75016 -0.057047 1.166081
v 56.75016 0.052594 1.166081
v 56.75016 -0.057047 0.290007
v 56.75016 0.052594 0.290007
v 56.83777 -0.057047 1.166081
v 56.83777 0.052594 1.166081
v 56.83777 -0.057047 0.290007
v 56.83777 0.052594 0.290007
v 57.71384 -0.057047 1.166081
v 57.71384 0.052594 1.166081
v 57.71384 -0.057047 0.290007
v 57.71384 0.052594 0.290007
v 57.80145 -0.057047 1.166081
v 57.80145 0.052594 1.166081
v 57.80145 -0.057047 0.290007
v 57.80145 0.052594 0.290007
v 58.67753 -0.057047 1.166081
v 58.67753 0.052594 1.166081
v 58.67753 -0.057047 0.290007
v 58.67753 0.052594 0.290007
v 58.76513 -0.057047 1.166081
v 58.76513 0.052594 1.166081
v 58.76513 -0.057047 0.290007
v 58.76513 0.052594 0.290007
v 59.6412 -0.057047 1.166081
v 59.6412 0.052594 1.166081
v 59.6412 -0.057047 0.290007
v 59.6412 0.052594 0.290007
v 59.72881 -0.057047 1.166081
v 59.72881 0.052594 1.166081
v 59.72881 -0.057047 0.290007
v 59.72881 0.052594 0.290007
v 60.60489 -0.057047 1.166081
v 60.60489 0.052594 1.166081
v 60.60489 -0.057047 0.290007
v 60.60489 0.052594 0.290007
v 60.69249 -0.057047 1.166081
v 60.69249 0.052594 1.166081
v 60.69249 -0.057047 0.290007
v 60.69249 0.052594 0.290007
v 61.56857 -0.057047 1.166081
v 61.56857 0.052594 1.166081
v 61.56857 -0.057047 0.290007
v 61.56857 0.052594 0.290007
v 55.87408 -0.057047 2.210276
v 55.87408 0.052594 2.210276
v 55.87408 -0.057047 1.334202
v 55.87408 0.052594 1.334202
v 56.75016 -0.057047 2.210276
v 56.75016 0.052594 2.210276
v 56.75016 -0.057047 1.334202
v 56.75016 0.052594 1.334202
v 56.83777 -0.057047 2.210276
v 56.83777 0.052594 2.210276
v 56.83777 -0.057047 1.334202
v 56.83777 0.052594 1.334202
v 57.71384 -0.057047 2.210276
v 57.71384 0.052594 2.210276
v 57.71384 -0.057047 1.334202
v 57.71384 0.052594 1.334202
v 57.80145 -0.057047 2.210276
v 57.80145 0.052594 2.210276
v 57.80145 -0.057047 1.334202
v 57.80145 0.052594 1.334202
v 58.67753 -0.057047 2.210276
v 58.67753 0.052594 2.210276
v 58.67753 -0.057047 1.334202
v 58.67753 0.052594 1.334202
v 58.76513 -0.057047 2.210276
v 58.76513 0.052594 2.210276
v 58.76513 -0.057047 1.334202
v 58.76513 0.052594 1.334202
v 59.6412 -0.057047 2.210276
v 59.6412 0.052594 2.210276
v 59.6412 -0.057047 1.334202
v 59.6412 0.052594 1.334202
v 59.72881 -0.057047 2.210276
v 59.72881 0.052594 2.210276
v 59.72881 -0.057047 1.334202
v 59.72881 0.052594 1.334202
v 60.60489 -0.057047 2.210276
v 60.60489 0.052594 2.210276
v 60.60489 -0.057047 1.334202
v 60.60489 0.052594 1.334202
v 60.69249 -0.057047 2.210276
v 60.69249 0.052594 2.210276
v 60.69249 -0.057047 1.334202
v 60.69249 0.052594 1.334202
v 61.56857 -0.057047 2.210276
v 61.56857 0.052594 2.210276
v 61.56857 -0.057047 1.334202
v 61.56857 0.052594 1.334202
#end vertices

#begin 968 textures vertices 
vt 0.570578 0.5444129 0
vt 0.5948102 0.5786922 0
vt 0.356766 0.7371976 0
vt 0.3215758 0.7356681 0
vt 0.3246077 0.2715364 0
vt 0.1107168 0.4642963 0
vt 0.09223905 0.4809491 0
vt 0.2337246 0.600766 0
vt 0.6588003 0.9770078 0
vt 0.4475746 0.4079933 0
vt 0.4497354 0.3727921 0
vt 0.8308384 0.4466097 0
vt 0.4892003 0.1232179 0
vt 0.6121593 0.2596961 0
vt 0.6653126 0.4412665 0
vt 0.00390625 0.338306 0
vt 0.02820437 0.3726813 0
vt 0.2420828 0.1799585 0
vt 0.4419075 0.03312879 0
vt 0.406658 0.03164745 0
vt 0.9264809 0.6724625 0
vt 0.8304889 0.9402161 0
vt 0.8092991 0.6738955 0
vt 0.9035886 0.6754455 0
vt 0.6558838 0.6805829 0
vt 0.66381 0.951036 0
vt 0.8224315 0.4728838 0
vt 0.4810395 0.72789 0
vt 0.5231886 0.9707996 0
vt 0.6791733 0.4655631 0
vt 0.9194884 0.9315401 0
vt 0.9134448 0.4794909 0
vt 0.2224074 0.1581234 0
vt 0.2341687 0.1711756 0
vt 0.2266169 0.1627949 0
vt 0.2305446 0.1671537 0
vt 0.5784955 0.5531927 0
vt 0.5787988 0.519498 0
vt 0.5818817 0.5574701 0
vt 0.5852401 0.5626214 0
vt 0.3310967 0.7427626 0
vt 0.3646834 0.7459779 0
vt 0.3733842 0.753669 0
vt 0.3685919 0.7497878 0
vt 0.2249445 0.6086836 0
vt 0.2166117 0.6161967 0
vt 0.221101 0.6121496 0
vt 0.2181687 0.6147936 0
vt 0.09361461 0.4797065 0
vt 0.1019329 0.4722099 0
vt 0.09515836 0.4783137 0
vt 0.09808808 0.4756738 0
vt 0.456355 0.4000762 0
vt 0.4559866 0.3833321 0
vt 0.4590565 0.3953526 0
vt 0.4588366 0.3893004 0
vt 0.4979833 0.1153033 0
vt 0.5061982 0.107901 0
vt 0.5018255 0.111841 0
vt 0.5047332 0.1092208 0
vt 0.6301749 0.2835009 0
vt 0.6209438 0.2517842 0
vt 0.6234238 0.2410027 0
vt 0.6236458 0.2470603 0
vt 0.0194187 0.3805913 0
vt 0.01959965 0.3970848 0
vt 0.01691095 0.3596499 0
vt 0.01363923 0.3546601 0
vt 0.4317852 0.02558201 0
vt 0.3987436 0.02286481 0
vt 0.3902617 0.0153003 0
vt 0.3948718 0.01906345 0
vt 0.6849018 0.2455568 0
vt 0.6888205 0.2459931 0
vt 0.710989 0.2753496 0
vt 0.7114309 0.2714308 0
vt 0.7146648 0.2194834 0
vt 0.7142408 0.223407 0
vt 0.7407786 0.249232 0
vt 0.7368589 0.2488059 0
vt 0.00390625 0.7849533 0
vt 0.007825033 0.7853896 0
vt 0.0299935 0.8147461 0
vt 0.03043539 0.8108273 0
vt 0.03366916 0.75888 0
vt 0.03324518 0.7628036 0
vt 0.05978294 0.7886287 0
vt 0.05586328 0.7882025 0
vt 0.7866597 0.2024413 0
vt 0.7905785 0.2028777 0
vt 0.812747 0.2322342 0
vt 0.8131889 0.2283154 0
vt 0.8164227 0.176368 0
vt 0.8159988 0.1802916 0
vt 0.8425365 0.2061166 0
vt 0.8386169 0.2056905 0
vt 0.8571075 0.1162105 0
vt 0.8610263 0.1166468 0
vt 0.8831948 0.1460033 0
vt 0.8836367 0.1420846 0
vt 0.8868705 0.09013717 0
vt 0.8864466 0.09406076 0
vt 0.9129843 0.1198858 0
vt 0.9090647 0.1194597 0
vt 0.2504736 0.7406405 0
vt 0.2543924 0.7410768 0
vt 0.2765608 0.7704333 0
vt 0.2770027 0.7665146 0
vt 0.2802365 0.7145672 0
vt 0.2798125 0.7184908 0
vt 0.3063503 0.7443159 0
vt 0.3024306 0.7438897 0
vt 0.7162119 0.2886722 0
vt 0.7201307 0.2891085 0
vt 0.7422992 0.318465 0
vt 0.742741 0.3145462 0
vt 0.7459749 0.2625988 0
vt 0.7455509 0.2665224 0
vt 0.7720887 0.2923474 0
vt 0.768169 0.2919213 0
vt 0.03913016 0.5830496 0
vt 0.04304894 0.583486 0
vt 0.06521741 0.6128425 0
vt 0.0656593 0.6089237 0
vt 0.06889315 0.5569763 0
vt 0.06846917 0.5608999 0
vt 0.09500693 0.5867249 0
vt 0.09108727 0.5862988 0
vt 0.6888155 0.1593259 0
vt 0.6927343 0.1597622 0
vt 0.7149028 0.1891188 0
vt 0.7153447 0.1852 0
vt 0.7185786 0.1332526 0
vt 0.7181546 0.1371762 0
vt 0.7446923 0.1630012 0
vt 0.7407727 0.1625751 0
vt 0.7944872 0.2783809 0
vt 0.798406 0.2788172 0
vt 0.8205745 0.3081737 0
vt 0.8210164 0.304255 0
vt 0.8242503 0.2523076 0
vt 0.8238263 0.2562312 0
vt 0.8503641 0.2820562 0
vt 0.8464444 0.2816301 0
vt 0.1448019 0.7021102 0
vt 0.1487207 0.7025465 0
vt 0.1708891 0.731903 0
vt 0.171331 0.7279843 0
vt 0.1745648 0.676037 0
vt 0.1741408 0.6799606 0
vt 0.2006786 0.7057856 0
vt 0.1967589 0.7053595 0
vt 0.6575054 0.1162105 0
vt 0.6614242 0.1166468 0
vt 0.6835926 0.1460033 0
vt 0.6840345 0.1420846 0
vt 0.6872684 0.09013717 0
vt 0.6868444 0.09406076 0
vt 0.7133822 0.1198858 0
vt 0.7094625 0.1194597 0
vt 0.614454 0.3346462 0
vt 0.6183727 0.3350825 0
vt 0.6405412 0.364439 0
vt 0.6409831 0.3605203 0
vt 0.644217 0.3085729 0
vt 0.643793 0.3124964 0
vt 0.6703308 0.3383215 0
vt 0.6664111 0.3378953 0
vt 0.03913016 0.74411 0
vt 0.04304894 0.7445463 0
vt 0.06521741 0.7739029 0
vt 0.0656593 0.7699841 0
vt 0.06889307 0.7180368 0
vt 0.06846909 0.7219604 0
vt 0.09500685 0.7477854 0
vt 0.09108719 0.7473593 0
vt 0.7514358 0.2455568 0
vt 0.7553546 0.2459931 0
vt 0.7775231 0.2753496 0
vt 0.7779649 0.2714308 0
vt 0.7811988 0.2194834 0
vt 0.7807749 0.223407 0
vt 0.8073126 0.249232 0
vt 0.803393 0.2488059 0
vt 0.6222815 0.1593259 0
vt 0.6262003 0.1597622 0
vt 0.6483687 0.1891188 0
vt 0.6488106 0.1852 0
vt 0.6520445 0.1332526 0
vt 0.6516205 0.1371762 0
vt 0.6781583 0.1630012 0
vt 0.6742386 0.1625751 0
vt 0.1800258 0.741797 0
vt 0.1839446 0.7422334 0
vt 0.206113 0.7715899 0
vt 0.2065549 0.7676711 0
vt 0.2097887 0.7157238 0
vt 0.2093647 0.7196474 0
vt 0.2359025 0.7454724 0
vt 0.2319828 0.7450463 0
vt 0.900159 0.2318369 0
vt 0.9040777 0.2322732 0
vt 0.9262462 0.2616297 0
vt 0.9266881 0.257711 0
vt 0.929922 0.2057636 0
vt 0.929498 0.2096872 0
vt 0.9560358 0.2355122 0
vt 0.9521161 0.2350861 0
vt 0.109578 0.581893 0
vt 0.1134968 0.5823294 0
vt 0.1356652 0.6116859 0
vt 0.1361071 0.6077671 0
vt 0.139341 0.5558197 0
vt 0.138917 0.5597433 0
vt 0.1654547 0.5855683 0
vt 0.1615351 0.5851422 0
vt 0.7553496 0.1593259 0
vt 0.7592684 0.1597622 0
vt 0.7814368 0.1891188 0
vt 0.7818787 0.1852 0
vt 0.7851126 0.1332526 0
vt 0.7846886 0.1371762 0
vt 0.8112264 0.1630012 0
vt 0.8073067 0.1625751 0
vt 0.8649351 0.1921501 0
vt 0.8688538 0.1925864 0
vt 0.8910223 0.2219429 0
vt 0.8914642 0.2180241 0
vt 0.8946981 0.1660767 0
vt 0.8942741 0.1700003 0
vt 0.9208119 0.1958254 0
vt 0.9168922 0.1953992 0
vt 0.2543874 0.8177394 0
vt 0.2583061 0.8181757 0
vt 0.2804746 0.8475322 0
vt 0.2809165 0.8436134 0
vt 0.2841503 0.7916661 0
vt 0.2837263 0.7955897 0
vt 0.3102641 0.8214147 0
vt 0.3063444 0.8209886 0
vt 0.7240394 0.1162105 0
vt 0.7279582 0.1166468 0
vt 0.7501267 0.1460033 0
vt 0.7505686 0.1420846 0
vt 0.7538025 0.09013717 0
vt 0.7533785 0.09406076 0
vt 0.7799162 0.1198858 0
vt 0.7759966 0.1194597 0
vt 0.7162119 0.3534227 0
vt 0.7201307 0.3538591 0
vt 0.7422992 0.3832156 0
vt 0.742741 0.3792968 0
vt 0.7459749 0.3273494 0
vt 0.7455509 0.331273 0
vt 0.7720887 0.357098 0
vt 0.768169 0.3566719 0
vt 0.03913016 0.8246402 0
vt 0.04304894 0.8250765 0
vt 0.06521741 0.854433 0
vt 0.0656593 0.8505142 0
vt 0.06889307 0.7985669 0
vt 0.06846909 0.8024905 0
vt 0.09500685 0.8283155 0
vt 0.09108719 0.8278894 0
vt 0.7944872 0.3611831 0
vt 0.798406 0.3616195 0
vt 0.8205745 0.390976 0
vt 0.8210164 0.3870572 0
vt 0.8242503 0.3351098 0
vt 0.8238263 0.3390334 0
vt 0.8503641 0.3648584 0
vt 0.8464444 0.3644323 0
vt 0.8923314 0.07309505 0
vt 0.8962502 0.07353137 0
vt 0.9184187 0.1028879 0
vt 0.9188606 0.09896911 0
vt 0.9220945 0.04702171 0
vt 0.9216705 0.0509453 0
vt 0.9482082 0.07677033 0
vt 0.9442886 0.07634421 0
vt 0.2152497 0.7814839 0
vt 0.2191685 0.7819202 0
vt 0.2413369 0.8112767 0
vt 0.2417788 0.8073579 0
vt 0.2450126 0.7554106 0
vt 0.2445886 0.7593342 0
vt 0.2711264 0.7851592 0
vt 0.2672067 0.7847331 0
vt 0.9353829 0.2715237 0
vt 0.9393017 0.2719601 0
vt 0.9614701 0.3013166 0
vt 0.961912 0.2973978 0
vt 0.9651459 0.2454504 0
vt 0.9647219 0.249374 0
vt 0.9912597 0.275199 0
vt 0.98734 0.2747729 0
vt 0.00390625 0.6238931 0
vt 0.007825033 0.6243294 0
vt 0.0299935 0.6536859 0
vt 0.03043539 0.6497671 0
vt 0.03366924 0.5978197 0
vt 0.03324527 0.6017433 0
vt 0.05978303 0.6275684 0
vt 0.05586337 0.6271422 0
vt 0.5909713 0.1162105 0
vt 0.5948901 0.1166468 0
vt 0.6170586 0.1460033 0
vt 0.6175005 0.1420846 0
vt 0.6207344 0.09013717 0
vt 0.6203104 0.09406076 0
vt 0.6468482 0.1198858 0
vt 0.6429285 0.1194597 0
vt 0.00390625 0.4628325 0
vt 0.007825033 0.4632688 0
vt 0.0299935 0.4926253 0
vt 0.03043539 0.4887066 0
vt 0.03366927 0.4367592 0
vt 0.0332453 0.4406827 0
vt 0.05978306 0.4665078 0
vt 0.05586339 0.4660817 0
vt 0.07435406 0.7837969 0
vt 0.07827285 0.7842332 0
vt 0.1004413 0.8135897 0
vt 0.1008832 0.809671 0
vt 0.104117 0.7577237 0
vt 0.103693 0.7616472 0
vt 0.1302308 0.7874723 0
vt 0.1263111 0.7870462 0
vt 0.7905735 0.1162105 0
vt 0.7944923 0.1166468 0
vt 0.8166607 0.1460033 0
vt 0.8171026 0.1420846 0
vt 0.8203365 0.09013717 0
vt 0.8199125 0.09406076 0
vt 0.8464503 0.1198858 0
vt 0.8425306 0.1194597 0
vt 0.6418503 0.2774832 0
vt 0.6457691 0.2779195 0
vt 0.6679376 0.307276 0
vt 0.6683795 0.3033572 0
vt 0.6716133 0.2514098 0
vt 0.6711894 0.2553334 0
vt 0.6977271 0.2811584 0
vt 0.6938075 0.2807323 0
vt 0.1448019 0.7826405 0
vt 0.1487207 0.7830768 0
vt 0.1708891 0.8124333 0
vt 0.171331 0.8085145 0
vt 0.1745648 0.7565672 0
vt 0.1741408 0.7604908 0
vt 0.2006786 0.7863158 0
vt 0.1967589 0.7858897 0
vt 0.6731605 0.3205986 0
vt 0.6770792 0.3210349 0
vt 0.6992477 0.3503914 0
vt 0.6996896 0.3464726 0
vt 0.7029235 0.2945252 0
vt 0.7024995 0.2984488 0
vt 0.7290373 0.3242739 0
vt 0.7251176 0.3238477 0
vt 0.900159 0.1490347 0
vt 0.9040777 0.149471 0
vt 0.9262462 0.1788275 0
vt 0.9266881 0.1749087 0
vt 0.929922 0.1229613 0
vt 0.929498 0.1268849 0
vt 0.9560358 0.1527099 0
vt 0.9521161 0.1522838 0
vt 0.2896113 0.776896 0
vt 0.29353 0.7773323 0
vt 0.3156985 0.8066888 0
vt 0.3161404 0.80277 0
vt 0.3193742 0.7508227 0
vt 0.3189502 0.7547463 0
vt 0.345488 0.7805714 0
vt 0.3415683 0.7801452 0
vt 0.9353829 0.1887215 0
vt 0.9393017 0.1891578 0
vt 0.9614701 0.2185143 0
vt 0.961912 0.2145956 0
vt 0.9651459 0.1626482 0
vt 0.9647219 0.1665717 0
vt 0.9912597 0.1923968 0
vt 0.98734 0.1919707 0
vt 0.07435406 0.5422062 0
vt 0.07827284 0.5426425 0
vt 0.1004413 0.571999 0
vt 0.1008832 0.5680803 0
vt 0.1041171 0.5161329 0
vt 0.1036931 0.5200565 0
vt 0.1302308 0.5458815 0
vt 0.1263112 0.5454554 0
vt 0.00390625 0.2147017 0
vt 0.007825033 0.215138 0
vt 0.0299935 0.2444945 0
vt 0.03043539 0.2405757 0
vt 0.03366927 0.1886283 0
vt 0.0332453 0.1925519 0
vt 0.05978306 0.2183769 0
vt 0.05586339 0.2179508 0
vt 0.8297112 0.3180677 0
vt 0.8336299 0.3185041 0
vt 0.8557984 0.3478606 0
vt 0.8562403 0.3439418 0
vt 0.8594742 0.2919944 0
vt 0.8590502 0.295918 0
vt 0.885588 0.321743 0
vt 0.8816683 0.3213169 0
vt 0.395283 0.7765803 0
vt 0.3992018 0.7770166 0
vt 0.4213702 0.8063731 0
vt 0.4218121 0.8024544 0
vt 0.4250459 0.7505071 0
vt 0.4246219 0.7544306 0
vt 0.4511597 0.7802557 0
vt 0.44724 0.7798296 0
vt 0.8218836 0.1593259 0
vt 0.8258024 0.1597622 0
vt 0.8479709 0.1891188 0
vt 0.8484128 0.1852 0
vt 0.8516466 0.1332526 0
vt 0.8512227 0.1371762 0
vt 0.8777604 0.1630012 0
vt 0.8738408 0.1625751 0
vt 0.1056642 0.1659711 0
vt 0.109583 0.1664074 0
vt 0.1317515 0.1957639 0
vt 0.1321934 0.1918452 0
vt 0.1354272 0.1398977 0
vt 0.1350032 0.1438213 0
vt 0.161541 0.1696464 0
vt 0.1576214 0.1692202 0
vt 0.5909713 0.4967428 0
vt 0.5948901 0.4971791 0
vt 0.6170586 0.5265357 0
vt 0.6175005 0.5226169 0
vt 0.6207343 0.4706696 0
vt 0.6203103 0.4745932 0
vt 0.6468481 0.5004182 0
vt 0.6429284 0.4999921 0
vt 0.9275553 0.02997959 0
vt 0.9314741 0.0304159 0
vt 0.9536426 0.05977245 0
vt 0.9540845 0.05585368 0
vt 0.9573184 0.00390625 0
vt 0.9568944 0.007829837 0
vt 0.9834322 0.0336549 0
vt 0.9795125 0.03322878 0
vt 0.5948851 0.02997959 0
vt 0.5988039 0.0304159 0
vt 0.6209724 0.05977245 0
vt 0.6214143 0.05585368 0
vt 0.6246481 0.00390625 0
vt 0.6242242 0.007829837 0
vt 0.6507619 0.0336549 0
vt 0.6468423 0.03322878 0
vt 0.2152497 0.7009536 0
vt 0.2191685 0.7013899 0
vt 0.241337 0.7307465 0
vt 0.2417788 0.7268277 0
vt 0.2450126 0.6748804 0
vt 0.2445886 0.678804 0
vt 0.2711264 0.704629 0
vt 0.2672067 0.7042029 0
vt 0.8257974 0.07309505 0
vt 0.8297162 0.07353137 0
vt 0.8518847 0.1028879 0
vt 0.8523265 0.09896914 0
vt 0.8555604 0.04702171 0
vt 0.8551364 0.0509453 0
vt 0.8816742 0.07677036 0
vt 0.8777546 0.07634424 0
vt 0.900159 0.3974414 0
vt 0.9040777 0.3978777 0
vt 0.9262462 0.4272343 0
vt 0.9266881 0.4233155 0
vt 0.929922 0.3713681 0
vt 0.929498 0.3752917 0
vt 0.9560358 0.4011167 0
vt 0.9521161 0.4006906 0
vt 0.1017504 0.07309505 0
vt 0.1056692 0.07353137 0
vt 0.1278377 0.1028879 0
vt 0.1282796 0.09896914 0
vt 0.1315135 0.04702171 0
vt 0.1310895 0.0509453 0
vt 0.1576273 0.07677036 0
vt 0.1537076 0.07634424 0
vt 0.7592633 0.07309505 0
vt 0.7631821 0.07353137 0
vt 0.7853506 0.1028879 0
vt 0.7857925 0.09896914 0
vt 0.7890264 0.04702171 0
vt 0.7886024 0.0509453 0
vt 0.8151402 0.07677036 0
vt 0.8112205 0.07634424 0
vt 0.00390625 0.7044231 0
vt 0.007825033 0.7048595 0
vt 0.02999352 0.734216 0
vt 0.03043541 0.7302972 0
vt 0.03366916 0.6783499 0
vt 0.03324518 0.6822735 0
vt 0.05978297 0.7080986 0
vt 0.05586331 0.7076724 0
vt 0.5283511 0.02997959 0
vt 0.5322699 0.0304159 0
vt 0.5544383 0.05977245 0
vt 0.5548802 0.05585368 0
vt 0.5581141 0.00390625 0
vt 0.5576901 0.007829837 0
vt 0.5842279 0.0336549 0
vt 0.5803082 0.03322878 0
vt 0.8610213 0.02997959 0
vt 0.8649401 0.0304159 0
vt 0.8871086 0.05977245 0
vt 0.8875505 0.05585368 0
vt 0.8907843 0.00390625 0
vt 0.8903603 0.007829837 0
vt 0.9168981 0.0336549 0
vt 0.9129785 0.03322878 0
vt 0.07435406 0.7032668 0
vt 0.07827285 0.7037031 0
vt 0.1004413 0.7330596 0
vt 0.1008832 0.7291409 0
vt 0.104117 0.6771935 0
vt 0.103693 0.6811171 0
vt 0.1302308 0.7069422 0
vt 0.1263111 0.7065161 0
vt 0.6614192 0.02997959 0
vt 0.6653379 0.0304159 0
vt 0.6875064 0.05977245 0
vt 0.6879483 0.05585368 0
vt 0.6911822 0.00390625 0
vt 0.6907582 0.007829837 0
vt 0.717296 0.0336549 0
vt 0.7133763 0.03322878 0
vt 0.00390625 0.02997959 0
vt 0.007825033 0.0304159 0
vt 0.02999352 0.05977245 0
vt 0.03043541 0.05585368 0
vt 0.03366927 0.00390625 0
vt 0.0332453 0.007829837 0
vt 0.05978308 0.0336549 0
vt 0.05586342 0.03322878 0
vt 0.1448019 0.6215799 0
vt 0.1487207 0.6220162 0
vt 0.1708891 0.6513727 0
vt 0.171331 0.647454 0
vt 0.1745648 0.5955066 0
vt 0.1741408 0.5994302 0
vt 0.2006786 0.6252553 0
vt 0.1967589 0.6248292 0
vt 0.7279532 0.02997959 0
vt 0.731872 0.0304159 0
vt 0.7540405 0.05977245 0
vt 0.7544824 0.05585368 0
vt 0.7577162 0.00390625 0
vt 0.7572923 0.007829837 0
vt 0.78383 0.0336549 0
vt 0.7799104 0.03322878 0
vt 0.03913016 0.5025193 0
vt 0.04304894 0.5029556 0
vt 0.06521743 0.5323122 0
vt 0.06565932 0.5283934 0
vt 0.06889315 0.476446 0
vt 0.06846917 0.4803696 0
vt 0.09500696 0.5061947 0
vt 0.0910873 0.5057685 0
vt 0.1369743 0.02997959 0
vt 0.1408931 0.0304159 0
vt 0.1630616 0.05977245 0
vt 0.1635035 0.05585368 0
vt 0.1667374 0.00390625 0
vt 0.1663134 0.007829837 0
vt 0.1928512 0.0336549 0
vt 0.1889315 0.03322878 0
vt 0.6261953 0.07309505 0
vt 0.630114 0.07353137 0
vt 0.6522825 0.1028879 0
vt 0.6527244 0.09896914 0
vt 0.6559583 0.04702171 0
vt 0.6555343 0.0509453 0
vt 0.6820721 0.07677036 0
vt 0.6781524 0.07634424 0
vt 0.109578 0.6624233 0
vt 0.1134968 0.6628597 0
vt 0.1356652 0.6922162 0
vt 0.1361071 0.6882974 0
vt 0.1393409 0.6363501 0
vt 0.1389169 0.6402737 0
vt 0.1654547 0.6660987 0
vt 0.161535 0.6656726 0
vt 0.07044029 0.02997959 0
vt 0.07435908 0.0304159 0
vt 0.09652757 0.05977245 0
vt 0.09696946 0.05585368 0
vt 0.1002033 0.00390625 0
vt 0.09977934 0.007829837 0
vt 0.1263171 0.0336549 0
vt 0.1223975 0.03322878 0
vt 0.07044029 0.1257884 0
vt 0.07435908 0.1262247 0
vt 0.09652757 0.1555813 0
vt 0.09696946 0.1516625 0
vt 0.1002033 0.09971508 0
vt 0.09977934 0.1036387 0
vt 0.1263171 0.1294637 0
vt 0.1223975 0.1290376 0
vt 0.1800258 0.6612667 0
vt 0.1839446 0.6617031 0
vt 0.2061131 0.6910596 0
vt 0.2065549 0.6871408 0
vt 0.2097887 0.6351935 0
vt 0.2093647 0.6391171 0
vt 0.2359025 0.6649421 0
vt 0.2319828 0.664516 0
vt 0.00390625 0.1183971 0
vt 0.007825033 0.1188334 0
vt 0.02999352 0.1481899 0
vt 0.03043541 0.1442712 0
vt 0.03366927 0.09232373 0
vt 0.0332453 0.09624731 0
vt 0.05978308 0.1220724 0
vt 0.05586342 0.1216463 0
vt 0.03521639 0.07309505 0
vt 0.03913517 0.07353137 0
vt 0.06130366 0.1028879 0
vt 0.06174555 0.09896914 0
vt 0.06497941 0.04702171 0
vt 0.06455544 0.0509453 0
vt 0.09109322 0.07677036 0
vt 0.08717356 0.07634424 0
vt 0.03913016 0.6635799 0
vt 0.04304894 0.6640162 0
vt 0.06521743 0.6933728 0
vt 0.06565932 0.689454 0
vt 0.06889307 0.6375066 0
vt 0.06846909 0.6414302 0
vt 0.09500687 0.6672553 0
vt 0.09108721 0.6668292 0
vt 0.03130262 0.1649411 0
vt 0.0352214 0.1653774 0
vt 0.0573899 0.194734 0
vt 0.05783178 0.1908152 0
vt 0.06106564 0.1388678 0
vt 0.06064167 0.1427914 0
vt 0.08717945 0.1686164 0
vt 0.08325979 0.1681903 0
vt 0.00390625 0.5433628 0
vt 0.007825033 0.5437991 0
vt 0.02999352 0.5731556 0
vt 0.03043541 0.5692369 0
vt 0.03366924 0.5172894 0
vt 0.03324527 0.521213 0
vt 0.05978305 0.5470381 0
vt 0.05586339 0.546612 0
vt 0.461817 0.02997959 0
vt 0.4657358 0.0304159 0
vt 0.4879043 0.05977245 0
vt 0.4883462 0.05585368 0
vt 0.49158 0.00390625 0
vt 0.4911561 0.007829837 0
vt 0.5176939 0.0336549 0
vt 0.5137742 0.03322878 0
vt 0.7944872 0.02997959 0
vt 0.798406 0.0304159 0
vt 0.8205745 0.05977245 0
vt 0.8210164 0.05585368 0
vt 0.8242503 0.00390625 0
vt 0.8238263 0.007829837 0
vt 0.8503641 0.0336549 0
vt 0.8464444 0.03322878 0
vt 0.07435406 0.6227365 0
vt 0.07827285 0.6231728 0
vt 0.1004413 0.6525293 0
vt 0.1008832 0.6486106 0
vt 0.104117 0.5966632 0
vt 0.103693 0.6005868 0
vt 0.1302308 0.6264119 0
vt 0.1263111 0.6259858 0
vt 0.2035084 0.02997959 0
vt 0.2074272 0.0304159 0
vt 0.2295957 0.05977245 0
vt 0.2300375 0.05585368 0
vt 0.2332714 0.00390625 0
vt 0.2328474 0.007829837 0
vt 0.2593852 0.0336549 0
vt 0.2554656 0.03322878 0
vt 0.8297112 0.2352655 0
vt 0.8336299 0.2357018 0
vt 0.8557984 0.2650583 0
vt 0.8562403 0.2611396 0
vt 0.8594742 0.2091922 0
vt 0.8590502 0.2131157 0
vt 0.885588 0.2389408 0
vt 0.8816683 0.2385146 0
vt 0.2191635 0.8585828 0
vt 0.2230822 0.8590191 0
vt 0.2452507 0.8883756 0
vt 0.2456926 0.8844568 0
vt 0.2489263 0.8325096 0
vt 0.2485024 0.8364331 0
vt 0.2750401 0.8622582 0
vt 0.2711205 0.8618321 0
vt 0.9353829 0.1059192 0
vt 0.9393017 0.1063555 0
vt 0.9614701 0.135712 0
vt 0.961912 0.1317933 0
vt 0.9651459 0.07984586 0
vt 0.9647219 0.08376945 0
vt 0.9912597 0.1095945 0
vt 0.98734 0.1091684 0
vt 0.5322648 0.4070834 0
vt 0.5361836 0.4075197 0
vt 0.5583521 0.4368762 0
vt 0.558794 0.4329575 0
vt 0.5620279 0.3810101 0
vt 0.5616039 0.3849337 0
vt 0.5881416 0.4107587 0
vt 0.584222 0.4103326 0
vt 0.109578 0.8234837 0
vt 0.1134968 0.82392 0
vt 0.1356652 0.8532766 0
vt 0.1361071 0.8493578 0
vt 0.1393409 0.7974105 0
vt 0.1389169 0.8013341 0
vt 0.1654547 0.8271591 0
vt 0.161535 0.826733 0
vt 0.7592633 0.3214963 0
vt 0.7631821 0.3219326 0
vt 0.7853506 0.3512892 0
vt 0.7857925 0.3473704 0
vt 0.7890264 0.295423 0
vt 0.7886024 0.2993466 0
vt 0.8151401 0.3251716 0
vt 0.8112205 0.3247455 0
vt 0.6496779 0.3748177 0
vt 0.6535966 0.375254 0
vt 0.6757651 0.4046105 0
vt 0.676207 0.4006917 0
vt 0.6794409 0.3487443 0
vt 0.6790169 0.3526679 0
vt 0.7055547 0.3784929 0
vt 0.701635 0.3780668 0
vt 0.07435406 0.864327 0
vt 0.07827285 0.8647633 0
vt 0.1004413 0.8941198 0
vt 0.1008832 0.890201 0
vt 0.1041169 0.8382538 0
vt 0.103693 0.8421773 0
vt 0.1302307 0.8680024 0
vt 0.1263111 0.8675763 0
vt 0.06652653 0.204628 0
vt 0.07044531 0.2050643 0
vt 0.09261378 0.2344208 0
vt 0.09305567 0.2305021 0
vt 0.09628955 0.1785546 0
vt 0.09586557 0.1824782 0
vt 0.1224033 0.2083033 0
vt 0.1184837 0.2078771 0
vt 0.900159 0.3146392 0
vt 0.9040777 0.3150755 0
vt 0.9262462 0.344432 0
vt 0.9266881 0.3405132 0
vt 0.929922 0.2885658 0
vt 0.929498 0.2924894 0
vt 0.9560358 0.3183144 0
vt 0.9521161 0.3178883 0
vt 0.344404 0.7995671 0
vt 0.3483228 0.8000034 0
vt 0.3704913 0.8293599 0
vt 0.3709331 0.8254411 0
vt 0.3741669 0.7734938 0
vt 0.3737429 0.7774174 0
vt 0.4002807 0.8032425 0
vt 0.396361 0.8028163 0
vt 0.5714025 0.3706985 0
vt 0.5753213 0.3711348 0
vt 0.5974898 0.4004913 0
vt 0.5979317 0.3965725 0
vt 0.6011655 0.3446251 0
vt 0.6007416 0.3485487 0
vt 0.6272793 0.3743737 0
vt 0.6233597 0.3739476 0
vt 0.5596612 0.07309505 0
vt 0.56358 0.07353137 0
vt 0.5857485 0.1028879 0
vt 0.5861904 0.09896914 0
vt 0.5894242 0.04702171 0
vt 0.5890003 0.0509453 0
vt 0.615538 0.07677036 0
vt 0.6116184 0.07634424 0
vt 0.00390625 0.8654834 0
vt 0.007825034 0.8659197 0
vt 0.02999352 0.8952762 0
vt 0.03043541 0.8913574 0
vt 0.03366913 0.8394101 0
vt 0.03324515 0.8433337 0
vt 0.05978294 0.8691588 0
vt 0.05586328 0.8687327 0
vt 0.1682845 0.07309505 0
vt 0.1722033 0.07353137 0
vt 0.1943718 0.1028879 0
vt 0.1948136 0.09896914 0
vt 0.1980475 0.04702171 0
vt 0.1976235 0.0509453 0
vt 0.2241613 0.07677036 0
vt 0.2202416 0.07634424 0
vt 0.6927293 0.07309505 0
vt 0.6966481 0.07353137 0
vt 0.7188166 0.1028879 0
vt 0.7192585 0.09896914 0
vt 0.7224923 0.04702171 0
vt 0.7220683 0.0509453 0
vt 0.7486061 0.07677036 0
vt 0.7446865 0.07634424 0
vt 0.5753163 0.6143637 0
vt 0.5792351 0.6148 0
vt 0.6014036 0.6441566 0
vt 0.6018454 0.6402378 0
vt 0.6050792 0.5882905 0
vt 0.6046552 0.592214 0
vt 0.631193 0.6180391 0
vt 0.6272733 0.617613 0
vt 0.1330606 0.1162105 0
vt 0.1369794 0.1166468 0
vt 0.1591478 0.1460034 0
vt 0.1595897 0.1420846 0
vt 0.1628236 0.09013717 0
vt 0.1623996 0.09406076 0
vt 0.1889374 0.1198858 0
vt 0.1850177 0.1194597 0
vt 0.5674887 0.4467702 0
vt 0.5714075 0.4472066 0
vt 0.593576 0.4765631 0
vt 0.5940179 0.4726443 0
vt 0.5972518 0.4206969 0
vt 0.5968278 0.4246205 0
vt 0.6233656 0.4504455 0
vt 0.6194459 0.4500194 0
vt 0.3091801 0.8404103 0
vt 0.3130989 0.8408466 0
vt 0.3352674 0.8702031 0
vt 0.3357092 0.8662843 0
vt 0.338943 0.8143371 0
vt 0.338519 0.8182607 0
vt 0.3650568 0.8440857 0
vt 0.3611371 0.8436596 0
vt 0.6535916 0.2024413 0
vt 0.6575104 0.2028777 0
vt 0.6796789 0.2322342 0
vt 0.6801208 0.2283154 0
vt 0.6833546 0.176368 0
vt 0.6829307 0.1802916 0
vt 0.7094684 0.2061166 0
vt 0.7055488 0.2056905 0
vt 0.9353829 0.354326 0
vt 0.9393017 0.3547623 0
vt 0.9614701 0.3841188 0
vt 0.961912 0.3802 0
vt 0.9651459 0.3282526 0
vt 0.9647219 0.3321762 0
vt 0.9912597 0.3580013 0
vt 0.98734 0.3575751 0
vt 0.1800258 0.8223273 0
vt 0.1839446 0.8227636 0
vt 0.206113 0.8521201 0
vt 0.2065549 0.8482014 0
vt 0.2097887 0.796254 0
vt 0.2093647 0.8001776 0
vt 0.2359025 0.8260027 0
vt 0.2319828 0.8255765 0
vt 0.7514358 0.3931096 0
vt 0.7553546 0.3935459 0
vt 0.7775231 0.4229024 0
vt 0.7779649 0.4189836 0
vt 0.7811988 0.3670362 0
vt 0.7807749 0.3709598 0
vt 0.8073126 0.3967848 0
vt 0.803393 0.3963587 0
vt 0.6066264 0.4103853 0
vt 0.6105452 0.4108216 0
vt 0.6327137 0.4401781 0
vt 0.6331556 0.4362594 0
vt 0.6363894 0.3843119 0
vt 0.6359655 0.3882355 0
vt 0.6625032 0.4140606 0
vt 0.6585836 0.4136344 0
vt 0.3796279 0.8392539 0
vt 0.3835467 0.8396902 0
vt 0.4057152 0.8690467 0
vt 0.4061571 0.865128 0
vt 0.4093908 0.8131807 0
vt 0.4089668 0.8171043 0
vt 0.4355046 0.8429293 0
vt 0.4315849 0.8425032 0
vt 0.7201257 0.2024413 0
vt 0.7240445 0.2028777 0
vt 0.7462129 0.2322342 0
vt 0.7466548 0.2283154 0
vt 0.7498887 0.176368 0
vt 0.7494647 0.1802916 0
vt 0.7760025 0.2061166 0
vt 0.7720828 0.2056905 0
vt 0.8649351 0.3577546 0
vt 0.8688538 0.3581909 0
vt 0.8910223 0.3875474 0
vt 0.8914642 0.3836286 0
vt 0.8946981 0.3316812 0
vt 0.8942741 0.3356048 0
vt 0.9208119 0.3614298 0
vt 0.9168922 0.3610037 0
vt 0.109578 0.7429536 0
vt 0.1134968 0.74339 0
vt 0.1356652 0.7727465 0
vt 0.1361071 0.7688277 0
vt 0.1393409 0.7168804 0
vt 0.1389169 0.720804 0
vt 0.1654547 0.746629 0
vt 0.161535 0.7462029 0
vt 0.8649351 0.2749523 0
vt 0.8688538 0.2753886 0
vt 0.8910223 0.3047452 0
vt 0.8914642 0.3008264 0
vt 0.8946981 0.248879 0
vt 0.8942741 0.2528026 0
vt 0.9208119 0.2786276 0
vt 0.9168922 0.2782015 0
vt 0.9352157 0.4584032 0
vt 0.6388667 0.6684489 0
vt 0.4539895 0.7215179 0
vt 0.507794 0.1064639 0
vt 0.5026979 0.9960937 0
vt 0.2152673 0.6174072 0
vt 0.6364154 0.2940256 0
vt 0.2140866 0.1488894 0
vt 0.8388352 0.9653385 0
vt 0.9422359 0.9496543 0
vt 0.6200733 0.2684792 0
vt 0.6267713 0.2778182 0
vt 0.6234554 0.2727433 0
vt 0.6205678 0.2350262 0
vt 0.6143196 0.2245065 0
vt 0.5727125 0.5092361 0
vt 0.588721 0.568431 0
vt 0.5817389 0.5255986 0
vt 0.5820322 0.5317408 0
vt 0.5793587 0.5364962 0
vt 0.3788274 0.7577478 0
vt 0.342977 0.7472801 0
vt 0.3883585 0.7648275 0
vt 0.3368824 0.7463396 0
vt 0.3479876 0.7451164 0
vt 0.465582 0.4317841 0
vt 0.4718326 0.4423258 0
vt 0.4621834 0.4261096 0
vt 0.4588702 0.4210397 0
vt 0.4554884 0.4167765 0
vt 0.4154382 0.02373078 0
vt 0.3851165 0.01143839 0
vt 0.3749831 0.00390625 0
vt 0.4262852 0.02224506 0
vt 0.420382 0.02149553 0
vt 0.02029042 0.363898 0
vt 0.02604093 0.4078809 0
vt 0.01031813 0.3491185 0
vt 0.01668695 0.3852816 0
vt 0.01683256 0.3912464 0
#end 968 textures vertices 

#begin 137 normals 
vn -0 1 -0
vn -0.1104 0.9939 -0
vn -0.0483 0.9988 -0
vn -0 -0 -1
vn -0.0001 0.0384 -0.9993
vn -0.0002 0.0322 -0.9995
vn 0.1167 0.9932 -0
vn -1 -0 -0
vn -0.9873 0.159 -0
vn -0 -1 -0
vn -0 0.6676 -0.7445
vn -0 0.7012 0.713
vn -0.1105 0.9939 -0
vn 0.1168 0.9932 -0
vn 0.8285 0.5601 -0
vn -0.7125 0.7017 -0
vn -0.1133 0.9936 -0
vn 1 -0 -0
vn 0.9881 0.1541 -0
vn 0.9886 0.1509 -0
vn 0.1103 0.9939 -0
vn -0 -0 1
vn -0 0.0345 0.9994
vn -0 0.0308 0.9995
vn 0.0001 0.0331 -0.9995
vn -0 0.039 -0.9992
vn -0.0001 0.0305 0.9995
vn 0.9885 0.1512 -0
vn -0 0.0365 0.9993
vn -0 0.0296 0.9996
vn -0.9868 0.1617 -0
vn -0.9879 0.1553 -0
vn -0.9595 0.2816 -0
vn -0 0.148 0.989
vn -0.4491 0.8935 -0
vn -0.4492 0.8935 -0
vn -0.6207 0.784 -0
vn -0.9472 0.3206 -0
vn 0.0007 0.7351 -0.6779
vn -0.0015 0.729 -0.6845
vn -0.0012 0.521 -0.8535
vn 0.0004 0.2796 -0.9601
vn -0.0005 0.177 -0.9842
vn 0.0003 0.1797 -0.9837
vn -0.0002 0.6827 0.7307
vn -0.0001 0.2918 0.9565
vn -0.0002 0.6084 0.7936
vn -0 0.1139 0.9935
vn -0.0001 0.1837 0.983
vn 0.0016 0.7205 -0.6935
vn 0.0009 0.269 -0.9632
vn 0.0004 0.1267 -0.9919
vn -0.0004 0.6923 0.7216
vn 0.0008 0.6954 0.7186
vn 0.0005 0.3017 0.9534
vn -0.0003 0.4869 0.8735
vn 0.0002 0.1189 0.9929
vn -0.0001 0.1599 0.9871
vn -0.9497 0.3131 -0
vn -0.6307 0.776 -0
vn -0.4575 0.8892 -0
vn -0.4099 0.9121 -0
vn 0.4433 0.8964 -0
vn 0.4671 0.8842 -0.0001
vn 0.6424 0.7664 -0
vn 0.6419 0.7667 -0.0001
vn 0.9524 0.3048 -0
vn 0.9525 0.3045 -0
vn 0.9526 0.3042 -0
vn 0.6428 0.766 -0
vn 0.4678 0.8839 -0
vn -0.0007 0.1244 -0.9922
vn -0.0018 0.3123 -0.95
vn -0.0029 0.7079 -0.7063
vn -0.0016 0.6893 0.7245
vn -0.001 0.2987 0.9544
vn -0.0004 0.118 0.993
vn -1 -0 -0
vn -0 -0 -1
vn 1 -0 -0
vn -0 -0 1
vn -0 1 -0
vn -1 -0 -0
vn -0 -0 -1
vn 1 -0 -0
vn -0 -0 1
vn -0 1 -0
vn -1 -0 -0
vn -0 -0 -1
vn 1 -0 -0
vn -0 -0 1
vn -0 1 -0
vn -1 -0 -0
vn -0 -0 -1
vn 1 -0 -0
vn -0 -0 1
vn -0 1 -0
vn -1 -0 -0
vn -0 -0 -1
vn 1 -0 -0
vn -0 -0 1
vn -0 1 -0
vn -1 -0 -0
vn -0 -0 -1
vn 1 -0 -0
vn -0 -0 1
vn -0 1 -0
vn -1 -0 -0
vn -0 -0 -1
vn 1 -0 -0
vn -0 -0 1
vn -0 1 -0
vn -1 -0 -0
vn -0 -0 -1
vn 1 -0 -0
vn -0 -0 1
vn -0 1 -0
vn -1 -0 -0
vn -0 -0 -1
vn 1 -0 -0
vn -0 -0 1
vn -0 1 -0
vn -1 -0 -0
vn -0 -0 -1
vn 1 -0 -0
vn -0 -0 1
vn -0 1 -0
vn -1 -0 -0
vn -0 -0 -1
vn 1 -0 -0
vn -0 -0 1
vn -0 1 -0
vn -1 -0 -0
vn -0 -0 -1
vn 1 -0 -0
vn -0 -0 1
vn -0 1 -0
#end 137 normals 

#begin 605 faces
o Cube:090
s 1
f 11/11/1 2/944/1 38/38/2 54/54/3 
f 6/6/4 50/50/5 65/65/6 17/17/4 
f 7/7/1 16/965/1 66/66/7 49/49/1 
f 1/1/8 37/37/9 42/42/9 3/3/8 
f 8/8/10 6/6/10 5/5/10 10/10/10 
f 7/937/11 9/9/11 26/26/11 22/22/11 
f 15/15/12 12/12/12 27/27/12 30/30/12 
f 3/3/10 8/8/10 10/10/10 1/1/10 
f 10/10/10 5/5/10 13/13/10 14/14/10 
f 4/4/1 9/934/1 46/46/1 41/41/13 
f 19/19/1 12/932/1 58/58/1 69/69/14 
f 19/929/15 21/21/15 24/24/15 32/32/15 
f 4/933/16 2/931/16 28/28/16 29/29/16 
f 15/935/1 11/955/1 54/954/3 61/61/17 
f 18/18/18 34/34/19 70/70/20 20/20/18 
f 21/936/1 19/961/1 69/960/14 33/33/21 
f 13/13/10 5/5/10 18/18/10 20/20/10 
f 13/13/22 57/57/23 62/62/24 14/14/22 
f 5/5/10 6/6/10 17/17/10 18/18/10 
f 9/9/11 4/933/11 29/29/11 26/26/11 
f 3/3/4 42/953/25 45/45/26 8/8/4 
f 8/8/4 45/45/26 50/50/5 6/6/4 
f 2/2/1 4/951/1 41/949/13 38/945/2 
f 9/934/1 7/7/1 49/49/1 46/46/1 
f 57/57/23 13/13/22 20/20/22 70/959/27 
f 17/17/18 65/964/28 34/34/19 18/18/18 
f 10/10/22 53/53/29 37/948/30 1/1/22 
f 53/958/31 10/10/8 14/14/8 62/939/32 
f 12/932/1 15/943/1 61/942/17 58/58/1 
f 26/26/1 29/29/1 28/28/1 25/25/1 
f 22/22/1 26/26/1 25/25/1 23/23/1 
f 23/23/1 25/25/1 30/30/1 27/27/1 
f 22/22/1 23/23/1 24/24/1 31/31/1 
f 23/23/1 27/27/1 32/32/1 24/24/1 
f 16/938/11 7/937/11 22/22/11 31/31/11 
f 11/930/33 15/15/33 30/30/33 25/25/33 
f 2/931/34 11/930/34 25/25/34 28/28/34 
f 12/12/12 19/929/12 32/32/12 27/27/12 
f 21/21/15 16/938/15 31/31/15 24/24/15 
f 38/945/2 41/949/13 43/43/35 40/40/36 
f 40/40/36 43/43/35 44/44/37 39/39/37 
f 39/39/38 44/44/38 42/42/9 37/37/9 
f 46/46/39 49/49/40 51/51/41 48/48/39 
f 48/48/42 51/51/41 52/52/43 47/47/44 
f 47/47/44 52/52/43 50/50/5 45/45/26 
f 54/54/45 38/38/45 40/946/46 56/56/47 
f 56/56/47 40/946/46 39/947/48 55/55/49 
f 55/55/49 39/947/48 37/948/30 53/53/29 
f 41/41/50 46/46/39 48/48/39 43/952/50 
f 43/952/51 48/48/42 47/47/44 44/950/52 
f 44/950/52 47/47/44 45/45/26 42/953/25 
f 58/58/53 61/942/54 63/63/55 60/60/56 
f 60/60/56 63/63/55 64/64/57 59/59/58 
f 59/59/58 64/64/57 62/62/24 57/57/23 
f 53/958/31 62/939/32 64/941/59 55/957/59 
f 55/957/60 64/941/60 63/940/61 56/956/62 
f 56/956/62 63/940/61 61/61/17 54/954/3 
f 66/966/7 33/33/21 35/35/63 68/68/64 
f 68/68/64 35/35/63 36/36/65 67/67/66 
f 67/67/67 36/36/68 34/34/19 65/964/28 
f 70/70/20 34/34/19 36/36/68 72/72/69 
f 72/72/70 36/36/65 35/35/63 71/71/71 
f 71/71/71 35/35/63 33/33/21 69/960/14 
f 65/65/6 50/50/5 52/52/43 67/967/72 
f 67/967/72 52/52/43 51/51/41 68/968/73 
f 68/968/73 51/51/41 49/49/40 66/66/74 
f 69/69/75 58/58/53 60/60/56 71/962/76 
f 71/962/76 60/60/56 59/59/58 72/963/77 
f 72/963/77 59/59/58 57/57/23 70/959/27 
f 16/16/1 21/936/1 33/33/21 66/966/7 
o Cube:091
s 0
f 73/73/78 74/74/78 76/76/78 75/75/78 
f 75/75/79 76/76/79 80/80/79 79/79/79 
f 79/79/80 80/80/80 78/78/80 77/77/80 
f 77/77/81 78/78/81 74/74/81 73/73/81 
f 80/80/82 76/76/82 74/74/82 78/78/82 
f 81/81/78 82/82/78 84/84/78 83/83/78 
f 83/83/79 84/84/79 88/88/79 87/87/79 
f 87/87/80 88/88/80 86/86/80 85/85/80 
f 85/85/81 86/86/81 82/82/81 81/81/81 
f 88/88/82 84/84/82 82/82/82 86/86/82 
f 89/89/78 90/90/78 92/92/78 91/91/78 
f 91/91/79 92/92/79 96/96/79 95/95/79 
f 95/95/80 96/96/80 94/94/80 93/93/80 
f 93/93/81 94/94/81 90/90/81 89/89/81 
f 96/96/82 92/92/82 90/90/82 94/94/82 
f 97/97/78 98/98/78 100/100/78 99/99/78 
f 99/99/79 100/100/79 104/104/79 103/103/79 
f 103/103/80 104/104/80 102/102/80 101/101/80 
f 101/101/81 102/102/81 98/98/81 97/97/81 
f 104/104/82 100/100/82 98/98/82 102/102/82 
f 105/105/78 106/106/78 108/108/78 107/107/78 
f 107/107/79 108/108/79 112/112/79 111/111/79 
f 111/111/80 112/112/80 110/110/80 109/109/80 
f 109/109/81 110/110/81 106/106/81 105/105/81 
f 112/112/82 108/108/82 106/106/82 110/110/82 
f 113/113/78 114/114/78 116/116/78 115/115/78 
f 115/115/79 116/116/79 120/120/79 119/119/79 
f 119/119/80 120/120/80 118/118/80 117/117/80 
f 117/117/81 118/118/81 114/114/81 113/113/81 
f 120/120/82 116/116/82 114/114/82 118/118/82 
f 121/121/78 122/122/78 124/124/78 123/123/78 
f 123/123/79 124/124/79 128/128/79 127/127/79 
f 127/127/80 128/128/80 126/126/80 125/125/80 
f 125/125/81 126/126/81 122/122/81 121/121/81 
f 128/128/82 124/124/82 122/122/82 126/126/82 
f 129/129/78 130/130/78 132/132/78 131/131/78 
f 131/131/79 132/132/79 136/136/79 135/135/79 
f 135/135/80 136/136/80 134/134/80 133/133/80 
f 133/133/81 134/134/81 130/130/81 129/129/81 
f 136/136/82 132/132/82 130/130/82 134/134/82 
f 137/137/78 138/138/78 140/140/78 139/139/78 
f 139/139/79 140/140/79 144/144/79 143/143/79 
f 143/143/80 144/144/80 142/142/80 141/141/80 
f 141/141/81 142/142/81 138/138/81 137/137/81 
f 144/144/82 140/140/82 138/138/82 142/142/82 
f 145/145/78 146/146/78 148/148/78 147/147/78 
f 147/147/79 148/148/79 152/152/79 151/151/79 
f 151/151/80 152/152/80 150/150/80 149/149/80 
f 149/149/81 150/150/81 146/146/81 145/145/81 
f 152/152/82 148/148/82 146/146/82 150/150/82 
f 153/153/78 154/154/78 156/156/78 155/155/78 
f 155/155/79 156/156/79 160/160/79 159/159/79 
f 159/159/80 160/160/80 158/158/80 157/157/80 
f 157/157/81 158/158/81 154/154/81 153/153/81 
f 160/160/82 156/156/82 154/154/82 158/158/82 
o Cube:092
s 0
f 161/161/83 162/162/83 164/164/83 163/163/83 
f 163/163/84 164/164/84 168/168/84 167/167/84 
f 167/167/85 168/168/85 166/166/85 165/165/85 
f 165/165/86 166/166/86 162/162/86 161/161/86 
f 168/168/87 164/164/87 162/162/87 166/166/87 
f 169/169/83 170/170/83 172/172/83 171/171/83 
f 171/171/84 172/172/84 176/176/84 175/175/84 
f 175/175/85 176/176/85 174/174/85 173/173/85 
f 173/173/86 174/174/86 170/170/86 169/169/86 
f 176/176/87 172/172/87 170/170/87 174/174/87 
f 177/177/83 178/178/83 180/180/83 179/179/83 
f 179/179/84 180/180/84 184/184/84 183/183/84 
f 183/183/85 184/184/85 182/182/85 181/181/85 
f 181/181/86 182/182/86 178/178/86 177/177/86 
f 184/184/87 180/180/87 178/178/87 182/182/87 
f 185/185/83 186/186/83 188/188/83 187/187/83 
f 187/187/84 188/188/84 192/192/84 191/191/84 
f 191/191/85 192/192/85 190/190/85 189/189/85 
f 189/189/86 190/190/86 186/186/86 185/185/86 
f 192/192/87 188/188/87 186/186/87 190/190/87 
f 193/193/83 194/194/83 196/196/83 195/195/83 
f 195/195/84 196/196/84 200/200/84 199/199/84 
f 199/199/85 200/200/85 198/198/85 197/197/85 
f 197/197/86 198/198/86 194/194/86 193/193/86 
f 200/200/87 196/196/87 194/194/87 198/198/87 
f 201/201/83 202/202/83 204/204/83 203/203/83 
f 203/203/84 204/204/84 208/208/84 207/207/84 
f 207/207/85 208/208/85 206/206/85 205/205/85 
f 205/205/86 206/206/86 202/202/86 201/201/86 
f 208/208/87 204/204/87 202/202/87 206/206/87 
f 209/209/83 210/210/83 212/212/83 211/211/83 
f 211/211/84 212/212/84 216/216/84 215/215/84 
f 215/215/85 216/216/85 214/214/85 213/213/85 
f 213/213/86 214/214/86 210/210/86 209/209/86 
f 216/216/87 212/212/87 210/210/87 214/214/87 
f 217/217/83 218/218/83 220/220/83 219/219/83 
f 219/219/84 220/220/84 224/224/84 223/223/84 
f 223/223/85 224/224/85 222/222/85 221/221/85 
f 221/221/86 222/222/86 218/218/86 217/217/86 
f 224/224/87 220/220/87 218/218/87 222/222/87 
f 225/225/83 226/226/83 228/228/83 227/227/83 
f 227/227/84 228/228/84 232/232/84 231/231/84 
f 231/231/85 232/232/85 230/230/85 229/229/85 
f 229/229/86 230/230/86 226/226/86 225/225/86 
f 232/232/87 228/228/87 226/226/87 230/230/87 
f 233/233/83 234/234/83 236/236/83 235/235/83 
f 235/235/84 236/236/84 240/240/84 239/239/84 
f 239/239/85 240/240/85 238/238/85 237/237/85 
f 237/237/86 238/238/86 234/234/86 233/233/86 
f 240/240/87 236/236/87 234/234/87 238/238/87 
f 241/241/83 242/242/83 244/244/83 243/243/83 
f 243/243/84 244/244/84 248/248/84 247/247/84 
f 247/247/85 248/248/85 246/246/85 245/245/85 
f 245/245/86 246/246/86 242/242/86 241/241/86 
f 248/248/87 244/244/87 242/242/87 246/246/87 
o Cube:093
s 0
f 249/249/88 250/250/88 252/252/88 251/251/88 
f 251/251/89 252/252/89 256/256/89 255/255/89 
f 255/255/90 256/256/90 254/254/90 253/253/90 
f 253/253/91 254/254/91 250/250/91 249/249/91 
f 256/256/92 252/252/92 250/250/92 254/254/92 
f 257/257/88 258/258/88 260/260/88 259/259/88 
f 259/259/89 260/260/89 264/264/89 263/263/89 
f 263/263/90 264/264/90 262/262/90 261/261/90 
f 261/261/91 262/262/91 258/258/91 257/257/91 
f 264/264/92 260/260/92 258/258/92 262/262/92 
f 265/265/88 266/266/88 268/268/88 267/267/88 
f 267/267/89 268/268/89 272/272/89 271/271/89 
f 271/271/90 272/272/90 270/270/90 269/269/90 
f 269/269/91 270/270/91 266/266/91 265/265/91 
f 272/272/92 268/268/92 266/266/92 270/270/92 
f 273/273/88 274/274/88 276/276/88 275/275/88 
f 275/275/89 276/276/89 280/280/89 279/279/89 
f 279/279/90 280/280/90 278/278/90 277/277/90 
f 277/277/91 278/278/91 274/274/91 273/273/91 
f 280/280/92 276/276/92 274/274/92 278/278/92 
f 281/281/88 282/282/88 284/284/88 283/283/88 
f 283/283/89 284/284/89 288/288/89 287/287/89 
f 287/287/90 288/288/90 286/286/90 285/285/90 
f 285/285/91 286/286/91 282/282/91 281/281/91 
f 288/288/92 284/284/92 282/282/92 286/286/92 
f 289/289/88 290/290/88 292/292/88 291/291/88 
f 291/291/89 292/292/89 296/296/89 295/295/89 
f 295/295/90 296/296/90 294/294/90 293/293/90 
f 293/293/91 294/294/91 290/290/91 289/289/91 
f 296/296/92 292/292/92 290/290/92 294/294/92 
f 297/297/88 298/298/88 300/300/88 299/299/88 
f 299/299/89 300/300/89 304/304/89 303/303/89 
f 303/303/90 304/304/90 302/302/90 301/301/90 
f 301/301/91 302/302/91 298/298/91 297/297/91 
f 304/304/92 300/300/92 298/298/92 302/302/92 
f 305/305/88 306/306/88 308/308/88 307/307/88 
f 307/307/89 308/308/89 312/312/89 311/311/89 
f 311/311/90 312/312/90 310/310/90 309/309/90 
f 309/309/91 310/310/91 306/306/91 305/305/91 
f 312/312/92 308/308/92 306/306/92 310/310/92 
f 313/313/88 314/314/88 316/316/88 315/315/88 
f 315/315/89 316/316/89 320/320/89 319/319/89 
f 319/319/90 320/320/90 318/318/90 317/317/90 
f 317/317/91 318/318/91 314/314/91 313/313/91 
f 320/320/92 316/316/92 314/314/92 318/318/92 
f 321/321/88 322/322/88 324/324/88 323/323/88 
f 323/323/89 324/324/89 328/328/89 327/327/89 
f 327/327/90 328/328/90 326/326/90 325/325/90 
f 325/325/91 326/326/91 322/322/91 321/321/91 
f 328/328/92 324/324/92 322/322/92 326/326/92 
f 329/329/88 330/330/88 332/332/88 331/331/88 
f 331/331/89 332/332/89 336/336/89 335/335/89 
f 335/335/90 336/336/90 334/334/90 333/333/90 
f 333/333/91 334/334/91 330/330/91 329/329/91 
f 336/336/92 332/332/92 330/330/92 334/334/92 
o Cube:094
s 0
f 337/337/93 338/338/93 340/340/93 339/339/93 
f 339/339/94 340/340/94 344/344/94 343/343/94 
f 343/343/95 344/344/95 342/342/95 341/341/95 
f 341/341/96 342/342/96 338/338/96 337/337/96 
f 344/344/97 340/340/97 338/338/97 342/342/97 
f 345/345/93 346/346/93 348/348/93 347/347/93 
f 347/347/94 348/348/94 352/352/94 351/351/94 
f 351/351/95 352/352/95 350/350/95 349/349/95 
f 349/349/96 350/350/96 346/346/96 345/345/96 
f 352/352/97 348/348/97 346/346/97 350/350/97 
f 353/353/93 354/354/93 356/356/93 355/355/93 
f 355/355/94 356/356/94 360/360/94 359/359/94 
f 359/359/95 360/360/95 358/358/95 357/357/95 
f 357/357/96 358/358/96 354/354/96 353/353/96 
f 360/360/97 356/356/97 354/354/97 358/358/97 
f 361/361/93 362/362/93 364/364/93 363/363/93 
f 363/363/94 364/364/94 368/368/94 367/367/94 
f 367/367/95 368/368/95 366/366/95 365/365/95 
f 365/365/96 366/366/96 362/362/96 361/361/96 
f 368/368/97 364/364/97 362/362/97 366/366/97 
f 369/369/93 370/370/93 372/372/93 371/371/93 
f 371/371/94 372/372/94 376/376/94 375/375/94 
f 375/375/95 376/376/95 374/374/95 373/373/95 
f 373/373/96 374/374/96 370/370/96 369/369/96 
f 376/376/97 372/372/97 370/370/97 374/374/97 
f 377/377/93 378/378/93 380/380/93 379/379/93 
f 379/379/94 380/380/94 384/384/94 383/383/94 
f 383/383/95 384/384/95 382/382/95 381/381/95 
f 381/381/96 382/382/96 378/378/96 377/377/96 
f 384/384/97 380/380/97 378/378/97 382/382/97 
f 385/385/93 386/386/93 388/388/93 387/387/93 
f 387/387/94 388/388/94 392/392/94 391/391/94 
f 391/391/95 392/392/95 390/390/95 389/389/95 
f 389/389/96 390/390/96 386/386/96 385/385/96 
f 392/392/97 388/388/97 386/386/97 390/390/97 
f 393/393/93 394/394/93 396/396/93 395/395/93 
f 395/395/94 396/396/94 400/400/94 399/399/94 
f 399/399/95 400/400/95 398/398/95 397/397/95 
f 397/397/96 398/398/96 394/394/96 393/393/96 
f 400/400/97 396/396/97 394/394/97 398/398/97 
f 401/401/93 402/402/93 404/404/93 403/403/93 
f 403/403/94 404/404/94 408/408/94 407/407/94 
f 407/407/95 408/408/95 406/406/95 405/405/95 
f 405/405/96 406/406/96 402/402/96 401/401/96 
f 408/408/97 404/404/97 402/402/97 406/406/97 
f 409/409/93 410/410/93 412/412/93 411/411/93 
f 411/411/94 412/412/94 416/416/94 415/415/94 
f 415/415/95 416/416/95 414/414/95 413/413/95 
f 413/413/96 414/414/96 410/410/96 409/409/96 
f 416/416/97 412/412/97 410/410/97 414/414/97 
f 417/417/93 418/418/93 420/420/93 419/419/93 
f 419/419/94 420/420/94 424/424/94 423/423/94 
f 423/423/95 424/424/95 422/422/95 421/421/95 
f 421/421/96 422/422/96 418/418/96 417/417/96 
f 424/424/97 420/420/97 418/418/97 422/422/97 
o Cube:095
s 0
f 425/425/98 426/426/98 428/428/98 427/427/98 
f 427/427/99 428/428/99 432/432/99 431/431/99 
f 431/431/100 432/432/100 430/430/100 429/429/100 
f 429/429/101 430/430/101 426/426/101 425/425/101 
f 432/432/102 428/428/102 426/426/102 430/430/102 
f 433/433/98 434/434/98 436/436/98 435/435/98 
f 435/435/99 436/436/99 440/440/99 439/439/99 
f 439/439/100 440/440/100 438/438/100 437/437/100 
f 437/437/101 438/438/101 434/434/101 433/433/101 
f 440/440/102 436/436/102 434/434/102 438/438/102 
f 441/441/98 442/442/98 444/444/98 443/443/98 
f 443/443/99 444/444/99 448/448/99 447/447/99 
f 447/447/100 448/448/100 446/446/100 445/445/100 
f 445/445/101 446/446/101 442/442/101 441/441/101 
f 448/448/102 444/444/102 442/442/102 446/446/102 
f 449/449/98 450/450/98 452/452/98 451/451/98 
f 451/451/99 452/452/99 456/456/99 455/455/99 
f 455/455/100 456/456/100 454/454/100 453/453/100 
f 453/453/101 454/454/101 450/450/101 449/449/101 
f 456/456/102 452/452/102 450/450/102 454/454/102 
f 457/457/98 458/458/98 460/460/98 459/459/98 
f 459/459/99 460/460/99 464/464/99 463/463/99 
f 463/463/100 464/464/100 462/462/100 461/461/100 
f 461/461/101 462/462/101 458/458/101 457/457/101 
f 464/464/102 460/460/102 458/458/102 462/462/102 
f 465/465/98 466/466/98 468/468/98 467/467/98 
f 467/467/99 468/468/99 472/472/99 471/471/99 
f 471/471/100 472/472/100 470/470/100 469/469/100 
f 469/469/101 470/470/101 466/466/101 465/465/101 
f 472/472/102 468/468/102 466/466/102 470/470/102 
f 473/473/98 474/474/98 476/476/98 475/475/98 
f 475/475/99 476/476/99 480/480/99 479/479/99 
f 479/479/100 480/480/100 478/478/100 477/477/100 
f 477/477/101 478/478/101 474/474/101 473/473/101 
f 480/480/102 476/476/102 474/474/102 478/478/102 
f 481/481/98 482/482/98 484/484/98 483/483/98 
f 483/483/99 484/484/99 488/488/99 487/487/99 
f 487/487/100 488/488/100 486/486/100 485/485/100 
f 485/485/101 486/486/101 482/482/101 481/481/101 
f 488/488/102 484/484/102 482/482/102 486/486/102 
f 489/489/98 490/490/98 492/492/98 491/491/98 
f 491/491/99 492/492/99 496/496/99 495/495/99 
f 495/495/100 496/496/100 494/494/100 493/493/100 
f 493/493/101 494/494/101 490/490/101 489/489/101 
f 496/496/102 492/492/102 490/490/102 494/494/102 
f 497/497/98 498/498/98 500/500/98 499/499/98 
f 499/499/99 500/500/99 504/504/99 503/503/99 
f 503/503/100 504/504/100 502/502/100 501/501/100 
f 501/501/101 502/502/101 498/498/101 497/497/101 
f 504/504/102 500/500/102 498/498/102 502/502/102 
f 505/505/98 506/506/98 508/508/98 507/507/98 
f 507/507/99 508/508/99 512/512/99 511/511/99 
f 511/511/100 512/512/100 510/510/100 509/509/100 
f 509/509/101 510/510/101 506/506/101 505/505/101 
f 512/512/102 508/508/102 506/506/102 510/510/102 
o Cube:096
s 0
f 513/513/103 514/514/103 516/516/103 515/515/103 
f 515/515/104 516/516/104 520/520/104 519/519/104 
f 519/519/105 520/520/105 518/518/105 517/517/105 
f 517/517/106 518/518/106 514/514/106 513/513/106 
f 520/520/107 516/516/107 514/514/107 518/518/107 
f 521/521/103 522/522/103 524/524/103 523/523/103 
f 523/523/104 524/524/104 528/528/104 527/527/104 
f 527/527/105 528/528/105 526/526/105 525/525/105 
f 525/525/106 526/526/106 522/522/106 521/521/106 
f 528/528/107 524/524/107 522/522/107 526/526/107 
f 529/529/103 530/530/103 532/532/103 531/531/103 
f 531/531/104 532/532/104 536/536/104 535/535/104 
f 535/535/105 536/536/105 534/534/105 533/533/105 
f 533/533/106 534/534/106 530/530/106 529/529/106 
f 536/536/107 532/532/107 530/530/107 534/534/107 
f 537/537/103 538/538/103 540/540/103 539/539/103 
f 539/539/104 540/540/104 544/544/104 543/543/104 
f 543/543/105 544/544/105 542/542/105 541/541/105 
f 541/541/106 542/542/106 538/538/106 537/537/106 
f 544/544/107 540/540/107 538/538/107 542/542/107 
f 545/545/103 546/546/103 548/548/103 547/547/103 
f 547/547/104 548/548/104 552/552/104 551/551/104 
f 551/551/105 552/552/105 550/550/105 549/549/105 
f 549/549/106 550/550/106 546/546/106 545/545/106 
f 552/552/107 548/548/107 546/546/107 550/550/107 
f 553/553/103 554/554/103 556/556/103 555/555/103 
f 555/555/104 556/556/104 560/560/104 559/559/104 
f 559/559/105 560/560/105 558/558/105 557/557/105 
f 557/557/106 558/558/106 554/554/106 553/553/106 
f 560/560/107 556/556/107 554/554/107 558/558/107 
f 561/561/103 562/562/103 564/564/103 563/563/103 
f 563/563/104 564/564/104 568/568/104 567/567/104 
f 567/567/105 568/568/105 566/566/105 565/565/105 
f 565/565/106 566/566/106 562/562/106 561/561/106 
f 568/568/107 564/564/107 562/562/107 566/566/107 
f 569/569/103 570/570/103 572/572/103 571/571/103 
f 571/571/104 572/572/104 576/576/104 575/575/104 
f 575/575/105 576/576/105 574/574/105 573/573/105 
f 573/573/106 574/574/106 570/570/106 569/569/106 
f 576/576/107 572/572/107 570/570/107 574/574/107 
f 577/577/103 578/578/103 580/580/103 579/579/103 
f 579/579/104 580/580/104 584/584/104 583/583/104 
f 583/583/105 584/584/105 582/582/105 581/581/105 
f 581/581/106 582/582/106 578/578/106 577/577/106 
f 584/584/107 580/580/107 578/578/107 582/582/107 
f 585/585/103 586/586/103 588/588/103 587/587/103 
f 587/587/104 588/588/104 592/592/104 591/591/104 
f 591/591/105 592/592/105 590/590/105 589/589/105 
f 589/589/106 590/590/106 586/586/106 585/585/106 
f 592/592/107 588/588/107 586/586/107 590/590/107 
f 593/593/103 594/594/103 596/596/103 595/595/103 
f 595/595/104 596/596/104 600/600/104 599/599/104 
f 599/599/105 600/600/105 598/598/105 597/597/105 
f 597/597/106 598/598/106 594/594/106 593/593/106 
f 600/600/107 596/596/107 594/594/107 598/598/107 
o Cube:097
s 0
f 601/601/108 602/602/108 604/604/108 603/603/108 
f 603/603/109 604/604/109 608/608/109 607/607/109 
f 607/607/110 608/608/110 606/606/110 605/605/110 
f 605/605/111 606/606/111 602/602/111 601/601/111 
f 608/608/112 604/604/112 602/602/112 606/606/112 
f 609/609/108 610/610/108 612/612/108 611/611/108 
f 611/611/109 612/612/109 616/616/109 615/615/109 
f 615/615/110 616/616/110 614/614/110 613/613/110 
f 613/613/111 614/614/111 610/610/111 609/609/111 
f 616/616/112 612/612/112 610/610/112 614/614/112 
f 617/617/108 618/618/108 620/620/108 619/619/108 
f 619/619/109 620/620/109 624/624/109 623/623/109 
f 623/623/110 624/624/110 622/622/110 621/621/110 
f 621/621/111 622/622/111 618/618/111 617/617/111 
f 624/624/112 620/620/112 618/618/112 622/622/112 
f 625/625/108 626/626/108 628/628/108 627/627/108 
f 627/627/109 628/628/109 632/632/109 631/631/109 
f 631/631/110 632/632/110 630/630/110 629/629/110 
f 629/629/111 630/630/111 626/626/111 625/625/111 
f 632/632/112 628/628/112 626/626/112 630/630/112 
f 633/633/108 634/634/108 636/636/108 635/635/108 
f 635/635/109 636/636/109 640/640/109 639/639/109 
f 639/639/110 640/640/110 638/638/110 637/637/110 
f 637/637/111 638/638/111 634/634/111 633/633/111 
f 640/640/112 636/636/112 634/634/112 638/638/112 
f 641/641/108 642/642/108 644/644/108 643/643/108 
f 643/643/109 644/644/109 648/648/109 647/647/109 
f 647/647/110 648/648/110 646/646/110 645/645/110 
f 645/645/111 646/646/111 642/642/111 641/641/111 
f 648/648/112 644/644/112 642/642/112 646/646/112 
f 649/649/108 650/650/108 652/652/108 651/651/108 
f 651/651/109 652/652/109 656/656/109 655/655/109 
f 655/655/110 656/656/110 654/654/110 653/653/110 
f 653/653/111 654/654/111 650/650/111 649/649/111 
f 656/656/112 652/652/112 650/650/112 654/654/112 
f 657/657/108 658/658/108 660/660/108 659/659/108 
f 659/659/109 660/660/109 664/664/109 663/663/109 
f 663/663/110 664/664/110 662/662/110 661/661/110 
f 661/661/111 662/662/111 658/658/111 657/657/111 
f 664/664/112 660/660/112 658/658/112 662/662/112 
f 665/665/108 666/666/108 668/668/108 667/667/108 
f 667/667/109 668/668/109 672/672/109 671/671/109 
f 671/671/110 672/672/110 670/670/110 669/669/110 
f 669/669/111 670/670/111 666/666/111 665/665/111 
f 672/672/112 668/668/112 666/666/112 670/670/112 
f 673/673/108 674/674/108 676/676/108 675/675/108 
f 675/675/109 676/676/109 680/680/109 679/679/109 
f 679/679/110 680/680/110 678/678/110 677/677/110 
f 677/677/111 678/678/111 674/674/111 673/673/111 
f 680/680/112 676/676/112 674/674/112 678/678/112 
f 681/681/108 682/682/108 684/684/108 683/683/108 
f 683/683/109 684/684/109 688/688/109 687/687/109 
f 687/687/110 688/688/110 686/686/110 685/685/110 
f 685/685/111 686/686/111 682/682/111 681/681/111 
f 688/688/112 684/684/112 682/682/112 686/686/112 
o Cube:098
s 0
f 689/689/113 690/690/113 692/692/113 691/691/113 
f 691/691/114 692/692/114 696/696/114 695/695/114 
f 695/695/115 696/696/115 694/694/115 693/693/115 
f 693/693/116 694/694/116 690/690/116 689/689/116 
f 696/696/117 692/692/117 690/690/117 694/694/117 
f 697/697/113 698/698/113 700/700/113 699/699/113 
f 699/699/114 700/700/114 704/704/114 703/703/114 
f 703/703/115 704/704/115 702/702/115 701/701/115 
f 701/701/116 702/702/116 698/698/116 697/697/116 
f 704/704/117 700/700/117 698/698/117 702/702/117 
f 705/705/113 706/706/113 708/708/113 707/707/113 
f 707/707/114 708/708/114 712/712/114 711/711/114 
f 711/711/115 712/712/115 710/710/115 709/709/115 
f 709/709/116 710/710/116 706/706/116 705/705/116 
f 712/712/117 708/708/117 706/706/117 710/710/117 
f 713/713/113 714/714/113 716/716/113 715/715/113 
f 715/715/114 716/716/114 720/720/114 719/719/114 
f 719/719/115 720/720/115 718/718/115 717/717/115 
f 717/717/116 718/718/116 714/714/116 713/713/116 
f 720/720/117 716/716/117 714/714/117 718/718/117 
f 721/721/113 722/722/113 724/724/113 723/723/113 
f 723/723/114 724/724/114 728/728/114 727/727/114 
f 727/727/115 728/728/115 726/726/115 725/725/115 
f 725/725/116 726/726/116 722/722/116 721/721/116 
f 728/728/117 724/724/117 722/722/117 726/726/117 
f 729/729/113 730/730/113 732/732/113 731/731/113 
f 731/731/114 732/732/114 736/736/114 735/735/114 
f 735/735/115 736/736/115 734/734/115 733/733/115 
f 733/733/116 734/734/116 730/730/116 729/729/116 
f 736/736/117 732/732/117 730/730/117 734/734/117 
o Cube:099
s 0
f 737/737/118 738/738/118 740/740/118 739/739/118 
f 739/739/119 740/740/119 744/744/119 743/743/119 
f 743/743/120 744/744/120 742/742/120 741/741/120 
f 741/741/121 742/742/121 738/738/121 737/737/121 
f 744/744/122 740/740/122 738/738/122 742/742/122 
f 745/745/118 746/746/118 748/748/118 747/747/118 
f 747/747/119 748/748/119 752/752/119 751/751/119 
f 751/751/120 752/752/120 750/750/120 749/749/120 
f 749/749/121 750/750/121 746/746/121 745/745/121 
f 752/752/122 748/748/122 746/746/122 750/750/122 
f 753/753/118 754/754/118 756/756/118 755/755/118 
f 755/755/119 756/756/119 760/760/119 759/759/119 
f 759/759/120 760/760/120 758/758/120 757/757/120 
f 757/757/121 758/758/121 754/754/121 753/753/121 
f 760/760/122 756/756/122 754/754/122 758/758/122 
f 761/761/118 762/762/118 764/764/118 763/763/118 
f 763/763/119 764/764/119 768/768/119 767/767/119 
f 767/767/120 768/768/120 766/766/120 765/765/120 
f 765/765/121 766/766/121 762/762/121 761/761/121 
f 768/768/122 764/764/122 762/762/122 766/766/122 
f 769/769/118 770/770/118 772/772/118 771/771/118 
f 771/771/119 772/772/119 776/776/119 775/775/119 
f 775/775/120 776/776/120 774/774/120 773/773/120 
f 773/773/121 774/774/121 770/770/121 769/769/121 
f 776/776/122 772/772/122 770/770/122 774/774/122 
f 777/777/118 778/778/118 780/780/118 779/779/118 
f 779/779/119 780/780/119 784/784/119 783/783/119 
f 783/783/120 784/784/120 782/782/120 781/781/120 
f 781/781/121 782/782/121 778/778/121 777/777/121 
f 784/784/122 780/780/122 778/778/122 782/782/122 
o Cube:100
s 0
f 785/785/123 786/786/123 788/788/123 787/787/123 
f 787/787/124 788/788/124 792/792/124 791/791/124 
f 791/791/125 792/792/125 790/790/125 789/789/125 
f 789/789/126 790/790/126 786/786/126 785/785/126 
f 792/792/127 788/788/127 786/786/127 790/790/127 
f 793/793/123 794/794/123 796/796/123 795/795/123 
f 795/795/124 796/796/124 800/800/124 799/799/124 
f 799/799/125 800/800/125 798/798/125 797/797/125 
f 797/797/126 798/798/126 794/794/126 793/793/126 
f 800/800/127 796/796/127 794/794/127 798/798/127 
f 801/801/123 802/802/123 804/804/123 803/803/123 
f 803/803/124 804/804/124 808/808/124 807/807/124 
f 807/807/125 808/808/125 806/806/125 805/805/125 
f 805/805/126 806/806/126 802/802/126 801/801/126 
f 808/808/127 804/804/127 802/802/127 806/806/127 
f 809/809/123 810/810/123 812/812/123 811/811/123 
f 811/811/124 812/812/124 816/816/124 815/815/124 
f 815/815/125 816/816/125 814/814/125 813/813/125 
f 813/813/126 814/814/126 810/810/126 809/809/126 
f 816/816/127 812/812/127 810/810/127 814/814/127 
f 817/817/123 818/818/123 820/820/123 819/819/123 
f 819/819/124 820/820/124 824/824/124 823/823/124 
f 823/823/125 824/824/125 822/822/125 821/821/125 
f 821/821/126 822/822/126 818/818/126 817/817/126 
f 824/824/127 820/820/127 818/818/127 822/822/127 
f 825/825/123 826/826/123 828/828/123 827/827/123 
f 827/827/124 828/828/124 832/832/124 831/831/124 
f 831/831/125 832/832/125 830/830/125 829/829/125 
f 829/829/126 830/830/126 826/826/126 825/825/126 
f 832/832/127 828/828/127 826/826/127 830/830/127 
o Cube:101
s 0
f 833/833/128 834/834/128 836/836/128 835/835/128 
f 835/835/129 836/836/129 840/840/129 839/839/129 
f 839/839/130 840/840/130 838/838/130 837/837/130 
f 837/837/131 838/838/131 834/834/131 833/833/131 
f 840/840/132 836/836/132 834/834/132 838/838/132 
f 841/841/128 842/842/128 844/844/128 843/843/128 
f 843/843/129 844/844/129 848/848/129 847/847/129 
f 847/847/130 848/848/130 846/846/130 845/845/130 
f 845/845/131 846/846/131 842/842/131 841/841/131 
f 848/848/132 844/844/132 842/842/132 846/846/132 
f 849/849/128 850/850/128 852/852/128 851/851/128 
f 851/851/129 852/852/129 856/856/129 855/855/129 
f 855/855/130 856/856/130 854/854/130 853/853/130 
f 853/853/131 854/854/131 850/850/131 849/849/131 
f 856/856/132 852/852/132 850/850/132 854/854/132 
f 857/857/128 858/858/128 860/860/128 859/859/128 
f 859/859/129 860/860/129 864/864/129 863/863/129 
f 863/863/130 864/864/130 862/862/130 861/861/130 
f 861/861/131 862/862/131 858/858/131 857/857/131 
f 864/864/132 860/860/132 858/858/132 862/862/132 
f 865/865/128 866/866/128 868/868/128 867/867/128 
f 867/867/129 868/868/129 872/872/129 871/871/129 
f 871/871/130 872/872/130 870/870/130 869/869/130 
f 869/869/131 870/870/131 866/866/131 865/865/131 
f 872/872/132 868/868/132 866/866/132 870/870/132 
f 873/873/128 874/874/128 876/876/128 875/875/128 
f 875/875/129 876/876/129 880/880/129 879/879/129 
f 879/879/130 880/880/130 878/878/130 877/877/130 
f 877/877/131 878/878/131 874/874/131 873/873/131 
f 880/880/132 876/876/132 874/874/132 878/878/132 
o Cube:102
s 0
f 881/881/133 882/882/133 884/884/133 883/883/133 
f 883/883/134 884/884/134 888/888/134 887/887/134 
f 887/887/135 888/888/135 886/886/135 885/885/135 
f 885/885/136 886/886/136 882/882/136 881/881/136 
f 888/888/137 884/884/137 882/882/137 886/886/137 
f 889/889/133 890/890/133 892/892/133 891/891/133 
f 891/891/134 892/892/134 896/896/134 895/895/134 
f 895/895/135 896/896/135 894/894/135 893/893/135 
f 893/893/136 894/894/136 890/890/136 889/889/136 
f 896/896/137 892/892/137 890/890/137 894/894/137 
f 897/897/133 898/898/133 900/900/133 899/899/133 
f 899/899/134 900/900/134 904/904/134 903/903/134 
f 903/903/135 904/904/135 902/902/135 901/901/135 
f 901/901/136 902/902/136 898/898/136 897/897/136 
f 904/904/137 900/900/137 898/898/137 902/902/137 
f 905/905/133 906/906/133 908/908/133 907/907/133 
f 907/907/134 908/908/134 912/912/134 911/911/134 
f 911/911/135 912/912/135 910/910/135 909/909/135 
f 909/909/136 910/910/136 906/906/136 905/905/136 
f 912/912/137 908/908/137 906/906/137 910/910/137 
f 913/913/133 914/914/133 916/916/133 915/915/133 
f 915/915/134 916/916/134 920/920/134 919/919/134 
f 919/919/135 920/920/135 918/918/135 917/917/135 
f 917/917/136 918/918/136 914/914/136 913/913/136 
f 920/920/137 916/916/137 914/914/137 918/918/137 
f 921/921/133 922/922/133 924/924/133 923/923/133 
f 923/923/134 924/924/134 928/928/134 927/927/134 
f 927/927/135 928/928/135 926/926/135 925/925/135 
f 925/925/136 926/926/136 922/922/136 921/921/136 
f 928/928/137 924/924/137 922/922/137 926/926/137 
#end 605 faces

#ZOMPROPERTIES_04{
#ZOMPROPERTIES_04 table {Mesh table {SymPlane table {Point vector3d 0 0 0 Normal vector3d 1 0 0 Threshold double 0.01 
#ZOMPROPERTIES_04 Enabled bool false EdgeID int -1 SymEdgeID int -1 UPos double 0.5 LocalMode bool false } RootGroup C
#ZOMPROPERTIES_04 SubMeshGroup {Children table {Tile_0_0 CSubMeshGroup {Children table {} BBoxUV box3d 0 0 0 0 0 0 BBo
#ZOMPROPERTIES_04 x3D box3d 0 0 0 0 0 0 Area3D double 0 AreaUV double 0.641532 IsRoot bool false Properties table {Sel
#ZOMPROPERTIES_04 ected bool false Box box3d 0 1 0 1 0 1 U int 0 V int 0 NU int 0 NV int 0 Tiling vector3d 1 1 1 TileR
#ZOMPROPERTIES_04 atioMode string "1:1" Overflow string "Off" Pack table {BoxFrameEdit bool false Behavior string "Fre
#ZOMPROPERTIES_04 e" } } IsTile bool true PolyIDs ints { 490 491 492 493 494 550 551 552 553 554 460 461 462 463 464 5
#ZOMPROPERTIES_04 80 581 582 583 584 520 521 522 523 524 255 256 257 258 259 200 201 202 203 204 475 476 477 478 479 1
#ZOMPROPERTIES_04 85 186 187 188 189 595 596 597 598 599 280 281 282 283 284 505 506 507 508 509 225 226 227 228 229 7
#ZOMPROPERTIES_04 5 76 77 78 79 240 241 242 243 244 145 146 147 148 149 90 91 92 93 94 170 171 172 173 174 565 566 567
#ZOMPROPERTIES_04  568 569 130 131 132 133 134 115 116 117 118 119 335 336 337 338 339 310 311 312 313 314 535 536 537
#ZOMPROPERTIES_04  538 539 405 406 407 408 409 295 296 297 298 299 350 351 352 353 354 420 421 422 423 424 445 446 447
#ZOMPROPERTIES_04  448 449 390 391 392 393 394 365 366 367 368 369 155 156 157 158 159 210 211 212 213 214 100 101 102
#ZOMPROPERTIES_04  103 104 265 266 267 268 269 545 546 547 548 549 510 511 512 513 514 180 181 182 183 184 190 191 192
#ZOMPROPERTIES_04  193 194 485 486 487 488 489 95 96 97 98 99 500 501 502 503 504 150 151 152 153 154 110 111 112 113 
#ZOMPROPERTIES_04 114 125 126 127 128 129 205 206 207 208 209 470 471 472 473 474 455 456 457 458 459 575 576 577 578 
#ZOMPROPERTIES_04 579 245 246 247 248 249 600 601 602 603 604 220 221 222 223 224 275 276 277 278 279 570 571 572 573 
#ZOMPROPERTIES_04 574 235 236 237 238 239 80 81 82 83 84 560 561 562 563 564 480 481 482 483 484 260 261 262 263 264 1
#ZOMPROPERTIES_04 35 136 137 138 139 590 591 592 593 594 70 71 72 73 74 165 166 167 168 169 250 251 252 253 254 285 28
#ZOMPROPERTIES_04 6 287 288 289 160 161 162 163 164 465 466 467 468 469 105 106 107 108 109 585 586 587 588 589 270 27
#ZOMPROPERTIES_04 1 272 273 274 215 216 217 218 219 140 141 142 143 144 195 196 197 198 199 555 556 557 558 559 495 49
#ZOMPROPERTIES_04 6 497 498 499 230 231 232 233 234 175 176 177 178 179 120 121 122 123 124 85 86 87 88 89 320 321 322
#ZOMPROPERTIES_04  323 324 430 431 432 433 434 375 376 377 378 379 345 346 347 348 349 300 301 302 303 304 440 441 442
#ZOMPROPERTIES_04  443 444 330 331 332 333 334 530 531 532 533 534 290 291 292 293 294 515 516 517 518 519 540 541 542
#ZOMPROPERTIES_04  543 544 425 426 427 428 429 315 316 317 318 319 370 371 372 373 374 355 356 357 358 359 410 411 412
#ZOMPROPERTIES_04  413 414 400 401 402 403 404 385 386 387 388 389 325 326 327 328 329 525 526 527 528 529 450 451 452
#ZOMPROPERTIES_04  453 454 415 416 417 418 419 305 306 307 308 309 340 341 342 343 344 395 396 397 398 399 360 361 362
#ZOMPROPERTIES_04  363 364 435 436 437 438 439 380 381 382 383 384 5 30 31 6 37 33 11 38 32 34 35 36 12 19 29 0 45 46 
#ZOMPROPERTIES_04 47 26 7 20 21 1 63 64 65 2 23 9 48 49 50 43 42 44 18 4 8 17 53 52 51 28 10 66 67 68 24 16 27 54 55 5
#ZOMPROPERTIES_04 6 13 14 60 61 62 15 69 57 58 59 25 3 41 40 39 22 } } } BBoxUV box3d 0 0 0 0 0 0 BBox3D box3d 0 0 0 0
#ZOMPROPERTIES_04  0 0 Area3D double 0 AreaUV double 0 IsRoot bool true Properties table {Selected bool false Box box3
#ZOMPROPERTIES_04 d 0 1 0 1 0 1 U int 0 V int 0 NU int 1 NV int 1 Tiling vector3d 1 1 1 TileRatioMode string "1:1" Ove
#ZOMPROPERTIES_04 rflow string "Off" Pack table {Rotate table {Mode int 0 Min double 0 Max double 90 Step double 0 } P
#ZOMPROPERTIES_04 addingSize double 0.0078125 MarginSize double 0.00390625 Resolution int 256 MapResolution int 2048 S
#ZOMPROPERTIES_04 caling table {TexelDensity double 1024 Mode int 2 } LayoutScalingMode int 2 MaxMutations int 1 } } I
#ZOMPROPERTIES_04 sTile bool false PolyIDs ints { } } Maps table {Pin table {PrimType string "Vertex" Size int 1 Defau
#ZOMPROPERTIES_04 ltValue double 0 ScaleType string "Normalized" MergeMode string "Max" MinValue double 0 MaxValue dou
#ZOMPROPERTIES_04 ble 1 Data doubles { r 968 0 } } Density table {PrimType string "Polygon" Size int 1 DefaultValue do
#ZOMPROPERTIES_04 uble 1 ScaleType string "Log" MergeMode string "Average" MinValue double 0.1 MaxValue double 4 Data 
#ZOMPROPERTIES_04 doubles { r 605 1 } } Protect table {PrimType string "Vertex" Size int 1 DefaultValue double 0 Scale
#ZOMPROPERTIES_04 Type string "Normalized" MergeMode string "Average" MinValue double -1 MaxValue double 1 Data double
#ZOMPROPERTIES_04 s { r 968 0 } } } } }
#ZOMPROPERTIES_04}


#ZOMSCENE_01{
#ZOMSCENE_01 CScene {Settings table {AxisSystem table {UpVector string "y" } Unit string "cm" TexelDensityDisplay
#ZOMSCENE_01 Unit string "tx/cm" } Root table {} }
#ZOMSCENE_01}

#begin 0 fatal error vertex (that RizomUV cannot handle)
#end 0 fatal error vertex (that RizomUV cannot handle)

#begin 0 error vertex
#end 0 error vertex
