#File written by RizomUV 2023.0.70.ge90189e8. Compilation :Sep 22 2023,12:42:11
mtllib pared posters.mtl
#begin vertices
v -21.67431 -1.724449 11.56507
v -21.67431 7.934944 11.56507
v 2.135016 -1.724449 11.56507
v 2.135016 7.934944 11.56507
#end vertices

#begin 4 textures vertices 
vt 0.00390625 0.00390625 0
vt 0.00390625 0.4064347 0
vt 0.9960937 0.00390625 0
vt 0.9960938 0.4064347 0
#end 4 textures vertices 

#begin 1 normals 
vn -0 -0 1
#end 1 normals 

#begin 1 faces
o Plane:058
s 1
f 1/1/1 3/3/1 4/4/1 2/2/1 
#end 1 faces

#ZOMPROPERTIES_04{
#ZOMPROPERTIES_04 table {Mesh table {SymPlane table {Point vector3d 0 0 0 Normal vector3d 1 0 0 Threshold double 0.01 
#ZOMPROPERTIES_04 Enabled bool false EdgeID int -1 SymEdgeID int -1 UPos double 0.5 LocalMode bool false } RootGroup C
#ZOMPROPERTIES_04 SubMeshGroup {Children table {Tile_0_0 CSubMeshGroup {Children table {} BBoxUV box3d 0 0 0 0 0 0 BBo
#ZOMPROPERTIES_04 x3D box3d 0 0 0 0 0 0 Area3D double 0 AreaUV double 0.399384 IsRoot bool false Properties table {Sel
#ZOMPROPERTIES_04 ected bool false Box box3d 0 1 0 1 0 1 U int 0 V int 0 NU int 0 NV int 0 Tiling vector3d 1 1 1 TileR
#ZOMPROPERTIES_04 atioMode string "1:1" Overflow string "Off" Pack table {BoxFrameEdit bool false Behavior string "Fre
#ZOMPROPERTIES_04 e" } } IsTile bool true PolyIDs ints { 0 } } } BBoxUV box3d 0 0 0 0 0 0 BBox3D box3d 0 0 0 0 0 0 Are
#ZOMPROPERTIES_04 a3D double 0 AreaUV double 0 IsRoot bool true Properties table {Selected bool false Box box3d 0 1 0 
#ZOMPROPERTIES_04 1 0 1 U int 0 V int 0 NU int 1 NV int 1 Tiling vector3d 1 1 1 TileRatioMode string "1:1" Overflow st
#ZOMPROPERTIES_04 ring "Off" Pack table {Rotate table {Mode int 0 Min double 0 Max double 90 Step double 0 } PaddingSi
#ZOMPROPERTIES_04 ze double 0.0078125 MarginSize double 0.00390625 Resolution int 256 MapResolution int 2048 Scaling t
#ZOMPROPERTIES_04 able {TexelDensity double 1024 Mode int 2 } LayoutScalingMode int 2 MaxMutations int 1 } } IsTile bo
#ZOMPROPERTIES_04 ol false PolyIDs ints { } } Maps table {Pin table {PrimType string "Vertex" Size int 1 DefaultValue 
#ZOMPROPERTIES_04 double 0 ScaleType string "Normalized" MergeMode string "Max" MinValue double 0 MaxValue double 1 Da
#ZOMPROPERTIES_04 ta doubles { r 4 0 } } Density table {PrimType string "Polygon" Size int 1 DefaultValue double 1 Sca
#ZOMPROPERTIES_04 leType string "Log" MergeMode string "Average" MinValue double 0.1 MaxValue double 4 Data doubles { 
#ZOMPROPERTIES_04 1 } } Protect table {PrimType string "Vertex" Size int 1 DefaultValue double 0 ScaleType string "Nor
#ZOMPROPERTIES_04 malized" MergeMode string "Average" MinValue double -1 MaxValue double 1 Data doubles { r 4 0 } } } 
#ZOMPROPERTIES_04 } }
#ZOMPROPERTIES_04}


#ZOMSCENE_01{
#ZOMSCENE_01 CScene {Settings table {AxisSystem table {UpVector string "y" } Unit string "cm" TexelDensityDisplay
#ZOMSCENE_01 Unit string "tx/cm" } Root table {} }
#ZOMSCENE_01}

#begin 0 fatal error vertex (that RizomUV cannot handle)
#end 0 fatal error vertex (that RizomUV cannot handle)

#begin 0 error vertex
#end 0 error vertex
