# Blender 4.2.8 LTS
# www.blender.org
mtllib libro.mtl
o libro_abierto
v 9.009833 2.505502 24.082859
v 9.009833 2.507440 24.083471
v 9.008396 2.506777 24.082197
v 9.009833 2.506345 24.083567
v 9.009004 2.506424 24.083315
v 9.008818 2.507246 24.083097
v 9.008818 2.505876 24.082664
v 9.009833 2.530902 24.071264
v 9.009833 2.531629 24.069267
v 9.008396 2.530354 24.069931
v 9.009833 2.531691 24.070377
v 9.009004 2.531449 24.070295
v 9.008818 2.531256 24.069462
v 9.008818 2.530766 24.070862
v 9.009833 1.735584 22.602924
v 9.008396 1.736859 22.602261
v 9.009833 1.736196 22.600986
v 9.008818 1.735957 22.602730
v 9.009004 1.735740 22.601908
v 9.008818 1.736390 22.601360
v 9.009833 1.735489 22.601830
v 9.009833 1.761711 22.589333
v 9.009833 1.759658 22.588781
v 9.008396 1.760436 22.589994
v 9.009833 1.760811 22.588655
v 9.009004 1.760765 22.588888
v 9.008818 1.759910 22.589125
v 9.008818 1.761361 22.589514
v 11.143288 2.505502 24.082859
v 11.144724 2.506777 24.082197
v 11.143288 2.507440 24.083471
v 11.144303 2.505876 24.082664
v 11.144116 2.506424 24.083315
v 11.144303 2.507246 24.083097
v 11.143288 2.506345 24.083567
v 11.143288 2.531629 24.069267
v 11.143288 2.530901 24.071266
v 11.144724 2.530354 24.069931
v 11.143288 2.531667 24.070393
v 11.144116 2.531449 24.070295
v 11.144303 2.530765 24.070862
v 11.144303 2.531280 24.069448
v 11.143288 1.736196 22.600986
v 11.144724 1.736859 22.602261
v 11.143288 1.735584 22.602924
v 11.144303 1.736390 22.601360
v 11.144116 1.735740 22.601908
v 11.144303 1.735957 22.602730
v 11.143288 1.735489 22.601830
v 11.143288 1.761711 22.589333
v 11.144724 1.760436 22.589994
v 11.143288 1.759657 22.588781
v 11.144303 1.761338 22.589527
v 11.144116 1.760765 22.588888
v 11.144303 1.759909 22.589125
v 11.143288 1.760837 22.588644
v 10.075952 1.762866 22.588732
v 10.077131 1.762881 22.588724
v 10.076560 1.759043 22.589100
v 10.076550 1.762392 22.588978
v 10.076552 1.761238 22.588642
v 10.076548 1.760624 22.588749
v 10.075952 2.532784 24.068666
v 10.076560 2.530287 24.071585
v 10.077131 2.532799 24.068659
v 10.076552 2.531922 24.070049
v 10.076548 2.531482 24.070492
v 10.076550 2.532310 24.068913
v 10.351490 1.916874 22.506990
v 10.351490 1.918990 22.507509
v 10.351490 1.918096 22.506830
v 10.946416 1.759652 22.588783
v 10.946416 1.761711 22.589333
v 10.946416 1.760833 22.588644
v 10.946416 2.531629 24.069267
v 10.946416 2.530897 24.071268
v 10.946416 2.531689 24.070381
v 10.351490 2.688908 23.987444
v 10.351490 2.688118 23.989475
v 10.351490 2.688951 23.988567
v 9.796734 2.688120 23.989475
v 9.796734 2.688908 23.987444
v 9.796734 2.688952 23.988567
v 9.205481 2.530897 24.071268
v 9.205481 2.531629 24.069267
v 9.205481 2.531689 24.070381
v 9.205481 1.761711 22.589333
v 9.205481 1.759653 22.588783
v 9.205481 1.760834 22.588644
v 9.796734 1.918990 22.507509
v 9.796734 1.916875 22.506990
v 9.796734 1.918096 22.506830
v 10.112132 1.834602 22.551411
v 10.112262 1.833822 22.550673
v 10.237662 1.918833 22.507591
v 10.237461 1.917928 22.506916
v 10.128952 1.860601 22.537886
v 10.129198 1.858668 22.537271
v 10.129025 1.859760 22.537178
v 10.152395 1.884066 22.525679
v 10.152403 1.881991 22.525139
v 10.152397 1.883184 22.524992
v 10.180166 1.902701 22.515984
v 10.179926 1.900548 22.515484
v 10.180096 1.901795 22.515310
v 10.209547 1.914681 22.509750
v 10.209071 1.912505 22.509264
v 10.209408 1.913769 22.509081
v 10.237662 2.688752 23.987526
v 10.237461 2.688784 23.988655
v 10.112132 2.604521 24.031347
v 10.112262 2.604678 24.032410
v 10.209547 2.684599 23.989687
v 10.209071 2.683749 23.991749
v 10.209408 2.684625 23.990818
v 10.180166 2.672619 23.995918
v 10.179926 2.671792 23.997969
v 10.180096 2.672652 23.997047
v 10.152395 2.653984 24.005613
v 10.152403 2.653236 24.007622
v 10.152397 2.654040 24.006729
v 10.128952 2.630519 24.017820
v 10.129198 2.629913 24.019756
v 10.129025 2.630616 24.018915
v 10.037301 2.606124 24.030512
v 10.037166 2.606278 24.031578
v 9.909337 2.688752 23.987526
v 9.909538 2.688785 23.988653
v 10.019730 2.631627 24.017244
v 10.019468 2.631017 24.019182
v 10.019652 2.631723 24.018339
v 9.995608 2.654645 24.005270
v 9.995591 2.653897 24.007278
v 9.995603 2.654701 24.006386
v 9.967298 2.672925 23.995760
v 9.967534 2.672100 23.997808
v 9.967367 2.672958 23.996887
v 9.937571 2.684678 23.989645
v 9.938046 2.683830 23.991707
v 9.937710 2.684704 23.990776
v 9.909337 1.918834 22.507591
v 9.909538 1.917929 22.506916
v 10.037301 1.836205 22.550577
v 10.037166 1.835422 22.549839
v 9.937572 1.914760 22.509710
v 9.938046 1.912586 22.509222
v 9.937710 1.913848 22.509039
v 9.967299 1.903007 22.515825
v 9.967534 1.900856 22.515324
v 9.967367 1.902102 22.515150
v 9.995608 1.884727 22.525333
v 9.995591 1.882652 22.524794
v 9.995603 1.883845 22.524649
v 10.019730 1.861709 22.537310
v 10.019468 1.859772 22.536697
v 10.019653 1.860867 22.536602
v 10.076560 1.642098 22.561398
v 10.075281 1.644803 22.561609
v 10.077814 1.644844 22.561588
v 10.076552 1.644574 22.561729
v 10.076551 1.643811 22.561192
v 10.077055 1.643550 22.561117
v 10.076037 1.643543 22.561121
v 10.077814 2.479092 24.165176
v 10.075281 2.479050 24.165197
v 10.076560 2.477598 24.167572
v 10.076552 2.478822 24.165318
v 10.076551 2.478823 24.166250
v 10.076037 2.478727 24.166510
v 10.077055 2.478734 24.166506
v 10.038049 1.659519 22.552334
v 10.038049 1.661716 22.552811
v 10.038049 1.660798 22.552143
v 10.038049 2.495963 24.156399
v 10.038049 2.495092 24.158472
v 10.038049 2.495983 24.157534
v 10.111793 2.495086 24.158474
v 10.111793 2.495963 24.156399
v 10.111793 2.495981 24.157536
v 10.111793 1.661716 22.552811
v 10.111793 1.659513 22.552338
v 10.111793 1.660796 22.552145
v 9.986570 1.700604 22.532579
v 9.986660 1.699724 22.531893
v 10.009243 1.690805 22.537678
v 10.009170 1.689963 22.536970
v 9.992271 1.699858 22.532969
v 9.992447 1.697784 22.532427
v 9.992323 1.698976 22.532282
v 9.998582 1.697734 22.534073
v 9.998590 1.696858 22.533384
v 10.004541 1.694555 22.535727
v 10.004415 1.692548 22.535152
v 10.004504 1.693692 22.535030
v 10.009243 2.525052 24.141266
v 10.009170 2.525148 24.142361
v 9.986570 2.534852 24.136168
v 9.986660 2.534909 24.137283
v 10.004541 2.528802 24.139315
v 10.004415 2.528121 24.141289
v 10.004504 2.528877 24.140421
v 9.998582 2.531981 24.137661
v 9.998590 2.532043 24.138775
v 9.992271 2.534106 24.136557
v 9.992447 2.533357 24.138565
v 9.992323 2.534161 24.137672
v 10.159992 2.534852 24.136168
v 10.159902 2.534907 24.137283
v 10.137711 2.524571 24.141516
v 10.137781 2.524668 24.142611
v 10.154321 2.534069 24.136576
v 10.154143 2.533314 24.138588
v 10.154268 2.534122 24.137691
v 10.148094 2.531841 24.137733
v 10.148087 2.531900 24.138849
v 10.142262 2.528506 24.139469
v 10.142384 2.527822 24.141445
v 10.142298 2.528580 24.140575
v 10.137711 1.690324 22.537928
v 10.137781 1.689483 22.537220
v 10.159992 1.700604 22.532579
v 10.159902 1.699722 22.531893
v 10.142262 1.694258 22.535881
v 10.142384 1.692248 22.535307
v 10.142298 1.693395 22.535185
v 10.148094 1.697593 22.534145
v 10.148087 1.696715 22.533459
v 10.154321 1.699822 22.532988
v 10.154143 1.697741 22.532450
v 10.154268 1.698938 22.532301
v 11.178374 2.477671 24.167534
v 11.178659 2.475734 24.166924
v 11.178576 2.476576 24.167629
v 11.202480 2.499057 24.156408
v 11.203917 2.498140 24.155266
v 11.203496 2.498683 24.156130
v 11.195419 2.483935 24.164276
v 11.195191 2.481809 24.163763
v 11.197069 2.483474 24.162897
v 11.195419 2.482765 24.164410
v 11.196156 2.483001 24.164078
v 11.196291 2.482498 24.163404
v 11.196519 2.483741 24.163902
v 11.202480 2.512855 24.149231
v 11.203917 2.512445 24.147825
v 11.203496 2.512840 24.148764
v 11.178696 2.534122 24.138166
v 11.178659 2.534852 24.136168
v 11.178670 2.534913 24.137281
v 11.195419 2.527977 24.141363
v 11.197069 2.527111 24.140194
v 11.195191 2.528777 24.139328
v 11.196519 2.527782 24.140991
v 11.196156 2.528349 24.140486
v 11.196291 2.528087 24.139687
v 11.195419 2.528758 24.140484
v 11.202480 1.663484 22.550272
v 11.203917 1.663893 22.551678
v 11.203496 1.663498 22.550739
v 11.178374 1.642098 22.561398
v 11.178659 1.641487 22.563335
v 11.178576 1.641391 22.562239
v 11.195419 1.648362 22.558140
v 11.197069 1.649227 22.559309
v 11.195191 1.647562 22.560175
v 11.196519 1.648556 22.558512
v 11.196156 1.647989 22.559017
v 11.196291 1.648251 22.559816
v 11.195419 1.647580 22.559019
v 11.178696 1.698549 22.532030
v 11.178659 1.700604 22.532579
v 11.178670 1.699728 22.531891
v 11.202480 1.677281 22.543095
v 11.203917 1.678198 22.544237
v 11.203496 1.677655 22.543373
v 11.195419 1.692403 22.535227
v 11.195191 1.694530 22.535740
v 11.197069 1.692864 22.536606
v 11.195419 1.693573 22.535093
v 11.196156 1.693337 22.535425
v 11.196291 1.693840 22.536098
v 11.196519 1.692597 22.535601
v 8.950641 2.499796 24.156025
v 8.949203 2.498879 24.154882
v 8.949624 2.499422 24.155745
v 8.975580 2.477671 24.167534
v 8.975294 2.475734 24.166924
v 8.975378 2.476576 24.167629
v 8.957945 2.484152 24.164164
v 8.956296 2.483691 24.162785
v 8.958173 2.482025 24.163651
v 8.956845 2.483957 24.163790
v 8.957209 2.483218 24.163965
v 8.957073 2.482715 24.163292
v 8.957945 2.482982 24.164297
v 8.975273 2.534127 24.138165
v 8.975294 2.534852 24.136168
v 8.975287 2.534914 24.137280
v 8.950641 2.512115 24.149616
v 8.949203 2.511706 24.148209
v 8.949624 2.512101 24.149149
v 8.957945 2.527760 24.141478
v 8.958173 2.528560 24.139441
v 8.956296 2.526895 24.140306
v 8.957945 2.528541 24.140596
v 8.957209 2.528133 24.140598
v 8.957073 2.527870 24.139799
v 8.956845 2.527566 24.141104
v 8.975580 1.642098 22.561398
v 8.975294 1.641487 22.563335
v 8.975378 1.641391 22.562239
v 8.950641 1.664223 22.549887
v 8.949203 1.664632 22.551294
v 8.949624 1.664237 22.550354
v 8.957945 1.648578 22.558025
v 8.958173 1.647778 22.560062
v 8.956296 1.649443 22.559196
v 8.957945 1.647797 22.558907
v 8.957209 1.648205 22.558905
v 8.957073 1.648468 22.559704
v 8.956845 1.648772 22.558399
v 8.950641 1.676542 22.543478
v 8.949203 1.677459 22.544621
v 8.949624 1.676916 22.543758
v 8.975273 1.698554 22.532026
v 8.975294 1.700604 22.532579
v 8.975287 1.699729 22.531889
v 8.957945 1.692187 22.535339
v 8.956296 1.692648 22.536718
v 8.958173 1.694313 22.535852
v 8.956845 1.692381 22.535713
v 8.957209 1.693120 22.535538
v 8.957073 1.693623 22.536211
v 8.957945 1.693356 22.535206
vn -0.1672 0.7614 -0.6264
vn -0.1446 0.9556 -0.2568
vn -0.1446 0.7585 -0.6355
vn 0.9665 0.0761 -0.2452
vn 0.9672 -0.0764 0.2423
vn 0.9673 -0.2418 -0.0764
vn 0.8457 0.3957 -0.3580
vn 0.8709 0.4820 -0.0957
vn 0.8458 0.5204 -0.1180
vn 0.1378 0.7597 -0.6355
vn -0.0764 0.9630 -0.2586
vn 0.1377 0.9564 -0.2575
vn 0.1438 0.7590 -0.6350
vn 0.1673 0.9501 -0.2634
vn 0.1785 0.7664 -0.6171
vn -0.1797 -0.6213 0.7627
vn 0.1917 -0.7633 0.6169
vn 0.1801 -0.6201 0.7636
vn -0.1385 0.9562 -0.2577
vn -0.1387 0.7594 -0.6357
vn -0.9671 -0.0765 0.2426
vn -0.9667 0.0728 -0.2453
vn -0.9672 -0.2421 -0.0767
vn -0.0000 0.4615 0.8871
vn -0.0221 0.6005 0.7994
vn -0.1795 0.2876 0.9408
vn 0.0746 0.7649 -0.6398
vn 0.0748 0.9630 -0.2588
vn -0.8845 0.3366 -0.3230
vn -0.7991 0.5847 -0.1402
vn -0.7991 0.4496 -0.3990
vn -0.8626 0.4910 -0.1217
vn -0.8844 0.4577 -0.0907
vn 0.0556 0.6245 0.7790
vn 0.0036 0.6456 0.7636
vn -0.0465 0.6313 0.7742
vn 0.1436 0.9557 -0.2569
vn 0.1352 0.9901 -0.0380
vn 0.1268 0.9905 -0.0536
vn 0.1793 -0.9409 0.2872
vn -0.1794 -0.7757 0.6051
vn -0.1793 -0.9409 0.2874
vn -0.0418 -0.6368 -0.7699
vn -0.2107 -0.4878 -0.8472
vn -0.0464 -0.2723 -0.9611
vn -0.1042 -0.3280 -0.9389
vn -0.0594 -0.2801 -0.9581
vn 0.0419 -0.6371 -0.7696
vn 0.1913 -0.9431 0.2721
vn -0.1914 -0.7639 0.6163
vn -0.1911 -0.9432 0.2720
vn -0.2789 0.9256 -0.2559
vn -0.0764 0.7637 -0.6410
vn -0.2790 0.7403 -0.6116
vn -0.6643 0.7224 -0.1922
vn -0.4974 0.6695 -0.5518
vn -0.6639 0.5726 -0.4810
vn 0.7829 0.6049 -0.1457
vn 0.8708 0.3557 -0.3394
vn 0.7830 0.4665 -0.4115
vn 0.6485 0.5816 -0.4911
vn -0.0729 0.7692 -0.6348
vn 0.1865 0.9462 -0.2645
vn 0.1861 0.7602 -0.6224
vn 0.2719 0.7424 -0.6123
vn 0.4849 0.8430 -0.2328
vn 0.4850 0.6748 -0.5562
vn 0.2720 0.9276 -0.2560
vn 0.8676 0.4941 -0.0562
vn 0.9622 0.0805 -0.2602
vn 0.8676 0.3300 -0.3720
vn 0.6173 0.5922 -0.5179
vn 0.3488 0.9149 -0.2035
vn 0.3491 0.6917 -0.6322
vn -0.4642 -0.8517 0.2432
vn -0.3839 0.6805 -0.6241
vn -0.6491 0.7387 -0.1816
vn -0.6493 0.5724 -0.5008
vn 0.6990 0.5422 -0.4663
vn 0.6167 0.7645 -0.1878
vn -0.7280 0.5189 -0.4480
vn -0.7272 0.6656 -0.1680
vn -0.0419 0.2626 0.9640
vn -0.2105 0.4134 0.8859
vn -0.1866 0.7607 -0.6217
vn 0.0692 0.9615 -0.2660
vn 0.0693 0.7693 -0.6351
vn 0.2425 0.7505 -0.6148
vn -0.0000 -0.4616 -0.8871
vn 0.0220 -0.3098 -0.9506
vn 0.1794 -0.6056 -0.7753
vn 0.5808 0.7865 -0.2099
vn 0.5805 0.6239 -0.5231
vn 0.4251 0.8726 -0.2407
vn 0.4249 0.6977 -0.5768
vn -0.2555 0.7479 -0.6127
vn -0.0729 0.9614 -0.2653
vn -0.4471 0.8625 -0.2369
vn -0.4475 0.6883 -0.5709
vn 0.4633 -0.6881 0.5584
vn -0.6085 0.6074 -0.5107
vn -0.6082 0.7672 -0.2037
vn 0.8679 -0.3291 0.3721
vn 0.9622 -0.2595 -0.0833
vn 0.9622 -0.0806 0.2602
vn -0.8679 -0.3295 0.3718
vn -0.9622 -0.2594 -0.0831
vn -0.8680 -0.4933 0.0566
vn 0.4639 0.6873 -0.5589
vn -0.1866 0.9460 -0.2651
vn -0.4637 0.6881 -0.5581
vn -0.4638 0.8519 -0.2431
vn -0.9621 -0.0805 0.2606
vn -0.9621 0.0805 -0.2605
vn -0.8679 0.3292 -0.3719
vn -0.9623 0.2591 0.0831
vn -0.8681 0.4932 -0.0568
vn -0.3252 -0.6386 0.6975
vn -0.3788 -0.7499 0.5424
vn -0.3255 0.1222 0.9376
vn -0.1369 0.0860 0.9868
vn -0.8876 -0.1389 0.4392
vn -0.9146 0.0543 0.4007
vn -0.1773 0.5940 0.7847
vn -0.3113 0.6893 0.6542
vn -0.3712 0.5456 0.7513
vn -0.1785 0.9452 -0.2736
vn -0.3199 0.9429 -0.0928
vn -0.1344 0.9894 -0.0558
vn -0.9663 0.2452 0.0786
vn -0.8844 0.4409 0.1529
vn -0.9140 0.4025 -0.0509
vn -0.3248 -0.9380 0.1212
vn -0.1363 -0.9869 0.0859
vn -0.8880 -0.4384 -0.1384
vn -0.9152 -0.3991 0.0551
vn -0.1794 -0.6051 -0.7757
vn -0.3251 -0.6978 -0.6383
vn -0.3792 -0.5437 -0.7487
vn -0.2946 0.6055 -0.7393
vn -0.3567 0.7411 -0.5689
vn -0.1766 -0.3007 -0.9372
vn -0.3078 -0.1382 -0.9413
vn -0.1294 -0.1101 -0.9855
vn -0.8845 0.1213 -0.4506
vn -0.9129 -0.0669 -0.4026
vn 0.1795 -0.7755 0.6053
vn 0.3254 -0.6381 0.6979
vn 0.1375 -0.6373 0.7582
vn 0.8878 -0.1384 0.4389
vn 0.9151 -0.2734 0.2964
vn 0.1798 0.2876 0.9407
vn 0.3257 0.1218 0.9376
vn 0.3798 0.3018 0.8745
vn 0.2953 0.9528 -0.0708
vn 0.3567 0.8913 -0.2800
vn 0.1769 0.5958 0.7834
vn 0.3085 0.6916 0.6531
vn 0.1298 0.7461 0.6531
vn 0.9668 0.2423 0.0808
vn 0.8846 0.4385 0.1588
vn 0.9136 0.2908 0.2842
vn 0.3249 -0.6978 -0.6383
vn 0.1368 -0.7588 -0.6368
vn 0.8882 -0.4380 -0.1384
vn 0.9150 -0.2971 -0.2729
vn 0.3247 -0.9380 0.1211
vn 0.3788 -0.8753 0.3007
vn 0.3198 0.6167 -0.7193
vn 0.1337 0.6132 -0.7786
vn 0.8848 0.1262 -0.4486
vn 0.9149 0.2710 -0.2992
vn 0.1774 -0.3025 -0.9365
vn 0.3112 -0.1408 -0.9399
vn 0.3716 -0.3034 -0.8774
vn 0.4045 0.1999 -0.8924
vn 0.0096 -0.1149 -0.9933
vn -0.5189 -0.1441 -0.8426
vn -0.4340 0.1961 -0.8793
vn -0.0167 0.2800 -0.9598
vn 0.4072 0.8440 0.3491
vn 0.0137 0.7489 0.6625
vn -0.0149 0.9464 0.3227
vn -0.4332 0.8329 0.3444
vn 0.5341 0.5961 0.5996
vn -0.0143 0.4757 -0.8795
vn 0.1509 0.5235 -0.8385
vn -0.1743 0.5194 -0.8366
vn 0.1002 -0.0993 -0.9900
vn -0.1121 -0.0972 -0.9889
vn -0.0018 -0.5321 -0.8467
vn -0.0145 0.9932 0.1152
vn -0.1734 0.9833 0.0546
vn -0.3831 0.9018 -0.2001
vn 0.1507 0.9872 0.0521
vn -0.1060 0.7428 0.6611
vn 0.0944 0.7424 0.6633
vn -0.0017 0.3671 0.9302
vn 0.1849 0.2813 0.9416
vn 0.3559 0.0835 0.9308
vn 0.3475 0.2052 0.9150
vn 0.7002 -0.5596 0.4434
vn 0.4562 -0.5918 0.6646
vn 0.8306 -0.2585 0.4932
vn 0.1845 0.6098 0.7708
vn 0.3554 0.7158 0.6012
vn 0.2396 0.7262 0.6443
vn 0.7005 0.6839 -0.2039
vn 0.8304 0.5527 0.0707
vn 0.4575 0.8833 -0.1021
vn 0.4641 0.8518 -0.2428
vn 0.1848 -0.6090 -0.7714
vn 0.3564 -0.7140 -0.6026
vn 0.2404 -0.7250 -0.6455
vn 0.7005 -0.6840 0.2035
vn 0.8312 -0.5514 -0.0707
vn 0.8680 -0.4934 0.0561
vn 0.4566 -0.8839 0.1014
vn 0.4638 -0.8521 0.2426
vn 0.1850 -0.2816 -0.9415
vn 0.3560 -0.0825 -0.9308
vn 0.3476 -0.2063 -0.9146
vn 0.7002 0.5596 -0.4433
vn 0.4573 0.5891 -0.6662
vn 0.8302 0.2605 -0.4929
vn -0.1850 0.2822 0.9413
vn -0.3563 0.0836 0.9306
vn -0.2398 0.1120 0.9643
vn -0.7005 -0.5592 0.4434
vn -0.8307 -0.2591 0.4928
vn -0.4572 -0.5895 0.6659
vn -0.4640 -0.6874 0.5587
vn -0.1852 0.6094 0.7709
vn -0.3566 0.7150 0.6013
vn -0.3474 0.6320 0.6928
vn -0.7008 0.6836 -0.2040
vn -0.4572 0.8835 -0.1021
vn -0.8313 0.5514 0.0702
vn -0.1849 -0.6100 -0.7706
vn -0.3563 -0.7150 -0.6015
vn -0.3474 -0.6314 -0.6933
vn -0.7009 -0.6835 0.2039
vn -0.4584 -0.8829 0.1022
vn -0.8309 -0.5520 -0.0701
vn -0.1850 -0.2821 -0.9414
vn -0.3562 -0.0826 -0.9308
vn -0.2398 -0.1131 -0.9642
vn -0.7007 0.5592 -0.4431
vn -0.8308 0.2583 -0.4929
vn -0.4566 0.5912 -0.6648
vn -0.3795 -0.8749 0.3010
vn -0.3794 0.3019 0.8746
vn -0.9131 0.2908 0.2860
vn -0.3778 0.8801 -0.2876
vn -0.3721 -0.3028 -0.8774
vn 0.1271 0.6128 -0.7799
vn 0.0567 -0.1168 -0.9915
vn 0.9132 -0.0667 -0.4020
vn 0.3791 -0.5435 -0.7489
vn 0.3789 -0.7490 0.5436
vn 0.3786 0.7404 -0.5554
vn 0.3725 0.5439 0.7520
vn -0.1373 -0.6368 0.7587
vn -0.1278 0.9904 -0.0536
vn -0.0571 0.7448 0.6649
vn 0.6663 0.6618 -0.3436
vn 0.6658 0.6615 -0.3450
vn -0.6875 0.6441 -0.3354
vn -0.8623 0.3826 -0.3318
vn -0.6876 0.6444 -0.3346
vn -0.1360 0.9900 -0.0384
vn 0.1212 0.9921 -0.0328
vn 0.0220 0.6004 0.7994
vn 0.1353 0.5992 -0.7891
vn -0.0303 0.6206 0.7836
vn -0.0459 0.7360 0.6754
vn 0.1888 0.6093 -0.7701
vn -0.1363 0.5983 -0.7896
vn -0.1277 0.6115 -0.7808
vn 0.0302 -0.2850 -0.9580
vn 0.0457 -0.1293 -0.9905
vn -0.0571 -0.1157 -0.9916
vn -0.0304 -0.2848 -0.9581
vn -0.0222 -0.3093 -0.9507
vn -0.1207 0.5970 -0.7931
vn 0.0566 0.7445 0.6653
vn 0.0301 0.6203 0.7838
vn -0.1039 0.5800 0.8079
vn 0.0419 0.2644 0.9635
vn -0.0595 0.6242 0.7790
vn -0.1368 -0.7578 -0.6380
vn -0.7900 0.3515 -0.5024
vn -0.8678 0.2581 -0.4247
vn 0.0558 -0.2779 -0.9590
vn 0.1197 -0.2287 -0.9661
vn 0.1436 -0.2903 -0.9461
vn -0.6572 0.4622 -0.5954
vn -0.3816 -0.1360 -0.9143
vn -0.1823 -0.2863 -0.9407
vn -0.2399 -0.3046 -0.9218
vn -0.4968 0.5428 -0.6772
vn -0.2862 -0.1166 -0.9510
vn -0.1293 -0.2775 -0.9520
vn -0.2898 0.5942 -0.7503
vn -0.1933 -0.1106 -0.9749
vn -0.0718 -0.2760 -0.9585
vn -0.0859 0.6056 -0.7912
vn 0.0456 0.7359 0.6756
vn -0.0037 0.5396 0.8419
vn -0.0857 0.9954 -0.0436
vn 0.2148 -0.2667 -0.9395
vn 0.0976 -0.3268 -0.9400
vn -0.4975 0.8361 -0.2311
vn -0.2899 0.9553 -0.0576
vn -0.1926 0.7352 0.6499
vn -0.0718 0.6272 0.7755
vn -0.0926 0.7420 0.6640
vn -0.4968 0.8661 -0.0554
vn -0.2865 0.7115 0.6417
vn -0.1288 0.6206 0.7735
vn -0.6571 0.7529 -0.0358
vn -0.3822 0.6682 0.6383
vn -0.1826 0.6051 0.7749
vn -0.7900 0.6131 -0.0012
vn -0.1169 -0.4093 -0.9049
vn -0.4806 -0.2076 -0.8520
vn 0.7718 0.6358 -0.0027
vn 0.8523 0.5220 0.0331
vn 0.2262 -0.3069 -0.9245
vn 0.3644 -0.1453 -0.9198
vn 0.1140 -0.4065 -0.9065
vn 0.6416 0.7662 -0.0349
vn 0.3657 0.6724 0.6435
vn 0.1737 0.6061 0.7762
vn 0.2273 0.5814 0.7812
vn 0.6491 0.7352 -0.1954
vn 0.4829 0.8739 -0.0549
vn 0.2758 0.7131 0.6446
vn 0.1234 0.6200 0.7748
vn 0.2819 0.9578 -0.0566
vn 0.1866 0.7352 0.6516
vn 0.0694 0.6268 0.7761
vn 0.0840 0.9955 -0.0440
vn 0.0976 0.5817 0.8076
vn 0.2899 0.6941 0.6589
vn 0.2159 0.6159 0.7577
vn 0.0837 0.6084 -0.7892
vn 0.0037 0.5411 0.8410
vn 0.2817 0.5970 -0.7511
vn 0.1869 -0.1062 -0.9766
vn 0.0692 -0.2772 -0.9583
vn 0.0901 -0.1212 -0.9885
vn 0.4831 0.5480 -0.6828
vn 0.2761 -0.1205 -0.9536
vn 0.1238 -0.2761 -0.9531
vn 0.6399 0.4680 -0.6095
vn 0.1739 -0.2883 -0.9416
vn 0.7722 0.3664 -0.5192
vn -0.2401 0.5794 0.7788
vn -0.1168 0.5064 0.8544
vn -0.8880 0.2266 -0.4002
vn -0.8677 0.4960 0.0317
vn -0.8882 0.4571 0.0463
vn 0.8676 0.4926 0.0674
vn 0.8521 0.2734 -0.4462
vn 0.8680 0.2281 -0.4411
vn 0.5473 0.4908 -0.6779
vn 0.2899 -0.1402 -0.9467
vn -0.5769 0.8167 -0.0133
vn -0.3140 0.6863 0.6560
vn -0.0182 0.8872 -0.4610
vn -0.0184 0.8868 -0.4618
vn -0.1791 -0.9812 0.0716
vn 0.1795 -0.9811 0.0719
vn -0.0734 -0.7540 -0.6528
vn 0.0734 0.1008 0.9922
vn 0.5459 0.8377 -0.0137
vn -0.5768 0.4790 -0.6617
vn 0.0717 0.6170 -0.7837
vn -0.0897 -0.1159 -0.9892
vn -0.0038 -0.2596 -0.9657
vn 0.2415 0.6055 -0.7583
vn 0.1441 0.6082 0.7806
vn 0.1195 0.6598 0.7418
vn 0.4150 0.5638 -0.7141
vn 0.5679 0.5026 -0.6519
vn -0.1550 0.6078 0.7788
vn -0.2263 0.6095 0.7598
vn 0.6988 0.6933 -0.1760
vn 0.5679 0.8223 -0.0361
vn 0.6793 0.7336 -0.0189
vn -0.0037 -0.3800 -0.9250
vn 0.4155 0.9081 -0.0523
vn -0.1550 -0.2890 -0.9447
vn -0.1250 -0.2322 -0.9646
vn 0.2419 0.9685 -0.0593
vn 0.2427 0.9343 -0.2610
vn 0.0716 0.9958 -0.0564
vn -0.0631 -0.1159 -0.9913
vn 0.0036 -0.2542 -0.9672
vn -0.2555 0.9314 -0.2593
vn -0.0755 0.9956 -0.0548
vn -0.0460 -0.1294 -0.9905
vn 0.0037 -0.3786 -0.9255
vn -0.2549 0.9653 -0.0574
vn -0.4378 0.8977 -0.0503
vn -0.5964 0.8020 -0.0339
vn -0.3146 -0.1407 -0.9387
vn -0.2260 -0.2718 -0.9354
vn -0.5973 0.4885 -0.6361
vn -0.7101 0.4180 -0.5666
vn 0.1142 0.5087 0.8533
vn 0.4665 0.5892 0.6597
vn -0.4383 0.5548 -0.7071
vn -0.1248 0.6545 0.7457
vn -0.2549 0.6032 -0.7558
vn -0.0756 0.6170 -0.7833
vn -0.0038 0.6420 0.7667
vn 0.0467 0.6305 0.7748
vn 0.1371 0.0861 0.9868
vn 0.1895 0.9803 -0.0552
vn 0.6795 0.4370 -0.5893
vn -0.1890 0.9804 -0.0564
vn -0.1889 0.6104 -0.7692
vn -0.7083 0.7057 -0.0175
vn 0.2395 0.1108 0.9646
vn 0.0734 -0.7545 -0.6522
vn 0.2097 0.4132 0.8861
vn 0.3678 0.3618 0.8567
vn 0.9035 0.0196 0.4281
vn 0.2107 -0.4880 -0.8470
vn 0.3464 -0.6312 -0.6940
vn 0.9035 -0.3395 -0.2615
vn 0.0467 -0.2722 -0.9611
vn 0.2397 -0.1104 -0.9646
vn 0.0626 0.7449 0.6643
vn 0.2096 -0.4140 -0.8858
vn 0.3675 -0.3631 -0.8562
vn 0.9035 -0.0196 -0.4280
vn 0.2108 0.4877 0.8472
vn 0.3461 0.6321 0.6933
vn 0.9037 0.3390 0.2615
vn 0.3695 -0.4929 -0.7877
vn 0.3697 0.4923 0.7880
vn 0.9622 0.2592 0.0833
vn -0.2397 -0.7273 -0.6432
vn -0.0735 0.0974 0.9925
vn -0.3695 -0.4924 -0.7880
vn -0.9037 -0.3393 -0.2612
vn -0.3476 0.2065 0.9146
vn -0.9032 0.0198 0.4288
vn -0.2406 0.7254 0.6449
vn -0.2106 0.4875 0.8473
vn -0.3693 0.4921 0.7883
vn -0.9039 0.3387 0.2613
vn -0.2105 -0.4138 -0.8857
vn -0.3476 -0.2053 -0.9149
vn -0.9033 -0.0199 -0.4286
vn -0.3692 0.3620 0.8559
vn -0.3691 -0.3628 -0.8557
vn 0.0853 0.7462 0.6603
vn -0.0632 0.7461 0.6629
vn -0.9147 -0.2745 0.2965
vn -0.1324 0.7407 0.6587
vn -0.9143 -0.2970 -0.2753
vn -0.9174 0.2628 -0.2989
vn 0.9149 0.0536 0.4001
vn 0.9175 0.3954 -0.0431
vn 0.9157 -0.3984 0.0532
vn 0.1369 -0.9868 0.0860
vn 0.1321 -0.1150 -0.9845
vn 0.5348 -0.1495 -0.8317
vn -0.5105 0.6138 0.6021
vn -0.0061 0.5755 -0.8178
vn -0.0056 0.2610 -0.9653
vn -0.0051 1.0000 -0.0021
vn -0.0058 0.9412 0.3379
vn 0.6877 -0.5087 0.5179
vn 0.6887 0.7153 -0.1185
vn 0.6886 -0.7156 0.1173
vn 0.6883 0.5062 -0.5196
vn -0.6882 -0.5066 0.5194
vn -0.6891 0.7151 -0.1178
vn -0.6894 -0.7147 0.1178
vn -0.6881 0.5079 -0.5182
vn 0.0855 -0.1103 -0.9902
vn 0.2354 -0.1239 -0.9640
vn -0.0925 -0.1190 -0.9886
vn -0.5055 -0.1903 -0.8416
vn 0.4895 -0.1853 -0.8521
vn 0.4664 -0.2019 -0.8612
vn 0.0904 0.7422 0.6640
vn 0.2367 0.7188 0.6537
vn -0.5048 0.5809 0.6385
vn -0.4800 0.5795 0.6586
vn 0.0626 -0.1162 -0.9912
vn -0.2510 0.7176 0.6496
vn -0.2507 -0.1213 -0.9604
vn 0.4896 0.5912 0.6409
vn -0.0900 0.7450 0.6609
vt 0.675720 0.309727
vt 0.710822 0.010420
vt 0.710822 0.309727
vt 0.966558 0.713342
vt 0.971316 0.414035
vt 0.971311 0.713342
vt 0.291517 0.731957
vt 0.276175 0.432648
vt 0.291517 0.432649
vt 0.045983 0.731954
vt 0.025561 0.432647
vt 0.045983 0.432647
vt 0.152607 0.731954
vt 0.187929 0.432646
vt 0.187929 0.731954
vt 0.334917 0.408706
vt 0.334735 0.013401
vt 0.334917 0.013416
vt 0.817016 0.010420
vt 0.817016 0.309728
vt 0.964235 0.010420
vt 0.968990 0.309727
vt 0.964235 0.309727
vt 0.806187 0.604035
vt 0.806064 0.448874
vt 0.810783 0.414083
vt 0.837219 0.309727
vt 0.837219 0.010420
vt 0.846739 0.713344
vt 0.852211 0.414037
vt 0.852211 0.713345
vt 0.831799 0.414036
vt 0.846739 0.414036
vt 0.312717 0.618153
vt 0.312358 0.617127
vt 0.312562 0.436969
vt 0.152607 0.432646
vt 0.045983 0.432464
vt 0.152607 0.432464
vt 0.355573 0.010419
vt 0.654881 0.393196
vt 0.355574 0.393196
vt 0.889297 0.810644
vt 0.884847 0.815142
vt 0.877941 0.810841
vt 0.885794 0.608306
vt 0.878105 0.600859
vt 0.889297 0.418283
vt 0.010419 0.013401
vt 0.334735 0.408721
vt 0.010420 0.408721
vt 0.020513 0.432647
vt 0.025561 0.731954
vt 0.020514 0.731954
vt 0.010237 0.432647
vt 0.015233 0.731954
vt 0.010237 0.731954
vt 0.270780 0.432647
vt 0.276175 0.731956
vt 0.270780 0.731955
vt 0.857262 0.713346
vt 0.265792 0.731954
vt 0.358577 0.738350
vt 0.541341 0.414035
vt 0.541341 0.738351
vt 0.842282 0.309728
vt 0.847607 0.010420
vt 0.847607 0.309727
vt 0.852673 0.309727
vt 0.842282 0.010420
vt 0.907060 0.010420
vt 0.910115 0.334735
vt 0.907060 0.334735
vt 0.873147 0.334735
vt 0.879815 0.010420
vt 0.879815 0.334735
vt 0.010420 0.411792
vt 0.880269 0.334735
vt 0.886378 0.010420
vt 0.886378 0.334735
vt 0.939525 0.738350
vt 0.945805 0.414035
vt 0.945805 0.738351
vt 0.942730 0.334737
vt 0.936608 0.010420
vt 0.942730 0.010421
vt 0.323919 0.437165
vt 0.319469 0.432667
vt 0.568248 0.738350
vt 0.749687 0.414035
vt 0.749687 0.738350
vt 0.750709 0.738350
vt 0.240548 0.622717
vt 0.240425 0.467780
vt 0.245144 0.432654
vt 0.752907 0.414035
vt 0.753747 0.738350
vt 0.752907 0.738351
vt 0.751840 0.414035
vt 0.751840 0.738351
vt 0.357559 0.738350
vt 0.358577 0.414035
vt 0.356440 0.414035
vt 0.356440 0.738351
vt 0.334735 0.010434
vt 0.355391 0.738351
vt 0.943585 0.010421
vt 0.943585 0.334737
vt 0.915857 0.010419
vt 0.912999 0.334735
vt 0.912999 0.010420
vt 0.910131 0.414035
vt 0.913098 0.738350
vt 0.910131 0.738350
vt 0.544303 0.738351
vt 0.568249 0.414035
vt 0.565172 0.738350
vt 0.565172 0.414035
vt 0.913098 0.414035
vt 0.915684 0.738350
vt 0.918844 0.738350
vt 0.915684 0.414034
vt 0.918844 0.414035
vt 0.655030 0.393345
vt 0.654881 0.393379
vt 0.810920 0.413950
vt 0.810956 0.414095
vt 0.964095 0.010271
vt 0.964241 0.010237
vt 0.806063 0.414025
vt 0.805885 0.413888
vt 0.806044 0.413853
vt 0.675720 0.010420
vt 0.675570 0.010271
vt 0.675719 0.010238
vt 0.968989 0.010419
vt 0.969141 0.010271
vt 0.969177 0.010420
vt 0.355425 0.393345
vt 0.355391 0.393196
vt 0.964095 0.309876
vt 0.964059 0.309727
vt 0.245144 0.812664
vt 0.245281 0.812797
vt 0.245136 0.812836
vt 0.675570 0.309876
vt 0.675537 0.309727
vt 0.240425 0.812723
vt 0.240247 0.812860
vt 0.240224 0.812717
vt 0.969141 0.309876
vt 0.968983 0.309909
vt 0.654881 0.010419
vt 0.655030 0.010271
vt 0.655063 0.010419
vt 0.971455 0.413886
vt 0.971491 0.414035
vt 0.810783 0.794101
vt 0.810920 0.794264
vt 0.810775 0.794291
vt 0.188077 0.432498
vt 0.188111 0.432646
vt 0.806063 0.794042
vt 0.805885 0.794201
vt 0.805862 0.794049
vt 0.966563 0.414034
vt 0.966410 0.413886
vt 0.966568 0.413853
vt 0.245280 0.432492
vt 0.245317 0.432643
vt 0.971450 0.713491
vt 0.971304 0.713525
vt 0.355425 0.010271
vt 0.355573 0.010237
vt 0.188077 0.732103
vt 0.187929 0.732136
vt 0.966405 0.713491
vt 0.966370 0.713342
vt 0.240425 0.432713
vt 0.240247 0.432555
vt 0.240405 0.432523
vt 0.675537 0.351235
vt 0.675626 0.351502
vt 0.675620 0.351611
vt 0.675747 0.351235
vt 0.675643 0.351331
vt 0.675748 0.330384
vt 0.675659 0.330651
vt 0.675641 0.330481
vt 0.675537 0.330384
vt 0.675664 0.330760
vt 0.880043 0.334735
vt 0.879950 0.334917
vt 0.880133 0.334917
vt 0.889038 0.614625
vt 0.889037 0.614444
vt 0.889297 0.614538
vt 0.880043 0.010420
vt 0.880133 0.010237
vt 0.880269 0.010419
vt 0.879950 0.010238
vt 0.323658 0.633369
vt 0.323660 0.633188
vt 0.323934 0.633275
vt 0.322659 0.832554
vt 0.322779 0.832700
vt 0.322651 0.832759
vt 0.334735 0.010237
vt 0.334917 0.010394
vt 0.915890 0.010237
vt 0.916042 0.010419
vt 0.313799 0.832444
vt 0.313657 0.832587
vt 0.313596 0.832451
vt 0.906852 0.010420
vt 0.907011 0.010237
vt 0.544344 0.413853
vt 0.544500 0.414035
vt 0.544303 0.414035
vt 0.888038 0.415263
vt 0.888158 0.415117
vt 0.888226 0.415251
vt 0.916042 0.334735
vt 0.915890 0.334917
vt 0.915857 0.334735
vt 0.010237 0.010394
vt 0.010420 0.010237
vt 0.010420 0.010434
vt 0.879178 0.415374
vt 0.879036 0.415231
vt 0.879171 0.415169
vt 0.544500 0.738351
vt 0.544344 0.738532
vt 0.907012 0.334917
vt 0.906852 0.334735
vt 0.322616 0.434007
vt 0.322736 0.433891
vt 0.322804 0.434019
vt 0.909945 0.414035
vt 0.910098 0.413852
vt 0.334917 0.411833
vt 0.334735 0.411990
vt 0.334735 0.411792
vt 0.313843 0.433899
vt 0.313700 0.433779
vt 0.313835 0.433712
vt 0.564974 0.414035
vt 0.565131 0.413852
vt 0.918892 0.413852
vt 0.919051 0.414035
vt 0.887994 0.813802
vt 0.888114 0.813918
vt 0.887986 0.813989
vt 0.010420 0.411990
vt 0.010237 0.411833
vt 0.910098 0.738532
vt 0.909945 0.738350
vt 0.879222 0.813911
vt 0.879079 0.814031
vt 0.879018 0.813905
vt 0.919051 0.738350
vt 0.918892 0.738532
vt 0.565131 0.738533
vt 0.564974 0.738350
vt 0.355573 0.393379
vt 0.810775 0.413911
vt 0.968984 0.010237
vt 0.675537 0.010420
vt 0.240405 0.812895
vt 0.152607 0.732136
vt 0.240219 0.467773
vt 0.966563 0.713524
vt 0.245136 0.432464
vt 0.654881 0.010237
vt 0.188111 0.731954
vt 0.806044 0.794232
vt 0.655063 0.393196
vt 0.710822 0.010237
vt 0.805858 0.448881
vt 0.989656 0.309545
vt 0.989763 0.010237
vt 0.989763 0.309545
vt 0.831692 0.414036
vt 0.831799 0.713343
vt 0.831692 0.713343
vt 0.817016 0.010238
vt 0.187929 0.432464
vt 0.806064 0.758975
vt 0.045983 0.732136
vt 0.774436 0.553797
vt 0.774222 0.553804
vt 0.541343 0.738533
vt 0.817016 0.309910
vt 0.710821 0.309909
vt 0.208800 0.574143
vt 0.208585 0.574137
vt 0.240219 0.777868
vt 0.208799 0.672956
vt 0.240425 0.777875
vt 0.675719 0.309910
vt 0.805858 0.758982
vt 0.774436 0.652612
vt 0.320416 0.639507
vt 0.323919 0.829534
vt 0.312726 0.646955
vt 0.245317 0.812653
vt 0.852137 0.713527
vt 0.846678 0.713526
vt 0.878096 0.629660
vt 0.878313 0.628554
vt 0.879149 0.627515
vt 0.857178 0.713528
vt 0.220320 0.613616
vt 0.215816 0.609517
vt 0.220508 0.613591
vt 0.015220 0.732136
vt 0.010237 0.732136
vt 0.215608 0.609511
vt 0.212084 0.604661
vt 0.020488 0.732136
vt 0.211864 0.604625
vt 0.209678 0.599500
vt 0.025524 0.732136
vt 0.774222 0.652619
vt 0.774256 0.632308
vt 0.025524 0.432464
vt 0.879700 0.626653
vt 0.885793 0.621441
vt 0.015233 0.432647
vt 0.020488 0.432464
vt 0.777501 0.622130
vt 0.775315 0.627255
vt 0.775092 0.627321
vt 0.015220 0.432464
vt 0.781245 0.617243
vt 0.777721 0.622094
vt 0.857178 0.413856
vt 0.857262 0.414038
vt 0.785957 0.613138
vt 0.781453 0.617237
vt 0.852137 0.413855
vt 0.225537 0.616536
vt 0.270854 0.432465
vt 0.276236 0.432466
vt 0.220286 0.633139
vt 0.220097 0.633099
vt 0.225215 0.629916
vt 0.265875 0.432464
vt 0.785734 0.593654
vt 0.781321 0.589304
vt 0.785923 0.593614
vt 0.852673 0.010420
vt 0.847619 0.010238
vt 0.852671 0.010238
vt 0.781112 0.589312
vt 0.777659 0.584261
vt 0.842306 0.010238
vt 0.777439 0.584238
vt 0.775299 0.578979
vt 0.837255 0.010238
vt 0.320415 0.626372
vt 0.320189 0.626378
vt 0.314322 0.621161
vt 0.837255 0.309910
vt 0.774255 0.573897
vt 0.842306 0.309910
vt 0.211802 0.642516
vt 0.209662 0.647775
vt 0.209439 0.647829
vt 0.847619 0.309910
vt 0.215475 0.637441
vt 0.212022 0.642493
vt 0.265875 0.732136
vt 0.215684 0.637450
vt 0.270854 0.732137
vt 0.786146 0.613162
vt 0.791175 0.610217
vt 0.831431 0.713526
vt 0.846678 0.413855
vt 0.831431 0.413853
vt 0.291883 0.432467
vt 0.276236 0.732138
vt 0.291883 0.732139
vt 0.873147 0.334917
vt 0.885567 0.621435
vt 0.886378 0.010237
vt 0.320189 0.639513
vt 0.010237 0.408706
vt 0.010237 0.013416
vt 0.889471 0.810669
vt 0.324093 0.829581
vt 0.873147 0.010237
vt 0.886378 0.334917
vt 0.749703 0.738533
vt 0.877895 0.600830
vt 0.877737 0.599829
vt 0.750718 0.738533
vt 0.313771 0.620298
vt 0.312935 0.619259
vt 0.751841 0.738533
vt 0.752900 0.738532
vt 0.313831 0.644874
vt 0.314418 0.644071
vt 0.753747 0.414035
vt 0.752900 0.413853
vt 0.753734 0.413853
vt 0.208619 0.594447
vt 0.751841 0.413853
vt 0.879210 0.602940
vt 0.878342 0.601925
vt 0.750718 0.413852
vt 0.750709 0.414035
vt 0.749703 0.413852
vt 0.877736 0.810832
vt 0.877737 0.630686
vt 0.357559 0.414035
vt 0.358561 0.413853
vt 0.208585 0.672950
vt 0.208619 0.652857
vt 0.357549 0.413853
vt 0.355391 0.414035
vt 0.356438 0.413853
vt 0.943506 0.010239
vt 0.885568 0.608300
vt 0.879797 0.603743
vt 0.943506 0.334919
vt 0.942655 0.334918
vt 0.790853 0.596837
vt 0.356438 0.738533
vt 0.355397 0.738533
vt 0.312963 0.645889
vt 0.357549 0.738533
vt 0.358561 0.738533
vt 0.312358 0.647986
vt 0.312563 0.829450
vt 0.810956 0.794112
vt 0.541343 0.413853
vt 0.939600 0.738533
vt 0.939600 0.413852
vt 0.939525 0.414034
vt 0.568247 0.413853
vt 0.568247 0.738533
vt 0.942656 0.010239
vt 0.936608 0.334735
vt 0.322848 0.832566
vt 0.889471 0.418236
vt 0.319617 0.833774
vt 0.319646 0.833964
vt 0.912978 0.010237
vt 0.884996 0.414043
vt 0.888030 0.415058
vt 0.912978 0.334918
vt 0.877942 0.418368
vt 0.878974 0.415367
vt 0.312357 0.829452
vt 0.882220 0.414078
vt 0.882176 0.413888
vt 0.910124 0.334918
vt 0.316842 0.833740
vt 0.313792 0.832649
vt 0.910124 0.010238
vt 0.885024 0.413853
vt 0.316798 0.833929
vt 0.910115 0.010420
vt 0.888182 0.813790
vt 0.324093 0.437140
vt 0.884875 0.815314
vt 0.913119 0.738532
vt 0.322608 0.433821
vt 0.913118 0.413852
vt 0.313639 0.433905
vt 0.316990 0.432636
vt 0.316946 0.432464
vt 0.915675 0.413852
vt 0.882369 0.815173
vt 0.879214 0.814098
vt 0.915675 0.738532
vt 0.319497 0.432496
vt 0.882325 0.815346
vt 0.312509 0.618138
vt 0.312357 0.436978
vt 0.265792 0.432646
vt 0.873147 0.010420
vt 0.964059 0.010420
vt 0.805857 0.414031
vt 0.964240 0.309909
vt 0.969182 0.309727
vt 0.971309 0.413853
vt 0.966370 0.414035
vt 0.971486 0.713342
vt 0.355391 0.010420
vt 0.240219 0.432706
vt 0.880043 0.334884
vt 0.888998 0.614530
vt 0.880042 0.010271
vt 0.323620 0.633283
vt 0.334884 0.010261
vt 0.916016 0.010270
vt 0.906874 0.010271
vt 0.544476 0.413886
vt 0.916016 0.334884
vt 0.010270 0.010261
vt 0.544476 0.738499
vt 0.906874 0.334884
vt 0.909971 0.413886
vt 0.334884 0.411965
vt 0.564999 0.413886
vt 0.919029 0.413886
vt 0.010271 0.411965
vt 0.909971 0.738499
vt 0.919029 0.738499
vt 0.564998 0.738499
vt 0.989656 0.010238
vt 0.877887 0.629676
vt 0.878950 0.627493
vt 0.209455 0.599434
vt 0.010237 0.432465
vt 0.240261 0.622713
vt 0.775076 0.578925
vt 0.313572 0.620321
vt 0.852671 0.309910
vt 0.805900 0.604038
vt 0.877736 0.418366
vt 0.753734 0.738533
vt 0.313631 0.644866
vt 0.879010 0.602948
vt 0.355397 0.413853
vt 0.312516 0.646984
vt 0.945896 0.738533
vt 0.945896 0.413853
vt 0.936517 0.010237
vt 0.936517 0.334917
s 1
f 22/1/1 85/2/2 87/3/3
f 51/4/4 30/5/5 44/6/6
f 57/7/7 125/8/8 63/9/9
f 70/10/10 109/11/11 78/12/12
f 73/13/13 36/14/14 50/15/15
f 288/16/16 232/17/17 233/18/18
f 87/3/3 82/19/19 90/20/20
f 3/21/21 24/22/22 16/23/23
f 64/24/24 84/25/25 2/26/26
f 141/27/27 82/19/19 127/28/28
f 93/29/29 122/30/30 97/31/31
f 93/29/29 65/32/32 111/33/33
f 205/34/34 198/35/35 296/36/36
f 75/37/37 80/38/38 77/39/39
f 45/40/40 1/41/41 15/42/42
f 309/43/43 312/44/44 325/45/45
f 181/46/46 229/47/47 260/48/48
f 261/49/49 287/50/50 310/51/51
f 113/52/52 95/53/53 106/54/54
f 119/55/55 103/56/56 100/57/57
f 103/56/56 113/52/52 106/54/54
f 129/58/58 143/59/59 154/60/60
f 122/30/30 100/61/57 97/31/31
f 151/62/61 129/58/58 154/60/60
f 221/63/62 248/64/63 271/65/64
f 145/66/65 135/67/66 148/68/67
f 135/67/66 151/69/61 148/68/67
f 141/27/27 138/70/68 145/66/65
f 251/71/69 274/72/70 278/73/71
f 172/74/72 165/75/73 158/76/74
f 287/50/50 316/77/75 310/51/51
f 159/78/76 178/79/77 180/80/78
f 185/81/79 174/82/80 172/83/72
f 219/84/81 178/85/77 209/86/82
f 286/87/83 296/36/36 283/88/84
f 326/89/85 197/90/86 183/91/87
f 197/90/86 187/92/88 183/91/87
f 59/93/89 72/94/90 43/95/91
f 199/96/92 185/97/79 192/98/93
f 202/99/94 192/98/93 190/100/95
f 228/101/96 207/102/97 221/63/62
f 187/92/88 202/99/94 190/100/95
f 214/103/98 228/101/96 226/104/99
f 261/49/49 238/105/100 232/17/17
f 223/106/101 214/103/98 226/104/99
f 219/84/81 216/107/102 223/108/101
f 239/109/103 258/110/104 235/111/105
f 274/72/70 235/111/105 258/110/104
f 290/112/106 313/113/107 317/114/108
f 248/64/63 277/115/109 271/65/64
f 297/116/110 330/117/111 303/118/112
f 284/119/113 323/120/114 313/113/107
f 329/121/115 300/122/116 304/123/117
f 1/41/41 5/124/118 7/125/119
f 2/26/26 5/126/120 4/127/121
f 3/21/21 5/128/122 6/129/123
f 8/130/124 12/131/125 14/132/126
f 9/133/127 12/134/128 11/135/129
f 10/136/130 12/137/131 13/138/132
f 15/42/42 19/139/133 21/140/134
f 16/23/23 19/141/135 18/142/136
f 17/143/137 19/144/138 20/145/139
f 22/1/1 26/146/140 28/147/141
f 23/148/142 26/149/143 25/150/144
f 24/22/22 26/151/145 27/152/146
f 29/153/147 33/154/148 35/155/149
f 30/5/5 33/156/150 32/157/151
f 31/158/152 33/159/153 34/160/154
f 36/14/14 40/161/155 42/162/156
f 37/163/157 40/164/158 39/165/159
f 38/166/160 40/167/161 41/168/162
f 43/95/91 47/169/163 49/170/164
f 44/6/6 47/171/165 46/172/166
f 45/40/40 47/173/167 48/174/168
f 50/15/15 54/175/169 56/176/170
f 51/4/4 54/177/171 53/178/172
f 52/179/173 54/180/174 55/181/175
f 57/182/176 61/183/177 62/184/178
f 58/185/179 61/183/177 60/186/180
f 63/187/181 66/188/182 68/189/183
f 65/190/184 66/188/182 67/191/185
f 160/192/186 163/193/187 158/76/74
f 162/194/188 160/192/186 159/78/76
f 163/195/189 162/196/190 157/197/191
f 167/198/192 170/199/193 164/200/194
f 169/201/195 167/198/192 165/75/73
f 170/202/196 169/203/197 166/204/198
f 237/205/199 241/206/200 243/207/201
f 242/208/202 240/209/203 238/105/100
f 243/210/204 242/211/202 239/109/103
f 250/212/205 254/213/206 256/214/207
f 255/215/208 253/216/209 251/71/69
f 256/217/210 255/218/208 252/219/211
f 263/220/212 267/221/213 269/222/214
f 268/223/215 266/224/216 264/225/217
f 269/226/218 268/227/215 265/228/219
f 276/229/220 280/230/221 282/231/222
f 281/232/223 279/233/224 277/115/109
f 282/234/225 281/235/223 278/73/71
f 289/236/226 293/237/227 295/238/228
f 294/239/229 292/240/230 290/112/106
f 295/241/231 294/242/229 291/243/232
f 302/244/233 306/245/234 308/246/235
f 307/247/236 305/248/237 303/118/112
f 308/249/238 307/250/236 304/123/117
f 315/251/239 319/252/240 321/253/241
f 320/254/242 318/255/243 316/77/75
f 321/256/244 320/257/242 317/114/108
f 328/258/245 332/259/246 334/260/247
f 333/261/248 331/262/249 329/121/115
f 334/263/250 333/264/248 330/117/111
f 1/41/41 18/265/251 15/42/42
f 18/142/136 3/21/21 16/23/23
f 8/130/124 6/266/252 2/26/26
f 14/267/253 3/21/21 6/129/123
f 22/1/1 13/268/254 9/133/127
f 13/138/132 24/22/22 10/136/130
f 23/148/142 20/145/139 27/269/255
f 27/152/146 16/23/23 24/22/22
f 73/13/13 56/176/170 74/270/256
f 74/271/257 52/179/173 72/94/90
f 44/6/6 55/272/258 51/4/4
f 46/273/259 52/179/173 55/181/175
f 45/40/40 32/274/260 29/153/147
f 32/157/151 44/6/6 30/5/5
f 36/14/14 53/275/261 50/15/15
f 53/178/172 38/166/160 51/4/4
f 37/163/157 34/160/154 41/276/262
f 41/168/162 30/5/5 38/166/160
f 29/153/147 4/277/263 1/41/41
f 9/133/127 86/278/264 85/2/2
f 86/279/265 8/130/124 84/25/25
f 57/280/7 68/281/266 60/282/267
f 68/283/268 58/284/269 60/285/270
f 85/2/2 83/286/271 82/19/19
f 36/14/14 77/39/39 39/287/272
f 39/165/159 76/288/273 37/163/157
f 73/13/13 71/289/274 70/10/10
f 86/279/265 81/290/275 83/291/276
f 272/292/277 221/63/62 271/65/64
f 87/3/3 92/293/278 89/294/279
f 74/271/257 69/295/280 71/296/281
f 89/297/282 91/298/283 88/299/284
f 22/1/1 89/294/279 25/300/285
f 25/150/144 88/299/284 23/148/142
f 73/13/13 78/12/12 75/37/37
f 77/301/286 79/302/287 76/288/273
f 177/303/288 231/304/289 212/305/290
f 21/306/291 43/95/91 49/170/164
f 93/29/29 99/307/292 94/308/293
f 188/309/294 191/310/295 193/311/296
f 97/31/31 102/312/297 99/307/292
f 99/313/298 101/314/299 98/315/300
f 100/57/57 105/316/301 102/317/297
f 102/318/302 104/319/303 101/314/299
f 103/56/56 108/320/304 105/316/301
f 105/321/305 107/322/306 104/319/303
f 106/54/54 96/323/307 108/320/304
f 79/302/287 80/324/308 110/325/309
f 113/52/52 110/326/310 109/11/11
f 193/311/296 186/327/311 171/328/312
f 116/329/313 115/330/314 113/52/52
f 118/331/315 114/332/316 115/333/317
f 119/55/55 118/334/318 116/329/313
f 121/335/319 117/336/320 118/331/315
f 122/30/30 121/337/321 119/338/55
f 124/339/322 120/340/323 121/335/319
f 111/33/33 124/341/324 122/30/30
f 94/342/325 98/315/300 59/93/326
f 125/8/8 131/343/327 126/344/328
f 155/345/329 156/346/330 144/347/331
f 129/58/58 134/348/332 131/343/327
f 131/349/333 133/350/334 130/351/335
f 132/352/336 137/353/337 134/354/332
f 134/355/338 136/356/339 133/350/334
f 135/67/66 140/357/340 137/353/337
f 137/358/341 139/359/342 136/356/339
f 138/70/68 128/360/343 140/357/340
f 175/361/344 176/362/345 196/363/346
f 145/66/65 142/364/347 141/27/27
f 139/359/342 128/365/348 81/290/275
f 148/68/67 147/366/349 145/66/65
f 150/367/350 146/368/351 147/369/352
f 151/69/61 150/370/353 148/68/67
f 153/371/354 149/372/355 150/367/350
f 154/60/60 153/373/356 151/62/61
f 156/346/330 152/374/357 153/371/354
f 143/59/59 156/375/358 154/60/60
f 123/376/359 124/339/322 112/377/360
f 58/284/269 94/308/293 62/378/361
f 95/53/53 71/289/274 96/323/307
f 112/379/362 65/32/32 67/380/363
f 80/38/38 109/11/11 110/326/310
f 63/9/9 126/344/328 67/381/364
f 127/28/28 83/286/271 128/360/343
f 144/382/365 57/7/7 62/383/366
f 92/293/278 141/27/27 142/364/347
f 158/76/74 173/384/367 172/74/72
f 163/195/189 171/328/312 173/385/368
f 164/200/194 179/386/369 178/79/77
f 170/202/196 177/303/288 179/387/370
f 165/75/73 160/192/371 158/76/74
f 167/198/372 159/78/76 160/192/371
f 261/49/49 311/388/373 262/389/374
f 311/390/375 309/43/43 157/197/191
f 233/391/376 231/304/289 166/204/198
f 165/75/73 176/392/377 169/201/195
f 169/203/197 175/361/344 166/204/198
f 159/78/76 182/393/378 162/194/188
f 162/196/190 181/46/46 157/197/191
f 187/92/88 184/394/379 183/91/87
f 229/47/47 230/395/380 222/396/381
f 190/100/95 189/397/382 187/92/88
f 200/398/383 203/399/384 205/34/34
f 192/98/93 191/400/385 190/100/95
f 185/97/79 194/401/386 192/98/93
f 217/402/387 210/403/388 177/303/288
f 195/404/389 201/405/390 196/406/391
f 107/322/306 96/407/392 69/295/280
f 199/96/92 203/408/393 201/405/390
f 224/409/394 227/410/395 229/47/47
f 202/99/94 206/411/396 203/408/393
f 204/412/397 198/413/398 206/411/396
f 325/45/45 327/414/399 184/415/400
f 211/416/401 208/417/402 207/102/97
f 91/298/283 92/418/403 142/419/404
f 214/103/98 213/420/405 211/416/401
f 216/421/102 215/422/406 214/103/98
f 209/86/82 218/423/407 216/107/102
f 181/46/46 182/424/408 220/425/409
f 219/84/81 225/426/410 220/427/411
f 126/428/412 130/351/335 64/24/413
f 223/106/101 227/429/414 225/430/410
f 212/305/290 215/431/415 217/402/387
f 226/104/99 230/432/416 227/429/414
f 228/101/96 222/433/417 230/432/416
f 208/434/418 212/305/290 247/435/419
f 35/436/420 2/26/26 4/127/121
f 207/102/97 249/437/421 248/64/63
f 172/83/72 186/438/422 185/81/79
f 196/439/391 174/82/80 195/440/389
f 197/90/86 298/441/423 198/413/398
f 327/442/424 183/91/87 184/394/379
f 178/85/77 210/443/425 209/86/82
f 220/427/411 180/444/78 219/84/81
f 231/304/289 240/445/426 237/205/199
f 233/18/18 238/105/100 240/209/203
f 260/48/48 269/222/214 262/446/427
f 262/389/374 265/228/219 261/49/49
f 264/225/217 242/211/202 268/223/215
f 242/208/202 265/228/219 268/227/215
f 234/447/428 243/207/201 236/448/429
f 236/449/430 239/109/103 235/111/105
f 257/450/431 266/451/432 263/220/212
f 259/452/433 264/225/217 266/224/216
f 270/453/434 279/454/435 276/229/220
f 272/292/277 277/115/109 279/233/224
f 247/435/419 256/214/207 249/455/436
f 249/437/421 252/219/211 248/64/63
f 278/73/71 255/215/208 251/71/69
f 255/218/208 277/115/109 252/219/211
f 273/456/437 282/231/222 275/457/438
f 275/458/439 278/73/71 274/72/70
f 244/459/440 253/460/441 250/212/205
f 246/461/442 251/71/69 253/216/209
f 273/456/437 259/462/443 257/450/431
f 259/452/433 274/72/70 258/110/104
f 234/447/428 246/463/444 244/459/440
f 246/461/442 235/111/105 245/464/445
f 309/43/43 318/465/446 315/251/239
f 311/388/373 316/77/75 318/255/243
f 286/87/83 295/238/228 288/466/447
f 288/16/16 291/243/232 287/50/50
f 290/112/106 320/257/242 294/239/229
f 320/254/242 291/243/232 294/242/229
f 312/44/44 321/253/241 314/467/448
f 314/468/449 317/114/108 313/113/107
f 283/88/84 292/469/450 289/236/226
f 285/470/451 290/112/106 292/240/230
f 296/36/36 305/471/452 302/244/233
f 298/441/423 303/118/112 305/248/237
f 325/45/45 334/260/247 327/414/399
f 327/442/424 330/117/111 326/89/85
f 304/123/117 333/261/248 329/121/115
f 307/247/236 330/117/111 333/264/248
f 299/472/453 308/246/235 301/473/454
f 301/474/455 304/123/117 300/122/116
f 322/475/456 331/476/457 328/258/245
f 324/477/458 329/121/115 331/262/249
f 21/140/134 45/40/40 15/42/42
f 283/88/84 301/473/454 285/478/459
f 301/474/455 284/119/113 285/470/451
f 312/44/44 324/479/460 322/475/456
f 314/468/449 323/120/114 324/477/458
f 22/1/1 9/133/127 85/2/2
f 51/4/4 38/166/160 30/5/5
f 57/7/7 143/59/59 125/8/8
f 70/10/10 95/53/53 109/11/11
f 73/13/13 75/37/37 36/14/14
f 288/16/16 287/50/50 232/17/17
f 87/3/3 85/2/2 82/19/19
f 3/21/21 10/136/130 24/22/22
f 64/24/24 130/351/335 81/290/275
f 130/351/335 133/350/334 139/359/342
f 81/290/275 130/351/335 139/359/342
f 133/350/334 136/356/339 139/359/342
f 81/290/275 84/25/25 64/24/24
f 84/25/25 8/130/124 2/26/26
f 2/26/26 31/158/152 64/24/24
f 31/158/152 37/163/157 76/288/273
f 76/288/273 79/302/287 64/24/24
f 79/302/287 114/332/316 123/376/359
f 64/24/24 79/302/287 123/376/359
f 31/158/152 76/288/273 64/24/24
f 114/332/316 117/336/320 120/340/323
f 120/340/323 123/376/359 114/332/316
f 141/27/27 90/20/20 82/19/19
f 93/29/29 111/33/33 122/30/30
f 93/29/29 58/284/269 65/32/32
f 206/480/461 198/35/35 205/34/34
f 198/35/35 298/481/462 296/36/36
f 75/37/37 78/12/12 80/38/38
f 45/40/40 29/153/147 1/41/41
f 325/45/45 188/309/294 309/43/43
f 188/309/294 193/311/296 171/328/312
f 171/328/312 157/197/191 309/43/43
f 188/309/294 171/328/312 309/43/43
f 322/475/456 328/258/245 325/45/45
f 315/251/239 312/44/44 309/43/43
f 312/44/44 322/475/456 325/45/45
f 181/46/46 224/409/394 229/47/47
f 229/47/47 270/453/434 260/48/48
f 270/453/434 276/229/220 273/456/437
f 260/48/48 270/453/434 257/450/431
f 273/456/437 257/450/431 270/453/434
f 257/450/431 263/220/212 260/48/48
f 260/48/48 157/197/191 181/46/46
f 261/49/49 232/17/17 287/50/50
f 113/52/52 109/11/11 95/53/53
f 119/55/55 116/329/313 103/56/56
f 103/56/56 116/329/313 113/52/52
f 129/58/58 125/8/8 143/59/59
f 122/30/30 119/338/55 100/61/57
f 151/62/61 132/482/336 129/58/58
f 221/63/62 207/102/97 248/64/63
f 145/66/65 138/70/68 135/67/66
f 135/67/66 132/352/336 151/69/61
f 141/27/27 127/28/28 138/70/68
f 251/71/69 245/464/445 274/72/70
f 172/74/72 174/483/80 165/75/73
f 287/50/50 291/243/232 316/77/75
f 159/78/76 164/200/194 178/79/77
f 185/81/79 195/440/389 174/82/80
f 219/84/81 180/444/78 178/85/77
f 200/398/383 205/34/34 175/361/344
f 205/34/34 296/36/36 286/87/83
f 175/361/344 205/34/34 286/87/83
f 296/36/36 302/244/233 299/472/453
f 299/472/453 283/88/84 296/36/36
f 283/88/84 289/236/226 286/87/83
f 286/87/83 166/204/198 175/361/344
f 326/89/85 297/116/110 197/90/86
f 197/90/86 204/412/397 187/92/88
f 59/93/89 98/315/300 69/295/280
f 98/315/300 101/314/299 107/322/306
f 69/295/280 98/315/300 107/322/306
f 101/314/299 104/319/303 107/322/306
f 69/295/280 72/94/90 59/93/89
f 72/94/90 52/179/173 43/95/91
f 43/95/91 17/143/137 59/93/89
f 17/143/137 23/148/142 88/299/284
f 88/299/284 91/298/283 59/93/89
f 91/298/283 146/368/351 155/345/329
f 59/93/89 91/298/283 155/345/329
f 17/143/137 88/299/284 59/93/89
f 146/368/351 149/372/355 152/374/357
f 152/374/357 155/345/329 146/368/351
f 199/96/92 195/404/389 185/97/79
f 202/99/94 199/96/92 192/98/93
f 228/101/96 211/416/401 207/102/97
f 187/92/88 204/412/397 202/99/94
f 214/103/98 211/416/401 228/101/96
f 261/49/49 265/228/219 238/105/100
f 223/106/101 216/421/102 214/103/98
f 219/84/81 209/86/82 216/107/102
f 239/109/103 264/225/217 258/110/104
f 274/72/70 245/464/445 235/111/105
f 290/112/106 284/119/113 313/113/107
f 248/64/63 252/219/211 277/115/109
f 297/116/110 326/89/85 330/117/111
f 284/119/113 300/122/116 323/120/114
f 329/121/115 323/120/114 300/122/116
f 1/41/41 4/277/263 5/124/118
f 2/26/26 6/266/252 5/126/120
f 3/21/21 7/484/463 5/128/122
f 8/130/124 11/485/464 12/131/125
f 9/133/127 13/268/254 12/134/128
f 10/136/130 14/267/253 12/137/131
f 15/42/42 18/265/251 19/139/133
f 16/23/23 20/486/465 19/141/135
f 17/143/137 21/306/291 19/144/138
f 22/1/1 25/300/285 26/146/140
f 23/148/142 27/269/255 26/149/143
f 24/22/22 28/487/466 26/151/145
f 29/153/147 32/274/260 33/154/148
f 30/5/5 34/488/467 33/156/150
f 31/158/152 35/436/420 33/159/153
f 36/14/14 39/287/272 40/161/155
f 37/163/157 41/276/262 40/164/158
f 38/166/160 42/489/468 40/167/161
f 43/95/91 46/273/259 47/169/163
f 44/6/6 48/490/469 47/171/165
f 45/40/40 49/491/470 47/173/167
f 50/15/15 53/275/261 54/175/169
f 51/4/4 55/272/258 54/177/171
f 52/179/173 56/492/471 54/180/174
f 57/182/176 60/186/180 61/183/177
f 58/185/179 62/184/472 61/183/177
f 63/187/181 67/191/473 66/188/182
f 65/190/184 68/189/183 66/188/182
f 160/192/186 161/493/474 163/193/187
f 162/194/188 161/493/474 160/192/186
f 163/195/189 161/494/475 162/196/190
f 167/198/192 168/495/476 170/199/193
f 169/201/195 168/495/476 167/198/192
f 170/202/196 168/496/477 169/203/197
f 237/205/199 240/445/426 241/206/200
f 242/208/202 241/497/478 240/209/203
f 243/210/204 241/498/478 242/211/202
f 250/212/205 253/460/441 254/213/206
f 255/215/208 254/499/479 253/216/209
f 256/217/210 254/500/479 255/218/208
f 263/220/212 266/451/432 267/221/213
f 268/223/215 267/501/480 266/224/216
f 269/226/218 267/502/480 268/227/215
f 276/229/220 279/454/435 280/230/221
f 281/232/223 280/503/481 279/233/224
f 282/234/225 280/504/481 281/235/223
f 289/236/226 292/469/450 293/237/227
f 294/239/229 293/505/482 292/240/230
f 295/241/231 293/506/482 294/242/229
f 302/244/233 305/471/452 306/245/234
f 307/247/236 306/507/483 305/248/237
f 308/249/238 306/508/483 307/250/236
f 315/251/239 318/465/446 319/252/240
f 320/254/242 319/509/484 318/255/243
f 321/256/244 319/510/484 320/257/242
f 328/258/245 331/476/457 332/259/246
f 333/261/248 332/511/485 331/262/249
f 334/263/250 332/512/485 333/264/248
f 1/41/41 7/125/119 18/265/251
f 18/142/136 7/484/463 3/21/21
f 8/130/124 14/132/126 6/266/252
f 14/267/253 10/136/130 3/21/21
f 22/1/1 28/147/141 13/268/254
f 13/138/132 28/487/466 24/22/22
f 23/148/142 17/143/137 20/145/139
f 27/152/146 20/486/465 16/23/23
f 73/13/13 50/15/15 56/176/170
f 74/271/257 56/492/471 52/179/173
f 44/6/6 46/172/166 55/272/258
f 46/273/259 43/95/91 52/179/173
f 45/40/40 48/174/168 32/274/260
f 32/157/151 48/490/469 44/6/6
f 36/14/14 42/162/156 53/275/261
f 53/178/172 42/489/468 38/166/160
f 37/163/157 31/158/152 34/160/154
f 41/168/162 34/488/467 30/5/5
f 29/153/147 35/155/149 4/277/263
f 9/133/127 11/135/129 86/278/264
f 86/279/265 11/485/464 8/130/124
f 57/280/7 63/513/9 68/281/266
f 68/283/268 65/32/32 58/284/269
f 85/2/2 86/278/264 83/286/271
f 36/14/14 75/37/37 77/39/39
f 39/165/159 77/301/286 76/288/273
f 73/13/13 74/270/256 71/289/274
f 86/279/265 84/25/25 81/290/275
f 272/292/277 222/433/417 221/63/62
f 87/3/3 90/20/20 92/293/278
f 74/271/257 72/94/90 69/295/280
f 89/297/282 92/418/403 91/298/283
f 22/1/1 87/3/3 89/294/279
f 25/150/144 89/297/282 88/299/284
f 73/13/13 70/10/10 78/12/12
f 77/301/286 80/324/308 79/302/287
f 177/303/288 166/204/198 231/304/289
f 231/304/289 237/205/199 234/447/428
f 234/447/428 244/459/440 247/435/419
f 244/459/440 250/212/205 247/435/419
f 247/435/419 212/305/290 231/304/289
f 234/447/428 247/435/419 231/304/289
f 212/305/290 217/402/387 177/303/288
f 21/306/291 17/143/137 43/95/91
f 93/29/29 97/31/31 99/307/292
f 189/514/486 191/310/295 188/309/294
f 191/310/295 194/515/487 193/311/296
f 97/31/31 100/61/57 102/312/297
f 99/313/298 102/318/302 101/314/299
f 100/57/57 103/56/56 105/316/301
f 102/318/302 105/321/305 104/319/303
f 103/56/56 106/54/54 108/320/304
f 105/321/305 108/516/488 107/322/306
f 106/54/54 95/53/53 96/323/307
f 115/333/317 114/332/316 110/325/309
f 114/332/316 79/302/287 110/325/309
f 113/52/52 115/330/314 110/326/310
f 194/515/487 186/327/311 193/311/296
f 186/327/311 173/385/368 171/328/312
f 116/329/313 118/334/318 115/330/314
f 118/331/315 117/336/320 114/332/316
f 119/55/55 121/517/321 118/334/318
f 121/335/319 120/340/323 117/336/320
f 122/30/30 124/341/324 121/337/321
f 124/339/322 123/376/359 120/340/323
f 111/33/33 112/379/362 124/341/324
f 59/93/326 62/518/489 94/342/325
f 94/342/325 99/313/298 98/315/300
f 125/8/8 129/58/58 131/343/327
f 62/518/490 59/93/491 144/347/331
f 59/93/491 155/345/329 144/347/331
f 129/58/58 132/482/336 134/348/332
f 131/349/333 134/355/338 133/350/334
f 132/352/336 135/67/66 137/353/337
f 134/355/338 137/358/341 136/356/339
f 135/67/66 138/70/68 140/357/340
f 137/358/341 140/519/492 139/359/342
f 138/70/68 127/28/28 128/360/343
f 201/520/493 200/398/383 196/363/346
f 200/398/383 175/361/344 196/363/346
f 145/66/65 147/366/349 142/364/347
f 140/519/492 128/365/348 139/359/342
f 128/365/348 83/291/276 81/290/275
f 148/68/67 150/370/353 147/366/349
f 150/367/350 149/372/355 146/368/351
f 151/69/61 153/521/356 150/370/353
f 153/371/354 152/374/357 149/372/355
f 154/60/60 156/375/358 153/373/356
f 156/346/330 155/345/329 152/374/357
f 143/59/59 144/382/365 156/375/358
f 67/522/494 64/24/495 112/377/360
f 64/24/495 123/376/359 112/377/360
f 58/284/269 93/29/29 94/308/293
f 95/53/53 70/10/10 71/289/274
f 112/379/362 111/33/33 65/32/32
f 80/38/38 78/12/12 109/11/11
f 63/9/9 125/8/8 126/344/328
f 127/28/28 82/19/19 83/286/271
f 144/382/365 143/59/59 57/7/7
f 92/293/278 90/20/20 141/27/27
f 158/76/74 163/193/187 173/384/367
f 163/195/189 157/197/191 171/328/312
f 164/200/194 170/199/193 179/386/369
f 170/202/196 166/204/198 177/303/288
f 165/75/73 167/198/372 160/192/371
f 167/198/372 164/200/194 159/78/76
f 261/49/49 310/51/51 311/388/373
f 260/48/48 262/446/427 157/197/191
f 262/446/427 311/390/375 157/197/191
f 286/87/83 288/466/447 166/204/198
f 288/466/447 233/391/376 166/204/198
f 165/75/73 174/483/80 176/392/377
f 169/203/197 176/362/345 175/361/344
f 159/78/76 180/80/78 182/393/378
f 162/196/190 182/424/408 181/46/46
f 187/92/88 189/397/382 184/394/379
f 272/523/496 270/453/434 222/396/381
f 270/453/434 229/47/47 222/396/381
f 190/100/95 191/400/385 189/397/382
f 201/520/493 203/399/384 200/398/383
f 203/399/384 206/480/461 205/34/34
f 192/98/93 194/401/386 191/400/385
f 185/97/79 186/524/422 194/401/386
f 218/525/497 210/403/388 217/402/387
f 210/403/388 179/387/370 177/303/288
f 195/404/389 199/96/92 201/405/390
f 108/516/488 96/407/392 107/322/306
f 96/407/392 71/296/281 69/295/280
f 199/96/92 202/99/94 203/408/393
f 225/526/498 227/410/395 224/409/394
f 227/410/395 230/395/380 229/47/47
f 202/99/94 204/412/397 206/411/396
f 204/412/397 197/90/86 198/413/398
f 189/514/486 188/309/294 184/415/400
f 188/309/294 325/45/45 184/415/400
f 211/416/401 213/420/405 208/417/402
f 147/369/352 146/368/351 142/419/404
f 146/368/351 91/298/283 142/419/404
f 214/103/98 215/422/406 213/420/405
f 216/421/102 218/527/407 215/422/406
f 209/86/82 210/443/425 218/423/407
f 225/526/498 224/409/394 220/425/409
f 224/409/394 181/46/46 220/425/409
f 219/84/81 223/108/101 225/426/410
f 64/24/413 67/522/499 126/428/412
f 126/428/412 131/349/333 130/351/335
f 223/106/101 226/104/99 227/429/414
f 213/528/500 215/431/415 212/305/290
f 215/431/415 218/525/497 217/402/387
f 226/104/99 228/101/96 230/432/416
f 228/101/96 221/63/62 222/433/417
f 247/435/419 249/455/436 208/434/418
f 208/434/418 213/528/500 212/305/290
f 35/436/420 31/158/152 2/26/26
f 207/102/97 208/417/402 249/437/421
f 172/83/72 173/529/367 186/438/422
f 196/439/391 176/530/377 174/82/80
f 197/90/86 297/116/110 298/441/423
f 327/442/424 326/89/85 183/91/87
f 178/85/77 179/531/369 210/443/425
f 220/427/411 182/532/378 180/444/78
f 231/304/289 233/391/376 240/445/426
f 233/18/18 232/17/17 238/105/100
f 260/48/48 263/220/212 269/222/214
f 262/389/374 269/226/218 265/228/219
f 264/225/217 239/109/103 242/211/202
f 242/208/202 238/105/100 265/228/219
f 234/447/428 237/205/199 243/207/201
f 236/449/430 243/210/204 239/109/103
f 257/450/431 259/462/443 266/451/432
f 259/452/433 258/110/104 264/225/217
f 270/453/434 272/523/496 279/454/435
f 272/292/277 271/65/64 277/115/109
f 247/435/419 250/212/205 256/214/207
f 249/437/421 256/217/210 252/219/211
f 278/73/71 281/235/223 255/215/208
f 255/218/208 281/232/223 277/115/109
f 273/456/437 276/229/220 282/231/222
f 275/458/439 282/234/225 278/73/71
f 244/459/440 246/463/444 253/460/441
f 246/461/442 245/464/445 251/71/69
f 273/456/437 275/457/438 259/462/443
f 259/452/433 275/458/439 274/72/70
f 234/447/428 236/448/429 246/463/444
f 246/461/442 236/449/430 235/111/105
f 309/43/43 311/390/375 318/465/446
f 311/388/373 310/51/51 316/77/75
f 286/87/83 289/236/226 295/238/228
f 288/16/16 295/241/231 291/243/232
f 290/112/106 317/114/108 320/257/242
f 320/254/242 316/77/75 291/243/232
f 312/44/44 315/251/239 321/253/241
f 314/468/449 321/256/244 317/114/108
f 283/88/84 285/478/459 292/469/450
f 285/470/451 284/119/113 290/112/106
f 296/36/36 298/481/462 305/471/452
f 298/441/423 297/116/110 303/118/112
f 325/45/45 328/258/245 334/260/247
f 327/442/424 334/263/250 330/117/111
f 304/123/117 307/250/236 333/261/248
f 307/247/236 303/118/112 330/117/111
f 299/472/453 302/244/233 308/246/235
f 301/474/455 308/249/238 304/123/117
f 322/475/456 324/479/460 331/476/457
f 324/477/458 323/120/114 329/121/115
f 21/140/134 49/491/470 45/40/40
f 283/88/84 299/472/453 301/473/454
f 301/474/455 300/122/116 284/119/113
f 312/44/44 314/467/448 324/479/460
f 314/468/449 313/113/107 323/120/114
