# Blender 4.2.8 LTS
# www.blender.org
mtllib silla.mtl
o silla.004
v 24.191584 -0.126853 1.805358
v 24.221346 -0.126853 1.775122
v 24.212727 -0.126853 1.796404
v 24.219355 -0.126853 1.522923
v 24.189117 -0.126853 1.493161
v 24.210400 -0.126853 1.501780
v 24.023668 -0.126853 1.776683
v 24.053904 -0.126853 1.806445
v 24.032623 -0.126853 1.797826
v 24.051437 -0.126853 1.494248
v 24.021677 -0.126853 1.524484
v 24.030294 -0.126853 1.503202
v 24.191584 -1.755327 1.805358
v 24.191347 -1.785327 1.775359
v 24.221346 -1.755327 1.775122
v 24.191515 -1.776540 1.796571
v 24.208805 -1.772647 1.792542
v 24.212561 -1.776540 1.775191
v 24.212729 -1.755327 1.796403
v 24.189117 -1.755327 1.493161
v 24.219355 -1.755327 1.522923
v 24.189356 -1.785327 1.523160
v 24.210400 -1.755327 1.501780
v 24.206539 -1.772647 1.505703
v 24.210567 -1.776540 1.522992
v 24.189188 -1.776540 1.501947
v 24.023668 -1.755327 1.776683
v 24.053667 -1.785327 1.776446
v 24.053905 -1.755327 1.806445
v 24.032455 -1.776540 1.776614
v 24.036484 -1.772647 1.793903
v 24.053835 -1.776540 1.797659
v 24.032623 -1.755327 1.797826
v 24.021677 -1.755327 1.524484
v 24.051439 -1.755327 1.494248
v 24.051676 -1.785327 1.524247
v 24.030296 -1.755327 1.503202
v 24.034218 -1.772647 1.507064
v 24.051508 -1.776540 1.503035
v 24.030462 -1.776540 1.524415
v 24.196133 -0.153133 1.780542
v 24.226131 -0.123133 1.780305
v 24.196369 -0.123133 1.810541
v 24.217344 -0.144346 1.780375
v 24.213589 -0.140453 1.797725
v 24.217512 -0.123133 1.801587
v 24.196301 -0.144346 1.801755
v 24.226131 0.129074 1.780305
v 24.196133 0.159074 1.780542
v 24.196369 0.129074 1.810541
v 24.217344 0.150288 1.780375
v 24.213589 0.146395 1.797725
v 24.196301 0.150288 1.801755
v 24.217512 0.129074 1.801587
v 22.487017 -0.153133 1.794043
v 22.487255 -0.123133 1.824042
v 22.457018 -0.123133 1.794280
v 22.487185 -0.144346 1.815256
v 22.469833 -0.140453 1.811500
v 22.465973 -0.123133 1.815423
v 22.465805 -0.144346 1.794211
v 22.487017 0.159074 1.794043
v 22.457018 0.129074 1.794280
v 22.487255 0.129074 1.824042
v 22.465805 0.150287 1.794211
v 22.469833 0.146394 1.811500
v 22.465973 0.129074 1.815423
v 22.487185 0.150287 1.815256
v 24.182364 -0.153133 0.037522
v 24.182127 -0.123133 0.007523
v 24.212362 -0.123133 0.037285
v 24.182196 -0.144346 0.016310
v 24.199547 -0.140453 0.020065
v 24.203409 -0.123133 0.016142
v 24.203577 -0.144346 0.037355
v 24.182364 0.159074 0.037522
v 24.212362 0.129074 0.037285
v 24.182127 0.129074 0.007523
v 24.203577 0.150287 0.037355
v 24.199547 0.146394 0.020065
v 24.203409 0.129074 0.016142
v 24.182196 0.150287 0.016310
v 22.473249 -0.153133 0.051023
v 22.443249 -0.123133 0.051260
v 22.473011 -0.123133 0.021024
v 22.452036 -0.144346 0.051191
v 22.455791 -0.140453 0.033840
v 22.451868 -0.123133 0.029978
v 22.473082 -0.144346 0.029811
v 22.473249 0.159074 0.051023
v 22.473011 0.129074 0.021024
v 22.443249 0.129074 0.051260
v 22.473082 0.150287 0.029811
v 22.455791 0.146394 0.033840
v 22.451868 0.129074 0.029978
v 22.452036 0.150287 0.051191
v 24.184692 1.850831 0.332418
v 24.214455 1.850831 0.302182
v 24.184456 1.880831 0.302419
v 24.205835 1.850831 0.323464
v 24.201912 1.868151 0.319602
v 24.205667 1.872044 0.302252
v 24.184624 1.872044 0.323632
v 24.212463 1.850831 0.049983
v 24.182226 1.850831 0.020221
v 24.182463 1.880831 0.050220
v 24.203508 1.850831 0.028840
v 24.199646 1.868151 0.032764
v 24.182297 1.872044 0.029008
v 24.203676 1.872044 0.050053
v 22.475578 1.850831 0.345919
v 22.475342 1.880831 0.315920
v 22.445341 1.850831 0.316157
v 22.475508 1.872044 0.337133
v 22.458158 1.868151 0.333377
v 22.454128 1.872044 0.316088
v 22.454296 1.850831 0.337300
v 22.473112 1.850831 0.033722
v 22.443350 1.850831 0.063958
v 22.473349 1.880831 0.063721
v 22.451969 1.850831 0.042676
v 22.455893 1.868151 0.046538
v 22.452137 1.872044 0.063889
v 22.473181 1.872044 0.042509
v 24.184692 1.012460 0.332418
v 24.184456 0.982460 0.302419
v 24.214455 1.012460 0.302182
v 24.184624 0.991247 0.323632
v 24.201912 0.995140 0.319602
v 24.205667 0.991247 0.302252
v 24.205835 1.012460 0.323464
v 24.182226 1.012460 0.020221
v 24.212463 1.012460 0.049983
v 24.182463 0.982460 0.050220
v 24.203508 1.012460 0.028840
v 24.199646 0.995140 0.032764
v 24.203676 0.991247 0.050053
v 24.182297 0.991247 0.029008
v 22.475578 1.012460 0.345919
v 22.445341 1.012460 0.316157
v 22.475342 0.982460 0.315920
v 22.454296 1.012460 0.337300
v 22.458158 0.995140 0.333377
v 22.454128 0.991247 0.316088
v 22.475508 0.991247 0.337133
v 22.473112 1.012460 0.033722
v 22.473349 0.982460 0.063721
v 22.443350 1.012460 0.063958
v 22.473181 0.991247 0.042509
v 22.455893 0.995140 0.046538
v 22.452137 0.991247 0.063889
v 22.451969 1.012460 0.042676
v 22.613443 1.853981 0.030791
v 22.643206 1.853981 0.000555
v 22.613207 1.883981 0.000792
v 22.634586 1.853981 0.021837
v 22.630663 1.871301 0.017975
v 22.634418 1.875194 0.000624
v 22.613373 1.875194 0.022004
v 22.641212 1.853981 -0.251644
v 22.610977 1.853981 -0.281406
v 22.611214 1.883981 -0.251407
v 22.632259 1.853981 -0.272787
v 22.628397 1.871301 -0.268864
v 22.611046 1.875194 -0.272620
v 22.632427 1.875194 -0.251575
v 22.475763 1.853981 0.031879
v 22.475527 1.883981 0.001879
v 22.445528 1.853981 0.002116
v 22.475695 1.875194 0.023092
v 22.458344 1.871301 0.019336
v 22.454313 1.875194 0.002047
v 22.454481 1.853981 0.023260
v 22.473297 1.853981 -0.280318
v 22.443535 1.853981 -0.250082
v 22.473534 1.883981 -0.250319
v 22.452154 1.853981 -0.271364
v 22.456078 1.871301 -0.267503
v 22.452322 1.875194 -0.250152
v 22.473366 1.875194 -0.271532
v 22.613443 -1.747850 0.030791
v 22.613207 -1.777850 0.000792
v 22.643206 -1.747850 0.000555
v 22.613375 -1.769063 0.022005
v 22.630663 -1.765170 0.017975
v 22.634418 -1.769063 0.000625
v 22.634586 -1.747850 0.021837
v 22.610977 -1.747850 -0.281406
v 22.641212 -1.747850 -0.251644
v 22.611214 -1.777850 -0.251407
v 22.632259 -1.747850 -0.272787
v 22.628397 -1.765170 -0.268864
v 22.632427 -1.769063 -0.251575
v 22.611046 -1.769063 -0.272620
v 22.475763 -1.747850 0.031879
v 22.445528 -1.747850 0.002117
v 22.475527 -1.777850 0.001880
v 22.454481 -1.747850 0.023260
v 22.458344 -1.765170 0.019337
v 22.454313 -1.769063 0.002047
v 22.475695 -1.769063 0.023092
v 22.473297 -1.747850 -0.280318
v 22.473536 -1.777850 -0.250319
v 22.443535 -1.747850 -0.250082
v 22.473368 -1.769063 -0.271532
v 22.456078 -1.765170 -0.267503
v 22.452322 -1.769063 -0.250152
v 22.452154 -1.747850 -0.271364
v 24.182533 1.845008 0.018396
v 24.212296 1.845008 -0.011840
v 24.182297 1.875008 -0.011603
v 24.203676 1.845008 0.009442
v 24.199753 1.862329 0.005580
v 24.203508 1.866222 -0.011770
v 24.182463 1.866222 0.009610
v 24.210302 1.845008 -0.264039
v 24.180067 1.845008 -0.293801
v 24.180304 1.875008 -0.263802
v 24.201349 1.845008 -0.285182
v 24.197487 1.862329 -0.281259
v 24.180136 1.866222 -0.285015
v 24.201515 1.866222 -0.263969
v 24.044853 1.845008 0.019484
v 24.044617 1.875008 -0.010515
v 24.014618 1.845008 -0.010278
v 24.044785 1.866222 0.010697
v 24.027433 1.862329 0.006942
v 24.023403 1.866222 -0.010348
v 24.023571 1.845008 0.010865
v 24.042387 1.845008 -0.292713
v 24.012625 1.845008 -0.262477
v 24.042624 1.875008 -0.262714
v 24.021244 1.845008 -0.283759
v 24.025167 1.862329 -0.279898
v 24.021412 1.866222 -0.262547
v 24.042456 1.866222 -0.283927
v 24.182533 -1.756822 0.018396
v 24.182297 -1.786822 -0.011603
v 24.212296 -1.756822 -0.011840
v 24.182465 -1.778035 0.009610
v 24.199753 -1.774142 0.005580
v 24.203508 -1.778035 -0.011770
v 24.203676 -1.756822 0.009442
v 24.180067 -1.756822 -0.293801
v 24.210302 -1.756822 -0.264039
v 24.180304 -1.786822 -0.263802
v 24.201349 -1.756822 -0.285182
v 24.197487 -1.774142 -0.281259
v 24.201517 -1.778035 -0.263969
v 24.180136 -1.778035 -0.285014
v 24.044853 -1.756822 0.019484
v 24.014618 -1.756822 -0.010278
v 24.044617 -1.786822 -0.010515
v 24.023571 -1.756822 0.010865
v 24.027433 -1.774142 0.006942
v 24.023403 -1.778035 -0.010348
v 24.044785 -1.778035 0.010697
v 24.042387 -1.756822 -0.292713
v 24.042624 -1.786822 -0.262714
v 24.012625 -1.756822 -0.262477
v 24.042458 -1.778035 -0.283927
v 24.025167 -1.774142 -0.279897
v 24.021412 -1.778035 -0.262547
v 24.021244 -1.756822 -0.283759
v 22.620604 -0.126853 1.817767
v 22.650366 -0.126853 1.787531
v 22.641747 -0.126853 1.808813
v 22.648373 -0.126853 1.535332
v 22.618137 -0.126853 1.505570
v 22.639420 -0.126853 1.514189
v 22.452688 -0.126853 1.789093
v 22.482924 -0.126853 1.818855
v 22.461641 -0.126853 1.810236
v 22.480457 -0.126853 1.506658
v 22.450695 -0.126853 1.536894
v 22.459314 -0.126853 1.515612
v 22.620604 -1.755326 1.817767
v 22.620367 -1.785326 1.787768
v 22.650366 -1.755326 1.787531
v 22.620535 -1.776540 1.808981
v 22.637823 -1.772647 1.804951
v 22.641579 -1.776540 1.787601
v 22.641747 -1.755326 1.808813
v 22.618137 -1.755326 1.505570
v 22.648373 -1.755326 1.535332
v 22.618374 -1.785326 1.535569
v 22.639420 -1.755326 1.514189
v 22.635557 -1.772647 1.518113
v 22.639587 -1.776540 1.535402
v 22.618206 -1.776540 1.514357
v 22.452688 -1.755326 1.789093
v 22.482687 -1.785326 1.788856
v 22.482924 -1.755326 1.818855
v 22.461473 -1.776540 1.789023
v 22.465504 -1.772647 1.806313
v 22.482855 -1.776540 1.810068
v 22.461641 -1.755326 1.810236
v 22.450695 -1.755326 1.536894
v 22.480457 -1.755326 1.506658
v 22.480694 -1.785326 1.536657
v 22.459314 -1.755326 1.515612
v 22.463238 -1.772647 1.519474
v 22.480528 -1.776540 1.515445
v 22.459482 -1.776540 1.536824
v 22.480457 -0.807627 1.506658
v 22.480221 -0.837627 1.476659
v 22.450695 -0.867627 1.536894
v 22.480389 -0.828841 1.497872
v 22.463137 -0.837628 1.506795
v 22.459246 -0.846414 1.506826
v 22.459314 -0.837628 1.515612
v 22.450695 -1.044552 1.536894
v 22.480221 -1.074552 1.476659
v 22.480457 -1.104552 1.506658
v 22.459246 -1.065765 1.506826
v 22.463137 -1.074552 1.506795
v 22.480389 -1.083339 1.497872
v 22.459314 -1.074552 1.515612
v 22.650366 -0.807627 1.787531
v 22.620604 -0.867627 1.817767
v 22.680365 -0.837627 1.787294
v 22.641747 -0.837628 1.808813
v 22.650503 -0.837627 1.804852
v 22.650534 -0.846414 1.808744
v 22.659153 -0.828841 1.787462
v 22.650366 -1.104552 1.787531
v 22.680365 -1.074552 1.787294
v 22.620604 -1.044552 1.817767
v 22.659153 -1.083339 1.787462
v 22.650503 -1.074552 1.804852
v 22.650534 -1.065765 1.808744
v 22.641747 -1.074552 1.808813
v 22.648373 -1.104552 1.535332
v 22.618137 -1.104552 1.505570
v 22.617901 -1.074552 1.475571
v 22.647900 -1.044552 1.475334
v 22.678135 -1.044552 1.505097
v 22.678373 -1.074552 1.535096
v 22.639420 -1.104552 1.514189
v 22.648136 -1.074552 1.505333
v 22.618069 -1.083339 1.496784
v 22.639112 -1.065765 1.475404
v 22.656855 -1.044552 1.496478
v 22.678205 -1.065765 1.513883
v 22.657160 -1.083339 1.535263
v 22.647900 -0.867627 1.475334
v 22.617901 -0.837627 1.475571
v 22.618137 -0.807627 1.505570
v 22.648373 -0.807627 1.535332
v 22.678373 -0.837627 1.535096
v 22.678135 -0.867627 1.505097
v 22.639112 -0.846414 1.475404
v 22.648136 -0.837627 1.505333
v 22.618069 -0.828840 1.496784
v 22.639420 -0.807627 1.514189
v 22.657160 -0.828840 1.535263
v 22.678205 -0.846414 1.513883
v 22.656855 -0.867627 1.496478
v 24.017519 -0.867627 1.806733
v 24.047279 -0.867627 1.776497
v 24.017281 -0.837627 1.776734
v 24.038662 -0.867627 1.797779
v 24.034739 -0.850307 1.793917
v 24.038494 -0.846414 1.776567
v 24.017448 -0.846414 1.797947
v 24.017519 -1.044552 1.806733
v 24.017281 -1.074552 1.776734
v 24.047279 -1.044552 1.776497
v 24.017448 -1.065765 1.797947
v 24.034739 -1.061873 1.793917
v 24.038494 -1.065765 1.776567
v 24.038662 -1.044552 1.797779
v 24.015053 -1.044552 1.494536
v 24.045288 -1.044552 1.524298
v 24.015289 -1.074552 1.524535
v 24.036335 -1.044552 1.503155
v 24.032473 -1.061872 1.507079
v 24.036501 -1.065765 1.524368
v 24.015121 -1.065765 1.503323
v 24.015053 -0.867627 1.494536
v 24.015289 -0.837627 1.524535
v 24.045288 -0.867627 1.524298
v 24.015121 -0.846414 1.503323
v 24.032473 -0.850307 1.507079
v 24.036501 -0.846414 1.524368
v 24.036335 -0.867627 1.503155
v 22.438850 -0.867627 0.037500
v 22.468851 -0.837627 0.037263
v 22.468613 -0.867627 0.007264
v 22.447638 -0.846414 0.037431
v 22.451393 -0.850307 0.020080
v 22.468683 -0.846414 0.016050
v 22.447470 -0.867627 0.016218
v 22.438850 -1.044552 0.037500
v 22.468613 -1.044552 0.007264
v 22.468851 -1.074552 0.037263
v 22.447470 -1.044552 0.016218
v 22.451393 -1.061873 0.020080
v 22.468683 -1.065765 0.016050
v 22.447638 -1.065765 0.037431
v 22.636530 -1.044552 0.035938
v 22.606529 -1.074552 0.036175
v 22.606293 -1.044552 0.006176
v 22.627743 -1.065765 0.036008
v 22.623713 -1.061872 0.018719
v 22.606363 -1.065765 0.014963
v 22.627575 -1.044552 0.014795
v 22.636530 -0.867627 0.035938
v 22.606293 -0.867627 0.006176
v 22.606529 -0.837627 0.036175
v 22.627575 -0.867627 0.014795
v 22.623713 -0.850307 0.018719
v 22.606363 -0.846414 0.014963
v 22.627743 -0.846414 0.036008
v 24.051439 -0.807627 1.494248
v 24.051201 -0.837627 1.464249
v 24.021677 -0.867627 1.524484
v 24.051369 -0.828841 1.485462
v 24.034119 -0.837628 1.494385
v 24.030226 -0.846414 1.494416
v 24.030294 -0.837628 1.503202
v 24.021677 -1.044552 1.524484
v 24.051201 -1.074552 1.464249
v 24.051439 -1.104552 1.494248
v 24.030226 -1.065765 1.494416
v 24.034119 -1.074552 1.494385
v 24.051369 -1.083339 1.485462
v 24.030296 -1.074552 1.503202
v 24.189117 -1.104552 1.493161
v 24.188881 -1.074552 1.463162
v 24.219355 -1.044552 1.522923
v 24.189049 -1.083339 1.484374
v 24.206438 -1.074552 1.493024
v 24.210331 -1.065765 1.492993
v 24.210400 -1.074552 1.501780
v 24.219355 -0.867627 1.522923
v 24.188881 -0.837627 1.463162
v 24.189117 -0.807627 1.493161
v 24.210331 -0.846414 1.492993
v 24.206438 -0.837627 1.493024
v 24.189049 -0.828841 1.484374
v 24.210400 -0.837627 1.501780
v 24.009775 -0.867627 0.017907
v 24.039774 -0.837627 0.017670
v 24.039537 -0.867627 -0.012329
v 24.018562 -0.846414 0.017838
v 24.022318 -0.850307 0.000487
v 24.039606 -0.846414 -0.003542
v 24.018394 -0.867627 -0.003375
v 24.009775 -1.044552 0.017907
v 24.039537 -1.044552 -0.012329
v 24.039774 -1.074552 0.017670
v 24.018394 -1.044552 -0.003375
v 24.022318 -1.061873 0.000487
v 24.039606 -1.065765 -0.003542
v 24.018562 -1.065765 0.017838
v 24.207453 -1.044552 0.016346
v 24.177454 -1.074552 0.016583
v 24.177217 -1.044552 -0.013417
v 24.198668 -1.065765 0.016415
v 24.194637 -1.061873 -0.000874
v 24.177286 -1.065765 -0.004630
v 24.198500 -1.044552 -0.004798
v 24.207453 -0.867627 0.016346
v 24.177217 -0.867627 -0.013417
v 24.177454 -0.837627 0.016583
v 24.198500 -0.867627 -0.004798
v 24.194637 -0.850307 -0.000874
v 24.177286 -0.846414 -0.004630
v 24.198668 -0.846414 0.016415
vn 0.2028 -0.0000 0.9792
vn 0.9823 -0.0000 0.1874
vn 0.7126 -0.0000 0.7016
vn 0.9792 -0.0000 -0.2028
vn 0.1873 -0.0000 -0.9823
vn 0.7015 -0.0000 -0.7126
vn -0.9792 -0.0000 0.2028
vn -0.1874 -0.0000 0.9823
vn -0.7015 -0.0000 0.7126
vn -0.2028 -0.0000 -0.9792
vn -0.9823 -0.0000 -0.1873
vn -0.7127 -0.0000 -0.7015
vn 0.1870 -0.1794 0.9658
vn 0.1808 -0.9673 0.1780
vn 0.9687 -0.1794 0.1718
vn 0.1534 -0.6993 0.6982
vn 0.5819 -0.5773 0.5728
vn 0.7005 -0.6993 0.1424
vn 0.7048 -0.1479 0.6938
vn 0.1717 -0.1794 -0.9687
vn 0.9658 -0.1794 -0.1871
vn 0.1780 -0.9673 -0.1808
vn 0.6937 -0.1479 -0.7049
vn 0.5728 -0.5773 -0.5819
vn 0.6981 -0.6993 -0.1534
vn 0.1424 -0.6993 -0.7005
vn -0.9658 -0.1794 0.1871
vn -0.1780 -0.9673 0.1808
vn -0.1717 -0.1794 0.9687
vn -0.6981 -0.6993 0.1534
vn -0.5728 -0.5773 0.5819
vn -0.1424 -0.6993 0.7005
vn -0.6937 -0.1479 0.7049
vn -0.9687 -0.1794 -0.1717
vn -0.1870 -0.1794 -0.9658
vn -0.1808 -0.9673 -0.1780
vn -0.7048 -0.1479 -0.6938
vn -0.5819 -0.5773 -0.5728
vn -0.1534 -0.6993 -0.6981
vn -0.7005 -0.6993 -0.1424
vn 0.1808 -0.9673 0.1779
vn 0.9687 -0.1794 0.1717
vn 0.7005 -0.6993 0.1423
vn 0.5819 -0.5774 0.5727
vn 0.1534 -0.6993 0.6981
vn 0.9687 0.1794 0.1718
vn 0.1808 0.9673 0.1780
vn 0.1870 0.1794 0.9658
vn 0.7005 0.6993 0.1423
vn 0.5819 0.5773 0.5728
vn 0.1534 0.6993 0.6982
vn 0.7048 0.1479 0.6938
vn -0.1423 -0.6993 0.7005
vn -0.1780 0.9673 0.1808
vn -0.9658 0.1794 0.1870
vn -0.1717 0.1794 0.9687
vn -0.6981 0.6993 0.1534
vn -0.5728 0.5773 0.5819
vn -0.6938 0.1479 0.7048
vn -0.1423 0.6993 0.7005
vn 0.9658 -0.1794 -0.1870
vn 0.1423 -0.6993 -0.7005
vn 0.5728 -0.5774 -0.5819
vn 0.6938 -0.1479 -0.7048
vn 0.6982 -0.6993 -0.1534
vn 0.1780 0.9673 -0.1808
vn 0.9658 0.1794 -0.1870
vn 0.1717 0.1794 -0.9687
vn 0.6982 0.6993 -0.1534
vn 0.5728 0.5773 -0.5819
vn 0.6938 0.1479 -0.7048
vn 0.1424 0.6993 -0.7005
vn -0.9687 -0.1794 -0.1718
vn -0.7005 -0.6993 -0.1423
vn -0.5819 -0.5774 -0.5727
vn -0.1808 0.9673 -0.1780
vn -0.1870 0.1794 -0.9658
vn -0.9687 0.1794 -0.1717
vn -0.1534 0.6993 -0.6981
vn -0.5819 0.5774 -0.5727
vn -0.7048 0.1479 -0.6938
vn -0.7005 0.6993 -0.1423
vn 0.9687 0.1794 0.1717
vn 0.7049 0.1479 0.6938
vn 0.5819 0.5774 0.5727
vn 0.1534 0.6993 0.6981
vn 0.5728 0.5774 -0.5819
vn 0.6981 0.6993 -0.1534
vn -0.1424 0.6993 0.7005
vn -0.6981 0.6993 0.1535
vn -0.5819 0.5773 -0.5728
vn -0.7005 0.6993 -0.1424
vn -0.9658 -0.1794 0.1870
vn -0.6938 -0.1479 0.7049
vn -0.5728 -0.5774 0.5819
vn -0.6981 -0.6993 0.1535
vn 0.7005 0.6993 0.1424
vn 0.1424 0.6994 -0.7005
vn 0.6981 0.6993 -0.1535
vn -0.5728 0.5774 0.5819
vn -0.6982 0.6993 0.1534
vn -0.7049 0.1479 -0.6938
vn -0.5819 0.5774 -0.5728
vn 0.6982 -0.6993 -0.1535
vn -0.6938 -0.1479 0.7048
vn -0.6982 -0.6993 0.1534
vn -0.5819 -0.5774 -0.5728
vn -0.7005 -0.6994 -0.1423
vn 0.1808 0.9673 0.1779
vn 0.5819 0.5774 0.5728
vn 0.1718 0.1794 -0.9687
vn -0.9659 0.1794 0.1870
vn -0.9687 0.1794 -0.1718
vn 0.6938 -0.1479 -0.7049
vn -0.9659 -0.1794 0.1870
vn -0.7049 -0.1479 -0.6938
vn 0.9823 -0.0000 0.1873
vn 0.7127 -0.0000 0.7015
vn 0.7015 -0.0000 -0.7127
vn 0.7049 -0.1479 0.6937
vn 0.6981 -0.6993 -0.1535
vn -0.1808 -0.9673 -0.1779
vn -0.1534 -0.6994 -0.6981
vn -0.2526 0.1498 -0.9559
vn -0.2463 0.9579 -0.1479
vn -0.9980 0.0488 -0.0409
vn -0.3356 0.6674 -0.6648
vn -0.7821 0.4437 -0.4376
vn -0.8983 0.4063 -0.1675
vn -0.9001 0.1746 -0.3992
vn -0.9980 -0.0488 -0.0409
vn -0.2462 -0.9579 -0.1479
vn -0.2526 -0.1498 -0.9559
vn -0.8982 -0.4063 -0.1675
vn -0.7821 -0.4437 -0.4376
vn -0.3356 -0.6674 -0.6648
vn -0.9001 -0.1746 -0.3993
vn 0.9598 0.1498 0.2375
vn 0.0567 0.0488 0.9972
vn 0.1518 0.9579 0.2439
vn 0.4134 0.1746 0.8936
vn 0.4499 0.4437 0.7751
vn 0.1817 0.4063 0.8955
vn 0.6700 0.6674 0.3251
vn 0.9598 -0.1498 0.2375
vn 0.1518 -0.9579 0.2439
vn 0.0566 -0.0488 0.9972
vn 0.6700 -0.6674 0.3251
vn 0.4499 -0.4438 0.7750
vn 0.1817 -0.4063 0.8955
vn 0.4134 -0.1746 0.8936
vn 0.9592 -0.1960 -0.2036
vn 0.1884 -0.1960 -0.9623
vn 0.1945 -0.9608 -0.1976
vn 0.6866 -0.2049 -0.6975
vn 0.1994 -0.6921 -0.6937
vn 0.6905 -0.6921 -0.2103
vn 0.6866 -0.2049 -0.6976
vn 0.9592 0.1960 -0.2036
vn 0.1945 0.9608 -0.1976
vn 0.1884 0.1960 -0.9623
vn 0.1885 0.1960 -0.9623
vn 0.6905 0.6921 -0.2103
vn 0.1994 0.6921 -0.6937
vn 0.6866 0.2049 -0.6975
vn 0.7049 0.1479 0.6937
vn 0.5819 -0.5774 0.5728
vn -0.1534 -0.6993 -0.6982
vn 0.5727 -0.5773 -0.5819
vn 0.1779 0.9673 -0.1808
vn 0.5727 0.5773 -0.5819
vn -0.2527 0.1498 -0.9559
vn -0.3357 0.6674 -0.6647
vn -0.7820 0.4437 -0.4376
vn -0.8982 0.4063 -0.1675
vn -0.8982 -0.4064 -0.1675
vn -0.7821 -0.4438 -0.4375
vn -0.3357 -0.6674 -0.6648
vn -0.9001 -0.1746 -0.3992
vn 0.2375 -0.1498 -0.9598
vn 0.2439 -0.9579 -0.1517
vn 0.9972 -0.0488 -0.0566
vn 0.3251 -0.6674 -0.6700
vn 0.7750 -0.4437 -0.4499
vn 0.8955 -0.4064 -0.1817
vn 0.8936 -0.1746 -0.4134
vn 0.9972 0.0488 -0.0567
vn 0.2439 0.9579 -0.1518
vn 0.2375 0.1498 -0.9598
vn 0.8955 0.4064 -0.1817
vn 0.7750 0.4437 -0.4499
vn 0.3251 0.6674 -0.6700
vn 0.8936 0.1746 -0.4135
vn -0.1534 0.6993 -0.6982
vt 0.681884 0.127759
vt 0.681884 0.103153
vt 0.700792 0.226479
vt 0.281781 0.496722
vt 0.246688 0.738930
vt 0.246688 0.496782
vt 0.287620 0.734450
vt 0.322714 0.496725
vt 0.322714 0.734482
vt 0.715533 0.496636
vt 0.598940 0.730557
vt 0.598940 0.495834
vt 0.246605 0.245587
vt 0.484329 0.002867
vt 0.484329 0.244976
vt 0.002899 0.736647
vt 0.037973 0.502165
vt 0.037973 0.736889
vt 0.410499 0.734015
vt 0.445592 0.497046
vt 0.445592 0.734218
vt 0.731339 0.368187
vt 0.766376 0.251592
vt 0.766376 0.368246
vt 0.363770 0.734486
vt 0.328708 0.496740
vt 0.363769 0.496686
vt 0.693263 0.771972
vt 0.674113 0.736990
vt 0.693263 0.736941
vt 0.476400 0.733473
vt 0.593058 0.495823
vt 0.593058 0.733580
vt 0.369684 0.734325
vt 0.404715 0.496691
vt 0.404715 0.734416
vt 0.765901 0.002920
vt 0.731585 0.119774
vt 0.731585 0.003118
vt 0.598956 0.737084
vt 0.618112 0.772175
vt 0.598956 0.772146
vt 0.668212 0.771972
vt 0.649063 0.736990
vt 0.668213 0.736941
vt 0.952305 0.996544
vt 0.933396 0.495751
vt 0.952305 0.495621
vt 0.883481 0.495659
vt 0.902634 0.996832
vt 0.883481 0.996849
vt 0.837340 0.495641
vt 0.803024 0.997016
vt 0.803024 0.495840
vt 0.194008 0.744210
vt 0.213165 0.709177
vt 0.213165 0.744239
vt 0.700272 0.490093
vt 0.473678 0.490093
vt 0.576555 0.455777
vt 0.977039 0.996544
vt 0.958131 0.495751
vt 0.977039 0.495621
vt 0.908536 0.495659
vt 0.927688 0.996832
vt 0.908536 0.996849
vt 0.843113 0.495840
vt 0.877429 0.996817
vt 0.843113 0.997016
vt 0.733124 0.217490
vt 0.768161 0.126998
vt 0.768161 0.217550
vt 0.721559 0.996814
vt 0.756595 0.495699
vt 0.756595 0.996874
vt 0.128144 0.709034
vt 0.152762 0.744029
vt 0.128144 0.744071
vt 0.732473 0.465984
vt 0.767273 0.371231
vt 0.767509 0.465957
vt 0.624016 0.772146
vt 0.643171 0.737113
vt 0.643172 0.772175
vt 0.086003 0.696233
vt 0.105156 0.786770
vt 0.086003 0.786788
vt 0.186923 0.502984
vt 0.162476 0.688964
vt 0.162305 0.502984
vt 0.161244 0.691959
vt 0.180196 0.786710
vt 0.161043 0.786687
vt 0.706163 0.459875
vt 0.725316 0.484476
vt 0.706163 0.484494
vt 0.129341 0.701801
vt 0.154299 0.501834
vt 0.153959 0.701801
vt 0.045146 0.687865
vt 0.080208 0.501799
vt 0.080207 0.687812
vt 0.087262 0.502994
vt 0.122293 0.689039
vt 0.087262 0.688949
vt 0.220241 0.503038
vt 0.239391 0.702924
vt 0.220241 0.702973
vt 0.194008 0.701932
vt 0.213165 0.501850
vt 0.213165 0.701961
vt 0.476387 0.739426
vt 0.495540 0.764027
vt 0.476387 0.764044
vt 0.470199 0.720178
vt 0.451292 0.493829
vt 0.470200 0.493698
vt 0.220253 0.709010
vt 0.239409 0.744100
vt 0.220253 0.744072
vt 0.771952 0.004194
vt 0.791105 0.094731
vt 0.771952 0.094749
vt 0.101945 0.460904
vt 0.126563 0.460904
vt 0.002985 0.495940
vt 0.063035 0.692046
vt 0.043883 0.786793
vt 0.043882 0.692064
vt 0.002914 0.003010
vt 0.240714 0.245693
vt 0.002914 0.245333
vt 0.725958 0.004173
vt 0.706808 0.205156
vt 0.706808 0.004222
vt 0.725327 0.452762
vt 0.706171 0.251624
vt 0.725327 0.251652
vt 0.762489 0.996814
vt 0.797526 0.495699
vt 0.797526 0.996874
vt 0.451292 0.720308
vt 0.449201 0.722806
vt 0.448577 0.720378
vt 0.241872 0.746423
vt 0.239446 0.746988
vt 0.000523 0.498236
vt -0.000000 0.495864
vt 0.793577 0.097185
vt 0.791149 0.097715
vt 0.003044 0.460904
vt 0.000591 0.458387
vt 0.003016 0.457880
vt 0.239409 0.709038
vt 0.241872 0.706546
vt 0.242398 0.708982
vt 0.470496 0.491070
vt 0.472966 0.493055
vt 0.470545 0.493698
vt 0.217896 0.746387
vt 0.217338 0.744006
vt 0.472866 0.722643
vt 0.470399 0.723178
vt 0.470297 0.456754
vt 0.472739 0.454025
vt 0.473281 0.456496
vt 0.769606 0.097207
vt 0.769045 0.094783
vt 0.217896 0.706510
vt 0.220290 0.705999
vt 0.243177 0.248015
vt 0.240751 0.248580
vt 0.244230 0.741229
vt 0.243703 0.738858
vt 0.040457 0.738996
vt 0.038025 0.739603
vt 0.281781 0.738870
vt 0.284143 0.741161
vt 0.281748 0.741740
vt 0.486808 0.000570
vt 0.487328 0.002939
vt 0.000564 0.738721
vt -0.000000 0.736428
vt 0.000558 0.247649
vt -0.000000 0.245267
vt 0.040457 0.499515
vt 0.040975 0.501986
vt 0.448051 0.736217
vt 0.445626 0.736847
vt 0.246605 0.003478
vt 0.244265 0.001193
vt 0.246653 0.000611
vt 0.408138 0.735986
vt 0.407581 0.733740
vt 0.002899 0.501924
vt 0.000564 0.499241
vt 0.002950 0.498811
vt 0.240715 0.003370
vt 0.243177 0.000877
vt 0.243703 0.003313
vt 0.325170 0.494255
vt 0.325697 0.496684
vt 0.244230 0.494269
vt 0.246655 0.493758
vt 0.486808 0.247491
vt 0.484377 0.248003
vt 0.284143 0.494201
vt 0.284699 0.496640
vt 0.287620 0.496693
vt 0.285255 0.494218
vt 0.287651 0.493698
vt 0.000558 0.000510
vt 0.002952 -0.000000
vt 0.448051 0.494331
vt 0.448577 0.496805
vt 0.325170 0.736831
vt 0.322745 0.737390
vt 0.244265 0.248114
vt 0.243703 0.245675
vt 0.285255 0.736795
vt 0.284699 0.734404
vt 0.410499 0.496843
vt 0.408138 0.494100
vt 0.410533 0.493698
vt 0.596606 0.732632
vt 0.596041 0.730338
vt 0.768671 0.249233
vt 0.769246 0.251630
vt 0.407005 0.736900
vt 0.404635 0.737414
vt 0.731339 0.251532
vt 0.728822 0.249166
vt 0.731262 0.248613
vt 0.476400 0.495716
vt 0.474035 0.493241
vt 0.476431 0.492721
vt 0.367163 0.736798
vt 0.366657 0.734366
vt 0.596606 0.493151
vt 0.598991 0.492721
vt 0.407005 0.494357
vt 0.407581 0.496746
vt 0.729600 0.000768
vt 0.731843 0.000199
vt 0.474035 0.735817
vt 0.473479 0.733427
vt 0.768630 0.000542
vt 0.769045 0.002935
vt 0.369684 0.496601
vt 0.367163 0.494255
vt 0.369604 0.493698
vt 0.715533 0.731360
vt 0.718016 0.733468
vt 0.715585 0.734074
vt 0.366089 0.494220
vt 0.366657 0.496645
vt 0.768671 0.370708
vt 0.766299 0.371231
vt 0.595514 0.493353
vt 0.596041 0.495782
vt 0.728822 0.370640
vt 0.728315 0.368215
vt 0.326211 0.494280
vt 0.328646 0.493751
vt 0.718016 0.493987
vt 0.718535 0.496458
vt 0.729600 0.122244
vt 0.728956 0.119822
vt 0.366089 0.736839
vt 0.363708 0.737401
vt 0.595514 0.735929
vt 0.593089 0.736488
vt 0.328708 0.734539
vt 0.326211 0.736900
vt 0.325697 0.734507
vt 0.765901 0.119575
vt 0.768630 0.122017
vt 0.766159 0.122558
vt 0.931306 0.493431
vt 0.933596 0.492851
vt 0.758890 0.493341
vt 0.759465 0.495737
vt 0.695742 0.734644
vt 0.696262 0.737013
vt 0.721559 0.495640
vt 0.719042 0.493273
vt 0.721482 0.492721
vt 0.902634 0.495641
vt 0.905106 0.493274
vt 0.905629 0.495670
vt 0.695742 0.774487
vt 0.693311 0.774998
vt 0.954971 0.493268
vt 0.955418 0.495651
vt 0.671774 0.734705
vt 0.674161 0.734123
vt 0.801040 0.493490
vt 0.803282 0.492920
vt 0.881134 0.493297
vt 0.883525 0.492739
vt 0.840069 0.493263
vt 0.840485 0.495656
vt 0.674113 0.772021
vt 0.671773 0.774548
vt 0.671211 0.772108
vt 0.933396 0.996674
vt 0.931306 0.999172
vt 0.930683 0.996745
vt 0.620575 0.774498
vt 0.618150 0.775063
vt 0.758890 0.999336
vt 0.756518 0.999859
vt 0.905106 0.999285
vt 0.902677 0.999815
vt 0.719042 0.999268
vt 0.718535 0.996842
vt 0.618112 0.737113
vt 0.620575 0.734620
vt 0.621100 0.737056
vt 0.954971 0.999009
vt 0.952504 0.999545
vt 0.801040 0.999486
vt 0.800396 0.997065
vt 0.596600 0.774462
vt 0.596042 0.772081
vt 0.881134 0.999307
vt 0.880574 0.996884
vt 0.596599 0.734584
vt 0.598993 0.734074
vt 0.837340 0.996817
vt 0.840069 0.999260
vt 0.837598 0.999801
vt 0.956040 0.493431
vt 0.958331 0.492851
vt 0.799821 0.493341
vt 0.800396 0.495737
vt 0.670691 0.734644
vt 0.671211 0.737013
vt 0.762489 0.495640
vt 0.759972 0.493273
vt 0.762412 0.492721
vt 0.927688 0.495641
vt 0.930161 0.493274
vt 0.930683 0.495670
vt 0.670691 0.774487
vt 0.668260 0.774998
vt 0.979706 0.493268
vt 0.980152 0.495651
vt 0.646723 0.734705
vt 0.649111 0.734123
vt 0.841129 0.493489
vt 0.843371 0.492920
vt 0.906189 0.493297
vt 0.908579 0.492739
vt 0.877429 0.495641
vt 0.880158 0.493263
vt 0.880573 0.495656
vt 0.649062 0.772021
vt 0.646723 0.774548
vt 0.646160 0.772108
vt 0.958131 0.996674
vt 0.956040 0.999172
vt 0.955418 0.996745
vt 0.215628 0.746562
vt 0.213202 0.747127
vt 0.799821 0.999336
vt 0.797449 0.999859
vt 0.930161 0.999285
vt 0.927732 0.999815
vt 0.759972 0.999268
vt 0.759465 0.996842
vt 0.215628 0.706685
vt 0.216153 0.709121
vt 0.979706 0.999009
vt 0.977239 0.999545
vt 0.841129 0.999486
vt 0.840485 0.997065
vt 0.191652 0.746526
vt 0.191094 0.744145
vt 0.906189 0.999307
vt 0.905628 0.996884
vt 0.194008 0.709148
vt 0.191652 0.706648
vt 0.194046 0.706138
vt 0.880158 0.999260
vt 0.877687 0.999801
vt 0.681884 0.226609
vt 0.679794 0.229107
vt 0.679171 0.226680
vt 0.645635 0.774498
vt 0.643209 0.775063
vt 0.770456 0.220012
vt 0.768084 0.220535
vt 0.107628 0.789224
vt 0.105199 0.789754
vt 0.730607 0.219944
vt 0.730100 0.217518
vt 0.645634 0.734620
vt 0.646160 0.737056
vt 0.702742 0.492077
vt 0.700321 0.492721
vt 0.621659 0.774462
vt 0.621101 0.772080
vt 0.703459 0.228944
vt 0.700992 0.229480
vt 0.700073 0.455777
vt 0.702516 0.453048
vt 0.703057 0.455519
vt 0.083656 0.789246
vt 0.083095 0.786822
vt 0.624015 0.737085
vt 0.621658 0.734584
vt 0.624052 0.734074
vt 0.568292 0.450814
vt 0.572403 0.451323
vt 0.572396 0.452632
vt 0.217832 0.498877
vt 0.220193 0.500011
vt 0.573611 0.451437
vt 0.604133 0.451437
vt 0.605362 0.452632
vt 0.601173 0.455777
vt 0.605409 0.446732
vt 0.605370 0.451323
vt 0.083593 0.692061
vt 0.085959 0.693250
vt 0.769926 0.470129
vt 0.767593 0.468875
vt 0.677964 0.100281
vt 0.679171 0.099051
vt 0.674326 0.099209
vt 0.678052 0.099082
vt 0.678446 0.136303
vt 0.678052 0.132032
vt 0.679171 0.132001
vt 0.082615 0.691983
vt 0.080269 0.690801
vt 0.677964 0.130788
vt 0.730100 0.126967
vt 0.733201 0.123954
vt 0.733124 0.126939
vt 0.105112 0.693232
vt 0.108150 0.696245
vt 0.105156 0.696216
vt 0.216153 0.701904
vt 0.213128 0.704971
vt 0.129369 0.704825
vt 0.126356 0.701724
vt 0.159321 0.503027
vt 0.162333 0.499990
vt 0.045207 0.690854
vt 0.042135 0.687833
vt 0.156878 0.701724
vt 0.153987 0.704825
vt 0.239343 0.499962
vt 0.242389 0.503060
vt 0.239391 0.502988
vt 0.183190 0.786746
vt 0.180146 0.789631
vt 0.732557 0.468903
vt 0.729449 0.466020
vt 0.084236 0.503034
vt 0.087342 0.499995
vt 0.186952 0.499990
vt 0.189844 0.503027
vt 0.490042 0.104474
vt 0.487951 0.102154
vt 0.490241 0.101574
vt 0.155125 0.746320
vt 0.152729 0.746899
vt 0.124583 0.691523
vt 0.122213 0.692037
vt 0.490042 0.129080
vt 0.487951 0.131577
vt 0.487328 0.129150
vt 0.082527 0.499332
vt 0.083095 0.501758
vt 0.125687 0.746370
vt 0.125160 0.743999
vt 0.160022 0.691436
vt 0.159492 0.689008
vt 0.125687 0.706522
vt 0.128111 0.706011
vt 0.045146 0.501852
vt 0.042649 0.499392
vt 0.045084 0.498864
vt 0.187094 0.688964
vt 0.189461 0.691436
vt 0.187066 0.691959
vt 0.084741 0.691421
vt 0.084236 0.688989
vt 0.152762 0.708993
vt 0.155125 0.706471
vt 0.155681 0.708911
vt 0.575372 0.251758
vt 0.572995 0.249029
vt 0.575388 0.248613
vt 0.217901 0.705500
vt 0.217339 0.703060
vt 0.703817 0.457512
vt 0.706207 0.456955
vt 0.599990 0.251758
vt 0.602433 0.249029
vt 0.602974 0.251500
vt 0.703817 0.486952
vt 0.703256 0.484528
vt 0.194009 0.501821
vt 0.191652 0.499321
vt 0.194046 0.498810
vt 0.129681 0.501834
vt 0.127228 0.499317
vt 0.129653 0.498810
vt 0.215628 0.499357
vt 0.216153 0.501793
vt 0.727788 0.486930
vt 0.725360 0.487459
vt 0.156666 0.499317
vt 0.157218 0.501757
vt 0.725316 0.459857
vt 0.727788 0.457490
vt 0.728311 0.459886
vt 0.241870 0.705438
vt 0.239439 0.705950
vt 0.338515 0.451791
vt 0.342626 0.452300
vt 0.342619 0.453610
vt 0.704399 0.000061
vt 0.706760 0.001196
vt 0.343835 0.452414
vt 0.346778 0.456754
vt 0.374356 0.452414
vt 0.375586 0.453610
vt 0.371396 0.456754
vt 0.375633 0.447709
vt 0.375593 0.452300
vt 0.769543 0.000022
vt 0.771909 0.001211
vt 0.093490 0.456474
vt 0.097730 0.456625
vt 0.097742 0.457880
vt 0.727737 0.456937
vt 0.725290 0.455773
vt 0.098967 0.456659
vt 0.129489 0.456659
vt 0.130709 0.457880
vt 0.130639 0.452306
vt 0.130697 0.456625
vt 0.063035 0.786775
vt 0.065445 0.790947
vt 0.062992 0.789695
vt 0.345590 0.251758
vt 0.343212 0.249029
vt 0.345605 0.248613
vt 0.704468 0.207683
vt 0.703906 0.205243
vt 0.474040 0.737063
vt 0.476430 0.736505
vt 0.370208 0.251758
vt 0.372651 0.249029
vt 0.373192 0.251500
vt 0.474040 0.766502
vt 0.473479 0.764079
vt 0.703814 0.249124
vt 0.706207 0.248613
vt 0.102301 0.251604
vt 0.099847 0.249087
vt 0.102273 0.248580
vt 0.727790 0.249160
vt 0.728315 0.251596
vt 0.498012 0.766480
vt 0.495583 0.767010
vt 0.126919 0.251604
vt 0.129285 0.249087
vt 0.129838 0.251527
vt 0.495540 0.739408
vt 0.498012 0.737041
vt 0.498534 0.739437
vt 0.725958 0.205106
vt 0.728436 0.207621
vt 0.726006 0.208133
vt 0.217338 0.708944
vt 0.473479 0.490812
vt 0.451491 0.723308
vt 0.220290 0.746959
vt 0.771996 0.097732
vt 0.239446 0.706028
vt 0.000060 0.460827
vt 0.002951 0.248221
vt 0.040975 0.736710
vt 0.246655 0.741800
vt 0.002950 0.739361
vt 0.484377 0.000000
vt 0.410533 0.736644
vt -0.000000 0.002944
vt 0.448577 0.733978
vt 0.243703 0.003565
vt 0.287651 0.737358
vt 0.445626 0.493902
vt 0.240751 0.000359
vt 0.246653 0.248613
vt 0.284699 0.496646
vt 0.281748 0.493698
vt 0.243703 0.245636
vt 0.243703 0.496710
vt 0.487328 0.245048
vt 0.284699 0.738788
vt 0.596041 0.495614
vt 0.407581 0.734471
vt 0.766299 0.248673
vt 0.369604 0.737324
vt 0.473479 0.495669
vt 0.366657 0.496641
vt 0.766159 0.000000
vt 0.715585 0.493524
vt 0.728956 0.003167
vt 0.476431 0.736380
vt 0.769045 0.119590
vt 0.328646 0.737454
vt 0.731843 0.122757
vt 0.718535 0.731181
vt 0.596041 0.733540
vt 0.731262 0.371171
vt 0.598991 0.733271
vt 0.769246 0.368284
vt 0.593089 0.492828
vt 0.952504 0.492721
vt 0.693311 0.734074
vt 0.756518 0.492781
vt 0.696262 0.772044
vt 0.902677 0.492721
vt 0.837598 0.492721
vt 0.955418 0.996574
vt 0.800396 0.495888
vt 0.880574 0.495693
vt 0.840485 0.996833
vt 0.596041 0.737019
vt 0.803282 1.000000
vt 0.933596 0.999675
vt 0.598993 0.775034
vt 0.883525 0.999833
vt 0.618149 0.734103
vt 0.721482 0.999799
vt 0.930683 0.495822
vt 0.759465 0.996912
vt 0.905629 0.996861
vt 0.718535 0.495668
vt 0.977239 0.492721
vt 0.668261 0.734074
vt 0.797449 0.492781
vt 0.671211 0.772044
vt 0.927732 0.492721
vt 0.877687 0.492721
vt 0.646160 0.737077
vt 0.980152 0.996574
vt 0.840485 0.495888
vt 0.905628 0.495693
vt 0.880573 0.996833
vt 0.191094 0.709083
vt 0.843371 1.000000
vt 0.958331 0.999675
vt 0.194046 0.747098
vt 0.908579 0.999833
vt 0.213202 0.706167
vt 0.762412 0.999799
vt 0.955418 0.495822
vt 0.800396 0.996912
vt 0.930683 0.996861
vt 0.759465 0.495668
vt 0.621101 0.737019
vt 0.703256 0.489835
vt 0.682084 0.229610
vt 0.624052 0.775034
vt 0.086046 0.789771
vt 0.643208 0.734103
vt 0.733047 0.220475
vt 0.700792 0.000000
vt 0.703905 0.226509
vt 0.473727 0.492721
vt 0.002947 0.498810
vt 0.229578 0.495940
vt 0.229540 0.498810
vt 0.158337 0.691987
vt 0.473480 0.455777
vt 0.473495 0.452632
vt 0.083095 0.692093
vt 0.681884 0.000130
vt 0.679171 0.000200
vt 0.770143 0.371262
vt 0.771031 0.217588
vt 0.771031 0.122862
vt 0.108150 0.786799
vt 0.180397 0.691982
vt 0.729213 0.371294
vt 0.193972 0.704942
vt 0.160993 0.789607
vt 0.122373 0.500086
vt 0.487328 0.104544
vt 0.128111 0.746941
vt 0.162447 0.691959
vt 0.125160 0.708963
vt 0.080146 0.498810
vt 0.087182 0.691947
vt 0.155681 0.743947
vt 0.042135 0.501819
vt 0.490241 0.132080
vt 0.190015 0.689008
vt 0.125160 0.689094
vt 0.122293 0.503084
vt 0.125160 0.498967
vt 0.703256 0.459909
vt 0.600006 0.248613
vt 0.728311 0.484505
vt 0.706207 0.487477
vt 0.220289 0.705999
vt 0.242390 0.702996
vt 0.191094 0.501755
vt 0.191094 0.706037
vt 0.217339 0.498958
vt 0.243951 0.493698
vt 0.040975 0.692098
vt 0.243703 0.456754
vt 0.243718 0.453610
vt 0.769045 0.000054
vt 0.243902 0.491070
vt 0.448578 0.493899
vt 0.473312 0.720208
vt 0.791105 0.004177
vt 0.794099 0.094760
vt 0.066030 0.692075
vt 0.066030 0.790978
vt 0.229637 0.460904
vt 0.706134 0.455744
vt 0.706171 0.452734
vt 0.791061 0.001193
vt 0.043839 0.789713
vt 0.473479 0.739460
vt 0.370223 0.248613
vt 0.498534 0.764056
vt 0.476430 0.767028
vt 0.706856 0.208182
vt 0.495583 0.736488
vt 0.728315 0.456876
vt 0.728957 0.205179
vt 0.703256 0.251558
vt 0.703256 0.456839
vt 0.703905 0.000143
vt 0.732237 0.371259
vt 0.242398 0.744043
vt 0.470312 0.453610
vt 0.038025 0.499052
vt 0.000000 0.501704
vt 0.322745 0.493730
vt 0.325697 0.734441
vt 0.407581 0.496568
vt 0.728315 0.251560
vt 0.404635 0.493788
vt 0.363708 0.493698
vt 0.325697 0.496707
vt 0.366657 0.734445
vt 0.671211 0.737077
vt 0.674161 0.775047
vt 0.621100 0.772118
vt 0.649110 0.775047
vt 0.216153 0.744182
vt 0.646160 0.772118
vt 0.700089 0.452632
vt 0.158624 0.790859
vt 0.572443 0.446732
vt 0.191598 0.706099
vt 0.609607 0.450814
vt 0.678446 0.095008
vt 0.124699 0.498918
vt 0.768237 0.124014
vt 0.770567 0.122828
vt 0.674326 0.132159
vt 0.728956 0.122757
vt 0.109329 0.692037
vt 0.217338 0.706138
vt 0.125160 0.705969
vt 0.158126 0.498810
vt 0.040975 0.692046
vt 0.158126 0.705969
vt 0.243563 0.498811
vt 0.184360 0.790890
vt 0.728315 0.470162
vt 0.083095 0.498811
vt 0.191094 0.498810
vt 0.152729 0.705969
vt 0.572453 0.251500
vt 0.126697 0.501757
vt 0.213202 0.498839
vt 0.154271 0.498810
vt 0.725360 0.456937
vt 0.041473 0.790969
vt 0.342666 0.447709
vt 0.703761 0.456901
vt 0.379831 0.451791
vt 0.793514 0.000000
vt 0.097672 0.452306
vt 0.725910 0.001147
vt 0.728367 -0.000000
vt 0.134806 0.456474
vt 0.342670 0.251500
vt 0.099316 0.251527
vt 0.725364 0.248642
vt 0.126891 0.248580
vt 0.703905 0.000030
vt 0.158126 0.790890
vt 0.770390 0.470162
vt 0.183391 0.692017
vt 0.083095 0.691945
vt 0.040975 0.791001
vt 0.473312 0.493729
vt 0.794099 0.000031
vt 0.229609 0.457880
vt 0.728957 0.000078
s 1
f 328/1/147 320/2/139 293/3/29
f 77/4/67 42/5/42 71/6/61
f 91/7/77 70/8/20 85/9/35
f 139/10/29 97/11/48 111/12/56
f 90/13/76 49/14/47 76/15/66
f 50/16/48 56/17/29 43/18/13
f 63/19/55 84/20/73 57/21/27
f 133/22/21 98/23/83 127/24/15
f 141/25/28 134/26/22 126/27/14
f 162/28/66 168/29/54 155/30/47
f 118/31/77 132/32/20 146/33/35
f 106/34/66 112/35/54 99/36/47
f 119/37/78 140/38/93 113/39/55
f 203/40/36 182/41/14 197/42/28
f 218/43/66 224/44/54 211/45/109
f 195/46/29 153/47/48 167/48/56
f 174/49/77 188/50/20 202/51/35
f 175/52/78 196/53/93 169/54/55
f 253/55/28 246/56/22 238/57/41
f 291/58/93 271/59/7 307/60/126
f 251/61/29 209/62/48 223/63/56
f 230/64/77 244/65/20 258/66/35
f 225/67/112 260/68/34 252/69/115
f 285/70/61 326/71/145 279/72/42
f 189/73/61 154/74/46 183/75/15
f 374/76/61 360/77/83 368/78/42
f 349/79/159 266/80/117 319/81/138
f 292/82/28 286/83/22 278/84/14
f 314/85/133 284/86/20 299/87/35
f 351/88/162 373/89/20 337/90/153
f 274/91/10 348/92/161 305/93/124
f 389/94/77 403/95/20 395/96/35
f 336/97/152 408/98/67 346/99/159
f 338/100/154 367/101/14 327/102/146
f 350/103/160 361/104/47 381/105/66
f 306/106/125 410/107/170 388/108/76
f 313/109/132 402/110/22 335/111/154
f 445/112/77 459/113/20 451/114/35
f 29/115/29 1/116/1 8/117/8
f 36/118/36 14/119/14 28/120/28
f 424/121/133 20/122/20 35/123/35
f 431/124/182 436/125/187 15/126/15
f 5/127/5 415/128/172 10/129/10
f 83/130/36 41/131/41 55/132/28
f 437/133/188 444/134/76 416/135/125
f 430/136/181 452/137/36 458/138/22
f 245/139/61 210/140/83 239/141/15
f 13/142/13 17/143/17 19/144/19
f 14/119/14 17/145/17 16/146/16
f 15/126/15 17/147/17 18/148/18
f 20/122/20 24/149/24 26/150/26
f 21/151/21 24/152/24 23/153/23
f 22/154/22 24/155/24 25/156/25
f 27/157/27 31/158/31 33/159/33
f 28/120/28 31/160/31 30/161/30
f 29/115/29 31/162/31 32/163/32
f 34/164/34 38/165/38 40/166/40
f 35/123/35 38/167/38 37/168/37
f 36/118/36 38/169/38 39/170/39
f 41/131/41 45/171/44 47/172/45
f 42/5/42 45/173/44 44/174/43
f 43/18/13 45/175/44 46/176/19
f 48/177/46 52/178/50 54/179/52
f 49/14/47 52/180/50 51/181/49
f 50/16/48 52/182/50 53/183/51
f 55/132/28 59/184/31 61/185/30
f 56/17/29 59/186/31 58/187/53
f 57/21/27 59/188/31 60/189/33
f 62/190/54 66/191/58 68/192/60
f 63/19/55 66/193/58 65/194/57
f 64/195/56 66/196/58 67/197/59
f 69/198/22 73/199/63 75/200/65
f 70/8/20 73/201/63 72/202/62
f 71/6/61 73/203/63 74/204/64
f 76/15/66 80/205/70 82/206/72
f 77/4/67 80/207/70 79/208/69
f 78/209/68 80/210/70 81/211/71
f 83/130/36 87/212/75 89/213/39
f 84/20/73 87/214/75 86/215/74
f 85/9/35 87/216/75 88/217/37
f 90/13/76 94/218/80 96/219/82
f 91/7/77 94/220/80 93/221/79
f 92/222/78 94/223/80 95/224/81
f 97/11/48 101/225/85 103/226/86
f 98/23/83 101/227/85 100/228/84
f 99/36/47 101/229/85 102/230/49
f 104/231/67 108/232/87 110/233/88
f 105/234/68 108/235/87 107/236/71
f 106/34/66 108/237/87 109/238/72
f 111/12/56 115/239/58 117/240/59
f 112/35/54 115/241/58 114/242/89
f 113/39/55 115/243/58 116/244/90
f 118/31/77 122/245/91 124/246/79
f 119/37/78 122/247/91 121/248/81
f 120/249/76 122/250/91 123/251/92
f 125/252/13 129/253/44 131/254/19
f 126/27/14 129/255/44 128/256/45
f 127/24/15 129/257/44 130/258/43
f 132/32/20 136/259/63 138/260/26
f 133/22/21 136/261/63 135/262/23
f 134/26/22 136/263/63 137/264/25
f 139/10/29 143/265/95 145/266/32
f 140/38/93 143/267/95 142/268/94
f 141/25/28 143/269/95 144/270/96
f 146/33/35 150/271/38 152/272/37
f 147/273/36 150/274/38 149/275/39
f 148/276/34 150/277/38 151/278/40
f 153/47/48 157/279/50 159/280/51
f 154/74/46 157/281/50 156/282/52
f 155/30/47 157/283/50 158/284/97
f 160/285/67 164/286/87 166/287/99
f 161/288/68 164/289/87 163/290/71
f 162/28/66 164/291/87 165/292/98
f 167/48/56 171/293/100 173/294/59
f 168/29/54 171/295/100 170/296/89
f 169/54/55 171/297/100 172/298/101
f 174/49/77 178/299/103 180/300/79
f 175/52/78 178/301/103 177/302/102
f 176/303/76 178/304/103 179/305/82
f 181/306/13 185/307/17 187/308/19
f 182/41/14 185/309/17 184/310/45
f 183/75/15 185/311/17 186/312/18
f 188/50/20 192/313/63 194/314/26
f 189/73/61 192/315/63 191/316/64
f 190/317/22 192/318/63 193/319/104
f 195/46/29 199/320/95 201/321/32
f 196/53/93 199/322/95 198/323/105
f 197/42/28 199/324/95 200/325/106
f 202/51/35 206/326/107 208/327/37
f 203/40/36 206/328/107 205/329/39
f 204/330/73 206/331/107 207/332/108
f 209/62/48 213/333/110 215/334/86
f 210/140/83 213/335/110 212/336/52
f 211/45/109 213/337/110 214/338/97
f 216/339/67 220/340/70 222/341/88
f 217/342/111 220/343/70 219/344/71
f 218/43/66 220/345/70 221/346/72
f 223/63/56 227/347/100 229/348/59
f 224/44/54 227/349/100 226/350/89
f 225/67/112 227/351/100 228/352/101
f 230/64/77 234/353/91 236/354/79
f 231/355/113 234/356/91 233/357/81
f 232/358/76 234/359/91 235/360/92
f 237/361/13 241/362/17 243/363/19
f 238/57/41 241/364/17 240/365/16
f 239/141/15 241/366/17 242/367/43
f 244/65/20 248/368/63 250/369/26
f 245/139/61 248/370/63 247/371/114
f 246/56/22 248/372/63 249/373/65
f 251/61/29 255/374/95 257/375/32
f 252/69/115 255/376/95 254/377/105
f 253/55/28 255/378/95 256/379/106
f 258/66/35 262/380/38 264/381/116
f 259/382/36 262/383/38 261/384/39
f 260/68/34 262/385/38 263/386/40
f 277/387/13 281/388/17 283/389/120
f 278/84/14 281/390/17 280/391/45
f 279/72/42 281/392/17 282/393/18
f 284/86/20 288/394/63 290/395/26
f 285/70/61 288/396/63 287/397/64
f 286/83/22 288/398/63 289/399/121
f 291/58/93 295/400/31 297/401/105
f 292/82/28 295/402/31 294/403/106
f 293/3/29 295/404/31 296/405/32
f 298/406/34 302/407/75 304/408/74
f 299/87/35 302/409/75 301/410/116
f 300/411/122 302/412/75 303/413/123
f 305/414/124 309/415/128 311/416/130
f 306/106/125 309/417/128 308/418/127
f 311/416/130 310/419/129 307/60/126
f 315/420/134 318/421/137 312/422/131
f 313/423/132 316/424/135 315/420/134
f 314/85/133 316/425/135 317/426/136
f 319/81/138 323/427/142 325/428/144
f 324/429/143 322/430/141 320/2/139
f 321/431/140 323/432/142 324/429/143
f 326/433/145 330/434/149 332/435/151
f 327/102/146 330/436/149 329/437/148
f 332/435/151 331/438/150 328/1/147
f 339/439/155 345/440/157 333/441/152
f 341/442/156 339/443/155 334/444/153
f 342/445/157 341/446/156 335/111/154
f 343/447/158 342/448/157 336/97/152
f 344/449/156 343/450/158 337/90/153
f 345/451/157 344/452/156 338/100/154
f 352/453/163 358/454/165 346/99/159
f 354/455/164 352/456/163 347/457/160
f 355/458/165 354/459/164 348/92/161
f 356/460/163 355/461/165 349/79/159
f 357/462/164 356/463/163 350/103/160
f 358/464/165 357/465/164 351/88/162
f 359/466/48 363/467/110 365/468/86
f 360/77/83 363/469/110 362/470/166
f 361/104/47 363/471/110 364/472/97
f 366/473/13 370/474/167 372/475/120
f 367/101/14 370/476/167 369/477/45
f 368/78/42 370/478/167 371/479/18
f 373/89/20 377/480/63 379/481/26
f 374/76/61 377/482/63 376/483/64
f 375/484/22 377/485/63 378/486/25
f 380/487/68 384/488/87 386/489/71
f 381/105/66 384/490/87 383/491/72
f 382/492/67 384/493/87 385/494/88
f 387/495/78 391/496/103 393/497/81
f 388/108/76 391/498/103 390/499/82
f 389/94/77 391/500/103 392/501/79
f 394/502/34 398/503/107 400/504/108
f 395/96/35 398/505/107 397/506/37
f 396/507/36 398/508/107 399/509/168
f 401/510/61 405/511/169 407/512/64
f 402/110/22 405/513/169 404/514/121
f 403/95/20 405/515/169 406/516/26
f 408/98/67 412/517/171 414/518/99
f 409/519/68 412/520/171 411/521/71
f 410/107/170 412/522/171 413/523/72
f 415/524/172 419/525/174 421/526/130
f 416/135/125 419/527/174 418/528/173
f 421/526/130 420/529/175 417/530/126
f 425/531/176 428/532/179 422/533/131
f 423/534/132 426/535/177 425/531/176
f 424/121/133 426/536/177 427/537/178
f 429/538/180 433/539/184 435/540/186
f 430/136/181 433/541/184 432/542/183
f 435/540/186 434/543/185 431/124/182
f 439/544/190 442/545/193 436/125/187
f 437/546/188 440/547/191 439/544/190
f 438/548/189 440/549/191 441/550/192
f 443/551/78 447/552/91 449/553/81
f 444/134/76 447/554/91 446/555/92
f 445/112/77 447/556/91 448/557/194
f 450/558/34 454/559/38 456/560/40
f 451/114/35 454/561/38 453/562/37
f 452/137/36 454/563/38 455/564/39
f 457/565/61 461/566/63 463/567/64
f 458/138/22 461/568/63 460/569/65
f 459/113/20 461/570/63 462/571/26
f 464/572/67 468/573/87 470/574/69
f 465/575/68 468/576/87 467/577/71
f 466/578/66 468/579/87 469/580/72
f 36/118/36 30/161/30 40/581/40
f 30/582/30 34/164/34 40/166/40
f 13/142/13 32/163/32 16/583/16
f 32/584/32 14/119/14 16/146/16
f 20/122/20 39/585/39 35/123/35
f 26/586/26 36/118/36 39/170/39
f 15/126/15 25/587/25 21/151/21
f 25/156/25 14/119/14 22/154/22
f 41/131/41 58/588/53 55/132/28
f 47/589/45 56/17/29 58/187/53
f 42/5/42 54/179/52 46/590/19
f 54/591/52 43/18/13 46/176/19
f 49/14/47 68/192/60 53/592/51
f 53/183/51 64/195/56 50/16/48
f 57/21/27 67/593/59 63/19/55
f 67/197/59 56/17/29 64/195/56
f 83/130/36 61/185/30 86/594/74
f 61/595/30 84/20/73 86/215/74
f 90/13/76 65/596/57 62/190/54
f 65/194/57 92/222/78 63/19/55
f 91/7/77 88/217/37 95/597/81
f 88/598/37 92/222/78 95/224/81
f 83/130/36 72/599/62 69/198/22
f 72/202/62 85/9/35 70/8/20
f 90/13/76 82/206/72 93/600/79
f 82/601/72 91/7/77 93/221/79
f 71/6/61 81/602/71 77/4/67
f 81/211/71 70/8/20 78/209/68
f 41/131/41 75/200/65 44/603/43
f 75/604/65 42/5/42 44/174/43
f 76/15/66 51/181/49 79/605/69
f 51/606/49 77/4/67 79/208/69
f 97/11/48 114/607/89 111/12/56
f 103/608/86 112/35/54 114/242/89
f 98/23/83 110/233/88 102/609/49
f 110/610/88 99/36/47 102/230/49
f 105/234/68 124/246/79 109/611/72
f 124/612/79 106/34/66 109/238/72
f 119/37/78 116/244/90 123/613/92
f 123/251/92 112/35/54 120/249/76
f 111/12/56 142/614/94 139/10/29
f 117/615/59 140/38/93 142/268/94
f 146/33/35 121/616/81 118/31/77
f 152/617/37 119/37/78 121/248/81
f 141/25/28 151/618/40 147/273/36
f 144/619/96 148/276/34 151/278/40
f 125/252/13 145/266/32 128/620/45
f 128/256/45 141/25/28 126/27/14
f 132/32/20 149/621/39 146/33/35
f 149/275/39 134/26/22 147/273/36
f 127/24/15 137/622/25 133/22/21
f 137/264/25 126/27/14 134/26/22
f 125/252/13 100/623/84 97/11/48
f 131/624/19 98/23/83 100/228/84
f 105/234/68 135/625/23 132/32/20
f 135/262/23 104/231/67 133/22/21
f 153/47/48 170/626/89 167/48/56
f 159/627/51 168/29/54 170/296/89
f 154/74/46 166/287/99 158/628/97
f 166/629/99 155/30/47 158/284/97
f 174/49/77 165/630/98 161/288/68
f 165/292/98 176/303/76 162/28/66
f 169/54/55 179/631/82 175/52/78
f 179/305/82 168/29/54 176/303/76
f 167/48/56 198/632/105 195/46/29
f 173/633/59 196/53/93 198/323/105
f 202/51/35 177/634/102 174/49/77
f 208/635/37 175/52/78 177/302/102
f 197/42/28 207/636/108 203/40/36
f 200/637/106 204/330/73 207/332/108
f 181/306/13 201/321/32 184/638/45
f 201/639/32 182/41/14 184/310/45
f 188/50/20 205/640/39 202/51/35
f 194/641/26 203/40/36 205/329/39
f 183/75/15 193/642/104 189/73/61
f 193/319/104 182/41/14 190/317/22
f 181/306/13 156/643/52 153/47/48
f 187/644/19 154/74/46 156/282/52
f 161/288/68 191/645/64 188/50/20
f 163/646/71 189/73/61 191/316/64
f 209/62/48 226/647/89 223/63/56
f 215/648/86 224/44/54 226/350/89
f 216/339/67 214/649/97 210/140/83
f 222/650/88 211/45/109 214/338/97
f 230/64/77 221/651/72 217/342/111
f 221/346/72 232/358/76 218/43/66
f 231/355/113 228/352/101 235/652/92
f 228/653/101 232/358/76 235/360/92
f 223/63/56 254/654/105 251/61/29
f 229/655/59 252/69/115 254/377/105
f 258/66/35 233/656/81 230/64/77
f 264/657/116 231/355/113 233/357/81
f 253/55/28 263/658/40 259/382/36
f 256/659/106 260/68/34 263/386/40
f 237/361/13 257/375/32 240/660/16
f 257/661/32 238/57/41 240/365/16
f 244/65/20 261/662/39 258/66/35
f 250/663/26 259/382/36 261/384/39
f 239/141/15 249/664/65 245/139/61
f 249/373/65 238/57/41 246/56/22
f 237/361/13 212/665/52 209/62/48
f 243/666/19 210/140/83 212/336/52
f 217/342/111 247/667/114 244/65/20
f 219/668/71 245/139/61 247/371/114
f 300/411/122 294/403/106 304/669/74
f 294/670/106 298/406/34 304/408/74
f 277/387/13 296/405/32 280/671/45
f 296/672/32 278/84/14 280/391/45
f 284/86/20 303/673/123 299/87/35
f 290/674/26 300/411/122 303/413/123
f 279/72/42 289/675/121 285/70/61
f 289/399/121 278/84/14 286/83/22
f 272/676/8 297/677/105 293/3/29
f 273/678/9 291/58/93 297/401/105
f 19/679/19 2/680/2 3/681/3
f 305/93/124 276/682/12 274/91/10
f 311/416/130 275/683/11 276/684/12
f 314/85/133 301/410/116 318/685/137
f 318/421/137 298/406/34 312/422/131
f 265/686/1 322/430/141 267/687/118
f 267/688/118 319/81/138 266/80/117
f 277/387/13 332/435/151 328/1/147
f 283/689/120 326/71/145 332/690/151
f 334/444/153 287/691/64 284/86/20
f 339/439/155 285/70/61 287/397/64
f 346/99/159 343/447/158 336/97/152
f 358/464/165 337/90/153 343/450/158
f 269/692/5 355/458/165 348/92/161
f 270/693/119 349/79/159 355/461/165
f 335/111/154 317/694/136 313/109/132
f 317/426/136 334/444/153 314/85/133
f 305/93/124 354/459/164 308/695/127
f 308/418/127 347/457/160 306/106/125
f 338/100/154 329/437/148 345/451/157
f 345/440/157 326/71/145 333/441/152
f 319/81/138 356/460/163 349/79/159
f 325/696/144 350/103/160 356/463/163
f 359/466/48 372/475/120 362/697/166
f 372/698/120 360/77/83 362/470/166
f 380/487/68 376/699/64 373/89/20
f 376/483/64 382/492/67 374/76/61
f 374/76/61 371/479/18 378/700/25
f 371/701/18 375/484/22 378/486/25
f 381/105/66 364/472/97 385/702/88
f 364/703/97 382/492/67 385/494/88
f 373/89/20 344/449/156 337/90/153
f 379/704/26 338/100/154 344/452/156
f 366/473/13 331/438/150 369/705/45
f 369/477/45 327/102/146 367/101/14
f 350/103/160 383/491/72 357/462/164
f 383/706/72 351/88/162 357/465/164
f 359/466/48 324/429/143 320/2/139
f 365/707/86 321/708/140 324/709/143
f 389/94/77 397/506/37 393/710/81
f 397/711/37 387/495/78 393/497/81
f 409/519/68 407/712/64 403/95/20
f 407/512/64 408/98/67 401/510/61
f 403/95/20 399/713/168 395/96/35
f 399/509/168 402/110/22 396/507/36
f 388/108/76 413/523/72 392/714/79
f 392/501/79 409/519/68 389/94/77
f 402/110/22 342/445/157 335/111/154
f 342/448/157 401/510/61 336/97/152
f 410/107/170 352/456/163 414/715/99
f 352/453/163 408/98/67 414/518/99
f 394/502/34 315/420/134 312/422/131
f 400/716/108 313/109/132 315/717/134
f 306/106/125 390/499/82 310/718/129
f 310/419/129 387/495/78 307/60/126
f 9/719/9 27/157/27 33/159/33
f 415/128/172 12/720/12 10/129/10
f 421/526/130 11/721/11 12/722/12
f 424/121/133 37/168/37 428/723/179
f 428/532/179 34/164/34 422/533/131
f 27/157/27 7/724/7 417/530/126
f 13/142/13 3/725/3 1/116/1
f 8/117/8 33/726/33 29/115/29
f 429/727/180 23/728/23 20/122/20
f 435/540/186 21/151/21 23/153/23
f 438/548/189 6/729/6 442/730/193
f 442/545/193 4/731/4 436/125/187
f 430/136/181 427/732/178 423/733/132
f 432/734/183 424/121/133 427/537/178
f 415/128/172 441/550/192 418/735/173
f 418/528/173 437/133/188 416/135/125
f 445/112/77 453/562/37 449/736/81
f 453/737/37 443/551/78 449/553/81
f 465/575/68 463/738/64 459/113/20
f 463/567/64 464/572/67 457/565/61
f 451/114/35 462/571/26 455/739/39
f 455/564/39 458/138/22 452/137/36
f 466/578/66 448/740/194 444/134/76
f 469/741/72 445/112/77 448/557/194
f 430/136/181 460/569/65 434/742/185
f 434/543/185 457/565/61 431/124/182
f 437/133/188 470/743/69 466/578/66
f 439/544/190 464/572/67 470/574/69
f 450/558/34 425/531/176 422/533/131
f 456/744/40 423/733/132 425/745/176
f 416/135/125 446/555/92 420/746/175
f 420/529/175 443/551/78 417/530/126
f 328/1/147 366/473/13 359/466/48
f 320/2/139 265/686/1 272/676/8
f 328/1/147 359/466/48 320/2/139
f 293/3/29 277/387/13 328/1/147
f 320/2/139 272/676/8 293/3/29
f 77/4/67 48/177/46 42/5/42
f 91/7/77 78/209/68 70/8/20
f 139/10/29 125/252/13 97/11/48
f 90/13/76 62/190/54 49/14/47
f 50/16/48 64/195/56 56/17/29
f 63/19/55 92/222/78 84/20/73
f 133/22/21 104/231/67 98/23/83
f 141/25/28 147/273/36 134/26/22
f 162/28/66 176/303/76 168/29/54
f 118/31/77 105/234/68 132/32/20
f 106/34/66 120/249/76 112/35/54
f 119/37/78 148/276/34 140/38/93
f 203/40/36 190/317/22 182/41/14
f 218/43/66 232/358/76 224/44/54
f 195/46/29 181/306/13 153/47/48
f 174/49/77 161/288/68 188/50/20
f 175/52/78 204/330/73 196/53/93
f 253/55/28 259/382/36 246/56/22
f 307/60/126 387/495/78 394/502/34
f 312/422/131 298/406/34 291/58/93
f 307/60/126 394/502/34 312/422/131
f 271/59/7 275/683/11 307/60/126
f 312/422/131 291/58/93 307/60/126
f 251/61/29 237/361/13 209/62/48
f 230/64/77 217/342/111 244/65/20
f 225/67/112 231/355/113 260/68/34
f 285/70/61 333/441/152 326/71/145
f 189/73/61 160/285/67 154/74/46
f 374/76/61 382/492/67 360/77/83
f 349/79/159 268/747/4 266/80/117
f 292/82/28 300/411/122 286/83/22
f 314/85/133 334/444/153 284/86/20
f 351/88/162 380/487/68 373/89/20
f 274/91/10 269/692/5 348/92/161
f 389/94/77 409/519/68 403/95/20
f 336/97/152 401/510/61 408/98/67
f 338/100/154 375/484/22 367/101/14
f 350/103/160 321/708/140 361/104/47
f 306/106/125 347/457/160 410/107/170
f 313/109/132 396/507/36 402/110/22
f 445/112/77 465/575/68 459/113/20
f 29/115/29 13/142/13 1/116/1
f 36/118/36 22/154/22 14/119/14
f 424/121/133 429/727/180 20/122/20
f 431/124/182 457/565/61 464/572/67
f 436/125/187 4/731/4 2/680/2
f 431/124/182 464/572/67 436/125/187
f 15/126/15 21/151/21 431/124/182
f 436/125/187 2/680/2 15/126/15
f 5/127/5 438/548/189 415/128/172
f 83/130/36 69/198/22 41/131/41
f 437/133/188 466/578/66 444/134/76
f 430/136/181 423/733/132 452/137/36
f 245/139/61 216/339/67 210/140/83
f 13/142/13 16/583/16 17/143/17
f 14/119/14 18/748/18 17/145/17
f 15/126/15 19/679/19 17/147/17
f 20/122/20 23/728/23 24/149/24
f 21/151/21 25/587/25 24/152/24
f 22/154/22 26/586/26 24/155/24
f 27/157/27 30/582/30 31/158/31
f 28/120/28 32/584/32 31/160/31
f 29/115/29 33/726/33 31/162/31
f 34/164/34 37/749/37 38/165/38
f 35/123/35 39/585/39 38/167/38
f 36/118/36 40/581/40 38/169/38
f 41/131/41 44/603/43 45/171/44
f 42/5/42 46/590/19 45/173/44
f 43/18/13 47/589/45 45/175/44
f 48/177/46 51/606/49 52/178/50
f 49/14/47 53/592/51 52/180/50
f 50/16/48 54/591/52 52/182/50
f 55/132/28 58/588/53 59/184/31
f 56/17/29 60/750/33 59/186/31
f 57/21/27 61/595/30 59/188/31
f 62/190/54 65/596/57 66/191/58
f 63/19/55 67/593/59 66/193/58
f 64/195/56 68/751/60 66/196/58
f 69/198/22 72/599/62 73/199/63
f 70/8/20 74/752/64 73/201/63
f 71/6/61 75/604/65 73/203/63
f 76/15/66 79/605/69 80/205/70
f 77/4/67 81/602/71 80/207/70
f 78/209/68 82/601/72 80/210/70
f 83/130/36 86/594/74 87/212/75
f 84/20/73 88/598/37 87/214/75
f 85/9/35 89/753/39 87/216/75
f 90/13/76 93/600/79 94/218/80
f 91/7/77 95/597/81 94/220/80
f 92/222/78 96/754/82 94/223/80
f 97/11/48 100/623/84 101/225/85
f 98/23/83 102/609/49 101/227/85
f 99/36/47 103/608/86 101/229/85
f 104/231/67 107/755/71 108/232/87
f 105/234/68 109/611/72 108/235/87
f 106/34/66 110/610/88 108/237/87
f 111/12/56 114/607/89 115/239/58
f 112/35/54 116/756/90 115/241/58
f 113/39/55 117/615/59 115/243/58
f 118/31/77 121/616/81 122/245/91
f 119/37/78 123/613/92 122/247/91
f 120/249/76 124/612/79 122/250/91
f 125/252/13 128/620/45 129/253/44
f 126/27/14 130/757/43 129/255/44
f 127/24/15 131/624/19 129/257/44
f 132/32/20 135/625/23 136/259/63
f 133/22/21 137/622/25 136/261/63
f 134/26/22 138/758/26 136/263/63
f 139/10/29 142/614/94 143/265/95
f 140/38/93 144/619/96 143/267/95
f 141/25/28 145/759/32 143/269/95
f 146/33/35 149/621/39 150/271/38
f 147/273/36 151/618/40 150/274/38
f 148/276/34 152/617/37 150/277/38
f 153/47/48 156/643/52 157/279/50
f 154/74/46 158/628/97 157/281/50
f 155/30/47 159/627/51 157/283/50
f 160/285/67 163/646/71 164/286/87
f 161/288/68 165/630/98 164/289/87
f 162/28/66 166/629/99 164/291/87
f 167/48/56 170/626/89 171/293/100
f 168/29/54 172/760/101 171/295/100
f 169/54/55 173/633/59 171/297/100
f 174/49/77 177/634/102 178/299/103
f 175/52/78 179/631/82 178/301/103
f 176/303/76 180/761/79 178/304/103
f 181/306/13 184/638/45 185/307/17
f 182/41/14 186/762/18 185/309/17
f 183/75/15 187/644/19 185/311/17
f 188/50/20 191/645/64 192/313/63
f 189/73/61 193/642/104 192/315/63
f 190/317/22 194/641/26 192/318/63
f 195/46/29 198/632/105 199/320/95
f 196/53/93 200/637/106 199/322/95
f 197/42/28 201/639/32 199/324/95
f 202/51/35 205/640/39 206/326/107
f 203/40/36 207/636/108 206/328/107
f 204/330/73 208/635/37 206/331/107
f 209/62/48 212/665/52 213/333/110
f 210/140/83 214/649/97 213/335/110
f 211/45/109 215/648/86 213/337/110
f 216/339/67 219/668/71 220/340/70
f 217/342/111 221/651/72 220/343/70
f 218/43/66 222/650/88 220/345/70
f 223/63/56 226/647/89 227/347/100
f 224/44/54 228/653/101 227/349/100
f 225/67/112 229/655/59 227/351/100
f 230/64/77 233/656/81 234/353/91
f 231/355/113 235/652/92 234/356/91
f 232/358/76 236/763/79 234/359/91
f 237/361/13 240/660/16 241/362/17
f 238/57/41 242/764/43 241/364/17
f 239/141/15 243/666/19 241/366/17
f 244/65/20 247/667/114 248/368/63
f 245/139/61 249/664/65 248/370/63
f 246/56/22 250/663/26 248/372/63
f 251/61/29 254/654/105 255/374/95
f 252/69/115 256/659/106 255/376/95
f 253/55/28 257/661/32 255/378/95
f 258/66/35 261/662/39 262/380/38
f 259/382/36 263/658/40 262/383/38
f 260/68/34 264/657/116 262/385/38
f 277/387/13 280/671/45 281/388/17
f 278/84/14 282/765/18 281/390/17
f 279/72/42 283/689/120 281/392/17
f 284/86/20 287/691/64 288/394/63
f 285/70/61 289/675/121 288/396/63
f 286/83/22 290/674/26 288/398/63
f 291/58/93 294/670/106 295/400/31
f 292/82/28 296/672/32 295/402/31
f 293/3/29 297/677/105 295/404/31
f 298/406/34 301/766/116 302/407/75
f 299/87/35 303/673/123 302/409/75
f 300/411/122 304/669/74 302/412/75
f 305/93/124 308/695/127 309/767/128
f 306/768/125 310/419/129 309/415/128
f 311/416/130 309/415/128 310/419/129
f 315/420/134 316/424/135 318/421/137
f 313/109/132 317/694/136 316/769/135
f 314/770/133 318/421/137 316/424/135
f 319/771/138 322/430/141 323/432/142
f 324/429/143 323/432/142 322/430/141
f 321/708/140 325/696/144 323/772/142
f 326/71/145 329/773/148 330/774/149
f 327/775/146 331/438/150 330/434/149
f 332/435/151 330/434/149 331/438/150
f 339/439/155 340/776/63 345/440/157
f 341/442/156 340/777/63 339/443/155
f 342/445/157 340/778/63 341/446/156
f 343/447/158 340/779/63 342/448/157
f 344/449/156 340/780/63 343/450/158
f 345/451/157 340/781/63 344/452/156
f 352/453/163 353/782/87 358/454/165
f 354/455/164 353/783/87 352/456/163
f 355/458/165 353/784/87 354/459/164
f 356/460/163 353/785/87 355/461/165
f 357/462/164 353/786/87 356/463/163
f 358/464/165 353/787/87 357/465/164
f 359/466/48 362/697/166 363/467/110
f 360/77/83 364/703/97 363/469/110
f 361/104/47 365/707/86 363/471/110
f 366/473/13 369/705/45 370/474/167
f 367/101/14 371/701/18 370/476/167
f 368/78/42 372/698/120 370/478/167
f 373/89/20 376/699/64 377/480/63
f 374/76/61 378/700/25 377/482/63
f 375/484/22 379/704/26 377/485/63
f 380/487/68 383/706/72 384/488/87
f 381/105/66 385/702/88 384/490/87
f 382/492/67 386/788/71 384/493/87
f 387/495/78 390/789/82 391/496/103
f 388/108/76 392/714/79 391/498/103
f 389/94/77 393/710/81 391/500/103
f 394/502/34 397/711/37 398/503/107
f 395/96/35 399/713/168 398/505/107
f 396/507/36 400/716/108 398/508/107
f 401/510/61 404/790/121 405/511/169
f 402/110/22 406/791/26 405/513/169
f 403/95/20 407/712/64 405/515/169
f 408/98/67 411/792/71 412/517/171
f 409/519/68 413/793/72 412/520/171
f 410/107/170 414/715/99 412/522/171
f 415/128/172 418/735/173 419/794/174
f 416/795/125 420/529/175 419/525/174
f 421/526/130 419/525/174 420/529/175
f 425/531/176 426/535/177 428/532/179
f 423/733/132 427/732/178 426/796/177
f 424/797/133 428/532/179 426/535/177
f 429/727/180 432/734/183 433/798/184
f 430/799/181 434/543/185 433/539/184
f 435/540/186 433/539/184 434/543/185
f 439/544/190 440/547/191 442/545/193
f 437/133/188 441/800/192 440/801/191
f 438/802/189 442/545/193 440/547/191
f 443/551/78 446/803/92 447/552/91
f 444/134/76 448/740/194 447/554/91
f 445/112/77 449/736/81 447/556/91
f 450/558/34 453/737/37 454/559/38
f 451/114/35 455/739/39 454/561/38
f 452/137/36 456/744/40 454/563/38
f 457/565/61 460/804/65 461/566/63
f 458/138/22 462/805/26 461/568/63
f 459/113/20 463/738/64 461/570/63
f 464/572/67 467/806/71 468/573/87
f 465/575/68 469/741/72 468/576/87
f 466/578/66 470/743/69 468/579/87
f 36/118/36 28/120/28 30/161/30
f 30/582/30 27/157/27 34/164/34
f 13/142/13 29/115/29 32/163/32
f 32/584/32 28/120/28 14/119/14
f 20/122/20 26/150/26 39/585/39
f 26/586/26 22/154/22 36/118/36
f 15/126/15 18/148/18 25/587/25
f 25/156/25 18/748/18 14/119/14
f 41/131/41 47/172/45 58/588/53
f 47/589/45 43/18/13 56/17/29
f 42/5/42 48/177/46 54/179/52
f 54/591/52 50/16/48 43/18/13
f 49/14/47 62/190/54 68/192/60
f 53/183/51 68/751/60 64/195/56
f 57/21/27 60/189/33 67/593/59
f 67/197/59 60/750/33 56/17/29
f 83/130/36 55/132/28 61/185/30
f 61/595/30 57/21/27 84/20/73
f 90/13/76 96/219/82 65/596/57
f 65/194/57 96/754/82 92/222/78
f 91/7/77 85/9/35 88/217/37
f 88/598/37 84/20/73 92/222/78
f 83/130/36 89/213/39 72/599/62
f 72/202/62 89/753/39 85/9/35
f 90/13/76 76/15/66 82/206/72
f 82/601/72 78/209/68 91/7/77
f 71/6/61 74/204/64 81/602/71
f 81/211/71 74/752/64 70/8/20
f 41/131/41 69/198/22 75/200/65
f 75/604/65 71/6/61 42/5/42
f 76/15/66 49/14/47 51/181/49
f 51/606/49 48/177/46 77/4/67
f 97/11/48 103/226/86 114/607/89
f 103/608/86 99/36/47 112/35/54
f 98/23/83 104/231/67 110/233/88
f 110/610/88 106/34/66 99/36/47
f 105/234/68 118/31/77 124/246/79
f 124/612/79 120/249/76 106/34/66
f 119/37/78 113/39/55 116/244/90
f 123/251/92 116/756/90 112/35/54
f 111/12/56 117/240/59 142/614/94
f 117/615/59 113/39/55 140/38/93
f 146/33/35 152/272/37 121/616/81
f 152/617/37 148/276/34 119/37/78
f 141/25/28 144/270/96 151/618/40
f 144/619/96 140/38/93 148/276/34
f 125/252/13 139/10/29 145/266/32
f 128/256/45 145/759/32 141/25/28
f 132/32/20 138/260/26 149/621/39
f 149/275/39 138/758/26 134/26/22
f 127/24/15 130/258/43 137/622/25
f 137/264/25 130/757/43 126/27/14
f 125/252/13 131/254/19 100/623/84
f 131/624/19 127/24/15 98/23/83
f 105/234/68 107/236/71 135/625/23
f 135/262/23 107/755/71 104/231/67
f 153/47/48 159/280/51 170/626/89
f 159/627/51 155/30/47 168/29/54
f 154/74/46 160/285/67 166/287/99
f 166/629/99 162/28/66 155/30/47
f 174/49/77 180/300/79 165/630/98
f 165/292/98 180/761/79 176/303/76
f 169/54/55 172/298/101 179/631/82
f 179/305/82 172/760/101 168/29/54
f 167/48/56 173/294/59 198/632/105
f 173/633/59 169/54/55 196/53/93
f 202/51/35 208/327/37 177/634/102
f 208/635/37 204/330/73 175/52/78
f 197/42/28 200/325/106 207/636/108
f 200/637/106 196/53/93 204/330/73
f 181/306/13 195/46/29 201/321/32
f 201/639/32 197/42/28 182/41/14
f 188/50/20 194/314/26 205/640/39
f 194/641/26 190/317/22 203/40/36
f 183/75/15 186/312/18 193/642/104
f 193/319/104 186/762/18 182/41/14
f 181/306/13 187/308/19 156/643/52
f 187/644/19 183/75/15 154/74/46
f 161/288/68 163/290/71 191/645/64
f 163/646/71 160/285/67 189/73/61
f 209/62/48 215/334/86 226/647/89
f 215/648/86 211/45/109 224/44/54
f 216/339/67 222/341/88 214/649/97
f 222/650/88 218/43/66 211/45/109
f 230/64/77 236/354/79 221/651/72
f 221/346/72 236/763/79 232/358/76
f 231/355/113 225/67/112 228/352/101
f 228/653/101 224/44/54 232/358/76
f 223/63/56 229/348/59 254/654/105
f 229/655/59 225/67/112 252/69/115
f 258/66/35 264/381/116 233/656/81
f 264/657/116 260/68/34 231/355/113
f 253/55/28 256/379/106 263/658/40
f 256/659/106 252/69/115 260/68/34
f 237/361/13 251/61/29 257/375/32
f 257/661/32 253/55/28 238/57/41
f 244/65/20 250/369/26 261/662/39
f 250/663/26 246/56/22 259/382/36
f 239/141/15 242/367/43 249/664/65
f 249/373/65 242/764/43 238/57/41
f 237/361/13 243/363/19 212/665/52
f 243/666/19 239/141/15 210/140/83
f 217/342/111 219/344/71 247/667/114
f 219/668/71 216/339/67 245/139/61
f 300/411/122 292/82/28 294/403/106
f 294/670/106 291/58/93 298/406/34
f 277/387/13 293/3/29 296/405/32
f 296/672/32 292/82/28 278/84/14
f 284/86/20 290/395/26 303/673/123
f 290/674/26 286/83/22 300/411/122
f 279/72/42 282/393/18 289/675/121
f 289/399/121 282/765/18 278/84/14
f 272/676/8 273/807/9 297/677/105
f 273/678/9 271/59/7 291/58/93
f 19/679/19 15/126/15 2/680/2
f 305/93/124 311/808/130 276/682/12
f 311/416/130 307/60/126 275/683/11
f 314/85/133 299/87/35 301/410/116
f 318/421/137 301/766/116 298/406/34
f 265/686/1 320/2/139 322/430/141
f 267/688/118 322/809/141 319/81/138
f 277/387/13 283/389/120 332/435/151
f 283/689/120 279/72/42 326/71/145
f 334/444/153 339/443/155 287/691/64
f 339/439/155 333/441/152 285/70/61
f 346/99/159 358/454/165 343/447/158
f 358/464/165 351/88/162 337/90/153
f 269/692/5 270/810/119 355/458/165
f 270/693/119 268/747/4 349/79/159
f 335/111/154 341/446/156 317/694/136
f 317/426/136 341/442/156 334/444/153
f 305/93/124 348/92/161 354/459/164
f 308/418/127 354/455/164 347/457/160
f 338/100/154 327/102/146 329/437/148
f 345/440/157 329/773/148 326/71/145
f 319/81/138 325/428/144 356/460/163
f 325/696/144 321/708/140 350/103/160
f 359/466/48 366/473/13 372/475/120
f 372/698/120 368/78/42 360/77/83
f 380/487/68 386/489/71 376/699/64
f 376/483/64 386/788/71 382/492/67
f 374/76/61 368/78/42 371/479/18
f 371/701/18 367/101/14 375/484/22
f 381/105/66 361/104/47 364/472/97
f 364/703/97 360/77/83 382/492/67
f 373/89/20 379/481/26 344/449/156
f 379/704/26 375/484/22 338/100/154
f 366/473/13 328/1/147 331/438/150
f 369/477/45 331/811/150 327/102/146
f 350/103/160 381/105/66 383/491/72
f 383/706/72 380/487/68 351/88/162
f 359/466/48 365/468/86 324/429/143
f 365/707/86 361/104/47 321/708/140
f 389/94/77 395/96/35 397/506/37
f 397/711/37 394/502/34 387/495/78
f 409/519/68 411/521/71 407/712/64
f 407/512/64 411/792/71 408/98/67
f 403/95/20 406/516/26 399/713/168
f 399/509/168 406/791/26 402/110/22
f 388/108/76 410/107/170 413/523/72
f 392/501/79 413/793/72 409/519/68
f 402/110/22 404/514/121 342/445/157
f 342/448/157 404/790/121 401/510/61
f 410/107/170 347/457/160 352/456/163
f 352/453/163 346/99/159 408/98/67
f 394/502/34 400/504/108 315/420/134
f 400/716/108 396/507/36 313/109/132
f 306/106/125 388/108/76 390/499/82
f 310/419/129 390/789/82 387/495/78
f 9/719/9 7/724/7 27/157/27
f 415/128/172 421/812/130 12/720/12
f 421/526/130 417/530/126 11/721/11
f 424/121/133 35/123/35 37/168/37
f 428/532/179 37/749/37 34/164/34
f 417/530/126 443/551/78 450/558/34
f 422/533/131 34/164/34 27/157/27
f 417/530/126 450/558/34 422/533/131
f 7/724/7 11/721/11 417/530/126
f 422/533/131 27/157/27 417/530/126
f 13/142/13 19/144/19 3/725/3
f 8/117/8 9/813/9 33/726/33
f 429/727/180 435/814/186 23/728/23
f 435/540/186 431/124/182 21/151/21
f 438/548/189 5/127/5 6/729/6
f 442/545/193 6/815/6 4/731/4
f 430/136/181 432/542/183 427/732/178
f 432/734/183 429/727/180 424/121/133
f 415/128/172 438/548/189 441/550/192
f 418/528/173 441/800/192 437/133/188
f 445/112/77 451/114/35 453/562/37
f 453/737/37 450/558/34 443/551/78
f 465/575/68 467/577/71 463/738/64
f 463/567/64 467/806/71 464/572/67
f 451/114/35 459/113/20 462/571/26
f 455/564/39 462/805/26 458/138/22
f 466/578/66 469/580/72 448/740/194
f 469/741/72 465/575/68 445/112/77
f 430/136/181 458/138/22 460/569/65
f 434/543/185 460/804/65 457/565/61
f 437/133/188 439/816/190 470/743/69
f 439/544/190 436/125/187 464/572/67
f 450/558/34 456/560/40 425/531/176
f 456/744/40 452/137/36 423/733/132
f 416/135/125 444/134/76 446/555/92
f 420/529/175 446/803/92 443/551/78
