# Blender 4.2.8 LTS
# www.blender.org
mtllib Reina corazones ventanaobj.mtl
o liso.002
v 1.922777 0.931368 1.898009
v -0.077205 0.931368 1.906474
v 1.921114 -0.722492 1.899846
v -0.078868 -0.722492 1.908311
v 1.920741 -0.722492 1.811735
v 1.920741 -0.965640 1.811735
v -0.079241 -0.965640 1.820200
v -0.077578 0.931368 1.818363
v -0.079241 1.034360 1.820200
v 1.920741 1.034360 1.811735
v 1.922404 0.931368 1.809898
v -0.079241 -0.722492 1.820200
v 1.413515 -0.722492 1.901995
v 1.413142 -0.965640 1.813884
v 1.413142 1.034360 1.813884
v 1.414805 0.931368 1.812046
v 1.413142 -0.722492 1.813884
v 0.526906 -0.965640 1.817635
v 0.527279 -0.722492 1.905746
v 0.526906 1.034360 1.817635
v 0.528569 0.931368 1.815797
v 0.526906 -0.722492 1.817635
v 1.414737 0.492930 1.900644
v 0.976743 0.931368 1.902013
v 1.414805 0.931368 1.812096
v 1.853613 0.931368 1.898302
v 1.391478 0.627816 1.900594
v 1.330200 0.749801 1.900718
v 1.438266 0.627812 1.900396
v 1.416794 0.717556 1.899106
v 1.368634 0.799662 1.897810
v 1.499790 0.749801 1.900000
v 1.462604 0.799236 1.897413
v 1.415067 0.845722 1.894462
v 1.112477 0.931368 1.896687
v 1.234874 0.931368 1.883669
v 1.111604 0.907973 1.901468
v 1.208333 0.903063 1.895703
v 1.297764 0.909781 1.886858
v 1.233527 0.846573 1.901020
v 1.296766 0.862223 1.896347
v 1.359018 0.883166 1.890630
v 1.436347 0.931368 1.837798
v 1.498128 0.931368 1.862924
v 1.393482 0.931368 1.837980
v 1.413010 0.925615 1.855465
v 1.462088 0.918803 1.872766
v 1.331915 0.931368 1.863628
v 1.366673 0.918803 1.873069
v 1.415076 0.903229 1.882664
v 1.718708 0.907974 1.898898
v 1.596659 0.846573 1.899483
v 1.717839 0.931368 1.894124
v 1.621938 0.904874 1.893579
v 1.532995 0.863378 1.895345
v 1.595335 0.931368 1.882143
v 1.532844 0.909782 1.885632
v 1.471158 0.883166 1.890155
v 0.528501 0.492930 1.904396
v 0.090507 0.931368 1.905764
v 0.528569 0.931368 1.815848
v 0.967377 0.931368 1.902053
v 0.505242 0.627816 1.904345
v 0.443965 0.749801 1.904469
v 0.552031 0.627812 1.904147
v 0.530558 0.717556 1.902857
v 0.482398 0.799662 1.901561
v 0.613554 0.749801 1.903751
v 0.576369 0.799236 1.901164
v 0.528831 0.845722 1.898213
v 0.226241 0.931368 1.900438
v 0.348639 0.931368 1.887420
v 0.225368 0.907973 1.905219
v 0.322097 0.903063 1.899454
v 0.411528 0.909781 1.890609
v 0.347292 0.846573 1.904771
v 0.410530 0.862223 1.900098
v 0.472782 0.883166 1.894381
v 0.550111 0.931368 1.841549
v 0.611893 0.931368 1.866675
v 0.507247 0.931368 1.841731
v 0.526775 0.925615 1.859216
v 0.575852 0.918803 1.876517
v 0.445680 0.931368 1.867379
v 0.480438 0.918803 1.876820
v 0.528840 0.903229 1.886415
v 0.832473 0.907974 1.902650
v 0.710423 0.846573 1.903234
v 0.831603 0.931368 1.897875
v 0.735702 0.904874 1.897331
v 0.646759 0.863378 1.899096
v 0.709100 0.931368 1.885894
v 0.646608 0.909782 1.889383
v 0.584922 0.883166 1.893906
v 1.413515 -0.722492 1.901995
v 0.527279 -0.722492 1.905746
v 1.414737 0.492930 1.900644
v 0.976743 0.931368 1.902013
v 1.391478 0.627816 1.900594
v 1.330200 0.749801 1.900718
v 1.111604 0.907973 1.901468
v 1.233527 0.846573 1.901020
v 0.528501 0.492930 1.904396
v 0.967377 0.931368 1.902053
v 0.552031 0.627812 1.904147
v 0.613554 0.749801 1.903751
v 0.832473 0.907974 1.902650
v 0.710423 0.846573 1.903234
v 0.576220 -0.673600 1.905484
v 1.364672 -0.673600 1.902147
v 1.365841 0.488770 1.900856
v 1.344531 0.612355 1.900809
v 1.290046 0.720818 1.900920
v 1.204504 0.806447 1.901187
v 1.096096 0.861041 1.901586
v 0.972534 0.882476 1.902085
v 0.598949 0.612268 1.903965
v 0.577389 0.488673 1.904193
v 0.653669 0.720766 1.903614
v 0.971585 0.882476 1.902089
v 0.847969 0.861040 1.902636
v 0.739417 0.806429 1.903156
v 0.576220 -0.673600 1.905484
v 1.364672 -0.673600 1.902147
v 1.365841 0.488770 1.900856
v 1.344531 0.612355 1.900809
v 1.290046 0.720818 1.900920
v 1.204504 0.806447 1.901187
v 1.096096 0.861041 1.901586
v 0.972534 0.882476 1.902085
v 0.598949 0.612268 1.903965
v 0.577389 0.488673 1.904193
v 0.653669 0.720766 1.903614
v 0.971585 0.882476 1.902089
v 0.847969 0.861040 1.902636
v 0.739417 0.806429 1.903156
v 0.576010 -0.673654 1.855914
v 1.364462 -0.673654 1.852577
v 1.365631 0.488715 1.851286
v 1.344321 0.612300 1.851239
v 1.289836 0.720763 1.851350
v 1.204294 0.806392 1.851617
v 1.095887 0.860986 1.852016
v 0.972324 0.882421 1.852515
v 0.598739 0.612213 1.854395
v 0.577179 0.488618 1.854623
v 0.653459 0.720711 1.854043
v 0.971375 0.882421 1.852519
v 0.847759 0.860985 1.853066
v 0.739207 0.806374 1.853586
v 0.527069 -0.722547 1.856176
v 1.413305 -0.722547 1.852425
v 1.414527 0.492875 1.851074
v 1.391268 0.627761 1.851023
v 1.329991 0.749747 1.851148
v 1.233317 0.846518 1.851450
v 1.111394 0.907919 1.851898
v 0.976533 0.931313 1.852443
v 0.551821 0.627757 1.854577
v 0.528291 0.492875 1.854825
v 0.613344 0.749746 1.854181
v 0.967167 0.931313 1.852483
v 0.832263 0.907920 1.853080
v 0.710213 0.846518 1.853664
vn -0.0042 0.0178 -0.9998
vn -0.0042 -0.0000 -1.0000
vn -0.0042 -0.0011 -1.0000
vn -0.0061 -0.0121 -0.9999
vn -0.0324 -0.1042 -0.9940
vn -0.0314 -0.0548 -0.9980
vn -0.0184 -0.0197 -0.9996
vn -0.0064 -0.0051 -1.0000
vn -0.0000 1.0000 -0.0000
vn -0.0021 -0.0052 -1.0000
vn 0.0104 -0.0198 -0.9998
vn 0.0223 -0.0553 -0.9982
vn 0.0241 -0.1042 -0.9943
vn -0.0023 -0.0121 -0.9999
vn -0.0000 -1.0000 -0.0000
vn -0.0148 -0.9875 -0.1572
vn -0.0597 -0.9198 -0.3879
vn 0.0542 -0.9197 -0.3888
vn 0.0141 -0.9874 -0.1574
vn -0.0037 -0.0174 -0.9998
vn -0.0519 -0.1200 -0.9914
vn -0.0173 -0.0525 -0.9985
vn 0.0094 -0.0521 -0.9986
vn -0.0469 -0.2508 -0.9669
vn -0.0043 -0.1167 -0.9932
vn -0.0570 -0.2087 -0.9763
vn -0.0890 -0.3640 -0.9271
vn -0.0765 -0.2162 -0.9733
vn -0.1019 -0.4096 -0.9066
vn -0.0937 -0.7029 -0.7051
vn 0.0838 -0.7051 -0.7041
vn -0.0032 -0.8941 -0.4478
vn 0.0946 -0.4103 -0.9070
vn -0.0016 -0.5003 -0.8659
vn 0.0387 -0.2502 -0.9674
vn 0.0485 -0.2089 -0.9767
vn 0.0693 -0.2221 -0.9726
vn 0.0437 -0.1242 -0.9913
vn 0.0842 -0.3672 -0.9263
vn -0.0857 0.9963 -0.0007
vn -0.3135 0.9496 0.0003
vn 0.3135 -0.9496 -0.0003
vn 0.0857 -0.9963 0.0007
vn -0.8101 0.5863 0.0028
vn -0.9493 0.3145 0.0037
vn 0.8929 -0.4503 -0.0033
vn 0.8101 -0.5863 -0.0028
vn -0.9962 0.0867 0.0041
vn -0.9962 0.0868 0.0041
vn 0.5861 0.8103 -0.0034
vn 0.3137 0.9495 -0.0024
vn -0.3137 -0.9495 0.0024
vn -0.5861 -0.8103 0.0034
vn 0.0858 0.9963 -0.0015
vn -0.0858 -0.9963 0.0015
vn 0.8108 0.5853 -0.0041
vn -0.8108 -0.5853 0.0041
vn 0.5855 -0.8107 -0.0016
vn -0.5855 0.8107 0.0016
vn -1.0000 0.0010 0.0042
vn 1.0000 -0.0010 -0.0042
vn 0.9964 0.0848 -0.0043
vn -0.0000 1.0000 -0.0011
vn -0.0000 -1.0000 0.0011
vn 0.0001 -1.0000 0.0011
vn 0.9498 0.3128 -0.0044
vn -0.8936 -0.4489 0.0043
vn -0.0001 1.0000 -0.0011
vn 0.0042 0.0011 1.0000
vt 0.489306 0.040244
vt 0.517100 0.205319
vt 0.489306 0.205775
vt 0.589693 0.043972
vt 0.654319 0.206602
vt 0.589693 0.206602
vt 0.038533 0.205318
vt 0.038533 0.039787
vt 0.486024 0.040244
vt 0.486024 0.086044
vt 0.479694 0.122873
vt 0.463081 0.156169
vt 0.436897 0.182569
vt 0.403891 0.199303
vt 0.367394 0.205654
vt 0.877318 0.611824
vt 0.823316 0.670816
vt 0.823252 0.611824
vt 0.728921 0.670816
vt 0.728857 0.611824
vt 0.038533 0.447337
vt 0.403890 0.212080
vt 0.436897 0.228881
vt 0.463081 0.255335
vt 0.479694 0.288665
vt 0.486024 0.325506
vt 0.486024 0.328064
vt 0.479694 0.364893
vt 0.463081 0.398188
vt 0.436897 0.424588
vt 0.403891 0.441322
vt 0.367394 0.447673
vt 0.589693 0.444380
vt 0.654319 0.580570
vt 0.589693 0.580569
vt 0.489306 0.447794
vt 0.517100 0.585957
vt 0.489306 0.586413
vt 0.489304 0.447794
vt 0.488343 0.441942
vt 0.487398 0.425099
vt 0.486667 0.398576
vt 0.486201 0.365137
vt 0.486201 0.288433
vt 0.486667 0.254994
vt 0.487398 0.228470
vt 0.488343 0.211628
vt 0.489304 0.205775
vt 0.664359 0.670816
vt 0.664294 0.611824
vt 0.486024 0.586414
vt 0.486024 0.567526
vt 0.486201 0.530453
vt 0.486667 0.497013
vt 0.487398 0.470490
vt 0.488343 0.453647
vt 0.654319 0.444380
vt 0.517100 0.447338
vt 0.488343 0.199922
vt 0.487398 0.183080
vt 0.486667 0.156557
vt 0.486201 0.123117
vt 0.403890 0.454099
vt 0.428220 0.448237
vt 0.467479 0.415463
vt 0.450488 0.435087
vt 0.436897 0.470901
vt 0.450373 0.460749
vt 0.473347 0.432469
vt 0.463066 0.447771
vt 0.478565 0.391314
vt 0.480698 0.415746
vt 0.483641 0.434580
vt 0.483638 0.460636
vt 0.486132 0.447254
vt 0.480707 0.479944
vt 0.479063 0.447787
vt 0.473347 0.463093
vt 0.479694 0.530685
vt 0.463081 0.497355
vt 0.479069 0.504265
vt 0.467791 0.479974
vt 0.428220 0.206218
vt 0.467479 0.173444
vt 0.450488 0.193068
vt 0.450373 0.218730
vt 0.473347 0.190450
vt 0.463066 0.205752
vt 0.478565 0.149295
vt 0.480698 0.173727
vt 0.483641 0.192561
vt 0.483638 0.218617
vt 0.486132 0.205235
vt 0.480707 0.237924
vt 0.479063 0.205767
vt 0.473347 0.221074
vt 0.479069 0.262245
vt 0.467791 0.237954
vt 0.038533 0.585956
vt 0.606844 0.655817
vt 0.030330 0.672898
vt 0.042922 0.658889
vt 0.042922 0.672898
vt 0.488761 0.845824
vt 0.503295 0.844262
vt 0.503296 0.844547
vt 0.511718 0.881629
vt 0.505308 0.844544
vt 0.096897 0.672898
vt 0.133699 0.658889
vt 0.133699 0.672898
vt 0.819475 0.097064
vt 0.801893 0.062116
vt 0.819475 0.062116
vt 0.172390 0.672898
vt 0.172390 0.658889
vt 0.583740 0.956277
vt 0.620221 0.726130
vt 0.620491 0.962709
vt 0.734633 0.066037
vt 0.720651 0.043520
vt 0.734633 0.043520
vt 0.657861 0.816530
vt 0.675953 0.792062
vt 0.675953 0.816530
vt 0.720651 0.031017
vt 0.734633 0.031017
vt 0.505308 0.844260
vt 0.509630 0.807180
vt 0.511642 0.807178
vt 0.720651 0.097285
vt 0.720651 0.066037
vt 0.519839 0.844276
vt 0.506844 0.845673
vt 0.506841 0.843160
vt 0.710965 0.792062
vt 0.710965 0.816530
vt 0.966027 0.962711
vt 0.980307 0.711462
vt 0.980577 0.977382
vt 0.583487 0.732562
vt 0.618970 0.711460
vt 0.551258 0.748942
vt 0.578876 0.718479
vt 0.525827 0.774635
vt 0.542630 0.736903
vt 0.488759 0.843014
vt 0.495673 0.802541
vt 0.513889 0.765939
vt 0.619240 0.977379
vt 0.579133 0.970360
vt 0.551468 0.939890
vt 0.542848 0.951936
vt 0.509706 0.881632
vt 0.525975 0.914187
vt 0.495757 0.886296
vt 0.514049 0.922899
vt 0.965787 0.726132
vt 0.819475 0.023829
vt 0.801893 0.036898
vt 0.801893 0.023829
vt 0.065541 0.658889
vt 0.065541 0.672898
vt 0.819475 0.036898
vt 0.096897 0.658889
vt 0.000516 0.754998
vt 0.379911 0.738613
vt 0.379911 0.754999
vt 0.734633 0.511103
vt 0.720651 0.172591
vt 0.734633 0.172591
vt 0.813086 0.242580
vt 0.799764 0.550991
vt 0.799764 0.242580
vt 0.421374 0.738613
vt 0.421374 0.754999
vt 0.511561 0.658889
vt 0.511561 0.672898
vt 0.982590 0.977379
vt 0.982319 0.711460
vt 0.622234 0.726128
vt 0.622503 0.962707
vt 0.720651 0.133985
vt 0.734633 0.133985
vt 0.759543 0.792062
vt 0.759543 0.816530
vt 0.734633 0.097285
vt 0.818133 0.816530
vt 0.818133 0.792062
vt 0.242225 0.817860
vt 0.037435 0.850864
vt 0.043121 0.817861
vt 0.029908 0.658889
vt 0.030330 0.658889
vt 0.517100 0.039788
vt 0.654319 0.043972
vt 0.877382 0.670816
vt 0.801893 0.097064
vt 0.657861 0.792062
vt 0.519839 0.844531
vt 0.000516 0.738612
vt 0.720651 0.511103
vt 0.813086 0.550991
vt 0.247987 0.850864
vt 0.029908 0.672898
s 1
f 8/1/1 20/2/1 21/3/1
f 7/4/2 22/5/2 18/6/2
f 19/7/3 4/8/3 2/9/3 60/10/4 73/11/5 76/12/6 64/13/7 63/14/8 59/15/3
f 3/16/9 17/17/9 13/18/9
f 13/18/9 22/19/9 19/20/9
f 13/21/3 19/7/3 59/15/3 65/22/10 68/23/11 88/24/12 87/25/13 62/26/14 24/27/4 37/28/5 40/29/6 28/30/7 27/31/8 23/32/3
f 14/33/2 5/34/2 6/35/2
f 16/36/1 10/37/1 11/38/1
f 25/39/15 45/40/16 48/41/17 36/42/15 35/43/15 24/27/15 62/26/15 89/44/15 92/45/15 80/46/18 79/47/19 61/48/15 21/3/15 16/36/15
f 19/20/9 12/49/9 4/50/9
f 1/51/15 26/52/15 53/53/15 56/54/15 44/55/18 43/56/19 25/39/15 16/36/15 11/38/15
f 18/6/2 17/57/2 14/33/2
f 21/3/1 15/58/1 16/36/1
f 61/48/15 81/59/16 84/60/17 72/61/15 71/62/15 60/10/15 2/9/15 8/1/15 21/3/15
f 27/31/8 29/63/10 23/32/3
f 28/30/7 30/64/20 27/31/8
f 28/30/7 41/65/21 31/66/22
f 30/64/20 32/67/11 29/63/10
f 31/66/22 33/68/23 30/64/20
f 31/66/22 42/69/24 34/70/25
f 35/43/26 37/28/5 24/27/4
f 36/42/27 38/71/28 35/43/26
f 48/41/17 39/72/29 36/42/27
f 38/71/28 40/29/6 37/28/5
f 39/72/29 41/65/21 38/71/28
f 49/73/30 42/69/24 39/72/29
f 43/56/19 45/40/16 25/39/15
f 43/56/19 47/74/31 46/75/32
f 44/55/18 57/76/33 47/74/31
f 45/40/16 49/73/30 48/41/17
f 46/75/32 50/77/34 49/73/30
f 47/74/31 58/78/35 50/77/34
f 51/79/13 53/53/36 26/52/14
f 52/80/12 54/81/37 51/79/13
f 32/67/11 55/82/38 52/80/12
f 54/81/37 56/54/39 53/53/36
f 55/82/38 57/76/33 54/81/37
f 33/68/23 58/78/35 55/82/38
f 34/70/25 50/77/34 58/78/35
f 63/14/8 65/22/10 59/15/3
f 64/13/7 66/83/20 63/14/8
f 64/13/7 77/84/21 67/85/22
f 66/83/20 68/23/11 65/22/10
f 67/85/22 69/86/23 66/83/20
f 67/85/22 78/87/24 70/88/25
f 71/62/26 73/11/5 60/10/4
f 72/61/27 74/89/28 71/62/26
f 84/60/17 75/90/29 72/61/27
f 74/89/28 76/12/6 73/11/5
f 75/90/29 77/84/21 74/89/28
f 85/91/30 78/87/24 75/90/29
f 79/47/19 81/59/16 61/48/15
f 79/47/19 83/92/31 82/93/32
f 80/46/18 93/94/33 83/92/31
f 81/59/16 85/91/30 84/60/17
f 82/93/32 86/95/34 85/91/30
f 83/92/31 94/96/35 86/95/34
f 87/25/13 89/44/36 62/26/14
f 88/24/12 90/97/37 87/25/13
f 68/23/11 91/98/38 88/24/12
f 90/97/37 92/45/39 89/44/36
f 91/98/38 93/94/33 90/97/37
f 69/86/23 94/96/35 91/98/38
f 70/88/25 86/95/34 94/96/35
f 3/99/3 13/21/3 23/32/3 29/63/10 32/67/11 52/80/12 51/79/13 26/52/14 1/51/3
f 120/100/2 130/100/2 134/100/2
f 104/101/40 163/102/41 107/103/41
f 162/104/3 144/105/3 148/106/3
f 121/107/42 148/106/43 120/108/43
f 106/109/44 159/110/45 105/111/45
f 117/112/46 147/113/47 119/114/47
f 103/115/48 159/110/45 160/116/49
f 145/117/3 139/118/3 146/119/3
f 102/120/50 157/121/51 101/122/51
f 115/123/52 142/124/53 114/125/53
f 101/122/51 158/126/54 98/127/54
f 116/128/55 143/129/52 115/130/52
f 102/120/50 155/131/56 156/132/50
f 116/133/3 104/134/3 98/135/3
f 114/125/53 141/136/57 113/137/57
f 115/100/2 128/100/2 129/100/2
f 109/100/2 132/100/2 123/100/2
f 118/100/2 131/100/2 132/100/2
f 117/100/2 133/100/2 131/100/2
f 110/100/2 123/100/2 124/100/2
f 121/100/2 134/100/2 135/100/2
f 112/100/2 125/100/2 126/100/2
f 122/100/2 135/100/2 136/100/2
f 113/100/2 126/100/2 127/100/2
f 119/100/2 136/100/2 133/100/2
f 114/100/2 127/100/2 128/100/2
f 111/100/2 124/100/2 125/100/2
f 116/100/2 129/100/2 130/100/2
f 137/138/3 152/139/3 151/140/3
f 140/141/3 153/142/3 139/118/3
f 141/143/3 154/144/3 140/141/3
f 142/145/3 155/146/3 141/143/3
f 143/129/3 158/147/3 157/148/3
f 142/145/3 157/148/3 156/149/3
f 145/117/3 160/150/3 159/151/3
f 147/152/3 159/151/3 161/153/3
f 149/154/3 162/104/3 148/106/3
f 150/155/3 163/156/3 149/154/3
f 150/155/3 161/153/3 164/157/3
f 138/158/3 153/142/3 152/139/3
f 137/138/3 160/150/3 146/119/3
f 121/159/42 150/160/58 149/161/42
f 107/103/41 164/162/59 108/163/59
f 122/164/58 147/113/47 150/160/58
f 108/163/59 161/165/44 106/109/44
f 111/166/60 138/167/60 110/168/60
f 95/169/61 153/170/62 97/171/62
f 148/106/43 116/128/55 120/108/43
f 118/172/61 137/173/61 146/174/61
f 110/168/63 137/175/63 109/176/63
f 103/115/48 151/177/60 96/178/60
f 96/179/64 152/139/64 95/180/64
f 146/119/65 111/181/65 118/182/65
f 97/171/62 154/183/66 99/184/66
f 113/137/57 140/185/67 112/186/67
f 100/187/56 154/183/66 155/131/56
f 117/188/68 140/185/68 145/189/68
f 117/190/69 111/191/69 112/192/69
f 104/101/40 158/193/54 162/194/40
f 8/1/1 9/195/1 20/2/1
f 7/4/2 12/196/2 22/5/2
f 3/16/9 5/197/9 17/17/9
f 13/18/9 17/17/9 22/19/9
f 14/33/2 17/57/2 5/34/2
f 16/36/1 15/58/1 10/37/1
f 19/20/9 22/19/9 12/49/9
f 18/6/2 22/5/2 17/57/2
f 21/3/1 20/2/1 15/58/1
f 27/31/8 30/64/20 29/63/10
f 28/30/7 31/66/22 30/64/20
f 28/30/7 40/29/6 41/65/21
f 30/64/20 33/68/23 32/67/11
f 31/66/22 34/70/25 33/68/23
f 31/66/22 41/65/21 42/69/24
f 35/43/26 38/71/28 37/28/5
f 36/42/27 39/72/29 38/71/28
f 48/41/17 49/73/30 39/72/29
f 38/71/28 41/65/21 40/29/6
f 39/72/29 42/69/24 41/65/21
f 49/73/30 50/77/34 42/69/24
f 43/56/19 46/75/32 45/40/16
f 43/56/19 44/55/18 47/74/31
f 44/55/18 56/54/39 57/76/33
f 45/40/16 46/75/32 49/73/30
f 46/75/32 47/74/31 50/77/34
f 47/74/31 57/76/33 58/78/35
f 51/79/13 54/81/37 53/53/36
f 52/80/12 55/82/38 54/81/37
f 32/67/11 33/68/23 55/82/38
f 54/81/37 57/76/33 56/54/39
f 55/82/38 58/78/35 57/76/33
f 33/68/23 34/70/25 58/78/35
f 34/70/25 42/69/24 50/77/34
f 63/14/8 66/83/20 65/22/10
f 64/13/7 67/85/22 66/83/20
f 64/13/7 76/12/6 77/84/21
f 66/83/20 69/86/23 68/23/11
f 67/85/22 70/88/25 69/86/23
f 67/85/22 77/84/21 78/87/24
f 71/62/26 74/89/28 73/11/5
f 72/61/27 75/90/29 74/89/28
f 84/60/17 85/91/30 75/90/29
f 74/89/28 77/84/21 76/12/6
f 75/90/29 78/87/24 77/84/21
f 85/91/30 86/95/34 78/87/24
f 79/47/19 82/93/32 81/59/16
f 79/47/19 80/46/18 83/92/31
f 80/46/18 92/45/39 93/94/33
f 81/59/16 82/93/32 85/91/30
f 82/93/32 83/92/31 86/95/34
f 83/92/31 93/94/33 94/96/35
f 87/25/13 90/97/37 89/44/36
f 88/24/12 91/98/38 90/97/37
f 68/23/11 69/86/23 91/98/38
f 90/97/37 93/94/33 92/45/39
f 91/98/38 94/96/35 93/94/33
f 69/86/23 70/88/25 94/96/35
f 70/88/25 78/87/24 86/95/34
f 120/100/2 116/100/2 130/100/2
f 104/101/40 162/194/40 163/102/41
f 162/104/3 158/147/3 144/105/3
f 121/107/42 149/154/42 148/106/43
f 106/109/44 161/165/44 159/110/45
f 117/112/46 145/198/46 147/113/47
f 103/115/48 105/111/45 159/110/45
f 145/117/3 140/141/3 139/118/3
f 102/120/50 156/132/50 157/121/51
f 115/123/52 143/199/52 142/124/53
f 101/122/51 157/121/51 158/126/54
f 116/128/55 144/105/55 143/129/52
f 102/120/50 100/187/56 155/131/56
f 116/133/3 120/200/3 104/134/3
f 114/125/53 142/124/53 141/136/57
f 115/100/2 114/100/2 128/100/2
f 109/100/2 118/100/2 132/100/2
f 118/100/2 117/100/2 131/100/2
f 117/100/2 119/100/2 133/100/2
f 110/100/2 109/100/2 123/100/2
f 121/100/2 120/100/2 134/100/2
f 112/100/2 111/100/2 125/100/2
f 122/100/2 121/100/2 135/100/2
f 113/100/2 112/100/2 126/100/2
f 119/100/2 122/100/2 136/100/2
f 114/100/2 113/100/2 127/100/2
f 111/100/2 110/100/2 124/100/2
f 116/100/2 115/100/2 129/100/2
f 137/138/3 138/158/3 152/139/3
f 140/141/3 154/144/3 153/142/3
f 141/143/3 155/146/3 154/144/3
f 142/145/3 156/149/3 155/146/3
f 143/129/3 144/105/3 158/147/3
f 142/145/3 143/129/3 157/148/3
f 145/117/3 146/119/3 160/150/3
f 147/152/3 145/117/3 159/151/3
f 149/154/3 163/156/3 162/104/3
f 150/155/3 164/157/3 163/156/3
f 150/155/3 147/152/3 161/153/3
f 138/158/3 139/118/3 153/142/3
f 137/138/3 151/140/3 160/150/3
f 121/159/42 122/164/58 150/160/58
f 107/103/41 163/102/41 164/162/59
f 122/164/58 119/114/47 147/113/47
f 108/163/59 164/162/59 161/165/44
f 111/166/60 139/201/60 138/167/60
f 95/169/61 152/202/61 153/170/62
f 148/106/43 144/105/55 116/128/55
f 118/172/61 109/203/61 137/173/61
f 110/168/63 138/167/63 137/175/63
f 103/115/48 160/116/49 151/177/60
f 96/179/64 151/140/64 152/139/64
f 146/119/65 139/118/65 111/181/65
f 97/171/62 153/170/62 154/183/66
f 113/137/57 141/136/57 140/185/67
f 100/187/56 99/184/66 154/183/66
f 117/188/68 112/186/68 140/185/68
f 117/190/69 118/204/69 111/191/69
f 104/101/40 98/205/54 158/193/54
