#File written by RizomUV 2023.0.70.ge90189e8. Compilation :Sep 22 2023,12:42:11
mtllib PARED NUEVA.mtl
#begin vertices
v 43.08834 6.339777 -20.37059
v 43.08834 0.826162 -20.4943
v 43.08834 6.340549 -26.86219
v 43.08834 0.825515 -26.86219
v 43.08834 0.825515 -21.87342
v 43.08834 6.340549 -21.87342
v 43.08834 6.340549 -22.64879
v 43.08834 6.340549 -23.42415
v 43.08834 6.340549 -24.19951
v 43.08834 6.340549 -24.97487
v 43.08834 6.340549 -25.75024
v 43.08834 6.340549 -26.5256
v 43.08834 0.825515 -26.5256
v 43.08834 0.825515 -25.75024
v 43.08834 0.825515 -24.97487
v 43.08834 0.825515 -24.19951
v 43.08834 0.825515 -23.42415
v 43.08834 0.825515 -22.64879
v 43.08834 1.174698 -20.4891
v 43.08834 2.035545 -20.46935
v 43.08834 2.896391 -20.4496
v 43.08834 3.757238 -20.42985
v 43.08834 4.618084 -20.41009
v 43.08834 5.47893 -20.39034
v 43.08834 1.17411 -26.86219
v 43.08834 2.035184 -26.86219
v 43.08834 2.896257 -26.86219
v 43.08834 3.75733 -26.86219
v 43.08834 4.618403 -26.86219
v 43.08834 5.479476 -26.86219
v 43.09289 1.84485 -22.73185
v 43.09145 2.321943 -22.34045
v 43.08976 2.885111 -22.09134
v 43.08795 3.488732 -22.0047
v 43.08618 4.083902 -22.08756
v 43.08458 4.622405 -22.3332
v 43.09211 2.14645 -25.86052
v 43.0905 2.684953 -26.10617
v 43.08873 3.280123 -26.18902
v 43.08693 3.883744 -26.10239
v 43.08524 4.446912 -25.85328
v 43.08379 4.924005 -25.46187
v 43.0934 1.70824 -25.47201
v 43.08273 5.276369 -24.95988
v 43.09428 1.405825 -24.97208
v 43.08211 5.475461 -24.38797
v 43.09468 1.263706 -24.40124
v 43.082 5.505149 -23.79248
v 43.09457 1.293393 -23.80575
v 43.0824 5.363029 -23.22165
v 43.09396 1.492485 -23.23385
v 43.08329 5.060614 -22.72172
v 43.08834 6.552468 -20.37059
v 43.08834 6.55324 -26.86219
v 43.08834 6.55324 -21.87342
v 43.08834 6.55324 -22.64879
v 43.08834 6.55324 -23.42415
v 43.08834 6.55324 -24.19951
v 43.08834 6.55324 -24.97487
v 43.08834 6.55324 -25.75024
v 43.08834 6.55324 -26.5256
v 43.08834 9.335383 -20.37059
v 43.08834 9.336157 -26.86219
v 43.08834 9.336157 -21.87342
v 43.08834 9.336157 -22.64879
v 43.08834 9.336157 -23.42415
v 43.08834 9.336157 -24.19951
v 43.08834 9.336157 -24.97487
v 43.08834 9.336157 -25.75024
v 43.08834 9.336157 -26.5256
v 43.08834 9.905059 -20.37059
v 43.08834 9.905831 -26.86219
v 43.08834 9.905831 -21.87342
v 43.08834 9.905831 -22.64879
v 43.08834 9.905831 -23.42415
v 43.08834 9.905831 -24.19951
v 43.08834 9.905831 -24.97487
v 43.08834 9.905831 -25.75024
v 43.08834 9.905831 -26.5256
v 43.08834 6.339777 -10.93652
v 43.08834 0.826162 -10.93652
v 43.08834 1.174698 -10.93652
v 43.08834 2.035545 -10.93652
v 43.08834 2.896391 -10.93652
v 43.08834 3.757238 -10.93652
v 43.08834 4.618084 -10.93652
v 43.08834 5.47893 -10.93652
v 43.08834 6.552467 -10.93652
v 43.08834 9.335383 -10.93652
v 43.08834 9.905058 -10.93652
v 43.08834 0.145517 -20.4943
v 43.08834 0.14487 -26.86219
v 43.08834 0.14487 -21.87342
v 43.08834 0.14487 -26.5256
v 43.08834 0.14487 -25.75024
v 43.08834 0.14487 -24.97487
v 43.08834 0.14487 -24.19951
v 43.08834 0.14487 -23.42415
v 43.08834 0.14487 -22.64879
v 43.08834 0.145517 -10.93652
v 43.22127 0.825515 -21.87342
v 43.22127 0.826162 -20.4943
v 43.22127 0.825515 -22.64879
v 43.22127 0.825515 -26.86219
v 43.22127 0.825515 -26.5256
v 43.22127 0.825515 -25.75024
v 43.22127 0.825515 -24.97487
v 43.22127 0.825515 -24.19951
v 43.22127 0.825515 -23.42415
v 43.22127 9.336157 -26.5256
v 43.22127 9.336157 -26.86219
v 43.22127 9.335383 -20.37059
v 43.22127 9.336157 -21.87342
v 43.22127 9.336157 -22.64879
v 43.22127 9.336157 -23.42415
v 43.22127 9.336157 -24.19951
v 43.22127 9.336157 -24.97487
v 43.22127 9.336157 -25.75024
v 43.22127 9.905831 -26.5256
v 43.22127 9.905831 -26.86219
v 43.22127 9.905059 -20.37059
v 43.22127 9.905831 -21.87342
v 43.22127 9.905831 -22.64879
v 43.22127 9.905831 -23.42415
v 43.22127 9.905831 -24.19951
v 43.22127 9.905831 -24.97487
v 43.22127 9.905831 -25.75024
v 43.22127 9.335383 -10.93652
v 43.22127 9.905058 -10.93652
v 43.22127 0.826162 -10.93652
v 43.22127 0.14487 -21.87342
v 43.22127 0.145517 -20.4943
v 43.22127 0.14487 -22.64879
v 43.22127 0.14487 -26.86219
v 43.22127 0.14487 -26.5256
v 43.22127 0.14487 -25.75024
v 43.22127 0.14487 -24.97487
v 43.22127 0.14487 -24.19951
v 43.22127 0.14487 -23.42415
v 43.22127 0.145517 -10.93652
#end vertices

#begin 176 textures vertices 
vt 0.6000526 0.440388 0
vt 0.4498248 0.1792915 0
vt 0.9031227 0.2590904 0
vt 0.7487759 0.00390625 0
vt 0.5138889 0.1397801 0
vt 0.6703869 0.398817 0
vt 0.7066469 0.3773875 0
vt 0.742861 0.355876 0
vt 0.778987 0.3342066 0
vt 0.8150684 0.3123891 0
vt 0.851206 0.290496 0
vt 0.8874202 0.2685894 0
vt 0.73259 0.01397244 0
vt 0.6958499 0.03336915 0
vt 0.6590379 0.0532902 0
vt 0.6223642 0.07402821 0
vt 0.5860254 0.09554654 0
vt 0.5499014 0.1175748 0
vt 0.4595112 0.1956687 0
vt 0.483125 0.2363324 0
vt 0.5066646 0.2770475 0
vt 0.5301184 0.3178186 0
vt 0.5534874 0.3586422 0
vt 0.5767904 0.3995047 0
vt 0.7580983 0.02017862 0
vt 0.7814914 0.0601661 0
vt 0.8053245 0.09988134 0
vt 0.8296486 0.1394145 0
vt 0.8542165 0.1791108 0
vt 0.8787133 0.219036 0
vt 0.582839 0.1628012 0
vt 0.5783689 0.1962658 0
vt 0.5829227 0.229782 0
vt 0.5961358 0.2606744 0
vt 0.6169515 0.2864683 0
vt 0.6437021 0.3050804 0
vt 0.7372427 0.09330374 0
vt 0.7639266 0.1115453 0
vt 0.7846491 0.1366819 0
vt 0.7978511 0.1668508 0
vt 0.8023927 0.1997914 0
vt 0.7977911 0.2328601 0
vt 0.7064001 0.08291031 0
vt 0.7843734 0.2632876 0
vt 0.6743276 0.08128076 0
vt 0.7634239 0.288551 0
vt 0.6436652 0.08939125 0
vt 0.7366426 0.3065062 0
vt 0.6168362 0.1068677 0
vt 0.7061152 0.3156015 0
vt 0.5959904 0.1320834 0
vt 0.6742612 0.3150852 0
vt 0.6060283 0.4503494 0
vt 0.9091687 0.2690121 0
vt 0.6763607 0.4088313 0
vt 0.7126153 0.3873851 0
vt 0.7488209 0.3658422 0
vt 0.7849488 0.3441491 0
vt 0.8210266 0.3223142 0
vt 0.8571583 0.300397 0
vt 0.8934405 0.2784763 0
vt 0.6836266 0.5810507 0
vt 0.08130248 0.00390625 0
vt 0.7543666 0.5396224 0
vt 0.7907674 0.518057 0
vt 0.8271028 0.4963325 0
vt 0.8633319 0.4744496 0
vt 0.8993787 0.4523814 0
vt 0.9351558 0.4300616 0
vt 0.9709389 0.4075816 0
vt 0.6839407 0.7310584 0
vt 0.988896 0.5357525 0
vt 0.7549751 0.6894301 0
vt 0.7918868 0.6676151 0
vt 0.828714 0.6455965 0
vt 0.8654759 0.6234048 0
vt 0.902178 0.6009907 0
vt 0.938834 0.5781914 0
vt 0.9752479 0.553764 0
vt 0.1593036 0.7059807 0
vt 0.06666732 0.1052967 0
vt 0.0137972 0.4657179 0
vt 0.03817173 0.5057347 0
vt 0.06249724 0.5457496 0
vt 0.08677103 0.585774 0
vt 0.1109941 0.6258165 0
vt 0.1351701 0.6658841 0
vt 0.1652549 0.7158957 0
vt 0.2432385 0.8455613 0
vt 0.08175187 0.09621711 0
vt 0.6611566 0.6126949 0
vt 0.06515439 0.00390625 0
vt 0.725503 0.5730178 0
vt 0.9524842 0.4442678 0
vt 0.9116893 0.4635388 0
vt 0.873309 0.4846688 0
vt 0.8357178 0.5062376 0
vt 0.7986002 0.5282469 0
vt 0.7618866 0.5505829 0
vt 0.2140368 0.8849734 0
vt 0.748798 0.611028 0
vt 0.6845296 0.6506687 0
vt 0.7849864 0.5887161 0
vt 0.07181793 0.04519395 0
vt 0.968053 0.4853118 0
vt 0.9317411 0.503954 0
vt 0.8947708 0.5240058 0
vt 0.8578807 0.5449263 0
vt 0.8213107 0.566582 0
vt 0.9521349 0.5237377 0
vt 0.9644401 0.5141547 0
vt 0.6644019 0.6978048 0
vt 0.7354555 0.6562001 0
vt 0.7720993 0.6345077 0
vt 0.8086695 0.6126435 0
vt 0.8451391 0.5906207 0
vt 0.8814307 0.5684206 0
vt 0.9173425 0.5460408 0
vt 0.9702853 0.5485993 0
vt 0.1001579 0.03656714 0
vt 0.6802467 0.7247669 0
vt 0.7513058 0.6831358 0
vt 0.7881473 0.6613585 0
vt 0.824925 0.6393712 0
vt 0.8616346 0.6172116 0
vt 0.8982591 0.5948449 0
vt 0.9347262 0.5721729 0
vt 0.03809037 0.01714728 0
vt 0.2380817 0.989465 0
vt 0.06037746 0.08988485 0
vt 0.7293189 0.5792132 0
vt 0.6649754 0.6188879 0
vt 0.7656771 0.5567946 0
vt 0.971597 0.4472728 0
vt 0.9542052 0.4514654 0
vt 0.9148604 0.4701449 0
vt 0.8768483 0.4910433 0
vt 0.8393702 0.5125311 0
vt 0.8023294 0.5344936 0
vt 0.01460751 0.01650689 0
vt 0.2223567 0.9629683 0
vt 0.02769461 0.00390625 0
vt 0.2406482 0.9960938 0
vt 0.07562559 0.08039442 0
vt 0.9494556 0.5171823 0
vt 0.6606612 0.6915461 0
vt 0.2180015 0.9574211 0
vt 0.9876339 0.3985668 0
vt 0.9134879 0.5397782 0
vt 0.8775263 0.5622132 0
vt 0.8412935 0.5843951 0
vt 0.8048775 0.606391 0
vt 0.7683547 0.6282275 0
vt 0.7317661 0.6499041 0
vt 0.9662367 0.5081209 0
vt 0.07923607 0.01084622 0
vt 0.98263 0.536517 0
vt 0.107365 0.03568778 0
vt 0.05941243 0.008740502 0
vt 0.9766028 0.4430583 0
vt 0.9824121 0.4790529 0
vt 0.07866185 0.0472697 0
vt 0.7887675 0.5949522 0
vt 0.6883202 0.6568974 0
vt 0.9721327 0.490966 0
vt 0.7526216 0.6172397 0
vt 0.00390625 0.4495216 0
vt 0.8250252 0.5728423 0
vt 0.8614987 0.5512443 0
vt 0.8983082 0.5304294 0
vt 0.9352565 0.5104346 0
vt 0.9883786 0.4808626 0
vt 0.2407499 0.9281285 0
vt 0.2380728 0.9215687 0
vt 0.00390625 0.00390625 0
vt 0.2185916 0.8903367 0
#end 176 textures vertices 

#begin 35 normals 
vn 1 -0.0029 0.0007
vn 1 -0.0043 0.002
vn 1 -0.0016 -0.0017
vn 1 -0.003 -0.0023
vn 1 -0.0071 -0.0024
vn 0.9999 -0.0124 -0.0016
vn 0.9999 -0.0136 0.0004
vn 1 -0.0089 0.0018
vn 1 -0.005 -0.0019
vn 1 -0.0071 -0.0011
vn 1 -0.0073 0.0002
vn 1 -0.0053 0.0012
vn 1 -0.0029 0.0016
vn 1 -0.0009 0.0023
vn 1 0.0001 0.0032
vn 1 0.0007 0.0026
vn 1 0.0012 0.0003
vn 1 0.0011 -0.0026
vn 1 0.0005 -0.0038
vn 1 -0.0026 -0.0021
vn 1 -0.0013 -0.0008
vn 1 0.0008 -0.002
vn 1 0.0012 -0.0011
vn 1 0.0012 0.0002
vn 1 0.0009 0.0014
vn 1 0.0005 0.002
vn 1 -0 -0
vn -0 1 -0
vn -0 -1 -0
vn -0 -0 -1
vn -0 1 0.0005
vn -0 1 -0.0005
vn -0 -0 1
vn -0 -1 -0.0005
vn -0 -1 0.0005
#end 35 normals 

#begin 109 faces
o Plane:012
s 0
f 31/31/1 19/19/1 2/2/1 5/5/1 
f 51/51/2 31/31/2 5/5/2 18/18/2 
f 25/25/3 37/37/3 13/13/3 4/4/3 
f 37/37/4 43/43/4 14/14/4 13/13/4 
f 43/43/5 45/45/5 15/15/5 14/14/5 
f 45/45/6 47/47/6 16/16/6 15/15/6 
f 47/47/7 49/49/7 17/17/7 16/16/7 
f 49/49/8 51/51/8 18/18/8 17/17/8 
f 8/8/9 7/7/9 52/52/9 50/50/9 
f 9/9/10 8/8/10 50/50/10 48/48/10 
f 10/10/11 9/9/11 48/48/11 46/46/11 
f 11/11/12 10/10/12 46/46/12 44/44/12 
f 12/12/13 11/11/13 44/44/13 42/42/13 
f 3/3/14 12/12/14 42/42/14 30/30/14 
f 30/30/15 42/42/15 41/41/15 29/29/15 
f 29/29/16 41/41/16 40/40/16 28/28/16 
f 28/28/17 40/40/17 39/39/17 27/27/17 
f 27/27/18 39/39/18 38/38/18 26/26/18 
f 26/26/19 38/38/19 37/37/19 25/25/19 
f 7/7/20 6/6/20 36/36/20 52/52/20 
f 6/6/21 1/1/21 24/24/21 36/36/21 
f 36/36/22 24/24/22 23/23/22 35/35/22 
f 35/35/23 23/23/23 22/22/23 34/34/23 
f 34/34/24 22/22/24 21/21/24 33/33/24 
f 33/33/25 21/21/25 20/20/25 32/32/25 
f 32/32/26 20/20/26 19/19/26 31/31/26 
f 12/12/27 61/61/27 60/60/27 11/11/27 
f 10/10/27 59/59/27 58/58/27 9/9/27 
f 8/8/27 57/57/27 56/56/27 7/7/27 
f 3/3/27 54/54/27 61/61/27 12/12/27 
f 11/11/27 60/60/27 59/59/27 10/10/27 
f 9/9/27 58/58/27 57/57/27 8/8/27 
f 7/7/27 56/56/27 55/55/27 6/6/27 
f 6/6/27 55/55/27 53/53/27 1/1/27 
f 56/56/27 65/65/27 64/64/27 55/55/27 
f 54/54/27 63/148/27 70/70/27 61/61/27 
f 61/61/27 70/70/27 69/69/27 60/60/27 
f 59/59/27 68/68/27 67/67/27 58/58/27 
f 57/57/27 66/66/27 65/65/27 56/56/27 
f 55/55/27 64/64/27 62/62/27 53/53/27 
f 60/60/27 69/69/27 68/68/27 59/59/27 
f 58/58/27 67/67/27 66/66/27 57/57/27 
f 77/77/28 126/126/28 127/127/28 78/78/28 
f 91/91/29 132/132/29 140/176/29 100/100/29 
f 76/76/28 125/125/28 126/126/28 77/77/28 
f 98/98/29 139/139/29 133/133/29 99/99/29 
f 75/75/28 124/124/28 125/125/28 76/76/28 
f 97/97/29 138/138/29 139/139/29 98/98/29 
f 70/145/29 110/110/29 118/118/29 69/149/29 
f 74/74/28 123/123/28 124/124/28 75/75/28 
f 23/23/27 86/86/27 85/85/27 22/22/27 
f 20/20/27 83/83/27 82/82/27 19/19/27 
f 53/53/27 88/88/27 80/80/27 1/1/27 
f 62/62/27 89/89/27 88/88/27 53/53/27 
f 24/24/27 87/87/27 86/86/27 23/23/27 
f 21/21/27 84/84/27 83/83/27 20/20/27 
f 22/22/27 85/85/27 84/84/27 21/21/27 
f 1/1/27 80/80/27 87/87/27 24/24/27 
f 96/96/29 137/137/29 138/138/29 97/97/29 
f 19/19/27 82/82/27 81/167/27 2/2/27 
f 72/158/30 120/120/30 111/156/30 63/63/30 
f 69/149/29 118/118/29 117/117/29 68/150/29 
f 73/73/28 122/122/28 123/123/28 74/74/28 
f 95/95/29 136/136/29 137/137/29 96/96/29 
f 68/150/29 117/117/29 116/116/29 67/151/29 
f 71/71/31 121/121/31 122/122/31 73/73/31 
f 94/94/29 135/135/29 136/136/29 95/95/29 
f 67/151/29 116/116/29 115/115/29 66/152/29 
f 79/79/28 119/119/28 120/157/28 72/72/28 
f 110/110/27 119/119/27 127/127/27 118/118/27 
f 117/117/27 126/126/27 125/125/27 116/116/27 
f 115/115/27 124/124/27 123/123/27 114/114/27 
f 113/113/27 122/122/27 121/121/27 112/112/27 
f 118/118/27 127/127/27 126/126/27 117/117/27 
f 116/116/27 125/125/27 124/124/27 115/115/27 
f 114/114/27 123/123/27 122/122/27 113/113/27 
f 111/111/27 120/157/27 119/119/27 110/110/27 
f 121/121/27 129/129/27 128/141/27 112/112/27 
f 108/108/27 138/138/27 137/137/27 107/107/27 
f 105/105/27 135/135/27 134/134/27 104/161/27 
f 130/174/27 140/176/27 132/132/27 102/102/27 
f 102/102/27 132/132/27 131/131/27 101/101/27 
f 109/109/27 139/139/27 138/138/27 108/108/27 
f 106/106/27 136/136/27 135/135/27 105/105/27 
f 101/101/27 131/131/27 133/133/27 103/103/27 
f 103/103/27 133/133/27 139/139/27 109/109/27 
f 107/107/27 137/137/27 136/136/27 106/106/27 
f 62/146/29 112/112/29 128/141/29 89/147/29 
f 78/78/28 127/127/28 119/119/28 79/79/28 
f 13/165/28 105/105/28 104/161/28 4/172/28 
f 2/164/32 102/102/32 101/101/32 5/166/32 
f 90/143/28 129/129/28 121/121/28 71/71/28 
f 14/171/28 106/106/28 105/105/28 13/165/28 
f 4/162/30 104/104/30 134/159/30 92/92/30 
f 63/155/29 111/111/29 110/110/29 70/145/29 
f 81/173/28 130/174/28 102/102/28 2/164/28 
f 15/170/28 107/107/28 106/106/28 14/171/28 
f 100/175/33 140/140/33 130/130/33 81/81/33 
f 64/154/34 113/113/34 112/112/34 62/146/34 
f 93/93/35 131/131/35 132/132/35 91/91/35 
f 16/169/28 108/108/28 107/107/28 15/170/28 
f 65/153/29 114/114/29 113/113/29 64/154/29 
f 99/99/29 133/133/29 131/131/29 93/93/29 
f 17/168/28 109/109/28 108/108/28 16/169/28 
f 89/142/33 128/128/33 129/144/33 90/90/33 
f 5/166/28 101/101/28 103/103/28 18/163/28 
f 66/152/29 115/115/29 114/114/29 65/153/29 
f 92/160/29 134/134/29 135/135/29 94/94/29 
f 18/163/28 103/103/28 109/109/28 17/168/28 
#end 109 faces

#ZOMPROPERTIES_04{
#ZOMPROPERTIES_04 table {Mesh table {SymPlane table {Point vector3d 0 0 0 Normal vector3d 1 0 0 Threshold double 0.01 
#ZOMPROPERTIES_04 Enabled bool false EdgeID int -1 SymEdgeID int -1 UPos double 0.5 LocalMode bool false } RootGroup C
#ZOMPROPERTIES_04 SubMeshGroup {Children table {Tile_0_0 CSubMeshGroup {Children table {} BBoxUV box3d 0 0 0 0 0 0 BBo
#ZOMPROPERTIES_04 x3D box3d 0 0 0 0 0 0 Area3D double 0 AreaUV double 0.447313 IsRoot bool false Properties table {Sel
#ZOMPROPERTIES_04 ected bool false Box box3d 0 1 0 1 0 1 U int 0 V int 0 NU int 0 NV int 0 Tiling vector3d 1 1 1 TileR
#ZOMPROPERTIES_04 atioMode string "1:1" Overflow string "Off" Pack table {BoxFrameEdit bool false Behavior string "Fre
#ZOMPROPERTIES_04 e" } } IsTile bool true PolyIDs ints { 104 60 93 97 42 88 68 76 94 48 61 64 67 106 101 98 87 77 91 6
#ZOMPROPERTIES_04 5 62 49 46 44 74 71 75 72 70 73 69 43 80 95 90 105 108 103 100 96 92 89 79 107 66 63 58 47 45 102 99
#ZOMPROPERTIES_04  84 85 82 78 86 83 81 0 59 51 55 56 50 54 57 52 53 39 34 38 41 37 40 36 35 29 26 12 11 10 9 8 19 20 
#ZOMPROPERTIES_04 33 32 28 31 27 30 13 14 15 16 17 18 2 3 4 5 6 7 1 21 22 23 24 25 } } } BBoxUV box3d 0 0 0 0 0 0 BBox
#ZOMPROPERTIES_04 3D box3d 0 0 0 0 0 0 Area3D double 0 AreaUV double 0 IsRoot bool true Properties table {Selected boo
#ZOMPROPERTIES_04 l false Box box3d 0 1 0 1 0 1 U int 0 V int 0 NU int 1 NV int 1 Tiling vector3d 1 1 1 TileRatioMode 
#ZOMPROPERTIES_04 string "1:1" Overflow string "Off" Pack table {Rotate table {Mode int 0 Min double 0 Max double 90 S
#ZOMPROPERTIES_04 tep double 0 } PaddingSize double 0.0078125 MarginSize double 0.00390625 Resolution int 256 MapResol
#ZOMPROPERTIES_04 ution int 2048 Scaling table {TexelDensity double 1024 Mode int 2 } LayoutScalingMode int 2 MaxMutat
#ZOMPROPERTIES_04 ions int 1 } } IsTile bool false PolyIDs ints { } } Maps table {Pin table {PrimType string "Vertex" 
#ZOMPROPERTIES_04 Size int 1 DefaultValue double 0 ScaleType string "Normalized" MergeMode string "Max" MinValue doubl
#ZOMPROPERTIES_04 e 0 MaxValue double 1 Data doubles { r 176 0 } } Density table {PrimType string "Polygon" Size int 1
#ZOMPROPERTIES_04  DefaultValue double 1 ScaleType string "Log" MergeMode string "Average" MinValue double 0.1 MaxValu
#ZOMPROPERTIES_04 e double 4 Data doubles { r 109 1 } } Protect table {PrimType string "Vertex" Size int 1 DefaultValu
#ZOMPROPERTIES_04 e double 0 ScaleType string "Normalized" MergeMode string "Average" MinValue double -1 MaxValue doub
#ZOMPROPERTIES_04 le 1 Data doubles { r 176 0 } } } } }
#ZOMPROPERTIES_04}


#ZOMSCENE_01{
#ZOMSCENE_01 CScene {Settings table {AxisSystem table {UpVector string "y" } Unit string "cm" TexelDensityDisplay
#ZOMSCENE_01 Unit string "tx/cm" } Root table {} }
#ZOMSCENE_01}

#begin 0 fatal error vertex (that RizomUV cannot handle)
#end 0 fatal error vertex (that RizomUV cannot handle)

#begin 0 error vertex
#end 0 error vertex
