#File written by RizomUV 2023.0.70.ge90189e8. Compilation :Sep 22 2023,12:42:11
mtllib puerta.mtl
#begin vertices
v -20.31528 -2.054543 -16.70483
v -20.31528 7.604851 -16.70483
v -14.49109 -2.054543 -16.70483
v -14.49109 7.604851 -16.70483
v -15.14582 7.604851 -16.70483
v -19.66055 7.604851 -16.70483
v -19.66055 -2.054543 -16.70483
v -15.14582 -2.054543 -16.70483
v -20.31528 3.271967 -16.70483
v -20.31528 2.573652 -16.70483
v -14.49109 2.573652 -16.70483
v -14.49109 3.271967 -16.70483
v -19.66055 2.573652 -16.70483
v -19.66055 3.271967 -16.70483
v -15.14582 2.573652 -16.70483
v -15.14582 3.271967 -16.70483
v -20.31528 -1.015694 -16.70483
v -14.49109 -1.015694 -16.70483
v -19.66055 -1.015694 -16.70483
v -15.14582 -1.015694 -16.70483
v -14.49109 6.626749 -16.70483
v -19.66055 6.626748 -16.70483
v -15.14582 6.626748 -16.70483
v -20.31528 6.626749 -16.70483
v -19.66055 -1.015694 -16.90327
v -19.66055 2.573652 -16.90327
v -15.14582 -1.015694 -16.90327
v -15.14582 2.573652 -16.90327
v -15.14582 3.271967 -16.90327
v -19.66055 3.271967 -16.90327
v -19.66055 6.626748 -16.90327
v -15.14582 6.626748 -16.90327
v -20.23715 3.190414 -16.64395
v -20.23715 2.655205 -16.64395
v -19.73868 2.655205 -16.64395
v -19.73868 3.190414 -16.64395
v -20.26384 3.217108 -16.64395
v -20.26384 2.628511 -16.64395
v -19.71199 2.628511 -16.64395
v -19.71199 3.217108 -16.64395
v -20.1676 3.115739 -16.68307
v -20.1676 2.72988 -16.68307
v -19.80823 2.72988 -16.68307
v -19.80823 3.115739 -16.68307
v -19.66055 -1.015694 -16.90327
v -19.66055 2.573652 -16.90327
v -15.14582 -1.015694 -16.90327
v -15.14582 2.573652 -16.90327
v -15.14582 3.271967 -16.90327
v -19.66055 3.271967 -16.90327
v -19.66055 6.626748 -16.90327
v -15.14582 6.626748 -16.90327
v -20.07501 2.760547 -16.67471
v -20.07501 2.832941 -16.67471
v -20.07501 2.760547 -16.68892
v -20.07501 2.832941 -16.68892
v -19.88683 2.760547 -16.67471
v -19.88683 2.832941 -16.67471
v -19.88683 2.760547 -16.68892
v -19.88683 2.832941 -16.68892
v -20.07501 2.792182 -16.67471
v -20.07501 2.813312 -16.67471
v -20.07501 2.813312 -16.68892
v -20.07501 2.792182 -16.68892
v -19.88683 2.813312 -16.68892
v -19.88683 2.792182 -16.68892
v -19.88683 2.813312 -16.67471
v -19.88683 2.792182 -16.67471
v -19.91087 2.760547 -16.68892
v -20.05095 2.760547 -16.68892
v -20.05095 2.832941 -16.68892
v -19.91087 2.832941 -16.68892
v -20.05095 2.760547 -16.67471
v -19.91087 2.760547 -16.67471
v -19.91087 2.832941 -16.67471
v -20.05095 2.832941 -16.67471
v -19.92038 2.792182 -16.67471
v -20.04145 2.792182 -16.67471
v -19.92038 2.813312 -16.67471
v -20.04145 2.813312 -16.67471
v -19.9156 2.807407 -16.68021
v -19.91386 2.802747 -16.68021
v -20.04099 2.813231 -16.68021
v -19.92084 2.813231 -16.68021
v -20.04099 2.792263 -16.68021
v -19.92084 2.792263 -16.68021
v -20.07501 2.798051 -16.67471
v -20.07501 2.807443 -16.67471
v -20.07501 2.802747 -16.67471
v -20.07501 2.798051 -16.68892
v -20.07501 2.807443 -16.68892
v -20.07501 2.802747 -16.68892
v -19.88683 2.807443 -16.68892
v -19.88683 2.798051 -16.68892
v -19.88683 2.802747 -16.68892
v -19.88683 2.798051 -16.67471
v -19.88683 2.807443 -16.67471
v -19.88683 2.802747 -16.67471
v -19.9151 2.798051 -16.67471
v -19.9151 2.807443 -16.67471
v -19.91335 2.802747 -16.67471
v -20.04673 2.807443 -16.67471
v -20.04673 2.798051 -16.67471
v -20.04848 2.802747 -16.67471
v -20.04623 2.807407 -16.68021
v -20.04796 2.802747 -16.68021
v -19.9156 2.798087 -16.68021
v -20.04623 2.798087 -16.68021
v -19.97063 3.108769 -16.70435
v -19.97063 3.067767 -16.67032
v -19.92087 3.09887 -16.70435
v -19.93656 3.060989 -16.67032
v -19.87868 3.070681 -16.70435
v -19.90768 3.041688 -16.67032
v -19.85049 3.028493 -16.70435
v -19.88837 3.012802 -16.67032
v -19.84059 2.978728 -16.70435
v -19.8816 2.978728 -16.67032
v -19.85049 2.928963 -16.70435
v -19.88837 2.944654 -16.67032
v -19.87868 2.886775 -16.70435
v -19.90768 2.915768 -16.67032
v -19.92087 2.858586 -16.70435
v -19.93656 2.896467 -16.67032
v -19.97063 2.848687 -16.70435
v -19.97063 2.889689 -16.67032
v -20.0204 2.858586 -16.70435
v -20.00471 2.896467 -16.67032
v -20.06259 2.886775 -16.70435
v -20.03359 2.915768 -16.67032
v -20.09078 2.928963 -16.70435
v -20.05289 2.944654 -16.67032
v -20.10068 2.978728 -16.70435
v -20.05967 2.978728 -16.67032
v -20.09078 3.028493 -16.70435
v -20.05289 3.012802 -16.67032
v -20.06259 3.070681 -16.70435
v -20.03359 3.041688 -16.67032
v -20.0204 3.09887 -16.70435
v -20.00471 3.060989 -16.67032
v -19.929 3.079253 -16.67032
v -19.97063 3.087535 -16.67032
v -19.8937 3.055666 -16.67032
v -19.87011 3.020367 -16.67032
v -19.86183 2.978728 -16.67032
v -19.87011 2.937089 -16.67032
v -19.8937 2.90179 -16.67032
v -19.929 2.878203 -16.67032
v -19.97063 2.869921 -16.67032
v -20.01227 2.878203 -16.67032
v -20.04757 2.90179 -16.67032
v -20.07116 2.937089 -16.67032
v -20.07944 2.978728 -16.67032
v -20.07116 3.020367 -16.67032
v -20.04757 3.055666 -16.67032
v -20.01227 3.079253 -16.67032
v -19.94166 3.048682 -16.6872
v -19.97063 3.054446 -16.6872
v -19.91709 3.032269 -16.6872
v -19.90068 3.007704 -16.6872
v -19.89492 2.978728 -16.6872
v -19.90068 2.949752 -16.6872
v -19.91709 2.925188 -16.6872
v -19.94166 2.908774 -16.6872
v -19.97063 2.90301 -16.6872
v -19.99961 2.908774 -16.6872
v -20.02418 2.925188 -16.6872
v -20.04059 2.949752 -16.6872
v -20.04635 2.978728 -16.6872
v -20.04059 3.007704 -16.6872
v -20.02418 3.032269 -16.6872
v -19.99961 3.048682 -16.6872
v -19.96872 3.063784 -16.70183
v -19.96872 3.063784 -16.54302
v -19.93565 3.057205 -16.70183
v -19.93565 3.057205 -16.54302
v -19.90761 3.038471 -16.70183
v -19.90761 3.038471 -16.54302
v -19.88888 3.010434 -16.70183
v -19.88888 3.010434 -16.54302
v -19.8823 2.977361 -16.70183
v -19.8823 2.977361 -16.54302
v -19.88888 2.944289 -16.70183
v -19.88888 2.944289 -16.54302
v -19.90761 2.916251 -16.70183
v -19.90761 2.916251 -16.54302
v -19.93565 2.897517 -16.70183
v -19.93565 2.897517 -16.54302
v -19.96872 2.890939 -16.70183
v -19.96872 2.890939 -16.54302
v -20.00179 2.897517 -16.70183
v -20.00179 2.897517 -16.54302
v -20.02983 2.916251 -16.70183
v -20.02983 2.916251 -16.54302
v -20.04856 2.944289 -16.70183
v -20.04856 2.944289 -16.54302
v -20.05514 2.977361 -16.70183
v -20.05514 2.977361 -16.54302
v -20.04856 3.010434 -16.70183
v -20.04856 3.010434 -16.54302
v -20.02983 3.038471 -16.70183
v -20.02983 3.038471 -16.54302
v -20.00179 3.057205 -16.70183
v -20.00179 3.057205 -16.54302
v -19.93565 3.057205 -16.51734
v -19.96872 3.063784 -16.51734
v -19.90761 3.038471 -16.51734
v -19.88888 3.010434 -16.51734
v -19.8823 2.977361 -16.51734
v -19.88888 2.944289 -16.51734
v -19.90761 2.916251 -16.51734
v -19.93565 2.897517 -16.51734
v -19.96872 2.890939 -16.51734
v -20.00179 2.897517 -16.51734
v -20.02983 2.916251 -16.51734
v -20.04856 2.944289 -16.51734
v -20.05514 2.977361 -16.51734
v -20.04856 3.010434 -16.51734
v -20.02983 3.038471 -16.51734
v -20.00179 3.057205 -16.51734
v -19.45681 2.999121 -16.54302
v -19.45681 3.017567 -16.54302
v -19.45681 2.977362 -16.54302
v -19.45681 2.955603 -16.54302
v -19.45681 2.937156 -16.54302
v -19.45681 2.999121 -16.51734
v -19.45681 3.017567 -16.51734
v -19.45681 2.977362 -16.51734
v -19.45681 2.955603 -16.51734
v -19.45681 2.937156 -16.51734
#end vertices

#begin 286 textures vertices 
vt 0.006861646 0.00390625 0
vt 0.00391868 0.8359768 0
vt 0.5073293 0.006563684 0
vt 0.5046388 0.836229 0
vt 0.4483585 0.8361814 0
vt 0.06022469 0.8360029 0
vt 0.06312231 0.004290371 0
vt 0.4510599 0.006287627 0
vt 0.004098021 0.4634052 0
vt 0.004322626 0.4019492 0
vt 0.5055338 0.4040437 0
vt 0.5053638 0.4640373 0
vt 0.06108716 0.4025471 0
vt 0.5181397 0.3905753 0
vt 0.4492447 0.4038519 0
vt 0.9960938 0.3871698 0
vt 0.006292068 0.093219 0
vt 0.5068613 0.0958212 0
vt 0.0625709 0.09360598 0
vt 0.4505849 0.09557543 0
vt 0.5046921 0.7521722 0
vt 0.06019697 0.7519272 0
vt 0.4484016 0.7520995 0
vt 0.00390625 0.7518641 0
vt 0.5312803 0.02209243 0
vt 0.5297894 0.36643 0
vt 0.9831607 0.01948321 0
vt 0.9816699 0.3638208 0
vt 0.9836528 0.4030049 0
vt 0.5311735 0.4060446 0
vt 0.5293866 0.7241348 0
vt 0.9818658 0.721095 0
vt 0.01237922 0.4550229 0
vt 0.01238039 0.4105794 0
vt 0.05297086 0.4108258 0
vt 0.05271601 0.4547084 0
vt 0.01019323 0.4572711 0
vt 0.01019172 0.4083495 0
vt 0.05518055 0.4086193 0
vt 0.05488087 0.4569017 0
vt 0.3026444 0.3927929 0
vt 0.3035188 0.2666685 0
vt 0.04665606 0.4175706 0
vt 0.04639007 0.4479675 0
vt 0.5411839 0.03016053 0
vt 0.5411838 0.3386222 0
vt 0.929172 0.03016053 0
vt 0.929172 0.3386222 0
vt 0.929172 0.4141102 0
vt 0.5411838 0.4141102 0
vt 0.5411838 0.7024138 0
vt 0.9291719 0.7024138 0
vt 0.1292512 0.584313 0
vt 0.1220987 0.6779351 0
vt 0.1184437 0.5710426 0
vt 0.1089724 0.6879469 0
vt 0.3848175 0.6040447 0
vt 0.3785333 0.6975945 0
vt 0.3994456 0.5931965 0
vt 0.3882953 0.7099514 0
vt 0.1228581 0.624599 0
vt 0.1206646 0.6526578 0
vt 0.1019483 0.6556877 0
vt 0.1020748 0.6205416 0
vt 0.402636 0.6789283 0
vt 0.4052556 0.6440705 0
vt 0.3826109 0.6732649 0
vt 0.3858913 0.6452442 0
vt 0.3591782 0.577718 0
vt 0.1594305 0.5624846 0
vt 0.1479003 0.7041102 0
vt 0.3481702 0.7196036 0
vt 0.1598375 0.5823001 0
vt 0.3556723 0.5970071 0
vt 0.3479792 0.6993565 0
vt 0.1512559 0.684283 0
vt 0.3385927 0.6401866 0
vt 0.170215 0.6274056 0
vt 0.3360106 0.6708445 0
vt 0.1673785 0.6580997 0
vt 0.9524871 0.02915274 0
vt 0.9526363 0.02875226 0
vt 0.9417114 0.02965324 0
vt 0.3349039 0.6631594 0
vt 0.1713319 0.635156 0
vt 0.9520369 0.02785129 0
vt 0.1219174 0.6323811 0
vt 0.1210193 0.6449067 0
vt 0.1213778 0.638651 0
vt 0.1015194 0.6302851 0
vt 0.1011859 0.6457749 0
vt 0.1012054 0.6380034 0
vt 0.4038963 0.6692072 0
vt 0.4052114 0.6538414 0
vt 0.4046921 0.6615327 0
vt 0.3852504 0.653087 0
vt 0.3838612 0.6655966 0
vt 0.3846463 0.6593646 0
vt 0.3459304 0.6492033 0
vt 0.3446658 0.6630266 0
vt 0.347644 0.6563013 0
vt 0.1601847 0.6489699 0
vt 0.1614444 0.6351274 0
vt 0.1584729 0.6418403 0
vt 0.1659532 0.6463651 0
vt 0.1644971 0.6423763 0
vt 0.9524871 0.02835179 0
vt 0.1667141 0.6387307 0
vt 0.2976911 0.2337109 0
vt 0.29719 0.2087068 0
vt 0.3216371 0.2289145 0
vt 0.3116071 0.2055852 0
vt 0.3421577 0.2152489 0
vt 0.3236854 0.1972258 0
vt 0.3551596 0.1943692 0
vt 0.331781 0.1850344 0
vt 0.3601332 0.1703393 0
vt 0.3344179 0.1706368 0
vt 0.3546482 0.1464233 0
vt 0.3314819 0.1563027 0
vt 0.3412084 0.1258523 0
vt 0.3231477 0.1442728 0
vt 0.3204482 0.1126629 0
vt 0.3108887 0.1362144 0
vt 0.296488 0.1083337 0
vt 0.2964622 0.1333399 0
vt 0.2725459 0.1128618 0
vt 0.2820172 0.1363449 0
vt 0.251962 0.1263988 0
vt 0.2697899 0.1445947 0
vt 0.2378604 0.1469603 0
vt 0.261716 0.1569074 0
vt 0.2336219 0.1715368 0
vt 0.2587431 0.1713531 0
vt 0.2382695 0.196057 0
vt 0.2619712 0.1857475 0
vt 0.2527396 0.2164039 0
vt 0.270273 0.1979259 0
vt 0.273602 0.2296064 0
vt 0.2826672 0.2059617 0
vt 0.3149872 0.2132467 0
vt 0.297349 0.2171173 0
vt 0.3296309 0.2029951 0
vt 0.3396604 0.1881807 0
vt 0.3426849 0.1705404 0
vt 0.3392924 0.1529737 0
vt 0.3289632 0.138384 0
vt 0.3141268 0.1284754 0
vt 0.2964623 0.1249339 0
vt 0.2787835 0.1286453 0
vt 0.2638271 0.1386913 0
vt 0.2540369 0.1537524 0
vt 0.2502767 0.1714192 0
vt 0.2543431 0.1890224 0
vt 0.2644089 0.2039269 0
vt 0.2795699 0.2137189 0
vt 0.3078998 0.1972274 0
vt 0.2969778 0.1995411 0
vt 0.3171116 0.1909327 0
vt 0.3233841 0.1817031 0
vt 0.3251375 0.1707484 0
vt 0.3231557 0.1598399 0
vt 0.3166131 0.1508635 0
vt 0.3074459 0.1445153 0
vt 0.2964375 0.1424885 0
vt 0.2854881 0.1447999 0
vt 0.2762513 0.1510798 0
vt 0.270152 0.1604085 0
vt 0.2681422 0.1712739 0
vt 0.2703485 0.1821068 0
vt 0.2766185 0.1913296 0
vt 0.2859824 0.1974416 0
vt 0.7787787 0.7858628 0
vt 0.7407743 0.8282814 0
vt 0.7684173 0.7789558 0
vt 0.7286083 0.8244196 0
vt 0.7583211 0.7720485 0
vt 0.7161306 0.822418 0
vt 0.7492552 0.7644528 0
vt 0.7082196 0.8119899 0
vt 0.7401377 0.7559974 0
vt 0.7033155 0.8002799 0
vt 0.7221959 0.9578915 0
vt 0.6970529 0.9010411 0
vt 0.7329628 0.9531754 0
vt 0.7073388 0.8929179 0
vt 0.7445015 0.9494517 0
vt 0.7196093 0.8945933 0
vt 0.75629 0.9457765 0
vt 0.7319397 0.8943265 0
vt 0.7684484 0.9414234 0
vt 0.7438181 0.8918043 0
vt 0.780554 0.9361884 0
vt 0.7549225 0.8871398 0
vt 0.7920426 0.9300088 0
vt 0.7651111 0.8804472 0
vt 0.8032242 0.9235043 0
vt 0.7741594 0.8722421 0
vt 0.8087263 0.811446 0
vt 0.7691509 0.8509224 0
vt 0.7994225 0.8021942 0
vt 0.7613027 0.8415224 0
vt 0.7893445 0.7934764 0
vt 0.7517985 0.8339721 0
vt 0.7258152 0.8321959 0
vt 0.7368756 0.8344112 0
vt 0.7147784 0.8331772 0
vt 0.7064769 0.8436352 0
vt 0.702636 0.8565857 0
vt 0.7036199 0.8701084 0
vt 0.7093616 0.882222 0
vt 0.7185561 0.8867212 0
vt 0.7290602 0.8873704 0
vt 0.7406346 0.8854553 0
vt 0.7510634 0.8811971 0
vt 0.7592869 0.8745239 0
vt 0.7639526 0.8654425 0
vt 0.7617648 0.8546034 0
vt 0.7562774 0.8460651 0
vt 0.7475293 0.8392496 0
vt 0.4044129 0.2377416 0
vt 0.5470166 0.8133692 0
vt 0.5471264 0.7984688 0
vt 0.3823707 0.1998902 0
vt 0.3548112 0.2157951 0
vt 0.5456889 0.8295128 0
vt 0.5464445 0.8227974 0
vt 0.4154931 0.1801232 0
vt 0.5438132 0.8453038 0
vt 0.5429743 0.8519931 0
vt 0.9948997 0.7365644 0
vt 0.4490923 0.463879 0
vt 0.5169457 0.7399699 0
vt 0.0609338 0.4632116 0
vt 0.9950677 0.3790252 0
vt 0.9960045 0.00390625 0
vt 0.5178825 0.006888079 0
vt 0.5169457 0.382007 0
vt 0.4201097 0.3936072 0
vt 0.4209841 0.2674829 0
vt 0.01872865 0.4482795 0
vt 0.01867691 0.4173159 0
vt 0.6892637 0.9112185 0
vt 0.7115153 0.9631002 0
vt 0.4148783 0.1811298 0
vt 0.3544225 0.2145311 0
vt 0.3769463 0.2541501 0
vt 0.3763937 0.2535279 0
vt 0.3824416 0.1987448 0
vt 0.4045058 0.2382453 0
vt 0.5470541 0.806572 0
vt 0.4374643 0.21912 0
vt 0.544754 0.8374098 0
vt 0.4370134 0.2194848 0
vt 0.5396573 0.8678597 0
vt 0.5378117 0.8757517 0
vt 0.541227 0.8612472 0
vt 0.7754058 0.8614175 0
vt 0.817282 0.8207486 0
vt 0.2168406 0.3909688 0
vt 0.1236891 0.2489023 0
vt 0.2501027 0.3775287 0
vt 0.1809702 0.3906565 0
vt 0.1479485 0.3766415 0
vt 0.1228038 0.3510553 0
vt 0.7639526 0.8654425 0
vt 0.1093639 0.3177956 0
vt 0.1096751 0.2819234 0
vt 0.1492763 0.223757 0
vt 0.1825351 0.2103177 0
vt 0.2184073 0.2106289 0
vt 0.2897024 0.319362 0
vt 0.2900142 0.2834907 0
vt 0.2756865 0.3523842 0
vt 0.2765737 0.2502301 0
vt 0.2514295 0.2246447 0
vt 0.341638 0.6557689 0
vt 0.3394108 0.6594066 0
vt 0.3401552 0.6518221 0
vt 0.9412612 0.02915274 0
vt 0.9411121 0.02875226 0
vt 0.9412612 0.02835179 0
vt 0.9417114 0.02785129 0
vt 0.3363263 0.6476105 0
vt 0.1696603 0.6506117 0
vt 0.9520369 0.02965324 0
#end 286 textures vertices 

#begin 96 normals 
vn -0 -0 1
vn -0 1 -0
vn 0.7638 -0 0.6454
vn -0 -1 -0
vn -1 -0 -0
vn 1 -0 -0
vn -0.0644 0.0656 0.9958
vn -0.0644 -0.0656 0.9958
vn -0.1961 -0.1806 0.9638
vn -0.1961 0.1806 0.9638
vn -0.7638 -0 0.6454
vn -0 -0.7428 0.6695
vn -0 0.7428 0.6695
vn 0.0644 0.0656 0.9958
vn 0.0644 -0.0656 0.9958
vn 0.1961 0.1806 0.9638
vn 0.1961 -0.1806 0.9638
vn -0 -0 1
vn -1 -0 -0
vn 1 -0 -0
vn -0 -0 1
vn -0 -1 -0
vn -0 1 -0
vn 0.8487 0.5225 0.0812
vn 0.7415 0.667 0.0723
vn 0.8464 0.5263 0.081
vn -0 -0.9999 0.0147
vn 0.9956 -0 0.0936
vn 0.7416 -0.667 0.0723
vn 0.8488 -0.5225 0.0812
vn 0.8464 -0.5263 0.081
vn -0.7415 0.667 0.0723
vn -0.8487 0.5225 0.0812
vn -0.8464 0.5263 0.081
vn -0 0.9999 0.0147
vn -0.9956 -0 0.0936
vn -0.8488 -0.5225 0.0812
vn -0.8464 -0.5263 0.081
vn -0.7416 -0.667 0.0723
vn -0 0.8484 0.5294
vn 0.3247 0.7838 0.5294
vn 0.5999 0.5999 0.5294
vn 0.7838 0.3247 0.5294
vn 0.8484 -0 0.5294
vn 0.7838 -0.3247 0.5294
vn 0.5999 -0.5999 0.5294
vn 0.3247 -0.7838 0.5294
vn -0 -0.8484 0.5294
vn -0.3247 -0.7838 0.5294
vn -0.5999 -0.5999 0.5294
vn -0.7838 -0.3247 0.5294
vn -0.8484 -0 0.5294
vn -0.7838 0.3247 0.5294
vn -0.5999 0.5999 0.5294
vn -0.3247 0.7838 0.5294
vn -0 0.7851 0.6193
vn -0.3005 0.7254 0.6193
vn -0 -0 1
vn -0.3005 -0.7254 0.6193
vn -0 -0.7851 0.6193
vn 0.3005 -0.7254 0.6193
vn 0.3005 0.7254 0.6193
vn -0.5552 -0.5552 0.6193
vn 0.5552 0.5552 0.6193
vn -0.7254 -0.3005 0.6193
vn 0.7254 0.3005 0.6193
vn -0.7851 -0 0.6193
vn 0.7852 -0 0.6193
vn -0.7254 0.3005 0.6193
vn 0.7254 -0.3005 0.6193
vn -0.5552 0.5552 0.6193
vn 0.5552 -0.5552 0.6193
vn -0 1 -0
vn 0.3827 0.9239 -0
vn 0.6588 0.7523 -0
vn 0.7071 0.7071 -0
vn 0.9239 0.3827 -0
vn 1 -0 -0
vn 0.9239 -0.3827 -0
vn 0.6588 -0.7523 -0
vn 0.7071 -0.7071 -0
vn 0.3827 -0.9239 -0
vn -0 -1 -0
vn -0.3827 -0.9239 -0
vn -0.7071 -0.7071 -0
vn -0.9239 -0.3827 -0
vn -1 -0 -0
vn -0.9239 0.3827 -0
vn -0.7071 0.7071 -0
vn -0 -0 1
vn -0.3827 0.9239 -0
vn 0.5556 0.8315 -0
vn 0.5556 -0.8315 -0
vn 0.0463 0.9989 -0
vn -0 -0 -1
vn 0.0463 -0.9989 -0
#end 96 normals 

#begin 178 faces
o Plane:007
s 1
f 23/23/1 21/21/1 4/4/1 5/5/1 
f 24/24/1 22/22/1 6/6/1 2/2/1 
f 22/22/1 23/23/1 5/5/1 6/6/1 
f 14/14/2 16/16/2 29/29/2 30/30/2 
f 13/13/1 15/15/1 16/232/1 14/234/1 
f 17/17/1 19/19/1 13/13/1 10/10/1 
f 13/13/3 14/234/3 40/40/3 39/39/3 
f 20/20/1 18/18/1 11/11/1 15/15/1 
f 15/15/1 11/11/1 12/12/1 16/232/1 
f 8/8/1 3/3/1 18/18/1 20/20/1 
f 1/1/1 7/7/1 19/19/1 17/17/1 
f 7/7/1 8/8/1 20/20/1 19/19/1 
f 19/237/2 20/236/2 27/27/2 25/25/2 
f 9/9/1 14/234/1 22/22/1 24/24/1 
f 16/232/1 12/12/1 21/21/1 23/23/1 
f 23/231/4 22/233/4 31/31/4 32/32/4 
f 16/16/5 23/231/5 32/32/5 29/29/5 
f 15/235/4 13/238/4 26/26/4 28/28/4 
f 20/236/5 15/235/5 28/28/5 27/27/5 
f 13/238/6 19/237/6 25/25/6 26/26/6 
f 22/233/6 14/14/6 30/30/6 31/31/6 
f 35/35/7 36/36/8 44/44/9 43/43/10 
f 9/9/11 10/10/11 38/38/11 37/37/11 
f 10/10/12 13/13/12 39/39/12 38/38/12 
f 14/234/13 9/9/13 37/37/13 40/40/13 
f 34/34/14 33/33/15 37/37/1 38/38/1 
f 36/36/8 35/35/7 39/39/1 40/40/1 
f 35/35/7 34/34/14 38/38/1 39/39/1 
f 33/33/15 36/36/8 40/40/1 37/37/1 
f 42/42/16 43/240/10 44/239/9 41/41/17 
f 34/34/14 35/35/7 43/43/10 42/242/16 
f 33/33/15 34/34/14 42/242/16 41/241/17 
f 36/36/8 33/33/15 41/241/17 44/44/9 
o Plane:008
s 1
f 45/45/18 47/47/18 48/48/18 46/46/18 
f 50/50/18 49/49/18 52/52/18 51/51/18 
o Cube:015
s 1
f 62/62/19 54/54/19 56/56/19 63/63/19 
f 65/65/20 60/60/20 58/58/20 67/67/20 
f 80/80/21 76/76/21 54/54/21 62/62/21 
f 69/69/22 59/59/22 57/57/22 74/74/22 
f 71/71/23 56/56/23 54/54/23 76/76/23 
f 73/73/21 78/78/21 61/61/21 53/53/21 
f 66/66/20 94/94/20 96/96/20 68/68/20 
f 59/59/20 66/66/20 68/68/20 57/57/20 
f 68/68/21 96/96/21 99/99/21 77/77/21 
f 53/53/19 61/61/19 64/64/19 55/55/19 
f 78/78/21 103/103/21 87/87/21 61/61/21 
f 103/103/24 78/78/25 85/85/25 108/108/26 
f 86/86/21 107/107/21 108/282/21 85/283/21 
f 57/57/21 68/68/21 77/77/21 74/74/21 
f 74/74/21 77/77/21 78/78/21 73/73/21 
f 60/60/23 72/72/23 75/75/23 58/58/23 
f 72/72/23 71/71/23 76/76/23 75/75/23 
f 55/55/22 70/70/22 73/73/22 53/53/22 
f 70/70/22 69/69/22 74/74/22 73/73/22 
f 67/67/21 58/58/21 75/75/21 79/79/21 
f 79/79/21 75/75/21 76/76/21 80/80/21 
f 79/79/27 80/80/27 83/285/27 84/84/27 
f 97/97/21 67/67/21 79/79/21 100/100/21 
f 102/102/21 80/80/21 62/62/21 88/88/21 
f 93/93/20 65/65/20 67/67/20 97/97/20 
f 61/61/19 87/87/19 90/90/19 64/64/19 
f 104/104/28 103/103/24 108/108/26 106/106/28 
f 80/80/29 102/102/30 105/105/31 83/285/29 
f 97/97/21 100/100/21 101/101/21 98/98/21 
f 98/98/21 101/101/21 99/99/21 96/96/21 
f 88/88/19 91/91/19 92/92/19 89/89/19 
f 89/89/19 92/92/19 90/90/19 87/87/19 
f 93/93/20 97/97/20 98/98/20 95/95/20 
f 95/95/20 98/98/20 96/96/20 94/94/20 
f 102/102/21 88/88/21 89/89/21 104/104/21 
f 104/104/21 89/89/21 87/87/21 103/103/21 
f 88/88/19 62/62/19 63/63/19 91/91/19 
f 81/81/21 84/286/21 83/83/21 105/280/21 
f 81/81/21 105/280/21 106/281/21 82/82/21 
f 82/82/21 106/281/21 108/282/21 107/107/21 
f 102/102/30 104/104/28 106/106/28 105/105/31 
f 77/77/32 99/99/33 107/279/34 86/284/32 
f 78/78/35 77/77/35 86/284/35 85/85/35 
f 101/101/36 100/100/37 81/278/38 82/277/36 
f 100/100/37 79/79/39 84/84/39 81/278/38 
f 99/99/33 101/101/36 82/277/36 107/279/34 
o Cylinder:001
s 1
f 109/109/40 142/142/40 141/141/41 111/111/41 
f 111/111/41 141/141/41 143/143/42 113/113/42 
f 113/113/42 143/143/42 144/144/43 115/115/43 
f 115/115/43 144/144/43 145/145/44 117/117/44 
f 117/117/44 145/145/44 146/146/45 119/119/45 
f 119/119/45 146/146/45 147/147/46 121/121/46 
f 121/121/46 147/147/46 148/148/47 123/123/47 
f 123/123/47 148/148/47 149/149/48 125/125/48 
f 125/125/48 149/149/48 150/150/49 127/127/49 
f 127/127/49 150/150/49 151/151/50 129/129/50 
f 129/129/50 151/151/50 152/152/51 131/131/51 
f 131/131/51 152/152/51 153/153/52 133/133/52 
f 133/133/52 153/153/52 154/154/53 135/135/53 
f 135/135/53 154/154/53 155/155/54 137/137/54 
f 137/137/54 155/155/54 156/156/55 139/139/55 
f 139/139/55 156/156/55 142/142/40 109/109/40 
f 126/126/56 124/124/57 164/164/57 165/165/56 
f 110/110/58 112/112/58 141/141/58 142/142/58 
f 112/112/58 114/114/58 143/143/58 141/141/58 
f 114/114/58 116/116/58 144/144/58 143/143/58 
f 116/116/58 118/118/58 145/145/58 144/144/58 
f 118/118/58 120/120/58 146/146/58 145/145/58 
f 120/120/58 122/122/58 147/147/58 146/146/58 
f 122/122/58 124/124/58 148/148/58 147/147/58 
f 124/124/58 126/126/58 149/149/58 148/148/58 
f 126/126/58 128/128/58 150/150/58 149/149/58 
f 128/128/58 130/130/58 151/151/58 150/150/58 
f 130/130/58 132/132/58 152/152/58 151/151/58 
f 132/132/58 134/134/58 153/153/58 152/152/58 
f 134/134/58 136/136/58 154/154/58 153/153/58 
f 136/136/58 138/138/58 155/155/58 154/154/58 
f 138/138/58 140/140/58 156/156/58 155/155/58 
f 140/140/58 110/110/58 142/142/58 156/156/58 
f 112/112/59 110/110/60 158/158/60 157/157/59 
f 110/110/60 140/140/61 172/172/61 158/158/60 
f 128/128/62 126/126/56 165/165/56 166/166/62 
f 114/114/63 112/112/59 157/157/59 159/159/63 
f 130/130/64 128/128/62 166/166/62 167/167/64 
f 116/116/65 114/114/63 159/159/63 160/160/65 
f 132/132/66 130/130/64 167/167/64 168/168/66 
f 118/118/67 116/116/65 160/160/65 161/161/67 
f 134/134/68 132/132/66 168/168/66 169/169/68 
f 120/120/69 118/118/67 161/161/67 162/162/69 
f 136/136/70 134/134/68 169/169/68 170/170/70 
f 122/122/71 120/120/69 162/162/69 163/163/71 
f 138/138/72 136/136/70 170/170/70 171/171/72 
f 124/124/57 122/122/71 163/163/71 164/164/57 
f 140/140/61 138/138/72 171/171/72 172/172/61 
o Cylinder:002
s 1
f 173/173/73 174/174/73 176/176/74 175/175/74 
f 175/175/74 176/176/74 178/178/75 177/177/76 
f 177/177/76 178/178/75 180/180/77 179/179/77 
f 179/179/77 180/180/77 182/182/78 181/181/78 
f 181/244/78 182/243/78 184/184/79 183/183/79 
f 183/183/79 184/184/79 186/186/80 185/185/81 
f 185/185/81 186/186/80 188/188/82 187/187/82 
f 187/187/82 188/188/82 190/190/83 189/189/83 
f 189/189/83 190/190/83 192/192/84 191/191/84 
f 191/191/84 192/192/84 194/194/85 193/193/85 
f 193/193/85 194/194/85 196/196/86 195/195/86 
f 195/195/86 196/196/86 198/198/87 197/197/87 
f 197/259/87 198/258/87 200/200/88 199/199/88 
f 199/199/88 200/200/88 202/202/89 201/201/89 
f 208/208/90 209/209/90 228/253/90 226/226/90 
f 201/201/89 202/202/89 204/204/91 203/203/91 
f 203/203/91 204/204/91 174/174/73 173/173/73 
f 192/192/84 190/190/83 213/213/83 214/214/84 
f 202/202/89 200/200/88 218/218/88 219/219/89 
f 178/178/75 176/176/74 205/205/74 207/207/92 
f 188/188/82 186/186/80 211/211/93 212/212/82 
f 198/198/87 196/196/86 216/216/86 217/217/87 
f 178/178/94 207/207/94 227/227/94 222/222/94 
f 194/194/85 192/192/84 214/214/84 215/215/85 
f 204/204/91 202/202/89 219/219/89 220/220/91 
f 207/207/90 208/208/90 226/226/90 227/227/90 
f 190/190/83 188/188/82 212/212/82 213/213/83 
f 176/176/74 174/174/73 206/206/73 205/205/74 
f 200/200/88 198/258/87 217/266/87 218/218/88 
f 210/210/90 211/211/90 230/230/90 229/229/90 
f 196/196/86 194/194/85 215/215/85 216/216/86 
f 174/174/73 204/204/91 220/220/91 206/206/73 
f 223/252/78 221/221/78 226/249/78 228/228/78 
f 224/224/78 223/245/78 228/254/78 229/250/78 
f 221/221/78 222/248/78 227/246/78 226/249/78 
f 225/225/78 224/224/78 229/250/78 230/247/78 
f 186/186/95 184/184/95 224/255/95 225/257/95 
f 184/184/95 182/243/95 223/256/95 224/255/95 
f 211/211/96 186/186/96 225/257/96 230/230/96 
f 182/182/95 180/180/95 221/251/95 223/223/95 
f 209/209/90 210/210/90 229/229/90 228/253/90 
f 180/180/95 178/178/95 222/222/95 221/251/95 
f 218/264/90 217/265/90 216/267/90 219/263/90 
f 219/263/90 216/267/90 215/268/90 220/260/90 
f 220/260/90 215/268/90 214/261/90 206/262/90 
f 206/262/90 214/261/90 213/269/90 205/274/90 
f 205/274/90 213/269/90 212/270/90 207/272/90 
f 207/272/90 212/270/90 211/271/90 208/273/90 
f 208/273/90 211/271/90 210/276/90 209/275/90 
#end 178 faces

#ZOMPROPERTIES_04{
#ZOMPROPERTIES_04 table {Mesh table {SymPlane table {Point vector3d 0 0 0 Normal vector3d 1 0 0 Threshold double 0.01 
#ZOMPROPERTIES_04 Enabled bool false EdgeID int -1 SymEdgeID int -1 UPos double 0.5 LocalMode bool false } RootGroup C
#ZOMPROPERTIES_04 SubMeshGroup {Children table {Tile_0_0 CSubMeshGroup {Children table {} BBoxUV box3d 0 0 0 0 0 0 BBo
#ZOMPROPERTIES_04 x3D box3d 0 0 0 0 0 0 Area3D double 0 AreaUV double 0.584722 IsRoot bool false Properties table {Sel
#ZOMPROPERTIES_04 ected bool false Box box3d 0 1 0 1 0 1 U int 0 V int 0 NU int 0 NV int 0 Tiling vector3d 1 1 1 TileR
#ZOMPROPERTIES_04 atioMode string "1:1" Overflow string "Off" Pack table {BoxFrameEdit bool false Behavior string "Fre
#ZOMPROPERTIES_04 e" } } IsTile bool true PolyIDs ints { 47 74 73 72 162 164 161 163 81 82 83 100 101 102 85 86 87 88 
#ZOMPROPERTIES_04 89 90 91 92 109 110 111 112 113 115 114 98 117 99 119 96 95 128 94 126 124 122 120 108 118 116 97 12
#ZOMPROPERTIES_04 7 104 103 125 105 106 107 93 123 121 84 29 3 16 15 20 12 18 17 19 171 172 173 174 175 176 177 129 15
#ZOMPROPERTIES_04 6 160 153 147 157 141 142 144 145 148 130 131 170 168 132 151 154 143 169 158 167 165 134 135 149 15
#ZOMPROPERTIES_04 5 136 137 138 139 159 152 150 140 146 133 166 35 39 51 50 54 36 59 57 63 78 79 56 55 62 75 61 46 77 
#ZOMPROPERTIES_04 76 80 43 64 68 67 41 42 38 53 52 44 60 66 65 71 58 69 70 45 40 49 48 37 34 33 0 14 8 7 9 11 10 5 23 
#ZOMPROPERTIES_04 6 26 21 32 31 30 27 25 22 24 13 1 2 28 4 } } } BBoxUV box3d 0 0 0 0 0 0 BBox3D box3d 0 0 0 0 0 0 Are
#ZOMPROPERTIES_04 a3D double 0 AreaUV double 0 IsRoot bool true Properties table {Selected bool false Box box3d 0 1 0 
#ZOMPROPERTIES_04 1 0 1 U int 0 V int 0 NU int 1 NV int 1 Tiling vector3d 1 1 1 TileRatioMode string "1:1" Overflow st
#ZOMPROPERTIES_04 ring "Off" Pack table {Rotate table {Mode int 0 Min double 0 Max double 90 Step double 0 } PaddingSi
#ZOMPROPERTIES_04 ze double 0.0078125 MarginSize double 0.00390625 Resolution int 256 MapResolution int 2048 Scaling t
#ZOMPROPERTIES_04 able {TexelDensity double 1024 Mode int 2 } LayoutScalingMode int 2 MaxMutations int 1 } } IsTile bo
#ZOMPROPERTIES_04 ol false PolyIDs ints { } } Maps table {Pin table {PrimType string "Vertex" Size int 1 DefaultValue 
#ZOMPROPERTIES_04 double 0 ScaleType string "Normalized" MergeMode string "Max" MinValue double 0 MaxValue double 1 Da
#ZOMPROPERTIES_04 ta doubles { r 286 0 } } Density table {PrimType string "Polygon" Size int 1 DefaultValue double 1 S
#ZOMPROPERTIES_04 caleType string "Log" MergeMode string "Average" MinValue double 0.1 MaxValue double 4 Data doubles 
#ZOMPROPERTIES_04 { r 178 1 } } Protect table {PrimType string "Vertex" Size int 1 DefaultValue double 0 ScaleType str
#ZOMPROPERTIES_04 ing "Normalized" MergeMode string "Average" MinValue double -1 MaxValue double 1 Data doubles { r 28
#ZOMPROPERTIES_04 6 0 } } } } }
#ZOMPROPERTIES_04}


#ZOMSCENE_01{
#ZOMSCENE_01 CScene {Settings table {AxisSystem table {UpVector string "y" } Unit string "cm" TexelDensityDisplay
#ZOMSCENE_01 Unit string "tx/cm" } Root table {} }
#ZOMSCENE_01}

#begin 0 fatal error vertex (that RizomUV cannot handle)
#end 0 fatal error vertex (that RizomUV cannot handle)

#begin 0 error vertex
#end 0 error vertex
