#File written by RizomUV 2023.0.70.ge90189e8. Compilation :Sep 22 2023,12:42:11
mtllib Techo.mtl
#begin vertices
v -20.38293 7.934944 11.44478
v 2.536832 7.934944 11.44478
v -20.38293 7.934944 -16.67013
v 2.536832 7.934944 -16.67013
#end vertices

#begin 4 textures vertices 
vt 0.07405334 0.9722469 0
vt 0.8490027 0.9725554 0
vt 0.07443181 0.02164215 0
vt 0.8493812 0.02195068 0
#end 4 textures vertices 

#begin 1 normals 
vn -0 -1 -0
#end 1 normals 

#begin 1 faces
o Plane:017
s 1
f 1/1/1 3/3/1 4/4/1 2/2/1 
#end 1 faces

#ZOMPROPERTIES_04{
#ZOMPROPERTIES_04 table {Mesh table {SymPlane table {Point vector3d 0 0 0 Normal vector3d 1 0 0 Threshold double 0.01 
#ZOMPROPERTIES_04 Enabled bool false EdgeID int -1 SymEdgeID int -1 UPos double 0.5 LocalMode bool false } RootGroup C
#ZOMPROPERTIES_04 SubMeshGroup {Children table {Tile_0_0 CSubMeshGroup {Children table {} BBoxUV box3d 0 0 0 0 0 0 BBo
#ZOMPROPERTIES_04 x3D box3d 0 0 0 0 0 0 Area3D double 0 AreaUV double 0.736671 IsRoot bool false Properties table {Sel
#ZOMPROPERTIES_04 ected bool false Box box3d 0 1 0 1 0 1 U int 0 V int 0 NU int 0 NV int 0 Tiling vector3d 1 1 1 TileR
#ZOMPROPERTIES_04 atioMode string "1:1" Overflow string "Off" Pack table {BoxFrameEdit bool false Behavior string "Fre
#ZOMPROPERTIES_04 e" } } IsTile bool true PolyIDs ints { 0 } } } BBoxUV box3d 0 0 0 0 0 0 BBox3D box3d 0 0 0 0 0 0 Are
#ZOMPROPERTIES_04 a3D double 0 AreaUV double 1.22667 IsRoot bool true Properties table {Selected bool false Box box3d 
#ZOMPROPERTIES_04 0 1 0 1 0 1 U int 0 V int 0 NU int 1 NV int 1 Tiling vector3d 1 1 1 TileRatioMode string "1:1" Overf
#ZOMPROPERTIES_04 low string "Off" Pack table {Rotate table {Mode int 0 Min double 0 Max double 90 Step double 0 } Pad
#ZOMPROPERTIES_04 dingSize double 0.0078125 MarginSize double 0.00390625 Resolution int 256 MapResolution int 2048 Sca
#ZOMPROPERTIES_04 ling table {TexelDensity double 1024 Mode int 2 } LayoutScalingMode int 2 MaxMutations int 1 } } IsT
#ZOMPROPERTIES_04 ile bool false PolyIDs ints { } } Maps table {Pin table {PrimType string "Vertex" Size int 1 Default
#ZOMPROPERTIES_04 Value double 0 ScaleType string "Normalized" MergeMode string "Max" MinValue double 0 MaxValue doubl
#ZOMPROPERTIES_04 e 1 Data doubles { r 4 0 } } Density table {PrimType string "Polygon" Size int 1 DefaultValue double
#ZOMPROPERTIES_04  1 ScaleType string "Log" MergeMode string "Average" MinValue double 0.1 MaxValue double 4 Data doub
#ZOMPROPERTIES_04 les { 1 } } Protect table {PrimType string "Vertex" Size int 1 DefaultValue double 0 ScaleType strin
#ZOMPROPERTIES_04 g "Normalized" MergeMode string "Average" MinValue double -1 MaxValue double 1 Data doubles { r 4 0 
#ZOMPROPERTIES_04 } } } } }
#ZOMPROPERTIES_04}


#ZOMSCENE_01{
#ZOMSCENE_01 CScene {Settings table {AxisSystem table {UpVector string "y" } Unit string "cm" TexelDensityDisplay
#ZOMSCENE_01 Unit string "tx/cm" } Root table {} }
#ZOMSCENE_01}

#begin 0 fatal error vertex (that RizomUV cannot handle)
#end 0 fatal error vertex (that RizomUV cannot handle)

#begin 0 error vertex
#end 0 error vertex
