# Blender 4.2.8 LTS
# www.blender.org
mtllib BALDEE.mtl
o barril_
v -23.600740 -0.417244 -1.685485
v -23.600740 -0.865764 -1.664037
v -23.600740 1.319912 -1.661165
v -23.600740 0.871869 -1.685484
v -22.850710 0.871869 -1.531667
v -22.861984 1.319912 -1.509755
v -22.860653 -0.865764 -1.512342
v -22.850710 -0.417244 -1.531667
v -22.246258 0.871869 -1.088482
v -22.266573 1.319912 -1.073319
v -22.264172 -0.865764 -1.075109
v -22.246258 -0.417244 -1.088482
v -21.907103 0.871869 -0.443709
v -21.932434 1.319912 -0.438297
v -21.929443 -0.865764 -0.438936
v -21.907103 -0.417244 -0.443709
v -21.900419 0.871869 0.274948
v -21.925751 1.319912 0.269536
v -21.922760 -0.865764 0.270175
v -21.900419 -0.417244 0.274948
v -22.227531 0.871869 0.925149
v -22.247847 1.319912 0.909985
v -22.245447 -0.865764 0.911776
v -22.227531 -0.417244 0.925149
v -22.823652 0.871869 1.378114
v -22.834925 1.319912 1.356203
v -22.833593 -0.865764 1.358790
v -22.823652 -0.417244 1.378114
v -23.570707 0.871869 1.544128
v -23.570707 1.319912 1.519809
v -23.570707 -0.865764 1.522681
v -23.570707 -0.417244 1.544129
v -24.320740 0.871869 1.390311
v -24.309465 1.319912 1.368399
v -24.310797 -0.865764 1.370987
v -24.320740 -0.417244 1.390311
v -24.925192 0.871869 0.947127
v -24.904877 1.319912 0.931963
v -24.907276 -0.865764 0.933753
v -24.925192 -0.417244 0.947126
v -25.264345 0.871869 0.302353
v -25.239014 1.319912 0.296942
v -25.242006 -0.865764 0.297580
v -25.264345 -0.417244 0.302353
v -25.271027 0.871869 -0.416303
v -25.245699 1.319912 -0.410891
v -25.248688 -0.865764 -0.411531
v -25.271027 -0.417244 -0.416304
v -24.943916 0.871869 -1.066504
v -24.923601 1.319912 -1.051341
v -24.926001 -0.865764 -1.053132
v -24.943916 -0.417244 -1.066505
v -24.347797 0.871869 -1.519470
v -24.336523 1.319912 -1.497558
v -24.337854 -0.865764 -1.500146
v -24.347797 -0.417244 -1.519470
v -24.411108 -0.878398 -1.639362
v -24.421028 -0.429878 -1.658696
v -23.602205 -0.878398 -1.819214
v -23.602180 -0.429878 -1.840663
v -24.420986 0.886202 -1.658618
v -24.409739 1.334245 -1.636695
v -23.602179 0.886202 -1.840576
v -23.602207 1.334245 -1.816256
v -25.056532 -0.878398 -1.148812
v -25.074432 -0.429878 -1.162203
v -25.074360 0.886202 -1.162150
v -25.054064 1.334245 -1.146965
v -25.410646 -0.878398 -0.444724
v -25.432980 -0.429878 -0.449520
v -25.432890 0.886202 -0.449502
v -25.407564 1.334245 -0.444063
v -25.403309 -0.878398 0.333448
v -25.425657 -0.429878 0.338197
v -25.425568 0.886202 0.338177
v -25.400227 1.334245 0.332792
v -25.035980 -0.878398 1.031578
v -25.053913 -0.429878 1.044932
v -25.053841 0.886202 1.044877
v -25.033508 1.334245 1.029735
v -24.381411 -0.878398 1.511392
v -24.391375 -0.429878 1.530706
v -24.391335 0.886202 1.530628
v -24.380035 1.334245 1.508728
v -23.569242 -0.878398 1.677859
v -23.569269 -0.429878 1.699307
v -23.569269 0.886202 1.699220
v -23.569241 1.334245 1.674900
v -22.760342 -0.878398 1.498006
v -22.750422 -0.429878 1.517340
v -22.750462 0.886202 1.517262
v -22.761709 1.334245 1.495339
v -22.114916 -0.878398 1.007456
v -22.097015 -0.429878 1.020848
v -22.097088 0.886202 1.020794
v -22.117386 1.334245 1.005609
v -21.760801 -0.878398 0.303369
v -21.738468 -0.429878 0.308164
v -21.738558 0.886202 0.308146
v -21.763884 1.334245 0.302708
v -21.768137 -0.878398 -0.474804
v -21.745790 -0.429878 -0.479553
v -21.745880 0.886202 -0.479533
v -21.771221 1.334245 -0.474148
v -22.135468 -0.878398 -1.172934
v -22.117537 -0.429878 -1.186288
v -22.117609 0.886202 -1.186233
v -22.137939 1.334245 -1.171091
v -22.790039 -0.878398 -1.652748
v -22.780073 -0.429878 -1.672062
v -22.780113 0.886202 -1.671983
v -22.791412 1.334245 -1.650084
v -23.600744 -1.797151 -1.573602
v -23.570704 -1.797151 -1.573602
v -23.570702 2.133319 -1.573601
v -23.600746 2.133319 -1.573601
v -22.902575 -1.797151 -1.430865
v -22.875511 -1.797151 -1.418666
v -22.875509 2.133319 -1.418665
v -22.902578 2.133319 -1.430866
v -22.339714 -1.797151 -1.018728
v -22.320984 -1.797151 -0.996744
v -22.320982 2.133319 -0.996743
v -22.339714 2.133319 -1.018728
v -22.023640 -1.797151 -0.418816
v -22.016954 -1.797151 -0.391403
v -22.016954 2.133319 -0.391402
v -22.023640 2.133319 -0.418818
v -22.016954 -1.797151 0.250048
v -22.023640 -1.797151 0.277461
v -22.023640 2.133319 0.277462
v -22.016954 2.133319 0.250046
v -22.320984 -1.797151 0.855388
v -22.339714 -1.797151 0.877372
v -22.339714 2.133319 0.877373
v -22.320982 2.133319 0.855387
v -22.875511 -1.797151 1.277310
v -22.902575 -1.797151 1.289510
v -22.902578 2.133319 1.289510
v -22.875509 2.133319 1.277309
v -23.570704 -1.797151 1.432246
v -23.600744 -1.797151 1.432246
v -23.600746 2.133319 1.432246
v -23.570702 2.133319 1.432246
v -24.268873 -1.797151 1.289510
v -24.295937 -1.797151 1.277310
v -24.295938 2.133319 1.277309
v -24.268869 2.133319 1.289510
v -24.831734 -1.797151 0.877372
v -24.850464 -1.797151 0.855388
v -24.850464 2.133319 0.855387
v -24.831734 2.133319 0.877373
v -25.147808 -1.797151 0.277461
v -25.154491 -1.797151 0.250048
v -25.154491 2.133319 0.250046
v -25.147808 2.133319 0.277462
v -25.154491 -1.797151 -0.391403
v -25.147808 -1.797151 -0.418816
v -25.147808 2.133319 -0.418818
v -25.154491 2.133319 -0.391402
v -24.850464 -1.797151 -0.996744
v -24.831734 -1.797151 -1.018728
v -24.831734 2.133319 -1.018728
v -24.850464 2.133319 -0.996743
v -24.295937 -1.797151 -1.418666
v -24.268873 -1.797151 -1.430866
v -24.268869 2.133319 -1.430866
v -24.295938 2.133319 -1.418665
v -23.600739 -0.406564 -1.685485
v -23.570709 -0.406564 -1.685485
v -23.570704 -0.855084 -1.664035
v -23.600744 -0.855084 -1.664035
v -23.600746 1.330592 -1.661163
v -23.570702 1.330592 -1.661163
v -23.570709 0.882548 -1.685485
v -23.600739 0.882548 -1.685485
v -22.823652 0.882548 -1.519471
v -22.850708 0.882548 -1.531666
v -22.861988 1.330592 -1.509756
v -22.834919 1.330592 -1.497555
v -22.833590 -0.855084 -1.500144
v -22.860657 -0.855084 -1.512343
v -22.850708 -0.406564 -1.531666
v -22.823652 -0.406564 -1.519471
v -22.227531 0.882548 -1.066506
v -22.246256 0.882548 -1.088481
v -22.266575 1.330592 -1.073322
v -22.247845 1.330592 -1.051337
v -22.245445 -0.855084 -1.053128
v -22.264175 -0.855084 -1.075112
v -22.246256 -0.406564 -1.088481
v -22.227531 -0.406564 -1.066506
v -21.900419 0.882548 -0.416305
v -21.907103 0.882548 -0.443707
v -21.932436 1.330592 -0.438302
v -21.925749 1.330592 -0.410886
v -21.922760 -0.855084 -0.411527
v -21.929443 -0.855084 -0.438940
v -21.907103 -0.406564 -0.443707
v -21.900419 -0.406564 -0.416305
v -21.907103 0.882548 0.302352
v -21.900419 0.882548 0.274949
v -21.925749 1.330592 0.269530
v -21.932436 1.330592 0.296946
v -21.929443 -0.855084 0.297584
v -21.922760 -0.855084 0.270171
v -21.900419 -0.406564 0.274949
v -21.907103 -0.406564 0.302352
v -22.246256 0.882548 0.947125
v -22.227531 0.882548 0.925150
v -22.247845 1.330592 0.909981
v -22.266575 1.330592 0.931967
v -22.264175 -0.855084 0.933756
v -22.245445 -0.855084 0.911773
v -22.227531 -0.406564 0.925150
v -22.246256 -0.406564 0.947125
v -22.850708 0.882548 1.390310
v -22.823652 0.882548 1.378115
v -22.834919 1.330592 1.356199
v -22.861988 1.330592 1.368401
v -22.860657 -0.855084 1.370988
v -22.833590 -0.855084 1.358788
v -22.823652 -0.406564 1.378115
v -22.850708 -0.406564 1.390310
v -23.600739 0.882548 1.544129
v -23.570709 0.882548 1.544129
v -23.570702 1.330592 1.519808
v -23.600746 1.330592 1.519808
v -23.600744 -0.855084 1.522680
v -23.570704 -0.855084 1.522680
v -23.570709 -0.406564 1.544129
v -23.600739 -0.406564 1.544129
v -24.347795 0.882548 1.378115
v -24.320740 0.882548 1.390310
v -24.309460 1.330592 1.368401
v -24.336529 1.330592 1.356199
v -24.337858 -0.855084 1.358788
v -24.310791 -0.855084 1.370988
v -24.320740 -0.406564 1.390310
v -24.347795 -0.406564 1.378115
v -24.943916 0.882548 0.925150
v -24.925192 0.882548 0.947125
v -24.904873 1.330592 0.931967
v -24.923603 1.330592 0.909981
v -24.926003 -0.855084 0.911773
v -24.907272 -0.855084 0.933756
v -24.925192 -0.406564 0.947125
v -24.943916 -0.406564 0.925150
v -25.271027 0.882548 0.274949
v -25.264345 0.882548 0.302352
v -25.239010 1.330592 0.296946
v -25.245695 1.330592 0.269530
v -25.248688 -0.855084 0.270171
v -25.242004 -0.855084 0.297584
v -25.264345 -0.406564 0.302352
v -25.271027 -0.406564 0.274949
v -25.264345 0.882548 -0.443707
v -25.271027 0.882548 -0.416305
v -25.245695 1.330592 -0.410886
v -25.239010 1.330592 -0.438302
v -25.242004 -0.855084 -0.438940
v -25.248688 -0.855084 -0.411527
v -25.271027 -0.406564 -0.416305
v -25.264345 -0.406564 -0.443707
v -24.925192 0.882548 -1.088481
v -24.943916 0.882548 -1.066506
v -24.923603 1.330592 -1.051337
v -24.904873 1.330592 -1.073322
v -24.907272 -0.855084 -1.075112
v -24.926003 -0.855084 -1.053128
v -24.943916 -0.406564 -1.066506
v -24.925192 -0.406564 -1.088481
v -24.320740 0.882548 -1.531666
v -24.347795 0.882548 -1.519471
v -24.336529 1.330592 -1.497555
v -24.309460 1.330592 -1.509756
v -24.310791 -0.855084 -1.512343
v -24.337858 -0.855084 -1.500144
v -24.347795 -0.406564 -1.519471
v -24.320740 -0.406564 -1.531666
v -23.588232 -1.608509 -1.501717
v -23.583214 -1.608509 -1.501717
v -23.562447 -0.829416 -1.506982
v -23.608999 -0.829416 -1.506982
v -22.940897 -0.829416 -1.374196
v -22.924625 -1.608510 -1.361018
v -22.920105 -1.608509 -1.358981
v -22.898952 -0.829416 -1.355289
v -24.251343 -1.608510 -1.358981
v -24.246822 -1.608509 -1.361018
v -24.230551 -0.829416 -1.374196
v -24.272495 -0.829416 -1.355289
v -23.562157 -0.406564 -1.527264
v -23.562157 0.882548 -1.527264
v -23.609291 0.882548 -1.527264
v -23.609291 -0.406564 -1.527264
v -22.931757 0.882548 -1.392588
v -22.931757 -0.406564 -1.392588
v -22.889288 -0.406564 -1.373446
v -22.889288 0.882548 -1.373446
v -24.239691 -0.406564 -1.392588
v -24.239691 0.882548 -1.392588
v -24.282160 0.882548 -1.373446
v -24.282160 -0.406564 -1.373446
v -24.229450 1.301486 -1.371876
v -24.188860 2.104214 -1.292986
v -24.230654 2.104214 -1.274147
v -24.271244 1.301486 -1.353038
v -23.608917 2.104214 -1.416883
v -23.608917 1.301486 -1.504444
v -23.562529 1.301486 -1.504444
v -23.562529 2.104214 -1.416883
v -22.982588 2.104214 -1.292986
v -22.941998 1.301486 -1.371876
v -22.900204 1.301486 -1.353037
v -22.940794 2.104214 -1.274147
v -22.475716 2.104214 -0.926996
v -22.402576 1.301486 -0.981590
v -22.373653 1.301486 -0.947644
v -22.446795 2.104214 -0.893050
v -22.383747 0.882548 -0.996091
v -22.383747 -0.406564 -0.996091
v -22.354359 -0.406564 -0.961598
v -22.354359 0.882548 -0.961598
v -22.400509 -0.829416 -0.983233
v -22.391958 -1.608510 -0.964752
v -22.388830 -1.608509 -0.961080
v -22.371483 -0.829416 -0.949165
v -22.188696 2.104214 -0.391402
v -22.097490 1.301486 -0.410886
v -22.087168 1.301486 -0.368556
v -22.178371 2.104214 -0.349071
v -22.073805 0.882548 -0.416305
v -22.073805 -0.406564 -0.416305
v -22.063316 -0.406564 -0.373293
v -22.063316 0.882548 -0.373293
v -22.094868 -0.829416 -0.411527
v -22.095728 -1.608509 -0.391403
v -22.094614 -1.608510 -0.386824
v -22.084507 -0.829416 -0.369044
v -22.178371 2.104214 0.207716
v -22.087168 1.301486 0.227200
v -22.097490 1.301486 0.269530
v -22.188696 2.104214 0.250046
v -22.063316 0.882548 0.231937
v -22.063316 -0.406564 0.231937
v -22.073805 -0.406564 0.274949
v -22.073805 0.882548 0.274949
v -22.084507 -0.829416 0.227688
v -22.094614 -1.608509 0.245469
v -22.095728 -1.608509 0.250048
v -22.094868 -0.829416 0.270171
v -22.446795 2.104214 0.751694
v -22.373653 1.301486 0.806288
v -22.402576 1.301486 0.840234
v -22.475716 2.104214 0.785640
v -22.354359 0.882548 0.820242
v -22.354359 -0.406564 0.820242
v -22.383747 -0.406564 0.854735
v -22.383747 0.882548 0.854735
v -22.371483 -0.829416 0.807809
v -22.388830 -1.608509 0.819725
v -22.391958 -1.608510 0.823396
v -22.400509 -0.829416 0.841877
v -22.940794 2.104214 1.132791
v -22.900204 1.301486 1.211681
v -22.941998 1.301486 1.230520
v -22.982588 2.104214 1.151630
v -22.889288 0.882548 1.232090
v -22.889288 -0.406564 1.232090
v -22.931757 -0.406564 1.251232
v -22.931757 0.882548 1.251232
v -22.898952 -0.829416 1.213934
v -22.920105 -1.608510 1.217625
v -22.924625 -1.608509 1.219663
v -22.940897 -0.829416 1.232840
v -23.562529 2.104214 1.275527
v -23.562529 1.301486 1.363089
v -23.608917 1.301486 1.363088
v -23.608917 2.104214 1.275527
v -23.562157 0.882548 1.385908
v -23.562157 -0.406564 1.385908
v -23.609291 -0.406564 1.385908
v -23.609291 0.882548 1.385908
v -23.562447 -0.829416 1.365626
v -23.583214 -1.608509 1.360361
v -23.588232 -1.608509 1.360361
v -23.608999 -0.829416 1.365626
v -24.188860 2.104214 1.151630
v -24.229450 1.301486 1.230520
v -24.271244 1.301486 1.211681
v -24.230654 2.104214 1.132791
v -24.239691 0.882548 1.251232
v -24.239691 -0.406564 1.251232
v -24.282160 -0.406564 1.232090
v -24.282160 0.882548 1.232090
v -24.230551 -0.829416 1.232840
v -24.246822 -1.608510 1.219663
v -24.251343 -1.608509 1.217625
v -24.272495 -0.829416 1.213934
v -24.695732 2.104214 0.785640
v -24.768871 1.301486 0.840234
v -24.797794 1.301486 0.806288
v -24.724653 2.104214 0.751694
v -24.787701 0.882548 0.854735
v -24.787701 -0.406564 0.854735
v -24.817089 -0.406564 0.820242
v -24.817089 0.882548 0.820242
v -24.770939 -0.829416 0.841877
v -24.779490 -1.608509 0.823396
v -24.782618 -1.608509 0.819724
v -24.799963 -0.829416 0.807809
v -24.982752 2.104214 0.250046
v -25.073956 1.301486 0.269530
v -25.084280 1.301486 0.227200
v -24.993074 2.104214 0.207716
v -25.097641 0.882548 0.274949
v -25.097641 -0.406564 0.274949
v -25.108130 -0.406564 0.231937
v -25.108130 0.882548 0.231937
v -25.076580 -0.829416 0.270171
v -25.075720 -1.608509 0.250048
v -25.076834 -1.608510 0.245469
v -25.086941 -0.829416 0.227688
v -24.993074 2.104214 -0.349071
v -25.084280 1.301486 -0.368556
v -25.073956 1.301486 -0.410886
v -24.982752 2.104214 -0.391402
v -25.108130 0.882548 -0.373293
v -25.108130 -0.406564 -0.373293
v -25.097641 -0.406564 -0.416305
v -25.097641 0.882548 -0.416305
v -25.086941 -0.829416 -0.369044
v -25.076834 -1.608509 -0.386824
v -25.075720 -1.608509 -0.391403
v -25.076580 -0.829416 -0.411527
v -24.724653 2.104214 -0.893050
v -24.797794 1.301486 -0.947644
v -24.768871 1.301486 -0.981590
v -24.695732 2.104214 -0.926996
v -24.817089 0.882548 -0.961598
v -24.817089 -0.406564 -0.961598
v -24.787701 -0.406564 -0.996091
v -24.787701 0.882548 -0.996091
v -24.799963 -0.829416 -0.949165
v -24.782618 -1.608509 -0.961080
v -24.779490 -1.608510 -0.964752
v -24.770939 -0.829416 -0.983233
vn 0.6044 0.0478 0.7953
vn 0.6042 -0.0542 0.7950
vn 0.8923 0.0491 0.4488
vn 0.8920 -0.0557 0.4487
vn 0.9987 0.0497 -0.0093
vn 0.9984 -0.0564 -0.0094
vn 0.8839 0.0491 -0.4650
vn 0.8836 -0.0557 -0.4649
vn 0.5906 0.0477 -0.8056
vn 0.5904 -0.0541 -0.8053
vn 0.2006 0.0467 -0.9786
vn 0.2006 -0.0530 -0.9782
vn -0.2168 0.0467 -0.9751
vn -0.2167 -0.0530 -0.9748
vn -0.6044 0.0478 -0.7953
vn -0.6042 -0.0542 -0.7950
vn -0.8923 0.0491 -0.4488
vn -0.9984 -0.0564 0.0094
vn -0.9987 0.0497 0.0093
vn -0.8839 0.0491 0.4650
vn -0.8836 -0.0557 0.4649
vn -0.5906 0.0477 0.8056
vn -0.5904 -0.0541 0.8053
vn -0.2006 -0.0530 0.9782
vn -0.2006 0.0467 0.9786
vn -0.8920 -0.0557 -0.4487
vn 0.2167 -0.0530 0.9748
vn 0.2167 0.0467 0.9751
vn -0.6044 -0.0478 -0.7953
vn -0.6042 0.0542 -0.7950
vn -0.8923 -0.0491 -0.4488
vn -0.8920 0.0557 -0.4487
vn -0.9987 -0.0497 0.0094
vn -0.9984 0.0564 0.0094
vn -0.8839 -0.0491 0.4650
vn -0.8836 0.0557 0.4649
vn -0.5906 -0.0477 0.8056
vn -0.5904 0.0541 0.8053
vn -0.2006 -0.0467 0.9786
vn -0.2006 0.0530 0.9782
vn 0.2167 -0.0467 0.9751
vn 0.2167 0.0530 0.9748
vn 0.6044 -0.0478 0.7953
vn 0.6042 0.0542 0.7950
vn 0.8923 -0.0491 0.4488
vn 0.9984 0.0564 -0.0094
vn 0.9987 -0.0497 -0.0093
vn 0.8839 -0.0491 -0.4650
vn 0.8836 0.0557 -0.4649
vn 0.5906 -0.0477 -0.8056
vn 0.5904 0.0541 -0.8053
vn 0.2006 0.0530 -0.9782
vn 0.2006 -0.0467 -0.9786
vn 0.8920 0.0557 0.4487
vn -0.2167 0.0530 -0.9748
vn -0.2167 -0.0467 -0.9751
vn -0.0480 0.9967 0.0655
vn 0.0557 0.9958 0.0733
vn 0.0480 -0.9967 -0.0655
vn -0.0557 -0.9958 -0.0733
vn -0.0699 0.9969 0.0368
vn 0.0204 0.9956 0.0918
vn 0.0189 -0.9956 -0.0922
vn 0.0699 -0.9969 -0.0368
vn -0.0204 -0.9956 -0.0918
vn -0.0189 0.9956 0.0922
vn -0.0779 0.9970 0.0007
vn -0.0705 0.9969 -0.0355
vn -0.0545 0.9957 0.0743
vn 0.0779 -0.9970 -0.0007
vn 0.0705 -0.9969 0.0355
vn 0.0545 -0.9957 -0.0743
vn -0.0491 0.9967 -0.0646
vn -0.0793 0.9960 0.0417
vn 0.0491 -0.9967 0.0646
vn 0.0793 -0.9960 -0.0417
vn -0.0180 0.9966 -0.0810
vn -0.0884 0.9961 0.0008
vn 0.0180 -0.9966 0.0810
vn 0.0884 -0.9961 -0.0008
vn 0.0167 0.9966 -0.0813
vn -0.0800 0.9960 -0.0402
vn -0.0167 -0.9966 0.0813
vn 0.0799 -0.9960 0.0402
vn 0.0480 0.9967 -0.0655
vn -0.0557 0.9958 -0.0733
vn -0.0480 -0.9967 0.0655
vn 0.0557 -0.9958 0.0733
vn 0.0699 0.9969 -0.0368
vn -0.0204 0.9956 -0.0918
vn -0.0699 -0.9969 0.0368
vn 0.0204 -0.9956 0.0918
vn 0.0779 0.9970 -0.0007
vn 0.0189 0.9956 -0.0922
vn -0.0779 -0.9970 0.0007
vn -0.0189 -0.9956 0.0922
vn 0.0705 0.9969 0.0355
vn 0.0545 0.9957 -0.0743
vn -0.0705 -0.9969 -0.0355
vn -0.0545 -0.9957 0.0743
vn 0.0491 0.9967 0.0646
vn 0.0793 0.9960 -0.0417
vn -0.0491 -0.9967 -0.0646
vn -0.0793 -0.9960 0.0417
vn 0.0180 0.9966 0.0810
vn 0.0884 0.9961 -0.0008
vn -0.0180 -0.9966 -0.0810
vn -0.0884 -0.9961 0.0008
vn -0.0167 0.9966 0.0813
vn 0.0800 0.9960 0.0402
vn 0.0167 -0.9966 -0.0813
vn -0.0799 -0.9960 -0.0402
vn 0.8849 -0.0982 -0.4553
vn 0.8892 -0.0000 -0.4575
vn 1.0000 -0.0000 -0.0000
vn 0.8892 -0.0000 0.4575
vn 0.5982 -0.0000 0.8014
vn 0.2089 -0.0000 0.9779
vn -0.2089 -0.0000 0.9779
vn -0.5982 -0.0000 0.8014
vn -0.8892 -0.0000 0.4575
vn -1.0000 -0.0000 -0.0000
vn -0.8892 -0.0000 -0.4575
vn -0.5982 -0.0000 -0.8014
vn -0.2077 0.1061 -0.9724
vn -0.2080 -0.0935 -0.9737
vn 0.5982 -0.0000 -0.8014
vn 0.5954 -0.0955 -0.7977
vn -0.5947 0.1084 -0.7966
vn -0.2089 -0.0000 -0.9779
vn -0.8837 0.1114 -0.4547
vn -0.5954 -0.0955 -0.7977
vn -0.9936 0.1129 -0.0000
vn -0.8849 -0.0982 -0.4553
vn -0.8837 0.1114 0.4547
vn -0.9950 -0.0995 -0.0000
vn -0.5947 0.1084 0.7966
vn -0.8849 -0.0982 0.4553
vn -0.2077 0.1061 0.9724
vn -0.5954 -0.0955 0.7977
vn 0.2077 0.1061 0.9724
vn -0.2080 -0.0935 0.9737
vn 0.5946 0.1084 0.7966
vn 0.2080 -0.0935 0.9737
vn 0.8837 0.1114 0.4546
vn 0.5954 -0.0955 0.7977
vn 0.9936 0.1129 -0.0000
vn 0.8849 -0.0982 0.4553
vn 0.8837 0.1114 -0.4546
vn 0.9950 -0.0995 -0.0000
vn 0.5946 0.1084 -0.7966
vn 0.2077 0.1061 -0.9724
vn 0.2089 -0.0000 -0.9779
vn -0.0000 -1.0000 -0.0000
vn 0.2080 -0.0935 -0.9737
vn -0.8892 0.0011 0.4575
vn 0.2077 -0.1061 0.9724
vn 0.2089 0.0010 0.9779
vn -0.5982 0.0011 0.8014
vn 0.5947 -0.1084 0.7966
vn 0.8837 -0.1114 0.4546
vn 0.5982 0.0011 0.8014
vn 0.9936 -0.1129 -0.0000
vn 0.8892 0.0011 0.4575
vn 0.8837 -0.1114 -0.4546
vn 1.0000 0.0011 -0.0000
vn 0.5947 -0.1084 -0.7966
vn 0.8892 0.0011 -0.4575
vn 0.2077 -0.1061 -0.9724
vn 0.5982 0.0011 -0.8014
vn -0.2077 -0.1061 -0.9724
vn 0.2089 0.0010 -0.9779
vn -0.5946 -0.1084 -0.7966
vn -0.2089 0.0010 -0.9779
vn -0.8837 -0.1114 -0.4546
vn -0.5982 0.0011 -0.8014
vn -0.9936 -0.1129 -0.0000
vn -0.8892 0.0011 -0.4575
vn -0.8837 -0.1114 0.4546
vn -1.0000 0.0011 -0.0000
vn -0.5946 -0.1084 0.7966
vn -0.2077 -0.1061 0.9724
vn -0.0000 1.0000 -0.0000
vn -0.2089 0.0010 0.9779
vn 0.4071 0.0241 -0.9131
vn 0.0371 0.9841 -0.1737
vn -0.0000 -0.0000 -1.0000
vn -0.0040 0.0238 0.9997
vn -0.0919 0.9881 0.1231
vn -0.3930 -0.0226 0.9193
vn 0.4109 -0.0000 -0.9117
vn -0.1041 -0.9848 0.1394
vn -0.9003 0.3759 -0.2195
vn -0.0000 -0.0000 1.0000
vn 0.1041 0.9848 -0.1394
vn 0.0191 -0.0223 -0.9996
vn 0.3930 -0.0226 -0.9193
vn -0.1329 0.9888 0.0684
vn -0.7581 0.0248 0.6517
vn 0.9002 0.3759 0.2196
vn -0.1505 -0.9856 0.0774
vn 0.4146 0.0241 -0.9097
vn -0.0191 -0.0223 0.9996
vn 0.1505 0.9856 -0.0774
vn -0.7612 -0.0000 0.6485
vn 0.7581 0.0248 -0.6516
vn -0.1475 0.9891 -0.0000
vn -0.4146 0.0241 0.9097
vn -0.1671 -0.9859 -0.0000
vn -0.7475 -0.0232 0.6639
vn 0.7612 -0.0000 -0.6485
vn 0.1671 0.9859 -0.0000
vn -0.7076 0.3685 -0.6029
vn -0.4109 -0.0000 0.9117
vn -0.1329 0.9888 -0.0684
vn 0.4286 -0.0226 -0.9032
vn 0.7475 -0.0232 -0.6639
vn -0.1505 -0.9856 -0.0774
vn 0.7077 0.3685 0.6028
vn 0.1505 0.9856 0.0774
vn 0.0328 0.9876 -0.1534
vn -0.4286 -0.0226 0.9032
vn -0.0919 0.9881 -0.1231
vn 0.9701 0.0253 -0.2413
vn -0.1041 -0.9848 -0.1394
vn -0.7638 0.0248 0.6450
vn 0.1041 0.9848 0.1394
vn 0.9715 -0.0000 -0.2369
vn -0.0000 0.3561 -0.9345
vn 0.9762 -0.0238 -0.2158
vn 0.9659 -0.0237 -0.2578
vn -0.9762 -0.0238 -0.2158
vn 0.3835 0.3598 0.8506
vn -0.7742 -0.0232 -0.6325
vn -0.7742 -0.0232 0.6325
vn 0.3835 0.3598 -0.8506
vn 0.9723 0.0253 0.2324
vn 0.9659 -0.0237 0.2578
vn -0.9723 0.0253 0.2324
vn -0.3835 0.3598 -0.8506
vn 0.9715 -0.0000 0.2369
vn 0.7742 -0.0232 -0.6325
vn -0.9715 -0.0000 0.2369
vn -0.9659 -0.0237 0.2578
vn 0.9762 -0.0238 0.2158
vn -0.0000 0.3561 0.9345
vn -0.9715 -0.0000 -0.2369
vn -0.0328 0.9876 -0.1534
vn -0.9762 -0.0238 0.2158
vn -0.7612 -0.0000 -0.6485
vn 0.0371 -0.9841 -0.1737
vn 0.7638 0.0248 0.6450
vn -0.0371 0.9841 0.1737
vn -0.9701 0.0253 -0.2413
vn -0.0371 -0.9841 -0.1737
vn 0.7612 -0.0000 0.6485
vn 0.0371 0.9841 0.1737
vn 0.7638 0.0248 -0.6450
vn 0.0919 0.9881 -0.1231
vn 0.7742 -0.0232 0.6325
vn -0.9701 0.0253 0.2413
vn 0.1041 -0.9848 -0.1394
vn -0.3835 0.3598 0.8506
vn -0.9723 0.0253 -0.2324
vn -0.1041 0.9848 0.1394
vn -0.9659 -0.0237 -0.2578
vn 0.9723 0.0253 -0.2324
vn 0.1329 0.9888 -0.0684
vn 0.4146 0.0241 0.9097
vn -0.7638 0.0248 -0.6450
vn 0.1505 -0.9856 -0.0774
vn -0.7581 0.0248 -0.6516
vn 0.9701 0.0253 0.2413
vn -0.1505 0.9856 0.0774
vn 0.4109 -0.0000 0.9117
vn -0.4146 0.0241 -0.9097
vn 0.1475 0.9891 -0.0000
vn 0.7581 0.0248 0.6517
vn 0.1671 -0.9859 -0.0000
vn 0.4286 -0.0226 0.9032
vn -0.4109 -0.0000 -0.9117
vn -0.1671 0.9859 -0.0000
vn -0.7076 0.3685 0.6029
vn 0.1329 0.9888 0.0684
vn -0.7475 -0.0232 -0.6639
vn -0.4286 -0.0226 -0.9032
vn 0.1505 -0.9856 0.0774
vn 0.0040 0.0238 0.9997
vn 0.7077 0.3685 -0.6028
vn -0.1505 0.9856 -0.0774
vn -0.4070 0.0241 -0.9131
vn 0.7475 -0.0232 0.6639
vn 0.0919 0.9881 0.1231
vn -0.0040 0.0238 -0.9997
vn 0.1041 -0.9848 0.1394
vn 0.4070 0.0241 0.9131
vn -0.1041 0.9848 -0.1394
vn 0.0191 -0.0223 0.9996
vn 0.0328 0.9876 0.1534
vn -0.9002 0.3759 0.2196
vn 0.0371 -0.9841 0.1737
vn -0.3930 -0.0226 -0.9193
vn -0.0191 -0.0223 -0.9996
vn -0.0371 0.9841 -0.1737
vn -0.4070 0.0241 0.9131
vn 0.9002 0.3759 -0.2198
vn -0.0328 0.9876 0.1534
vn 0.0040 0.0238 -0.9997
vn 0.3930 -0.0226 0.9193
vn -0.0371 -0.9841 0.1737
vn -0.0000 -1.0000 0.0001
vt 0.497593 0.575268
vt 0.532358 0.574278
vt 0.532643 0.626422
vt 0.497873 0.626722
vt 0.055729 0.580274
vt 0.090425 0.581395
vt 0.090705 0.632756
vt 0.056013 0.632417
vt 0.532643 0.682817
vt 0.497873 0.682368
vt 0.090705 0.688303
vt 0.056013 0.688813
vt 0.532358 0.732296
vt 0.497593 0.731186
vt 0.090425 0.737032
vt 0.055729 0.738291
vt 0.663188 0.287168
vt 0.697955 0.285736
vt 0.698771 0.330305
vt 0.663993 0.331150
vt 0.663188 0.492391
vt 0.697867 0.493996
vt 0.698670 0.537899
vt 0.664004 0.536960
vt 0.699063 0.387142
vt 0.664280 0.387234
vt 0.698957 0.593883
vt 0.664295 0.593797
vt 0.698772 0.444990
vt 0.663993 0.444312
vt 0.698670 0.650858
vt 0.664004 0.651645
vt 0.697956 0.492391
vt 0.663188 0.491079
vt 0.697866 0.697540
vt 0.663188 0.699046
vt 0.764467 0.152570
vt 0.729708 0.153805
vt 0.729573 0.108929
vt 0.764334 0.108286
vt 0.768687 0.646196
vt 0.733980 0.644706
vt 0.733847 0.600501
vt 0.768552 0.601320
vt 0.729573 0.054037
vt 0.764334 0.054121
vt 0.768552 0.546427
vt 0.733847 0.546434
vt 0.733980 0.493213
vt 0.768687 0.492391
vt 0.729708 -0.000000
vt 0.764467 0.000804
vt 0.627723 0.513686
vt 0.662487 0.512252
vt 0.662982 0.556460
vt 0.628211 0.557312
vt 0.533242 0.516634
vt 0.567937 0.518261
vt 0.568425 0.561809
vt 0.533737 0.560843
vt 0.663158 0.613171
vt 0.628385 0.613271
vt 0.568599 0.617667
vt 0.533913 0.617554
vt 0.533737 0.675534
vt 0.568425 0.674773
vt 0.662982 0.671151
vt 0.628211 0.670481
vt 0.567937 0.721817
vt 0.533242 0.723301
vt 0.662487 0.718919
vt 0.627723 0.717610
vt 0.733702 0.493711
vt 0.733847 0.542308
vt 0.699104 0.541580
vt 0.698957 0.492391
vt 0.733786 0.285736
vt 0.733933 0.334922
vt 0.699208 0.335659
vt 0.699062 0.287143
vt 0.733847 0.601748
vt 0.699104 0.601747
vt 0.733933 0.395087
vt 0.699208 0.394998
vt 0.733702 0.660258
vt 0.698957 0.660976
vt 0.733786 0.454313
vt 0.699062 0.453409
vt 0.659796 0.225091
vt 0.659260 0.177217
vt 0.693988 0.178070
vt 0.694530 0.226527
vt 0.628459 0.512252
vt 0.627917 0.463798
vt 0.662653 0.462830
vt 0.663188 0.510623
vt 0.659069 0.115808
vt 0.693794 0.115910
vt 0.627723 0.401640
vt 0.662462 0.401524
vt 0.659260 0.053026
vt 0.693988 0.052357
vt 0.627916 0.338091
vt 0.662653 0.338849
vt 0.659796 0.001308
vt 0.694530 -0.000000
vt 0.628459 0.285736
vt 0.663188 0.287219
vt 0.583251 0.689019
vt 0.582943 0.632554
vt 0.617675 0.632855
vt 0.617986 0.690010
vt 0.694842 0.173194
vt 0.694531 0.116043
vt 0.729266 0.115700
vt 0.729573 0.172070
vt 0.582943 0.571488
vt 0.617675 0.571040
vt 0.694530 0.054230
vt 0.694842 0.000000
vt 0.729573 0.001257
vt 0.729266 0.054738
vt 0.583251 0.517916
vt 0.617986 0.516807
vt 0.624350 0.225098
vt 0.623466 0.176833
vt 0.658175 0.177662
vt 0.659069 0.226514
vt 0.588418 0.226503
vt 0.587523 0.177653
vt 0.622269 0.176695
vt 0.623151 0.224879
vt 0.623151 0.115287
vt 0.657855 0.115363
vt 0.587204 0.115357
vt 0.621955 0.115252
vt 0.587523 0.051954
vt 0.622269 0.052721
vt 0.623467 0.052650
vt 0.658175 0.051956
vt 0.588417 -0.000000
vt 0.623151 0.001487
vt 0.624350 0.001328
vt 0.659069 -0.000000
vt 0.011756 0.179157
vt 0.035986 0.231936
vt 0.026558 0.240184
vt 0.000000 0.182333
vt 0.035631 0.351548
vt 0.011755 0.403457
vt -0.000000 0.400259
vt 0.026205 0.343289
vt 0.346966 0.313158
vt 0.303864 0.350921
vt 0.294432 0.343219
vt 0.341731 0.301779
vt 0.530409 0.163769
vt 0.530409 0.105759
vt 0.542424 0.102195
vt 0.542424 0.165777
vt 0.079647 0.267716
vt 0.074415 0.279402
vt 0.011755 0.461860
vt -0.000000 0.464357
vt 0.460981 0.256701
vt 0.505630 0.217640
vt 0.515266 0.224822
vt 0.466328 0.267635
vt 0.400712 0.298539
vt 0.400712 0.285736
vt 0.035632 0.515190
vt 0.026205 0.522888
vt 0.134091 0.279410
vt 0.134091 0.292220
vt 0.188536 0.264703
vt 0.193768 0.276099
vt 0.078655 0.552884
vt 0.073424 0.564258
vt 0.454459 0.309959
vt 0.459693 0.298267
vt 0.497561 0.345156
vt 0.506992 0.336892
vt 0.405304 0.273217
vt 0.405304 0.285736
vt 0.232197 0.226506
vt 0.241624 0.234232
vt 0.132305 0.567477
vt 0.132305 0.580273
vt 0.521480 0.397158
vt 0.533242 0.393959
vt 0.349627 0.263915
vt 0.344279 0.275540
vt 0.256427 0.172387
vt 0.268183 0.174911
vt 0.185955 0.556078
vt 0.191187 0.567763
vt 0.521480 0.455667
vt 0.533242 0.458165
vt 0.304977 0.230638
vt 0.295341 0.239067
vt 0.256427 0.113062
vt 0.268183 0.109886
vt 0.228979 0.520945
vt 0.238406 0.529204
vt 0.497560 0.509093
vt 0.506993 0.516795
vt 0.280198 0.179977
vt 0.268183 0.183541
vt 0.232197 0.060284
vt 0.241624 0.052036
vt 0.252855 0.469036
vt 0.264610 0.472234
vt 0.454459 0.546855
vt 0.459693 0.558235
vt 0.280198 0.121966
vt 0.268183 0.119959
vt 0.188536 0.024504
vt 0.193768 0.012818
vt 0.252855 0.410633
vt 0.264610 0.408136
vt 0.400712 0.561474
vt 0.400712 0.574278
vt 0.304977 0.068095
vt 0.295341 0.060914
vt 0.134092 0.012810
vt 0.134091 0.000000
vt 0.228979 0.357303
vt 0.238406 0.349606
vt 0.346965 0.550055
vt 0.341731 0.561746
vt 0.349626 0.029034
vt 0.344279 0.018101
vt 0.079647 0.027517
vt 0.074415 0.016121
vt 0.185955 0.319609
vt 0.191187 0.308235
vt 0.303864 0.514858
vt 0.294432 0.523122
vt 0.405303 0.012519
vt 0.405303 -0.000000
vt 0.035986 0.065714
vt 0.026558 0.057988
vt 0.132305 0.305016
vt 0.132305 0.292220
vt 0.279944 0.462856
vt 0.268183 0.466055
vt 0.460980 0.021821
vt 0.466328 0.010195
vt 0.011756 0.119833
vt 0.000000 0.117308
vt 0.078655 0.316415
vt 0.073424 0.304730
vt 0.279944 0.404347
vt 0.268183 0.401848
vt 0.505630 0.055098
vt 0.515266 0.046668
vt 0.391745 0.849131
vt 0.393191 0.776234
vt 0.435109 0.774265
vt 0.431188 0.847278
vt 0.154012 0.781048
vt 0.154012 0.681191
vt 0.196557 0.680408
vt 0.196557 0.780265
vt 0.570170 0.789888
vt 0.570170 0.690010
vt 0.617986 0.690279
vt 0.617986 0.790157
vt 0.330160 0.774199
vt 0.330160 0.674321
vt 0.384427 0.674316
vt 0.384427 0.774194
vt 0.733933 0.486048
vt 0.733933 0.386169
vt 0.783903 0.385892
vt 0.783903 0.485770
vt 0.764467 0.099874
vt 0.764467 0.000000
vt 0.810697 0.000471
vt 0.810697 0.100345
vt 0.330160 0.674152
vt 0.330160 0.574278
vt 0.386012 0.574442
vt 0.386012 0.674316
vt 0.694531 0.273245
vt 0.694531 0.173370
vt 0.748942 0.173194
vt 0.748942 0.273069
vt 0.796758 0.273550
vt 0.796758 0.173675
vt 0.838951 0.173194
vt 0.838951 0.273069
vt 0.199781 0.780207
vt 0.199781 0.680324
vt 0.251873 0.680388
vt 0.251873 0.780271
vt 0.441864 0.774368
vt 0.441864 0.674485
vt 0.494571 0.674418
vt 0.494571 0.774301
vt 0.783903 0.485958
vt 0.783903 0.386075
vt 0.826786 0.385892
vt 0.826786 0.485775
vt 0.892368 0.236836
vt 0.894954 0.174377
vt 0.937519 0.173194
vt 0.937519 0.235582
vt 0.813365 0.073036
vt 0.810698 0.000000
vt 0.855879 0.002573
vt 0.855879 0.075457
vt 0.145243 0.680408
vt 0.145243 0.580551
vt 0.199781 0.580273
vt 0.199781 0.680131
vt 0.698957 0.834202
vt 0.698957 0.761391
vt 0.752739 0.760859
vt 0.749564 0.833701
vt 0.905894 0.823615
vt 0.905894 0.761322
vt 0.945655 0.762938
vt 0.948070 0.825329
vt 0.627723 0.818776
vt 0.627723 0.718919
vt 0.673605 0.719706
vt 0.673605 0.819564
vt 0.000000 0.905626
vt 0.000253 0.843392
vt 0.049163 0.843392
vt 0.051881 0.905626
vt 0.860541 0.910616
vt 0.860541 0.837600
vt 0.902790 0.835747
vt 0.900296 0.908872
vt 0.330160 0.909424
vt 0.333096 0.847185
vt 0.381435 0.847108
vt 0.381435 0.909342
vt 0.441953 0.847323
vt 0.441864 0.774368
vt 0.493842 0.774368
vt 0.490863 0.847323
vt 0.910962 0.554766
vt 0.910962 0.492391
vt 0.950080 0.494128
vt 0.952456 0.556609
vt 0.202813 0.853237
vt 0.199781 0.780271
vt 0.251152 0.780461
vt 0.251152 0.853416
vt 0.826786 0.410386
vt 0.826786 0.348096
vt 0.877277 0.348265
vt 0.880344 0.410565
vt 0.869425 0.567898
vt 0.869425 0.494912
vt 0.910962 0.492391
vt 0.908509 0.565525
vt 0.768687 0.655323
vt 0.771243 0.593036
vt 0.823071 0.593036
vt 0.823663 0.655323
vt 0.753224 0.834696
vt 0.753224 0.761807
vt 0.806881 0.761322
vt 0.803713 0.834239
vt 0.880470 0.349611
vt 0.883074 0.287184
vt 0.925952 0.285736
vt 0.925952 0.348075
vt 0.271225 0.832644
vt 0.268183 0.759756
vt 0.323263 0.759756
vt 0.323053 0.832644
vt 0.199780 0.915700
vt 0.199780 0.853416
vt 0.246146 0.854069
vt 0.248963 0.916392
vt 0.147931 0.854131
vt 0.145243 0.781048
vt 0.190782 0.783280
vt 0.190782 0.856231
vt 0.826786 0.472837
vt 0.828628 0.410565
vt 0.878985 0.410565
vt 0.880202 0.472837
vt 0.090705 0.854403
vt 0.090705 0.781483
vt 0.139972 0.780355
vt 0.137063 0.853342
vt 0.145243 0.919652
vt 0.147938 0.857289
vt 0.192296 0.856231
vt 0.192296 0.918530
vt 0.332050 0.847108
vt 0.330160 0.774199
vt 0.383676 0.774199
vt 0.382407 0.847108
vt 0.762008 0.897114
vt 0.762041 0.834696
vt 0.801500 0.836150
vt 0.803865 0.898656
vt 0.809664 0.834344
vt 0.806881 0.761322
vt 0.854013 0.762813
vt 0.854013 0.835747
vt 0.826786 0.348077
vt 0.826786 0.285736
vt 0.877395 0.285754
vt 0.880470 0.348096
vt 0.000000 0.843392
vt 0.002486 0.781054
vt 0.054200 0.781054
vt 0.054856 0.843392
vt 0.000000 0.680131
vt 0.000000 0.580273
vt 0.055729 0.580557
vt 0.055729 0.680414
vt 0.267707 0.454923
vt 0.267707 0.351775
vt 0.267865 0.352125
vt 0.267865 0.454573
vt 0.767712 0.173157
vt 0.764467 0.100345
vt 0.819426 0.100361
vt 0.819426 0.173171
vt 0.738698 0.954911
vt 0.699542 0.954911
vt 0.698957 0.894553
vt 0.740570 0.894553
vt 0.539786 0.832170
vt 0.497592 0.832651
vt 0.497592 0.732777
vt 0.539786 0.732296
vt 0.142797 0.780355
vt 0.090705 0.780291
vt 0.090705 0.680408
vt 0.142797 0.680472
vt 0.437134 0.774199
vt 0.384427 0.774265
vt 0.384427 0.674382
vt 0.437134 0.674316
vt 0.826786 0.385619
vt 0.783903 0.385802
vt 0.783903 0.285919
vt 0.826786 0.285736
vt 0.814569 0.593036
vt 0.768687 0.592248
vt 0.768687 0.492391
vt 0.814569 0.493178
vt 0.497593 0.674419
vt 0.441864 0.674135
vt 0.441864 0.574278
vt 0.497593 0.574561
vt 0.145243 0.680131
vt 0.090705 0.680408
vt 0.090705 0.580551
vt 0.145243 0.580273
vt 0.051314 0.780271
vt 0.008769 0.781054
vt 0.008769 0.681197
vt 0.051314 0.680414
vt 0.796758 0.273342
vt 0.748942 0.273072
vt 0.748942 0.173194
vt 0.796758 0.173464
vt 0.753224 0.760854
vt 0.698957 0.760859
vt 0.698957 0.660981
vt 0.753224 0.660976
vt 0.783903 0.385614
vt 0.733933 0.385892
vt 0.733933 0.286014
vt 0.783903 0.285736
vt 0.922661 0.657668
vt 0.877219 0.655200
vt 0.877219 0.593036
vt 0.920058 0.595362
vt 0.672547 0.940283
vt 0.629645 0.940283
vt 0.627723 0.879925
vt 0.673316 0.879925
vt 0.254192 0.680148
vt 0.199780 0.680324
vt 0.199780 0.580450
vt 0.254192 0.580273
vt 0.858780 0.896108
vt 0.808288 0.896108
vt 0.806881 0.835747
vt 0.860541 0.835747
vt 0.433598 0.911339
vt 0.384427 0.912581
vt 0.387243 0.850381
vt 0.433598 0.849211
vt 0.799455 0.761322
vt 0.753224 0.760851
vt 0.753224 0.660976
vt 0.799455 0.661447
vt 0.892367 0.235310
vt 0.838951 0.235310
vt 0.840180 0.173194
vt 0.890537 0.173194
vt 0.920621 0.160708
vt 0.874250 0.160708
vt 0.873106 0.100345
vt 0.922386 0.100345
vt 0.137743 0.918201
vt 0.090705 0.916546
vt 0.090705 0.854403
vt 0.135049 0.855964
vt 0.902082 0.721340
vt 0.851725 0.721340
vt 0.850153 0.660976
vt 0.903670 0.660976
vt 0.548174 0.894782
vt 0.506401 0.897852
vt 0.508794 0.835545
vt 0.548174 0.832651
vt 0.926418 0.410565
vt 0.882046 0.410565
vt 0.880344 0.350203
vt 0.927500 0.350203
vt 0.873106 0.162368
vt 0.819426 0.162934
vt 0.822501 0.100879
vt 0.873106 0.100345
vt 0.844020 0.723716
vt 0.804613 0.721207
vt 0.808274 0.660976
vt 0.850153 0.663642
vt 0.869425 0.554413
vt 0.814569 0.554413
vt 0.814592 0.492391
vt 0.866307 0.492391
vt 0.750865 0.894553
vt 0.700256 0.894553
vt 0.752741 0.834202
vt 0.925284 0.475479
vt 0.880203 0.472666
vt 0.880203 0.410565
vt 0.922702 0.413217
vt 0.321815 0.892995
vt 0.270101 0.892995
vt 0.268183 0.832644
vt 0.323142 0.832644
vt 0.945830 0.723203
vt 0.903670 0.725280
vt 0.906085 0.662935
vt 0.945830 0.660976
vt 0.947705 0.896090
vt 0.905123 0.896090
vt 0.902790 0.835747
vt 0.948044 0.835747
vt 0.905894 0.823482
vt 0.854013 0.823482
vt 0.856888 0.761322
vt 0.905797 0.761322
vt 0.309004 0.953360
vt 0.269211 0.953360
vt 0.268183 0.892995
vt 0.310473 0.892995
vt 0.907153 0.062367
vt 0.855878 0.062160
vt 0.855878 -0.000000
vt 0.904217 0.000195
vt 0.492244 0.907689
vt 0.443335 0.907689
vt 0.441864 0.847323
vt 0.493842 0.847323
vt 0.948594 0.062202
vt 0.907153 0.064997
vt 0.909527 0.002635
vt 0.948594 -0.000000
vt 0.620084 0.912619
vt 0.571745 0.912619
vt 0.570170 0.852253
vt 0.621542 0.852253
vt 0.877219 0.655132
vt 0.823663 0.655659
vt 0.826731 0.593532
vt 0.877219 0.593036
vt 0.625147 0.852253
vt 0.570170 0.852253
vt 0.570398 0.790157
vt 0.622226 0.790157
vt 0.441864 0.674316
vt 0.386012 0.674152
vt 0.386012 0.574278
vt 0.441864 0.574442
vt 0.948701 0.298231
vt 0.948701 0.297842
vt 0.937641 0.349611
vt 0.937641 0.246462
vt 0.681343 0.879925
vt 0.629515 0.879925
vt 0.627723 0.819563
vt 0.682803 0.819563
vt 0.524232 0.960468
vt 0.510911 0.961225
vt 0.510911 0.898609
vt 0.524232 0.897852
vt 0.985078 0.147622
vt 0.997572 0.147263
vt 0.997572 0.200199
vt 0.985078 0.200558
vt 0.055729 0.838203
vt 0.067963 0.838332
vt 0.067963 0.938190
vt 0.055729 0.938061
vt 0.791093 0.898656
vt 0.803453 0.899595
vt 0.803453 0.962168
vt 0.791093 0.961228
vt 0.238442 0.917218
vt 0.251236 0.916392
vt 0.251236 0.971448
vt 0.238442 0.972274
vt 0.961381 0.835316
vt 0.953923 0.821376
vt 0.948070 0.761322
vt 0.961381 0.761986
vt 0.267469 0.780007
vt 0.254192 0.780007
vt 0.254192 0.680149
vt 0.267469 0.680150
vt 0.197494 0.975428
vt 0.184727 0.974605
vt 0.184727 0.919652
vt 0.197494 0.920476
vt 0.265605 0.306867
vt 0.267024 0.292220
vt 0.266659 0.292220
vt 0.267791 0.306867
vt 0.254192 0.780007
vt 0.266483 0.780084
vt 0.266483 0.879958
vt 0.254192 0.879882
vt 0.983278 0.558582
vt 0.996045 0.557758
vt 0.996045 0.609563
vt 0.983278 0.610387
vt 0.915121 0.896735
vt 0.927390 0.896090
vt 0.922098 0.956180
vt 0.915121 0.970109
vt 0.962340 0.221232
vt 0.954884 0.207291
vt 0.949029 0.147263
vt 0.962340 0.147931
vt 0.129087 0.918882
vt 0.142248 0.918201
vt 0.142248 0.971720
vt 0.129087 0.972401
vt 0.477061 0.970239
vt 0.465353 0.971289
vt 0.465353 0.908738
vt 0.477062 0.907689
vt 0.265605 0.366702
vt 0.265956 0.351774
vt 0.265605 0.351831
vt 0.267707 0.366365
vt 0.983625 0.889845
vt 0.970492 0.889165
vt 0.970492 0.835747
vt 0.983625 0.836427
vt 0.568599 0.616510
vt 0.581918 0.617300
vt 0.581918 0.679899
vt 0.568599 0.679109
vt 0.902791 0.896779
vt 0.915121 0.896090
vt 0.909799 0.956200
vt 0.902791 0.970152
vt 0.983625 0.836427
vt 0.996758 0.835747
vt 0.996758 0.886106
vt 0.983625 0.886785
vt 0.946584 0.657632
vt 0.934952 0.657712
vt 0.934952 0.557837
vt 0.946584 0.557758
vt 0.453634 0.970217
vt 0.441864 0.971305
vt 0.441864 0.908776
vt 0.453634 0.907689
vt 0.945033 0.935718
vt 0.958369 0.935718
vt 0.958369 0.988538
vt 0.945033 0.988538
vt 0.685680 0.699046
vt 0.698957 0.699047
vt 0.698957 0.798904
vt 0.685680 0.798903
vt 0.497593 0.897852
vt 0.510911 0.898644
vt 0.510911 0.961238
vt 0.497593 0.960446
vt 0.641030 0.993004
vt 0.627723 0.993004
vt 0.627723 0.940283
vt 0.641030 0.940283
vt 0.818558 0.970245
vt 0.811884 0.956247
vt 0.806881 0.896108
vt 0.818558 0.896889
vt 0.937641 0.349483
vt 0.925952 0.349611
vt 0.925952 0.249753
vt 0.937641 0.249626
vt 0.852258 0.235310
vt 0.865565 0.235310
vt 0.865565 0.285012
vt 0.852258 0.285012
vt 0.265605 0.396549
vt 0.267556 0.381989
vt 0.267230 0.381920
vt 0.267556 0.396961
vt 0.568599 0.516636
vt 0.581875 0.516634
vt 0.581875 0.616509
vt 0.568599 0.616510
vt 0.158405 0.919653
vt 0.171566 0.920334
vt 0.171566 0.973852
vt 0.158405 0.973171
vt 0.949029 0.073976
vt 0.962339 0.073281
vt 0.956455 0.133307
vt 0.949029 0.147263
vt 0.939119 0.970173
vt 0.932418 0.956204
vt 0.927390 0.896090
vt 0.939119 0.896815
vt 0.983735 0.299880
vt 0.970602 0.300560
vt 0.970602 0.247142
vt 0.983735 0.246462
vt 0.265605 0.321549
vt 0.265968 0.306868
vt 0.267779 0.321557
vt 0.983734 0.246462
vt 0.996868 0.247142
vt 0.996868 0.297501
vt 0.983735 0.296821
vt 0.985071 0.816675
vt 0.972551 0.817034
vt 0.972551 0.760776
vt 0.985071 0.760417
vt 0.254192 0.880659
vt 0.267501 0.879958
vt 0.261615 0.940009
vt 0.254192 0.953970
vt 0.116293 0.918201
vt 0.129087 0.919027
vt 0.129087 0.974083
vt 0.116293 0.973257
vt 1.000000 0.544884
vt 0.990373 0.546428
vt 0.990373 0.484041
vt 1.000000 0.482497
vt 0.977880 0.537450
vt 0.965113 0.538273
vt 0.965113 0.483321
vt 0.977880 0.482497
vt 0.477062 0.907689
vt 0.488727 0.908872
vt 0.488727 0.971353
vt 0.477062 0.970170
vt 0.641030 0.940283
vt 0.653796 0.941107
vt 0.653796 0.992912
vt 0.641030 0.992088
vt 0.627584 0.616777
vt 0.617986 0.616685
vt 0.617986 0.516807
vt 0.627584 0.516899
vt 0.436818 0.969627
vt 0.424204 0.969990
vt 0.424204 0.912943
vt 0.436818 0.912581
vt 0.265605 0.351775
vt 0.265951 0.336642
vt 0.265605 0.336713
vt 0.267681 0.351348
vt 0.927500 0.350282
vt 0.939132 0.350203
vt 0.939132 0.450077
vt 0.927500 0.450156
vt 0.570170 0.912619
vt 0.582784 0.912981
vt 0.582784 0.970028
vt 0.570170 0.969666
vt 0.080830 0.740017
vt 0.090390 0.738291
vt 0.090390 0.798650
vt 0.085767 0.813143
vt 0.084949 0.888226
vt 0.080830 0.873499
vt 0.080830 0.813143
vt 0.090321 0.815379
vt 0.582784 0.912619
vt 0.595397 0.912981
vt 0.595397 0.970028
vt 0.582784 0.969666
vt 0.962848 0.424320
vt 0.955780 0.410300
vt 0.950191 0.350203
vt 0.962848 0.351018
vt 0.083160 0.888212
vt 0.081129 0.873501
vt 0.608011 0.969666
vt 0.595397 0.970028
vt 0.595397 0.912981
vt 0.608011 0.912619
vt 0.835477 0.971011
vt 0.830079 0.956470
vt 0.830079 0.896108
vt 0.841525 0.897935
vt 0.818559 0.898317
vt 0.830079 0.896108
vt 0.830079 0.956453
vt 0.824974 0.971168
vt 0.600093 0.226503
vt 0.612982 0.227335
vt 0.612982 0.283162
vt 0.600093 0.282330
vt 0.265320 0.492441
vt 0.266383 0.477698
vt 0.265999 0.477698
vt 0.267621 0.492441
vt 0.012333 0.968148
vt 0.000000 0.969181
vt 0.000000 0.906659
vt 0.012333 0.905626
vt 0.636040 0.282342
vt 0.623151 0.283173
vt 0.623151 0.227346
vt 0.636040 0.226514
vt 0.957812 0.558525
vt 0.970145 0.557758
vt 0.964784 0.617866
vt 0.957812 0.631858
vt 0.937519 0.173194
vt 0.948820 0.174292
vt 0.948820 0.236830
vt 0.937519 0.235732
vt 0.860541 0.910616
vt 0.873800 0.911302
vt 0.873800 0.965571
vt 0.860541 0.964885
vt 0.965468 0.321517
vt 0.970602 0.306783
vt 0.970348 0.306780
vt 0.966987 0.321539
vt 0.568272 0.923095
vt 0.555980 0.923063
vt 0.555980 0.823185
vt 0.568272 0.823217
vt 0.887059 0.964885
vt 0.873800 0.911302
vt 0.887059 0.910616
vt 0.959025 0.248717
vt 0.970602 0.246462
vt 0.946584 0.557758
vt 0.957812 0.557788
vt 0.957812 0.657671
vt 0.946584 0.657641
vt 0.542424 0.231071
vt 0.555859 0.231071
vt 0.555859 0.284632
vt 0.542424 0.284632
vt 0.542495 0.972898
vt 0.537554 0.958214
vt 0.537554 0.897852
vt 0.548676 0.899992
vt 0.678813 0.954934
vt 0.673317 0.940270
vt 0.673317 0.879925
vt 0.685505 0.882018
vt 0.569293 0.284632
vt 0.555859 0.284632
vt 0.555859 0.231071
vt 0.569293 0.231071
vt 0.617986 0.616777
vt 0.627584 0.616868
vt 0.627584 0.716746
vt 0.617986 0.716655
vt 0.265605 0.336642
vt 0.265953 0.321557
vt 0.265605 0.321630
vt 0.267690 0.336210
vt 0.887059 0.911303
vt 0.900318 0.910616
vt 0.900318 0.964885
vt 0.887059 0.965571
vt 0.568599 0.823184
vt 0.555980 0.823185
vt 0.555980 0.723302
vt 0.568599 0.723301
vt 0.970982 0.910791
vt 0.983503 0.911150
vt 0.983503 0.967409
vt 0.970982 0.967049
vt 0.961381 0.762234
vt 0.972550 0.760417
vt 0.972550 0.820780
vt 0.967263 0.835316
vt 0.397686 0.967535
vt 0.384427 0.966850
vt 0.384427 0.912581
vt 0.397686 0.913267
vt 0.937519 0.173164
vt 0.926010 0.173194
vt 0.926010 0.073311
vt 0.937519 0.073281
vt 0.975847 0.424320
vt 0.988341 0.424679
vt 0.988341 0.480832
vt 0.975847 0.480473
vt 0.778500 0.961228
vt 0.765892 0.962137
vt 0.765892 0.899565
vt 0.778500 0.898656
vt 0.587204 0.227335
vt 0.600093 0.226503
vt 0.600093 0.282330
vt 0.587204 0.283162
vt 0.922661 0.557758
vt 0.934952 0.557790
vt 0.934952 0.657668
vt 0.922661 0.657636
vt 0.997828 0.052936
vt 0.985334 0.053295
vt 0.985334 0.000359
vt 0.997828 -0.000000
vt 0.753224 0.898656
vt 0.765892 0.899565
vt 0.765892 0.962127
vt 0.753224 0.961219
vt 0.648929 0.283174
vt 0.636040 0.282342
vt 0.636040 0.226514
vt 0.648929 0.227346
vt 0.673991 0.699174
vt 0.685680 0.699046
vt 0.685680 0.798903
vt 0.673991 0.799031
vt 0.985334 0.056152
vt 0.972840 0.056511
vt 0.972840 0.000359
vt 0.985334 0.000000
vt 0.068279 0.838169
vt 0.055729 0.838203
vt 0.055729 0.738325
vt 0.068279 0.738291
vt 0.608011 0.912981
vt 0.620624 0.912619
vt 0.620624 0.969666
vt 0.608011 0.970028
vt 0.957058 0.760889
vt 0.945830 0.760859
vt 0.945830 0.660976
vt 0.957058 0.661006
vt 0.985071 0.760417
vt 0.997564 0.760776
vt 0.997565 0.813712
vt 0.985071 0.813353
vt 0.543362 0.723302
vt 0.555980 0.723301
vt 0.555980 0.823184
vt 0.543362 0.823185
vt 0.970982 0.968200
vt 0.958369 0.967838
vt 0.958369 0.910791
vt 0.970982 0.911153
vt 0.453634 0.907689
vt 0.465353 0.908811
vt 0.465353 0.971324
vt 0.453634 0.970202
vt 0.103499 0.974083
vt 0.103499 0.919027
vt 0.116293 0.918201
vt 0.753159 0.968627
vt 0.746070 0.954648
vt 0.753159 0.895292
vt 0.212394 0.973801
vt 0.199781 0.973439
vt 0.199781 0.916392
vt 0.212394 0.916754
vt 0.974116 0.412640
vt 0.962848 0.413930
vt 0.962848 0.351492
vt 0.974116 0.350203
vt 0.555980 0.923095
vt 0.568747 0.923918
vt 0.568747 0.978871
vt 0.555980 0.978047
vt 0.265320 0.507136
vt 0.266327 0.492441
vt 0.265943 0.492441
vt 0.267620 0.507136
vt 0.212394 0.916755
vt 0.225007 0.916392
vt 0.225007 0.973439
vt 0.212394 0.973801
vt 0.961261 0.062554
vt 0.948594 0.063478
vt 0.948594 0.000924
vt 0.961261 0.000000
vt 0.995139 0.712781
vt 0.982372 0.713605
vt 0.982372 0.661800
vt 0.995139 0.660976
vt 0.952456 0.483299
vt 0.965113 0.482497
vt 0.959538 0.542597
vt 0.952456 0.556609
vt 0.671958 0.283186
vt 0.659069 0.282355
vt 0.659069 0.226527
vt 0.671958 0.227359
vt 0.617986 0.716746
vt 0.627676 0.718159
vt 0.627676 0.780613
vt 0.617986 0.779200
vt 0.184727 0.973171
vt 0.171566 0.973852
vt 0.171566 0.920334
vt 0.184727 0.919652
vt 0.997021 0.412683
vt 0.986610 0.413982
vt 0.986610 0.351502
vt 0.997022 0.350203
vt 0.671958 0.227359
vt 0.684847 0.226527
vt 0.684847 0.282355
vt 0.671958 0.283186
vt 0.972840 0.062546
vt 0.961261 0.063601
vt 0.961261 0.001055
vt 0.972840 0.000000
vt 0.969239 0.660976
vt 0.982372 0.661656
vt 0.982372 0.715074
vt 0.969239 0.714394
vt 0.330159 0.909423
vt 0.341710 0.910649
vt 0.341710 0.973106
vt 0.330159 0.971880
vt 0.410945 0.967536
vt 0.397686 0.966850
vt 0.397686 0.912581
vt 0.410945 0.913267
vt 0.685680 0.898855
vt 0.698033 0.899790
vt 0.698033 0.962363
vt 0.685680 0.961428
vt 0.996636 0.961149
vt 0.983503 0.961829
vt 0.983503 0.911470
vt 0.996636 0.910791
vt 0.958369 0.935625
vt 0.948044 0.935718
vt 0.948044 0.835840
vt 0.958369 0.835747
vt 0.354599 0.910110
vt 0.367858 0.909423
vt 0.367858 0.963692
vt 0.354599 0.964378
vt 0.753224 0.898656
vt 0.753256 0.836238
vt 0.069064 0.991010
vt 0.055729 0.991010
vt 0.055729 0.938190
vt 0.069064 0.938190
vt 0.937519 0.073311
vt 0.949029 0.073281
vt 0.949029 0.173164
vt 0.937519 0.173194
vt 0.582728 0.284632
vt 0.569293 0.284632
vt 0.569293 0.231071
vt 0.582728 0.231071
vt 0.778500 0.898656
vt 0.791093 0.899608
vt 0.791093 0.962158
vt 0.778500 0.961206
vt 0.069064 0.938190
vt 0.082371 0.938190
vt 0.082371 0.990910
vt 0.069064 0.990910
vt 0.967266 0.147263
vt 0.962339 0.132767
vt 0.962339 0.072410
vt 0.972617 0.074140
vt 0.225007 0.916392
vt 0.238442 0.916392
vt 0.238442 0.969953
vt 0.225007 0.969953
vt 0.145243 0.780816
vt 0.145243 0.680959
vt 0.852258 0.285012
vt 0.838951 0.285012
vt 0.838951 0.235310
vt 0.852258 0.235310
vt 0.265604 0.381442
vt 0.267562 0.366782
vt 0.267235 0.366702
vt 0.267562 0.381920
vt 0.424204 0.966850
vt 0.410945 0.967536
vt 0.410945 0.913267
vt 0.424204 0.912581
vt 0.068279 0.738325
vt 0.080830 0.738291
vt 0.080830 0.838169
vt 0.068279 0.838203
vt 0.158404 0.973852
vt 0.145243 0.973171
vt 0.145243 0.919652
vt 0.158404 0.920334
vt 0.841525 0.898238
vt 0.852930 0.896108
vt 0.852930 0.956469
vt 0.847843 0.971149
vt 0.367858 0.909423
vt 0.381117 0.910109
vt 0.381117 0.964378
vt 0.367858 0.963692
vt 0.387343 0.834533
vt 0.384427 0.774265
vt 0.970145 0.558438
vt 0.983278 0.557758
vt 0.983278 0.611176
vt 0.970145 0.611856
vt 0.024659 0.968152
vt 0.012333 0.969181
vt 0.012333 0.906655
vt 0.024659 0.905626
vt 0.963080 0.480148
vt 0.950192 0.480980
vt 0.950192 0.425152
vt 0.963080 0.424320
vt 0.389721 0.849211
vt 0.387681 0.834520
vt 0.996868 0.348539
vt 0.983735 0.347859
vt 0.983735 0.297501
vt 0.996868 0.298180
vt 0.499985 0.833542
vt 0.497592 0.895849
vt 0.341710 0.909423
vt 0.354599 0.910255
vt 0.354599 0.966083
vt 0.341710 0.965251
vt 0.310473 0.893897
vt 0.323062 0.892995
vt 0.317458 0.953079
vt 0.310473 0.967143
vt 0.103499 0.974083
vt 0.090705 0.973257
vt 0.090705 0.918201
vt 0.103499 0.919027
vt 0.697971 0.898855
vt 0.685680 0.898778
vt 0.685680 0.798904
vt 0.697971 0.798980
vt 0.049232 0.968177
vt 0.036968 0.969169
vt 0.036968 0.906617
vt 0.049232 0.905626
vt 0.963080 0.425144
vt 0.975847 0.424320
vt 0.975847 0.479273
vt 0.963080 0.480096
vt 0.000000 0.680965
vt 0.000000 0.780823
vt 0.988341 0.416996
vt 0.998697 0.418410
vt 0.998697 0.480832
vt 0.988341 0.479417
vt 0.666563 0.992912
vt 0.653796 0.992088
vt 0.653796 0.940283
vt 0.666563 0.941107
vt 0.962504 0.736021
vt 0.957058 0.721319
vt 0.957058 0.660976
vt 0.969239 0.663156
vt 0.080514 0.938190
vt 0.068279 0.938061
vt 0.068279 0.838203
vt 0.080514 0.838332
vt 0.985137 0.129028
vt 0.972616 0.128668
vt 0.972616 0.072410
vt 0.985137 0.072770
vt 0.265659 0.412056
vt 0.265976 0.396961
vt 0.265659 0.397033
vt 0.267556 0.411625
vt 0.948701 0.246556
vt 0.959025 0.246462
vt 0.959025 0.346341
vt 0.948701 0.346434
vt 0.977880 0.482856
vt 0.990373 0.482497
vt 0.990373 0.538650
vt 0.977880 0.539008
vt 0.799455 0.662016
vt 0.799455 0.735340
vt 0.963785 0.910791
vt 0.958369 0.896066
vt 0.970492 0.837981
vt 0.997631 0.125706
vt 0.985137 0.125347
vt 0.985137 0.072411
vt 0.997631 0.072769
vt 0.537553 0.960465
vt 0.524232 0.961221
vt 0.524232 0.898608
vt 0.537554 0.897852
vt 0.968080 0.222341
vt 0.972557 0.207617
vt 0.972279 0.207618
vt 0.969743 0.222333
vt 0.972557 0.147622
vt 0.985078 0.147263
vt 0.985078 0.203521
vt 0.972557 0.203880
vt 0.024658 0.905626
vt 0.036968 0.906625
vt 0.036968 0.969170
vt 0.024658 0.968170
vt 0.962340 0.149492
vt 0.972557 0.147263
vt 0.986610 0.406714
vt 0.974116 0.406355
vt 0.974116 0.350202
vt 0.986610 0.350561
vt 0.267468 0.680148
vt 0.254192 0.680149
vt 0.254192 0.580275
vt 0.267468 0.580273
vt 0.268183 0.718241
vt 0.268183 0.615793
vt 0.299171 0.574278
vt 0.299171 0.759756
vt 0.268183 0.292220
vt 0.268183 0.477698
vt 0.267898 0.477455
vt 0.267898 0.292462
vt 0.587204 0.023039
vt 0.587204 0.208032
vt 0.542424 0.231071
vt 0.542424 0.000000
vt 0.264610 0.523291
vt 0.264611 0.292220
vt 0.264965 0.292306
vt 0.264965 0.523205
vt 0.582943 0.285736
vt 0.582943 0.516635
vt 0.533242 0.516635
vt 0.533242 0.285736
vt 0.265320 0.292220
vt 0.265320 0.523291
vt 0.627723 0.285736
vt 0.627723 0.516807
vt 0.582943 0.493768
vt 0.582943 0.308775
vt 0.265320 0.477455
vt 0.265320 0.292462
vt 0.265605 0.292220
vt 0.265605 0.477698
vt 0.299171 0.759756
vt 0.299171 0.574278
vt 0.330160 0.615793
vt 0.330160 0.718241
vt 0.267707 0.557721
vt 0.267708 0.455273
vt 0.267865 0.454923
vt 0.267865 0.558071
vt 0.950192 0.350203
vt 0.950192 0.453351
vt 0.939132 0.401582
vt 0.939132 0.401971
s 0
f 55/1/1 56/2/1 52/3/1 51/4/1
f 53/5/2 54/6/2 50/7/2 49/8/2
f 51/4/3 52/3/3 48/9/3 47/10/3
f 49/8/4 50/7/4 46/11/4 45/12/4
f 47/10/5 48/9/5 44/13/5 43/14/5
f 45/12/6 46/11/6 42/15/6 41/16/6
f 43/17/7 44/18/7 40/19/7 39/20/7
f 41/21/8 42/22/8 38/23/8 37/24/8
f 39/20/9 40/19/9 36/25/9 35/26/9
f 37/24/10 38/23/10 34/27/10 33/28/10
f 35/26/11 36/25/11 32/29/11 31/30/11
f 33/28/12 34/27/12 30/31/12 29/32/12
f 31/30/13 32/29/13 28/33/13 27/34/13
f 29/32/14 30/31/14 26/35/14 25/36/14
f 27/37/15 28/38/15 24/39/15 23/40/15
f 25/41/16 26/42/16 22/43/16 21/44/16
f 23/40/17 24/39/17 20/45/17 19/46/17
f 17/47/18 18/48/18 14/49/18 13/50/18
f 19/46/19 20/45/19 16/51/19 15/52/19
f 15/53/20 16/54/20 12/55/20 11/56/20
f 13/57/21 14/58/21 10/59/21 9/60/21
f 11/56/22 12/55/22 8/61/22 7/62/22
f 9/60/23 10/59/23 6/63/23 5/64/23
f 4/65/24 5/64/24 6/63/24 3/66/24
f 7/62/25 8/61/25 1/67/25 2/68/25
f 21/44/26 22/43/26 18/48/26 17/47/26
f 4/65/27 3/66/27 54/69/27 53/70/27
f 2/68/28 1/67/28 56/71/28 55/72/28
f 57/73/29 65/74/29 66/75/29 58/76/29
f 61/77/30 67/78/30 68/79/30 62/80/30
f 65/74/31 69/81/31 70/82/31 66/75/31
f 67/78/32 71/83/32 72/84/32 68/79/32
f 69/81/33 73/85/33 74/86/33 70/82/33
f 71/83/34 75/87/34 76/88/34 72/84/34
f 73/89/35 77/90/35 78/91/35 74/92/35
f 75/93/36 79/94/36 80/95/36 76/96/36
f 77/90/37 81/97/37 82/98/37 78/91/37
f 79/94/38 83/99/38 84/100/38 80/95/38
f 81/97/39 85/101/39 86/102/39 82/98/39
f 83/99/40 87/103/40 88/104/40 84/100/40
f 85/101/41 89/105/41 90/106/41 86/102/41
f 87/103/42 91/107/42 92/108/42 88/104/42
f 89/109/43 93/110/43 94/111/43 90/112/43
f 91/113/44 95/114/44 96/115/44 92/116/44
f 93/110/45 97/117/45 98/118/45 94/111/45
f 99/119/46 103/120/46 104/121/46 100/122/46
f 97/117/47 101/123/47 102/124/47 98/118/47
f 101/125/48 105/126/48 106/127/48 102/128/48
f 103/129/49 107/130/49 108/131/49 104/132/49
f 105/126/50 109/133/50 110/134/50 106/127/50
f 107/130/51 111/135/51 112/136/51 108/131/51
f 63/137/52 64/138/52 112/136/52 111/135/52
f 109/133/53 59/139/53 60/140/53 110/134/53
f 95/114/54 99/119/54 100/122/54 96/115/54
f 63/137/55 61/141/55 62/142/55 64/138/55
f 59/139/56 57/143/56 58/144/56 60/140/56
f 36/145/57 40/146/57 78/147/57 82/148/57
f 50/149/58 54/150/58 62/151/58 68/152/58
f 39/153/59 35/154/59 81/155/59 77/156/59
f 53/157/60 49/158/60 67/159/60 61/160/60
f 40/146/61 44/161/61 74/162/61 78/147/61
f 54/150/62 3/163/62 64/164/62 62/151/62
f 5/165/63 4/166/63 63/167/63 111/168/63
f 43/169/64 39/153/64 77/156/64 73/170/64
f 4/166/65 53/157/65 61/160/65 63/167/65
f 3/163/66 6/171/66 112/172/66 64/164/66
f 44/161/67 48/173/67 70/174/67 74/162/67
f 48/173/68 52/175/68 66/176/68 70/174/68
f 6/171/69 10/177/69 108/178/69 112/172/69
f 47/179/70 43/169/70 73/170/70 69/180/70
f 51/181/71 47/179/71 69/180/71 65/182/71
f 9/183/72 5/165/72 111/168/72 107/184/72
f 52/175/73 56/185/73 58/186/73 66/176/73
f 10/177/74 14/187/74 104/188/74 108/178/74
f 55/189/75 51/181/75 65/182/75 57/190/75
f 13/191/76 9/183/76 107/184/76 103/192/76
f 56/185/77 1/193/77 60/194/77 58/186/77
f 14/187/78 18/195/78 100/196/78 104/188/78
f 2/197/79 55/189/79 57/190/79 59/198/79
f 17/199/80 13/191/80 103/192/80 99/200/80
f 1/193/81 8/201/81 110/202/81 60/194/81
f 18/195/82 22/203/82 96/204/82 100/196/82
f 7/205/83 2/197/83 59/198/83 109/206/83
f 21/207/84 17/199/84 99/200/84 95/208/84
f 8/201/85 12/209/85 106/210/85 110/202/85
f 22/203/86 26/211/86 92/212/86 96/204/86
f 11/213/87 7/205/87 109/206/87 105/214/87
f 25/215/88 21/207/88 95/208/88 91/216/88
f 12/209/89 16/217/89 102/218/89 106/210/89
f 26/211/90 30/219/90 88/220/90 92/212/90
f 15/221/91 11/213/91 105/214/91 101/222/91
f 29/223/92 25/215/92 91/216/92 87/224/92
f 16/217/93 20/225/93 98/226/93 102/218/93
f 30/219/94 34/227/94 84/228/94 88/220/94
f 19/229/95 15/221/95 101/222/95 97/230/95
f 33/231/96 29/223/96 87/224/96 83/232/96
f 20/225/97 24/233/97 94/234/97 98/226/97
f 34/227/98 38/235/98 80/236/98 84/228/98
f 23/237/99 19/229/99 97/230/99 93/238/99
f 37/239/100 33/231/100 83/232/100 79/240/100
f 24/233/101 28/241/101 90/242/101 94/234/101
f 38/235/102 42/243/102 76/244/102 80/236/102
f 27/245/103 23/237/103 93/238/103 89/246/103
f 41/247/104 37/239/104 79/240/104 75/248/104
f 28/241/105 32/249/105 86/250/105 90/242/105
f 42/243/106 46/251/106 72/252/106 76/244/106
f 31/253/107 27/245/107 89/246/107 85/254/107
f 45/255/108 41/247/108 75/248/108 71/256/108
f 32/249/109 36/145/109 82/148/109 86/250/109
f 46/251/110 50/149/110 68/152/110 72/252/110
f 35/154/111 31/253/111 85/254/111 81/155/111
f 49/158/112 45/255/112 71/256/112 67/159/112
f 122/257/113 189/258/113 198/259/113 125/260/113
f 192/261/114 185/262/114 194/263/114 199/264/114
f 200/265/115 193/266/115 202/267/115 207/268/115
f 208/269/116 201/270/116 210/271/116 215/272/116
f 216/273/117 209/274/117 218/275/117 223/276/117
f 224/277/118 217/278/118 226/279/118 231/280/118
f 232/281/119 225/282/119 234/283/119 239/284/119
f 240/285/120 233/286/120 242/287/120 247/288/120
f 248/289/121 241/290/121 250/291/121 255/292/121
f 256/293/122 249/294/122 258/295/122 263/296/122
f 264/297/123 257/298/123 266/299/123 271/300/123
f 272/301/124 265/302/124 274/303/124 279/304/124
f 276/305/125 167/306/125 116/307/125 173/308/125
f 166/309/126 277/310/126 172/311/126 113/312/126
f 184/313/127 177/314/127 186/315/127 191/316/127
f 118/317/128 181/318/128 190/319/128 121/320/128
f 268/321/129 163/322/129 168/323/129 275/324/129
f 280/325/130 273/326/130 176/327/130 169/328/130
f 260/329/131 159/330/131 164/331/131 267/332/131
f 162/333/132 269/334/132 278/335/132 165/336/132
f 252/337/133 155/338/133 160/339/133 259/340/133
f 158/341/134 261/342/134 270/343/134 161/344/134
f 244/345/135 151/346/135 156/347/135 251/348/135
f 154/349/136 253/350/136 262/351/136 157/352/136
f 236/353/137 147/354/137 152/355/137 243/356/137
f 150/357/138 245/358/138 254/359/138 153/360/138
f 228/361/139 143/362/139 148/363/139 235/364/139
f 146/365/140 237/366/140 246/367/140 149/368/140
f 220/369/141 139/370/141 144/371/141 227/372/141
f 142/373/142 229/374/142 238/375/142 145/376/142
f 212/377/143 135/378/143 140/379/143 219/380/143
f 138/381/144 221/382/144 230/383/144 141/384/144
f 204/385/145 131/386/145 136/387/145 211/388/145
f 134/389/146 213/390/146 222/391/146 137/392/146
f 196/393/147 127/394/147 132/395/147 203/396/147
f 130/397/148 205/398/148 214/399/148 133/400/148
f 188/401/149 123/402/149 128/403/149 195/404/149
f 126/405/150 197/406/150 206/407/150 129/408/150
f 180/409/151 119/410/151 124/411/151 187/412/151
f 174/413/152 115/414/152 120/415/152 179/416/152
f 170/417/153 175/418/153 178/419/153 183/420/153
f 287/421/154 289/422/154 290/423/154 286/424/154
f 114/425/155 171/426/155 182/427/155 117/428/155
f 326/429/156 339/430/156 340/431/156 325/432/156
f 322/433/121 335/434/121 336/435/121 321/436/121
f 334/437/122 347/438/122 348/439/122 333/440/122
f 346/441/123 359/442/123 360/443/123 345/444/123
f 358/445/124 371/446/124 372/447/124 357/448/124
f 370/449/130 383/450/130 384/451/130 369/452/130
f 382/453/153 395/454/153 396/455/153 381/456/153
f 394/457/127 407/458/127 408/459/127 393/460/127
f 406/461/114 419/462/114 420/463/114 405/464/114
f 418/465/115 431/466/115 432/467/115 417/468/115
f 430/469/116 443/470/116 444/471/116 429/472/116
f 442/473/117 301/474/117 302/475/117 441/476/117
f 308/477/157 311/478/157 312/479/157 307/480/157
f 289/481/158 282/482/158 283/483/158 292/484/158
f 298/485/120 323/486/120 324/487/120 297/488/120
f 286/489/159 327/490/159 328/491/159 285/492/159
f 438/493/160 305/494/160 306/495/160 437/496/160
f 304/497/118 293/498/118 294/499/118 303/500/118
f 426/501/161 439/502/161 440/503/161 425/504/161
f 446/505/162 290/506/162 291/507/162 445/508/162
f 414/509/163 427/510/163 428/511/163 413/512/163
f 434/513/164 447/514/164 448/515/164 433/516/164
f 402/517/165 415/518/165 416/519/165 401/520/165
f 422/521/166 435/522/166 436/523/166 421/524/166
f 390/525/167 403/526/167 404/527/167 389/528/167
f 410/529/168 423/530/168 424/531/168 409/532/168
f 378/533/169 391/534/169 392/535/169 377/536/169
f 398/537/170 411/538/170 412/317/170 397/539/170
f 366/540/171 379/541/171 380/542/171 365/543/171
f 386/544/172 399/545/172 400/546/172 385/547/172
f 354/548/173 367/549/173 368/550/173 353/551/173
f 374/552/174 387/553/174 388/554/174 373/555/174
f 342/556/175 355/557/175 356/558/175 341/559/175
f 362/560/176 375/561/176 376/562/176 361/563/176
f 330/564/177 343/565/177 344/566/177 329/567/177
f 350/568/178 363/569/178 364/570/178 349/571/178
f 318/572/179 331/573/179 332/574/179 317/575/179
f 338/576/180 351/577/180 352/578/180 337/579/180
f 314/580/181 319/581/181 320/582/181 313/583/181
f 310/584/182 315/585/182 316/586/182 309/587/182
f 296/588/119 299/589/119 300/590/119 295/591/119
f 281/592/183 282/593/183 289/594/183 287/595/183
f 281/596/184 287/597/184 288/598/184 284/599/184
f 204/600/185 342/601/185 341/602/185 131/603/185
f 143/604/186 377/605/186 392/606/186 148/607/186
f 258/608/187 432/609/187 431/610/187 263/611/187
f 132/612/188 344/613/188 343/614/188 203/615/188
f 237/616/189 397/617/189 412/618/189 246/619/189
f 158/620/190 434/621/190 433/622/190 261/623/190
f 208/624/191 346/625/191 345/626/191 201/627/191
f 243/628/192 403/629/192 390/630/192 236/631/192
f 157/632/193 435/633/193 434/634/193 158/635/193
f 202/636/194 348/637/194 347/638/194 207/639/194
f 147/640/195 389/641/195 404/642/195 152/643/195
f 262/644/196 436/645/196 435/646/196 157/647/196
f 130/648/197 350/649/197 349/650/197 205/651/197
f 245/652/198 409/653/198 424/654/198 254/655/198
f 268/656/199 438/657/199 437/658/199 163/659/199
f 129/660/200 351/661/200 350/662/200 130/663/200
f 251/664/201 415/665/201 402/666/201 244/667/201
f 164/668/202 440/669/202 439/670/202 267/671/202
f 206/672/203 352/673/203 351/674/203 129/675/203
f 151/676/204 401/677/204 416/678/204 156/679/204
f 272/680/205 442/681/205 441/682/205 265/683/205
f 212/684/206 354/685/206 353/686/206 135/687/206
f 253/688/207 421/689/207 436/690/207 262/691/207
f 266/692/191 444/693/191 443/694/191 271/695/191
f 136/696/208 356/697/208 355/698/208 211/699/208
f 259/700/209 427/701/209 414/702/209 252/703/209
f 162/704/210 446/705/210 445/706/210 269/707/210
f 216/708/211 358/709/211 357/710/211 209/711/211
f 155/712/212 413/713/212 428/714/212 160/715/212
f 161/716/213 447/717/213 446/718/213 162/719/213
f 210/720/214 360/721/214 359/722/214 215/723/214
f 261/724/215 433/725/215 448/726/215 270/727/215
f 270/728/216 448/729/216 447/730/216 161/731/216
f 134/732/217 362/733/217 361/734/217 213/735/217
f 267/736/218 439/737/218 426/738/218 260/739/218
f 133/740/219 363/741/219 362/632/219 134/742/219
f 159/743/220 425/744/220 440/745/220 164/746/220
f 171/747/221 284/748/221 288/749/221 182/750/221
f 214/751/222 364/752/222 363/753/222 133/754/222
f 269/755/223 445/756/223 291/757/223 278/758/223
f 220/759/224 366/760/224 365/761/224 139/762/224
f 275/763/225 305/764/225 438/765/225 268/766/225
f 140/767/226 368/768/226 367/769/226 219/770/226
f 163/771/227 437/772/227 306/773/227 168/774/227
f 224/775/228 370/776/228 369/777/228 217/778/228
f 169/779/154 293/780/154 304/781/154 280/782/154
f 113/783/229 282/784/229 281/785/229 114/786/229
f 218/787/205 372/788/205 371/789/205 223/790/205
f 273/791/183 303/792/183 294/793/183 176/794/183
f 172/795/230 283/796/230 282/797/230 113/798/230
f 138/799/231 374/800/231 373/801/231 221/802/231
f 183/803/154 299/804/154 296/805/154 170/806/154
f 114/807/232 281/808/232 284/809/232 171/810/232
f 137/811/233 375/812/233 374/800/233 138/799/233
f 175/813/183 295/814/183 300/815/183 178/816/183
f 118/817/234 286/818/234 285/819/234 181/820/234
f 222/821/235 376/822/235 375/823/235 137/824/235
f 191/825/154 323/826/154 298/827/154 184/828/154
f 117/829/236 287/830/236 286/831/236 118/832/236
f 228/833/237 378/834/237 377/835/237 143/836/237
f 177/837/183 297/838/183 324/839/183 186/840/183
f 182/841/238 288/842/238 287/843/238 117/844/238
f 144/845/239 380/846/239 379/847/239 227/848/239
f 199/849/154 335/850/154 322/851/154 192/852/154
f 165/853/240 290/854/240 289/855/240 166/856/240
f 232/857/241 382/858/241 381/859/241 225/860/241
f 185/861/183 321/851/183 336/862/183 194/863/183
f 278/864/242 291/865/242 290/854/242 165/853/242
f 226/866/243 384/867/243 383/868/243 231/869/243
f 207/870/154 347/871/154 334/872/154 200/873/154
f 166/874/244 289/875/244 292/876/244 277/877/244
f 142/878/245 386/879/245 385/880/245 229/881/245
f 193/882/183 333/883/183 348/884/183 202/885/183
f 176/886/228 294/887/228 293/888/228 169/889/228
f 141/890/246 387/891/246 386/892/246 142/893/246
f 215/894/154 359/895/154 346/896/154 208/897/154
f 170/898/247 296/899/247 295/900/247 175/901/247
f 277/902/248 292/903/248 283/904/248 172/905/248
f 230/906/249 388/907/249 387/908/249 141/909/249
f 201/910/183 345/911/183 360/912/183 210/913/183
f 184/914/250 298/915/250 297/916/250 177/917/250
f 179/918/251 315/919/251 310/920/251 174/921/251
f 236/922/252 390/923/252 389/924/252 147/925/252
f 223/926/154 371/927/154 358/928/154 216/929/154
f 178/930/241 300/931/241 299/932/241 183/933/241
f 115/934/253 309/935/253 316/936/253 120/937/253
f 148/938/254 392/939/254 391/940/254 235/941/254
f 209/942/183 357/943/183 372/944/183 218/945/183
f 274/946/211 302/947/211 301/948/211 279/949/211
f 173/950/255 311/951/255 308/952/255 276/953/255
f 240/954/256 394/955/256 393/956/256 233/957/256
f 231/958/154 383/959/154 370/960/154 224/961/154
f 280/962/243 304/963/243 303/964/243 273/965/243
f 167/966/257 307/967/257 312/968/257 116/969/257
f 234/970/247 396/971/247 395/972/247 239/973/247
f 217/974/183 369/975/183 384/976/183 226/977/183
f 168/978/258 306/979/258 305/980/258 275/981/258
f 181/758/259 285/982/259 328/983/259 190/984/259
f 146/985/260 398/986/260 397/432/260 237/987/260
f 239/988/154 395/989/154 382/990/154 232/991/154
f 276/992/261 308/993/261 307/994/261 167/995/261
f 187/996/262 319/997/262 314/998/262 180/999/262
f 145/1000/263 399/1001/263 398/1002/263 146/1003/263
f 225/1004/183 381/1005/183 396/1006/183 234/1007/183
f 174/1008/264 310/1009/264 309/1010/264 115/1011/264
f 119/1012/265 313/1013/265 320/1014/265 124/1015/265
f 238/1016/266 400/1017/266 399/1018/266 145/1019/266
f 247/1020/154 407/1021/154 394/1022/154 240/1023/154
f 116/1024/267 312/1025/267 311/1026/267 173/1027/267
f 189/1028/268 325/1029/268 340/1030/268 198/1031/268
f 244/1032/269 402/1033/269 401/1034/269 151/1035/269
f 233/1036/183 393/1037/183 408/1038/183 242/1039/183
f 180/1040/270 314/1041/270 313/1042/270 119/1043/270
f 195/1044/271 331/1045/271 318/1046/271 188/1047/271
f 152/1048/272 404/1049/272 403/1050/272 243/1051/272
f 255/1052/154 419/1053/154 406/1054/154 248/1055/154
f 120/1056/273 316/1057/273 315/1058/273 179/1059/273
f 123/1060/274 317/1061/274 332/1062/274 128/1063/274
f 248/1064/275 406/1065/275 405/1066/275 241/1067/275
f 241/1068/183 405/1069/183 420/1070/183 250/1071/183
f 188/401/276 318/1072/276 317/1073/276 123/402/276
f 197/1074/277 337/1075/277 352/1076/277 206/1077/277
f 242/1078/250 408/1079/250 407/1080/250 247/1081/250
f 263/1082/154 431/1083/154 418/1084/154 256/1085/154
f 124/1086/278 320/1087/278 319/1088/278 187/1089/278
f 203/1090/279 343/1091/279 330/1092/279 196/1093/279
f 150/1094/280 410/1095/280 409/1096/280 245/1097/280
f 249/1098/183 417/1099/183 432/1100/183 258/1101/183
f 192/261/281 322/1102/281 321/1103/281 185/262/281
f 127/1104/282 329/1105/282 344/1106/282 132/1107/282
f 149/1108/283 411/1109/283 410/1110/283 150/1111/283
f 271/1112/154 443/1113/154 430/1114/154 264/1115/154
f 186/1116/256 324/1117/256 323/1118/256 191/1119/256
f 205/1120/284 349/1121/284 364/1122/284 214/1123/284
f 246/1124/285 412/1125/285 411/1126/285 149/1127/285
f 257/1128/183 429/1129/183 444/1130/183 266/1131/183
f 122/257/286 326/1132/286 325/1133/286 189/258/286
f 211/1134/287 355/1135/287 342/1136/287 204/1137/287
f 252/1138/288 414/1139/288 413/1140/288 155/1141/288
f 279/1142/154 301/1143/154 442/1144/154 272/1145/154
f 121/1146/289 327/1147/289 326/1132/289 122/257/289
f 131/1148/290 341/1149/290 356/1150/290 136/1151/290
f 156/1152/291 416/519/291 415/518/291 251/1153/291
f 265/1154/183 441/1155/183 302/1156/183 274/1157/183
f 190/1158/292 328/1159/292 327/1160/292 121/1161/292
f 213/1162/293 361/1163/293 376/1164/293 222/1165/293
f 256/1166/194 418/1167/194 417/1168/194 249/1169/194
f 196/1170/294 330/1171/294 329/1172/294 127/1173/294
f 219/1174/295 367/1175/295 354/1176/295 212/1177/295
f 250/1178/281 420/463/281 419/462/281 255/1179/281
f 128/1180/296 332/1181/296 331/1182/296 195/1183/296
f 135/1184/297 353/1185/297 368/1186/297 140/1187/297
f 154/1188/298 422/1189/298 421/1190/298 253/1191/298
f 200/1192/187 334/1193/187 333/1194/187 193/1195/187
f 221/1196/299 373/1197/299 388/1198/299 230/1199/299
f 153/1200/300 423/1201/300 422/1202/300 154/1203/300
f 194/1204/275 336/1205/275 335/1206/275 199/1207/275
f 227/1208/301 379/1209/301 366/1210/301 220/1211/301
f 254/1212/302 424/531/302 423/530/302 153/1213/302
f 126/1214/303 338/1215/303 337/1067/303 197/1216/303
f 139/1217/304 365/1218/304 380/1219/304 144/1220/304
f 260/1221/305 426/1222/305 425/1223/305 159/1224/305
f 125/1225/306 339/1226/306 338/1227/306 126/1228/306
f 229/1229/307 385/1230/307 400/1231/307 238/1232/307
f 160/1233/308 428/1234/308 427/1235/308 259/1236/308
f 198/1237/309 340/1238/309 339/1226/309 125/1225/309
f 235/1239/310 391/1240/310 378/1241/310 228/1242/310
f 264/1243/214 430/1244/214 429/1245/214 257/1246/214
f 286/1247/183 290/1248/183 446/1249/183 327/1250/183
f 327/1251/154 446/1252/154 447/1253/154 326/1254/154
f 326/1255/183 447/1256/183 434/1257/183 339/1258/183
f 339/1259/154 434/1260/154 435/1261/154 338/1262/154
f 338/1263/183 435/1264/183 422/1265/183 351/1266/183
f 351/1262/154 422/1261/154 423/1267/154 350/1268/154
f 350/1269/183 423/1270/183 410/1271/183 363/1272/183
f 363/1273/154 410/1274/154 411/1275/154 362/1276/154
f 362/1277/183 411/1278/183 398/1279/183 375/1280/183
f 375/1281/311 398/1282/311 399/1283/311 374/1284/311
f 374/1285/183 399/1286/183 386/1287/183 387/1288/183
