#File written by RizomUV 2023.0.70.ge90189e8. Compilation :Sep 22 2023,12:42:11
mtllib Fiesta enganche.mtl
#begin vertices
v 55.79192 0.111739 -11.38658
v 55.79194 9.956404 -11.38658
v 55.79192 0.111739 -11.38658
v 55.79194 9.956404 -11.38658
v 55.79192 2.808145 -11.38658
v 55.79194 8.297667 -11.38658
v 55.79192 0.111739 -11.29246
v 55.79194 9.956404 -11.29246
v 55.79194 9.288516 -11.29246
v 55.79192 0.803387 -11.29246
v 55.79192 2.761165 -11.29246
v 55.79194 9.956404 -11.17512
v 55.79192 0.111739 -11.17512
v 55.79194 9.345335 -11.17512
v 55.79194 9.288516 -11.23194
v 55.79194 9.305159 -11.19176
v 55.79192 0.803387 -11.23194
v 55.79192 0.746567 -11.17512
v 55.79192 0.786745 -11.19176
v 55.79194 9.288516 -11.41698
v 58.46202 9.956404 -11.38658
v 58.46202 9.956404 -11.38658
v 58.46202 9.956404 -11.29246
v 58.46202 9.288516 -11.29246
v 58.46202 9.956404 -11.17512
v 58.46202 9.345335 -11.17512
v 58.46202 9.288516 -11.23194
v 58.46202 9.305159 -11.19176
v 58.46202 9.288516 -11.41698
v 58.46202 2.808145 -11.38658
v 58.46202 8.297667 -11.38658
v 58.46202 0.111739 -11.38658
v 58.46202 0.111739 -11.38658
v 58.46202 0.111739 -11.29246
v 58.46202 0.803387 -11.29246
v 58.46202 2.761165 -11.29246
v 58.46202 0.111739 -11.17512
v 58.46202 0.803387 -11.23194
v 58.46202 0.746567 -11.17512
v 58.46202 0.786745 -11.19176
v 57.572 9.956404 -11.38658
v 56.68196 9.956404 -11.38658
v 56.68196 9.956404 -11.29246
v 57.572 9.956404 -11.29246
v 56.68196 9.956404 -11.17512
v 57.572 9.956404 -11.17512
v 57.572 9.288516 -11.23194
v 56.68196 9.288516 -11.23194
v 56.68196 9.288516 -11.29246
v 57.572 9.288516 -11.29246
v 57.572 9.956404 -11.38658
v 56.68196 9.956404 -11.38658
v 57.572 9.305159 -11.19176
v 56.68196 9.305159 -11.19176
v 56.68196 9.288516 -11.41698
v 57.572 9.288516 -11.41698
v 56.68196 9.345335 -11.17512
v 57.572 9.345335 -11.17512
v 56.68196 8.261659 -11.38658
v 57.53599 8.261659 -11.38658
v 56.71796 2.844153 -11.38658
v 57.53598 2.844153 -11.38658
v 56.68195 0.111739 -11.38658
v 57.57199 0.111739 -11.38658
v 57.57199 0.111739 -11.38658
v 56.68195 0.111739 -11.38658
v 56.68195 0.803387 -11.29246
v 57.57199 0.803387 -11.29246
v 57.57199 2.761165 -11.29246
v 56.68195 2.761165 -11.29246
v 56.68195 0.111739 -11.17512
v 57.57199 0.111739 -11.17512
v 57.57199 0.746567 -11.17512
v 56.68195 0.746567 -11.17512
v 56.68195 0.111739 -11.29246
v 57.57199 0.111739 -11.29246
v 56.68195 0.803387 -11.23194
v 57.57199 0.803387 -11.23194
v 56.68195 0.786745 -11.19176
v 57.57199 0.786745 -11.19176
v 55.79193 6.982185 -11.38658
v 58.46202 6.982185 -11.38658
v 56.68196 6.982185 -11.38658
v 57.53599 7.018193 -11.38658
v 55.79193 5.648044 -11.38658
v 58.46202 5.648044 -11.38658
v 56.71797 5.612036 -11.38658
v 57.53598 5.612036 -11.38658
v 55.79192 4.706277 -11.38658
v 58.46202 4.706277 -11.38658
v 56.71796 4.706277 -11.38658
v 57.53598 4.706277 -11.38658
v 55.82794 7.018193 -11.38658
v 55.82794 8.261659 -11.38658
v 56.68196 8.297667 -11.38658
v 57.572 8.297667 -11.38658
v 56.68195 2.808145 -11.38658
v 57.57199 2.808145 -11.38658
v 57.6828 6.87138 -11.38658
v 56.68196 7.018193 -11.38658
v 56.68196 4.706277 -11.38658
v 56.68196 5.648044 -11.38658
v 57.6828 4.817082 -11.38658
v 57.6828 5.648044 -11.38658
v 55.90161 7.071827 -11.29034
v 55.90161 8.208025 -11.29034
v 56.68196 7.071827 -11.29034
v 56.68196 8.208025 -11.29034
v 56.75325 4.678776 -11.29034
v 57.5007 4.678776 -11.29034
v 57.46231 8.208025 -11.29034
v 56.75325 2.97729 -11.29034
v 57.5007 2.97729 -11.29034
v 57.46231 7.071827 -11.29034
v 56.75325 5.5064 -11.29034
v 57.5007 5.5064 -11.29034
v 58.35122 5.648044 -11.38658
v 57.57199 5.648044 -11.38658
v 58.35122 6.87138 -11.38658
v 57.572 6.982185 -11.38658
v 58.35122 4.817082 -11.38658
v 57.57199 4.706277 -11.38658
v 58.33067 5.656086 -11.30516
v 58.33067 6.804197 -11.30516
v 58.33067 4.876223 -11.30516
v 57.70335 5.656086 -11.30516
v 57.70335 6.804197 -11.30516
v 57.70335 4.876223 -11.30516
#end vertices

#begin 158 textures vertices 
vt 0.57378 0.5323396 0
vt 0.5792341 0.5234429 0
vt 0.5737813 0.5323412 0
vt 0.5792347 0.523441 0
vt 0.4203832 0.318222 0
vt 0.003906764 0.8333418 0
vt 0.574629 0.5465384 0
vt 0.5773959 0.5093407 0
vt 0.5602736 0.3781089 0
vt 0.582747 0.6822301 0
vt 0.42028 0.3023279 0
vt 0.5751022 0.4917603 0
vt 0.5756878 0.5642361 0
vt 0.5631569 0.4002074 0
vt 0.5614567 0.3871769 0
vt 0.5623068 0.3936921 0
vt 0.5822008 0.6731016 0
vt 0.5814161 0.6599838 0
vt 0.5818085 0.6665429 0
vt 0.00390625 0.9831239 0
vt 0.9792804 0.4712484 0
vt 0.9792807 0.4712464 0
vt 0.9774407 0.4571446 0
vt 0.960318 0.3259127 0
vt 0.9751469 0.4395642 0
vt 0.9632014 0.3480112 0
vt 0.9615012 0.3349807 0
vt 0.9623513 0.3414959 0
vt 0.9578839 0.3072569 0
vt 0.407345 0.003907636 0
vt 0.4073422 0.8333432 0
vt 0.9764978 0.5082478 0
vt 0.9764995 0.5082492 0
vt 0.9773472 0.5224452 0
vt 0.8217897 0.00390625 0
vt 0.8237098 0.2997091 0
vt 0.978406 0.5401429 0
vt 0.9849191 0.6490084 0
vt 0.9841343 0.6358906 0
vt 0.9845267 0.6424497 0
vt 0.8459343 0.4886458 0
vt 0.7125842 0.5060441 0
vt 0.7107443 0.4919423 0
vt 0.8440926 0.4745434 0
vt 0.7084505 0.4743619 0
vt 0.8417987 0.456963 0
vt 0.828153 0.3523795 0
vt 0.6948049 0.3697783 0
vt 0.6936217 0.3607104 0
vt 0.8269698 0.3433115 0
vt 0.845934 0.4886478 0
vt 0.7125835 0.5060461 0
vt 0.8290031 0.3588947 0
vt 0.6956549 0.3762936 0
vt 0.1383847 0.9831243 0
vt 0.8245357 0.3246557 0
vt 0.696505 0.3828089 0
vt 0.8298532 0.36541 0
vt 0.7189819 0.8958606 0
vt 0.853112 0.887 0
vt 0.1438267 0.009347334 0
vt 0.5573789 0.4473064 0
vt 0.7080192 0.5243102 0
vt 0.8422587 0.5162775 0
vt 0.8422596 0.5162789 0
vt 0.7080206 0.5243117 0
vt 0.7169865 0.674199 0
vt 0.6873134 0.004779161 0
vt 0.6892329 0.300582 0
vt 0.5547567 0.301455 0
vt 0.7099273 0.5562051 0
vt 0.844167 0.548174 0
vt 0.8498946 0.6439217 0
vt 0.7156556 0.6519528 0
vt 0.7088685 0.5385073 0
vt 0.8431082 0.5304762 0
vt 0.7164403 0.6650705 0
vt 0.85068 0.6570394 0
vt 0.716048 0.6585118 0
vt 0.8502876 0.6504807 0
vt 0.003906843 0.6345799 0
vt 0.4073429 0.6345813 0
vt 0.1383853 0.6345804 0
vt 0.8552868 0.6925676 0
vt 0.003906931 0.4329988 0
vt 0.4073435 0.4330002 0
vt 0.1438265 0.4275587 0
vt 0.5721488 0.8747251 0
vt 0.003906966 0.2907032 0
vt 0.407344 0.2907046 0
vt 0.1438263 0.2907037 0
vt 0.5729817 0.7350957 0
vt 0.009347277 0.6400206 0
vt 0.5817503 0.8860938 0
vt 0.1383852 0.8333422 0
vt 0.2728637 0.8333427 0
vt 0.1383863 0.003906712 0
vt 0.6893367 0.3164761 0
vt 0.8781958 0.9960937 0
vt 0.1383853 0.640021 0
vt 0.1383859 0.2907037 0
vt 0.138386 0.4329993 0
vt 0.8656623 0.6747066 0
vt 0.8646946 0.8037661 0
vt 0.6009791 0.7043427 0
vt 0.5986397 0.8736187 0
vt 0.7179766 0.7001886 0
vt 0.7190595 0.8784719 0
vt 0.4408412 0.7344756 0
vt 0.5569256 0.7313641 0
vt 0.8360567 0.8743181 0
vt 0.4332171 0.4760895 0
vt 0.544552 0.4709811 0
vt 0.8383972 0.7050425 0
vt 0.4498896 0.8618465 0
vt 0.5592235 0.8556826 0
vt 0.3906014 0.4330002 0
vt 0.2728645 0.4329998 0
vt 0.9921259 0.9893971 0
vt 0.2728644 0.6345809 0
vt 0.3906018 0.3074465 0
vt 0.272865 0.2907041 0
vt 0.9765741 0.8022196 0
vt 0.981054 0.9764865 0
vt 0.9676859 0.6814718 0
vt 0.8778983 0.8045379 0
vt 0.8879871 0.9816164 0
vt 0.8758612 0.6872312 0
vt 0.2728632 0.9831248 0
vt 0.4073417 0.9831252 0
vt 0.6911876 0.3420545 0
vt 0.5578395 0.3594531 0
vt 0.8512261 0.6661679 0
vt 0.5528366 0.005652076 0
vt 0.9854652 0.6581369 0
vt 0.4183599 0.006524989 0
vt 0.5548599 0.317349 0
vt 0.003906743 0.00390625 0
vt 0.2728659 0.003907174 0
vt 0.8238129 0.3156032 0
vt 0.4252712 0.7394938 0
vt 0.4389892 0.8828771 0
vt 0.267424 0.4275591 0
vt 0.2674249 0.009347759 0
vt 0.4183599 0.4544133 0
vt 0.2674245 0.2907041 0
vt 0.2896069 0.3074462 0
vt 0.3906008 0.6178393 0
vt 0.9896556 0.8002455 0
vt 0.9764411 0.6673455 0
vt 0.2896065 0.4329998 0
vt 0.2896064 0.6178389 0
vt 0.5839237 0.6916608 0
vt 0.009347236 0.8279012 0
vt 0.1383853 0.8279016 0
vt 0.7180543 0.6827999 0
vt 0.2674239 0.6400214 0
vt 0.2674233 0.8279021 0
#end 158 textures vertices 

#begin 26 normals 
vn -0 1 -0
vn -0 -0.9808 0.1951
vn -0 -1 -0
vn -0 -0.9239 0.3827
vn -0 -0 1
vn -0 -0.1951 0.9808
vn -0 -0.3827 0.9239
vn -0 0.0307 0.9995
vn -0 0.0153 0.9999
vn -0 0.1951 0.9808
vn -0 0.8947 0.4466
vn -0 0.9808 0.1951
vn -0 0.9239 0.3827
vn -0 0.3827 0.9239
vn 0.9389 -0 0.3442
vn -0 0.8735 0.4868
vn -0 0.7713 0.6364
vn 0.7941 -0 0.6078
vn -0.9696 -0 0.2447
vn -0.7941 -0 0.6078
vn -0 -0.8735 0.4868
vn -0 0.6735 0.7392
vn -0 -0.5859 0.8104
vn -0.9389 -0 0.3442
vn 0.9696 -0 0.2447
vn -0 -0.8091 0.5877
#end 26 normals 

#begin 102 faces
o Plane:065
s 1
f 41/41/1 44/44/1 23/23/1 22/22/1 
f 44/44/1 46/46/1 25/25/1 23/23/1 
f 47/47/2 50/50/3 24/24/3 27/27/2 
f 51/51/1 41/41/1 22/22/1 21/21/1 
f 53/53/4 47/47/2 27/27/2 28/28/4 
f 50/50/3 56/56/3 29/29/3 24/24/3 
f 46/46/5 58/58/6 26/26/6 25/25/5 
f 58/58/6 53/53/7 28/28/7 26/26/6 
f 56/129/8 96/96/9 31/31/9 29/130/8 
f 122/122/5 98/139/5 30/30/5 90/90/5 
f 65/65/3 64/64/1 32/32/1 33/33/1 
f 69/69/5 68/68/5 35/35/5 36/36/5 
f 73/73/10 72/72/5 37/37/5 39/39/10 
f 98/98/11 69/69/11 36/36/11 30/140/11 
f 72/72/3 76/76/3 34/34/3 37/37/3 
f 68/133/1 78/78/12 38/38/12 35/135/1 
f 78/78/12 80/80/13 40/40/13 38/38/12 
f 76/76/3 65/65/3 33/33/3 34/34/3 
f 80/80/14 73/73/10 39/39/10 40/40/14 
f 19/19/14 18/18/10 74/74/10 79/79/14 
f 79/79/14 74/74/10 73/73/10 80/80/14 
f 7/7/3 3/3/3 66/66/3 75/75/3 
f 75/75/3 66/66/3 65/65/3 76/76/3 
f 17/17/12 19/19/13 79/79/13 77/77/12 
f 77/77/12 79/79/13 80/80/13 78/78/12 
f 10/10/1 17/17/12 77/77/12 67/67/1 
f 67/67/1 77/77/12 78/78/12 68/133/1 
f 13/13/3 7/7/3 75/75/3 71/71/3 
f 71/71/3 75/75/3 76/76/3 72/72/3 
f 5/5/11 11/11/11 70/70/11 97/137/11 
f 97/137/11 70/70/11 69/69/11 98/98/11 
f 18/18/10 13/13/5 71/71/5 74/74/10 
f 74/74/10 71/71/5 72/72/5 73/73/10 
f 11/11/5 10/136/5 67/134/5 70/70/5 
f 70/70/5 67/134/5 68/68/5 69/69/5 
f 3/3/3 1/1/3 63/63/3 66/66/3 
f 66/66/3 63/63/3 64/64/1 65/65/3 
f 89/89/5 5/138/5 97/97/5 101/101/5 
f 92/92/15 88/88/15 116/116/15 110/110/15 
f 20/20/8 6/6/9 95/95/9 55/55/8 
f 55/55/8 95/95/9 96/96/9 56/129/8 
f 14/14/6 16/16/7 54/54/7 57/57/6 
f 57/57/6 54/54/7 53/53/7 58/58/6 
f 12/12/5 14/14/6 57/57/6 45/45/5 
f 45/45/5 57/57/6 58/58/6 46/46/5 
f 9/9/3 20/132/3 55/131/3 49/49/3 
f 49/49/3 55/131/3 56/56/3 50/50/3 
f 16/16/4 15/15/2 48/48/2 54/54/4 
f 54/54/4 48/48/2 47/47/2 53/53/4 
f 2/2/1 4/4/1 42/42/1 52/52/1 
f 52/52/1 42/42/1 41/41/1 51/51/1 
f 15/15/2 9/9/3 49/49/3 48/48/2 
f 48/48/2 49/49/3 50/50/3 47/47/2 
f 8/8/1 12/12/1 45/45/1 43/43/1 
f 43/43/1 45/45/1 46/46/1 44/44/1 
f 4/4/1 8/8/1 43/43/1 42/42/1 
f 42/42/1 43/43/1 44/44/1 41/41/1 
f 59/59/16 94/94/16 106/106/16 108/108/16 
f 62/62/15 92/92/15 110/110/15 113/113/15 
f 96/96/9 120/120/5 82/82/5 31/31/9 
f 83/83/5 102/102/5 118/118/5 120/120/5 
f 81/81/5 85/85/5 102/102/5 83/83/5 
f 119/119/17 99/99/17 127/127/17 124/124/17 
f 84/84/18 60/60/18 111/111/18 114/114/18 
f 85/85/5 89/89/5 101/101/5 102/102/5 
f 104/104/19 103/103/19 128/128/19 126/126/19 
f 93/93/5 94/154/5 6/6/9 81/81/5 
f 94/154/5 59/155/5 95/95/9 6/6/9 
f 59/155/5 60/158/5 96/96/9 95/95/9 
f 62/144/5 61/61/5 97/97/5 98/139/5 
f 60/158/5 84/157/5 120/120/5 96/96/9 
f 84/157/5 100/100/5 83/83/5 120/120/5 
f 100/100/5 93/93/5 81/81/5 83/83/5 
f 91/91/5 87/87/5 102/102/5 101/101/5 
f 88/143/5 92/146/5 122/122/5 118/118/5 
f 87/87/5 88/143/5 118/118/5 102/102/5 
f 61/61/5 91/91/5 101/101/5 97/97/5 
f 92/146/5 62/144/5 98/139/5 122/122/5 
f 109/109/5 112/112/5 113/113/5 110/110/5 
f 108/108/5 107/107/5 114/114/5 111/111/5 
f 106/106/5 105/105/5 107/107/5 108/108/5 
f 115/115/5 109/109/5 110/110/5 116/116/5 
f 94/94/20 93/153/20 105/105/20 106/106/20 
f 100/156/21 84/84/21 114/114/21 107/107/21 
f 60/60/16 59/59/16 108/108/16 111/111/16 
f 88/88/22 87/142/22 115/115/22 116/116/22 
f 93/153/21 100/156/21 107/107/21 105/105/21 
f 61/145/23 62/62/23 113/113/23 112/112/23 
f 91/141/24 61/145/24 112/112/24 109/109/24 
f 87/142/24 91/141/24 109/109/24 115/115/24 
f 119/148/5 117/117/5 86/86/5 82/82/5 
f 104/151/5 99/152/5 120/120/5 118/118/5 
f 99/152/5 119/148/5 82/82/5 120/120/5 
f 117/117/5 121/121/5 90/90/5 86/86/5 
f 103/147/5 104/151/5 118/118/5 122/122/5 
f 121/121/5 103/147/5 122/122/5 90/90/5 
f 127/127/5 126/126/5 123/123/5 124/124/5 
f 126/126/5 128/128/5 125/125/5 123/123/5 
f 117/149/25 119/119/25 124/124/25 123/123/25 
f 103/103/26 121/150/26 125/125/26 128/128/26 
f 121/150/25 117/149/25 123/123/25 125/125/25 
f 99/99/19 104/104/19 126/126/19 127/127/19 
#end 102 faces

#ZOMPROPERTIES_04{
#ZOMPROPERTIES_04 table {Mesh table {SymPlane table {Point vector3d 0 0 0 Normal vector3d 1 0 0 Threshold double 0.01 
#ZOMPROPERTIES_04 Enabled bool false EdgeID int -1 SymEdgeID int -1 UPos double 0.5 LocalMode bool false } RootGroup C
#ZOMPROPERTIES_04 SubMeshGroup {Children table {Tile_0_0 CSubMeshGroup {Children table {} BBoxUV box3d 0 0 0 0 0 0 BBo
#ZOMPROPERTIES_04 x3D box3d 0 0 0 0 0 0 Area3D double 0 AreaUV double 0.671207 IsRoot bool false Properties table {Sel
#ZOMPROPERTIES_04 ected bool false Box box3d 0 1 0 1 0 1 U int 0 V int 0 NU int 0 NV int 0 Tiling vector3d 1 1 1 TileR
#ZOMPROPERTIES_04 atioMode string "1:1" Overflow string "Off" Pack table {BoxFrameEdit bool false Behavior string "Fre
#ZOMPROPERTIES_04 e" } } IsTile bool true PolyIDs ints { 62 96 98 100 97 99 65 101 57 82 86 80 79 63 83 84 10 36 35 21
#ZOMPROPERTIES_04  27 31 19 20 24 16 18 15 26 25 23 12 14 17 28 22 32 38 58 87 88 89 85 81 78 0 1 6 7 4 2 5 46 45 51 5
#ZOMPROPERTIES_04 2 47 48 41 42 43 53 55 56 50 3 49 54 44 11 34 33 29 30 13 8 59 92 90 93 95 9 77 69 76 37 64 61 72 66
#ZOMPROPERTIES_04  67 68 70 39 40 71 60 91 94 74 75 73 } } } BBoxUV box3d 0 0 0 0 0 0 BBox3D box3d 0 0 0 0 0 0 Area3D 
#ZOMPROPERTIES_04 double 0 AreaUV double 0 IsRoot bool true Properties table {Selected bool false Box box3d 0 1 0 1 0 
#ZOMPROPERTIES_04 1 U int 0 V int 0 NU int 1 NV int 1 Tiling vector3d 1 1 1 TileRatioMode string "1:1" Overflow string
#ZOMPROPERTIES_04  "Off" Pack table {Rotate table {Mode int 0 Min double 0 Max double 90 Step double 0 } PaddingSize d
#ZOMPROPERTIES_04 ouble 0.0078125 MarginSize double 0.00390625 Resolution int 256 MapResolution int 2048 Scaling table
#ZOMPROPERTIES_04  {TexelDensity double 1024 Mode int 2 } LayoutScalingMode int 2 MaxMutations int 1 } } IsTile bool f
#ZOMPROPERTIES_04 alse PolyIDs ints { } } Maps table {Pin table {PrimType string "Vertex" Size int 1 DefaultValue doub
#ZOMPROPERTIES_04 le 0 ScaleType string "Normalized" MergeMode string "Max" MinValue double 0 MaxValue double 1 Data d
#ZOMPROPERTIES_04 oubles { r 158 0 } } Density table {PrimType string "Polygon" Size int 1 DefaultValue double 1 Scale
#ZOMPROPERTIES_04 Type string "Log" MergeMode string "Average" MinValue double 0.1 MaxValue double 4 Data doubles { r 
#ZOMPROPERTIES_04 102 1 } } Protect table {PrimType string "Vertex" Size int 1 DefaultValue double 0 ScaleType string 
#ZOMPROPERTIES_04 "Normalized" MergeMode string "Average" MinValue double -1 MaxValue double 1 Data doubles { r 158 0 
#ZOMPROPERTIES_04 } } } } }
#ZOMPROPERTIES_04}


#ZOMSCENE_01{
#ZOMSCENE_01 CScene {Settings table {AxisSystem table {UpVector string "y" } Unit string "cm" TexelDensityDisplay
#ZOMSCENE_01 Unit string "tx/cm" } Root table {} }
#ZOMSCENE_01}

#begin 0 fatal error vertex (that RizomUV cannot handle)
#end 0 fatal error vertex (that RizomUV cannot handle)

#begin 0 error vertex
#end 0 error vertex
