# Blender 4.2.8 LTS
# www.blender.org
mtllib ESTANTE.mtl
o ESTANTE
v 25.336599 0.328474 22.738379
v 24.416372 -0.609445 22.530798
v 24.416372 -0.657861 22.510744
v 24.421484 -0.594602 22.553514
v 24.425817 -0.609445 22.531729
v 24.428713 -0.631659 22.517170
v 24.429729 -0.657861 22.512058
v 24.428713 -0.684064 22.517170
v 24.425817 -0.706278 22.531729
v 24.421484 -0.721121 22.553514
v 24.426399 -0.594602 22.555006
v 24.434900 -0.609445 22.534483
v 24.440580 -0.631659 22.520771
v 24.442574 -0.657861 22.515955
v 24.440580 -0.684064 22.520771
v 24.434900 -0.706278 22.534483
v 24.426399 -0.721121 22.555006
v 24.430929 -0.594602 22.557428
v 24.443270 -0.609445 22.538958
v 24.451517 -0.631659 22.526617
v 24.454412 -0.657861 22.522284
v 24.451517 -0.684064 22.526617
v 24.443270 -0.706278 22.538958
v 24.430929 -0.721121 22.557428
v 24.434900 -0.594602 22.560686
v 24.450607 -0.609445 22.544979
v 24.461102 -0.631659 22.534483
v 24.464788 -0.657861 22.530798
v 24.461102 -0.684064 22.534483
v 24.450607 -0.706278 22.544979
v 24.434900 -0.721121 22.560686
v 24.438158 -0.594602 22.564657
v 24.456629 -0.609445 22.552315
v 24.468969 -0.631659 22.544069
v 24.473303 -0.657861 22.541174
v 24.468969 -0.684064 22.544069
v 24.456629 -0.706278 22.552315
v 24.438158 -0.721121 22.564657
v 24.440580 -0.594602 22.569187
v 24.461102 -0.609445 22.560686
v 24.474815 -0.631659 22.555006
v 24.479631 -0.657861 22.553011
v 24.474815 -0.684064 22.555006
v 24.461102 -0.706278 22.560686
v 24.440580 -0.721121 22.569187
v 24.442070 -0.594602 22.574102
v 24.463858 -0.609445 22.569769
v 24.478415 -0.631659 22.566874
v 24.483526 -0.657861 22.565857
v 24.478415 -0.684064 22.566874
v 24.463858 -0.706278 22.569769
v 24.442070 -0.721121 22.574102
v 24.416372 -0.726332 22.579214
v 24.442574 -0.594602 22.579214
v 24.464788 -0.609445 22.579214
v 24.479631 -0.631659 22.579214
v 24.484842 -0.657861 22.579214
v 24.479631 -0.684064 22.579214
v 24.464788 -0.706278 22.579214
v 24.442574 -0.721121 22.579214
v 24.442070 -0.594602 22.584326
v 24.463858 -0.609445 22.588659
v 24.478415 -0.631659 22.591555
v 24.483526 -0.657861 22.592573
v 24.478415 -0.684064 22.591555
v 24.463858 -0.706278 22.588659
v 24.442070 -0.721121 22.584326
v 24.440580 -0.594602 22.589241
v 24.461102 -0.609445 22.597742
v 24.474815 -0.631659 22.603422
v 24.479631 -0.657861 22.605417
v 24.474815 -0.684064 22.603422
v 24.461102 -0.706278 22.597742
v 24.440580 -0.721121 22.589241
v 24.438158 -0.594602 22.593771
v 24.456629 -0.609445 22.606113
v 24.468969 -0.631659 22.614359
v 24.473303 -0.657861 22.617254
v 24.468969 -0.684064 22.614359
v 24.456629 -0.706278 22.606113
v 24.438158 -0.721121 22.593771
v 24.434900 -0.594602 22.597742
v 24.450607 -0.609445 22.613449
v 24.461102 -0.631659 22.623945
v 24.464788 -0.657861 22.627630
v 24.461102 -0.684064 22.623945
v 24.450607 -0.706278 22.613449
v 24.434900 -0.721121 22.597742
v 24.430929 -0.594602 22.601002
v 24.443270 -0.609445 22.619471
v 24.451517 -0.631659 22.631813
v 24.454412 -0.657861 22.636147
v 24.451517 -0.684064 22.631813
v 24.443270 -0.706278 22.619471
v 24.430929 -0.721121 22.601002
v 24.426399 -0.594602 22.603422
v 24.434900 -0.609445 22.623945
v 24.440580 -0.631659 22.637657
v 24.442574 -0.657861 22.642473
v 24.440580 -0.684064 22.637657
v 24.434900 -0.706278 22.623945
v 24.426399 -0.721121 22.603422
v 24.421484 -0.594602 22.604914
v 24.425817 -0.609445 22.626699
v 24.428713 -0.631659 22.641258
v 24.429729 -0.657861 22.646370
v 24.428713 -0.684064 22.641258
v 24.425817 -0.706278 22.626699
v 24.421484 -0.721121 22.604914
v 24.416372 -0.594602 22.605417
v 24.416372 -0.609445 22.627630
v 24.416372 -0.631659 22.642473
v 24.416372 -0.657861 22.647686
v 24.416372 -0.684064 22.642473
v 24.416372 -0.706278 22.627630
v 24.416372 -0.721121 22.605417
v 24.411261 -0.594602 22.604914
v 24.406925 -0.609445 22.626699
v 24.404030 -0.631659 22.641258
v 24.403013 -0.657861 22.646370
v 24.404030 -0.684064 22.641258
v 24.406925 -0.706278 22.626699
v 24.411261 -0.721121 22.604914
v 24.406343 -0.594602 22.603422
v 24.397844 -0.609445 22.623945
v 24.392164 -0.631659 22.637657
v 24.390169 -0.657861 22.642473
v 24.392164 -0.684064 22.637657
v 24.397844 -0.706278 22.623945
v 24.406343 -0.721121 22.603422
v 24.401814 -0.594602 22.601002
v 24.389473 -0.609445 22.619471
v 24.381227 -0.631659 22.631813
v 24.378330 -0.657861 22.636147
v 24.381227 -0.684064 22.631813
v 24.389473 -0.706278 22.619471
v 24.401814 -0.721121 22.601002
v 24.397844 -0.594602 22.597742
v 24.382135 -0.609445 22.613449
v 24.371641 -0.631659 22.623945
v 24.367956 -0.657861 22.627630
v 24.371641 -0.684064 22.623945
v 24.382135 -0.706278 22.613449
v 24.397844 -0.721121 22.597742
v 24.416372 -0.589391 22.579214
v 24.394585 -0.594602 22.593771
v 24.376116 -0.609445 22.606113
v 24.363773 -0.631659 22.614359
v 24.359440 -0.657861 22.617254
v 24.363773 -0.684064 22.614359
v 24.376116 -0.706278 22.606113
v 24.394585 -0.721121 22.593771
v 24.392164 -0.594602 22.589241
v 24.371641 -0.609445 22.597742
v 24.357927 -0.631659 22.603422
v 24.353113 -0.657861 22.605417
v 24.357927 -0.684064 22.603422
v 24.371641 -0.706278 22.597742
v 24.392164 -0.721121 22.589241
v 24.390673 -0.594602 22.584326
v 24.368885 -0.609445 22.588659
v 24.354328 -0.631659 22.591555
v 24.349216 -0.657861 22.592573
v 24.354328 -0.684064 22.591555
v 24.368885 -0.706278 22.588659
v 24.390673 -0.721121 22.584326
v 24.390169 -0.594602 22.579214
v 24.367956 -0.609445 22.579214
v 24.353113 -0.631659 22.579214
v 24.347900 -0.657861 22.579214
v 24.353113 -0.684064 22.579214
v 24.367956 -0.706278 22.579214
v 24.390169 -0.721121 22.579214
v 24.390673 -0.594602 22.574102
v 24.368885 -0.609445 22.569769
v 24.354328 -0.631659 22.566874
v 24.349216 -0.657861 22.565857
v 24.354328 -0.684064 22.566874
v 24.368885 -0.706278 22.569769
v 24.390673 -0.721121 22.574102
v 24.392164 -0.594602 22.569187
v 24.371641 -0.609445 22.560686
v 24.357927 -0.631659 22.555006
v 24.353113 -0.657861 22.553011
v 24.357927 -0.684064 22.555006
v 24.371641 -0.706278 22.560686
v 24.392164 -0.721121 22.569187
v 24.394585 -0.594602 22.564657
v 24.376116 -0.609445 22.552315
v 24.363773 -0.631659 22.544069
v 24.359440 -0.657861 22.541174
v 24.363773 -0.684064 22.544069
v 24.376116 -0.706278 22.552315
v 24.394585 -0.721121 22.564657
v 24.397844 -0.594602 22.560686
v 24.382135 -0.609445 22.544979
v 24.371641 -0.631659 22.534483
v 24.367956 -0.657861 22.530798
v 24.371641 -0.684064 22.534483
v 24.382135 -0.706278 22.544979
v 24.397844 -0.721121 22.560686
v 24.401814 -0.594602 22.557428
v 24.389473 -0.609445 22.538958
v 24.381227 -0.631659 22.526617
v 24.378332 -0.657861 22.522284
v 24.381227 -0.684064 22.526617
v 24.389473 -0.706278 22.538958
v 24.401814 -0.721121 22.557428
v 24.406343 -0.594602 22.555006
v 24.397844 -0.609445 22.534483
v 24.392164 -0.631659 22.520771
v 24.390169 -0.657861 22.515955
v 24.392164 -0.684064 22.520771
v 24.397844 -0.706278 22.534483
v 24.406343 -0.721121 22.555006
v 24.411261 -0.594602 22.553514
v 24.406925 -0.609445 22.531729
v 24.404030 -0.631659 22.517170
v 24.403013 -0.657861 22.512058
v 24.404030 -0.684064 22.517170
v 24.406925 -0.706278 22.531729
v 24.411261 -0.721121 22.553514
v 24.416372 -0.594602 22.553011
v 24.416372 -0.631659 22.515955
v 24.416372 -0.684064 22.515955
v 24.416372 -0.706278 22.530798
v 24.416372 -0.721121 22.553011
v 26.525072 -0.609445 22.530798
v 26.525072 -0.657861 22.510744
v 26.530186 -0.594602 22.553514
v 26.534519 -0.609445 22.531729
v 26.537415 -0.631659 22.517170
v 26.538431 -0.657861 22.512058
v 26.537415 -0.684064 22.517170
v 26.534519 -0.706278 22.531729
v 26.530186 -0.721121 22.553514
v 26.535101 -0.594602 22.555006
v 26.543600 -0.609445 22.534483
v 26.549280 -0.631659 22.520771
v 26.551275 -0.657861 22.515955
v 26.549280 -0.684064 22.520771
v 26.543600 -0.706278 22.534483
v 26.535101 -0.721121 22.555006
v 26.539631 -0.594602 22.557428
v 26.551971 -0.609445 22.538958
v 26.560217 -0.631659 22.526617
v 26.563114 -0.657861 22.522284
v 26.560217 -0.684064 22.526617
v 26.551971 -0.706278 22.538958
v 26.539631 -0.721121 22.557428
v 26.543600 -0.594602 22.560686
v 26.559309 -0.609445 22.544979
v 26.569803 -0.631659 22.534483
v 26.573490 -0.657861 22.530798
v 26.569803 -0.684064 22.534483
v 26.559309 -0.706278 22.544979
v 26.543600 -0.721121 22.560686
v 26.546860 -0.594602 22.564657
v 26.565331 -0.609445 22.552315
v 26.577671 -0.631659 22.544069
v 26.582005 -0.657861 22.541174
v 26.577671 -0.684064 22.544069
v 26.565331 -0.706278 22.552315
v 26.546860 -0.721121 22.564657
v 26.549280 -0.594602 22.569187
v 26.569803 -0.609445 22.560686
v 26.583517 -0.631659 22.555006
v 26.588331 -0.657861 22.553011
v 26.583517 -0.684064 22.555006
v 26.569803 -0.706278 22.560686
v 26.549280 -0.721121 22.569187
v 26.550772 -0.594602 22.574102
v 26.572559 -0.609445 22.569769
v 26.587116 -0.631659 22.566874
v 26.592228 -0.657861 22.565857
v 26.587116 -0.684064 22.566874
v 26.572559 -0.706278 22.569769
v 26.550772 -0.721121 22.574102
v 26.525072 -0.726332 22.579214
v 26.551275 -0.594602 22.579214
v 26.573490 -0.609445 22.579214
v 26.588331 -0.631659 22.579214
v 26.593544 -0.657861 22.579214
v 26.588331 -0.684064 22.579214
v 26.573490 -0.706278 22.579214
v 26.551275 -0.721121 22.579214
v 26.550772 -0.594602 22.584326
v 26.572559 -0.609445 22.588659
v 26.587116 -0.631659 22.591555
v 26.592228 -0.657861 22.592573
v 26.587116 -0.684064 22.591555
v 26.572559 -0.706278 22.588659
v 26.550772 -0.721121 22.584326
v 26.549280 -0.594602 22.589241
v 26.569803 -0.609445 22.597742
v 26.583517 -0.631659 22.603422
v 26.588331 -0.657861 22.605417
v 26.583517 -0.684064 22.603422
v 26.569803 -0.706278 22.597742
v 26.549280 -0.721121 22.589241
v 26.546860 -0.594602 22.593771
v 26.565331 -0.609445 22.606113
v 26.577671 -0.631659 22.614359
v 26.582005 -0.657861 22.617254
v 26.577671 -0.684064 22.614359
v 26.565331 -0.706278 22.606113
v 26.546860 -0.721121 22.593771
v 26.543600 -0.594602 22.597742
v 26.559309 -0.609445 22.613449
v 26.569803 -0.631659 22.623945
v 26.573490 -0.657861 22.627630
v 26.569803 -0.684064 22.623945
v 26.559309 -0.706278 22.613449
v 26.543600 -0.721121 22.597742
v 26.539631 -0.594602 22.601002
v 26.551971 -0.609445 22.619471
v 26.560217 -0.631659 22.631813
v 26.563114 -0.657861 22.636147
v 26.560217 -0.684064 22.631813
v 26.551971 -0.706278 22.619471
v 26.539631 -0.721121 22.601002
v 26.535101 -0.594602 22.603422
v 26.543600 -0.609445 22.623945
v 26.549280 -0.631659 22.637657
v 26.551275 -0.657861 22.642473
v 26.549280 -0.684064 22.637657
v 26.543600 -0.706278 22.623945
v 26.535101 -0.721121 22.603422
v 26.530186 -0.594602 22.604914
v 26.534519 -0.609445 22.626699
v 26.537415 -0.631659 22.641258
v 26.538431 -0.657861 22.646370
v 26.537415 -0.684064 22.641258
v 26.534519 -0.706278 22.626699
v 26.530186 -0.721121 22.604914
v 26.525072 -0.594602 22.605417
v 26.525072 -0.609445 22.627630
v 26.525072 -0.631659 22.642473
v 26.525072 -0.657861 22.647686
v 26.525072 -0.684064 22.642473
v 26.525072 -0.706278 22.627630
v 26.525072 -0.721121 22.605417
v 26.519960 -0.594602 22.604914
v 26.515627 -0.609445 22.626699
v 26.512732 -0.631659 22.641258
v 26.511715 -0.657861 22.646370
v 26.512732 -0.684064 22.641258
v 26.515627 -0.706278 22.626699
v 26.519960 -0.721121 22.604914
v 26.515045 -0.594602 22.603422
v 26.506544 -0.609445 22.623945
v 26.500864 -0.631659 22.637657
v 26.498871 -0.657861 22.642473
v 26.500864 -0.684064 22.637657
v 26.506544 -0.706278 22.623945
v 26.515045 -0.721121 22.603422
v 26.510515 -0.594602 22.601002
v 26.498175 -0.609445 22.619471
v 26.489927 -0.631659 22.631813
v 26.487032 -0.657861 22.636147
v 26.489927 -0.684064 22.631813
v 26.498175 -0.706278 22.619471
v 26.510515 -0.721121 22.601002
v 26.506544 -0.594602 22.597742
v 26.490837 -0.609445 22.613449
v 26.480343 -0.631659 22.623945
v 26.476656 -0.657861 22.627630
v 26.480343 -0.684064 22.623945
v 26.490837 -0.706278 22.613449
v 26.506544 -0.721121 22.597742
v 26.525072 -0.589391 22.579214
v 26.503286 -0.594602 22.593771
v 26.484816 -0.609445 22.606113
v 26.472475 -0.631659 22.614359
v 26.468142 -0.657861 22.617254
v 26.472475 -0.684064 22.614359
v 26.484816 -0.706278 22.606113
v 26.503286 -0.721121 22.593771
v 26.500864 -0.594602 22.589241
v 26.480343 -0.609445 22.597742
v 26.466629 -0.631659 22.603422
v 26.461815 -0.657861 22.605417
v 26.466629 -0.684064 22.603422
v 26.480343 -0.706278 22.597742
v 26.500864 -0.721121 22.589241
v 26.499374 -0.594602 22.584326
v 26.477587 -0.609445 22.588659
v 26.463030 -0.631659 22.591555
v 26.457918 -0.657861 22.592573
v 26.463030 -0.684064 22.591555
v 26.477587 -0.706278 22.588659
v 26.499374 -0.721121 22.584326
v 26.498871 -0.594602 22.579214
v 26.476656 -0.609445 22.579214
v 26.461815 -0.631659 22.579214
v 26.456602 -0.657861 22.579214
v 26.461815 -0.684064 22.579214
v 26.476656 -0.706278 22.579214
v 26.498871 -0.721121 22.579214
v 26.499374 -0.594602 22.574102
v 26.477587 -0.609445 22.569769
v 26.463030 -0.631659 22.566874
v 26.457918 -0.657861 22.565857
v 26.463030 -0.684064 22.566874
v 26.477587 -0.706278 22.569769
v 26.499374 -0.721121 22.574102
v 26.500864 -0.594602 22.569187
v 26.480343 -0.609445 22.560686
v 26.466629 -0.631659 22.555006
v 26.461815 -0.657861 22.553011
v 26.466629 -0.684064 22.555006
v 26.480343 -0.706278 22.560686
v 26.500864 -0.721121 22.569187
v 26.503286 -0.594602 22.564657
v 26.484816 -0.609445 22.552315
v 26.472475 -0.631659 22.544069
v 26.468142 -0.657861 22.541174
v 26.472475 -0.684064 22.544069
v 26.484816 -0.706278 22.552315
v 26.503286 -0.721121 22.564657
v 26.506544 -0.594602 22.560686
v 26.490837 -0.609445 22.544979
v 26.480343 -0.631659 22.534483
v 26.476656 -0.657861 22.530798
v 26.480343 -0.684064 22.534483
v 26.490837 -0.706278 22.544979
v 26.506544 -0.721121 22.560686
v 26.510515 -0.594602 22.557428
v 26.498175 -0.609445 22.538958
v 26.489927 -0.631659 22.526617
v 26.487032 -0.657861 22.522284
v 26.489927 -0.684064 22.526617
v 26.498175 -0.706278 22.538958
v 26.510515 -0.721121 22.557428
v 26.515045 -0.594602 22.555006
v 26.506544 -0.609445 22.534483
v 26.500864 -0.631659 22.520771
v 26.498871 -0.657861 22.515955
v 26.500864 -0.684064 22.520771
v 26.506544 -0.706278 22.534483
v 26.515045 -0.721121 22.555006
v 26.519960 -0.594602 22.553514
v 26.515627 -0.609445 22.531729
v 26.512732 -0.631659 22.517170
v 26.511715 -0.657861 22.512058
v 26.512732 -0.684064 22.517170
v 26.515627 -0.706278 22.531729
v 26.519960 -0.721121 22.553514
v 26.525072 -0.594602 22.553011
v 26.525072 -0.631659 22.515955
v 26.525072 -0.684064 22.515955
v 26.525072 -0.706278 22.530798
v 26.525072 -0.721121 22.553011
v 23.022930 -1.752603 25.510977
v 23.052931 -1.782603 25.510977
v 23.052931 -1.752603 25.540976
v 23.031717 -1.773816 25.510977
v 23.035610 -1.769923 25.528297
v 23.052929 -1.773816 25.532190
v 23.031717 -1.752603 25.532190
v 23.052931 7.068754 25.540976
v 23.052931 7.098754 25.510977
v 23.022930 7.068754 25.510977
v 23.052931 7.089967 25.532190
v 23.035610 7.086074 25.528297
v 23.031717 7.089967 25.510977
v 23.031717 7.068753 25.532190
v 23.052931 -1.782603 22.768379
v 23.022930 -1.752603 22.768379
v 23.055508 -1.759837 22.738379
v 23.031717 -1.773816 22.768379
v 23.036182 -1.771427 22.751059
v 23.032440 -1.756088 22.747210
v 23.054373 -1.775824 22.747068
v 23.022930 7.068754 22.768379
v 23.052931 7.098754 22.768379
v 23.055508 7.075988 22.738379
v 23.031715 7.089967 22.768379
v 23.036184 7.087578 22.751059
v 23.054373 7.091974 22.747068
v 23.032440 7.072239 22.747210
v 27.620270 -1.782603 25.510977
v 27.650270 -1.752603 25.510977
v 27.620270 -1.752603 25.540976
v 27.641483 -1.773816 25.510977
v 27.637590 -1.769923 25.528297
v 27.641483 -1.752603 25.532190
v 27.620270 -1.773816 25.532190
v 27.650270 7.068754 25.510977
v 27.620270 7.098754 25.510977
v 27.620270 7.068754 25.540976
v 27.641483 7.089967 25.510977
v 27.637590 7.086074 25.528297
v 27.620270 7.089967 25.532190
v 27.641483 7.068753 25.532190
v 27.617693 -1.759837 22.738379
v 27.650270 -1.752603 22.768379
v 27.620270 -1.782603 22.768379
v 27.640759 -1.756088 22.747210
v 27.637016 -1.771426 22.751059
v 27.641483 -1.773816 22.768379
v 27.618828 -1.775824 22.747068
v 27.620270 7.098754 22.768379
v 27.650270 7.068754 22.768379
v 27.617693 7.075988 22.738379
v 27.641483 7.089967 22.768379
v 27.637016 7.087578 22.751059
v 27.640759 7.072239 22.747210
v 27.618828 7.091975 22.747068
v 23.052931 2.658076 22.738379
v 23.055408 0.437737 22.738379
v 27.617792 4.878415 22.738379
v 27.620270 2.658076 22.738379
v 27.617792 0.437737 22.738379
v 23.338728 5.129102 22.768379
v 23.368729 5.099102 22.768379
v 23.304485 5.075172 22.738379
v 23.347515 5.107888 22.768379
v 23.337217 5.100690 22.751059
v 23.333574 5.092057 22.747137
v 23.328728 5.103662 22.747204
v 23.338728 6.848067 22.768379
v 23.304485 6.901997 22.738379
v 23.368729 6.878068 22.768379
v 23.328728 6.873508 22.747204
v 23.337217 6.876480 22.751059
v 23.333574 6.885111 22.747137
v 23.347515 6.869282 22.768379
v 27.304472 6.878068 22.768379
v 27.368713 6.901997 22.738379
v 27.334473 6.848067 22.768379
v 27.339626 6.885111 22.747137
v 27.335983 6.876480 22.751059
v 27.344473 6.873508 22.747204
v 27.325686 6.869282 22.768379
v 27.304472 5.099102 22.768379
v 27.334473 5.129102 22.768379
v 27.368713 5.075172 22.738379
v 27.325686 5.107888 22.768379
v 27.335983 5.100690 22.751059
v 27.344473 5.103661 22.747204
v 27.339626 5.092057 22.747137
v 23.338728 0.688423 22.768379
v 23.368729 0.658423 22.768379
v 23.304485 0.634494 22.738379
v 23.347515 0.667210 22.768379
v 23.337217 0.660011 22.751059
v 23.333574 0.651380 22.747137
v 23.328728 0.662983 22.747204
v 23.338728 2.407389 22.768379
v 23.304485 2.461318 22.738379
v 23.368729 2.437389 22.768379
v 23.328728 2.432830 22.747204
v 23.337217 2.435802 22.751059
v 23.333574 2.444433 22.747137
v 23.347515 2.428603 22.768379
v 27.304472 2.437389 22.768379
v 27.368713 2.461318 22.738379
v 27.334473 2.407389 22.768379
v 27.339626 2.444433 22.747137
v 27.335983 2.435802 22.751059
v 27.344473 2.432830 22.747204
v 27.325686 2.428603 22.768379
v 27.304472 0.658423 22.768379
v 27.334473 0.688423 22.768379
v 27.368713 0.634494 22.738379
v 27.325686 0.667210 22.768379
v 27.335983 0.660011 22.751059
v 27.344473 0.662983 22.747204
v 27.339626 0.651379 22.747137
v 23.338728 2.908762 22.768379
v 23.368729 2.878762 22.768379
v 23.304485 2.854833 22.738379
v 23.347515 2.887549 22.768379
v 23.337217 2.880350 22.751059
v 23.333574 2.871718 22.747137
v 23.328728 2.883322 22.747204
v 23.338728 4.627728 22.768379
v 23.304485 4.681657 22.738379
v 23.368729 4.657728 22.768379
v 23.328728 4.653169 22.747204
v 23.337217 4.656140 22.751059
v 23.333574 4.664772 22.747137
v 23.347515 4.648941 22.768379
v 27.304472 4.657728 22.768379
v 27.368713 4.681657 22.738379
v 27.334473 4.627728 22.768379
v 27.339626 4.664772 22.747137
v 27.335983 4.656140 22.751059
v 27.344473 4.653169 22.747204
v 27.325686 4.648941 22.768379
v 27.304472 2.878762 22.768379
v 27.334473 2.908762 22.768379
v 27.368713 2.854833 22.738379
v 27.325686 2.887549 22.768379
v 27.335983 2.880350 22.751059
v 27.344473 2.883322 22.747204
v 27.339626 2.871718 22.747137
v 23.338728 6.848067 25.098471
v 23.368729 6.878068 25.098471
v 23.368729 6.848067 25.128471
v 23.347515 6.869281 25.098473
v 23.351408 6.865388 25.115791
v 23.368729 6.869281 25.119684
v 23.347515 6.848067 25.119684
v 23.338728 5.129102 25.098471
v 23.368729 5.129102 25.128471
v 23.368729 5.099102 25.098471
v 23.347515 5.129102 25.119684
v 23.351408 5.111781 25.115791
v 23.368729 5.107888 25.119684
v 23.347515 5.107888 25.098473
v 27.304472 5.099102 25.098471
v 27.304472 5.129102 25.128471
v 27.334473 5.129102 25.098471
v 27.304472 5.107889 25.119684
v 27.321793 5.111782 25.115791
v 27.325686 5.129102 25.119684
v 27.325686 5.107889 25.098473
v 27.304472 6.878068 25.098471
v 27.334473 6.848067 25.098471
v 27.304472 6.848067 25.128471
v 27.325686 6.869281 25.098473
v 27.321793 6.865388 25.115791
v 27.325686 6.848067 25.119684
v 27.304472 6.869281 25.119684
v 23.338728 2.407389 25.098471
v 23.368729 2.437389 25.098471
v 23.368729 2.407389 25.128471
v 23.347515 2.428603 25.098473
v 23.351408 2.424710 25.115791
v 23.368729 2.428603 25.119684
v 23.347515 2.407389 25.119684
v 23.338728 0.688423 25.098471
v 23.368729 0.688423 25.128471
v 23.368729 0.658423 25.098471
v 23.347515 0.688423 25.119684
v 23.351408 0.671103 25.115791
v 23.368729 0.667210 25.119684
v 23.347515 0.667210 25.098473
v 27.304472 0.658423 25.098471
v 27.304472 0.688423 25.128471
v 27.334473 0.688423 25.098471
v 27.304472 0.667210 25.119684
v 27.321793 0.671103 25.115791
v 27.325686 0.688423 25.119684
v 27.325686 0.667210 25.098473
v 27.304472 2.437389 25.098471
v 27.334473 2.407389 25.098471
v 27.304472 2.407389 25.128471
v 27.325686 2.428603 25.098473
v 27.321793 2.424710 25.115791
v 27.325686 2.407389 25.119684
v 27.304472 2.428603 25.119684
v 23.338728 4.627728 25.098471
v 23.368729 4.657728 25.098471
v 23.368729 4.627728 25.128471
v 23.347515 4.648942 25.098473
v 23.351408 4.645049 25.115791
v 23.368729 4.648942 25.119684
v 23.347515 4.627728 25.119684
v 23.338728 2.908762 25.098471
v 23.368729 2.908762 25.128471
v 23.368729 2.878762 25.098471
v 23.347515 2.908762 25.119684
v 23.351408 2.891442 25.115791
v 23.368729 2.887549 25.119684
v 23.347515 2.887549 25.098473
v 27.304472 2.878762 25.098471
v 27.304472 2.908762 25.128471
v 27.334473 2.908762 25.098471
v 27.304472 2.887549 25.119684
v 27.321793 2.891442 25.115791
v 27.325686 2.908762 25.119684
v 27.325686 2.887549 25.098473
v 27.304472 4.657728 25.098471
v 27.334473 4.627728 25.098471
v 27.304472 4.627728 25.128471
v 27.325686 4.648942 25.098473
v 27.321793 4.645049 25.115791
v 27.325686 4.627728 25.119684
v 27.304472 4.648942 25.119684
v 23.332129 -1.536527 22.708380
v 23.362129 -1.566527 22.708380
v 23.297886 -1.590456 22.738379
v 23.340916 -1.557740 22.708380
v 23.330618 -1.564939 22.725700
v 23.326975 -1.573570 22.729622
v 23.322128 -1.561967 22.729555
v 23.332129 0.191662 22.708380
v 23.297886 0.245592 22.738379
v 23.362129 0.221662 22.708380
v 23.322128 0.217103 22.729555
v 23.330618 0.220074 22.725700
v 23.326975 0.228706 22.729622
v 23.340916 0.212876 22.708380
v 25.153755 0.221662 22.708380
v 25.217999 0.245592 22.738379
v 25.183756 0.191662 22.708380
v 25.188910 0.228706 22.729622
v 25.185266 0.220074 22.725700
v 25.193756 0.217103 22.729555
v 25.174969 0.212876 22.708380
v 25.153755 -1.566527 22.708380
v 25.183756 -1.536527 22.708380
v 25.217999 -1.590456 22.738379
v 25.174969 -1.557740 22.708380
v 25.185266 -1.564939 22.725700
v 25.193756 -1.561968 22.729555
v 25.188910 -1.573571 22.729622
v 25.489445 -1.536527 22.708380
v 25.519445 -1.566527 22.708380
v 25.455202 -1.590456 22.738379
v 25.498232 -1.557740 22.708380
v 25.487934 -1.564939 22.725700
v 25.484291 -1.573571 22.729622
v 25.479445 -1.561967 22.729555
v 25.489445 0.191662 22.708380
v 25.455202 0.245592 22.738379
v 25.519445 0.221662 22.708380
v 25.479445 0.217103 22.729555
v 25.487934 0.220074 22.725700
v 25.484291 0.228706 22.729622
v 25.498232 0.212876 22.708380
v 27.311071 0.221662 22.708380
v 27.375313 0.245592 22.738379
v 27.341072 0.191662 22.708380
v 27.346226 0.228706 22.729622
v 27.342583 0.220074 22.725700
v 27.351072 0.217103 22.729555
v 27.332285 0.212876 22.708380
v 27.311071 -1.566527 22.708380
v 27.341072 -1.536527 22.708380
v 27.375313 -1.590456 22.738379
v 27.332285 -1.557740 22.708380
v 27.342583 -1.564939 22.725700
v 27.351072 -1.561967 22.729555
v 27.346226 -1.573570 22.729622
v 23.332129 0.191662 22.599833
v 23.362129 0.221662 22.599833
v 23.362129 0.191662 22.569834
v 23.340916 0.212876 22.599833
v 23.344809 0.208983 22.582512
v 23.362129 0.212876 22.578619
v 23.340916 0.191662 22.578619
v 23.332129 -1.536527 22.599833
v 23.362129 -1.536527 22.569834
v 23.362129 -1.566527 22.599833
v 23.340916 -1.536527 22.578619
v 23.344809 -1.553847 22.582512
v 23.362129 -1.557740 22.578619
v 23.340916 -1.557740 22.599833
v 25.153755 -1.566527 22.599833
v 25.153755 -1.536527 22.569834
v 25.183756 -1.536527 22.599833
v 25.153755 -1.557740 22.578619
v 25.171076 -1.553847 22.582512
v 25.174969 -1.536526 22.578619
v 25.174969 -1.557740 22.599833
v 25.153755 0.221662 22.599833
v 25.183756 0.191662 22.599833
v 25.153755 0.191662 22.569834
v 25.174969 0.212876 22.599833
v 25.171076 0.208983 22.582512
v 25.174969 0.191662 22.578619
v 25.153755 0.212876 22.578619
v 25.489445 -1.536527 22.599833
v 25.519445 -1.536527 22.569834
v 25.519445 -1.566527 22.599833
v 25.498232 -1.536527 22.578619
v 25.502125 -1.553847 22.582512
v 25.519445 -1.557740 22.578619
v 25.498232 -1.557740 22.599833
v 25.489445 0.191662 22.599833
v 25.519445 0.221662 22.599833
v 25.519445 0.191662 22.569834
v 25.498232 0.212876 22.599833
v 25.502125 0.208983 22.582512
v 25.519445 0.212876 22.578619
v 25.498232 0.191662 22.578619
v 27.311071 -1.566527 22.599833
v 27.311071 -1.536527 22.569834
v 27.341072 -1.536527 22.599833
v 27.311071 -1.557740 22.578619
v 27.328392 -1.553847 22.582512
v 27.332285 -1.536526 22.578619
v 27.332285 -1.557740 22.599833
v 27.311071 0.221662 22.599833
v 27.341072 0.191662 22.599833
v 27.311071 0.191662 22.569834
v 27.332285 0.212876 22.599833
v 27.328392 0.208983 22.582512
v 27.332285 0.191662 22.578619
v 27.311071 0.212876 22.578619
vn 0.1837 0.9725 -0.1432
vn -0.1836 0.9725 -0.1432
vn -0.1794 0.9673 0.1794
vn 0.1794 0.9673 0.1794
vn -0.9673 -0.1794 0.1794
vn -0.9673 0.1794 0.1794
vn -0.9669 0.1742 -0.1865
vn -0.9669 -0.1742 -0.1864
vn 0.2021 -0.0000 -0.9794
vn -0.0548 0.0490 -0.9973
vn -0.0548 -0.0490 -0.9973
vn 0.1664 0.0002 -0.9861
vn 0.1793 -0.1793 0.9673
vn 0.1793 0.1794 0.9673
vn -0.1793 0.1794 0.9673
vn -0.1793 -0.1793 0.9673
vn 0.9669 0.1742 -0.1865
vn 0.9673 0.1794 0.1794
vn 0.9673 -0.1794 0.1794
vn 0.9669 -0.1742 -0.1865
vn 0.1665 -0.0002 -0.9860
vn 0.9501 0.1556 -0.2705
vn 0.9501 -0.1556 -0.2705
vn 0.9673 -0.1794 -0.1794
vn 0.9673 0.1794 -0.1794
vn 0.1504 -0.9636 -0.2208
vn -0.1504 -0.9636 -0.2208
vn -0.1794 -0.9673 -0.1794
vn 0.1794 -0.9673 -0.1794
vn -0.9501 -0.1556 -0.2705
vn -0.9501 0.1556 -0.2705
vn -0.9673 0.1794 -0.1794
vn -0.9673 -0.1794 -0.1794
vn -0.1836 -0.9725 -0.1432
vn 0.1837 -0.9725 -0.1432
vn 0.1794 -0.9673 0.1794
vn -0.1794 -0.9673 0.1793
vn 0.1731 0.2276 -0.9582
vn -0.1504 0.9636 -0.2208
vn 0.1504 0.9636 -0.2208
vn 0.1794 0.9673 -0.1794
vn -0.1794 0.9673 -0.1794
vn -0.9673 0.1794 -0.1793
vn 0.1504 -0.9637 -0.2208
vn -0.1504 -0.9637 -0.2208
vn 0.1504 0.9637 -0.2208
vn -0.9501 0.1556 -0.2704
vn 0.1794 0.1794 -0.9673
vn 0.1794 -0.1794 -0.9673
vn -0.1794 -0.1794 -0.9673
vn -0.1794 0.1794 -0.9673
vn -0.1504 0.9637 -0.2208
vn -0.1793 -0.1794 -0.9673
vn -0.1793 0.1794 -0.9673
vn 0.1793 0.1794 -0.9673
vn 0.1793 -0.1794 -0.9673
vn -0.0548 -0.0489 -0.9973
vn 0.1731 -0.2277 -0.9582
vn 0.0548 -0.0490 -0.9973
vn -0.0000 -0.7010 -0.7131
vn -0.0000 -0.3784 -0.9256
vn 0.1806 -0.3784 -0.9078
vn 0.1391 -0.7011 -0.6994
vn -0.0000 -0.0000 -1.0000
vn -0.0000 0.3784 -0.9256
vn 0.1806 0.3784 -0.9079
vn 0.1951 -0.0000 -0.9808
vn -0.0000 0.7010 -0.7131
vn -0.0045 0.9199 -0.3922
vn 0.0767 0.9195 -0.3854
vn 0.1391 0.7011 -0.6994
vn -0.0045 -0.9199 -0.3922
vn 0.0767 -0.9195 -0.3854
vn 0.1504 0.9195 -0.3631
vn 0.2729 0.7011 -0.6588
vn 0.2729 -0.7011 -0.6588
vn 0.1504 -0.9195 -0.3631
vn 0.3827 -0.0000 -0.9239
vn 0.3542 -0.3784 -0.8552
vn 0.3543 0.3785 -0.8551
vn 0.3962 -0.7010 -0.5929
vn 0.2183 -0.9195 -0.3268
vn 0.5556 -0.0000 -0.8315
vn 0.5143 -0.3784 -0.7696
vn 0.3962 0.7010 -0.5929
vn 0.5143 0.3785 -0.7696
vn 0.2805 -0.9199 -0.2742
vn -0.0000 -1.0000 -0.0000
vn 0.2183 0.9195 -0.3268
vn 0.6545 -0.3784 -0.6545
vn 0.5042 -0.7011 -0.5042
vn 0.6545 0.3784 -0.6545
vn 0.7071 -0.0000 -0.7071
vn 0.2805 0.9199 -0.2742
vn 0.5042 0.7011 -0.5043
vn 0.7696 -0.3785 -0.5143
vn 0.5929 -0.7011 -0.3962
vn 0.7696 0.3785 -0.5143
vn 0.8315 -0.0000 -0.5556
vn 0.3268 0.9195 -0.2183
vn 0.5929 0.7011 -0.3961
vn 0.3268 -0.9195 -0.2183
vn 0.3607 -0.9198 -0.1543
vn 0.0767 -0.9195 0.3855
vn 0.1504 -0.9195 0.3631
vn 0.6588 -0.7010 -0.2729
vn 0.9239 -0.0000 -0.3826
vn 0.8552 -0.3784 -0.3542
vn 0.6588 0.7011 -0.2729
vn 0.8552 0.3785 -0.3542
vn 0.3606 0.9198 -0.1543
vn 0.9808 -0.0000 -0.1951
vn 0.9078 -0.3785 -0.1806
vn 0.6994 0.7010 -0.1392
vn 0.9079 0.3784 -0.1806
vn -0.3930 -0.9196 -0.0000
vn -0.3854 -0.9196 0.0767
vn 0.6994 -0.7010 -0.1392
vn 0.3854 0.9195 -0.0767
vn 0.3855 -0.9195 -0.0767
vn 0.9256 -0.3784 -0.0000
vn 0.7131 -0.7011 -0.0000
vn 0.9256 0.3784 -0.0000
vn 1.0000 -0.0000 -0.0000
vn 0.3930 0.9196 -0.0000
vn 0.7131 0.7011 -0.0000
vn 0.3930 -0.9195 -0.0000
vn 0.9078 0.3784 0.1806
vn 0.9808 -0.0000 0.1951
vn 0.3854 0.9196 0.0767
vn 0.6994 0.7010 0.1392
vn 0.6994 -0.7011 0.1392
vn 0.3854 -0.9196 0.0767
vn 0.9078 -0.3785 0.1806
vn -0.3930 0.9195 -0.0000
vn -0.3854 0.9196 0.0767
vn -0.0000 1.0000 -0.0000
vn 0.6588 -0.7011 0.2729
vn 0.3631 -0.9195 0.1504
vn 0.9239 -0.0000 0.3827
vn 0.8552 -0.3785 0.3542
vn 0.6588 0.7010 0.2729
vn 0.8552 0.3784 0.3542
vn 0.3631 0.9195 0.1505
vn 0.5929 0.7011 0.3961
vn 0.7696 0.3784 0.5143
vn 0.7696 -0.3785 0.5143
vn 0.5929 -0.7011 0.3961
vn 0.8315 -0.0000 0.5556
vn 0.3268 0.9195 0.2183
vn 0.3267 -0.9196 0.2183
vn 0.6545 -0.3785 0.6545
vn 0.5042 -0.7011 0.5042
vn 0.6545 0.3785 0.6545
vn 0.7072 -0.0000 0.7071
vn 0.2779 0.9195 0.2779
vn 0.5042 0.7011 0.5042
vn 0.2779 -0.9195 0.2779
vn 0.2141 0.9198 0.3287
vn 0.3962 0.7011 0.5929
vn 0.3962 -0.7011 0.5929
vn 0.2141 -0.9198 0.3287
vn 0.5556 -0.0000 0.8315
vn 0.5143 -0.3784 0.7696
vn 0.5143 0.3784 0.7696
vn -0.2779 0.9195 0.2779
vn -0.3268 0.9196 0.2183
vn 0.2729 -0.7011 0.6588
vn 0.1504 -0.9195 0.3632
vn 0.3827 -0.0000 0.9239
vn 0.3542 -0.3784 0.8552
vn 0.2729 0.7011 0.6588
vn 0.3542 0.3785 0.8552
vn 0.3855 0.9195 -0.0767
vn 0.3631 0.9195 -0.1504
vn -0.3631 -0.9196 -0.1503
vn -0.3268 -0.9195 -0.2183
vn 0.1504 0.9195 0.3632
vn 0.1806 -0.3785 0.9078
vn 0.1391 -0.7011 0.6994
vn 0.1806 0.3784 0.9078
vn 0.1951 -0.0000 0.9808
vn 0.0810 0.9199 0.3838
vn 0.1391 0.7011 0.6994
vn 0.0810 -0.9199 0.3838
vn -0.0000 -0.3785 0.9256
vn -0.0000 -0.7010 0.7131
vn -0.0000 0.3785 0.9256
vn -0.0000 -0.0000 1.0000
vn -0.0000 0.9195 0.3930
vn -0.0000 0.7010 0.7131
vn -0.0000 -0.9195 0.3930
vn -0.1391 -0.7010 0.6994
vn -0.0767 -0.9196 0.3854
vn -0.1951 -0.0000 0.9808
vn -0.1806 -0.3784 0.9078
vn -0.1391 0.7010 0.6994
vn -0.1806 0.3785 0.9078
vn -0.0767 0.9196 0.3854
vn -0.3827 -0.0000 0.9239
vn -0.3542 -0.3785 0.8552
vn -0.2729 0.7010 0.6588
vn -0.3542 0.3784 0.8552
vn 0.3268 0.9195 -0.2184
vn 0.2779 0.9196 -0.2778
vn -0.2729 -0.7011 0.6588
vn -0.1504 0.9195 0.3631
vn -0.1504 -0.9196 0.3630
vn -0.5142 -0.3785 0.7696
vn -0.3962 -0.7011 0.5929
vn -0.5142 0.3784 0.7697
vn -0.5555 -0.0000 0.8315
vn -0.2184 0.9195 0.3268
vn -0.3962 0.7011 0.5929
vn -0.2184 -0.9195 0.3268
vn -0.6545 0.3784 0.6545
vn -0.7071 -0.0000 0.7071
vn -0.2779 0.9196 0.2779
vn -0.5042 0.7011 0.5042
vn -0.5042 -0.7011 0.5042
vn -0.2779 -0.9196 0.2779
vn -0.6545 -0.3785 0.6545
vn 0.2779 -0.9196 0.2778
vn 0.2183 -0.9196 0.3267
vn -0.5929 -0.7011 0.3962
vn -0.3268 -0.9195 0.2183
vn -0.8315 -0.0000 0.5556
vn -0.7696 -0.3784 0.5143
vn -0.5929 0.7011 0.3962
vn -0.7696 0.3784 0.5142
vn -0.6588 0.7011 0.2728
vn -0.8552 0.3784 0.3542
vn -0.1504 -0.9195 0.3631
vn -0.2141 -0.9199 0.3287
vn -0.0810 -0.9199 0.3838
vn -0.8552 -0.3784 0.3542
vn -0.6588 -0.7011 0.2728
vn -0.9239 -0.0000 0.3827
vn -0.3631 0.9196 0.1503
vn -0.3631 -0.9196 0.1503
vn -0.9078 -0.3785 0.1806
vn -0.6994 -0.7010 0.1391
vn -0.9078 0.3785 0.1806
vn -0.9808 -0.0000 0.1951
vn -0.3854 0.9195 0.0767
vn -0.6994 0.7011 0.1391
vn -0.3854 -0.9195 0.0767
vn -0.7131 0.7011 -0.0000
vn -0.7131 -0.7011 -0.0000
vn -0.3930 -0.9195 -0.0000
vn -1.0000 -0.0000 -0.0000
vn -0.9256 -0.3785 -0.0000
vn -0.9256 0.3785 -0.0000
vn -0.6994 -0.7011 -0.1391
vn -0.3854 -0.9195 -0.0767
vn -0.9808 -0.0000 -0.1951
vn -0.9078 -0.3785 -0.1806
vn -0.6994 0.7011 -0.1391
vn -0.9078 0.3785 -0.1806
vn -0.3855 0.9195 -0.0767
vn -0.8552 -0.3785 -0.3542
vn -0.6588 -0.7011 -0.2728
vn -0.8552 0.3785 -0.3542
vn -0.9239 -0.0000 -0.3827
vn -0.3631 0.9196 -0.1503
vn -0.6588 0.7011 -0.2729
vn -0.7696 -0.3784 -0.5143
vn -0.5929 -0.7011 -0.3962
vn -0.7696 0.3785 -0.5142
vn -0.8315 -0.0000 -0.5556
vn -0.3268 0.9195 -0.2183
vn -0.5929 0.7011 -0.3962
vn -0.5042 -0.7011 -0.5043
vn -0.2779 -0.9195 -0.2779
vn -0.7071 -0.0000 -0.7071
vn -0.6545 -0.3784 -0.6545
vn -0.5042 0.7011 -0.5042
vn -0.6545 0.3784 -0.6545
vn -0.0767 -0.9195 -0.3855
vn -0.1459 -0.9199 -0.3641
vn -0.2779 0.9195 -0.2779
vn -0.5555 -0.0000 -0.8315
vn -0.5142 -0.3784 -0.7696
vn -0.3962 0.7011 -0.5929
vn -0.5142 0.3784 -0.7697
vn -0.3962 -0.7011 -0.5929
vn -0.2183 0.9196 -0.3267
vn -0.2184 -0.9195 -0.3268
vn -0.2805 0.9199 -0.2742
vn -0.3543 -0.3784 -0.8552
vn -0.2729 -0.7011 -0.6588
vn -0.3543 0.3784 -0.8552
vn -0.3827 -0.0000 -0.9239
vn -0.1459 0.9199 -0.3641
vn -0.2729 0.7011 -0.6588
vn -0.1806 0.3784 -0.9078
vn -0.1951 -0.0000 -0.9808
vn -0.0767 0.9195 -0.3855
vn -0.1391 0.7011 -0.6994
vn -0.1391 -0.7011 -0.6994
vn -0.1806 -0.3784 -0.9079
vn -0.0721 0.9199 -0.3856
vn 0.0721 0.9199 -0.3855
vn -0.0000 0.9195 -0.3931
vn 0.1806 0.3784 -0.9078
vn -0.0000 -0.9195 -0.3931
vn 0.0721 -0.9199 -0.3855
vn -0.0721 -0.9199 -0.3856
vn 0.2729 -0.7010 -0.6588
vn 0.3828 -0.0000 -0.9238
vn 0.3543 -0.3784 -0.8552
vn 0.3542 0.3784 -0.8552
vn 0.3962 -0.7011 -0.5929
vn 0.2183 -0.9196 -0.3267
vn 0.5555 -0.0000 -0.8315
vn 0.5142 -0.3784 -0.7697
vn 0.3962 0.7011 -0.5929
vn 0.5142 0.3784 -0.7697
vn 0.2184 0.9196 -0.3267
vn 0.6545 -0.3784 -0.6546
vn 0.7071 -0.0000 -0.7072
vn 0.5042 0.7011 -0.5042
vn 0.2779 -0.9196 -0.2778
vn 0.7696 -0.3784 -0.5142
vn 0.7696 0.3785 -0.5142
vn 0.8315 -0.0000 -0.5555
vn 0.5929 0.7011 -0.3962
vn 0.3268 -0.9195 -0.2184
vn 0.6588 -0.7011 -0.2728
vn 0.3631 -0.9195 -0.1504
vn 0.9239 -0.0000 -0.3827
vn 0.6588 0.7011 -0.2728
vn 0.8552 0.3784 -0.3542
vn 0.9078 -0.3784 -0.1806
vn 0.6994 0.7011 -0.1391
vn 0.9078 0.3784 -0.1806
vn 0.6994 -0.7010 -0.1391
vn 0.9256 -0.3785 -0.0000
vn 0.9256 0.3785 -0.0000
vn 0.6994 0.7011 0.1391
vn 0.6994 -0.7011 0.1391
vn 0.3854 -0.9195 0.0767
vn 0.6588 -0.7011 0.2728
vn 0.3631 -0.9196 0.1504
vn 0.8552 -0.3784 0.3542
vn 0.6588 0.7011 0.2728
vn -0.2141 0.9199 0.3287
vn -0.0810 0.9199 0.3838
vn 0.3631 0.9195 0.1504
vn 0.5929 0.7010 0.3962
vn 0.7696 0.3784 0.5142
vn 0.7696 -0.3784 0.5142
vn 0.5929 -0.7011 0.3962
vn 0.8315 -0.0000 0.5555
vn 0.3268 0.9195 0.2184
vn 0.3267 -0.9195 0.2183
vn 0.7071 -0.0000 0.7071
vn 0.2779 0.9196 0.2778
vn 0.2183 0.9196 0.3267
vn 0.5555 -0.0000 0.8315
vn 0.5142 -0.3784 0.7697
vn 0.5142 0.3784 0.7697
vn 0.2729 -0.7010 0.6588
vn 0.2729 0.7010 0.6589
vn 0.3542 0.3784 0.8552
vn 0.1504 0.9195 0.3631
vn 0.1806 0.3785 0.9078
vn 0.0767 0.9195 0.3855
vn -0.1391 -0.7011 0.6994
vn -0.1391 0.7011 0.6994
vn -0.3542 -0.3785 0.8551
vn -0.2729 0.7011 0.6588
vn -0.3542 0.3785 0.8551
vn -0.5143 -0.3785 0.7696
vn -0.5143 0.3785 0.7696
vn -0.5556 -0.0000 0.8314
vn -0.6545 0.3785 0.6545
vn -0.2779 -0.9195 0.2779
vn -0.5929 -0.7011 0.3961
vn -0.7696 -0.3785 0.5143
vn -0.5929 0.7011 0.3961
vn -0.7696 0.3784 0.5143
vn -0.6588 0.7011 0.2729
vn -0.6588 -0.7010 0.2729
vn -0.3631 0.9195 0.1504
vn -0.3631 -0.9195 0.1504
vn -0.9078 -0.3784 0.1806
vn -0.6994 -0.7011 0.1392
vn -0.9078 0.3784 0.1806
vn -0.6994 0.7011 0.1392
vn -0.6994 -0.7011 -0.1392
vn -0.3854 -0.9196 -0.0767
vn -0.9078 -0.3784 -0.1806
vn -0.6994 0.7011 -0.1392
vn -0.9078 0.3784 -0.1806
vn -0.3854 0.9195 -0.0767
vn -0.8552 -0.3784 -0.3542
vn -0.6588 -0.7011 -0.2729
vn -0.8552 0.3784 -0.3542
vn -0.3607 0.9198 -0.1543
vn -0.6588 0.7010 -0.2729
vn -0.3606 -0.9199 -0.1543
vn -0.5929 -0.7011 -0.3961
vn -0.7696 0.3784 -0.5143
vn -0.3269 0.9195 -0.2183
vn -0.5042 -0.7011 -0.5042
vn -0.2805 -0.9199 -0.2742
vn -0.5042 0.7011 -0.5043
vn -0.6545 0.3784 -0.6546
vn -0.5556 -0.0000 -0.8314
vn -0.5143 -0.3785 -0.7696
vn -0.5143 0.3785 -0.7696
vn -0.2183 -0.9196 -0.3267
vn -0.3543 -0.3785 -0.8551
vn -0.3543 0.3785 -0.8551
vn -0.3828 -0.0000 -0.9238
vn -0.1504 0.9196 -0.3630
vn -0.1504 -0.9196 -0.3630
vn -0.1806 0.3784 -0.9079
vn -0.6965 -0.6965 0.1726
vn -0.5773 -0.5774 0.5773
vn -0.6965 -0.1726 0.6965
vn -0.1726 -0.6965 0.6965
vn -0.1726 0.6965 0.6965
vn -0.5774 0.5773 0.5774
vn -0.6965 0.1726 0.6965
vn -0.6965 0.6965 0.1726
vn -0.7030 -0.6943 -0.1543
vn -0.5768 -0.6111 -0.5421
vn -0.1783 -0.7479 -0.6394
vn -0.6911 -0.1873 -0.6981
vn -0.1731 -0.2277 -0.9582
vn -0.7030 0.6943 -0.1543
vn -0.5768 0.6111 -0.5421
vn -0.6911 0.1873 -0.6980
vn -0.1783 0.7479 -0.6394
vn -0.1731 0.2277 -0.9582
vn 0.6965 -0.6965 0.1726
vn 0.5773 -0.5773 0.5774
vn 0.1726 -0.6965 0.6965
vn 0.6965 -0.1726 0.6965
vn 0.6965 0.6965 0.1726
vn 0.5774 0.5774 0.5773
vn 0.6965 0.1726 0.6965
vn 0.1726 0.6965 0.6965
vn 0.6910 -0.1873 -0.6981
vn 0.3664 -0.6995 -0.6135
vn 0.1783 -0.7479 -0.6394
vn 0.9177 -0.3649 -0.1571
vn 0.8878 -0.3373 -0.3130
vn 0.3613 -0.9239 -0.1259
vn 0.7030 0.6943 -0.1543
vn 0.5768 0.6111 -0.5421
vn 0.1783 0.7479 -0.6394
vn 0.6911 0.1873 -0.6981
vn 0.6611 0.6292 -0.4087
vn 0.4912 0.4100 -0.7685
vn 0.4744 0.1170 -0.8725
vn 0.1727 0.4130 -0.8942
vn 0.0548 0.0490 -0.9973
vn 0.4744 -0.1170 -0.8725
vn 0.4912 -0.4100 -0.7685
vn 0.6611 -0.6292 -0.4087
vn 0.1727 -0.4130 -0.8942
vn -0.1727 -0.4130 -0.8942
vn -0.4911 -0.4100 -0.7685
vn -0.6611 -0.6292 -0.4087
vn -0.4744 -0.1170 -0.8725
vn -0.6611 0.6292 -0.4088
vn -0.4912 0.4100 -0.7686
vn -0.1727 0.4130 -0.8942
vn -0.4743 0.1170 -0.8725
vn -0.4912 -0.4100 -0.7685
vn -0.6611 0.6292 -0.4087
vn -0.4744 0.1170 -0.8725
vn -0.4911 -0.4100 -0.7686
vn -0.6611 -0.6292 -0.4088
vn 0.6965 -0.6965 -0.1726
vn 0.5774 -0.5773 -0.5774
vn 0.6965 -0.1725 -0.6965
vn 0.1726 -0.6965 -0.6965
vn 0.6965 0.1725 -0.6965
vn 0.5774 0.5773 -0.5774
vn 0.6965 0.6965 -0.1726
vn 0.1726 0.6965 -0.6965
vn -0.1726 0.6965 -0.6965
vn -0.5774 0.5773 -0.5774
vn -0.6965 0.6965 -0.1726
vn -0.6965 0.1725 -0.6965
vn -0.6965 -0.6965 -0.1726
vn -0.5774 -0.5773 -0.5774
vn -0.1726 -0.6965 -0.6965
vn -0.6965 -0.1725 -0.6965
vn 0.5773 0.5773 -0.5774
vn 0.5773 -0.5773 -0.5774
vn -0.6965 0.1726 -0.6965
vn -0.4912 -0.4101 -0.7685
vn -0.4744 -0.1171 -0.8725
vn -0.1726 -0.4131 -0.8942
vn -0.4912 0.4100 -0.7685
vn -0.1726 0.4131 -0.8942
vn 0.1726 0.4131 -0.8942
vn 0.4912 0.4101 -0.7685
vn 0.4744 0.1171 -0.8725
vn 0.4912 -0.4101 -0.7685
vn 0.1726 -0.4131 -0.8942
vn 0.4744 -0.1171 -0.8725
vn -0.4911 -0.4101 -0.7685
vn -0.4743 -0.1171 -0.8725
vn -0.1727 -0.4131 -0.8942
vn -0.4911 0.4100 -0.7685
vn -0.1727 0.4131 -0.8942
vn 0.4911 0.4100 -0.7685
vn 0.6611 0.6292 -0.4088
vn 0.4743 0.1170 -0.8725
vn 0.6611 -0.6292 -0.4088
vn 0.4911 -0.4100 -0.7686
vn 0.4743 -0.1170 -0.8725
vn -0.5773 0.5773 -0.5774
vn -0.1725 0.6965 -0.6965
vn -0.6965 -0.1726 -0.6965
vn -0.5773 -0.5774 -0.5774
vn -0.1725 -0.6965 -0.6965
vn 0.1725 -0.6965 -0.6965
vn 0.5773 -0.5774 -0.5774
vn 0.6965 -0.1726 -0.6965
vn 0.5773 0.5774 -0.5774
vn 0.1725 0.6965 -0.6965
vn 0.6965 0.1726 -0.6965
vn -0.5773 0.5774 -0.5774
vn -0.2021 -0.0000 -0.9794
vn -0.1664 -0.0002 -0.9861
vt 0.626621 0.502676
vt 0.873379 0.502676
vt 0.873379 0.747324
vt 0.626621 0.747324
vt 0.375844 0.002676
vt 0.624155 0.002676
vt 0.624156 0.247324
vt 0.375844 0.247324
vt 0.500000 0.498379
vt 0.505538 0.484789
vt 0.556962 0.484789
vt 0.562500 0.498245
vt 0.375844 0.751621
vt 0.624156 0.751621
vt 0.624156 0.998379
vt 0.375844 0.998379
vt 0.624156 0.502676
vt 0.624156 0.747324
vt 0.375844 0.747324
vt 0.375844 0.502676
vt 0.437500 0.498245
vt 0.443038 0.484789
vt 0.494461 0.484789
vt 0.430573 0.483295
vt 0.381927 0.483295
vt 0.381927 0.483295
vt 0.430573 0.483295
vt 0.556288 0.268682
vt 0.556288 0.481318
vt 0.556288 0.481318
vt 0.556288 0.268682
vt 0.492943 0.482939
vt 0.444557 0.482939
vt 0.492943 0.482939
vt 0.126621 0.502676
vt 0.373379 0.502676
vt 0.373379 0.747324
vt 0.126621 0.747324
vt 0.624359 0.498240
vt 0.568038 0.484789
vt 0.619461 0.484789
vt 0.568712 0.481318
vt 0.568712 0.268682
vt 0.617943 0.482939
vt 0.569556 0.482939
vt 0.569557 0.482939
vt 0.617943 0.482939
vt 0.444557 0.267061
vt 0.492943 0.267061
vt 0.618788 0.268682
vt 0.618788 0.481318
vt 0.443712 0.481318
vt 0.443712 0.268682
vt 0.443712 0.481318
vt 0.493788 0.268682
vt 0.493788 0.481318
vt 0.507056 0.267061
vt 0.555443 0.267061
vt 0.506212 0.481318
vt 0.506212 0.268682
vt 0.555443 0.482939
vt 0.507056 0.482939
vt 0.569557 0.268682
vt 0.617943 0.268682
vt 0.617943 0.481318
vt 0.569557 0.481318
vt 0.444557 0.268682
vt 0.492943 0.268682
vt 0.492943 0.481318
vt 0.444557 0.481318
vt 0.507056 0.268682
vt 0.555443 0.268682
vt 0.555443 0.481318
vt 0.507056 0.481318
vt 0.381927 0.266705
vt 0.430573 0.266705
vt 0.430573 0.266705
vt 0.381927 0.266705
vt 0.569557 0.267061
vt 0.617943 0.267061
vt 0.617943 0.267061
vt 0.569557 0.267061
vt 0.431418 0.268326
vt 0.431418 0.365122
vt 0.431418 0.365121
vt 0.381082 0.365122
vt 0.381082 0.268326
vt 0.381082 0.268326
vt 0.381082 0.365121
vt 0.430573 0.366742
vt 0.381927 0.366742
vt 0.381927 0.366742
vt 0.430573 0.366742
vt 0.381927 0.383258
vt 0.430573 0.383258
vt 0.430573 0.383258
vt 0.381082 0.481674
vt 0.381082 0.384878
vt 0.381082 0.384878
vt 0.431418 0.384878
vt 0.431418 0.481674
vt 0.431418 0.481674
vt 0.381927 0.268326
vt 0.430573 0.268326
vt 0.430573 0.365121
vt 0.381927 0.365122
vt 0.380409 0.381408
vt 0.375641 0.498240
vt 0.380409 0.368592
vt 0.381927 0.384878
vt 0.430573 0.384878
vt 0.430573 0.481674
vt 0.381927 0.481674
vt 0.750000 0.250000
vt 0.750000 0.375000
vt 0.718750 0.375000
vt 0.718750 0.250000
vt 0.750000 0.500000
vt 0.750000 0.625000
vt 0.718750 0.625000
vt 0.718750 0.500000
vt 0.750000 0.750000
vt 0.750000 0.875000
vt 0.718750 0.875000
vt 0.718750 0.750000
vt 0.750000 0.125000
vt 0.718750 0.125000
vt 0.687500 0.875000
vt 0.687500 0.750000
vt 0.687500 0.250000
vt 0.687500 0.125000
vt 0.687500 0.500000
vt 0.687500 0.375000
vt 0.687500 0.625000
vt 0.656250 0.250000
vt 0.656250 0.125000
vt 0.656250 0.500000
vt 0.656250 0.375000
vt 0.656250 0.750000
vt 0.656250 0.625000
vt 0.625000 0.125000
vt 0.734375 0.000000
vt 0.656250 0.875000
vt 0.625000 0.375000
vt 0.625000 0.250000
vt 0.625000 0.625000
vt 0.625000 0.500000
vt 0.625000 0.875000
vt 0.625000 0.750000
vt 0.593750 0.375000
vt 0.593750 0.250000
vt 0.593750 0.625000
vt 0.593750 0.500000
vt 0.593750 0.875000
vt 0.593750 0.750000
vt 0.593750 0.125000
vt 0.562500 0.125000
vt 0.609375 0.000000
vt 0.281250 0.125000
vt 0.328125 0.000000
vt 0.312500 0.125000
vt 0.562500 0.250000
vt 0.562500 0.500000
vt 0.562500 0.375000
vt 0.562500 0.750000
vt 0.562500 0.625000
vt 0.562500 0.875000
vt 0.531250 0.500000
vt 0.531250 0.375000
vt 0.531250 0.750000
vt 0.531250 0.625000
vt 1.000000 0.125000
vt 0.046875 0.000000
vt 0.031250 0.125000
vt 0.531250 0.250000
vt 0.531250 0.875000
vt 0.531250 0.125000
vt 0.500000 0.375000
vt 0.500000 0.250000
vt 0.500000 0.625000
vt 0.500000 0.500000
vt 0.500000 0.875000
vt 0.500000 0.750000
vt 0.500000 0.125000
vt 0.468750 0.625000
vt 0.468750 0.500000
vt 0.468750 0.875000
vt 0.468750 0.750000
vt 0.468750 0.250000
vt 0.468750 0.125000
vt 0.468750 0.375000
vt 0.000000 0.875000
vt 0.031250 0.875000
vt 0.953125 1.000000
vt 0.437500 0.250000
vt 0.437500 0.125000
vt 0.437500 0.500000
vt 0.437500 0.375000
vt 0.437500 0.750000
vt 0.437500 0.625000
vt 0.437500 0.875000
vt 0.406250 0.750000
vt 0.406250 0.625000
vt 0.406250 0.375000
vt 0.406250 0.250000
vt 0.406250 0.500000
vt 0.406250 0.875000
vt 0.406250 0.125000
vt 0.375000 0.375000
vt 0.375000 0.250000
vt 0.375000 0.625000
vt 0.375000 0.500000
vt 0.375000 0.875000
vt 0.375000 0.750000
vt 0.375000 0.125000
vt 0.343750 0.875000
vt 0.343750 0.750000
vt 0.343750 0.250000
vt 0.343750 0.125000
vt 0.343750 0.500000
vt 0.343750 0.375000
vt 0.343750 0.625000
vt 0.421875 0.000000
vt 0.125000 0.875000
vt 0.078125 1.000000
vt 0.093750 0.875000
vt 0.312500 0.250000
vt 0.312500 0.500000
vt 0.312500 0.375000
vt 0.312500 0.750000
vt 0.312500 0.625000
vt 0.484375 1.000000
vt 0.937500 0.125000
vt 0.906250 0.125000
vt 0.015625 0.000000
vt 0.312500 0.875000
vt 0.281250 0.375000
vt 0.281250 0.250000
vt 0.281250 0.625000
vt 0.281250 0.500000
vt 0.281250 0.875000
vt 0.281250 0.750000
vt 0.250000 0.375000
vt 0.250000 0.250000
vt 0.250000 0.625000
vt 0.250000 0.500000
vt 0.250000 0.875000
vt 0.250000 0.750000
vt 0.250000 0.125000
vt 0.218750 0.250000
vt 0.218750 0.125000
vt 0.218750 0.500000
vt 0.218750 0.375000
vt 0.218750 0.750000
vt 0.218750 0.625000
vt 0.218750 0.875000
vt 0.187500 0.500000
vt 0.187500 0.375000
vt 0.187500 0.750000
vt 0.187500 0.625000
vt 0.609375 1.000000
vt 0.187500 0.250000
vt 0.187500 0.875000
vt 0.187500 0.125000
vt 0.156250 0.375000
vt 0.156250 0.250000
vt 0.156250 0.625000
vt 0.156250 0.500000
vt 0.156250 0.875000
vt 0.156250 0.750000
vt 0.156250 0.125000
vt 0.125000 0.625000
vt 0.125000 0.500000
vt 0.125000 0.750000
vt 0.125000 0.250000
vt 0.125000 0.125000
vt 0.125000 0.375000
vt 0.453125 0.000000
vt 0.093750 0.250000
vt 0.093750 0.125000
vt 0.093750 0.500000
vt 0.093750 0.375000
vt 0.093750 0.750000
vt 0.093750 0.625000
vt 0.062500 0.750000
vt 0.062500 0.625000
vt 0.203125 0.000000
vt 0.062500 0.375000
vt 0.062500 0.250000
vt 0.062500 0.500000
vt 0.062500 0.875000
vt 0.062500 0.125000
vt 0.031250 0.375000
vt 0.031250 0.250000
vt 0.031250 0.625000
vt 0.031250 0.500000
vt 0.031250 0.750000
vt 0.000000 0.750000
vt 0.000000 0.250000
vt 0.000000 0.125000
vt 0.000000 0.500000
vt 0.000000 0.375000
vt 0.000000 0.625000
vt 1.000000 0.250000
vt 0.968750 0.250000
vt 0.968750 0.125000
vt 1.000000 0.375000
vt 1.000000 0.500000
vt 0.968750 0.500000
vt 0.968750 0.375000
vt 1.000000 0.625000
vt 1.000000 0.750000
vt 0.968750 0.750000
vt 0.968750 0.625000
vt 1.000000 0.875000
vt 0.968750 0.875000
vt 0.046875 1.000000
vt 0.937500 0.375000
vt 0.937500 0.250000
vt 0.937500 0.625000
vt 0.937500 0.500000
vt 0.937500 0.875000
vt 0.937500 0.750000
vt 0.906250 0.375000
vt 0.906250 0.250000
vt 0.906250 0.625000
vt 0.906250 0.500000
vt 0.906250 0.875000
vt 0.906250 0.750000
vt 0.875000 0.250000
vt 0.875000 0.125000
vt 0.875000 0.500000
vt 0.875000 0.375000
vt 0.875000 0.750000
vt 0.875000 0.625000
vt 0.781250 0.125000
vt 0.796875 0.000000
vt 0.812500 0.125000
vt 0.875000 0.875000
vt 0.843750 0.500000
vt 0.843750 0.375000
vt 0.843750 0.750000
vt 0.843750 0.625000
vt 0.843750 0.250000
vt 0.843750 0.875000
vt 0.843750 0.125000
vt 0.796875 1.000000
vt 0.812500 0.375000
vt 0.812500 0.250000
vt 0.812500 0.625000
vt 0.812500 0.500000
vt 0.812500 0.875000
vt 0.812500 0.750000
vt 0.890625 0.000000
vt 0.781250 0.625000
vt 0.781250 0.500000
vt 0.781250 0.875000
vt 0.781250 0.750000
vt 0.781250 0.250000
vt 0.781250 0.375000
vt 0.734375 1.000000
vt 0.765625 1.000000
vt 0.765625 0.000000
vt 0.828125 1.000000
vt 0.265625 0.000000
vt 0.171875 1.000000
vt 0.921875 1.000000
vt 0.640625 1.000000
vt 0.140625 0.000000
vt 0.296875 1.000000
vt 0.578125 0.000000
vt 0.546875 0.000000
vt 0.578125 1.000000
vt 0.703125 0.000000
vt 0.234375 1.000000
vt 0.453125 1.000000
vt 0.890625 1.000000
vt 0.921875 0.000000
vt 0.859375 0.000000
vt 0.359375 1.000000
vt 0.375000 0.002676
vt 0.375000 0.001131
vt 0.375844 0.000000
vt 0.126621 0.750000
vt 0.125685 0.750000
vt 0.125000 0.747324
vt 0.375844 1.000000
vt 0.375357 1.000000
vt 0.375000 0.998379
vt 0.625000 0.998379
vt 0.625000 0.999315
vt 0.624156 1.000000
vt 0.875000 0.747324
vt 0.875000 0.748869
vt 0.873379 0.750000
vt 0.624156 0.000000
vt 0.624643 0.000000
vt 0.625000 0.002676
vt 0.125000 0.502676
vt 0.125000 0.501131
vt 0.126699 0.500000
vt 0.375746 0.250000
vt 0.375315 0.250000
vt 0.375000 0.247324
vt 0.375641 0.251760
vt 0.375000 0.251699
vt 0.375000 0.250716
vt 0.625000 0.247324
vt 0.625000 0.248869
vt 0.624254 0.250000
vt 0.873301 0.500000
vt 0.874284 0.500000
vt 0.875000 0.502676
vt 0.624359 0.251760
vt 0.624685 0.250000
vt 0.625000 0.251699
vt 0.375000 0.747324
vt 0.375119 0.749851
vt 0.373379 0.750000
vt 0.375844 0.750000
vt 0.375000 0.751621
vt 0.625000 0.747324
vt 0.625109 0.749623
vt 0.624156 0.750000
vt 0.626621 0.750000
vt 0.625000 0.751621
vt 0.375746 0.500000
vt 0.374866 0.500377
vt 0.375000 0.498301
vt 0.375000 0.502676
vt 0.373301 0.500000
vt 0.625000 0.502676
vt 0.624895 0.500138
vt 0.626699 0.500000
vt 0.624254 0.500000
vt 0.625000 0.498301
vt 0.568712 0.267061
vt 0.568727 0.267061
vt 0.568840 0.267061
vt 0.568039 0.265211
vt 0.618660 0.267061
vt 0.618773 0.267061
vt 0.618788 0.267061
vt 0.619461 0.265211
vt 0.618788 0.482939
vt 0.618773 0.482939
vt 0.618788 0.482939
vt 0.618660 0.482939
vt 0.568712 0.482939
vt 0.568727 0.482939
vt 0.568840 0.482939
vt 0.443712 0.267061
vt 0.443727 0.267061
vt 0.443840 0.267061
vt 0.443038 0.265211
vt 0.493660 0.267061
vt 0.493773 0.267061
vt 0.493788 0.267061
vt 0.494461 0.265211
vt 0.493788 0.482939
vt 0.493773 0.482939
vt 0.493788 0.482939
vt 0.493660 0.482939
vt 0.443712 0.482939
vt 0.443727 0.482939
vt 0.443840 0.482939
vt 0.506212 0.267061
vt 0.506227 0.267061
vt 0.506340 0.267061
vt 0.505538 0.265211
vt 0.556159 0.267061
vt 0.556273 0.267061
vt 0.556288 0.267061
vt 0.556961 0.265211
vt 0.556288 0.482939
vt 0.556273 0.482939
vt 0.556288 0.482939
vt 0.556160 0.482939
vt 0.506212 0.482939
vt 0.506227 0.482939
vt 0.506340 0.482939
vt 0.618669 0.267290
vt 0.617943 0.267061
vt 0.569557 0.267061
vt 0.568831 0.267290
vt 0.568712 0.267061
vt 0.568831 0.482710
vt 0.568712 0.482939
vt 0.569556 0.482939
vt 0.618669 0.482710
vt 0.617943 0.482939
vt 0.493669 0.267290
vt 0.492943 0.267061
vt 0.444557 0.267061
vt 0.443831 0.267290
vt 0.443712 0.267061
vt 0.443712 0.268682
vt 0.443831 0.482710
vt 0.444557 0.482939
vt 0.493669 0.482710
vt 0.556169 0.267290
vt 0.555443 0.267061
vt 0.507056 0.267061
vt 0.506331 0.267290
vt 0.506212 0.267061
vt 0.506331 0.482710
vt 0.507056 0.482939
vt 0.556169 0.482710
vt 0.555443 0.482939
vt 0.381082 0.266705
vt 0.381097 0.266705
vt 0.381211 0.266705
vt 0.380409 0.264855
vt 0.431289 0.266705
vt 0.431403 0.266705
vt 0.431418 0.266705
vt 0.432091 0.264855
vt 0.431418 0.366742
vt 0.431403 0.366742
vt 0.431418 0.366742
vt 0.432091 0.368592
vt 0.431289 0.366742
vt 0.381082 0.366742
vt 0.381097 0.366742
vt 0.381211 0.366742
vt 0.381082 0.383258
vt 0.381097 0.383258
vt 0.381211 0.383258
vt 0.431289 0.383258
vt 0.431403 0.383258
vt 0.431418 0.383258
vt 0.432091 0.381408
vt 0.431418 0.483295
vt 0.431403 0.483295
vt 0.431418 0.483295
vt 0.432091 0.485145
vt 0.431289 0.483295
vt 0.381082 0.483295
vt 0.381097 0.483295
vt 0.381082 0.483295
vt 0.381211 0.483295
vt 0.380409 0.485145
vt 0.431299 0.266933
vt 0.430573 0.266705
vt 0.381927 0.266705
vt 0.381201 0.266933
vt 0.381082 0.365122
vt 0.381201 0.366514
vt 0.381082 0.366742
vt 0.381927 0.366742
vt 0.431299 0.366514
vt 0.431418 0.365121
vt 0.430573 0.366742
vt 0.381927 0.383258
vt 0.381201 0.383486
vt 0.381082 0.383258
vt 0.381082 0.384878
vt 0.431299 0.383486
vt 0.431418 0.384878
vt 0.381201 0.483067
vt 0.381082 0.483295
vt 0.381927 0.483295
vt 0.431299 0.483067
vt 0.430573 0.483295
vt 0.500000 0.251621
vt 0.437500 0.251755
vt 0.434424 0.375000
s 1
f 503/1/1 476/2/2 462/3/3 490/4/4
f 454/5/5 463/6/6 475/7/7 469/8/8
f 513/9/9 594/10/10 586/11/11 512/12/12
f 484/13/13 491/14/14 461/15/15 456/16/16
f 504/17/17 489/18/18 483/19/19 497/20/20
f 514/21/21 566/22/10 558/23/11 513/9/9
f 727/24/22 733/25/23 783/26/24 789/27/25
f 580/28/26 585/29/27 676/30/28 656/31/29
f 559/32/30 565/33/31 643/33/32 649/34/33
f 468/35/34 498/36/35 482/37/36 455/38/37
f 505/39/38 512/12/12 538/40/10 530/41/11
f 536/42/39 516/43/40 608/43/41 613/42/42
f 531/44/30 537/45/31 615/46/43 621/47/33
f 543/48/22 550/49/23 627/49/24 634/48/25
f 524/50/44 529/51/45 620/51/28 600/50/29
f 564/52/39 544/53/46 636/53/41 641/54/42
f 552/55/26 557/56/27 648/56/28 628/55/29
f 571/57/22 578/58/23 655/58/24 662/57/25
f 592/59/39 572/60/40 664/60/41 669/59/42
f 587/61/30 593/62/47 671/62/32 677/61/33
f 607/63/48 601/64/49 622/65/50 614/66/51
f 635/67/48 629/68/49 650/69/50 642/70/51
f 663/71/48 657/72/49 678/73/50 670/74/51
f 683/75/30 690/76/31 739/77/32 746/78/33
f 515/79/22 522/80/23 599/81/24 606/82/25
f 692/83/52 697/84/46 760/85/41 740/83/42
f 704/86/44 684/87/45 748/88/28 753/89/29
f 699/90/22 705/91/23 755/92/24 761/93/25
f 711/94/30 718/95/31 774/96/32 767/94/33
f 732/97/44 712/98/45 769/99/28 781/97/29
f 720/100/52 725/101/46 788/102/41 775/100/42
f 747/103/53 741/104/54 762/105/55 754/106/56
f 713/107/57 496/108/58 706/109/59
f 768/110/53 776/111/54 790/112/55 782/113/49
f 226/114/60 225/115/61 8/116/62 9/117/63
f 3/118/64 224/119/65 6/120/66 7/121/67
f 2/122/68 223/123/69 4/124/70 5/125/71
f 227/126/72 226/114/60 9/117/63 10/127/73
f 225/115/61 3/118/64 7/121/67 8/116/62
f 224/119/65 2/122/68 5/125/71 6/120/66
f 5/125/71 4/124/70 11/128/74 12/129/75
f 10/127/73 9/117/63 16/130/76 17/131/77
f 8/116/62 7/121/67 14/132/78 15/133/79
f 6/120/66 5/125/71 12/129/75 13/134/80
f 9/117/63 8/116/62 15/133/79 16/130/76
f 7/121/67 6/120/66 13/134/80 14/132/78
f 17/131/77 16/130/76 23/135/81 24/136/82
f 15/133/79 14/132/78 21/137/83 22/138/84
f 13/134/80 12/129/75 19/139/85 20/140/86
f 24/136/82 31/141/87 53/142/88
f 16/130/76 15/133/79 22/138/84 23/135/81
f 14/132/78 13/134/80 20/140/86 21/137/83
f 12/129/75 11/128/74 18/143/89 19/139/85
f 23/135/81 22/138/84 29/144/90 30/145/91
f 21/137/83 20/140/86 27/146/92 28/147/93
f 19/139/85 18/143/89 25/148/94 26/149/95
f 24/136/82 23/135/81 30/145/91 31/141/87
f 22/138/84 21/137/83 28/147/93 29/144/90
f 20/140/86 19/139/85 26/149/95 27/146/92
f 30/145/91 29/144/90 36/150/96 37/151/97
f 28/147/93 27/146/92 34/152/98 35/153/99
f 26/149/95 25/148/94 32/154/100 33/155/101
f 31/141/87 30/145/91 37/151/97 38/156/102
f 29/144/90 28/147/93 35/153/99 36/150/96
f 27/146/92 26/149/95 33/155/101 34/152/98
f 38/156/102 45/157/103 53/158/88 31/141/87
f 335/159/104 279/160/88 328/161/105
f 38/156/102 37/151/97 44/162/106 45/157/103
f 36/150/96 35/153/99 42/163/107 43/164/108
f 34/152/98 33/155/101 40/165/109 41/166/110
f 37/151/97 36/150/96 43/164/108 44/162/106
f 35/153/99 34/152/98 41/166/110 42/163/107
f 33/155/101 32/154/100 39/167/111 40/165/109
f 43/164/108 42/163/107 49/168/112 50/169/113
f 41/166/110 40/165/109 47/170/114 48/171/115
f 399/172/116 279/173/88 392/174/117
f 44/162/106 43/164/108 50/169/113 51/175/118
f 42/163/107 41/166/110 48/171/115 49/168/112
f 40/165/109 39/167/111 46/176/119 47/170/114
f 45/157/103 44/162/106 51/175/118 52/177/120
f 51/175/118 50/169/113 58/178/121 59/179/122
f 49/168/112 48/171/115 56/180/123 57/181/124
f 47/170/114 46/176/119 54/182/125 55/183/126
f 52/177/120 51/175/118 59/179/122 60/184/127
f 50/169/113 49/168/112 57/181/124 58/178/121
f 48/171/115 47/170/114 55/183/126 56/180/123
f 57/181/124 56/180/123 63/185/128 64/186/129
f 55/183/126 54/182/125 61/187/130 62/188/131
f 60/184/127 59/179/122 66/189/132 67/190/133
f 58/178/121 57/181/124 64/186/129 65/191/134
f 56/180/123 55/183/126 62/188/131 63/185/128
f 393/192/135 386/193/136 371/194/137
f 59/179/122 58/178/121 65/191/134 66/189/132
f 67/190/133 66/189/132 73/195/138 74/196/139
f 65/191/134 64/186/129 71/197/140 72/198/141
f 63/185/128 62/188/131 69/199/142 70/200/143
f 66/189/132 65/191/134 72/198/141 73/195/138
f 64/186/129 63/185/128 70/200/143 71/197/140
f 62/188/131 61/187/130 68/201/144 69/199/142
f 70/200/143 69/199/142 76/202/145 77/203/146
f 73/195/138 72/198/141 79/204/147 80/205/148
f 71/197/140 70/200/143 77/203/146 78/206/149
f 69/199/142 68/201/144 75/207/150 76/202/145
f 74/196/139 73/195/138 80/205/148 81/208/151
f 72/198/141 71/197/140 78/206/149 79/204/147
f 80/205/148 79/204/147 86/209/152 87/210/153
f 78/206/149 77/203/146 84/211/154 85/212/155
f 76/202/145 75/207/150 82/213/156 83/214/157
f 81/208/151 80/205/148 87/210/153 88/215/158
f 79/204/147 78/206/149 85/212/155 86/209/152
f 77/203/146 76/202/145 83/214/157 84/211/154
f 83/214/157 82/213/156 89/216/159 90/217/160
f 88/215/158 87/210/153 94/218/161 95/219/162
f 86/209/152 85/212/155 92/220/163 93/221/164
f 84/211/154 83/214/157 90/217/160 91/222/165
f 88/215/158 95/219/162 53/223/88
f 364/224/166 371/225/137 372/226/167
f 87/210/153 86/209/152 93/221/164 94/218/161
f 85/212/155 84/211/154 91/222/165 92/220/163
f 95/219/162 94/218/161 101/227/168 102/161/169
f 93/221/164 92/220/163 99/228/170 100/229/171
f 91/222/165 90/217/160 97/230/172 98/231/173
f 272/176/174 265/167/175 371/232/137
f 187/233/176 194/234/177 53/235/88
f 94/218/161 93/221/164 100/229/171 101/227/168
f 92/220/163 91/222/165 98/231/173 99/228/170
f 90/217/160 89/216/159 96/236/178 97/230/172
f 101/227/168 100/229/171 107/237/179 108/238/180
f 99/228/170 98/231/173 105/239/181 106/240/182
f 97/230/172 96/236/178 103/241/183 104/242/184
f 102/161/169 101/227/168 108/238/180 109/159/185
f 100/229/171 99/228/170 106/240/182 107/237/179
f 98/231/173 97/230/172 104/242/184 105/239/181
f 108/238/180 107/237/179 114/243/186 115/244/187
f 106/240/182 105/239/181 112/245/188 113/246/189
f 104/242/184 103/241/183 110/247/190 111/248/191
f 109/159/185 108/238/180 115/244/187 116/249/192
f 107/237/179 106/240/182 113/246/189 114/243/186
f 105/239/181 104/242/184 111/248/191 112/245/188
f 116/249/192 115/244/187 122/250/193 123/251/194
f 114/243/186 113/246/189 120/252/195 121/253/196
f 112/245/188 111/248/191 118/254/197 119/255/198
f 115/244/187 114/243/186 121/253/196 122/250/193
f 113/246/189 112/245/188 119/255/198 120/252/195
f 111/248/191 110/247/190 117/256/199 118/254/197
f 121/253/196 120/252/195 127/257/200 128/258/201
f 119/255/198 118/254/197 125/259/202 126/260/203
f 371/261/137 258/154/204 251/148/205
f 122/250/193 121/253/196 128/258/201 129/262/206
f 120/252/195 119/255/198 126/260/203 127/257/200
f 118/254/197 117/256/199 124/263/207 125/259/202
f 123/251/194 122/250/193 129/262/206 130/264/208
f 129/262/206 128/258/201 135/265/209 136/266/210
f 127/257/200 126/260/203 133/267/211 134/268/212
f 125/259/202 124/263/207 131/269/213 132/270/214
f 130/264/208 129/262/206 136/266/210 137/271/215
f 128/258/201 127/257/200 134/268/212 135/265/209
f 126/260/203 125/259/202 132/270/214 133/267/211
f 134/268/212 133/267/211 140/272/216 141/273/217
f 132/270/214 131/269/213 138/224/218 139/274/219
f 137/271/215 136/266/210 143/275/220 144/276/221
f 135/265/209 134/268/212 141/273/217 142/277/222
f 133/267/211 132/270/214 139/274/219 140/272/216
f 314/215/223 321/219/224 279/278/88
f 136/266/210 135/265/209 142/277/222 143/275/220
f 144/276/221 143/275/220 151/279/225 152/280/226
f 142/277/222 141/273/217 149/281/227 150/282/228
f 140/272/216 139/274/219 147/283/229 148/284/230
f 143/275/220 142/277/222 150/282/228 151/279/225
f 141/273/217 140/272/216 148/284/230 149/281/227
f 139/274/219 138/224/218 146/226/167 147/283/229
f 148/284/230 147/283/229 154/285/231 155/286/232
f 102/161/169 109/159/185 53/160/88 95/219/162
f 356/264/233 363/271/234 279/287/88 349/251/235
f 151/279/225 150/282/228 157/288/236 158/289/237
f 149/281/227 148/284/230 155/286/232 156/290/238
f 147/283/229 146/226/167 153/291/239 154/285/231
f 152/280/226 151/279/225 158/289/237 159/292/240
f 150/282/228 149/281/227 156/290/238 157/288/236
f 158/289/237 157/288/236 164/293/241 165/294/242
f 156/290/238 155/286/232 162/295/243 163/296/244
f 154/285/231 153/291/239 160/193/245 161/297/246
f 159/292/240 158/289/237 165/294/242 166/174/247
f 157/288/236 156/290/238 163/296/244 164/293/241
f 155/286/232 154/285/231 161/297/246 162/295/243
f 161/297/246 160/193/245 167/192/135 168/298/248
f 166/174/247 165/294/242 172/299/249 173/300/250
f 164/293/241 163/296/244 170/301/251 171/302/252
f 162/295/243 161/297/246 168/298/248 169/303/253
f 165/294/242 164/293/241 171/302/252 172/299/249
f 163/296/244 162/295/243 169/303/253 170/301/251
f 173/172/250 172/304/249 179/305/254 180/306/255
f 171/307/252 170/308/251 177/309/256 178/310/257
f 169/311/253 168/312/248 175/313/258 176/314/259
f 172/304/249 171/307/252 178/310/257 179/305/254
f 170/308/251 169/311/253 176/314/259 177/309/256
f 168/312/248 167/315/135 174/316/260 175/313/258
f 146/226/167 138/224/218 145/317/137
f 179/305/254 178/310/257 185/318/261 186/319/262
f 177/309/256 176/314/259 183/320/263 184/321/264
f 175/313/258 174/316/260 181/322/265 182/323/266
f 180/306/255 179/305/254 186/319/262 187/233/176
f 178/310/257 177/309/256 184/321/264 185/318/261
f 176/314/259 175/313/258 182/323/266 183/320/263
f 186/319/262 185/318/261 192/324/267 193/325/268
f 184/321/264 183/320/263 190/326/269 191/327/270
f 182/323/266 181/322/265 188/328/271 189/329/272
f 187/233/176 186/319/262 193/325/268 194/234/177
f 185/318/261 184/321/264 191/327/270 192/324/267
f 183/320/263 182/323/266 189/329/272 190/326/269
f 194/234/177 193/325/268 200/330/273 201/331/274
f 192/324/267 191/327/270 198/332/275 199/333/276
f 190/326/269 189/329/272 196/334/277 197/335/278
f 222/336/279 227/126/72 53/337/88 215/338/280
f 193/325/268 192/324/267 199/333/276 200/330/273
f 191/327/270 190/326/269 197/335/278 198/332/275
f 189/329/272 188/328/271 195/339/281 196/334/277
f 199/333/276 198/332/275 205/340/282 206/341/283
f 197/335/278 196/334/277 203/342/284 204/343/285
f 200/330/273 199/333/276 206/341/283 207/344/286
f 198/332/275 197/335/278 204/343/285 205/340/282
f 196/334/277 195/339/281 202/345/287 203/342/284
f 201/331/274 200/330/273 207/344/286 208/346/288
f 428/345/287 421/339/289 371/347/137
f 207/344/286 206/341/283 213/348/290 214/349/291
f 205/340/282 204/343/285 211/350/292 212/351/293
f 203/342/284 202/345/287 209/352/294 210/353/295
f 208/346/288 207/344/286 214/349/291 215/338/280
f 206/341/283 205/340/282 212/351/293 213/348/290
f 204/343/285 203/342/284 210/353/295 211/350/292
f 208/346/288 215/338/280 53/354/88
f 212/351/293 211/350/292 218/355/296 219/356/297
f 210/353/295 209/352/294 216/357/298 217/358/299
f 215/338/280 214/349/291 221/359/300 222/336/279
f 213/348/290 212/351/293 219/356/297 220/360/301
f 211/350/292 210/353/295 217/358/299 218/355/296
f 442/357/302 371/361/137 230/124/303 449/123/304
f 145/362/137 223/123/69 216/357/298 209/352/294
f 214/349/291 213/348/290 220/360/301 221/359/300
f 222/336/279 221/359/300 226/114/60 227/126/72
f 220/360/301 219/356/297 3/118/64 225/115/61
f 218/355/296 217/358/299 2/122/68 224/119/65
f 221/359/300 220/360/301 225/115/61 226/114/60
f 219/356/297 218/355/296 224/119/65 3/118/64
f 217/358/299 216/357/298 223/123/69 2/122/68
f 452/114/60 451/115/61 234/116/62 235/117/63
f 229/118/64 450/119/65 232/120/305 233/121/67
f 228/122/68 449/123/304 230/124/303 231/125/71
f 453/126/306 452/114/60 235/117/63 236/127/307
f 451/115/61 229/118/64 233/121/67 234/116/62
f 450/119/65 228/122/68 231/125/71 232/120/305
f 279/363/88 448/336/308 453/126/306 236/127/307
f 231/125/71 230/124/303 237/128/74 238/129/75
f 236/127/307 235/117/63 242/130/309 243/131/77
f 234/116/62 233/121/67 240/132/310 241/133/311
f 232/120/305 231/125/71 238/129/75 239/134/312
f 195/339/281 188/328/271 145/364/137
f 235/117/63 234/116/62 241/133/311 242/130/309
f 233/121/67 232/120/305 239/134/312 240/132/310
f 243/131/77 242/130/309 249/135/313 250/136/314
f 241/133/311 240/132/310 247/137/315 248/138/316
f 239/134/312 238/129/75 245/139/317 246/140/318
f 242/130/309 241/133/311 248/138/316 249/135/313
f 240/132/310 239/134/312 246/140/318 247/137/315
f 238/129/75 237/128/74 244/143/319 245/139/317
f 130/264/208 137/271/215 53/365/88
f 145/366/137 131/269/213 124/263/207
f 249/135/313 248/138/316 255/144/320 256/145/91
f 247/137/315 246/140/318 253/146/92 254/147/321
f 245/139/317 244/143/319 251/148/205 252/149/322
f 250/136/314 249/135/313 256/145/91 257/141/323
f 248/138/316 247/137/315 254/147/321 255/144/320
f 246/140/318 245/139/317 252/149/322 253/146/92
f 256/145/91 255/144/320 262/150/324 263/151/97
f 254/147/321 253/146/92 260/152/325 261/153/326
f 252/149/322 251/148/205 258/154/204 259/155/327
f 257/141/323 256/145/91 263/151/97 264/156/328
f 255/144/320 254/147/321 261/153/326 262/150/324
f 253/146/92 252/149/322 259/155/327 260/152/325
f 264/156/328 263/151/97 270/162/329 271/157/330
f 262/150/324 261/153/326 268/163/331 269/164/108
f 260/152/325 259/155/327 266/165/332 267/166/333
f 145/367/137 188/328/271 181/322/265
f 263/151/97 262/150/324 269/164/108 270/162/329
f 261/153/326 260/152/325 267/166/333 268/163/331
f 259/155/327 258/154/204 265/167/175 266/165/332
f 269/164/108 268/163/331 275/168/112 276/169/334
f 267/166/333 266/165/332 273/170/335 274/171/336
f 270/162/329 269/164/108 276/169/334 277/175/337
f 268/163/331 267/166/333 274/171/336 275/168/112
f 266/165/332 265/167/175 272/176/174 273/170/335
f 271/157/330 270/162/329 277/175/337 278/177/120
f 277/175/337 276/169/334 284/178/338 285/179/122
f 275/168/112 274/171/336 282/180/339 283/181/124
f 273/170/335 272/176/174 280/182/125 281/183/126
f 278/177/120 277/175/337 285/179/122 286/184/127
f 276/169/334 275/168/112 283/181/124 284/178/338
f 274/171/336 273/170/335 281/183/126 282/180/339
f 283/181/124 282/180/339 289/185/128 290/186/129
f 281/183/126 280/182/125 287/187/130 288/188/340
f 286/184/127 285/179/122 292/189/341 293/190/342
f 284/178/338 283/181/124 290/186/129 291/191/134
f 282/180/339 281/183/126 288/188/340 289/185/128
f 285/179/122 284/178/338 291/191/134 292/189/341
f 293/190/342 292/189/341 299/195/343 300/196/344
f 291/191/134 290/186/129 297/197/140 298/198/345
f 289/185/128 288/188/340 295/199/346 296/200/143
f 371/366/137 357/269/347 350/263/207 343/256/348
f 292/189/341 291/191/134 298/198/345 299/195/343
f 290/186/129 289/185/128 296/200/143 297/197/140
f 288/188/340 287/187/130 294/201/349 295/199/346
f 296/200/143 295/199/346 302/202/350 303/203/351
f 299/195/343 298/198/345 305/204/352 306/205/353
f 297/197/140 296/200/143 303/203/351 304/206/354
f 295/199/346 294/201/349 301/207/355 302/202/350
f 300/196/344 299/195/343 306/205/353 307/208/356
f 298/198/345 297/197/140 304/206/354 305/204/352
f 145/368/137 25/148/94 18/143/89
f 306/205/353 305/204/352 312/209/152 313/210/153
f 304/206/354 303/203/351 310/211/154 311/212/357
f 302/202/350 301/207/355 308/213/358 309/214/157
f 307/208/356 306/205/353 313/210/153 314/215/223
f 305/204/352 304/206/354 311/212/357 312/209/152
f 303/203/351 302/202/350 309/214/157 310/211/154
f 152/280/226 53/369/88 144/276/221
f 309/214/157 308/213/358 315/216/359 316/217/160
f 314/215/223 313/210/153 320/218/161 321/219/224
f 312/209/152 311/212/357 318/220/360 319/221/361
f 310/211/154 309/214/157 316/217/160 317/222/362
f 313/210/153 312/209/152 319/221/361 320/218/161
f 311/212/357 310/211/154 317/222/362 318/220/360
f 321/219/224 320/218/161 327/227/363 328/161/105
f 319/221/361 318/220/360 325/228/170 326/229/171
f 317/222/362 316/217/160 323/230/364 324/231/365
f 145/370/137 103/241/183 96/236/178 89/216/159
f 278/177/120 279/371/88 271/157/330
f 320/218/161 319/221/361 326/229/171 327/227/363
f 318/220/360 317/222/362 324/231/365 325/228/170
f 316/217/160 315/216/359 322/236/366 323/230/364
f 327/227/363 326/229/171 333/237/179 334/238/180
f 325/228/170 324/231/365 331/239/367 332/240/182
f 323/230/364 322/236/366 329/241/368 330/242/184
f 328/161/105 327/227/363 334/238/180 335/159/104
f 326/229/171 325/228/170 332/240/182 333/237/179
f 324/231/365 323/230/364 330/242/184 331/239/367
f 334/238/180 333/237/179 340/243/186 341/244/187
f 332/240/182 331/239/367 338/245/188 339/246/189
f 330/242/184 329/241/368 336/247/190 337/248/191
f 335/159/104 334/238/180 341/244/187 342/249/192
f 333/237/179 332/240/182 339/246/189 340/243/186
f 331/239/367 330/242/184 337/248/191 338/245/188
f 342/249/192 341/244/187 348/250/369 349/251/235
f 340/243/186 339/246/189 346/252/195 347/253/196
f 338/245/188 337/248/191 344/254/370 345/255/198
f 341/244/187 340/243/186 347/253/196 348/250/369
f 339/246/189 338/245/188 345/255/198 346/252/195
f 337/248/191 336/247/190 343/256/348 344/254/370
f 347/253/196 346/252/195 353/257/200 354/258/371
f 345/255/198 344/254/370 351/259/372 352/260/373
f 348/250/369 347/253/196 354/258/371 355/262/206
f 346/252/195 345/255/198 352/260/373 353/257/200
f 344/254/370 343/256/348 350/263/207 351/259/372
f 349/251/235 348/250/369 355/262/206 356/264/233
f 355/262/206 354/258/371 361/265/374 362/266/210
f 353/257/200 352/260/373 359/267/375 360/268/376
f 351/259/372 350/263/207 357/269/347 358/270/214
f 356/264/233 355/262/206 362/266/210 363/271/234
f 354/258/371 353/257/200 360/268/376 361/265/374
f 352/260/373 351/259/372 358/270/214 359/267/375
f 360/268/376 359/267/375 366/272/377 367/273/217
f 358/270/214 357/269/347 364/224/166 365/274/219
f 363/271/234 362/266/210 369/275/220 370/276/378
f 361/265/374 360/268/376 367/273/217 368/277/222
f 359/267/375 358/270/214 365/274/219 366/272/377
f 279/369/88 363/271/234 370/276/378
f 60/184/127 53/372/88 52/177/120
f 362/266/210 361/265/374 368/277/222 369/275/220
f 370/276/378 369/275/220 377/279/379 378/280/226
f 368/277/222 367/273/217 375/281/227 376/282/380
f 366/272/377 365/274/219 373/283/381 374/284/382
f 145/373/137 39/167/111 32/154/100 25/148/94
f 369/275/220 368/277/222 376/282/380 377/279/379
f 367/273/217 366/272/377 374/284/382 375/281/227
f 365/274/219 364/224/166 372/226/167 373/283/381
f 374/284/382 373/283/381 380/285/383 381/286/232
f 377/279/379 376/282/380 383/288/236 384/289/384
f 375/281/227 374/284/382 381/286/232 382/290/238
f 373/283/381 372/226/167 379/291/385 380/285/383
f 378/280/226 377/279/379 384/289/384 385/292/386
f 376/282/380 375/281/227 382/290/238 383/288/236
f 257/141/323 264/156/328 279/374/88
f 384/289/384 383/288/236 390/293/387 391/294/388
f 382/290/238 381/286/232 388/295/389 389/296/244
f 380/285/383 379/291/385 386/193/136 387/297/390
f 385/292/386 384/289/384 391/294/388 392/174/117
f 383/288/236 382/290/238 389/296/244 390/293/387
f 381/286/232 380/285/383 387/297/390 388/295/389
f 387/297/390 386/193/136 393/192/135 394/298/248
f 392/174/117 391/294/388 398/299/249 399/300/116
f 390/293/387 389/296/244 396/301/251 397/302/252
f 388/295/389 387/297/390 394/298/248 395/303/253
f 391/294/388 390/293/387 397/302/252 398/299/249
f 389/296/244 388/295/389 395/303/253 396/301/251
f 399/172/116 398/304/249 405/305/391 406/306/392
f 397/307/252 396/308/251 403/309/256 404/310/393
f 395/311/253 394/312/248 401/313/394 402/314/395
f 329/241/368 322/236/366 371/375/137
f 398/304/249 397/307/252 404/310/393 405/305/391
f 396/308/251 395/311/253 402/314/395 403/309/256
f 394/312/248 393/315/135 400/316/396 401/313/394
f 405/305/391 404/310/393 411/318/397 412/319/398
f 403/309/256 402/314/395 409/320/399 410/321/264
f 401/313/394 400/316/396 407/322/400 408/323/401
f 406/306/392 405/305/391 412/319/398 413/233/402
f 404/310/393 403/309/256 410/321/264 411/318/397
f 402/314/395 401/313/394 408/323/401 409/320/399
f 412/319/398 411/318/397 418/324/267 419/325/403
f 410/321/264 409/320/399 416/326/404 417/327/270
f 408/323/401 407/322/400 414/328/405 415/329/272
f 413/233/402 412/319/398 419/325/403 420/234/177
f 411/318/397 410/321/264 417/327/270 418/324/267
f 409/320/399 408/323/401 415/329/272 416/326/404
f 145/376/137 68/201/144 61/187/130
f 371/377/137 421/339/289 414/328/405 407/322/400
f 420/234/177 419/325/403 426/330/406 427/331/407
f 418/324/267 417/327/270 424/332/275 425/333/276
f 416/326/404 415/329/272 422/334/408 423/335/409
f 419/325/403 418/324/267 425/333/276 426/330/406
f 417/327/270 416/326/404 423/335/409 424/332/275
f 415/329/272 414/328/405 421/339/289 422/334/408
f 425/333/276 424/332/275 431/340/410 432/341/411
f 423/335/409 422/334/408 429/342/284 430/343/412
f 420/234/177 427/331/407 279/378/88 413/233/402
f 426/330/406 425/333/276 432/341/411 433/344/286
f 424/332/275 423/335/409 430/343/412 431/340/410
f 422/334/408 421/339/289 428/345/287 429/342/284
f 427/331/407 426/330/406 433/344/286 434/346/413
f 433/344/286 432/341/411 439/348/414 440/349/291
f 431/340/410 430/343/412 437/350/415 438/351/416
f 429/342/284 428/345/287 435/352/417 436/353/295
f 434/346/413 433/344/286 440/349/291 441/338/418
f 432/341/411 431/340/410 438/351/416 439/348/414
f 430/343/412 429/342/284 436/353/295 437/350/415
f 438/351/416 437/350/415 444/355/419 445/356/297
f 436/353/295 435/352/417 442/357/302 443/358/299
f 441/338/418 440/349/291 447/359/300 448/336/308
f 439/348/414 438/351/416 445/356/297 446/360/301
f 437/350/415 436/353/295 443/358/299 444/355/419
f 441/338/418 448/336/308 279/379/88
f 75/207/150 68/201/144 145/380/137
f 440/349/291 439/348/414 446/360/301 447/359/300
f 448/336/308 447/359/300 452/114/60 453/126/306
f 446/360/301 445/356/297 229/118/64 451/115/61
f 444/355/419 443/358/299 228/122/68 450/119/65
f 447/359/300 446/360/301 451/115/61 452/114/60
f 445/356/297 444/355/419 450/119/65 229/118/64
f 443/358/299 442/357/302 449/123/304 228/122/68
f 454/5/5 457/381/420 458/382/421 460/383/422
f 455/38/37 459/384/423 458/385/421 457/386/420
f 456/16/16 460/387/422 458/388/421 459/389/423
f 461/15/15 464/390/424 465/391/425 467/392/426
f 462/3/3 466/393/427 465/394/425 464/395/424
f 463/6/6 467/396/426 465/397/425 466/398/427
f 468/35/34 471/399/428 472/400/429 474/401/430
f 469/8/8 473/402/431 472/403/429 471/404/428
f 470/405/432 474/406/430 472/407/429 473/402/431
f 475/7/7 478/408/433 479/409/434 481/410/435
f 476/2/2 480/411/436 479/412/434 478/413/433
f 477/414/437 481/410/435 479/415/434 480/416/436
f 482/37/36 485/417/438 486/418/439 488/419/440
f 483/19/19 487/420/441 486/418/439 485/417/438
f 484/13/13 488/421/440 486/418/439 487/420/441
f 489/18/18 492/422/442 493/423/443 495/424/444
f 490/4/4 494/425/445 493/423/443 492/422/442
f 491/14/14 495/424/444 493/423/443 494/426/445
f 496/108/58 499/427/446 500/428/447 502/429/448
f 497/20/20 501/430/449 500/428/450 499/427/446
f 498/36/35 502/431/448 500/428/447 501/430/451
f 503/1/1 506/432/452 507/433/453 509/434/454
f 504/17/17 508/435/455 507/433/453 506/432/452
f 505/39/38 509/436/454 507/433/453 508/435/455
f 515/79/22 518/437/456 519/438/457 521/439/458
f 516/43/40 520/437/459 519/438/457 518/437/456
f 517/440/460 521/439/458 519/438/457 520/437/459
f 522/80/23 525/441/461 526/442/462 528/443/463
f 523/444/59 527/443/464 526/442/462 525/441/461
f 524/50/44 528/443/463 526/442/462 527/443/464
f 529/51/45 532/445/465 533/446/466 535/447/467
f 530/41/11 534/448/468 533/446/466 532/445/465
f 531/44/30 535/447/467 533/446/466 534/448/468
f 536/42/39 539/449/469 540/450/470 542/449/471
f 537/45/31 541/451/472 540/450/470 539/449/469
f 538/40/10 542/449/471 540/450/470 541/451/472
f 543/48/22 546/452/456 547/453/457 549/454/458
f 544/53/46 548/452/459 547/453/457 546/452/456
f 545/455/460 549/454/458 547/453/457 548/452/459
f 550/49/23 553/456/461 554/457/462 556/458/463
f 551/459/59 555/458/464 554/457/462 553/456/461
f 552/55/26 556/458/463 554/457/462 555/458/464
f 557/56/27 560/460/465 561/461/473 563/462/467
f 558/23/11 562/463/468 561/461/473 560/460/465
f 559/32/30 563/462/467 561/461/473 562/463/468
f 564/52/39 567/464/474 568/465/470 570/464/471
f 565/33/31 569/466/475 568/465/470 567/464/474
f 566/22/10 570/464/471 568/465/470 569/466/475
f 571/57/22 574/467/456 575/468/457 577/469/458
f 572/60/40 576/467/459 575/468/457 574/467/456
f 573/470/460 577/469/458 575/468/457 576/467/459
f 578/58/23 581/471/461 582/472/462 584/473/463
f 579/474/59 583/473/464 582/472/462 581/471/461
f 580/28/26 584/473/463 582/472/462 583/473/464
f 585/29/27 588/475/465 589/476/476 591/477/477
f 586/11/11 590/478/468 589/476/476 588/475/465
f 587/61/30 591/477/477 589/476/476 590/478/468
f 592/59/39 595/479/469 596/480/470 598/479/471
f 593/62/47 597/481/475 596/480/470 595/479/469
f 594/10/10 598/479/471 596/480/470 597/481/475
f 599/81/24 602/443/478 603/482/479 605/483/480
f 600/50/29 604/50/481 603/482/479 602/443/478
f 601/64/49 605/483/480 603/482/479 604/50/481
f 606/82/25 609/484/482 610/485/483 612/486/484
f 607/63/48 611/43/485 610/485/483 609/484/482
f 608/43/41 612/486/484 610/485/483 611/43/485
f 613/42/42 616/42/486 617/487/487 619/488/488
f 614/66/51 618/489/489 617/487/487 616/42/486
f 615/46/43 619/488/488 617/487/487 618/489/489
f 620/51/28 623/445/490 624/490/491 626/51/492
f 621/47/33 625/491/493 624/490/491 623/445/490
f 622/65/50 626/51/492 624/490/491 625/491/493
f 627/49/24 630/458/478 631/492/479 633/493/480
f 628/55/29 632/55/481 631/492/479 630/458/478
f 629/68/49 633/493/480 631/492/479 632/55/481
f 634/48/25 637/494/482 638/495/494 640/496/484
f 635/67/48 639/497/485 638/495/494 637/494/482
f 636/53/41 640/496/484 638/495/494 639/497/485
f 641/54/42 644/54/486 645/498/487 647/464/488
f 642/70/51 646/499/489 645/498/487 644/54/486
f 643/33/32 647/464/488 645/498/487 646/499/489
f 648/56/28 651/460/490 652/500/491 654/56/492
f 649/34/33 653/34/493 652/500/491 651/460/490
f 650/69/50 654/56/492 652/500/491 653/34/493
f 655/58/24 658/473/478 659/501/495 661/502/480
f 656/31/29 660/31/481 659/501/495 658/473/478
f 657/72/49 661/502/480 659/501/495 660/31/481
f 662/57/25 665/503/482 666/504/494 668/505/484
f 663/71/48 667/60/485 666/504/494 665/503/482
f 664/60/41 668/505/484 666/504/494 667/60/485
f 669/59/42 672/59/486 673/506/487 675/479/488
f 670/74/51 674/507/496 673/506/487 672/59/486
f 671/62/32 675/479/488 673/506/487 674/507/496
f 676/30/28 679/475/490 680/508/491 682/30/492
f 677/61/33 681/509/493 680/508/491 679/475/490
f 678/73/50 682/30/492 680/508/491 681/509/493
f 683/75/30 686/510/467 687/511/497 689/512/498
f 684/87/45 688/510/499 687/511/497 686/510/467
f 685/513/11 689/512/498 687/511/497 688/510/499
f 690/76/31 693/514/475 694/515/500 696/516/474
f 691/517/10 695/516/501 694/515/500 693/514/475
f 692/83/52 696/516/474 694/515/500 695/516/501
f 697/84/46 700/518/502 701/519/503 703/520/456
f 698/521/460 702/522/504 701/519/503 700/518/502
f 699/90/22 703/520/456 701/519/503 702/522/504
f 704/86/44 707/523/463 708/524/505 710/523/506
f 705/91/23 709/525/507 708/524/505 707/523/463
f 706/109/59 710/523/506 708/524/505 709/525/507
f 711/94/30 714/526/467 715/527/508 717/528/509
f 712/98/45 716/526/510 715/527/508 714/526/467
f 713/107/57 717/528/509 715/527/508 716/526/510
f 718/95/31 721/529/472 722/530/511 724/531/469
f 719/532/10 723/531/512 722/530/511 721/529/472
f 720/100/52 724/531/469 722/530/511 723/531/512
f 725/101/46 728/533/502 729/534/513 731/535/514
f 726/536/460 730/537/515 729/534/513 728/533/502
f 727/24/22 731/535/514 729/534/513 730/537/515
f 732/97/44 735/538/516 736/539/517 738/540/506
f 733/25/23 737/541/518 736/539/517 735/538/516
f 734/542/59 738/540/506 736/539/517 737/541/518
f 739/77/32 742/516/488 743/543/519 745/544/496
f 740/83/42 744/83/520 743/543/519 742/516/488
f 741/104/54 745/544/496 743/543/519 744/83/520
f 746/78/33 749/545/521 750/546/522 752/510/490
f 747/103/53 751/87/523 750/546/522 749/545/521
f 748/88/28 752/510/490 750/546/522 751/87/523
f 753/89/29 756/547/524 757/548/525 759/549/478
f 754/106/56 758/550/526 757/548/525 756/547/524
f 755/92/24 759/549/478 757/548/525 758/550/526
f 760/85/41 763/518/484 764/551/527 766/552/528
f 761/93/25 765/553/529 764/551/527 763/518/484
f 762/105/55 766/552/528 764/551/527 765/553/529
f 767/94/33 770/554/521 771/555/522 773/556/490
f 768/110/53 772/557/492 771/555/522 770/554/521
f 769/99/28 773/556/490 771/555/522 772/557/492
f 774/96/32 777/531/488 778/558/530 780/95/496
f 775/100/42 779/559/486 778/558/530 777/531/488
f 776/111/54 780/95/496 778/558/530 779/559/486
f 781/97/29 784/97/481 785/560/525 787/561/478
f 782/113/49 786/562/526 785/560/525 784/97/481
f 783/26/24 787/561/478 785/560/525 786/562/526
f 788/102/41 791/533/484 792/563/527 794/102/485
f 789/27/25 793/564/529 792/563/527 791/533/484
f 790/112/55 794/102/485 792/563/527 793/564/529
f 468/35/34 455/38/37 457/386/420 471/399/428
f 471/404/428 457/381/420 454/5/5 469/8/8
f 460/383/422 467/396/426 463/6/6 454/5/5
f 462/3/3 476/2/2 478/413/433 466/393/427
f 466/398/427 478/408/433 475/7/7 463/6/6
f 481/410/435 477/414/437 510/565/531
f 498/36/35 468/35/34 474/401/430 502/431/448
f 502/429/448 474/406/430 470/405/432 496/108/58
f 476/2/2 503/1/1 509/434/454 480/411/436
f 480/416/436 509/436/454 505/39/38 477/414/437
f 504/17/17 497/20/20 499/427/446 508/435/455
f 499/427/446 514/21/21 513/9/9
f 482/37/36 498/36/35 501/430/451 485/417/438
f 485/417/438 501/430/449 497/20/20 483/19/19
f 503/1/1 490/4/4 492/422/442 506/432/452
f 506/432/452 492/422/442 489/18/18 504/17/17
f 495/424/444 487/420/441 483/19/19 489/18/18
f 455/38/37 482/37/36 488/419/440 459/384/423
f 459/389/423 488/421/440 484/13/13 456/16/16
f 490/4/4 462/3/3 464/395/424 494/425/445
f 494/426/445 464/390/424 461/15/15 491/14/14
f 456/16/16 461/15/15 467/392/426 460/387/422
f 481/410/435 473/402/431 469/8/8 475/7/7
f 510/565/531 579/474/59 573/470/460
f 371/380/137 315/216/359 308/213/358
f 491/14/14 484/13/13 487/420/441 495/424/444
f 522/80/23 515/79/22 521/439/458 525/441/461
f 525/441/461 521/439/458 517/440/460 523/444/59
f 516/43/40 536/42/39 542/449/471 520/437/459
f 520/437/459 542/449/471 538/40/10 517/440/460
f 523/444/59 530/41/11 532/445/465 527/443/464
f 527/443/464 532/445/465 529/51/45 524/50/44
f 530/41/11 538/40/10 541/451/472 534/448/468
f 534/448/468 541/451/472 537/45/31 531/44/30
f 550/49/23 543/48/22 549/454/458 553/456/461
f 553/456/461 549/454/458 545/455/460 551/459/59
f 544/53/46 564/52/39 570/464/471 548/452/459
f 548/452/459 570/464/471 566/22/10 545/455/460
f 551/459/59 558/23/11 560/460/465 555/458/464
f 555/458/464 560/460/465 557/56/27 552/55/26
f 558/23/11 566/22/10 569/466/475 562/463/468
f 562/463/468 569/466/475 565/33/31 559/32/30
f 578/58/23 571/57/22 577/469/458 581/471/461
f 581/471/461 577/469/458 573/470/460 579/474/59
f 572/60/40 592/59/39 598/479/471 576/467/459
f 576/467/459 598/479/471 594/10/10 573/470/460
f 579/474/59 586/11/11 588/475/465 583/473/464
f 583/473/464 588/475/465 585/29/27 580/28/26
f 586/11/11 594/10/10 597/481/475 590/478/468
f 590/478/468 597/481/475 593/62/47 587/61/30
f 601/64/49 607/63/48 609/484/482 605/483/480
f 605/483/480 609/484/482 606/82/25 599/81/24
f 607/63/48 614/66/51 616/42/486 611/43/485
f 611/43/485 616/42/486 613/42/42 608/43/41
f 600/50/29 620/51/28 626/51/492 604/50/481
f 604/50/481 626/51/492 622/65/50 601/64/49
f 621/47/33 615/46/43 618/489/489 625/491/493
f 625/491/493 618/489/489 614/66/51 622/65/50
f 629/68/49 635/67/48 637/494/482 633/493/480
f 633/493/480 637/494/482 634/48/25 627/49/24
f 635/67/48 642/70/51 644/54/486 639/497/485
f 639/497/485 644/54/486 641/54/42 636/53/41
f 628/55/29 648/56/28 654/56/492 632/55/481
f 632/55/481 654/56/492 650/69/50 629/68/49
f 649/34/33 643/33/32 646/499/489 653/34/493
f 653/34/493 646/499/489 642/70/51 650/69/50
f 657/72/49 663/71/48 665/503/482 661/502/480
f 661/502/480 665/503/482 662/57/25 655/58/24
f 663/71/48 670/74/51 672/59/486 667/60/485
f 667/60/485 672/59/486 669/59/42 664/60/41
f 656/31/29 676/30/28 682/30/492 660/31/481
f 660/31/481 682/30/492 678/73/50 657/72/49
f 677/61/33 671/62/32 674/507/496 681/509/493
f 681/509/493 674/507/496 670/74/51 678/73/50
f 559/32/30 649/34/33 651/460/490 563/462/467
f 563/462/467 651/460/490 648/56/28 557/56/27
f 627/49/24 550/49/23 556/458/463 630/458/478
f 630/458/478 556/458/463 552/55/26 628/55/29
f 571/57/22 662/57/25 668/505/484 574/467/456
f 574/467/456 668/505/484 664/60/41 572/60/40
f 671/62/32 593/62/47 595/479/469 675/479/488
f 675/479/488 595/479/469 592/59/39 669/59/42
f 524/50/44 600/50/29 602/443/478 528/443/463
f 528/443/463 602/443/478 599/81/24 522/80/23
f 608/43/41 516/43/40 518/437/456 612/486/484
f 612/486/484 518/437/456 515/79/22 606/82/25
f 564/52/39 641/54/42 647/464/488 567/464/474
f 567/464/474 647/464/488 643/33/32 565/33/31
f 587/61/30 677/61/33 679/475/490 591/477/477
f 591/477/477 679/475/490 676/30/28 585/29/27
f 655/58/24 578/58/23 584/473/463 658/473/478
f 658/473/478 584/473/463 580/28/26 656/31/29
f 615/46/43 537/45/31 539/449/469 619/488/488
f 619/488/488 539/449/469 536/42/39 613/42/42
f 636/53/41 544/53/46 546/452/456 640/496/484
f 640/496/484 546/452/456 543/48/22 634/48/25
f 531/44/30 621/47/33 623/445/490 535/447/467
f 535/447/467 623/445/490 620/51/28 529/51/45
f 690/76/31 683/75/30 689/512/498 693/514/475
f 693/514/475 689/512/498 685/513/11 691/517/10
f 706/109/59 685/513/11 688/510/499 710/523/506
f 710/523/506 688/510/499 684/87/45 704/86/44
f 691/517/10 698/521/460 700/518/502 695/516/501
f 695/516/501 700/518/502 697/84/46 692/83/52
f 705/91/23 699/90/22 702/522/504 709/525/507
f 709/525/507 702/522/504 698/521/460 706/109/59
f 713/107/57 719/532/10 721/529/472 717/528/509
f 717/528/509 721/529/472 718/95/31 711/94/30
f 734/542/59 713/107/57 716/526/510 738/540/506
f 738/540/506 716/526/510 712/98/45 732/97/44
f 719/532/10 726/536/460 728/533/502 723/531/512
f 723/531/512 728/533/502 725/101/46 720/100/52
f 726/536/460 734/542/59 737/541/518 730/537/515
f 730/537/515 737/541/518 733/25/23 727/24/22
f 741/104/54 747/103/53 749/545/521 745/544/496
f 745/544/496 749/545/521 746/78/33 739/77/32
f 753/89/29 748/88/28 751/87/523 756/547/524
f 756/547/524 751/87/523 747/103/53 754/106/56
f 740/83/42 760/85/41 766/552/528 744/83/520
f 744/83/520 766/552/528 762/105/55 741/104/54
f 754/106/56 762/105/55 765/553/529 758/550/526
f 758/550/526 765/553/529 761/93/25 755/92/24
f 767/94/33 774/96/32 780/95/496 770/554/521
f 770/554/521 780/95/496 776/111/54 768/110/53
f 781/97/29 769/99/28 772/557/492 784/97/481
f 784/97/481 772/557/492 768/110/53 782/113/49
f 775/100/42 788/102/41 794/102/485 779/559/486
f 779/559/486 794/102/485 790/112/55 776/111/54
f 789/27/25 783/26/24 786/562/526 793/564/529
f 793/564/529 786/562/526 782/113/49 790/112/55
f 683/75/30 746/78/33 752/510/490 686/510/467
f 686/510/467 752/510/490 748/88/28 684/87/45
f 755/92/24 705/91/23 707/523/463 759/549/478
f 759/549/478 707/523/463 704/86/44 753/89/29
f 727/24/22 789/27/25 791/533/484 731/535/514
f 731/535/514 791/533/484 788/102/41 725/101/46
f 774/96/32 718/95/31 724/531/469 777/531/488
f 777/531/488 724/531/469 720/100/52 775/100/42
f 769/99/28 712/98/45 714/526/467 773/556/490
f 773/556/490 714/526/467 711/94/30 767/94/33
f 699/90/22 761/93/25 763/518/484 703/520/456
f 703/520/456 763/518/484 760/85/41 697/84/46
f 739/77/32 690/76/31 696/516/474 742/516/488
f 742/516/488 696/516/474 692/83/52 740/83/42
f 732/97/44 781/97/29 787/561/478 735/538/516
f 735/538/516 787/561/478 783/26/24 733/25/23
f 470/405/432 511/566/532 691/517/10
f 470/405/432 691/517/10 685/513/11
f 726/536/460 514/21/21 496/108/58
f 734/542/59 726/536/460 496/108/58
f 496/108/58 470/405/432 706/109/59
f 470/405/432 685/513/11 706/109/59
f 706/109/59 698/521/460 719/532/10
f 698/521/460 1/567/64 719/532/10
f 713/107/57 734/542/59 496/108/58
f 719/532/10 713/107/57 706/109/59
f 227/126/72 10/127/73 53/142/88
f 10/127/73 17/131/77 53/142/88
f 17/131/77 24/136/82 53/142/88
f 335/159/104 342/249/192 279/160/88
f 342/249/192 349/251/235 279/160/88
f 279/160/88 321/219/224 328/161/105
f 399/172/116 406/306/392 279/173/88
f 406/306/392 413/233/402 279/173/88
f 279/173/88 385/292/386 392/174/117
f 379/291/385 371/194/137 386/193/136
f 371/194/137 407/322/400 400/316/396
f 393/192/135 371/194/137 400/316/396
f 74/196/139 81/208/151 53/223/88
f 81/208/151 88/215/158 53/223/88
f 357/269/347 371/225/137 364/224/166
f 371/225/137 379/291/385 372/226/167
f 258/154/204 371/232/137 265/167/175
f 371/232/137 287/187/130 280/182/125
f 272/176/174 371/232/137 280/182/125
f 166/174/247 173/172/250 53/235/88
f 173/172/250 180/306/255 53/235/88
f 180/306/255 187/233/176 53/235/88
f 251/148/205 244/143/319 371/261/137
f 244/143/319 237/128/74 371/261/137
f 237/128/74 230/124/303 371/261/137
f 293/190/342 300/196/344 279/278/88
f 300/196/344 307/208/356 279/278/88
f 307/208/356 314/215/223 279/278/88
f 131/269/213 145/317/137 138/224/218
f 145/317/137 160/193/245 153/291/239
f 146/226/167 145/317/137 153/291/239
f 442/357/302 435/352/417 371/347/137
f 435/352/417 428/345/287 371/347/137
f 194/234/177 201/331/274 53/354/88
f 201/331/274 208/346/288 53/354/88
f 209/352/294 202/345/287 145/364/137
f 202/345/287 195/339/281 145/364/137
f 109/159/185 116/249/192 53/365/88
f 116/249/192 123/251/194 53/365/88
f 123/251/194 130/264/208 53/365/88
f 124/263/207 117/256/199 145/366/137
f 117/256/199 110/247/190 145/366/137
f 110/247/190 103/241/183 145/366/137
f 181/322/265 174/316/260 145/367/137
f 174/316/260 167/192/135 145/367/137
f 167/192/135 160/193/245 145/367/137
f 18/143/89 11/128/74 145/368/137
f 11/128/74 4/124/70 145/368/137
f 4/124/70 223/123/69 145/368/137
f 152/280/226 159/292/240 53/369/88
f 159/292/240 166/174/247 53/369/88
f 53/369/88 137/271/215 144/276/221
f 278/177/120 286/184/127 279/371/88
f 286/184/127 293/190/342 279/371/88
f 279/371/88 264/156/328 271/157/330
f 370/276/378 378/280/226 279/369/88
f 378/280/226 385/292/386 279/369/88
f 60/184/127 67/190/133 53/372/88
f 67/190/133 74/196/139 53/372/88
f 53/372/88 45/157/103 52/177/120
f 236/127/307 243/131/77 279/374/88
f 243/131/77 250/136/314 279/374/88
f 250/136/314 257/141/323 279/374/88
f 315/216/359 371/375/137 322/236/366
f 371/375/137 343/256/348 336/247/190
f 329/241/368 371/375/137 336/247/190
f 61/187/130 54/182/125 145/376/137
f 54/182/125 46/176/119 145/376/137
f 46/176/119 39/167/111 145/376/137
f 427/331/407 434/346/413 279/379/88
f 434/346/413 441/338/418 279/379/88
f 89/216/159 82/213/156 145/380/137
f 82/213/156 75/207/150 145/380/137
f 510/565/531 511/566/532 473/402/431
f 511/566/532 470/405/432 473/402/431
f 473/402/431 481/410/435 510/565/531
f 505/39/38 508/435/455 512/12/12
f 508/435/455 499/427/446 513/9/9
f 499/427/446 496/108/58 514/21/21
f 513/9/9 512/12/12 508/435/455
f 538/40/10 512/12/12 586/11/11
f 538/40/10 586/11/11 579/474/59
f 517/440/460 538/40/10 579/474/59
f 573/470/460 594/10/10 558/23/11
f 594/10/10 513/9/9 558/23/11
f 573/470/460 558/23/11 551/459/59
f 545/455/460 566/22/10 1/567/64
f 566/22/10 514/21/21 726/536/460
f 1/567/64 566/22/10 719/532/10
f 726/536/460 719/532/10 566/22/10
f 1/567/64 698/521/460 545/455/460
f 698/521/460 691/517/10 545/455/460
f 691/517/10 511/566/532 545/455/460
f 511/566/532 510/565/531 545/455/460
f 510/565/531 477/414/437 579/474/59
f 579/474/59 477/414/437 517/440/460
f 477/414/437 505/39/38 530/41/11
f 477/414/437 530/41/11 523/444/59
f 551/459/59 545/455/460 510/565/531
f 477/414/437 523/444/59 517/440/460
f 573/470/460 551/459/59 510/565/531
f 308/213/358 301/207/355 371/380/137
f 301/207/355 294/201/349 371/380/137
f 294/201/349 287/187/130 371/380/137
