#File written by RizomUV 2023.0.70.ge90189e8. Compilation :Sep 22 2023,12:42:11
mtllib TOBOGAN NUEVO.mtl
#begin vertices
v -18.71131 7.399464 -15.29267
v -19.14651 7.401064 -14.7622
v -19.42349 7.402945 -14.13603
v -19.51982 7.404952 -13.46487
v -19.42769 7.406924 -12.80312
v -19.15457 7.408702 -12.20436
v -15.23261 7.400336 -14.95733
v -14.95948 7.402113 -14.35858
v -14.86735 7.404086 -13.69682
v -14.96369 7.406093 -13.02567
v -15.24067 7.407973 -12.39949
v -15.67586 7.409574 -11.86902
v -15.66459 7.398897 -15.44456
v -16.23402 7.410764 -11.47724
v -16.22045 7.397913 -15.78081
v -16.86991 7.411449 -11.25587
v -16.85515 7.397466 -15.93883
v -17.53202 7.411572 -11.22286
v -17.51726 7.397589 -15.90582
v -18.16672 7.411124 -11.38088
v -18.15316 7.398273 -15.68446
v -18.72258 7.410141 -11.71713
v -18.71131 12.03576 -15.29267
v -19.14651 12.03736 -14.7622
v -19.42349 12.03924 -14.13603
v -19.51982 12.04125 -13.46487
v -19.42769 12.04322 -12.80312
v -19.15457 12.045 -12.20436
v -15.23261 12.03663 -14.95733
v -14.95948 12.03841 -14.35858
v -14.86735 12.04038 -13.69682
v -14.96369 12.04239 -13.02567
v -15.24067 12.04427 -12.39949
v -15.67586 12.04587 -11.86902
v -15.66459 12.03519 -15.44456
v -16.23402 12.04706 -11.47724
v -16.22045 12.03421 -15.78081
v -16.86991 12.04775 -11.25587
v -16.85515 12.03376 -15.93883
v -17.53202 12.04787 -11.22286
v -17.51726 12.03389 -15.90582
v -18.16672 12.04742 -11.38088
v -18.15316 12.03457 -15.68446
v -18.72258 12.04644 -11.71713
v -18.71131 15.92832 -15.29267
v -19.14651 15.92992 -14.7622
v -19.42349 15.9318 -14.13603
v -19.51982 15.9338 -13.46487
v -19.42769 15.93578 -12.80312
v -19.15457 15.93755 -12.20436
v -15.23261 15.92919 -14.95733
v -14.95948 15.93097 -14.35858
v -14.86735 15.93294 -13.69682
v -14.96369 15.93495 -13.02567
v -15.24067 15.93683 -12.39949
v -15.67586 15.93843 -11.86902
v -15.66459 15.92775 -15.44456
v -16.23402 15.93962 -11.47724
v -16.22045 15.92677 -15.78081
v -16.86991 15.9403 -11.25587
v -16.85515 15.92632 -15.93883
v -17.53202 15.94043 -11.22286
v -17.51726 15.92644 -15.90582
v -18.16672 15.93998 -11.38088
v -18.15316 15.92713 -15.68446
v -18.72258 15.939 -11.71713
#end vertices

#begin 69 textures vertices 
vt 0.3176867 0.2297657 0
vt 0.2817672 0.247705 0
vt 0.2459306 0.2656214 0
vt 0.210447 0.2833708 0
vt 0.1754809 0.300861 0
vt 0.1410358 0.3180798 0
vt 0.5259396 0.1264211 0
vt 0.5604772 0.1093886 0
vt 0.5955461 0.09210516 0
vt 0.6311342 0.07456609 0
vt 0.6670685 0.05684682 0
vt 0.7030712 0.03907539 0
vt 0.4917745 0.1432907 0
vt 0.7388426 0.02139196 0
vt 0.4577006 0.1601448 0
vt 0.00390625 0.3863467 0
vt 0.4234089 0.1771421 0
vt 0.03865437 0.3691017 0
vt 0.3886673 0.1944 0
vt 0.07292282 0.3520575 0
vt 0.353396 0.2119576 0
vt 0.1069456 0.3351003 0
vt 0.438336 0.472756 0
vt 0.4024165 0.4906953 0
vt 0.3665799 0.5086116 0
vt 0.3310963 0.5263611 0
vt 0.2961303 0.5438512 0
vt 0.2616851 0.5610701 0
vt 0.6465889 0.3694113 0
vt 0.6811265 0.3523789 0
vt 0.7161954 0.3350954 0
vt 0.7517835 0.3175563 0
vt 0.7877179 0.2998371 0
vt 0.8237205 0.2820656 0
vt 0.6124238 0.3862809 0
vt 0.8594919 0.2643822 0
vt 0.5783499 0.4031351 0
vt 0.8947986 0.2468965 0
vt 0.5440582 0.4201323 0
vt 0.1593037 0.612092 0
vt 0.5093166 0.4373902 0
vt 0.1935722 0.5950477 0
vt 0.4740453 0.4549479 0
vt 0.227595 0.5780905 0
vt 0.5396311 0.6767664 0
vt 0.5037116 0.6947057 0
vt 0.4678751 0.7126221 0
vt 0.4323914 0.7303715 0
vt 0.3974254 0.7478617 0
vt 0.3629802 0.7650805 0
vt 0.747884 0.5734218 0
vt 0.7824216 0.5563893 0
vt 0.8174905 0.5391058 0
vt 0.8530786 0.5215667 0
vt 0.889013 0.5038475 0
vt 0.9250156 0.486076 0
vt 0.713719 0.5902915 0
vt 0.960787 0.4683926 0
vt 0.679645 0.6071455 0
vt 0.9960937 0.450907 0
vt 0.6453533 0.6241427 0
vt 0.2605988 0.8161023 0
vt 0.6106117 0.6414007 0
vt 0.2948673 0.7990581 0
vt 0.5753404 0.6589583 0
vt 0.3288901 0.7821009 0
vt 0.7741493 0.00390625 0
vt 0.1245556 0.629337 0
vt 0.2258507 0.8333475 0
#end 69 textures vertices 

#begin 64 normals 
vn 0.68 -0 0.7333
vn 0.8515 -0 0.5244
vn 0.9611 -0 0.2761
vn 1 -0 0.0024
vn 0.9603 -0 -0.2791
vn 0.8384 -0 -0.545
vn -0.8382 -0 0.5454
vn -0.9601 -0 0.2796
vn -1 -0 -0.0018
vn -0.9613 -0 -0.2756
vn -0.8517 -0 -0.524
vn -0.6802 -0 -0.733
vn -0.64 -0 0.7683
vn -0.4561 -0 -0.8899
vn -0.3838 -0 0.9234
vn -0.1913 -0 -0.9815
vn -0.0969 -0 0.9953
vn 0.097 -0 -0.9953
vn 0.1912 -0 0.9816
vn 0.384 -0 -0.9233
vn 0.4559 -0 0.89
vn 0.6403 -0 -0.7681
vn 0.6801 -0 0.7331
vn 0.8516 -0 0.5242
vn 0.9612 -0 0.2759
vn 1 -0 0.0021
vn 0.9602 -0 -0.2794
vn 0.8383 -0 -0.5452
vn -0.8383 -0 0.5452
vn -0.9602 -0 0.2794
vn -1 -0 -0.0021
vn -0.9612 -0 -0.2759
vn -0.8516 -0 -0.5242
vn -0.6801 -0 -0.7331
vn -0.6402 -0 0.7682
vn -0.456 -0 -0.89
vn -0.3839 -0 0.9234
vn -0.1912 -0 -0.9815
vn 0.0969 -0 -0.9953
vn 0.1912 -0 0.9815
vn 0.3839 -0 -0.9234
vn 0.456 -0 0.89
vn 0.6402 -0 -0.7682
vn 0.6802 -0 0.733
vn 0.8517 -0 0.524
vn 0.9613 -0 0.2756
vn 1 -0 0.0018
vn 0.9601 -0 -0.2796
vn 0.8382 -0 -0.5454
vn -0.8384 -0 0.545
vn -0.9603 -0 0.2791
vn -1 -0 -0.0024
vn -0.9611 -0 -0.2761
vn -0.8515 -0 -0.5244
vn -0.68 -0 -0.7333
vn -0.6403 -0 0.7681
vn -0.4559 -0 -0.89
vn -0.384 -0 0.9233
vn -0.1912 -0 -0.9816
vn -0.097 -0 0.9953
vn 0.1913 -0 0.9815
vn 0.3838 -0 -0.9234
vn 0.4561 -0 0.8899
vn 0.64 -0 -0.7683
#end 64 normals 

#begin 44 faces
o Plane:078
s 1
f 9/9/9 31/31/31 30/30/30 8/8/8 
f 16/67/16 38/38/38 36/36/36 14/14/14 
f 1/1/1 23/23/23 24/24/24 2/2/2 
f 10/10/10 32/32/32 31/31/31 9/9/9 
f 13/13/13 35/35/35 37/37/37 15/15/15 
f 2/2/2 24/24/24 25/25/25 3/3/3 
f 22/22/22 44/44/43 42/42/41 20/20/20 
f 11/11/11 33/33/33 32/32/32 10/10/10 
f 14/14/14 36/36/36 34/34/34 12/12/12 
f 3/3/3 25/25/25 26/26/26 4/4/4 
f 19/19/19 41/41/40 43/43/42 21/21/21 
f 6/6/6 28/28/28 44/44/43 22/22/22 
f 12/12/12 34/34/34 33/33/33 11/11/11 
f 7/7/7 29/29/29 35/35/35 13/13/13 
f 4/4/4 26/26/26 27/27/27 5/5/5 
f 20/20/20 42/42/41 40/40/39 18/18/18 
f 21/21/21 43/43/42 23/23/23 1/1/1 
f 5/5/5 27/27/27 28/28/28 6/6/6 
f 17/17/17 39/39/17 41/41/40 19/19/19 
f 18/18/18 40/40/39 38/68/38 16/16/16 
f 8/8/8 30/30/30 29/29/29 7/7/7 
f 15/15/15 37/37/37 39/39/17 17/17/17 
f 39/39/17 61/61/60 63/63/61 41/41/40 
f 31/31/31 53/53/52 52/52/51 30/30/30 
f 43/43/42 65/65/63 45/45/44 23/23/23 
f 40/40/39 62/62/39 60/69/59 38/68/38 
f 32/32/32 54/54/53 53/53/52 31/31/31 
f 23/23/23 45/45/44 46/46/45 24/24/24 
f 37/37/37 59/59/58 61/61/60 39/39/17 
f 33/33/33 55/55/54 54/54/53 32/32/32 
f 24/24/24 46/46/45 47/47/46 25/25/25 
f 38/38/38 60/60/59 58/58/57 36/36/36 
f 34/34/34 56/56/55 55/55/54 33/33/33 
f 25/25/25 47/47/46 48/48/47 26/26/26 
f 35/35/35 57/57/56 59/59/58 37/37/37 
f 44/44/43 66/66/64 64/64/62 42/42/41 
f 26/26/26 48/48/47 49/49/48 27/27/27 
f 36/36/36 58/58/57 56/56/55 34/34/34 
f 41/41/40 63/63/61 65/65/63 43/43/42 
f 27/27/27 49/49/48 50/50/49 28/28/28 
f 29/29/29 51/51/50 57/57/56 35/35/35 
f 42/42/41 64/64/62 62/62/39 40/40/39 
f 30/30/30 52/52/51 51/51/50 29/29/29 
f 28/28/28 50/50/49 66/66/64 44/44/43 
#end 44 faces

#ZOMPROPERTIES_04{
#ZOMPROPERTIES_04 table {Mesh table {SymPlane table {Point vector3d 0 0 0 Normal vector3d 1 0 0 Threshold double 0.01 
#ZOMPROPERTIES_04 Enabled bool false EdgeID int -1 SymEdgeID int -1 UPos double 0.5 LocalMode bool false } RootGroup C
#ZOMPROPERTIES_04 SubMeshGroup {Children table {Tile_0_0 CSubMeshGroup {Children table {} BBoxUV box3d 0 0 0 0 0 0 BBo
#ZOMPROPERTIES_04 x3D box3d 0 0 0 0 0 0 Area3D double 0 AreaUV double 0.42918 IsRoot bool false Properties table {Sele
#ZOMPROPERTIES_04 cted bool false Box box3d 0 1 0 1 0 1 U int 0 V int 0 NU int 0 NV int 0 Tiling vector3d 1 1 1 TileRa
#ZOMPROPERTIES_04 tioMode string "1:1" Overflow string "Off" Pack table {BoxFrameEdit bool false Behavior string "Free
#ZOMPROPERTIES_04 " } } IsTile bool true PolyIDs ints { 0 20 13 4 21 18 10 16 2 5 9 14 17 11 6 15 19 25 41 35 43 39 36
#ZOMPROPERTIES_04  33 30 27 24 38 22 28 34 40 42 23 26 29 32 37 31 1 8 12 7 3 } } } BBoxUV box3d 0 0 0 0 0 0 BBox3D bo
#ZOMPROPERTIES_04 x3d 0 0 0 0 0 0 Area3D double 0 AreaUV double 0 IsRoot bool true Properties table {Selected bool fal
#ZOMPROPERTIES_04 se Box box3d 0 1 0 1 0 1 U int 0 V int 0 NU int 1 NV int 1 Tiling vector3d 1 1 1 TileRatioMode strin
#ZOMPROPERTIES_04 g "1:1" Overflow string "Off" Pack table {Rotate table {Mode int 0 Min double 0 Max double 90 Step d
#ZOMPROPERTIES_04 ouble 0 } PaddingSize double 0.0078125 MarginSize double 0.00390625 Resolution int 256 MapResolution
#ZOMPROPERTIES_04  int 2048 Scaling table {TexelDensity double 1024 Mode int 2 } LayoutScalingMode int 2 MaxMutations 
#ZOMPROPERTIES_04 int 1 } } IsTile bool false PolyIDs ints { } } Maps table {Pin table {PrimType string "Vertex" Size 
#ZOMPROPERTIES_04 int 1 DefaultValue double 0 ScaleType string "Normalized" MergeMode string "Max" MinValue double 0 M
#ZOMPROPERTIES_04 axValue double 1 Data doubles { r 69 0 } } Density table {PrimType string "Polygon" Size int 1 Defau
#ZOMPROPERTIES_04 ltValue double 1 ScaleType string "Log" MergeMode string "Average" MinValue double 0.1 MaxValue doub
#ZOMPROPERTIES_04 le 4 Data doubles { r 44 1 } } Protect table {PrimType string "Vertex" Size int 1 DefaultValue doubl
#ZOMPROPERTIES_04 e 0 ScaleType string "Normalized" MergeMode string "Average" MinValue double -1 MaxValue double 1 Da
#ZOMPROPERTIES_04 ta doubles { r 69 0 } } } } }
#ZOMPROPERTIES_04}


#ZOMSCENE_01{
#ZOMSCENE_01 CScene {Settings table {AxisSystem table {UpVector string "y" } Unit string "cm" TexelDensityDisplay
#ZOMSCENE_01 Unit string "tx/cm" } Root table {} }
#ZOMSCENE_01}

#begin 0 fatal error vertex (that RizomUV cannot handle)
#end 0 fatal error vertex (that RizomUV cannot handle)

#begin 0 error vertex
#end 0 error vertex
