#File written by RizomUV 2023.0.70.ge90189e8. Compilation :Sep 22 2023,12:42:11
mtllib lavarropas pared.mtl
#begin vertices
v -21.59072 2.419604 9.161804
v -21.59072 -1.321394 9.161804
v -21.59072 2.419604 5.420806
v -21.59072 -1.321394 5.420806
v -21.59072 2.419604 6.044306
v -21.59072 2.419604 6.667806
v -21.59072 2.419604 7.291305
v -21.59072 2.419604 7.914804
v -21.59072 2.419604 8.538304
v -21.59072 -1.321394 8.538304
v -21.59072 -1.321394 7.914804
v -21.59072 -1.321394 7.291305
v -21.59072 -1.321394 6.667805
v -21.59072 -1.321394 6.044306
v -21.59072 1.796104 9.161804
v -21.59072 1.172605 9.161804
v -21.59072 0.549105 9.161804
v -21.59072 -0.074395 9.161804
v -21.59072 -0.697894 9.161804
v -21.59072 -0.697894 5.420806
v -21.59072 -0.074394 5.420806
v -21.59072 0.549105 5.420806
v -21.59072 1.172605 5.420806
v -21.59072 1.796104 5.420806
v -21.59072 -0.356397 8.196807
v -21.59072 0.059051 8.474401
v -21.59072 0.549105 8.571878
v -21.59072 1.039159 8.474401
v -21.59072 1.454608 8.196807
v -21.59072 -0.633991 7.781359
v -21.59072 1.732201 7.781359
v -21.59072 -0.731469 7.291305
v -21.37234 -0.582464 7.760016
v -21.37235 1.36767 8.10987
v -21.37235 0.992109 8.360812
v -21.59072 1.829679 7.291305
v -21.59072 -0.633991 6.80125
v -21.37235 0.549105 8.448931
v -21.37234 0.106101 8.360812
v -21.37234 -0.26946 8.10987
v -21.59072 1.732201 6.80125
v -21.59072 -0.356397 6.385802
v -21.59072 0.059051 6.108209
v -21.59072 0.549105 6.010731
v -21.59072 1.03916 6.108209
v -21.59072 1.454608 6.385802
v -21.44355 -0.356397 8.196807
v -21.44355 0.059051 8.474401
v -21.44355 0.549105 8.571878
v -21.44355 1.039159 8.474401
v -21.44355 1.454608 8.196807
v -21.44355 -0.633991 7.781359
v -21.44355 1.732201 7.781359
v -21.44355 -0.731469 7.291305
v -21.44355 1.829679 7.291305
v -21.44355 -0.633991 6.80125
v -21.44355 1.732201 6.80125
v -21.44355 -0.356397 6.385802
v -21.44355 0.059051 6.108209
v -21.44355 0.549105 6.010731
v -21.44355 1.03916 6.108209
v -21.44355 1.454608 6.385802
v -21.37235 1.680674 7.760016
v -21.37234 -0.608521 7.291305
v -21.37235 1.706731 7.291305
v -21.37234 -0.520402 6.8483
v -21.37235 1.618612 6.8483
v -21.37234 -0.26946 6.47274
v -21.37234 0.106101 6.221798
v -21.37235 0.549105 6.133679
v -21.37235 0.992109 6.221798
v -21.37235 1.36767 6.47274
v -21.37235 1.017816 8.422873
v -21.37235 1.41517 8.15737
v -21.37235 0.549105 8.516106
v -21.37234 0.080394 8.422873
v -21.37234 -0.31696 8.15737
v -21.37234 -0.31696 6.42524
v -21.37234 0.080394 6.159737
v -21.37235 0.549105 6.066504
v -21.37235 1.017816 6.159737
v -21.37235 1.41517 6.42524
v -21.37235 1.680674 6.822594
v -21.37234 -0.582464 6.822594
v -21.37235 1.773906 7.291305
v -21.37234 -0.675696 7.291305
v -21.37235 1.618612 7.734309
v -21.37234 -0.520402 7.734309
v -21.54499 1.490362 7.681186
v -21.54499 -0.392151 7.681186
v -21.54499 -0.469704 7.291305
v -21.54499 1.567914 7.291305
v -21.54499 -0.392151 6.901423
v -21.54499 1.490362 6.901424
v -21.54499 0.938986 6.350049
v -21.54499 0.549105 6.272496
v -21.54499 0.159224 6.350049
v -21.54499 0.938986 8.232561
v -21.54499 0.549105 8.310114
v -21.54499 0.159224 8.232561
v -21.54499 1.269512 8.011711
v -21.54499 -0.171301 8.011711
v -21.54499 -0.171301 6.570899
v -21.54499 1.269512 6.570899
v -21.54499 0.971549 8.311174
v -21.54499 1.329679 8.071879
v -21.54499 0.549105 8.395204
v -21.54499 0.126661 8.311174
v -21.54499 -0.231469 8.071879
v -21.54499 -0.231469 6.510731
v -21.54499 0.126661 6.271436
v -21.54499 0.549105 6.187407
v -21.54499 0.971549 6.271436
v -21.54499 1.329679 6.510731
v -21.54499 1.568974 6.868861
v -21.54499 -0.470764 6.868861
v -21.54499 1.653004 7.291305
v -21.54499 -0.554793 7.291305
v -21.54499 1.568974 7.713749
v -21.54499 -0.470764 7.713748
v -21.28956 1.374506 7.633197
v -21.28956 -0.276296 7.633197
v -21.28956 -0.344302 7.291305
v -21.28956 1.442512 7.291305
v -21.28956 -0.276296 6.949413
v -21.28956 1.374506 6.949413
v -21.28956 0.890997 6.465904
v -21.28956 0.549105 6.397898
v -21.28956 0.207213 6.465904
v -21.28956 0.890997 8.116706
v -21.28956 0.549105 8.184712
v -21.28956 0.207213 8.116706
v -21.28956 1.180839 7.923039
v -21.28956 -0.082629 7.923039
v -21.28956 -0.082629 6.659571
v -21.28956 1.180839 6.659571
v -21.28956 0.909448 8.161249
v -21.28956 1.214931 7.957131
v -21.28956 0.549105 8.232925
v -21.28956 0.188762 8.161249
v -21.28956 -0.116721 7.957131
v -21.28956 -0.116721 6.625479
v -21.28956 0.188763 6.421361
v -21.28956 0.549105 6.349684
v -21.28956 0.909448 6.421361
v -21.28956 1.214931 6.625479
v -21.28956 1.419049 6.930962
v -21.28956 -0.320839 6.930962
v -21.28956 1.490726 7.291305
v -21.28956 -0.392516 7.291305
v -21.28956 1.419049 7.651648
v -21.28956 -0.320839 7.651648
v -21.38171 1.27819 7.593302
v -21.38171 -0.179979 7.593302
v -21.38171 -0.24005 7.291305
v -21.38171 1.33826 7.291305
v -21.38171 -0.179979 6.989308
v -21.38171 1.27819 6.989308
v -21.38171 0.851102 6.562221
v -21.38171 0.549105 6.50215
v -21.38171 0.247108 6.562221
v -21.38171 0.851102 8.02039
v -21.38171 0.549105 8.080461
v -21.38171 0.247108 8.02039
v -21.38171 1.107122 7.849322
v -21.38171 -0.008912 7.849322
v -21.38171 -0.008912 6.733288
v -21.38171 1.107122 6.733288
v -21.44237 -1.525186 6.044306
v -21.44237 -1.525186 5.420806
v -21.44237 -1.525186 9.161804
v -21.44237 -1.525186 8.538304
v -21.44237 -1.525186 7.914804
v -21.44237 -1.525186 7.291305
v -21.44237 -1.525186 6.667805
v -21.44237 -1.476453 7.291305
v -21.44237 -1.476453 8.538304
v -21.44237 -1.476453 9.161804
v -21.44237 -1.476453 6.667805
v -21.44237 -1.476453 7.914804
v -21.44237 -1.476453 6.044306
v -21.44237 -1.476453 5.420806
v -21.57817 -1.321394 6.044306
v -21.53213 -1.367435 6.044306
v -21.57011 -1.321394 6.044306
v -21.56666 -1.324847 6.044306
v -21.56487 -1.333963 6.044306
v -21.55975 -1.33981 6.044306
v -21.55137 -1.343401 6.044306
v -21.54442 -1.347499 6.044306
v -21.54134 -1.355925 6.044306
v -21.53789 -1.355925 6.044306
v -21.53581 -1.360068 6.044306
v -21.57817 -1.321394 5.420806
v -21.53213 -1.367435 5.420806
v -21.57011 -1.321394 5.420806
v -21.56666 -1.324847 5.420806
v -21.56487 -1.333963 5.420806
v -21.55975 -1.33981 5.420806
v -21.55137 -1.343401 5.420806
v -21.54442 -1.347499 5.420806
v -21.54134 -1.355925 5.420806
v -21.53789 -1.355925 5.420806
v -21.53581 -1.360068 5.420806
v -21.53213 -1.367435 9.161804
v -21.57817 -1.321394 9.161804
v -21.53581 -1.360068 9.161804
v -21.53789 -1.355925 9.161804
v -21.54134 -1.355925 9.161804
v -21.54442 -1.347499 9.161804
v -21.55137 -1.343401 9.161804
v -21.55975 -1.33981 9.161804
v -21.56487 -1.333963 9.161804
v -21.56666 -1.324847 9.161804
v -21.57011 -1.321394 9.161804
v -21.53213 -1.367435 8.538304
v -21.57817 -1.321394 8.538304
v -21.53581 -1.360068 8.538304
v -21.53789 -1.355925 8.538304
v -21.54134 -1.355925 8.538304
v -21.54442 -1.347499 8.538304
v -21.55137 -1.343401 8.538304
v -21.55975 -1.33981 8.538304
v -21.56487 -1.333963 8.538304
v -21.56666 -1.324847 8.538304
v -21.57011 -1.321394 8.538304
v -21.53213 -1.367435 7.914804
v -21.57817 -1.321394 7.914804
v -21.53581 -1.360068 7.914804
v -21.53789 -1.355925 7.914804
v -21.54134 -1.355925 7.914804
v -21.54442 -1.347499 7.914804
v -21.55137 -1.343401 7.914804
v -21.55975 -1.33981 7.914804
v -21.56487 -1.333963 7.914804
v -21.56666 -1.324847 7.914804
v -21.57011 -1.321394 7.914804
v -21.53213 -1.367435 7.291305
v -21.57817 -1.321394 7.291305
v -21.53581 -1.360068 7.291305
v -21.53789 -1.355925 7.291305
v -21.54134 -1.355925 7.291305
v -21.54442 -1.347499 7.291305
v -21.55137 -1.343401 7.291305
v -21.55975 -1.33981 7.291305
v -21.56487 -1.333963 7.291305
v -21.56666 -1.324847 7.291305
v -21.57011 -1.321394 7.291305
v -21.53213 -1.367435 6.667805
v -21.57817 -1.321394 6.667805
v -21.53581 -1.360068 6.667805
v -21.53789 -1.355925 6.667805
v -21.54134 -1.355925 6.667805
v -21.54442 -1.347499 6.667805
v -21.55137 -1.343401 6.667805
v -21.55975 -1.33981 6.667805
v -21.56487 -1.333963 6.667805
v -21.56666 -1.324847 6.667805
v -21.57011 -1.321394 6.667805
v -21.53213 -1.409823 6.667805
v -21.4655 -1.476453 6.667805
v -21.53213 -1.443138 6.667805
v -21.53213 -1.443138 6.667805
v -21.5305 -1.453433 6.667805
v -21.52577 -1.46272 6.667805
v -21.5184 -1.470091 6.667805
v -21.50911 -1.474823 6.667805
v -21.4655 -1.476453 7.291305
v -21.53213 -1.409823 7.291305
v -21.50911 -1.474823 7.291305
v -21.5184 -1.470091 7.291305
v -21.52577 -1.46272 7.291305
v -21.5305 -1.453433 7.291305
v -21.53213 -1.443138 7.291305
v -21.53213 -1.443138 7.291305
v -21.53213 -1.409823 7.914804
v -21.4655 -1.476453 7.914804
v -21.53213 -1.443138 7.914804
v -21.53213 -1.443138 7.914804
v -21.5305 -1.453433 7.914804
v -21.52577 -1.46272 7.914804
v -21.5184 -1.470091 7.914804
v -21.50911 -1.474823 7.914804
v -21.4655 -1.476453 8.538304
v -21.53213 -1.409823 8.538304
v -21.50911 -1.474823 8.538304
v -21.5184 -1.470091 8.538304
v -21.52577 -1.46272 8.538304
v -21.5305 -1.453433 8.538304
v -21.53213 -1.443138 8.538304
v -21.53213 -1.443138 8.538304
v -21.53213 -1.409823 6.044306
v -21.4655 -1.476453 6.044306
v -21.53213 -1.443138 6.044306
v -21.53213 -1.443138 6.044306
v -21.5305 -1.453433 6.044306
v -21.52577 -1.46272 6.044306
v -21.5184 -1.470091 6.044306
v -21.50911 -1.474823 6.044306
v -21.53213 -1.409823 5.420806
v -21.4655 -1.476453 5.420806
v -21.53213 -1.443138 5.420806
v -21.53213 -1.443138 5.420806
v -21.5305 -1.453433 5.420806
v -21.52577 -1.46272 5.420806
v -21.5184 -1.470091 5.420806
v -21.50911 -1.474823 5.420806
v -21.4655 -1.476453 9.161804
v -21.53213 -1.409823 9.161804
v -21.50911 -1.474823 9.161804
v -21.5184 -1.470091 9.161804
v -21.52577 -1.46272 9.161804
v -21.5305 -1.453433 9.161804
v -21.53213 -1.443138 9.161804
v -21.53213 -1.443138 9.161804
v -21.44237 -2.043165 6.044306
v -21.44237 -2.043165 5.420806
v -21.44237 -2.043165 9.161804
v -21.44237 -2.043165 8.538304
v -21.44237 -2.043165 7.914804
v -21.44237 -2.043165 7.291305
v -21.44237 -2.043165 6.667805
v -21.67529 0.240614 8.74141
v -21.67529 0.780604 8.74141
v -21.45999 0.240614 8.201421
v -21.45999 0.780604 8.201421
v -21.33644 0.273878 8.708227
v -21.33644 0.74734 8.708227
v -21.35734 0.273878 8.234603
v -21.35734 0.74734 8.234603
v -21.35881 0.780604 8.201421
v -21.35881 0.240614 8.201421
v -21.33497 0.240614 8.74141
v -21.33497 0.780604 8.74141
v -21.37089 0.711415 8.271109
v -21.37089 0.309804 8.271109
v -21.35315 0.309804 8.673058
v -21.35315 0.711415 8.673058
v -21.37247 0.74734 8.235271
v -21.37247 0.273878 8.235271
v -21.35157 0.273878 8.708896
v -21.35157 0.74734 8.708896
v -21.3462 0.680947 8.300571
v -21.3462 0.340272 8.300571
v -21.33115 0.340272 8.641533
v -21.33115 0.680947 8.641533
v -21.6679 0.252352 8.795612
v -21.6679 0.768866 8.795612
v -21.48682 0.768866 8.795612
v -21.48682 0.252352 8.795612
v -21.38171 1.27819 7.593302
v -21.38171 -0.179979 7.593302
v -21.38171 -0.24005 7.291305
v -21.38171 1.33826 7.291305
v -21.38171 -0.179979 6.989308
v -21.38171 1.27819 6.989308
v -21.38171 0.851102 6.562221
v -21.38171 0.549105 6.50215
v -21.38171 0.247109 6.562221
v -21.38171 0.851102 8.02039
v -21.38171 0.549105 8.080461
v -21.38171 0.247108 8.02039
v -21.38171 1.107122 7.849322
v -21.38171 -0.008912 7.849322
v -21.38171 -0.008912 6.733288
v -21.38171 1.107122 6.733288
v -21.3817 1.27819 7.593302
v -21.3817 -0.179979 7.593302
v -21.3817 -0.24005 7.291305
v -21.3817 1.33826 7.291305
v -21.3817 -0.179979 6.989308
v -21.3817 1.27819 6.989308
v -21.3817 0.851102 6.562221
v -21.3817 0.549105 6.50215
v -21.3817 0.247109 6.562221
v -21.3817 0.851102 8.02039
v -21.3817 0.549105 8.080461
v -21.3817 0.247108 8.02039
v -21.3817 1.107122 7.849322
v -21.3817 -0.008912 7.849322
v -21.3817 -0.008912 6.733288
v -21.3817 1.107122 6.733288
v -21.67924 0.851102 8.02039
v -21.67924 1.107122 7.849322
v -21.67924 0.549105 8.080461
v -21.67924 0.247108 8.02039
v -21.67924 -0.008912 7.849322
v -21.67924 -0.008912 6.733288
v -21.67924 0.247109 6.562221
v -21.67924 0.549105 6.50215
v -21.67924 0.851102 6.562221
v -21.67924 1.107122 6.733288
v -21.67924 1.27819 6.989308
v -21.67924 -0.179979 6.989308
v -21.67924 1.33826 7.291305
v -21.67924 -0.24005 7.291305
v -21.67924 1.27819 7.593302
v -21.67924 -0.179979 7.593302
#end vertices

#begin 466 textures vertices 
vt 0.2798926 0.6952874 0
vt 0.2950841 0.8743875 0
vt 0.6952874 0.4193011 0
vt 0.4193011 0.00390625 0
vt 0.6260549 0.4652988 0
vt 0.5568224 0.5112966 0
vt 0.48759 0.5572942 0
vt 0.4183576 0.6032919 0
vt 0.3491251 0.6492897 0
vt 0.07313876 0.2338948 0
vt 0.1423713 0.1878971 0
vt 0.2116037 0.1418994 0
vt 0.2808362 0.09590167 0
vt 0.3500686 0.049904 0
vt 0.2338948 0.6260549 0
vt 0.1878972 0.5568225 0
vt 0.1418994 0.48759 0
vt 0.09590167 0.4183575 0
vt 0.049904 0.3491251 0
vt 0.4652988 0.07313876 0
vt 0.5112966 0.1423713 0
vt 0.5572942 0.2116037 0
vt 0.603292 0.2808362 0
vt 0.6492897 0.3500686 0
vt 0.6109236 0.1578405 0
vt 0.6104013 0.2339306 0
vt 0.6389912 0.3047903 0
vt 0.6930848 0.3587637 0
vt 0.7634414 0.3878325 0
vt 0.2079009 0.2543806 0
vt 0.8397748 0.3887626 0
vt 0.2551245 0.2074038 0
vt 0.6661125 0.1046832 0
vt 0.771383 0.3484404 0
vt 0.7157306 0.32492 0
vt 0.4440692 0.4917899 0
vt 0.3167307 0.1820746 0
vt 0.6732337 0.2820486 0
vt 0.6502827 0.2261517 0
vt 0.6503931 0.1656098 0
vt 0.4912929 0.444813 0
vt 0.8411406 0.004372449 0
vt 0.9118191 0.03398981 0
vt 0.9648484 0.08891899 0
vt 0.993657 0.1592805 0
vt 0.5169446 0.3833404 0
vt 0.6296219 0.1615007 0
vt 0.6296268 0.2302803 0
vt 0.6557755 0.2936569 0
vt 0.70392 0.3424677 0
vt 0.7672538 0.3691578 0
vt 0.6560414 0.09794766 0
vt 0.8358512 0.3690302 0
vt 0.7046405 0.04916236 0
vt 0.8993059 0.3431812 0
vt 0.7684135 0.02312199 0
vt 0.9478129 0.2946879 0
vt 0.8372359 0.02356382 0
vt 0.9004015 0.05057205 0
vt 0.9483651 0.09951978 0
vt 0.9744149 0.1629165 0
vt 0.9742058 0.2314648 0
vt 0.8334702 0.3571765 0
vt 0.7163014 0.06671587 0
vt 0.887591 0.3256164 0
vt 0.7723687 0.04382761 0
vt 0.9303213 0.2829713 0
vt 0.8328779 0.04419365 0
vt 0.8884702 0.06789629 0
vt 0.9307112 0.1110636 0
vt 0.9537366 0.1668955 0
vt 0.9536281 0.2272862 0
vt 0.7107303 0.3323489 0
vt 0.7696113 0.3572433 0
vt 0.665785 0.2870093 0
vt 0.6414994 0.2278945 0
vt 0.6416006 0.1638702 0
vt 0.8347168 0.03542049 0
vt 0.8935274 0.06051829 0
vt 0.9382026 0.1061385 0
vt 0.9625229 0.1651831 0
vt 0.9624111 0.2290662 0
vt 0.9377489 0.2879653 0
vt 0.7706739 0.03502623 0
vt 0.8925538 0.3330923 0
vt 0.7113338 0.05926035 0
vt 0.8317431 0.3483971 0
vt 0.6735725 0.1096509 0
vt 0.8301589 0.8000314 0
vt 0.6263082 0.4942988 0
vt 0.6820323 0.4401906 0
vt 0.9006507 0.7698149 0
vt 0.753736 0.4115748 0
vt 0.9559547 0.7166711 0
vt 0.9883472 0.5671004 0
vt 0.9569271 0.4953079 0
vt 0.9016774 0.4411393 0
vt 0.6800106 0.7717237 0
vt 0.626801 0.7151756 0
vt 0.5962273 0.6445378 0
vt 0.7526691 0.8006903 0
vt 0.5946468 0.5661725 0
vt 0.8303814 0.4128239 0
vt 0.9867206 0.6455504 0
vt 0.7291915 0.3048633 0
vt 0.7762709 0.3240772 0
vt 0.692792 0.2690241 0
vt 0.6739487 0.2214203 0
vt 0.6741068 0.1701835 0
vt 0.8278366 0.06781371 0
vt 0.8747738 0.08772737 0
vt 0.9110135 0.1239895 0
vt 0.9301011 0.1716272 0
vt 0.9299325 0.2226102 0
vt 0.9102202 0.2695988 0
vt 0.7768459 0.0675777 0
vt 0.8741235 0.3055516 0
vt 0.7300633 0.08738119 0
vt 0.8269855 0.3247103 0
vt 0.6937425 0.1229679 0
vt 0.8192855 0.748376 0
vt 0.6698932 0.5247222 0
vt 0.7104264 0.4849247 0
vt 0.8722894 0.7269954 0
vt 0.7631745 0.4635091 0
vt 0.9126126 0.6865443 0
vt 0.934422 0.5777952 0
vt 0.9131889 0.5255129 0
vt 0.8729638 0.4854158 0
vt 0.710289 0.726179 0
vt 0.6695978 0.6865166 0
vt 0.6479833 0.6336668 0
vt 0.762396 0.7484547 0
vt 0.6484966 0.5770553 0
vt 0.8203343 0.4632106 0
vt 0.934802 0.6342423 0
vt 0.7058312 0.7328851 0
vt 0.760749 0.7564452 0
vt 0.6627998 0.6911021 0
vt 0.6399884 0.6351679 0
vt 0.6405822 0.5754511 0
vt 0.8219423 0.4552084 0
vt 0.8775099 0.4787048 0
vt 0.9200113 0.521025 0
vt 0.9423473 0.5762257 0
vt 0.9428142 0.6358038 0
vt 0.9193638 0.6910398 0
vt 0.76159 0.4555576 0
vt 0.8768053 0.7337905 0
vt 0.7059382 0.4781479 0
vt 0.8208169 0.7563418 0
vt 0.6631025 0.5201909 0
vt 0.8148112 0.7254098 0
vt 0.6895474 0.5379457 0
vt 0.7233329 0.5044627 0
vt 0.8590483 0.7071007 0
vt 0.7677841 0.4866457 0
vt 0.8931656 0.6735352 0
vt 0.9113227 0.5824234 0
vt 0.8936174 0.5384799 0
vt 0.8597109 0.5049277 0
vt 0.7234278 0.7066825 0
vt 0.6891366 0.6734214 0
vt 0.6711812 0.6291223 0
vt 0.7671718 0.7250344 0
vt 0.6718154 0.5817843 0
vt 0.8156127 0.4866631 0
vt 0.9113348 0.6296248 0
vt 0.4182826 0.8915415 0
vt 0.3039306 0.8928898 0
vt 0.9900426 0.8847997 0
vt 0.8756905 0.8861481 0
vt 0.7613385 0.8874964 0
vt 0.6469866 0.8888448 0
vt 0.5326345 0.8901931 0
vt 0.6385159 0.8202609 0
vt 0.4091197 0.8233312 0
vt 0.9899372 0.8758619 0
vt 0.7532141 0.8187241 0
vt 0.5238179 0.821796 0
vt 0.4181772 0.8826037 0
vt 0.9826106 0.8156555 0
vt 0.8685441 0.8644067 0
vt 0.8683657 0.8510739 0
vt 0.8685243 0.8629245 0
vt 0.8685123 0.8620263 0
vt 0.8684894 0.8603171 0
vt 0.8684703 0.8588886 0
vt 0.8684478 0.8572113 0
vt 0.868428 0.8557271 0
vt 0.8684059 0.8540763 0
vt 0.8683974 0.8534413 0
vt 0.868386 0.852589 0
vt 0.9832425 0.8628704 0
vt 0.9830639 0.8495376 0
vt 0.9832226 0.8613882 0
vt 0.9832106 0.86049 0
vt 0.9831877 0.8587808 0
vt 0.9831686 0.8573523 0
vt 0.9831461 0.855675 0
vt 0.9831262 0.8541908 0
vt 0.9831041 0.85254 0
vt 0.9830956 0.851905 0
vt 0.9830842 0.8510527 0
vt 0.2948748 0.8587457 0
vt 0.2950532 0.8720785 0
vt 0.2948951 0.8602608 0
vt 0.2949065 0.8611131 0
vt 0.294915 0.8617481 0
vt 0.2949371 0.8633989 0
vt 0.2949569 0.8648831 0
vt 0.2949794 0.8665604 0
vt 0.2949985 0.8679889 0
vt 0.2950213 0.8696981 0
vt 0.2950334 0.8705963 0
vt 0.4095731 0.857211 0
vt 0.4097514 0.8705439 0
vt 0.4095933 0.8587262 0
vt 0.4096047 0.8595785 0
vt 0.4096132 0.8602135 0
vt 0.4096353 0.8618642 0
vt 0.4096552 0.8633485 0
vt 0.4096776 0.8650258 0
vt 0.4096967 0.8664543 0
vt 0.4097196 0.8681635 0
vt 0.4097316 0.8690617 0
vt 0.5242713 0.8556765 0
vt 0.5244497 0.8690093 0
vt 0.5242916 0.8571916 0
vt 0.524303 0.8580439 0
vt 0.5243115 0.858679 0
vt 0.5243336 0.8603297 0
vt 0.5243534 0.8618139 0
vt 0.5243759 0.8634912 0
vt 0.524395 0.8649197 0
vt 0.5244178 0.866629 0
vt 0.5244299 0.8675271 0
vt 0.6389694 0.8541417 0
vt 0.6391477 0.8674745 0
vt 0.6389896 0.8556568 0
vt 0.639001 0.8565091 0
vt 0.6390095 0.8571442 0
vt 0.6390316 0.8587949 0
vt 0.6390515 0.8602791 0
vt 0.6390739 0.8619564 0
vt 0.639093 0.8633849 0
vt 0.6391159 0.8650942 0
vt 0.6391279 0.8659924 0
vt 0.7536676 0.8526081 0
vt 0.7538459 0.8659409 0
vt 0.7536879 0.8541232 0
vt 0.7536993 0.8549755 0
vt 0.7537078 0.8556106 0
vt 0.7537299 0.8572613 0
vt 0.7537497 0.8587455 0
vt 0.7537721 0.8604228 0
vt 0.7537912 0.8618513 0
vt 0.7538141 0.8635606 0
vt 0.7538261 0.8644588 0
vt 0.7535633 0.8448105 0
vt 0.7532711 0.8229798 0
vt 0.7534799 0.8386814 0
vt 0.7534793 0.8386791 0
vt 0.7534556 0.8367601 0
vt 0.75343 0.8348428 0
vt 0.7534043 0.832925 0
vt 0.7533786 0.8310076 0
vt 0.6385729 0.8245166 0
vt 0.6388651 0.846344 0
vt 0.6386804 0.8325445 0
vt 0.638706 0.8344619 0
vt 0.6387317 0.8363797 0
vt 0.6387574 0.838297 0
vt 0.6387832 0.8402129 0
vt 0.6387831 0.8402155 0
vt 0.524167 0.8478789 0
vt 0.5238749 0.8260517 0
vt 0.5240867 0.8417501 0
vt 0.5240867 0.8417477 0
vt 0.5240593 0.839832 0
vt 0.5240336 0.8379147 0
vt 0.524008 0.835997 0
vt 0.5239823 0.8340795 0
vt 0.4091766 0.8275869 0
vt 0.4094687 0.8494134 0
vt 0.4092841 0.8356148 0
vt 0.4093097 0.8375322 0
vt 0.4093354 0.8394499 0
vt 0.4093611 0.8413672 0
vt 0.4093888 0.8432834 0
vt 0.4093867 0.8432848 0
vt 0.8682613 0.8432762 0
vt 0.8679692 0.8214442 0
vt 0.8681805 0.8371456 0
vt 0.8681778 0.8371428 0
vt 0.8681536 0.8352245 0
vt 0.8681279 0.8333072 0
vt 0.8681023 0.8313895 0
vt 0.8680766 0.829472 0
vt 0.9829595 0.8417399 0
vt 0.9826675 0.8199112 0
vt 0.9828774 0.8356113 0
vt 0.9828754 0.8356099 0
vt 0.9828517 0.8336916 0
vt 0.9828261 0.8317742 0
vt 0.9828004 0.8298565 0
vt 0.9827748 0.8279391 0
vt 0.2944784 0.8291218 0
vt 0.2947705 0.850948 0
vt 0.2945858 0.8371497 0
vt 0.2946115 0.8390671 0
vt 0.2946372 0.8409849 0
vt 0.2946628 0.8429022 0
vt 0.2946897 0.8448201 0
vt 0.2946877 0.8448215 0
vt 0.4194028 0.9865406 0
vt 0.3050507 0.987889 0
vt 0.9911627 0.9797989 0
vt 0.8768107 0.9811472 0
vt 0.7624586 0.9824956 0
vt 0.6481067 0.9838439 0
vt 0.5337547 0.9851923 0
vt 0.1001704 0.00390625 0
vt 0.03436393 0.1871625 0
vt 0.1977803 0.07191047 0
vt 0.1471385 0.1693193 0
vt 0.1073439 0.06761208 0
vt 0.05487018 0.1232601 0
vt 0.1733897 0.08248359 0
vt 0.1375726 0.1466022 0
vt 0.1409142 0.1538278 0
vt 0.1810656 0.07899534 0
vt 0.1056322 0.06064665 0
vt 0.04606685 0.1256554 0
vt 0.3893784 0.4133549 0
vt 0.4193341 0.3229141 0
vt 0.3286795 0.293089 0
vt 0.2989644 0.3834066 0
vt 0.1365829 0.1441984 0
vt 0.1710253 0.08343782 0
vt 0.107873 0.07028328 0
vt 0.05717314 0.1224605 0
vt 0.3841212 0.4027172 0
vt 0.4086402 0.3282926 0
vt 0.3341084 0.3036387 0
vt 0.3094834 0.3781169 0
vt 0.08402758 0.008922575 0
vt 0.00390625 0.07491535 0
vt 0.02436091 0.1012121 0
vt 0.09406673 0.03830498 0
vt 0.1695732 0.9425759 0
vt 0.0424724 0.7271089 0
vt 0.08186106 0.691909 0
vt 0.2194339 0.9251287 0
vt 0.1317219 0.674462 0
vt 0.2588227 0.889929 0
vt 0.2847044 0.7895933 0
vt 0.2672573 0.7397325 0
vt 0.2320575 0.7003439 0
vt 0.06923736 0.9166941 0
vt 0.03403748 0.8773054 0
vt 0.01659044 0.8274446 0
vt 0.1168312 0.9396139 0
vt 0.01955248 0.7747026 0
vt 0.1844638 0.6774239 0
vt 0.2817425 0.8423352 0
vt 0.758268 0.7085549 0
vt 0.751826 0.5110785 0
vt 0.7924217 0.5018183 0
vt 0.7993727 0.7155141 0
vt 0.8332001 0.5087292 0
vt 0.840271 0.7062342 0
vt 0.8950963 0.645334 0
vt 0.9027806 0.6046827 0
vt 0.8943118 0.5636173 0
vt 0.6989387 0.6529264 0
vt 0.6902547 0.6126112 0
vt 0.6943331 0.5706531 0
vt 0.7230381 0.6865651 0
vt 0.7176019 0.5352764 0
vt 0.8677911 0.5311041 0
vt 0.8752667 0.6824289 0
vt 0.7251078 0.6409846 0
vt 0.7430451 0.6656116 0
vt 0.7177665 0.6114597 0
vt 0.7229011 0.5815152 0
vt 0.7386479 0.5555567 0
vt 0.8490995 0.5512947 0
vt 0.8665167 0.5763009 0
vt 0.8738344 0.6056452 0
vt 0.8692293 0.635807 0
vt 0.8530631 0.6614427 0
vt 0.8285731 0.6794626 0
vt 0.8229408 0.5356187 0
vt 0.7989686 0.6865273 0
vt 0.7928548 0.5307611 0
vt 0.7689677 0.6816279 0
vt 0.7632535 0.537726 0
vt 0.321638 0.2156732 0
vt 0.3209981 0.4820917 0
vt 0.2720867 0.4616941 0
vt 0.4230007 0.4620566 0
vt 0.4235431 0.236198 0
vt 0.373992 0.482219 0
vt 0.460563 0.4246743 0
vt 0.3746318 0.2158005 0
vt 0.2350668 0.2732179 0
vt 0.2726291 0.2358354 0
vt 0.2146694 0.3221292 0
vt 0.2145421 0.3751231 0
vt 0.2347043 0.4241318 0
vt 0.4609255 0.2737603 0
vt 0.4810877 0.322769 0
vt 0.4809605 0.375763 0
vt 0.4292801 0.4715035 0
vt 0.2035491 0.3198894 0
vt 0.2034112 0.3773093 0
vt 0.4699796 0.4309989 0
vt 0.2252574 0.4304113 0
vt 0.3187583 0.4932118 0
vt 0.3761782 0.4933497 0
vt 0.265762 0.4711108 0
vt 0.4703723 0.2674809 0
vt 0.4298678 0.2267813 0
vt 0.3768715 0.2046803 0
vt 0.3194516 0.2045424 0
vt 0.2663498 0.2263887 0
vt 0.2256503 0.2668931 0
vt 0.4922186 0.3205828 0
vt 0.4920807 0.3780027 0
vt 0.5171191 0.3167307 0
vt 0.4917899 0.2551245 0
vt 0.4448131 0.2079009 0
vt 0.3833405 0.1822492 0
vt 0.7646396 0.00390625 0
vt 0.6937001 0.03292913 0
vt 0.6396711 0.08723173 0
vt 0.1820746 0.382463 0
vt 0.1822492 0.3158533 0
vt 0.2074039 0.4440691 0
vt 0.2543806 0.4912928 0
vt 0.382463 0.517119 0
vt 0.3158533 0.5169445 0
vt 0.9099507 0.3589928 0
vt 0.9640041 0.3056652 0
vt 0.9933828 0.2354418 0
vt 0.868575 0.8667157 0
vt 0.6391786 0.8697836 0
vt 0.9832734 0.8651794 0
vt 0.4097823 0.8728529 0
vt 0.00390625 0.2798926 0
vt 0.5244806 0.8713184 0
vt 0.7538768 0.86825 0
vt 0.3038252 0.883952 0
vt 0.8679123 0.8171885 0
vt 0.2944215 0.8248661 0
vt 0.8755851 0.8772103 0
vt 0.6468812 0.879907 0
vt 0.5325291 0.8812553 0
vt 0.7612331 0.8785586 0
vt 0.3233455 0.2825009 0
vt 0.2883999 0.3887426 0
vt 0.4299223 0.3175778 0
vt 0.3946848 0.4239334 0
vt 0.03089543 0.1509527 0
vt 0.02457311 0.1836547 0
#end 466 textures vertices 

#begin 134 normals 
vn 1 -0 -0
vn -0 -0.3827 -0.9239
vn -0 -0 -1
vn -0 -0.7071 0.7071
vn -0 -0.9239 0.3827
vn -0 -0.9239 -0.3827
vn -0 -0.7071 -0.7071
vn -0 1 -0
vn -0 0.9239 0.3827
vn -0 -1 -0
vn -0 0.7071 0.7071
vn -0 0.3827 0.9239
vn -0 -0 1
vn -0 0.7071 -0.7071
vn -0 0.9239 -0.3827
vn -0 -0.3827 0.9239
vn -0 0.3827 -0.9239
vn 0.6166 0.3013 -0.7273
vn 0.6166 0.5567 -0.5567
vn 0.6166 -0 -0.7872
vn 0.6166 0.5567 0.5567
vn 0.6166 0.3013 0.7273
vn 0.6166 0.7273 -0.3013
vn 0.6166 0.7873 -0
vn 0.6166 -0.3013 -0.7273
vn 0.6166 -0 0.7872
vn 0.6166 -0.5567 0.5567
vn 0.6166 -0.7273 0.3013
vn 0.6166 -0.7273 -0.3013
vn 0.6166 -0.5567 -0.5567
vn 0.6166 -0.3013 0.7273
vn 0.6166 0.7273 0.3013
vn 0.6166 -0.7873 -0
vn 0.2971 -0.8822 -0.3654
vn 0.2971 -0.6752 -0.6752
vn 0.2971 -0 0.9548
vn 0.2971 -0.3654 0.8822
vn 0.2971 0.8822 -0.3654
vn 0.2971 0.9548 -0
vn 0.2971 0.3654 0.8822
vn 0.2971 -0.9548 -0
vn 0.2971 0.6752 0.6752
vn 0.2971 0.8822 0.3654
vn 0.2971 0.3654 -0.8822
vn 0.2971 0.6752 -0.6752
vn 0.2971 -0.8822 0.3654
vn 0.2971 -0 -0.9548
vn 0.2971 -0.3654 -0.8822
vn 0.2971 -0.6752 0.6752
vn 0.2893 -0 0.9573
vn 0.2893 -0.3663 0.8844
vn 0.2893 -0.8844 -0.3663
vn 0.2893 -0.6769 -0.6769
vn 0.2893 0.3663 0.8844
vn 0.2893 0.6769 -0.6769
vn 0.2893 0.8844 -0.3663
vn 0.2893 -0.6769 0.6769
vn 0.2893 -0.8844 0.3663
vn 0.2893 0.6769 0.6769
vn 0.2893 0.3663 -0.8844
vn 0.2893 0.8844 0.3663
vn 0.2893 -0 -0.9573
vn 0.2893 -0.9573 -0
vn 0.2893 -0.3663 -0.8844
vn 0.2893 0.9572 -0
vn 0.7493 -0.6623 -0
vn 0.7493 -0.6119 -0.2534
vn 0.7493 0.4683 0.4683
vn 0.7493 0.2534 0.6119
vn 0.7493 0.6623 -0
vn 0.7493 0.6119 0.2534
vn 0.7493 0.2534 -0.6119
vn 0.7493 0.4683 -0.4683
vn 0.7493 -0.6119 0.2534
vn 0.7493 -0 -0.6623
vn 0.7493 -0.2534 -0.6119
vn 0.7493 -0.4683 0.4683
vn 0.7493 0.6119 -0.2534
vn 0.7493 -0.4683 -0.4683
vn 0.7493 -0.2534 0.6119
vn 0.7493 -0 0.6623
vn 0.0187 0.9998 -0
vn 0.9732 0.2298 -0
vn 0.8944 0.4473 -0
vn 0.8944 0.4474 -0
vn 0.9391 0.3438 -0
vn 0.5078 0.8615 -0
vn 0.4518 0.8921 -0
vn 0.5881 0.8088 -0
vn 0.753 0.658 -0
vn 0.9811 0.1933 -0
vn 0.7071 0.7071 -0
vn 0.2516 0.9678 -0
vn 0.5878 0.809 -0
vn 0.809 0.5878 -0
vn 0.9511 0.309 -0
vn 0.9877 0.1564 -0
vn -0 -0 -1
vn -0 -1 -0
vn -0 -0.9996 0.0278
vn -0 -0.9925 0.1224
vn -0 1 -0
vn -0 0.9925 0.1224
vn -0 0.9996 0.0278
vn 0.999 -0 -0.0441
vn 0.7927 0.6086 -0.035
vn 0.0441 -0 0.999
vn -0.0441 -0 -0.999
vn 0.7664 -0 -0.6424
vn 0.82 -0 0.5723
vn 0.7927 -0.6086 -0.035
vn 0.1761 -0 0.9844
vn -0 -0 1
vn -0 -0.9773 0.2117
vn -0 0.9773 0.2117
vn 0.3362 -0 0.9418
vn 1 -0 -0
vn 1 -0 -0
vn -0 -0.7071 0.7071
vn -0 -0.9239 0.3827
vn -0 -0.3827 -0.9239
vn -0 -0 -1
vn -0 0.9239 0.3827
vn -0 0.7071 0.7071
vn -0 0.3827 -0.9239
vn -0 -1 -0
vn -0 0.7071 -0.7071
vn -0 1 -0
vn -0 0.3827 0.9239
vn -0 -0.9239 -0.3827
vn -0 -0 1
vn -0 0.9239 -0.3827
vn -0 -0.3827 0.9239
vn -0 -0.7071 -0.7071
#end 134 normals 

#begin 334 faces
o Plane:029
s 1
f 42/434/1 14/14/1 4/4/1 20/20/1 
f 19/19/1 2/451/1 10/10/1 25/439/1 
f 25/439/1 10/10/1 11/11/1 30/30/1 
f 30/30/1 11/11/1 12/12/1 32/32/1 
f 32/32/1 12/12/1 13/13/1 37/37/1 
f 37/37/1 13/13/1 14/14/1 42/434/1 
f 6/6/1 41/41/1 46/46/1 5/5/1 
f 43/43/2 44/44/3 60/60/3 59/59/2 
f 25/25/4 30/437/5 52/52/5 47/47/4 
f 37/435/6 42/42/7 58/58/7 56/56/6 
f 42/42/7 43/43/2 59/59/2 58/58/7 
f 7/7/1 36/36/1 41/41/1 6/6/1 
f 36/444/8 31/31/9 53/53/9 55/55/8 
f 32/436/10 37/435/6 56/56/6 54/54/10 
f 29/29/11 28/28/12 50/50/12 51/51/11 
f 28/28/12 27/27/13 49/49/13 50/50/12 
f 8/8/1 31/442/1 36/36/1 7/7/1 
f 31/31/9 29/29/11 51/51/11 53/53/9 
f 46/446/14 41/445/15 57/57/15 62/62/14 
f 27/27/13 26/26/16 48/48/16 49/49/13 
f 30/437/5 32/436/10 54/54/10 52/52/5 
f 9/9/1 29/443/1 31/442/1 8/8/1 
f 45/45/17 46/446/14 62/62/14 61/61/17 
f 26/26/16 25/25/4 47/47/4 48/48/16 
f 44/44/3 45/45/17 61/61/17 60/60/3 
f 41/445/15 36/444/8 55/55/8 57/57/15 
f 1/1/1 15/15/1 29/443/1 9/9/1 
f 15/15/1 16/16/1 28/441/1 29/443/1 
f 16/16/1 17/17/1 27/440/1 28/441/1 
f 17/17/1 18/18/1 26/438/1 27/440/1 
f 18/18/1 19/19/1 25/439/1 26/438/1 
f 5/5/1 46/46/1 24/24/1 3/3/1 
f 46/46/1 45/431/1 23/23/1 24/24/1 
f 45/431/1 44/432/1 22/22/1 23/23/1 
f 44/432/1 43/433/1 21/21/1 22/22/1 
f 43/433/1 42/434/1 20/20/1 21/21/1 
f 61/61/18 62/62/19 82/82/19 81/81/18 
f 60/60/20 61/61/18 81/81/18 80/80/20 
f 51/51/21 50/50/22 73/73/22 74/74/21 
f 57/57/23 55/55/24 85/85/24 83/83/23 
f 59/59/25 60/60/20 80/80/20 79/79/25 
f 50/50/22 49/49/26 75/75/26 73/73/22 
f 47/47/27 52/52/28 33/33/28 77/77/27 
f 56/56/29 58/58/30 78/78/30 84/84/29 
f 58/58/30 59/59/25 79/79/25 78/78/30 
f 49/49/26 48/48/31 76/76/31 75/75/26 
f 55/55/24 53/53/32 63/63/32 85/85/24 
f 48/48/31 47/47/27 77/77/27 76/76/31 
f 54/54/33 56/56/29 84/84/29 86/86/33 
f 53/53/32 51/51/21 74/74/21 63/63/32 
f 62/62/19 57/57/23 83/83/23 82/82/19 
f 52/52/28 54/54/33 86/86/33 33/33/28 
f 87/87/34 34/34/35 106/106/35 119/119/34 
f 70/70/36 71/71/37 113/113/37 112/112/36 
f 88/88/38 64/64/39 118/118/39 120/120/38 
f 69/69/40 70/70/36 112/112/36 111/111/40 
f 65/65/41 87/87/34 119/119/34 117/117/41 
f 68/68/42 69/69/40 111/111/40 110/110/42 
f 64/64/39 66/66/43 116/116/43 118/118/39 
f 39/39/44 40/40/45 109/109/45 108/108/44 
f 67/67/46 65/65/41 117/117/41 115/115/46 
f 38/38/47 39/39/44 108/108/44 107/107/47 
f 66/66/43 68/68/42 110/110/42 116/116/43 
f 35/35/48 38/38/47 107/107/47 105/105/48 
f 72/72/49 67/67/46 115/115/46 114/114/49 
f 40/40/45 88/88/38 120/120/38 109/109/45 
f 34/34/35 35/35/48 105/105/48 106/106/35 
f 71/71/37 72/72/49 114/114/49 113/113/37 
f 35/35/1 34/34/1 74/74/1 73/73/1 
f 38/38/1 35/35/1 73/73/1 75/75/1 
f 39/39/1 38/38/1 75/75/1 76/76/1 
f 40/40/1 39/39/1 76/76/1 77/77/1 
f 69/69/1 68/68/1 78/78/1 79/79/1 
f 70/70/1 69/69/1 79/79/1 80/80/1 
f 71/71/1 70/70/1 80/80/1 81/81/1 
f 72/72/1 71/71/1 81/81/1 82/82/1 
f 67/67/1 72/72/1 82/82/1 83/83/1 
f 68/68/1 66/66/1 84/84/1 78/78/1 
f 65/65/1 67/67/1 83/83/1 85/85/1 
f 66/66/1 64/64/1 86/86/1 84/84/1 
f 87/87/1 65/65/1 85/85/1 63/63/1 
f 64/64/1 88/88/1 33/33/1 86/86/1 
f 34/34/1 87/87/1 63/63/1 74/74/1 
f 88/88/1 40/40/1 77/77/1 33/33/1 
f 99/99/50 100/100/51 140/140/51 139/139/50 
f 93/93/52 103/103/53 142/142/53 148/148/52 
f 98/98/54 99/99/50 139/139/50 137/137/54 
f 104/104/55 94/94/56 147/147/56 146/146/55 
f 102/102/57 90/90/58 152/152/58 141/141/57 
f 101/101/59 98/98/54 137/137/54 138/138/59 
f 95/95/60 104/104/55 146/146/55 145/145/60 
f 89/89/61 101/101/59 138/138/59 151/151/61 
f 96/96/62 95/95/60 145/145/60 144/144/62 
f 90/90/58 91/91/63 150/150/63 152/152/58 
f 97/97/64 96/96/62 144/144/62 143/143/64 
f 92/92/65 89/89/61 151/151/61 149/149/65 
f 103/103/53 97/97/64 143/143/64 142/142/53 
f 91/91/63 93/93/52 148/148/52 150/150/63 
f 100/100/51 102/102/57 141/141/57 140/140/51 
f 94/94/56 92/92/65 149/149/65 147/147/56 
f 98/401/1 101/400/1 106/420/1 105/422/1 
f 99/411/1 98/401/1 105/422/1 107/419/1 
f 100/410/1 99/411/1 107/419/1 108/417/1 
f 102/409/1 100/410/1 108/417/1 109/416/1 
f 97/403/1 103/406/1 110/425/1 111/424/1 
f 96/412/1 97/403/1 111/424/1 112/423/1 
f 95/413/1 96/412/1 112/423/1 113/429/1 
f 104/414/1 95/413/1 113/429/1 114/430/1 
f 94/405/1 104/414/1 114/430/1 115/418/1 
f 103/406/1 93/399/1 116/426/1 110/425/1 
f 92/402/1 94/405/1 115/418/1 117/415/1 
f 93/399/1 91/408/1 118/427/1 116/426/1 
f 89/404/1 92/402/1 117/415/1 119/421/1 
f 91/408/1 90/407/1 120/428/1 118/427/1 
f 101/400/1 89/404/1 119/421/1 106/420/1 
f 90/407/1 102/409/1 109/416/1 120/428/1 
f 124/124/66 121/121/67 153/153/67 156/156/66 
f 135/135/68 129/129/69 161/161/69 167/167/68 
f 123/123/70 125/125/71 157/157/71 155/155/70 
f 132/132/72 134/134/73 166/166/73 164/164/72 
f 126/126/74 124/124/66 156/156/66 158/158/74 
f 131/131/75 132/132/72 164/164/72 163/163/75 
f 125/125/71 135/135/68 167/167/68 157/157/71 
f 130/130/76 131/131/75 163/163/75 162/162/76 
f 136/136/77 126/126/74 158/158/74 168/168/77 
f 134/134/73 122/122/78 154/154/78 166/166/73 
f 133/133/79 130/130/76 162/162/76 165/165/79 
f 127/127/80 136/136/77 168/168/77 159/159/80 
f 121/121/67 133/133/79 165/165/79 153/153/67 
f 128/128/81 127/127/80 159/159/80 160/160/81 
f 122/122/78 123/123/70 155/155/70 154/154/78 
f 129/129/69 128/128/81 160/160/81 161/161/69 
f 130/130/1 133/133/1 138/138/1 137/137/1 
f 131/131/1 130/130/1 137/137/1 139/139/1 
f 132/132/1 131/131/1 139/139/1 140/140/1 
f 134/134/1 132/132/1 140/140/1 141/141/1 
f 129/129/1 135/135/1 142/142/1 143/143/1 
f 128/128/1 129/129/1 143/143/1 144/144/1 
f 127/127/1 128/128/1 144/144/1 145/145/1 
f 136/136/1 127/127/1 145/145/1 146/146/1 
f 126/126/1 136/136/1 146/146/1 147/147/1 
f 135/135/1 125/125/1 148/148/1 142/142/1 
f 124/124/1 126/126/1 147/147/1 149/149/1 
f 125/125/1 123/123/1 150/150/1 148/148/1 
f 121/121/1 124/124/1 149/149/1 151/151/1 
f 123/123/1 122/122/1 152/152/1 150/150/1 
f 133/133/1 121/121/1 151/151/1 138/138/1 
f 122/122/1 134/134/1 141/141/1 152/152/1 
f 4/449/8 14/447/8 183/183/8 194/194/8 
f 268/268/82 277/277/82 180/180/8 176/176/8 
f 277/277/82 284/284/82 177/177/8 180/180/8 
f 195/195/83 184/184/83 292/292/1 300/300/1 
f 249/249/83 238/238/83 269/269/1 260/260/1 
f 261/261/82 268/268/82 176/176/8 179/179/8 
f 12/448/8 11/452/8 228/228/8 239/239/8 
f 284/284/82 308/308/82 178/456/8 177/177/8 
f 10/450/8 2/2/8 206/206/8 217/217/8 
f 13/453/8 12/448/8 239/239/8 250/250/8 
f 14/447/8 13/453/8 250/250/8 183/183/8 
f 11/452/8 10/450/8 217/217/8 228/228/8 
f 216/216/83 205/205/83 309/309/1 285/285/1 
f 179/459/1 176/458/1 174/174/1 175/175/1 
f 180/460/1 177/457/1 172/172/1 173/173/1 
f 181/181/1 179/459/1 175/175/1 169/169/1 
f 182/454/1 181/181/1 169/169/1 170/170/1 
f 176/458/1 180/460/1 173/173/1 174/174/1 
f 177/457/1 178/178/1 171/171/1 172/172/1 
f 238/238/83 227/227/83 276/276/1 269/269/1 
f 184/184/83 249/249/83 260/260/1 292/292/1 
f 227/227/83 216/216/83 285/285/1 276/276/1 
f 184/184/83 195/195/83 204/204/84 193/193/84 
f 193/193/84 204/204/84 203/203/85 192/192/85 
f 192/192/8 203/203/8 202/202/8 191/191/8 
f 191/191/86 202/202/86 201/201/86 190/190/86 
f 190/190/87 201/201/87 200/200/88 189/189/88 
f 189/189/88 200/200/88 199/199/89 188/188/89 
f 188/188/89 199/199/89 198/198/90 187/187/90 
f 187/187/91 198/198/91 197/197/91 186/186/91 
f 186/186/92 197/197/92 196/196/92 185/185/92 
f 185/185/8 196/196/8 194/194/8 183/183/8 
f 205/205/83 216/216/83 218/218/84 207/207/84 
f 207/207/84 218/218/84 219/219/85 208/208/85 
f 208/208/8 219/219/8 220/220/8 209/209/8 
f 209/209/86 220/220/86 221/221/86 210/210/86 
f 210/210/87 221/221/87 222/222/88 211/211/88 
f 211/211/88 222/222/88 223/223/89 212/212/89 
f 212/212/89 223/223/89 224/224/90 213/213/90 
f 213/213/91 224/224/91 225/225/91 214/214/91 
f 214/214/92 225/225/92 226/226/92 215/215/92 
f 215/215/8 226/226/8 217/217/8 206/206/8 
f 216/216/83 227/227/83 229/229/84 218/218/84 
f 218/218/84 229/229/84 230/230/85 219/219/85 
f 219/219/8 230/230/8 231/231/8 220/220/8 
f 220/220/86 231/231/86 232/232/86 221/221/86 
f 221/221/87 232/232/87 233/233/88 222/222/88 
f 222/222/88 233/233/88 234/234/89 223/223/89 
f 223/223/89 234/234/89 235/235/90 224/224/90 
f 224/224/91 235/235/91 236/236/91 225/225/91 
f 225/225/92 236/236/92 237/237/92 226/226/92 
f 226/226/8 237/237/8 228/228/8 217/217/8 
f 227/227/83 238/238/83 240/240/84 229/229/84 
f 229/229/84 240/240/84 241/241/85 230/230/85 
f 230/230/8 241/241/8 242/242/8 231/231/8 
f 231/231/86 242/242/86 243/243/86 232/232/86 
f 232/232/87 243/243/87 244/244/88 233/233/88 
f 233/233/88 244/244/88 245/245/89 234/234/89 
f 234/234/89 245/245/89 246/246/90 235/235/90 
f 235/235/91 246/246/91 247/247/91 236/236/91 
f 236/236/92 247/247/92 248/248/92 237/237/92 
f 237/237/8 248/248/8 239/239/8 228/228/8 
f 238/238/83 249/249/83 251/251/84 240/240/84 
f 240/240/84 251/251/84 252/252/85 241/241/85 
f 241/241/8 252/252/8 253/253/8 242/242/8 
f 242/242/86 253/253/86 254/254/86 243/243/86 
f 243/243/87 254/254/87 255/255/88 244/244/88 
f 244/244/88 255/255/88 256/256/89 245/245/89 
f 245/245/89 256/256/89 257/257/90 246/246/90 
f 246/246/91 257/257/91 258/258/91 247/247/91 
f 247/247/92 258/258/92 259/259/92 248/248/92 
f 248/248/8 259/259/8 250/250/8 239/239/8 
f 249/249/83 184/184/83 193/193/84 251/251/84 
f 251/251/84 193/193/84 192/192/85 252/252/85 
f 252/252/8 192/192/8 191/191/8 253/253/8 
f 253/253/86 191/191/86 190/190/86 254/254/86 
f 254/254/87 190/190/87 189/189/88 255/255/88 
f 255/255/88 189/189/88 188/188/89 256/256/89 
f 256/256/89 188/188/89 187/187/90 257/257/90 
f 257/257/91 187/187/91 186/186/91 258/258/91 
f 258/258/92 186/186/92 185/185/92 259/259/92 
f 259/259/8 185/185/8 183/183/8 250/250/8 
f 301/301/82 293/293/82 181/455/8 182/182/8 
f 308/308/82 284/284/82 286/286/93 310/310/93 
f 310/310/93 286/286/93 287/287/94 311/311/94 
f 311/311/94 287/287/94 288/288/95 312/312/95 
f 312/312/95 288/288/95 289/289/96 313/313/96 
f 313/313/96 289/289/96 290/290/97 314/314/97 
f 314/314/8 290/290/8 291/291/8 315/315/8 
f 315/315/1 291/291/1 285/285/1 309/309/1 
f 277/277/82 268/268/82 270/270/93 283/283/93 
f 283/283/93 270/270/93 271/271/94 282/282/94 
f 282/282/94 271/271/94 272/272/95 281/281/95 
f 281/281/95 272/272/95 273/273/96 280/280/96 
f 280/280/96 273/273/96 274/274/97 279/279/97 
f 279/279/8 274/274/8 275/275/8 278/278/8 
f 278/278/1 275/275/1 269/269/1 276/276/1 
f 293/293/82 301/301/82 307/307/93 299/299/93 
f 299/299/93 307/307/93 306/306/94 298/298/94 
f 298/298/94 306/306/94 305/305/95 297/297/95 
f 297/297/95 305/305/95 304/304/96 296/296/96 
f 296/296/96 304/304/96 303/303/97 295/295/97 
f 295/295/8 303/303/8 302/302/8 294/294/8 
f 294/294/1 302/302/1 300/300/1 292/292/1 
f 261/261/82 293/293/82 299/299/93 267/267/93 
f 267/267/93 299/299/93 298/298/94 266/266/94 
f 266/266/94 298/298/94 297/297/95 265/265/95 
f 265/265/95 297/297/95 296/296/96 264/264/96 
f 264/264/96 296/296/96 295/295/97 263/263/97 
f 263/263/8 295/295/8 294/294/8 262/262/8 
f 262/262/1 294/294/1 292/292/1 260/260/1 
f 284/284/82 277/277/82 283/283/93 286/286/93 
f 286/286/93 283/283/93 282/282/94 287/287/94 
f 287/287/94 282/282/94 281/281/95 288/288/95 
f 288/288/95 281/281/95 280/280/96 289/289/96 
f 289/289/96 280/280/96 279/279/97 290/290/97 
f 290/290/8 279/279/8 278/278/8 291/291/8 
f 291/291/1 278/278/1 276/276/1 285/285/1 
f 268/268/82 261/261/82 267/267/93 270/270/93 
f 270/270/93 267/267/93 266/266/94 271/271/94 
f 271/271/94 266/266/94 265/265/95 272/272/95 
f 272/272/95 265/265/95 264/264/96 273/273/96 
f 273/273/96 264/264/96 263/263/97 274/274/97 
f 274/274/8 263/263/8 262/262/8 275/275/8 
f 275/275/1 262/262/1 260/260/1 269/269/1 
f 293/293/82 261/261/82 179/179/8 181/455/8 
f 175/175/1 174/174/1 321/321/1 322/322/1 
f 173/173/1 172/172/1 319/319/1 320/320/1 
f 170/170/1 169/169/1 316/316/1 317/317/1 
f 169/169/1 175/175/1 322/322/1 316/316/1 
f 174/174/1 173/173/1 320/320/1 321/321/1 
f 172/172/1 171/171/1 318/318/1 319/319/1 
o Cube:026
s 1
f 325/325/98 326/326/98 331/331/98 332/332/98 
f 330/330/99 328/328/99 342/342/99 339/339/99 
f 325/325/99 332/332/99 333/333/100 323/323/101 
f 331/331/102 326/326/102 324/324/103 334/334/104 
f 330/330/105 329/329/105 332/332/105 331/331/105 
f 329/329/105 327/327/105 333/333/105 332/332/105 
f 328/328/105 330/330/105 331/331/105 334/334/105 
f 327/327/105 328/328/105 334/334/105 333/333/105 
f 335/335/106 338/338/106 346/346/106 343/343/106 
f 329/329/107 330/330/107 339/339/107 340/340/107 
f 328/328/108 327/327/108 341/341/108 342/342/108 
f 327/327/102 329/329/102 340/340/102 341/341/102 
f 335/335/105 336/336/105 340/463/105 339/464/105 
f 336/336/105 337/337/105 341/461/105 340/463/105 
f 338/338/105 335/335/105 339/464/105 342/462/105 
f 337/337/105 338/338/105 342/462/105 341/461/105 
f 344/344/105 343/343/105 346/346/105 345/345/105 
f 336/336/109 335/335/109 343/343/109 344/344/109 
f 338/338/110 337/337/110 345/345/110 346/346/110 
f 337/337/111 336/336/111 344/344/111 345/345/111 
f 350/350/112 349/349/112 348/348/113 347/347/113 
f 323/323/101 333/333/100 350/350/114 347/347/114 
f 334/334/104 324/324/103 348/466/115 349/465/115 
f 333/333/116 334/334/116 349/349/112 350/350/112 
o Plane:030
s 1
f 356/356/117 358/358/117 357/357/117 366/366/117 
f 354/354/117 359/359/117 358/358/117 356/356/117 
f 351/351/117 365/365/117 359/359/117 354/354/117 
f 363/363/117 355/355/117 365/365/117 351/351/117 
f 360/360/117 353/353/117 355/355/117 363/363/117 
f 361/361/117 352/352/117 353/353/117 360/360/117 
f 362/362/117 364/364/117 352/352/117 361/361/117 
o Plane:031
s 1
f 393/393/118 390/390/118 391/391/118 392/392/118 
f 395/395/118 389/389/118 390/390/118 393/393/118 
f 397/397/118 388/388/118 389/389/118 395/395/118 
f 384/384/118 394/394/118 388/388/118 397/397/118 
f 383/383/118 396/396/118 394/394/118 384/384/118 
f 385/385/118 398/398/118 396/396/118 383/383/118 
f 386/386/118 387/387/118 398/398/118 385/385/118 
f 382/382/119 372/372/120 393/393/120 392/392/119 
f 376/376/121 377/377/122 385/385/122 383/383/121 
f 371/371/123 381/381/124 388/388/124 394/394/123 
f 377/377/122 378/378/125 386/386/125 385/385/122 
f 372/372/120 370/370/126 395/395/126 393/393/120 
f 378/378/125 380/380/127 387/387/127 386/386/125 
f 369/369/128 371/371/123 394/394/123 396/396/128 
f 381/381/124 375/375/129 389/389/129 388/388/124 
f 370/370/126 367/367/130 397/397/130 395/395/126 
f 375/375/129 374/374/131 390/390/131 389/389/129 
f 368/368/132 369/369/128 396/396/128 398/398/132 
f 374/374/131 373/373/133 391/391/133 390/390/131 
f 367/367/130 379/379/134 384/384/134 397/397/130 
f 373/373/133 382/382/119 392/392/119 391/391/133 
f 379/379/134 376/376/121 383/383/121 384/384/134 
f 380/380/127 368/368/132 398/398/132 387/387/127 
#end 334 faces

#ZOMPROPERTIES_04{
#ZOMPROPERTIES_04 table {Mesh table {SymPlane table {Point vector3d 0 0 0 Normal vector3d 1 0 0 Threshold double 0.01 
#ZOMPROPERTIES_04 Enabled bool false EdgeID int -1 SymEdgeID int -1 UPos double 0.5 LocalMode bool false } RootGroup C
#ZOMPROPERTIES_04 SubMeshGroup {Children table {Tile_0_0 CSubMeshGroup {Children table {} BBoxUV box3d 0 0 0 0 0 0 BBo
#ZOMPROPERTIES_04 x3D box3d 0 0 0 0 0 0 Area3D double 0 AreaUV double 0.53564 IsRoot bool false Properties table {Sele
#ZOMPROPERTIES_04 cted bool false Box box3d 0 1 0 1 0 1 U int 0 V int 0 NU int 0 NV int 0 Tiling vector3d 1 1 1 TileRa
#ZOMPROPERTIES_04 tioMode string "1:1" Overflow string "Off" Pack table {BoxFrameEdit bool false Behavior string "Free
#ZOMPROPERTIES_04 " } } IsTile bool true PolyIDs ints { 100 114 112 110 108 107 106 105 104 109 111 113 115 103 102 10
#ZOMPROPERTIES_04 1 288 298 299 293 292 295 296 297 294 280 283 302 286 284 289 291 285 287 290 281 303 301 282 300 14
#ZOMPROPERTIES_04 8 179 178 177 176 175 174 173 172 171 170 151 168 258 251 250 249 248 247 246 245 230 273 153 149 15
#ZOMPROPERTIES_04 0 155 231 259 260 239 267 253 266 268 254 255 269 270 256 257 271 243 244 272 265 264 263 242 241 24
#ZOMPROPERTIES_04 0 261 233 232 234 262 235 236 237 160 180 190 200 210 220 221 152 211 201 202 203 204 205 215 225 22
#ZOMPROPERTIES_04 6 214 224 216 206 207 208 218 228 217 227 219 229 209 199 198 188 187 197 196 195 185 184 194 183 19
#ZOMPROPERTIES_04 3 182 192 191 181 186 189 156 159 154 157 158 213 223 212 222 167 169 238 252 311 312 313 314 315 31
#ZOMPROPERTIES_04 6 317 333 323 321 319 332 328 330 324 326 320 325 322 318 327 331 329 304 305 306 307 308 309 310 7 
#ZOMPROPERTIES_04 24 22 18 25 12 46 80 78 76 50 75 74 37 73 40 44 43 9 10 13 48 51 20 8 42 47 71 83 65 59 61 70 69 41 
#ZOMPROPERTIES_04 45 19 23 15 14 38 49 17 68 82 52 66 63 56 54 81 58 62 57 55 77 79 72 53 67 36 64 60 39 161 274 278 2
#ZOMPROPERTIES_04 75 279 166 162 165 277 163 164 276 84 86 133 132 126 123 121 119 125 130 118 143 141 122 117 131 129
#ZOMPROPERTIES_04  127 139 140 124 120 142 144 116 128 146 91 95 99 87 89 90 92 94 96 85 97 136 137 138 93 88 98 135 1
#ZOMPROPERTIES_04 47 145 134 0 5 4 3 2 1 30 29 28 27 26 21 16 11 6 31 32 33 34 35 } } } BBoxUV box3d 0 0 0 0 0 0 BBox3
#ZOMPROPERTIES_04 D box3d 0 0 0 0 0 0 Area3D double 0 AreaUV double 0 IsRoot bool true Properties table {Selected bool
#ZOMPROPERTIES_04  false Box box3d 0 1 0 1 0 1 U int 0 V int 0 NU int 1 NV int 1 Tiling vector3d 1 1 1 TileRatioMode s
#ZOMPROPERTIES_04 tring "1:1" Overflow string "Off" Pack table {Rotate table {Mode int 0 Min double 0 Max double 90 St
#ZOMPROPERTIES_04 ep double 0 } PaddingSize double 0.0078125 MarginSize double 0.00390625 Resolution int 256 MapResolu
#ZOMPROPERTIES_04 tion int 2048 Scaling table {TexelDensity double 1024 Mode int 2 } LayoutScalingMode int 2 MaxMutati
#ZOMPROPERTIES_04 ons int 1 } } IsTile bool false PolyIDs ints { } } Maps table {Pin table {PrimType string "Vertex" S
#ZOMPROPERTIES_04 ize int 1 DefaultValue double 0 ScaleType string "Normalized" MergeMode string "Max" MinValue double
#ZOMPROPERTIES_04  0 MaxValue double 1 Data doubles { r 466 0 } } Density table {PrimType string "Polygon" Size int 1 
#ZOMPROPERTIES_04 DefaultValue double 1 ScaleType string "Log" MergeMode string "Average" MinValue double 0.1 MaxValue
#ZOMPROPERTIES_04  double 4 Data doubles { r 334 1 } } Protect table {PrimType string "Vertex" Size int 1 DefaultValue
#ZOMPROPERTIES_04  double 0 ScaleType string "Normalized" MergeMode string "Average" MinValue double -1 MaxValue doubl
#ZOMPROPERTIES_04 e 1 Data doubles { r 466 0 } } } } }
#ZOMPROPERTIES_04}


#ZOMSCENE_01{
#ZOMSCENE_01 CScene {Settings table {AxisSystem table {UpVector string "y" } Unit string "cm" TexelDensityDisplay
#ZOMSCENE_01 Unit string "tx/cm" } Root table {} }
#ZOMSCENE_01}

#begin 0 fatal error vertex (that RizomUV cannot handle)
#end 0 fatal error vertex (that RizomUV cannot handle)

#begin 0 error vertex
#end 0 error vertex
