#File written by RizomUV 2023.0.70.ge90189e8. Compilation :Sep 22 2023,12:42:11
mtllib TV.mtl
#begin vertices
v -8.706369 4.755189 1.576595
v -8.706369 3.248655 1.576595
v -8.706369 3.248655 -0.492257
v -8.706369 4.755189 -0.492257
v -8.226857 2.976727 -0.039535
v -8.226857 2.976727 1.123874
v -8.226857 2.965395 0.542169
v -8.355487 5.027115 -0.039534
v -8.355487 5.027115 1.123872
v -8.355487 5.038448 0.542169
v -6.591392 3.044017 -0.040609
v -6.720021 2.976728 1.123877
v -6.720021 2.965395 0.542169
v -6.591392 4.959826 1.124947
v -6.591392 4.959826 -0.040609
v -6.591392 4.971153 0.542169
v -8.706369 3.227363 1.123893
v -8.706369 3.227363 -0.039555
v -8.706369 3.216029 0.54217
v -8.706369 4.776481 1.123893
v -8.706369 4.776481 -0.039555
v -8.706369 4.787814 0.54217
v -8.706369 4.348852 -0.507879
v -8.706369 4.001922 -0.513403
v -8.706369 4.348852 1.592217
v -8.706369 4.001922 1.597742
v -6.591392 4.348851 -0.759774
v -6.591392 4.001922 -0.765298
v -8.355487 4.348849 -0.840232
v -8.355487 4.001922 -0.845757
v -8.355487 4.348849 1.92457
v -8.355487 4.001922 1.930095
v -6.591392 4.348851 1.92457
v -6.591392 4.001922 1.849637
v -8.706369 4.348856 -0.048546
v -8.706369 4.001922 -0.048546
v -8.706369 4.348858 0.54217
v -8.706369 4.001922 0.54217
v -8.706369 4.348856 1.132885
v -8.706369 4.001922 1.132885
v -6.591392 3.239737 1.828477
v -6.682347 2.99588 1.531079
v -6.591392 3.173563 1.811432
v -6.591392 3.120473 1.768554
v -6.591392 3.083345 1.706129
v -6.591392 4.936341 1.627444
v -6.591392 4.764106 1.828477
v -6.591392 4.920498 1.706129
v -6.591392 4.88337 1.768554
v -6.591392 4.83028 1.811432
v -8.264532 2.99588 1.531079
v -8.355487 3.231126 1.908274
v -8.355487 3.022258 1.739881
v -8.355487 3.073463 1.826126
v -8.355487 3.146808 1.885258
v -8.355487 4.772717 1.908274
v -8.355487 5.002857 1.639653
v -8.355487 4.857035 1.885258
v -8.355487 4.93038 1.826126
v -8.355487 4.981586 1.739881
v -6.682347 2.99588 -0.446741
v -6.591392 3.239737 -0.744139
v -6.591392 3.083345 -0.621791
v -6.591392 3.120472 -0.684217
v -6.591392 3.173563 -0.727094
v -6.591392 4.764107 -0.744139
v -6.591392 4.936341 -0.543106
v -6.591392 4.83028 -0.727094
v -6.591392 4.88337 -0.684217
v -6.591392 4.920498 -0.621791
v -8.355487 3.231126 -0.823936
v -8.264532 2.99588 -0.446741
v -8.355487 3.146808 -0.800921
v -8.355487 3.073463 -0.741789
v -8.355487 3.022257 -0.655543
v -8.355487 5.002857 -0.555315
v -8.355487 4.772717 -0.823936
v -8.355487 4.981586 -0.655543
v -8.355487 4.93038 -0.741789
v -8.355487 4.857035 -0.800921
v -8.355487 2.965395 0.542169
v -8.355487 2.976727 1.123872
v -8.355487 2.976727 -0.039534
v -6.720021 2.976728 -0.039539
v -6.591392 3.032691 0.542169
v -6.591392 3.044017 1.124947
v -8.355487 3.000987 1.639653
v -6.591392 3.067502 1.627444
v -6.591392 3.067502 -0.543106
v -8.355487 3.000987 -0.555315
v -8.163284 2.858709 0.009548
v -6.783594 2.858709 0.009544
v -6.783594 2.848333 0.542169
v -8.163284 2.848332 0.542169
v -6.783594 2.858709 1.074794
v -8.163284 2.858709 1.07479
v -8.197781 2.876245 1.447636
v -6.749098 2.876245 1.447636
v -6.749098 2.876245 -0.363298
v -8.197781 2.876245 -0.363298
v -6.591392 5.027115 1.123878
v -6.591392 5.038448 0.542169
v -6.591392 5.027115 -0.03954
v -6.591392 2.976728 -0.03954
v -6.591392 2.965395 0.542169
v -6.591392 2.976728 1.123878
v -6.591392 4.348851 1.844112
v -6.591392 4.001922 1.930095
v -6.591392 4.001922 -0.845757
v -6.591392 4.348851 -0.840232
v -6.591392 3.000987 1.639653
v -6.591392 3.022258 1.739881
v -6.591392 3.073463 1.826126
v -6.591392 3.146808 1.885258
v -6.591392 3.231126 1.908274
v -6.591392 4.981586 1.739881
v -6.591392 5.002857 1.639653
v -6.591392 4.93038 1.826126
v -6.591392 4.857035 1.885258
v -6.591392 4.772717 1.908274
v -6.591392 3.022257 -0.655543
v -6.591392 3.000987 -0.555315
v -6.591392 3.073463 -0.741789
v -6.591392 3.146808 -0.800921
v -6.591392 3.231126 -0.823936
v -6.591392 5.002857 -0.555315
v -6.591392 4.981586 -0.655543
v -6.591392 4.93038 -0.741789
v -6.591392 4.857035 -0.800921
v -6.591392 4.772717 -0.823936
v -6.611342 4.348851 1.821687
v -6.611342 4.001922 1.827212
v -6.611342 4.348851 -0.737348
v -6.611342 4.001922 -0.742874
v -6.611342 4.941072 -0.040906
v -6.611342 3.044017 -0.040609
v -6.611342 4.959826 1.124947
v -6.611342 3.062772 1.125245
v -6.611342 4.971153 0.542169
v -6.611342 3.032691 0.542169
v -6.611342 3.086059 1.624182
v -6.611342 3.100415 1.696838
v -6.611342 3.133575 1.752508
v -6.611342 3.180921 1.790805
v -6.611342 3.242016 1.806219
v -6.611342 4.903427 1.696838
v -6.611342 4.917784 1.624182
v -6.611342 4.870268 1.752508
v -6.611342 4.822922 1.790805
v -6.611342 4.761827 1.806219
v -6.611342 3.100415 -0.612501
v -6.611342 3.086059 -0.539843
v -6.611342 3.133575 -0.66817
v -6.611342 3.180921 -0.706467
v -6.611342 3.242016 -0.72188
v -6.611342 4.917784 -0.539843
v -6.611342 4.903427 -0.612501
v -6.611342 4.870268 -0.66817
v -6.611342 4.822922 -0.706467
v -6.611342 4.761827 -0.72188
v -6.611342 4.941072 1.125245
v -6.611342 4.952396 0.542169
v -6.611342 4.959826 -0.040609
v -6.611342 3.062772 -0.040906
v -6.611342 3.051447 0.542169
v -6.611342 3.044017 1.124947
v -6.611342 4.348851 1.844112
v -6.611342 4.001922 1.849637
v -6.611342 4.001922 -0.765298
v -6.611342 4.348851 -0.759774
v -6.611342 3.067502 1.627444
v -6.611342 3.083345 1.706129
v -6.611342 3.120473 1.768554
v -6.611342 3.173563 1.811432
v -6.611342 3.239737 1.828477
v -6.611342 4.920498 1.706129
v -6.611342 4.936341 1.627444
v -6.611342 4.88337 1.768554
v -6.611342 4.83028 1.811432
v -6.611342 4.764106 1.828477
v -6.611342 3.083345 -0.621791
v -6.611342 3.067502 -0.543106
v -6.611342 3.120472 -0.684217
v -6.611342 3.173563 -0.727094
v -6.611342 3.239737 -0.744139
v -6.611342 4.936341 -0.543106
v -6.611342 4.920498 -0.621791
v -6.611342 4.88337 -0.684217
v -6.611342 4.83028 -0.727094
v -6.611342 4.764107 -0.744139
v -6.628757 4.348851 1.758541
v -6.628757 4.001922 1.827212
v -6.628757 4.348851 -0.674203
v -6.628757 4.001922 -0.742874
v -6.628757 4.888261 -0.041745
v -6.628757 3.115582 -0.041745
v -6.628757 4.888261 1.126083
v -6.628757 3.115582 1.126083
v -6.628757 4.899582 0.542169
v -6.628757 3.104262 0.542169
v -6.628757 3.138329 1.615128
v -6.628757 3.148523 1.670778
v -6.628757 3.17047 1.707324
v -6.628757 3.201556 1.732678
v -6.628757 3.24832 1.743525
v -6.628757 4.85532 1.670778
v -6.628757 4.865516 1.615128
v -6.628757 4.833374 1.707325
v -6.628757 4.802288 1.732678
v -6.628757 4.755523 1.743525
v -6.628757 3.148523 -0.586441
v -6.628757 3.138329 -0.53079
v -6.628757 3.170469 -0.622987
v -6.628757 3.201554 -0.64834
v -6.628757 3.24832 -0.659186
v -6.628757 4.865516 -0.53079
v -6.628757 4.85532 -0.58644
v -6.628757 4.833374 -0.622987
v -6.628757 4.802288 -0.64834
v -6.628757 4.755524 -0.659186
v -6.628757 4.941072 1.125245
v -6.628757 4.952396 0.542169
v -6.628757 4.941072 -0.040906
v -6.628757 3.062772 -0.040906
v -6.628757 3.051447 0.542169
v -6.628757 3.062772 1.125245
v -6.628757 4.348851 1.821687
v -6.628757 4.001922 1.764067
v -6.628757 4.001922 -0.679728
v -6.628757 4.348851 -0.737348
v -6.628757 3.086059 1.624182
v -6.628757 3.100415 1.696838
v -6.628757 3.133575 1.752508
v -6.628757 3.180921 1.790805
v -6.628757 3.242016 1.806219
v -6.628757 4.903427 1.696838
v -6.628757 4.917784 1.624182
v -6.628757 4.870268 1.752508
v -6.628757 4.822922 1.790805
v -6.628757 4.761827 1.806219
v -6.628757 3.100415 -0.612501
v -6.628757 3.086059 -0.539843
v -6.628757 3.133575 -0.66817
v -6.628757 3.180921 -0.706467
v -6.628757 3.242016 -0.72188
v -6.628757 4.917784 -0.539843
v -6.628757 4.903427 -0.612501
v -6.628757 4.870268 -0.66817
v -6.628757 4.822922 -0.706467
v -6.628757 4.761827 -0.72188
v -6.773926 4.357988 1.676662
v -6.773926 4.001922 1.682333
v -6.773926 4.001922 0.020295
v -6.773926 4.357992 0.020295
v -6.652664 4.348851 -0.674203
v -6.652664 3.981894 -0.659379
v -6.773926 4.808022 0.008108
v -6.773926 3.219613 0.032995
v -6.652664 4.888261 1.126083
v -6.773926 3.19229 1.129199
v -6.652664 4.899582 0.542169
v -6.773926 3.180685 0.52832
v -6.773926 3.215001 1.618168
v -6.773926 3.219662 1.651307
v -6.773926 3.224215 1.658654
v -6.773926 3.224547 1.660344
v -6.773926 3.241685 1.662125
v -6.773926 4.784181 1.651307
v -6.773926 4.788843 1.618168
v -6.773926 4.779628 1.658654
v -6.773926 4.779297 1.660344
v -6.773926 4.762157 1.662125
v -6.652664 3.175233 -0.576357
v -6.652664 3.166681 -0.527439
v -6.652664 3.192052 -0.604296
v -6.652664 3.214128 -0.622708
v -6.652664 3.252089 -0.630885
v -6.652664 4.865516 -0.53079
v -6.652664 4.85532 -0.58644
v -6.652664 4.833374 -0.622987
v -6.652664 4.802288 -0.64834
v -6.652664 4.755524 -0.659186
v -6.652664 3.981733 -0.139625
v -6.652664 4.348855 -0.119437
v -6.652664 4.888261 -0.110867
v -6.652664 3.136153 -0.130666
v -6.773926 4.811553 1.129199
v -6.773926 4.823159 0.52832
v -6.652664 3.104262 0.542169
v -6.652664 3.115582 1.126083
v -6.652664 4.348851 1.758541
v -6.652664 4.001922 1.764067
v -6.652664 3.138329 1.615128
v -6.652664 3.148523 1.670778
v -6.652664 3.17047 1.707324
v -6.652664 3.201556 1.732678
v -6.652664 3.24832 1.743525
v -6.652664 4.85532 1.670778
v -6.652664 4.865516 1.615128
v -6.652664 4.833374 1.707325
v -6.652664 4.802288 1.732678
v -6.652664 4.755523 1.743525
v -6.652664 4.001922 -0.119437
v -6.652664 4.001922 -0.679728
v -6.652664 3.115582 -0.110867
v -6.652664 3.148523 -0.586441
v -6.652664 3.138329 -0.53079
v -6.652664 3.170469 -0.622987
v -6.652664 3.201554 -0.64834
v -6.652664 3.24832 -0.659186
v -6.670146 3.981733 -0.139625
v -6.670146 3.981894 -0.659379
v -6.670146 3.136153 -0.130666
v -6.670146 3.175233 -0.576357
v -6.670146 3.166681 -0.527439
v -6.670146 3.192052 -0.604296
v -6.670146 3.214128 -0.622708
v -6.670146 3.252089 -0.630885
v -6.652664 4.362705 -0.659828
v -6.652664 4.752888 -0.639396
v -6.652664 4.793496 -0.630416
v -6.652664 4.818282 -0.609917
v -6.652664 4.836643 -0.579389
v -6.652664 4.84569 -0.528447
v -6.652664 4.873878 -0.124711
v -6.652664 4.363083 -0.133441
v -6.652664 4.334623 -0.660199
v -6.652664 4.334738 -0.133553
v -6.652664 4.016038 -0.133553
v -6.652664 4.015926 -0.665499
v -6.6771 4.752888 -0.639396
v -6.6771 4.362705 -0.659828
v -6.6771 4.363083 -0.133441
v -6.6771 4.793496 -0.630416
v -6.6771 4.818282 -0.609917
v -6.6771 4.836643 -0.579389
v -6.6771 4.84569 -0.528447
v -6.6771 4.873878 -0.124711
v -6.6771 4.334623 -0.660199
v -6.6771 4.334738 -0.133553
v -6.6771 4.015926 -0.665499
v -6.6771 4.016038 -0.133553
v -6.924767 3.854819 0.7909
v -6.6771 4.789736 -0.482649
v -6.686942 4.830185 -0.396076
v -6.647529 4.83019 -0.396228
v -6.68714 4.810001 -0.479671
v -6.647727 4.810006 -0.479823
v -6.687301 4.759363 -0.549178
v -6.647888 4.759367 -0.54933
v -6.687402 4.685979 -0.594016
v -6.647989 4.685984 -0.594168
v -6.687428 4.601023 -0.607359
v -6.648015 4.601028 -0.607511
v -6.687373 4.517428 -0.587175
v -6.64796 4.517433 -0.587327
v -6.687247 4.44792 -0.536537
v -6.647834 4.447925 -0.536689
v -6.687068 4.403081 -0.463155
v -6.647655 4.403086 -0.463307
v -6.686865 4.389739 -0.378199
v -6.647452 4.389743 -0.378351
v -6.686668 4.409923 -0.294604
v -6.647254 4.409927 -0.294756
v -6.686506 4.460561 -0.225097
v -6.647093 4.460566 -0.225249
v -6.686405 4.533944 -0.180259
v -6.646992 4.533949 -0.180411
v -6.68638 4.6189 -0.166916
v -6.646967 4.618905 -0.167068
v -6.686435 4.702496 -0.1871
v -6.647021 4.7025 -0.187252
v -6.686561 4.772003 -0.237738
v -6.647148 4.772008 -0.23789
v -6.686739 4.816842 -0.31112
v -6.647326 4.816847 -0.311272
v -6.619812 4.739048 -0.446999
v -6.619684 4.752072 -0.393057
v -6.619553 4.743462 -0.338237
v -6.619438 4.714529 -0.290885
v -6.619357 4.669677 -0.258209
v -6.619321 4.615735 -0.245185
v -6.619338 4.560914 -0.253795
v -6.619403 4.513561 -0.282728
v -6.619507 4.480886 -0.32758
v -6.619635 4.467861 -0.381522
v -6.619766 4.476471 -0.436342
v -6.619881 4.505404 -0.483694
v -6.619962 4.550257 -0.516369
v -6.619998 4.604199 -0.529393
v -6.619981 4.659019 -0.520784
v -6.619916 4.706372 -0.491851
v -6.579928 4.667349 -0.449603
v -6.579866 4.686797 -0.422908
v -6.579622 4.55259 -0.325135
v -6.579685 4.533142 -0.351831
v -6.619887 4.594466 -0.483478
v -6.619431 4.625468 -0.291101
v -6.676036 4.198475 -0.243702
v -6.650083 4.198575 -0.24371
v -6.676169 4.253066 -0.263353
v -6.650217 4.253167 -0.263362
v -6.676279 4.295959 -0.301861
v -6.650326 4.29606 -0.301869
v -6.676347 4.320622 -0.353361
v -6.650394 4.320724 -0.35337
v -6.676364 4.323303 -0.410015
v -6.650412 4.323404 -0.410024
v -6.676328 4.303592 -0.463197
v -6.650375 4.303693 -0.463206
v -6.676243 4.26449 -0.504811
v -6.65029 4.264591 -0.504819
v -6.676123 4.21195 -0.528521
v -6.65017 4.212051 -0.528529
v -6.675985 4.153971 -0.530717
v -6.650033 4.154072 -0.530725
v -6.675852 4.09938 -0.511066
v -6.649899 4.099481 -0.511074
v -6.675743 4.056487 -0.472559
v -6.64979 4.056588 -0.472567
v -6.675674 4.031823 -0.421058
v -6.649722 4.031924 -0.421066
v -6.675657 4.029143 -0.364404
v -6.649704 4.029243 -0.364412
v -6.675694 4.048854 -0.311222
v -6.649741 4.048954 -0.31123
v -6.675778 4.087956 -0.269608
v -6.649826 4.088057 -0.269616
v -6.675899 4.140496 -0.245898
v -6.649946 4.140596 -0.245907
v -6.631834 4.225908 -0.307296
v -6.631748 4.190681 -0.294615
v -6.63166 4.153268 -0.296033
v -6.631582 4.119366 -0.311332
v -6.631527 4.094134 -0.338184
v -6.631504 4.081415 -0.372502
v -6.631515 4.083144 -0.409059
v -6.631558 4.09906 -0.442292
v -6.631629 4.126737 -0.467139
v -6.631715 4.161964 -0.47982
v -6.631804 4.199377 -0.478403
v -6.631881 4.233279 -0.463103
v -6.631936 4.258511 -0.436251
v -6.63196 4.27123 -0.401934
v -6.631948 4.269501 -0.365376
v -6.631905 4.253585 -0.332144
v -6.605571 4.222361 -0.354442
v -6.605529 4.205887 -0.339653
v -6.605366 4.130389 -0.420001
v -6.605408 4.146862 -0.43479
v -6.631886 4.239708 -0.404772
v -6.631577 4.112936 -0.369663
v -8.192208 5.001534 0.51096
v -8.09624 5.156133 0.51096
v -8.16587 5.001534 0.378544
v -8.077207 5.156133 0.41527
v -8.090862 5.001534 0.266288
v -8.023002 5.156133 0.334149
v -7.978605 5.001534 0.19128
v -7.941881 5.156133 0.279944
v -7.84619 5.001534 0.164941
v -7.846191 5.156133 0.26091
v -7.713775 5.001534 0.19128
v -7.750502 5.156133 0.279944
v -7.601519 5.001534 0.266288
v -7.66938 5.156133 0.334149
v -7.526511 5.001534 0.378544
v -7.615176 5.156133 0.41527
v -7.500172 5.001534 0.51096
v -7.596142 5.156133 0.51096
v -7.526511 5.001534 0.643375
v -7.615176 5.156133 0.606649
v -7.601518 5.001534 0.755631
v -7.66938 5.156133 0.687771
v -7.713775 5.001534 0.830639
v -7.750502 5.156133 0.741975
v -7.84619 5.001534 0.856978
v -7.846191 5.156133 0.761009
v -7.978605 5.001534 0.830639
v -7.94188 5.156133 0.741975
v -8.090862 5.001534 0.755631
v -8.023002 5.156133 0.687771
v -8.16587 5.001534 0.643375
v -8.077207 5.156133 0.606649
v 7.125697 0.468966 16.47609
v -7.824417 5.134786 0.388674
v -7.824417 5.555701 0.304405
v -7.821068 5.132763 0.378567
v -7.821068 5.553678 0.294297
v -7.8123 5.131512 0.37232
v -7.8123 5.552427 0.288051
v -7.801461 5.131512 0.37232
v -7.801461 5.552427 0.288051
v -7.792693 5.132763 0.378567
v -7.792693 5.553678 0.294297
v -7.789344 5.134786 0.388674
v -7.789344 5.555701 0.304405
v -7.792693 5.13681 0.398781
v -7.792693 5.557725 0.314512
v -7.801461 5.13806 0.405027
v -7.801461 5.558976 0.320758
v -7.8123 5.13806 0.405027
v -7.8123 5.558976 0.320758
v -7.821068 5.13681 0.398781
v -7.821068 5.557725 0.314512
v -7.815641 5.554452 0.298164
v -7.817709 5.555701 0.304405
v -7.815641 5.556951 0.310645
v -7.810226 5.557723 0.314503
v -7.803535 5.557723 0.314503
v -7.79812 5.556951 0.310645
v -7.796052 5.555701 0.304405
v -7.79812 5.554452 0.298164
v -7.803535 5.55368 0.294307
v -7.810226 5.55368 0.294307
v -7.815641 6.346827 0.139527
v -7.817709 6.348076 0.145768
v -7.810226 6.346054 0.13567
v -7.815641 6.349325 0.152009
v -7.810226 6.350098 0.155866
v -7.803535 6.350098 0.155866
v -7.79812 6.349325 0.152009
v -7.796052 6.348076 0.145768
v -7.79812 6.346827 0.139527
v -7.803535 6.346054 0.13567
v -7.824417 5.210613 0.373493
v -7.821068 5.20859 0.363386
v -7.8123 5.207339 0.357139
v -7.801461 5.207339 0.357139
v -7.792693 5.20859 0.363386
v -7.789344 5.210613 0.373493
v -7.792693 5.212637 0.3836
v -7.801461 5.213888 0.389846
v -7.8123 5.213888 0.389846
v -7.821068 5.212637 0.3836
v -7.836385 5.134786 0.388674
v -7.83075 5.131382 0.371669
v -7.83075 5.207209 0.356488
v -7.815998 5.129278 0.361159
v -7.815998 5.205105 0.345978
v -7.797763 5.129278 0.361159
v -7.797763 5.205105 0.345978
v -7.783011 5.131382 0.371669
v -7.783011 5.207209 0.356488
v -7.777376 5.134786 0.388674
v -7.777376 5.210613 0.373493
v -7.783011 5.138191 0.405679
v -7.783011 5.214018 0.390498
v -7.797763 5.140295 0.416188
v -7.797763 5.216122 0.401007
v -7.815998 5.140295 0.416188
v -7.815998 5.216122 0.401007
v -7.83075 5.138191 0.405679
v -7.83075 5.214018 0.390498
v -7.836385 5.210613 0.373493
v -7.832438 5.149835 0.604068
v -7.832438 5.568049 0.700855
v -7.829089 5.152159 0.594025
v -7.829089 5.570374 0.690812
v -7.820321 5.153595 0.587819
v -7.820321 5.57181 0.684606
v -7.809483 5.153595 0.587819
v -7.809483 5.57181 0.684606
v -7.800714 5.152159 0.594025
v -7.800714 5.570374 0.690812
v -7.797365 5.149835 0.604068
v -7.797365 5.568049 0.700855
v -7.800714 5.147511 0.61411
v -7.800714 5.565725 0.710897
v -7.809483 5.146075 0.620317
v -7.809483 5.564289 0.717103
v -7.820321 5.146075 0.620317
v -7.820321 5.564289 0.717103
v -7.829089 5.147511 0.61411
v -7.829089 5.565725 0.710897
v -7.823662 5.569485 0.694654
v -7.82573 5.568049 0.700855
v -7.823662 5.566615 0.707056
v -7.818248 5.565728 0.710888
v -7.811556 5.565728 0.710888
v -7.806141 5.566615 0.707056
v -7.804073 5.568049 0.700855
v -7.806141 5.569485 0.694654
v -7.811556 5.570372 0.690822
v -7.818248 5.570372 0.690822
v -7.823662 6.356774 0.876856
v -7.82573 6.35534 0.883057
v -7.818248 6.357661 0.873024
v -7.823662 6.353904 0.889258
v -7.818248 6.353017 0.89309
v -7.811556 6.353017 0.89309
v -7.806141 6.353904 0.889258
v -7.804073 6.35534 0.883057
v -7.806141 6.356774 0.876856
v -7.811556 6.357661 0.873024
v -7.832438 5.225176 0.621504
v -7.829089 5.2275 0.611461
v -7.820321 5.228936 0.605255
v -7.809483 5.228936 0.605255
v -7.800714 5.2275 0.611461
v -7.797365 5.225176 0.621504
v -7.800714 5.222852 0.631546
v -7.809483 5.221416 0.637753
v -7.820321 5.221416 0.637753
v -7.829089 5.222852 0.631546
v -7.844406 5.149835 0.604068
v -7.838771 5.153745 0.587172
v -7.838771 5.229086 0.604608
v -7.824019 5.156162 0.57673
v -7.824019 5.231503 0.594166
v -7.805784 5.156162 0.57673
v -7.805784 5.231503 0.594166
v -7.791032 5.153745 0.587172
v -7.791032 5.229086 0.604608
v -7.785398 5.149835 0.604068
v -7.785398 5.225176 0.621504
v -7.791032 5.145925 0.620963
v -7.791032 5.221266 0.638399
v -7.805784 5.143508 0.631406
v -7.805784 5.218849 0.648842
v -7.824019 5.143508 0.631406
v -7.824019 5.218849 0.648842
v -7.838771 5.145925 0.620963
v -7.838771 5.221266 0.638399
v -7.844406 5.225176 0.621504
v -6.813252 3.126773 1.761994
v -6.813252 3.126773 -0.11794
v -6.813252 4.894183 1.761994
v -6.813252 4.894183 -0.11794
v -6.772338 3.126773 1.13535
v -6.772338 3.126773 0.508705
v -6.772337 4.894183 0.508705
v -6.772337 4.894183 1.13535
v -6.778687 4.305047 1.761994
v -6.778687 3.71591 1.761994
v -6.778688 3.71591 -0.11794
v -6.778688 4.305047 -0.11794
v -6.703042 3.71591 1.13535
v -6.703042 4.305047 1.13535
v -6.703042 3.71591 0.508705
v -6.703042 4.305047 0.508705
#end vertices

#begin 921 textures vertices 
vt 0.2212858 0.5573298 0
vt 0.07164914 0.5560962 0
vt 0.8671114 0.6423532 0
vt 0.7280104 0.6986047 0
vt 0.8151409 0.9960938 0
vt 0.05481779 0.1509992 0
vt 0.02065523 0.1000887 0
vt 0.3082204 0.5529571 0
vt 0.2726951 0.5955244 0
vt 0.274058 0.5020467 0
vt 0.7844775 0.5332361 0
vt 0.1866705 0.06252229 0
vt 0.8343903 0.7929075 0
vt 0.5881972 0.3954146 0
vt 0.5776688 0.5178113 0
vt 0.5812738 0.4564784 0
vt 0.06435997 0.6015753 0
vt 0.8904227 0.6818009 0
vt 0.05911955 0.6625401 0
vt 0.228028 0.6023573 0
vt 0.7391905 0.7435269 0
vt 0.2330188 0.6628749 0
vt 0.7644236 0.6810153 0
vt 0.796422 0.6671413 0
vt 0.1814855 0.5536388 0
vt 0.1465636 0.5531946 0
vt 0.638265 0.5991751 0
vt 0.6747129 0.6023998 0
vt 0.7424072 0.6345208 0
vt 0.7776459 0.6185172 0
vt 0.1621006 0.335203 0
vt 0.1463561 0.500564 0
vt 0.3164642 0.2316205 0
vt 0.6978844 0.3264283 0
vt 0.7813736 0.7271661 0
vt 0.8151894 0.7138223 0
vt 0.184297 0.6658144 0
vt 0.8396821 0.7718801 0
vt 0.1824981 0.6032718 0
vt 0.1463677 0.6036986 0
vt 0.7777309 0.3352052 0
vt 0.2139033 0.09598092 0
vt 0.784565 0.337696 0
vt 0.7898595 0.3427185 0
vt 0.7934327 0.3496179 0
vt 0.5968906 0.3430839 0
vt 0.6175814 0.3233088 0
vt 0.5996663 0.3350027 0
vt 0.6043371 0.3287908 0
vt 0.6104425 0.3247464 0
vt 0.07545748 0.1888824 0
vt 0.06123229 0.5086606 0
vt 0.0364714 0.5282686 0
vt 0.04351625 0.5192856 0
vt 0.0519547 0.5125737 0
vt 0.1870073 0.37232 0
vt 0.2619095 0.5395365 0
vt 0.2411802 0.512918 0
vt 0.2496254 0.5197542 0
vt 0.2567117 0.5288976 0
vt 0.7308281 0.8286286 0
vt 0.7550764 0.6052559 0
vt 0.7730179 0.5935788 0
vt 0.7683278 0.5997702 0
vt 0.7622283 0.6038218 0
vt 0.5947829 0.5937868 0
vt 0.5777411 0.5708545 0
vt 0.5879548 0.5912719 0
vt 0.5826564 0.5862377 0
vt 0.5791352 0.5793015 0
vt 0.8596452 0.5945142 0
vt 0.7680213 0.9956411 0
vt 0.8697087 0.5947714 0
vt 0.8800075 0.597944 0
vt 0.8898334 0.6037438 0
vt 0.6839299 0.6972502 0
vt 0.700663 0.6572754 0
vt 0.6848505 0.6853024 0
vt 0.688104 0.6740652 0
vt 0.6934871 0.6644913 0
vt 0.009399728 0.1076414 0
vt 0.02001591 0.5941255 0
vt 0.9288508 0.6583009 0
vt 0.7732996 0.8080082 0
vt 0.7914495 0.4722543 0
vt 0.7950606 0.4110063 0
vt 0.03134226 0.5387161 0
vt 0.7948565 0.3580416 0
vt 0.7757773 0.5855025 0
vt 0.4742352 0.8003595 0
vt 0.8188682 0.9814285 0
vt 0.7827076 0.8198597 0
vt 0.8371708 0.8068453 0
vt 0.8741825 0.9720079 0
vt 0.8924857 0.7974247 0
vt 0.9286453 0.9589936 0
vt 0.9637682 0.9448256 0
vt 0.9306775 0.7951778 0
vt 0.7475851 0.8340276 0
vt 0.7806759 0.9836754 0
vt 0.3942586 0.3475532 0
vt 0.4284214 0.398464 0
vt 0.4625842 0.4493749 0
vt 0.658917 0.7419586 0
vt 0.1637632 0.00405876 0
vt 0.197926 0.05496964 0
vt 0.6613719 0.3244012 0
vt 0.2960909 0.2012593 0
vt 0.560752 0.5956688 0
vt 0.5403787 0.5653077 0
vt 0.2282443 0.1001513 0
vt 0.2342605 0.1091169 0
vt 0.2401498 0.1178935 0
vt 0.2456817 0.1261374 0
vt 0.2508138 0.1337854 0
vt 0.3579241 0.2934059 0
vt 0.3639403 0.3023715 0
vt 0.3520347 0.2846293 0
vt 0.3465028 0.2763854 0
vt 0.3413708 0.2687374 0
vt 0.6225825 0.6878113 0
vt 0.7825777 0.5876129 0
vt 0.6166931 0.6790346 0
vt 0.6111611 0.6707907 0
vt 0.6060291 0.6631427 0
vt 0.4929026 0.4945566 0
vt 0.4989187 0.5035222 0
vt 0.5048082 0.5122989 0
vt 0.5103401 0.5205428 0
vt 0.5154721 0.5281908 0
vt 0.3134096 0.06962592 0
vt 0.3437392 0.04913178 0
vt 0.4597121 0.2993932 0
vt 0.490666 0.2798437 0
vt 0.3645568 0.2720793 0
vt 0.782395 0.5329512 0
vt 0.5902787 0.3957 0
vt 0.4699467 0.05690704 0
vt 0.58337 0.4566612 0
vt 0.7893541 0.4720719 0
vt 0.4377882 0.01521583 0
vt 0.4319919 0.009829271 0
vt 0.4256974 0.006836212 0
vt 0.4191612 0.006160912 0
vt 0.4126812 0.008192518 0
vt 0.2717149 0.1138332 0
vt 0.2741647 0.1213755 0
vt 0.2717169 0.1068533 0
vt 0.2738644 0.1006339 0
vt 0.2783218 0.09551522 0
vt 0.5625378 0.2148812 0
vt 0.560101 0.2073498 0
vt 0.5625216 0.2218506 0
vt 0.5603575 0.2280577 0
vt 0.5558711 0.2331568 0
vt 0.3967368 0.3138854 0
vt 0.402528 0.3193007 0
vt 0.4088207 0.3223253 0
vt 0.4153623 0.3230311 0
vt 0.4218552 0.3210474 0
vt 0.2986183 0.1681217 0
vt 0.3301752 0.2209976 0
vt 0.5797708 0.5178788 0
vt 0.5357253 0.1606784 0
vt 0.5042558 0.1078909 0
vt 0.7929584 0.4109425 0
vt 0.661284 0.3265026 0
vt 0.6977097 0.3285254 0
vt 0.6748384 0.6002993 0
vt 0.6384811 0.597087 0
vt 0.7927654 0.3581714 0
vt 0.791405 0.3502874 0
vt 0.7882293 0.3439412 0
vt 0.7834576 0.3394725 0
vt 0.7773435 0.3372725 0
vt 0.6015118 0.3359873 0
vt 0.5989377 0.3435465 0
vt 0.6058038 0.3303506 0
vt 0.6112461 0.3266782 0
vt 0.6176952 0.3253958 0
vt 0.7711348 0.5925712 0
vt 0.7737295 0.5850424 0
vt 0.7668932 0.5982459 0
vt 0.7614238 0.601892 0
vt 0.7549923 0.6031625 0
vt 0.5798326 0.570733 0
vt 0.5811235 0.5786547 0
vt 0.5843318 0.5849982 0
vt 0.5890679 0.5894959 0
vt 0.5952102 0.5917201 0
vt 0.6192649 0.02076122 0
vt 0.3447168 0.05068756 0
vt 0.6596871 0.2967893 0
vt 0.4896343 0.2783249 0
vt 0.5879351 0.2307341 0
vt 0.7862163 0.2017748 0
vt 0.5644704 0.1062054 0
vt 0.7713309 0.07521687 0
vt 0.5722161 0.1683661 0
vt 0.7830291 0.1370391 0
vt 0.7545262 0.02468854 0
vt 0.7507368 0.01865147 0
vt 0.7466371 0.01483616 0
vt 0.7420134 0.0121505 0
vt 0.7360062 0.01059761 0
vt 0.5663611 0.04630016 0
vt 0.5647061 0.05316249 0
vt 0.5689359 0.04140359 0
vt 0.5723433 0.03739252 0
vt 0.5774198 0.03405558 0
vt 0.7923612 0.2633597 0
vt 0.7929553 0.2561499 0
vt 0.7901205 0.2685618 0
vt 0.7866312 0.2726626 0
vt 0.7811572 0.2756853 0
vt 0.59688 0.2850075 0
vt 0.5995073 0.2916785 0
vt 0.6031249 0.2959622 0
vt 0.6075929 0.298906 0
vt 0.6136381 0.3003959 0
vt 0.3002188 0.1672193 0
vt 0.3317272 0.2200154 0
vt 0.3660497 0.2710119 0
vt 0.5341246 0.1615804 0
vt 0.5027038 0.108873 0
vt 0.4684543 0.05797511 0
vt 0.3144645 0.07112947 0
vt 0.6557435 0.01373471 0
vt 0.6998605 0.2918583 0
vt 0.4587616 0.2978239 0
vt 0.4363814 0.01639095 0
vt 0.4309517 0.01133016 0
vt 0.4251893 0.00858278 0
vt 0.4193373 0.007976157 0
vt 0.4135505 0.009811885 0
vt 0.2735241 0.1135415 0
vt 0.2758246 0.1205862 0
vt 0.2735173 0.1071572 0
vt 0.275439 0.1015561 0
vt 0.2794759 0.09693167 0
vt 0.5607285 0.2151717 0
vt 0.5584409 0.2081386 0
vt 0.5607216 0.2215446 0
vt 0.5587853 0.2271315 0
vt 0.554742 0.2317132 0
vt 0.3981455 0.3127124 0
vt 0.4035732 0.3178034 0
vt 0.4093343 0.3205802 0
vt 0.4151928 0.3212134 0
vt 0.4210208 0.3194052 0
vt 0.6224657 0.03852425 0
vt 0.6579692 0.03176534 0
vt 0.6866935 0.2096577 0
vt 0.649059 0.2146321 0
vt 0.6593937 0.2942549 0
vt 0.7013431 0.2868105 0
vt 0.6027228 0.2201382 0
vt 0.7673171 0.1931592 0
vt 0.5670128 0.1060578 0
vt 0.7540887 0.07913462 0
vt 0.574717 0.1679451 0
vt 0.7654624 0.1410569 0
vt 0.7384505 0.03147432 0
vt 0.7375407 0.02883114 0
vt 0.7371235 0.02831427 0
vt 0.7370649 0.02818704 0
vt 0.7357367 0.02816085 0
vt 0.5822961 0.05175564 0
vt 0.5821707 0.05456237 0
vt 0.5825592 0.05113055 0
vt 0.5825798 0.05099045 0
vt 0.5839114 0.05053721 0
vt 0.7872694 0.2620723 0
vt 0.7875928 0.2563004 0
vt 0.7857944 0.2657328 0
vt 0.7835332 0.2684197 0
vt 0.7795048 0.2704454 0
vt 0.5992523 0.2844454 0
vt 0.601631 0.29041 0
vt 0.6046789 0.2941457 0
vt 0.6084189 0.2967346 0
vt 0.6137388 0.2979259 0
vt 0.692861 0.2304289 0
vt 0.6520533 0.2342147 0
vt 0.5920892 0.2377917 0
vt 0.7824384 0.212301 0
vt 0.5820916 0.1045929 0
vt 0.5901526 0.1669532 0
vt 0.7805181 0.1373961 0
vt 0.7688711 0.07586407 0
vt 0.6198713 0.02322982 0
vt 0.656028 0.01625433 0
vt 0.7522472 0.02570653 0
vt 0.7487806 0.02027355 0
vt 0.7452021 0.01685923 0
vt 0.7412033 0.01445866 0
vt 0.7358928 0.01311985 0
vt 0.5686962 0.04718348 0
vt 0.5671936 0.05340903 0
vt 0.5709696 0.04284898 0
vt 0.5739421 0.03934274 0
vt 0.578428 0.03634656 0
vt 0.6904048 0.2287064 0
vt 0.6995172 0.2893348 0
vt 0.7842713 0.2097611 0
vt 0.7900334 0.2627884 0
vt 0.7905093 0.2562736 0
vt 0.7881311 0.2672617 0
vt 0.7852166 0.2707304 0
vt 0.7804922 0.2732665 0
vt 0.6941077 0.2315965 0
vt 0.7022287 0.2853234 0
vt 0.7817124 0.2138766 0
vt 0.7856207 0.2616672 0
vt 0.7858164 0.2563718 0
vt 0.7844035 0.2648068 0
vt 0.7825868 0.2670529 0
vt 0.7790331 0.2686941 0
vt 0.6577043 0.292887 0
vt 0.613938 0.2958774 0
vt 0.6091571 0.2948658 0
vt 0.6059595 0.2926694 0
vt 0.6033151 0.2893601 0
vt 0.6012111 0.2838852 0
vt 0.5938217 0.2391733 0
vt 0.6507018 0.2357997 0
vt 0.6607414 0.2925638 0
vt 0.6537093 0.2355299 0
vt 0.6891707 0.2304097 0
vt 0.6977819 0.2880324 0
vt 0.6140763 0.2933844 0
vt 0.6557047 0.2915262 0
vt 0.6492048 0.2376042 0
vt 0.6100503 0.2927251 0
vt 0.6074811 0.290893 0
vt 0.6053312 0.2881269 0
vt 0.6036539 0.2832403 0
vt 0.595567 0.240749 0
vt 0.6624823 0.2909322 0
vt 0.65567 0.236695 0
vt 0.6956788 0.2868354 0
vt 0.6876183 0.2321405 0
vt 0.2375565 0.8826226 0
vt 0.6087975 0.2776404 0
vt 0.3548688 0.1656068 0
vt 0.3570347 0.1574664 0
vt 0.37692 0.1665897 0
vt 0.3758083 0.1582451 0
vt 0.3976182 0.1590519 0
vt 0.3933794 0.1517845 0
vt 0.4139648 0.1440214 0
vt 0.4072302 0.1389609 0
vt 0.4235217 0.123661 0
vt 0.4149506 0.1216977 0
vt 0.4238192 0.1011755 0
vt 0.4155529 0.1027981 0
vt 0.4157035 0.0805119 0
vt 0.4087132 0.08519785 0
vt 0.4004195 0.06460371 0
vt 0.3957391 0.07160309 0
vt 0.3802975 0.05576174 0
vt 0.3786301 0.06402027 0
vt 0.3584185 0.05527199 0
vt 0.3600155 0.06355011 0
vt 0.3381932 0.06311005 0
vt 0.3428399 0.07014757 0
vt 0.322457 0.07809833 0
vt 0.3293771 0.08287466 0
vt 0.3137374 0.09787884 0
vt 0.3216165 0.09975449 0
vt 0.3126397 0.1194947 0
vt 0.3209619 0.1183379 0
vt 0.3200532 0.140044 0
vt 0.3273441 0.1358266 0
vt 0.3348835 0.1562731 0
vt 0.3400058 0.1495852 0
vt 0.3732673 0.1406597 0
vt 0.3613392 0.1402223 0
vt 0.3505506 0.1352838 0
vt 0.3425293 0.1266223 0
vt 0.3384766 0.1155775 0
vt 0.3389548 0.1038487 0
vt 0.3438542 0.09316487 0
vt 0.3525397 0.08511977 0
vt 0.3630023 0.08114585 0
vt 0.3747806 0.08138702 0
vt 0.3855746 0.08615933 0
vt 0.3937428 0.09474082 0
vt 0.3980254 0.1058374 0
vt 0.39772 0.1177477 0
vt 0.3927775 0.1285804 0
vt 0.3840586 0.1366633 0
vt 0.7336637 0.4236864 0
vt 0.7511995 0.4256921 0
vt 0.7451018 0.5334433 0
vt 0.7274968 0.5336765 0
vt 0.3887586 0.113151 0
vt 0.347822 0.1084622 0
vt 0.3667092 0.2408818 0
vt 0.3753494 0.2406372 0
vt 0.3722082 0.2633042 0
vt 0.3801162 0.2598263 0
vt 0.3857057 0.2818422 0
vt 0.3916678 0.2756051 0
vt 0.4052946 0.2937863 0
vt 0.4083564 0.2857147 0
vt 0.4281301 0.2973484 0
vt 0.4275697 0.2883526 0
vt 0.450353 0.2910136 0
vt 0.4463148 0.2833838 0
vt 0.4683403 0.2767726 0
vt 0.4616573 0.2713123 0
vt 0.4795579 0.2567175 0
vt 0.4712935 0.2541962 0
vt 0.4823884 0.233889 0
vt 0.4737773 0.234646 0
vt 0.4764335 0.2117648 0
vt 0.4687227 0.2156962 0
vt 0.4627528 0.1937975 0
vt 0.4571288 0.2003706 0
vt 0.4433834 0.1824808 0
vt 0.4406403 0.1906557 0
vt 0.4213927 0.1795987 0
vt 0.4218443 0.1878868 0
vt 0.3998285 0.1848926 0
vt 0.4034499 0.1927127 0
vt 0.3817631 0.198371 0
vt 0.3880849 0.2042605 0
vt 0.3700781 0.2180449 0
vt 0.3781743 0.2210843 0
vt 0.3967035 0.2520413 0
vt 0.3936541 0.2398882 0
vt 0.3953177 0.2275623 0
vt 0.4014871 0.2169053 0
vt 0.4111711 0.2095301 0
vt 0.4228842 0.2064899 0
vt 0.4348642 0.2082745 0
vt 0.4453222 0.2146295 0
vt 0.4523195 0.2239979 0
vt 0.4554936 0.2359674 0
vt 0.4539735 0.2482688 0
vt 0.4479074 0.259048 0
vt 0.4382303 0.2666455 0
vt 0.4264205 0.2698595 0
vt 0.4143146 0.2680983 0
vt 0.4038004 0.2617145 0
vt 0.6501179 0.5265163 0
vt 0.6297867 0.5227216 0
vt 0.6401333 0.3969666 0
vt 0.6604661 0.4007613 0
vt 0.4283233 0.2594665 0
vt 0.4209401 0.2168093 0
vt 0.8118754 0.1375814 0
vt 0.8507343 0.1436741 0
vt 0.8140446 0.1713515 0
vt 0.7867304 0.05008279 0
vt 0.8275212 0.2024337 0
vt 0.8591736 0.1785567 0
vt 0.8529159 0.2248242 0
vt 0.8722755 0.1914752 0
vt 0.8845471 0.2358369 0
vt 0.8895936 0.198082 0
vt 0.917634 0.2338681 0
vt 0.9082819 0.1977304 0
vt 0.9482152 0.2207425 0
vt 0.9246268 0.1890298 0
vt 0.9703642 0.1958813 0
vt 0.937587 0.1759232 0
vt 0.9812773 0.1647506 0
vt 0.9446693 0.1586948 0
vt 0.9806263 0.1318634 0
vt 0.8212919 0.01029944 0
vt 0.9672556 0.1015794 0
vt 0.9355429 0.1231107 0
vt 0.9431527 0.07852649 0
vt 0.9219337 0.1104777 0
vt 0.9118611 0.06637809 0
vt 0.9045491 0.1040596 0
vt 0.878076 0.06710936 0
vt 0.8860784 0.104884 0
vt 0.8468403 0.08061991 0
vt 0.8695809 0.1130788 0
vt 0.8243724 0.1061161 0
vt 0.8561523 0.1258518 0
vt 0.2384177 0.7843797 0
vt 0.04430941 0.04645067 0
vt 0.1494946 0.4821504 0
vt 0.04366081 0.04746399 0
vt 0.195434 0.4508913 0
vt 0.04415931 0.04681202 0
vt 0.1903297 0.4543641 0
vt 0.04511059 0.04610022 0
vt 0.185225 0.4578377 0
vt 0.0460883 0.04545644 0
vt 0.180121 0.461311 0
vt 0.04708342 0.04502366 0
vt 0.1750161 0.4647842 0
vt 0.04756362 0.04445144 0
vt 0.169912 0.4682577 0
vt 0.04770005 0.04429039 0
vt 0.1648081 0.4717311 0
vt 0.04668357 0.04465171 0
vt 0.1597033 0.4752046 0
vt 0.04553327 0.04546317 0
vt 0.1545991 0.4786775 0
vt 0.8497825 0.9119937 0
vt 0.83141 0.9181686 0
vt 0.812919 0.9123653 0
vt 0.3888482 0.9702086 0
vt 0.3888733 0.9680754 0
vt 0.8124075 0.861623 0
vt 0.8307777 0.8554481 0
vt 0.8492709 0.8612514 0
vt 0.8608208 0.8768188 0
vt 0.8610162 0.8961965 0
vt 0.6466578 0.958299 0
vt 0.6464321 0.9775015 0
vt 0.6466325 0.9604328 0
vt 0.6464571 0.9753679 0
vt 0.6464824 0.9732341 0
vt 0.6465074 0.9711009 0
vt 0.6465322 0.9689671 0
vt 0.6465574 0.9668335 0
vt 0.6465826 0.9646999 0
vt 0.6466074 0.962566 0
vt 0.03671101 0.3164027 0
vt 0.08265042 0.2851434 0
vt 0.07754594 0.2886165 0
vt 0.07244121 0.2920901 0
vt 0.06733693 0.2955635 0
vt 0.06223257 0.2990365 0
vt 0.05712844 0.30251 0
vt 0.05202449 0.3059833 0
vt 0.04691975 0.3094568 0
vt 0.04181547 0.3129297 0
vt 0.04475669 0.04748411 0
vt 0.04254469 0.04847058 0
vt 0.03907989 0.03782681 0
vt 0.04314148 0.04637696 0
vt 0.1836826 0.007690247 0
vt 0.04436893 0.04498003 0
vt 0.184666 0.009341136 0
vt 0.04567884 0.04411273 0
vt 0.1864319 0.01009868 0
vt 0.04695567 0.04380496 0
vt 0.1883058 0.009673636 0
vt 0.0481912 0.04327595 0
vt 0.1895721 0.008228257 0
vt 0.04894857 0.04414113 0
vt 0.1897468 0.00631474 0
vt 0.04777799 0.04535493 0
vt 0.05487138 0.04416219 0
vt 0.04638435 0.04644727 0
vt 0.0548364 0.04708192 0
vt 0.05421476 0.04973864 0
vt 0.2960383 0.04131159 0
vt 0.5829852 0.284451 0
vt 0.2970535 0.04206464 0
vt 0.5282763 0.2747066 0
vt 0.2982779 0.04273863 0
vt 0.5343548 0.2757894 0
vt 0.2993279 0.04336345 0
vt 0.5404335 0.276872 0
vt 0.2998522 0.04397145 0
vt 0.5465125 0.2779546 0
vt 0.3003284 0.04432505 0
vt 0.5525917 0.2790377 0
vt 0.3001239 0.04400568 0
vt 0.5586704 0.2801204 0
vt 0.2994133 0.04313934 0
vt 0.5647494 0.2812029 0
vt 0.2982958 0.04243644 0
vt 0.5708281 0.2822856 0
vt 0.2970948 0.04160931 0
vt 0.5769066 0.2833683 0
vt 0.5854778 0.8035188 0
vt 0.6053902 0.8006633 0
vt 0.6231772 0.8100565 0
vt 0.386199 0.9295945 0
vt 0.3862574 0.927409 0
vt 0.6141788 0.8619454 0
vt 0.5942677 0.8648011 0
vt 0.5764794 0.8554077 0
vt 0.5676118 0.8373509 0
vt 0.5710486 0.8175324 0
vt 0.004229812 0.00584543 0
vt 0.6499953 0.9410163 0
vt 0.004859871 0.006162149 0
vt 0.00401278 0.004521671 0
vt 0.6501117 0.9366451 0
vt 0.005204616 0.00390625 0
vt 0.005834778 0.004222952 0
vt 0.6502873 0.9300881 0
vt 0.00605181 0.005546711 0
vt 0.005555768 0.006048055 0
vt 0.5478294 0.4818415 0
vt 0.4931198 0.4720976 0
vt 0.4991983 0.4731804 0
vt 0.5052771 0.474263 0
vt 0.5113561 0.4753456 0
vt 0.5174352 0.4764282 0
vt 0.5235139 0.4775108 0
vt 0.5295932 0.4785933 0
vt 0.5356719 0.479676 0
vt 0.1930632 0.01987304 0
vt 0.2950243 0.04029726 0
vt 0.2972862 0.04097991 0
vt 0.3063603 0.03753517 0
vt 0.2990451 0.04175272 0
vt 0.1937767 0.02388842 0
vt 0.3005701 0.0426313 0
vt 0.1956964 0.02380297 0
vt 0.3009425 0.04397672 0
vt 0.1971991 0.02260551 0
vt 0.3015724 0.04525536 0
vt 0.197711 0.0207534 0
vt 0.3002578 0.04517901 0
vt 0.1970366 0.0189542 0
vt 0.2989843 0.04432036 0
vt 0.1954334 0.01789489 0
vt 0.297568 0.0435548 0
vt 0.2979236 0.05215054 0
vt 0.2961786 0.04231312 0
vt 0.2953676 0.05174874 0
vt 0.2931117 0.0512387 0
vt 0.02938028 0.683546 0
vt 0.3447278 0.6862099 0
vt 0.02675502 0.9799125 0
vt 0.3421026 0.9825765 0
vt 0.1344115 0.6845293 0
vt 0.2395161 0.6853262 0
vt 0.2370712 0.9815932 0
vt 0.1319666 0.9807963 0
vt 0.02766582 0.8810454 0
vt 0.02862563 0.7822458 0
vt 0.343817 0.7850772 0
vt 0.3428572 0.8838768 0
vt 0.1339262 0.7835 0
vt 0.133065 0.8817429 0
vt 0.8290017 0.0385441 0
vt 0.830296 0.02834485 0
vt 0.8058574 0.05647598 0
vt 0.8275887 0.01842657 0
vt 0.8157757 0.05376863 0
vt 0.8239029 0.04747185 0
vt 0.7922467 0.006613545 0
vt 0.7804337 0.04195551 0
vt 0.7841196 0.01291033 0
vt 0.9434082 0.1400124 0
vt 0.7790207 0.02183799 0
vt 0.8123643 0.005200546 0
vt 0.8021649 0.00390625 0
vt 0.7777263 0.03203738 0
vt 0.8503508 0.1622758 0
vt 0.7956581 0.05518154 0
vt 0.1868829 0.005162166 0
vt 0.1850165 0.006273864 0
vt 0.1879324 0.005612456 0
vt 0.1857691 0.005414822 0
vt 0.185497 0.008392532 0
vt 0.1849125 0.007411233 0
vt 0.1885169 0.006593755 0
vt 0.188413 0.007731071 0
vt 0.1876604 0.008590124 0
vt 0.1865467 0.008842769 0
vt 0.05392003 0.04117226 0
vt 0.04398928 0.03645774 0
vt 0.05219094 0.03853494 0
vt 0.04150426 0.03711219 0
vt 0.1869977 0.00390625 0
vt 0.1838575 0.005776678 0
vt 0.1851237 0.00433131 0
vt 0.1887635 0.004663851 0
vt 0.04958379 0.03675029 0
vt 0.04673752 0.03625243 0
vt 0.05339687 0.05190227 0
vt 0.3075181 0.04596528 0
vt 0.1935137 0.01798034 0
vt 0.3058736 0.04872743 0
vt 0.1920109 0.0191779 0
vt 0.191499 0.02102991 0
vt 0.305258 0.03549857 0
vt 0.3077032 0.04301853 0
vt 0.300687 0.05209446 0
vt 0.3035282 0.0509229 0
vt 0.1921735 0.02282921 0
vt 0.3073164 0.04010153 0
vt 0.5417507 0.4807589 0
vt 0.1931598 0.02204334 0
vt 0.1939564 0.01916126 0
vt 0.1927589 0.02097383 0
vt 0.1950973 0.01911048 0
vt 0.1960503 0.01974008 0
vt 0.1964512 0.02080948 0
vt 0.1961469 0.02191037 0
vt 0.1952536 0.02262205 0
vt 0.1941127 0.02267284 0
vt 0.386491 0.9186662 0
vt 0.3866078 0.9142951 0
vt 0.3865494 0.9164806 0
vt 0.3864326 0.9208519 0
vt 0.3863739 0.9230376 0
vt 0.3863159 0.9252232 0
vt 0.6286085 0.8479288 0
vt 0.3861407 0.93178 0
vt 0.386082 0.9339655 0
vt 0.6320453 0.8281102 0
vt 0.3889485 0.9616744 0
vt 0.3890236 0.9552737 0
vt 0.3889233 0.963808 0
vt 0.3889986 0.9574075 0
vt 0.3889736 0.9595407 0
vt 0.3888984 0.9659414 0
vt 0.801171 0.8774202 0
vt 0.8013663 0.8967979 0
vt 0.3888233 0.9723426 0
vt 0.388798 0.9744759 0
vt 0.08775448 0.28167 0
vt 0.4870407 0.4710148 0
vt 0.3866659 0.9121094 0
vt 0.3890485 0.9531401 0
vt 0.3715075 0.004308632 0
vt 0.3712754 0.004974425 0
vt 0.371479 0.005649691 0
vt 0.3720867 0.00390625 0
vt 0.3727918 0.003921235 0
vt 0.3733534 0.004347776 0
vt 0.373557 0.005023041 0
vt 0.3733249 0.005688835 0
vt 0.3727456 0.006091217 0
vt 0.3720406 0.006076232 0
vt 0.6466827 0.9561654 0
vt 0.6502286 0.9322738 0
vt 0.6501701 0.9344596 0
vt 0.004508719 0.004020343 0
vt 0.6500534 0.9388306 0
vt 0.00390625 0.005218831 0
vt 0.6505792 0.9191602 0
vt 0.6505205 0.9213458 0
vt 0.6504621 0.9235313 0
vt 0.6504037 0.9257168 0
vt 0.6503453 0.9279026 0
vt 0.006158348 0.004849597 0
vt 0.5823339 0.2314781 0
vt 0.759509 0.02209234 0
vt 0.7917923 0.2008378 0
vt 0.7547825 0.01454745 0
vt 0.7768438 0.07405334 0
vt 0.7885882 0.1362191 0
vt 0.5666685 0.169276 0
vt 0.5588681 0.1068075 0
vt 0.7494343 0.009295847 0
vt 0.7434966 0.005648812 0
vt 0.7361923 0.00390625 0
vt 0.7977064 0.2654803 0
vt 0.7985801 0.2562501 0
vt 0.7945944 0.2728121 0
vt 0.7897995 0.2784326 0
vt 0.7829581 0.2821245 0
vt 0.7007767 0.2985312 0
vt 0.6605781 0.3034652 0
vt 0.6135462 0.3070578 0
vt 0.5949712 0.2951885 0
vt 0.5999471 0.3012353 0
vt 0.5915226 0.2867188 0
vt 0.5611869 0.04373036 0
vt 0.5591582 0.05227178 0
vt 0.564451 0.03709402 0
vt 0.568796 0.03174922 0
vt 0.575036 0.02780812 0
vt 0.6178505 0.0141763 0
vt 0.6549197 0.007060027 0
vt 0.6059923 0.3052976 0
vt 0.418654 0.00390625 0
vt 0.3121044 0.0676535 0
vt 0.411627 0.006081868 0
vt 0.4259225 0.004667194 0
vt 0.5059273 0.1068332 0
vt 0.4329092 0.008000127 0
vt 0.5374006 0.1596254 0
vt 0.3424567 0.04714426 0
vt 0.4716093 0.055834 0
vt 0.5619661 0.2066654 0
vt 0.5645844 0.2148353 0
vt 0.5645748 0.2225829 0
vt 0.5621974 0.2294542 0
vt 0.5573786 0.2349718 0
vt 0.4919718 0.2818157 0
vt 0.4609926 0.301382 0
vt 0.4229001 0.3231625 0
vt 0.4158615 0.3252885 0
vt 0.4085892 0.3244942 0
vt 0.4016049 0.3211272 0
vt 0.3953336 0.3152918 0
vt 0.3628937 0.2731514 0
vt 0.3285037 0.2220557 0
vt 0.2969435 0.1691754 0
vt 0.2722996 0.1220602 0
vt 0.269668 0.1138799 0
vt 0.2696626 0.1061227 0
vt 0.2720213 0.0992398 0
vt 0.4391897 0.01380772 0
vt 0.276811 0.09370342 0
vt 0.6984981 0.3179669 0
vt 0.7790086 0.597841 0
vt 0.7952439 0.3370184 0
vt 0.661969 0.3159442 0
vt 0.779324 0.3268989 0
vt 0.7880346 0.3301567 0
vt 0.800048 0.3463978 0
vt 0.7726711 0.6062911 0
vt 0.7644718 0.6118373 0
vt 0.755413 0.6137055 0
vt 0.6741183 0.6108598 0
vt 0.6376321 0.6076335 0
vt 0.5931731 0.602088 0
vt 0.5844613 0.5988061 0
vt 0.577254 0.5919139 0
vt 0.572496 0.5824758 0
vt 0.5706896 0.5718352 0
vt 0.5705927 0.5172399 0
vt 0.5742087 0.4558616 0
vt 0.5811265 0.3947934 0
vt 0.5900927 0.3409648 0
vt 0.5936721 0.3307418 0
vt 0.5999985 0.3222695 0
vt 0.6082021 0.3167239 0
vt 0.6172635 0.3148595 0
vt 0.9608547 0.2992535 0
vt 0.9464434 0.296157 0
vt 0.9689489 0.3045619 0
vt 0.9741572 0.3113205 0
vt 0.9761479 0.3226734 0
vt 0.9762441 0.5394609 0
vt 0.8220861 0.5334628 0
vt 0.8291095 0.2825599 0
vt 0.601064 0.5677841 0
vt 0.6891943 0.3557146 0
vt 0.6200042 0.3494652 0
vt 0.6702495 0.5740396 0
vt 0.7743232 0.3855715 0
vt 0.7041428 0.5714543 0
vt 0.7150157 0.3831873 0
vt 0.7643438 0.5756848 0
vt 0.4682191 0.791394 0
vt 0.7129855 0.8144852 0
vt 0.4623296 0.7826173 0
vt 0.2398956 0.4511364 0
vt 0.4567977 0.7743734 0
vt 0.4516657 0.7667254 0
vt 0.4063886 0.6992515 0
vt 0.3611087 0.6317735 0
vt 0.3860154 0.6688905 0
vt 0.3559767 0.6241255 0
vt 0.3504447 0.6158816 0
vt 0.3445553 0.6071049 0
vt 0.3385391 0.5981393 0
vt 0.6953583 0.7537558 0
vt 0.2095769 0.4059541 0
vt 0.2035607 0.3969886 0
vt 0.1976713 0.388212 0
vt 0.1921394 0.379968 0
vt 0.2319353 0.5089149 0
vt 0.1851047 0.5031077 0
vt 0.1417275 0.304842 0
vt 0.09645036 0.2373681 0
vt 0.09131831 0.2297201 0
vt 0.08578639 0.2214762 0
vt 0.07989704 0.2126996 0
vt 0.8021381 0.411565 0
vt 0.6285987 0.6967769 0
vt 0.7915486 0.5338554 0
vt 0.8019051 0.35703 0
vt 0.7985147 0.4728697 0
vt 0.4885763 0.80453 0
vt 0.6818244 0.8004222 0
vt 0.627022 0.7116285 0
vt 0.8962129 0.7827593 0
vt 0.6476616 0.7495114 0
vt 0.9433321 0.7832121 0
vt 0.9805252 0.9502247 0
vt 0.9380533 0.970845 0
vt 0.8769631 0.9859458 0
vt 0.5158094 0.8379889 0
vt 0.6930798 0.7928694 0
vt 0.1525078 0.01161149 0
vt 0.9593184 0.7116694 0
vt 0.5499719 0.8888993 0
vt 0.9188584 0.7352064 0
vt 0.7579504 0.8016109 0
vt 0.1456583 0.6657264 0
vt 0.8035914 0.7853777 0
vt 0.2789706 0.657391 0
vt 0.04356217 0.1585518 0
vt 0.898407 0.6116104 0
vt 0.5045539 0.8455418 0
vt 0.5387164 0.8964521 0
vt 0.07388086 0.203734 0
vt 0.01262161 0.6567813 0
vt 0.8605338 0.8454192 0
vt 0.8316059 0.9375956 0
vt 0.2005384 0.4474175 0
vt 0.8305818 0.8360212 0
vt 0.8613623 0.9275956 0
vt 0.8008277 0.8460211 0
vt 0.8795545 0.9020167 0
vt 0.7826355 0.8716 0
vt 0.879238 0.8706261 0
vt 0.782952 0.9029906 0
vt 0.8016562 0.9281975 0
vt 0.5620134 0.8694545 0
vt 0.6088353 0.7807974 0
vt 0.522197 0.2736243 0
vt 0.5908226 0.884667 0
vt 0.5765861 0.7854213 0
vt 0.6230682 0.8800425 0
vt 0.5532183 0.8081165 0
vt 0.6464366 0.8573443 0
vt 0.5476521 0.8402135 0
vt 0.6520028 0.8252473 0
vt 0.637641 0.7960092 0
#end 921 textures vertices 

#begin 405 normals 
vn -0 0.1395 -0.9902
vn -0 0.4491 -0.8935
vn -0 0.0272 0.9996
vn -0 0.1519 0.9884
vn 0.8891 -0.4536 0.0609
vn 0.8858 -0.4628 0.0346
vn 0.8831 -0.4688 0.0167
vn -0.7261 0.5255 -0.4434
vn -0.6858 0.1072 -0.7198
vn -0.6875 0.0196 -0.7259
vn -0.6875 0.0198 -0.7259
vn -0 0.0272 -0.9996
vn -0 0.1519 -0.9884
vn -1 -0 -0
vn -0 0.9925 -0.1224
vn -0 0.9995 -0.0331
vn -0 0.7558 -0.6548
vn -0.6875 0.0196 0.7259
vn -0.6858 0.1072 0.7198
vn -0.7261 0.5255 0.4434
vn -0.6875 0.0198 0.7259
vn -0.5861 0.8033 0.1063
vn -0.581 0.8134 0.0269
vn -0.581 0.8134 0.0272
vn -0.581 -0.8134 0.0269
vn -0.581 -0.8134 0.0272
vn -0.5812 -0.8137 -0
vn -0.581 -0.8134 -0.0272
vn -0.581 -0.8134 -0.0269
vn -0 -0.1444 0.9895
vn -0 -0.4491 0.8935
vn -0 0.9994 0.0332
vn -0 1 -0
vn -0 0.9994 -0.0332
vn 0.8788 -0.4772 -0
vn -0 -0.5721 -0.8202
vn -0 0.9332 -0.3594
vn -0 -0.7558 0.6549
vn -0.581 0.8134 -0.0269
vn -0.581 0.8134 -0.0272
vn -0.5812 0.8137 -0
vn -0 -0.9332 0.3594
vn -0.5861 0.8033 -0.1063
vn -0.7275 -0.5222 -0.445
vn -0.5861 -0.8033 -0.1063
vn -0 0.9918 -0.1277
vn -0.5861 -0.8033 0.1063
vn -0.7275 -0.5222 0.445
vn -0 0.9918 0.1277
vn -0 -0.9925 0.1224
vn -0 0.0059 1
vn -0 -0.0268 0.9996
vn -0 0.4491 0.8935
vn -0 0.1395 0.9902
vn -0 0.7558 0.6548
vn -0.6876 -0.0044 -0.7261
vn -0.6876 -0.0045 -0.7261
vn -0.6876 -0.0045 0.7261
vn -0.6876 -0.0044 0.7261
vn -0 -0.9995 0.0331
vn -0 -0.0268 -0.9996
vn -0 0.0059 -1
vn -0 -0.0062 -1
vn -0 -0.0062 1
vn -0.6117 -0.7325 0.2988
vn -0.646 -0.5686 0.5092
vn -0.6759 -0.3275 0.6603
vn -0.686 -0.1035 0.7202
vn -0.6759 0.3275 0.6603
vn -0.646 0.5686 0.5092
vn -0.6117 0.7325 0.2988
vn -0.686 -0.1035 -0.7202
vn -0.6759 -0.3275 -0.6603
vn -0.646 -0.5686 -0.5092
vn -0.6117 -0.7325 -0.2988
vn -0.6117 0.7325 -0.2988
vn -0.646 0.5686 -0.5092
vn -0.6759 0.3275 -0.6603
vn -0 -0.9918 0.1277
vn -0 -0.9314 0.3639
vn -0 -0.7557 0.6549
vn -0 -0.4551 0.8904
vn -0 -0.1469 0.9892
vn -0 0.9314 0.3639
vn -0 0.7557 0.6549
vn -0 0.4551 0.8904
vn -0 -0.9918 -0.1277
vn -0 -0.9314 -0.3639
vn -0 -0.7557 -0.6549
vn -0 -0.4551 -0.8904
vn -0 -0.1468 -0.9892
vn -0 0.9314 -0.3639
vn -0 0.7557 -0.6549
vn -0 0.4551 -0.8904
vn -0.8858 -0.4628 0.0346
vn -0.8891 -0.4536 0.0609
vn -0.8831 -0.4688 0.0166
vn -0 -1 -0
vn -0 -0.9995 0.0328
vn -0 -0.9994 0.0332
vn -0 -0.9995 -0.0328
vn -0 -0.9994 -0.0332
vn -0 -0.9989 0.047
vn -0 -0.9989 -0.047
vn -0.8891 -0.4536 -0.0609
vn -0.8858 -0.4628 -0.0346
vn -0.8831 -0.4688 -0.0166
vn 0.8858 -0.4628 -0.0346
vn 0.8831 -0.4688 -0.0167
vn -0.8788 -0.4772 -0
vn 0.8891 -0.4536 -0.0609
vn -0 -0.5721 0.8202
vn 1 -0 -0
vn -0 0.9927 0.1206
vn -0 0.9337 0.358
vn -0 0.9995 0.033
vn -0 -0.4472 -0.8944
vn -0 -0.1418 -0.9899
vn -0 -0.9995 0.033
vn -0 -0.7558 -0.6548
vn -0 -0.9995 -0.033
vn -0 -0.9927 -0.1206
vn -0 -0.9337 -0.358
vn -0 -0.0267 -0.9996
vn -0 0.1369 -0.9906
vn -0 0.4472 -0.8944
vn -0 0.9927 -0.1206
vn -0 0.9995 -0.033
vn -0 -0.9925 -0.1224
vn -0 -0.9332 -0.3594
vn -0 -0.1444 -0.9895
vn -0 -0.9995 -0.0331
vn -0 -0.4491 -0.8935
vn -0 0.9995 0.0331
vn -0 0.9925 0.1224
vn -0 0.9332 0.3594
vn -0 0.7559 -0.6546
vn -0 0.9355 -0.3532
vn -0 -0.4404 0.8978
vn -0 -0.7559 0.6546
vn -0 0.9935 -0.1136
vn -0 -0.9355 0.3532
vn -0.0361 -0.9927 0.1154
vn -0 0.0057 1
vn -0 -0.0264 0.9997
vn -0 0.4404 0.8978
vn -0 0.1272 0.9919
vn -0 0.7559 0.6546
vn -0.0313 -0.9993 0.0217
vn -0.0672 -0.9967 0.0465
vn -0 -0.0264 -0.9997
vn -0 0.0057 -1
vn -0 0.9355 0.3532
vn -0 -0.132 0.9912
vn -0 0.9995 -0.0329
vn -0.0132 0.9999 -0.0005
vn -0.0361 0.9927 0.1153
vn -0 -0.0267 0.9996
vn -0 -0.1418 0.9899
vn -0 0.0058 -1
vn -0 -0.9927 0.1206
vn -0 0.4472 0.8944
vn -0 0.1369 0.9906
vn -0 0.0058 1
vn -0 -0.9337 0.358
vn -0 -0.7558 0.6548
vn -0 0.9337 -0.358
vn -0 -0.4472 0.8944
vn -0 1 -0.0007
vn -0 -0 -1
vn -0 0.9368 0.3499
vn -0 0.7592 0.6509
vn -0 0.4404 -0.8978
vn -0 0.1272 -0.9919
vn -0 -0.9935 -0.1136
vn -0 -0.9355 -0.3532
vn -0 -0.132 -0.9912
vn -0 -0.7559 -0.6546
vn -0.0132 -0.9999 -0.0005
vn -0 -0.9995 -0.0329
vn -0 -0.4404 -0.8978
vn -0.0313 0.9993 0.0217
vn -0.0672 0.9967 0.0465
vn 0.742 0.0013 0.6703
vn 0.7584 0.0041 0.6518
vn 0.7428 0.0012 0.6695
vn 0.7292 0.0025 0.6843
vn 0.5339 -0.8451 -0.0281
vn 0.5418 -0.8405 0.0024
vn 0.541 -0.841 0.0002
vn 0.5339 -0.8451 -0.0275
vn 0.5483 -0.8361 0.0189
vn 0.6085 0.7928 0.0347
vn 0.5748 0.8182 0.011
vn 0.5699 0.8217 0.0076
vn 0.5339 0.8451 -0.0281
vn 0.5339 0.8451 -0.0275
vn 0.5583 0.0046 -0.8296
vn 0.5578 -0.0221 -0.8297
vn 0.5579 -0.0213 -0.8296
vn 0.5583 0.0045 -0.8296
vn 0.5282 0.8441 -0.0924
vn 0.5205 0.7991 -0.301
vn 0.521 0.802 -0.2922
vn 0.5288 0.8442 -0.0874
vn 0.5099 0.6677 -0.5424
vn 0.5099 0.6563 -0.5561
vn 0.5315 0.393 -0.7504
vn 0.534 0.3615 -0.7643
vn 0.5476 0.0969 -0.8311
vn 0.549 0.0878 -0.8312
vn 0.5205 -0.7991 -0.301
vn 0.5282 -0.8441 -0.0924
vn 0.5288 -0.8442 -0.0874
vn 0.521 -0.802 -0.2922
vn 0.5099 -0.6677 -0.5424
vn 0.5099 -0.6564 -0.5561
vn 0.5315 -0.393 -0.7504
vn 0.534 -0.3615 -0.7643
vn 0.5471 -0.1007 -0.831
vn 0.5485 -0.092 -0.8311
vn -0 0.4383 0.8989
vn -0 0.1253 0.9921
vn -0 0.9922 0.1246
vn -0 -1 -0.0003
vn -0 0.9971 0.0767
vn -0 -0.9364 0.351
vn -0 1 -0.0002
vn -0 -0.1346 0.9909
vn -0 -0.4389 0.8986
vn -0 -1 0.0002
vn -0 -0.9976 0.0696
vn -0 -0.758 0.6523
vn -0 -0.0166 0.9999
vn -0 -0.0523 0.9986
vn -0 0.0171 -0.9999
vn 0.7615 0.0083 0.6482
vn -0 0.039 0.9992
vn -0 -0.0106 -0.9999
vn -0.0003 0.9992 -0.0405
vn 0.7968 0.6036 -0.0264
vn 0.7963 0.5483 -0.2555
vn -0.0017 0.9076 -0.4198
vn 0.7959 0.4095 -0.446
vn -0.0029 0.6779 -0.7352
vn 0.7956 0.2084 -0.5688
vn -0.0037 0.3449 -0.9386
vn 0.7955 -0.0244 -0.6054
vn -0.0038 -0.0406 -0.9992
vn 0.7957 -0.2535 -0.5501
vn -0.0034 -0.4198 -0.9076
vn 0.796 -0.444 -0.4114
vn -0.0025 -0.7352 -0.6778
vn 0.7965 -0.5669 -0.2103
vn -0.0012 -0.9386 -0.3449
vn 0.797 -0.6035 0.0226
vn 0.0003 -0.9992 0.0406
vn 0.7975 -0.5482 0.2517
vn 0.0017 -0.9076 0.4199
vn 0.798 -0.4095 0.4423
vn 0.0029 -0.6778 0.7352
vn 0.7982 -0.2083 0.5652
vn 0.0037 -0.3449 0.9386
vn 0.7983 0.0246 0.6018
vn 0.0038 0.0406 0.9992
vn 0.7982 0.2537 0.5464
vn 0.0034 0.4198 0.9076
vn 0.7978 0.4442 0.4076
vn 0.0025 0.7352 0.6779
vn 1 0.0001 -0.0024
vn 0.7974 0.5671 0.2064
vn 0.0012 0.9386 0.3449
vn 0.942 0.3351 -0.0158
vn 0.92 0.3433 -0.1891
vn 0.9423 0.3149 0.1135
vn 0.9425 0.2467 0.2252
vn 0.9427 0.141 0.3023
vn 0.9428 0.0137 0.3331
vn 0.9428 -0.1157 0.3128
vn 0.921 -0.2833 0.2674
vn 0.9208 -0.3433 0.1848
vn 0.9421 -0.335 0.0114
vn 0.9419 -0.3146 -0.1179
vn 0.9416 -0.2464 -0.2294
vn 0.9415 -0.1406 -0.3064
vn 0.9414 -0.0135 -0.3371
vn 0.9414 0.1157 -0.3168
vn 0.9198 0.2832 -0.2715
vn 0.2695 -0.5667 -0.7786
vn 0.816 0.4663 -0.3416
vn 0.2726 0.5669 0.7774
vn 0.8176 -0.4663 0.3378
vn -0.0003 0.1532 0.9882
vn 0.797 0.0944 0.5966
vn 0.7975 0.3106 0.5172
vn -0.0017 0.5123 0.8588
vn 0.7996 0.4811 0.3595
vn -0.0029 0.7998 0.6003
vn 0.8018 0.5795 0.1459
vn -0.0037 0.9695 0.2451
vn 0.8028 0.5892 -0.0912
vn -0.0039 0.9882 -0.1532
vn 0.8019 0.5081 -0.3142
vn -0.0035 0.8497 -0.5272
vn 0.7997 0.3497 -0.488
vn -0.0025 0.5804 -0.8143
vn 0.7977 0.1394 -0.5867
vn -0.0012 0.2282 -0.9736
vn 0.7972 -0.0906 -0.5969
vn 0.0003 -0.1533 -0.9882
vn 0.7987 -0.3068 -0.5176
vn 0.0017 -0.5124 -0.8588
vn 0.8016 -0.4773 -0.3599
vn 0.0029 -0.7998 -0.6003
vn 0.8044 -0.5758 -0.1462
vn 0.0037 -0.9695 -0.2451
vn 0.8055 -0.5855 0.0909
vn 0.0039 -0.9882 0.1532
vn 0.8043 -0.5044 0.314
vn 0.0035 -0.8497 0.5272
vn 0.8015 -0.3459 0.4878
vn 0.0025 -0.5805 0.8143
vn 1 0.0024 -0.0002
vn 0.7985 -0.1356 0.5865
vn 0.0012 -0.2282 0.9736
vn 0.9421 0.0536 0.331
vn 0.9207 0.2226 0.3204
vn 0.9427 -0.074 0.3252
vn 0.9439 -0.1903 0.27
vn 0.9449 -0.2775 0.1734
vn 0.9454 -0.322 0.0501
vn 0.945 -0.3169 -0.0809
vn 0.9225 -0.2918 -0.2525
vn 0.9216 -0.2183 -0.321
vn 0.9422 -0.0491 -0.3314
vn 0.9423 0.0785 -0.3254
vn 0.943 0.1946 -0.2701
vn 0.9437 0.2816 -0.1735
vn 0.944 0.326 -0.0504
vn 0.9437 0.321 0.0804
vn 0.9214 0.2959 0.2519
vn 0.274 0.7012 -0.6583
vn 0.8182 0.3852 0.4268
vn 0.277 -0.7 0.6583
vn 0.8198 -0.3814 -0.4272
vn -0.8496 0.5274 -0
vn -0.7849 0.5274 -0.3251
vn -0.6008 0.5274 -0.6008
vn -0.3251 0.5274 -0.7849
vn -0 0.5274 -0.8496
vn 0.3251 0.5274 -0.7849
vn 0.6008 0.5274 -0.6008
vn 0.7849 0.5274 -0.3251
vn 0.8496 0.5274 -0
vn 0.7849 0.5274 0.3251
vn 0.6008 0.5274 0.6008
vn 0.3251 0.5274 0.7849
vn -0 0.5274 0.8496
vn -0.3251 0.5274 0.7849
vn -0.6008 0.5274 0.6008
vn -0.7849 0.5274 0.3251
vn -0 1 -0
vn -0.9511 -0.0607 -0.303
vn -0.5878 -0.1588 -0.7933
vn -0 -0.1963 -0.9805
vn 0.5878 -0.1588 -0.7933
vn 0.9511 -0.0607 -0.303
vn 0.9511 0.0607 0.303
vn 0.5878 0.1588 0.7933
vn -0 0.1963 0.9805
vn -0.5878 0.1588 0.7933
vn -0.9511 0.0607 0.303
vn -0 0.9805 -0.1963
vn -0 -0.9805 0.1963
vn -0.9511 0.0697 -0.3011
vn -0.5878 0.1824 -0.7882
vn -0 0.2255 -0.9743
vn 0.5878 0.1824 -0.7882
vn 0.9511 0.0697 -0.3011
vn 0.9511 -0.0697 0.3011
vn 0.5878 -0.1824 0.7882
vn -0 -0.2255 0.9743
vn -0.5878 -0.1824 0.7882
vn -0.9511 -0.0697 0.3011
vn -0 0.9742 0.2255
vn -0 0.9743 0.2255
vn -0 -0.9743 -0.2255
vn -0 -0.9742 -0.2255
vn -0 0.9743 0.2254
vn 0.9919 -0.0874 0.0922
vn 0.9919 -0.0874 -0.0922
vn 0.9919 0.0874 0.0922
vn 0.9919 0.0874 -0.0922
vn 0.9937 -0.1022 0.0462
vn 0.9937 -0.1022 -0.0462
vn 0.9937 0.1022 -0.0462
vn 0.9937 0.1022 0.0462
vn 0.9934 0.0438 0.1061
vn 0.9934 -0.0438 0.1061
vn 0.9934 -0.0438 -0.1061
vn 0.9934 0.0438 -0.1061
vn 0.9973 -0.0512 0.0532
vn 0.9973 0.0512 0.0532
vn 0.9973 -0.0512 -0.0532
vn 0.9973 0.0512 -0.0532
#end 405 normals 

#begin 588 faces
o Cube:008
s 1
f 41/41/1 43/43/2 174/174/2 175/175/1 
f 33/33/3 120/120/4 56/56/4 31/31/3 
f 61/61/5 84/84/6 92/92/7 99/99/5 
f 4/4/8 77/77/9 29/29/10 23/23/11 
f 29/853/12 77/852/13 130/130/13 110/110/12 
f 35/35/14 21/21/14 4/4/14 23/23/14 
f 88/88/15 86/86/16 166/166/16 171/171/15 
f 43/43/2 44/44/17 173/173/17 174/174/2 
f 31/864/18 56/863/19 1/1/20 25/25/21 
f 1/1/20 57/57/22 9/9/23 20/20/24 
f 82/82/25 17/17/26 19/19/27 81/899/27 
f 81/887/27 19/889/27 18/18/28 83/83/29 
f 22/22/14 37/37/14 39/39/14 20/20/14 
f 66/66/30 68/68/31 189/189/31 190/190/30 
f 9/848/32 101/101/32 102/102/33 10/10/33 
f 10/10/33 102/102/33 103/103/34 8/8/34 
f 84/84/6 13/13/35 93/93/35 92/92/7 
f 72/72/36 61/61/36 99/99/36 100/100/36 
f 44/44/17 45/45/37 172/172/37 173/173/17 
f 68/68/31 69/69/38 188/188/38 189/189/31 
f 8/858/39 21/21/40 22/890/41 10/846/41 
f 10/893/41 22/22/41 20/20/24 9/9/23 
f 45/45/37 88/88/15 171/171/15 172/172/37 
f 69/69/38 70/70/42 187/187/42 188/188/38 
f 21/21/14 35/35/14 37/892/14 22/890/14 
f 8/858/39 76/76/43 4/4/8 21/21/40 
f 3/3/44 90/895/45 83/83/29 18/18/28 
f 25/25/14 1/1/14 20/20/14 39/39/14 
f 76/857/46 8/8/34 103/103/34 126/126/46 
f 82/82/25 87/87/47 2/2/48 17/17/26 
f 9/848/32 57/859/49 117/117/49 101/101/32 
f 35/35/14 23/23/14 24/24/14 36/36/14 
f 70/70/42 67/67/50 186/186/50 187/187/42 
f 28/28/51 27/27/52 170/170/52 169/169/51 
f 65/65/53 62/62/54 185/185/54 184/184/53 
f 64/64/55 65/65/53 184/184/53 183/183/55 
f 62/62/54 28/28/51 169/169/51 185/185/54 
f 36/36/14 38/38/14 37/892/14 35/35/14 
f 19/889/14 38/38/14 36/36/14 18/18/14 
f 38/891/14 40/40/14 39/39/14 37/37/14 
f 17/17/14 40/40/14 38/891/14 19/19/14 
f 30/30/56 24/24/57 23/23/11 29/29/10 
f 31/864/18 25/25/21 26/26/58 32/32/59 
f 67/67/50 15/15/60 163/163/60 186/186/50 
f 107/107/61 34/34/62 168/168/62 167/167/61 
f 25/25/14 39/39/14 40/40/14 26/26/14 
f 29/853/12 110/110/12 109/109/63 30/851/63 
f 33/33/3 31/31/3 32/865/64 108/108/64 
f 87/87/47 53/53/65 2/2/48 
f 53/53/65 54/54/66 2/2/48 
f 54/54/66 55/55/67 2/2/48 
f 55/55/67 52/52/68 2/2/48 
f 56/863/19 58/58/69 1/1/20 
f 58/58/69 59/59/70 1/1/20 
f 59/59/70 60/60/71 1/1/20 
f 60/60/71 57/57/22 1/1/20 
f 71/71/72 73/73/73 3/3/44 
f 73/73/73 74/74/74 3/3/44 
f 74/74/74 75/75/75 3/3/44 
f 75/75/75 90/895/45 3/3/44 
f 76/76/43 78/78/76 4/4/8 
f 78/78/76 79/79/77 4/4/8 
f 79/79/77 80/80/78 4/4/8 
f 80/80/78 77/77/9 4/4/8 
f 87/898/79 111/111/79 112/112/80 53/869/80 
f 53/869/80 112/112/80 113/113/81 54/868/81 
f 54/868/81 113/113/81 114/114/82 55/867/82 
f 55/867/82 114/114/82 115/115/83 52/866/83 
f 117/117/49 57/859/49 60/860/84 116/116/84 
f 116/116/84 60/860/84 59/861/85 118/118/85 
f 118/118/85 59/861/85 58/862/86 119/119/86 
f 119/119/86 58/862/86 56/56/4 120/120/4 
f 122/871/87 90/90/87 75/845/88 121/121/88 
f 121/121/88 75/845/88 74/847/89 123/123/89 
f 123/123/89 74/847/89 73/849/90 124/124/90 
f 124/124/90 73/849/90 71/850/91 125/125/91 
f 76/857/46 126/126/46 127/127/92 78/856/92 
f 78/856/92 127/127/92 128/128/93 79/855/93 
f 79/855/93 128/128/93 129/129/94 80/854/94 
f 80/854/94 129/129/94 130/130/13 77/852/13 
f 5/5/95 72/72/96 100/100/96 91/91/97 
f 7/7/98 6/6/99 82/894/100 81/81/98 
f 5/884/101 7/888/98 81/897/98 83/896/102 
f 13/876/98 84/879/101 104/104/102 105/885/98 
f 12/12/99 13/886/98 105/105/98 106/106/100 
f 51/51/103 42/42/103 111/111/79 87/898/79 
f 61/877/104 72/875/104 90/90/87 122/871/87 
f 6/6/99 51/51/103 87/898/79 82/894/100 
f 42/42/103 12/12/99 106/106/100 111/111/79 
f 72/875/104 5/884/101 83/896/102 90/90/87 
f 84/879/101 61/877/104 122/871/87 104/104/102 
f 51/881/105 6/882/106 96/96/107 97/97/105 
f 13/13/35 12/878/108 95/95/109 93/93/35 
f 6/882/106 7/883/110 94/94/110 96/96/107 
f 12/878/108 42/880/111 98/98/111 95/95/109 
f 42/880/112 51/881/112 97/97/112 98/98/112 
f 7/883/110 5/5/95 91/91/97 94/94/110 
f 14/14/113 16/16/113 102/822/113 101/823/113 
f 16/16/113 15/15/113 103/821/113 102/822/113 
f 11/11/113 85/85/113 105/874/113 104/872/113 
f 85/85/113 86/86/113 106/870/113 105/874/113 
f 34/34/113 107/107/113 33/807/113 108/804/113 
f 24/24/57 30/30/56 71/71/72 3/3/44 
f 27/27/113 28/28/113 109/814/113 110/815/113 
f 88/88/113 45/45/113 112/810/113 111/873/113 
f 45/45/113 44/44/113 113/806/113 112/810/113 
f 44/44/113 43/43/113 114/809/113 113/806/113 
f 43/43/113 41/41/113 115/808/113 114/809/113 
f 48/48/113 46/46/113 117/824/113 116/825/113 
f 49/49/113 48/48/113 116/825/113 118/826/113 
f 50/50/113 49/49/113 118/826/113 119/827/113 
f 47/47/113 50/50/113 119/827/113 120/828/113 
f 63/63/113 89/89/113 122/122/113 121/805/113 
f 64/64/113 63/63/113 121/805/113 123/811/113 
f 65/65/113 64/64/113 123/811/113 124/812/113 
f 62/62/113 65/65/113 124/812/113 125/813/113 
f 67/67/113 70/70/113 127/819/113 126/820/113 
f 70/70/113 69/69/113 128/818/113 127/819/113 
f 69/69/113 68/68/113 129/817/113 128/818/113 
f 68/68/113 66/66/113 130/816/113 129/817/113 
f 86/86/113 88/88/113 111/873/113 106/870/113 
f 107/107/113 47/47/113 120/828/113 33/807/113 
f 46/46/113 14/14/113 101/823/113 117/824/113 
f 89/89/113 11/11/113 104/872/113 122/122/113 
f 66/66/113 27/27/113 110/815/113 130/816/113 
f 15/15/113 67/67/113 126/820/113 103/821/113 
f 152/152/114 151/151/115 241/241/115 242/242/114 
f 165/165/33 164/164/116 224/224/116 225/225/33 
f 149/149/117 150/150/118 240/240/118 239/239/117 
f 164/164/116 152/152/114 242/242/114 224/224/116 
f 135/135/119 162/162/98 222/222/98 223/223/119 
f 148/148/120 149/149/117 239/239/117 238/238/120 
f 161/161/121 147/147/122 237/237/122 221/221/121 
f 162/162/98 161/161/121 221/221/121 222/222/98 
f 146/146/123 148/148/120 238/238/120 236/236/123 
f 150/150/118 131/131/124 227/227/124 240/240/118 
f 147/147/122 146/146/123 236/236/123 237/237/122 
f 145/145/125 144/144/126 234/234/126 235/235/125 
f 141/141/127 138/138/128 226/226/128 231/231/127 
f 144/144/126 143/143/17 233/233/17 234/234/126 
f 46/46/129 48/48/130 176/176/130 177/177/129 
f 47/47/131 107/107/61 167/167/61 180/180/131 
f 48/48/130 49/49/120 178/178/120 176/176/130 
f 16/16/98 14/14/132 137/137/132 139/139/98 
f 14/14/132 46/46/129 177/177/129 137/137/132 
f 49/49/120 50/50/133 179/179/133 178/178/120 
f 15/15/60 16/16/98 139/139/98 163/163/60 
f 11/11/134 89/89/135 182/182/135 136/136/134 
f 50/50/133 47/47/131 180/180/131 179/179/133 
f 85/85/33 11/11/134 136/136/134 140/140/33 
f 89/89/135 63/63/136 181/181/136 182/182/135 
f 86/86/16 85/85/33 140/140/33 166/166/16 
f 27/27/52 66/66/30 190/190/30 170/170/52 
f 63/63/136 64/64/55 183/183/55 181/181/136 
f 161/161/113 162/162/113 139/796/113 137/797/113 
f 162/162/113 135/135/113 163/795/113 139/796/113 
f 164/164/113 165/165/113 140/778/113 136/780/113 
f 165/165/113 138/138/113 166/782/113 140/778/113 
f 132/132/113 131/131/113 167/775/113 168/781/113 
f 34/34/113 108/804/113 115/808/113 41/41/113 
f 133/133/113 134/134/113 169/788/113 170/789/113 
f 141/141/113 142/142/113 172/779/113 171/802/113 
f 142/142/113 143/143/113 173/777/113 172/779/113 
f 143/143/113 144/144/113 174/774/113 173/777/113 
f 144/144/113 145/145/113 175/776/113 174/774/113 
f 146/146/113 147/147/113 177/798/113 176/799/113 
f 148/148/113 146/146/113 176/799/113 178/800/113 
f 149/149/113 148/148/113 178/800/113 179/801/113 
f 150/150/113 149/149/113 179/801/113 180/803/113 
f 151/151/113 152/152/113 182/783/113 181/784/113 
f 153/153/113 151/151/113 181/784/113 183/785/113 
f 154/154/113 153/153/113 183/785/113 184/786/113 
f 155/155/113 154/154/113 184/786/113 185/787/113 
f 156/156/113 157/157/113 187/793/113 186/794/113 
f 157/157/113 158/158/113 188/792/113 187/793/113 
f 158/158/113 159/159/113 189/791/113 188/792/113 
f 159/159/113 160/160/113 190/790/113 189/791/113 
f 138/138/113 141/141/113 171/802/113 166/782/113 
f 131/131/113 150/150/113 180/803/113 167/775/113 
f 147/147/113 161/161/113 137/797/113 177/798/113 
f 152/152/113 164/164/113 136/780/113 182/783/113 
f 160/160/113 133/133/113 170/789/113 190/790/113 
f 135/135/113 156/156/113 186/794/113 163/795/113 
f 203/203/137 202/202/138 294/294/138 295/295/137 
f 219/219/139 218/218/140 280/280/140 281/281/139 
f 202/202/138 201/201/141 293/293/141 294/294/138 
f 218/218/140 217/217/142 279/279/142 280/280/140 
f 132/132/113 168/781/113 175/776/113 145/145/113 
f 217/217/142 216/216/143 278/278/143 279/279/142 
f 229/229/144 193/193/145 255/255/145 304/304/144 
f 214/214/146 215/215/147 310/310/147 309/309/146 
f 213/213/148 214/214/146 309/309/146 308/308/148 
f 216/216/143 195/195/149 285/285/150 278/278/143 
f 191/191/151 228/228/152 292/292/152 291/291/151 
f 211/211/153 213/213/148 308/308/148 306/306/153 
f 193/193/145 220/220/154 282/282/154 255/255/145 
f 198/198/155 200/200/156 289/289/156 290/290/155 
f 212/212/157 211/211/153 306/306/153 307/307/157 
f 138/138/128 165/165/33 225/225/33 226/226/128 
f 133/133/158 160/160/159 250/250/159 230/230/158 
f 151/151/115 153/153/55 243/243/55 241/241/115 
f 131/131/124 132/132/160 192/192/160 227/227/124 
f 156/156/161 135/135/119 223/223/119 246/246/161 
f 153/153/55 154/154/162 244/244/162 243/243/55 
f 154/154/162 155/155/163 245/245/163 244/244/162 
f 134/134/164 133/133/158 230/230/158 194/194/164 
f 157/157/165 156/156/161 246/246/161 247/247/165 
f 215/215/147 229/229/144 304/304/144 310/310/147 
f 158/158/166 157/157/165 247/247/165 248/248/166 
f 142/142/167 141/141/127 231/231/127 232/232/167 
f 159/159/168 158/158/166 248/248/166 249/249/168 
f 143/143/17 142/142/167 232/232/167 233/233/17 
f 160/160/159 159/159/168 249/249/168 250/250/159 
f 197/197/113 199/199/113 222/750/113 221/751/113 
f 199/199/113 195/195/113 223/744/113 222/750/113 
f 196/196/113 200/200/113 225/749/113 224/746/113 
f 200/200/113 198/198/113 226/748/113 225/749/113 
f 228/228/113 191/191/113 227/771/113 192/772/113 
f 155/155/163 134/134/164 194/194/164 245/245/163 
f 193/193/113 229/229/113 194/760/113 230/761/113 
f 201/201/113 202/202/113 232/747/113 231/745/113 
f 202/202/113 203/203/113 233/752/113 232/747/113 
f 203/203/113 204/204/113 234/753/113 233/752/113 
f 204/204/113 205/205/113 235/754/113 234/753/113 
f 206/206/113 207/207/113 237/767/113 236/766/113 
f 208/208/113 206/206/113 236/766/113 238/768/113 
f 209/209/113 208/208/113 238/768/113 239/769/113 
f 210/210/113 209/209/113 239/769/113 240/770/113 
f 211/211/113 212/212/113 242/756/113 241/755/113 
f 213/213/113 211/211/113 241/755/113 243/757/113 
f 214/214/113 213/213/113 243/757/113 244/758/113 
f 215/215/113 214/214/113 244/758/113 245/759/113 
f 216/216/113 217/217/113 247/763/113 246/765/113 
f 217/217/113 218/218/113 248/764/113 247/763/113 
f 218/218/113 219/219/113 249/773/113 248/764/113 
f 219/219/113 220/220/113 250/762/113 249/773/113 
f 198/198/113 201/201/113 231/745/113 226/748/113 
f 191/191/113 210/210/113 240/770/113 227/771/113 
f 207/207/113 197/197/113 221/751/113 237/767/113 
f 212/212/113 196/196/113 224/746/113 242/756/113 
f 220/220/113 193/193/113 230/761/113 250/762/113 
f 195/195/113 216/216/113 246/765/113 223/744/113 
f 326/326/169 319/319/169 332/332/169 333/333/169 
f 328/328/170 329/329/170 342/342/170 340/340/170 
f 273/273/171 275/275/172 316/316/172 314/314/171 
f 220/220/154 219/219/139 281/281/139 282/282/154 
f 204/204/173 203/203/137 295/295/137 296/296/173 
f 201/201/141 198/198/155 290/290/155 293/293/141 
f 205/205/174 204/204/173 296/296/173 297/297/174 
f 207/207/175 206/206/176 298/298/176 299/299/175 
f 210/210/177 191/191/151 291/291/151 302/302/177 
f 206/206/176 208/208/178 300/300/178 298/298/176 
f 199/199/179 197/197/180 259/259/180 261/261/179 
f 197/197/180 207/207/175 299/299/175 259/259/180 
f 208/208/178 209/209/181 301/301/181 300/300/178 
f 195/195/149 199/199/179 261/261/179 285/285/150 
f 196/196/182 212/212/157 307/307/157 305/305/183 
f 209/209/181 210/210/177 302/302/177 301/301/181 
f 200/200/156 196/196/182 305/305/183 289/289/156 
f 254/254/184 253/253/185 303/303/185 284/284/186 
f 257/257/187 254/254/184 284/284/186 285/285/187 
f 287/287/188 288/288/189 261/261/190 259/259/191 
f 288/288/189 257/257/192 285/285/192 261/261/190 
f 258/258/193 262/262/194 289/289/195 305/305/193 
f 262/262/194 260/260/196 290/290/197 289/289/195 
f 252/252/198 251/251/199 291/291/200 292/292/201 
f 228/228/113 192/772/113 235/754/113 205/205/113 
f 263/263/202 264/264/203 294/294/204 293/293/205 
f 264/264/203 265/265/206 295/295/207 294/294/204 
f 265/265/206 266/266/208 296/296/209 295/295/207 
f 266/266/208 267/267/210 297/297/211 296/296/209 
f 268/268/212 269/269/213 299/299/214 298/298/215 
f 270/270/216 268/268/212 298/298/215 300/300/217 
f 271/271/218 270/270/216 300/300/217 301/301/219 
f 272/272/220 271/271/218 301/301/219 302/302/221 
f 260/260/196 263/263/202 293/293/205 290/290/197 
f 251/251/199 272/272/220 302/302/221 291/291/200 
f 269/269/213 287/287/188 259/259/191 299/299/214 
f 252/252/198 292/292/201 297/297/211 267/267/210 
f 283/283/113 256/256/113 304/304/113 303/303/113 
f 273/273/113 274/274/113 307/307/113 306/306/113 
f 275/275/113 273/273/113 306/306/113 308/308/113 
f 276/276/113 275/275/113 308/308/113 309/309/113 
f 277/277/113 276/276/113 309/309/113 310/310/113 
f 274/274/113 286/286/113 305/305/113 307/307/113 
f 275/275/172 276/276/222 317/317/222 316/316/172 
f 286/286/113 283/283/113 303/303/113 305/305/113 
f 276/276/222 277/277/223 318/318/223 317/317/222 
f 274/274/224 273/273/171 314/314/171 315/315/224 
f 256/256/225 283/283/225 311/311/225 312/312/225 
f 286/286/226 274/274/224 315/315/224 313/313/226 
f 255/255/113 282/282/113 320/320/113 319/319/113 
f 282/282/113 281/281/113 321/321/113 320/320/113 
f 281/281/113 280/280/113 322/322/113 321/321/113 
f 280/280/113 279/279/113 323/323/113 322/322/113 
f 279/279/113 278/278/113 324/324/113 323/323/113 
f 278/278/113 285/285/113 325/325/113 324/324/113 
f 285/285/113 284/284/113 326/326/113 325/325/113 
f 284/284/113 255/255/113 319/319/113 326/326/113 
f 255/255/113 284/284/113 328/328/113 327/327/113 
f 284/284/113 303/303/113 329/329/113 328/328/113 
f 303/303/113 304/304/113 330/330/113 329/329/113 
f 304/304/113 255/255/113 327/327/113 330/330/113 
f 344/344/113 337/337/113 338/338/113 
f 339/339/113 340/340/113 342/342/113 341/341/113 
f 323/323/227 324/324/50 337/337/50 336/336/227 
f 329/329/228 330/330/228 341/341/228 342/342/228 
f 320/320/229 321/321/230 334/334/230 331/331/229 
f 327/327/231 328/328/231 340/340/231 339/339/231 
f 324/324/50 325/325/232 338/338/232 337/337/50 
f 321/321/230 322/322/233 335/335/233 334/334/230 
f 330/330/234 327/327/234 339/339/234 341/341/234 
f 319/319/235 320/320/229 331/331/229 332/332/235 
f 325/325/236 326/326/236 333/333/236 338/338/236 
f 322/322/233 323/323/227 336/336/227 335/335/233 
f 311/835/113 318/833/113 312/834/113 
f 277/277/113 310/310/113 304/304/113 256/256/113 
f 258/258/237 305/305/237 303/303/185 253/253/185 
f 215/215/113 245/759/113 194/760/113 229/229/113 
f 132/132/160 145/145/125 235/235/125 192/192/160 
f 228/228/152 205/205/174 297/297/174 292/292/152 
f 155/155/113 185/787/113 169/788/113 134/134/113 
f 62/62/113 125/813/113 109/814/113 28/28/113 
f 52/866/83 115/115/83 108/108/64 32/865/64 
f 125/125/91 71/850/91 30/851/63 109/109/63 
f 17/17/14 2/2/14 26/26/14 40/40/14 
f 26/26/58 2/2/48 52/52/68 32/32/59 
f 34/34/62 41/41/1 175/175/1 168/168/62 
f 24/24/14 3/3/14 18/18/14 36/36/14 
f 277/277/223 256/256/238 312/312/238 318/318/223 
f 286/286/239 313/313/239 311/311/239 283/283/239 
f 344/344/113 335/335/113 336/336/113 337/337/113 
f 333/333/113 344/344/113 338/338/113 
f 332/332/113 331/331/113 344/344/113 333/333/113 
f 331/331/113 334/334/113 335/335/113 344/344/113 
f 318/833/113 314/829/113 316/831/113 317/832/113 
f 315/830/113 314/829/113 318/833/113 311/835/113 
f 313/836/113 315/830/113 311/835/113 
o Cylinder:014
s 1
f 345/345/240 346/346/241 348/348/242 347/347/243 
f 347/347/243 348/348/242 350/350/244 349/349/245 
f 349/349/245 350/350/244 352/352/246 351/351/247 
f 351/351/247 352/352/246 354/354/248 353/353/249 
f 353/353/249 354/354/248 356/356/250 355/355/251 
f 355/355/251 356/356/250 358/358/252 357/357/253 
f 357/357/253 358/358/252 360/360/254 359/359/255 
f 359/359/255 360/360/254 362/362/256 361/361/257 
f 361/361/257 362/362/256 364/364/258 363/363/259 
f 363/363/259 364/364/258 366/366/260 365/365/261 
f 365/365/261 366/366/260 368/368/262 367/367/263 
f 367/367/263 368/368/262 370/370/264 369/369/265 
f 369/369/265 370/370/264 372/372/266 371/371/267 
f 371/371/267 372/372/266 374/374/268 373/373/269 
f 380/380/270 381/381/270 382/382/270 398/398/270 
f 373/373/269 374/374/268 376/376/271 375/375/272 
f 375/375/272 376/376/271 346/346/241 345/345/240 
f 379/379/270 380/380/270 398/398/270 378/378/270 
f 348/348/242 346/346/241 378/378/273 377/377/274 
f 346/346/241 376/376/271 379/379/275 378/378/273 
f 376/376/271 374/374/268 380/380/276 379/379/275 
f 374/374/268 372/372/266 381/381/277 380/380/276 
f 372/372/266 370/370/264 382/382/278 381/381/277 
f 370/370/264 368/368/262 383/383/279 382/382/278 
f 368/368/262 366/366/260 384/384/280 383/383/279 
f 366/366/260 364/364/258 385/385/281 384/384/280 
f 364/364/258 362/362/256 386/386/282 385/385/281 
f 362/362/256 360/360/254 387/387/283 386/386/282 
f 360/360/254 358/358/252 388/388/284 387/387/283 
f 358/358/252 356/356/250 389/389/285 388/388/284 
f 356/356/250 354/354/248 390/390/286 389/389/285 
f 354/354/248 352/352/246 391/391/287 390/390/286 
f 352/352/246 350/350/244 392/392/288 391/391/287 
f 350/350/244 348/348/242 377/377/274 392/392/288 
f 385/842/289 392/843/289 393/393/289 396/396/289 
f 387/387/270 388/388/270 397/397/270 386/386/270 
f 393/393/270 394/394/270 395/395/270 396/396/270 
f 392/843/288 377/841/274 394/394/290 393/393/290 
f 377/841/291 384/844/291 395/395/291 394/394/291 
f 384/844/280 385/842/281 396/396/292 395/395/292 
f 388/388/270 389/389/270 390/390/270 397/397/270 
f 386/386/270 397/397/270 392/392/270 385/385/270 
f 397/397/270 390/390/270 391/391/270 392/392/270 
f 378/378/270 398/398/270 384/384/270 377/377/270 
f 398/398/270 382/382/270 383/383/270 384/384/270 
o Cylinder:015
s 1
f 399/399/293 400/400/294 402/402/295 401/401/296 
f 401/401/296 402/402/295 404/404/297 403/403/298 
f 403/403/298 404/404/297 406/406/299 405/405/300 
f 405/405/300 406/406/299 408/408/301 407/407/302 
f 407/407/302 408/408/301 410/410/303 409/409/304 
f 409/409/304 410/410/303 412/412/305 411/411/306 
f 411/411/306 412/412/305 414/414/307 413/413/308 
f 413/413/308 414/414/307 416/416/309 415/415/310 
f 415/415/310 416/416/309 418/418/311 417/417/312 
f 417/417/312 418/418/311 420/420/313 419/419/314 
f 419/419/314 420/420/313 422/422/315 421/421/316 
f 421/421/316 422/422/315 424/424/317 423/423/318 
f 423/423/318 424/424/317 426/426/319 425/425/320 
f 425/425/320 426/426/319 428/428/321 427/427/322 
f 434/434/323 435/435/323 436/436/323 452/452/323 
f 427/427/322 428/428/321 430/430/324 429/429/325 
f 429/429/325 430/430/324 400/400/294 399/399/293 
f 433/433/323 434/434/323 452/452/323 432/432/323 
f 402/402/295 400/400/294 432/432/326 431/431/327 
f 400/400/294 430/430/324 433/433/328 432/432/326 
f 430/430/324 428/428/321 434/434/329 433/433/328 
f 428/428/321 426/426/319 435/435/330 434/434/329 
f 426/426/319 424/424/317 436/436/331 435/435/330 
f 424/424/317 422/422/315 437/437/332 436/436/331 
f 422/422/315 420/420/313 438/438/333 437/437/332 
f 420/420/313 418/418/311 439/439/334 438/438/333 
f 418/418/311 416/416/309 440/440/335 439/439/334 
f 416/416/309 414/414/307 441/441/336 440/440/335 
f 414/414/307 412/412/305 442/442/337 441/441/336 
f 412/412/305 410/410/303 443/443/338 442/442/337 
f 410/410/303 408/408/301 444/444/339 443/443/338 
f 408/408/301 406/406/299 445/445/340 444/444/339 
f 406/406/299 404/404/297 446/446/341 445/445/340 
f 404/404/297 402/402/295 431/431/327 446/446/341 
f 439/838/342 446/840/342 447/447/342 450/450/342 
f 441/441/323 442/442/323 451/451/323 440/440/323 
f 447/447/323 448/448/323 449/449/323 450/450/323 
f 446/840/341 431/837/327 448/448/343 447/447/343 
f 431/837/344 438/839/344 449/449/344 448/448/344 
f 438/839/333 439/838/334 450/450/345 449/449/345 
f 442/442/323 443/443/323 444/444/323 451/451/323 
f 440/440/323 451/451/323 446/446/323 439/439/323 
f 451/451/323 444/444/323 445/445/323 446/446/323 
f 432/432/323 452/452/323 438/438/323 431/431/323 
f 452/452/323 436/436/323 437/437/323 438/438/323 
o Cylinder:016
s 1
f 453/453/346 454/454/346 456/654/347 455/455/347 
f 455/455/347 456/654/347 458/458/348 457/457/348 
f 457/457/348 458/458/348 460/460/349 459/459/349 
f 459/459/349 460/460/349 462/462/350 461/461/350 
f 461/461/350 462/462/350 464/464/351 463/463/351 
f 463/463/351 464/464/351 466/466/352 465/465/352 
f 465/465/352 466/466/352 468/468/353 467/467/353 
f 467/467/353 468/468/353 470/470/354 469/469/354 
f 469/469/354 470/470/354 472/649/355 471/471/355 
f 471/471/355 472/649/355 474/474/356 473/473/356 
f 473/473/356 474/474/356 476/476/357 475/475/357 
f 475/475/357 476/476/357 478/478/358 477/477/358 
f 477/477/358 478/478/358 480/480/359 479/479/359 
f 479/479/359 480/480/359 482/482/360 481/481/360 
f 481/481/360 482/482/360 484/484/361 483/483/361 
f 483/483/361 484/484/361 454/454/346 453/453/346 
f 474/651/362 472/472/362 470/643/362 476/652/362 
f 476/652/362 470/643/362 468/641/362 478/646/362 
f 478/646/362 468/641/362 466/640/362 480/648/362 
f 480/648/362 466/640/362 464/645/362 482/650/362 
f 482/650/362 464/645/362 462/644/362 484/653/362 
f 484/653/362 462/644/362 460/642/362 454/647/362 
f 454/647/362 460/642/362 458/655/362 456/456/362 
o Cylinder:017
s 1
f 526/718/363 487/902/363 489/489/363 527/527/363 
f 527/527/364 489/489/364 491/491/364 528/528/364 
f 528/528/365 491/491/365 493/493/365 529/529/365 
f 529/529/366 493/493/366 495/495/366 530/530/366 
f 530/530/367 495/495/367 497/497/367 531/531/367 
f 531/531/368 497/497/368 499/499/368 532/532/368 
f 532/532/369 499/499/369 501/501/369 533/533/369 
f 533/533/370 501/501/370 503/503/370 534/534/370 
f 509/509/370 510/510/370 521/521/370 520/520/370 
f 534/534/371 503/503/371 505/505/371 535/535/371 
f 535/535/372 505/505/372 487/487/372 526/526/372 
f 489/904/373 487/901/373 507/507/373 506/506/373 
f 487/901/373 505/910/373 508/508/373 507/507/373 
f 505/910/373 503/909/373 509/715/373 508/508/373 
f 503/909/373 501/907/373 510/714/373 509/715/373 
f 501/907/373 499/905/373 511/511/373 510/714/373 
f 499/905/373 497/903/373 512/512/373 511/511/373 
f 497/903/373 495/900/373 513/513/373 512/512/373 
f 495/900/373 493/908/373 514/514/373 513/513/373 
f 493/908/373 491/906/373 515/515/373 514/514/373 
f 491/906/373 489/904/373 506/506/373 515/515/373 
f 515/711/364 506/709/364 516/516/364 518/518/364 
f 513/708/366 514/712/366 525/525/366 524/524/366 
f 510/510/369 511/713/369 522/522/369 521/521/369 
f 507/717/372 508/716/372 519/519/372 517/517/372 
f 514/712/365 515/711/365 518/518/365 525/525/365 
f 511/713/368 512/710/368 523/523/368 522/522/368 
f 508/716/371 509/509/371 520/520/371 519/519/371 
f 506/709/363 507/721/363 517/732/363 516/516/363 
f 512/710/367 513/708/367 524/524/367 523/523/367 
f 528/661/373 529/660/373 542/542/373 540/540/373 
f 500/500/374 498/498/374 547/547/374 549/549/374 
f 529/660/373 530/665/373 544/544/373 542/542/373 
f 490/490/374 488/488/374 537/537/374 539/539/374 
f 530/665/373 531/664/373 546/546/373 544/544/373 
f 504/504/374 502/502/374 551/551/374 553/553/374 
f 494/494/374 492/492/374 541/541/374 543/543/374 
f 531/664/373 532/663/373 548/548/373 546/546/373 
f 498/498/374 496/496/374 545/545/374 547/547/374 
f 532/663/373 533/662/373 550/550/373 548/548/373 
f 553/553/372 554/554/372 555/555/372 536/536/372 
f 551/551/371 552/552/371 554/554/371 553/553/371 
f 549/549/370 550/666/370 552/552/370 551/551/370 
f 547/547/369 548/668/369 550/666/369 549/549/369 
f 545/545/368 546/674/368 548/668/368 547/547/368 
f 543/543/367 544/675/367 546/674/367 545/545/367 
f 541/541/366 542/667/366 544/675/366 543/543/366 
f 539/539/365 540/669/365 542/667/365 541/541/365 
f 537/537/364 538/538/364 540/669/364 539/539/364 
f 536/536/363 555/555/363 538/676/363 537/537/363 
f 496/496/374 494/494/374 543/543/374 545/545/374 
f 535/656/373 526/659/373 555/672/373 554/670/373 
f 486/486/374 504/504/374 553/553/374 536/536/374 
f 527/657/373 528/661/373 540/540/373 538/671/373 
f 534/658/373 535/656/373 554/670/373 552/673/373 
f 492/492/374 490/490/374 539/539/374 541/541/374 
f 526/659/373 527/657/373 538/671/373 555/672/373 
f 502/502/374 500/500/374 549/549/374 551/551/374 
f 488/488/374 486/486/374 536/536/374 537/537/374 
f 533/662/373 534/658/373 552/673/373 550/550/373 
f 520/723/373 521/722/373 522/725/373 519/724/373 
f 519/724/373 522/725/373 523/726/373 517/731/373 
f 517/731/373 523/726/373 524/727/373 516/730/373 
f 516/730/373 524/727/373 525/728/373 518/729/373 
o Cylinder:018
s 1
f 596/719/375 557/913/375 559/559/375 597/597/375 
f 597/597/376 559/559/376 561/561/376 598/598/376 
f 598/598/377 561/561/377 563/563/377 599/599/377 
f 599/599/378 563/563/378 565/565/378 600/600/378 
f 600/600/379 565/565/379 567/567/379 601/601/379 
f 601/601/380 567/567/380 569/569/380 602/602/380 
f 602/602/381 569/569/381 571/571/381 603/603/381 
f 603/603/382 571/571/382 573/573/382 604/604/382 
f 579/579/382 580/580/382 591/734/382 590/590/382 
f 604/604/383 573/573/383 575/575/383 605/688/383 
f 605/688/384 575/575/384 557/557/384 596/596/384 
f 559/915/385 557/912/386 577/577/386 576/576/385 
f 557/912/386 575/921/386 578/578/386 577/577/386 
f 575/921/386 573/920/386 579/707/386 578/578/386 
f 573/920/386 571/918/386 580/704/386 579/707/386 
f 571/918/386 569/916/386 581/581/386 580/704/386 
f 569/916/386 567/914/386 582/582/386 581/581/386 
f 567/914/386 565/911/385 583/583/385 582/582/386 
f 565/911/385 563/919/386 584/584/386 583/583/385 
f 563/919/386 561/917/385 585/585/385 584/584/386 
f 561/917/385 559/915/385 576/576/385 585/585/385 
f 585/700/376 576/699/376 586/739/376 588/740/376 
f 583/701/378 584/698/378 595/741/378 594/742/378 
f 580/580/381 581/703/381 592/733/381 591/734/381 
f 577/706/384 578/705/384 589/736/384 587/587/384 
f 584/698/377 585/700/377 588/740/377 595/741/377 
f 581/703/380 582/702/380 593/593/380 592/733/380 
f 578/705/383 579/579/383 590/590/383 589/736/383 
f 576/699/375 577/720/375 587/738/375 586/739/375 
f 582/702/379 583/701/379 594/742/379 593/593/379 
f 598/697/386 599/696/386 612/612/386 610/610/386 
f 570/570/387 568/568/387 617/617/387 619/619/387 
f 599/696/386 600/695/386 614/614/386 612/612/386 
f 560/560/387 558/558/387 607/607/387 609/609/387 
f 600/695/386 601/694/386 616/616/386 614/614/386 
f 574/574/387 572/572/387 621/621/387 623/623/387 
f 564/564/387 562/562/387 611/611/387 613/613/387 
f 601/694/386 602/693/385 618/618/385 616/616/386 
f 568/568/387 566/566/387 615/615/387 617/617/387 
f 602/693/385 603/692/386 620/620/386 618/618/385 
f 623/623/384 624/624/384 625/625/384 606/606/384 
f 621/621/383 622/622/383 624/624/383 623/623/383 
f 619/619/382 620/684/382 622/622/382 621/621/382 
f 617/617/381 618/685/381 620/684/381 619/619/381 
f 615/615/380 616/679/380 618/685/380 617/617/380 
f 613/613/379 614/677/379 616/679/379 615/615/379 
f 611/611/378 612/683/378 614/677/378 613/613/378 
f 609/609/377 610/687/377 612/683/377 611/611/377 
f 607/607/376 608/608/376 610/687/376 609/609/376 
f 606/606/375 625/682/375 608/608/375 607/607/375 
f 566/566/387 564/564/387 613/613/387 615/615/387 
f 605/605/385 596/691/386 625/681/386 624/680/385 
f 556/556/388 574/574/388 623/623/388 606/606/388 
f 597/689/386 598/697/386 610/610/386 608/686/386 
f 604/690/386 605/605/385 624/680/385 622/678/386 
f 562/562/387 560/560/387 609/609/387 611/611/387 
f 596/691/386 597/689/386 608/686/386 625/681/386 
f 572/572/387 570/570/387 619/619/387 621/621/387 
f 558/558/387 556/556/387 606/606/387 607/607/387 
f 603/692/386 604/690/386 622/678/386 620/620/386 
f 590/735/385 591/591/385 592/592/386 589/589/386 
f 589/589/386 592/592/386 593/743/386 587/737/386 
f 587/737/386 593/743/386 594/594/385 586/586/385 
f 586/586/385 594/594/385 595/595/389 588/588/389 
o Plane
s 1
f 641/343/405 637/637/401 629/629/393 632/632/396 
f 634/634/398 639/639/403 633/633/397 628/628/392 
f 639/639/403 641/343/405 632/632/396 633/633/397 
f 630/630/394 631/631/395 640/485/404 638/638/402 
f 638/638/402 640/485/404 641/343/405 639/639/403 
f 626/626/390 630/630/394 638/638/402 635/635/399 
f 635/635/399 638/638/402 639/639/403 634/634/398 
f 631/631/395 627/627/391 636/636/400 640/485/404 
f 640/485/404 636/636/400 637/637/401 641/343/405 
#end 588 faces

#ZOMPROPERTIES_04{
#ZOMPROPERTIES_04 table {Mesh table {SymPlane table {Point vector3d 0 0 0 Normal vector3d 1 0 0 Threshold double 0.01 
#ZOMPROPERTIES_04 Enabled bool false EdgeID int -1 SymEdgeID int -1 UPos double 0.5 LocalMode bool false } RootGroup C
#ZOMPROPERTIES_04 SubMeshGroup {Children table {Tile_0_0 CSubMeshGroup {Children table {} BBoxUV box3d 0 0 0 0 0 0 BBo
#ZOMPROPERTIES_04 x3D box3d 0 0 0 0 0 0 Area3D double 0 AreaUV double 0.508795 IsRoot bool false Properties table {Sel
#ZOMPROPERTIES_04 ected bool false Box box3d 0 1 0 1 0 1 U int 0 V int 0 NU int 0 NV int 0 Tiling vector3d 1 1 1 TileR
#ZOMPROPERTIES_04 atioMode string "1:1" Overflow string "Off" Pack table {BoxFrameEdit bool false Behavior string "Fre
#ZOMPROPERTIES_04 e" } } IsTile bool true PolyIDs ints { 575 576 577 578 511 512 513 514 545 547 549 552 554 574 569 5
#ZOMPROPERTIES_04 66 571 568 481 483 485 488 490 510 505 502 507 504 546 558 559 560 561 562 563 564 573 567 550 556 5
#ZOMPROPERTIES_04 57 572 555 548 570 551 565 553 482 489 501 496 497 498 499 484 509 500 491 492 493 494 486 508 503 5
#ZOMPROPERTIES_04 06 487 495 444 445 446 447 448 449 450 126 200 203 204 218 205 199 212 210 208 206 202 130 133 132 1
#ZOMPROPERTIES_04 36 134 131 128 135 201 319 137 139 211 209 138 198 127 129 156 157 180 177 161 162 163 164 187 158 1
#ZOMPROPERTIES_04 78 168 167 166 165 179 154 155 182 173 174 175 176 181 160 321 172 171 170 169 462 463 464 465 466 4
#ZOMPROPERTIES_04 67 468 469 470 471 526 527 528 529 530 531 532 533 534 535 459 474 477 480 473 476 472 479 478 475 5
#ZOMPROPERTIES_04 23 538 541 544 537 540 536 543 542 539 0 7 18 22 6 151 149 147 150 153 35 34 36 33 152 13 19 23 32 4
#ZOMPROPERTIES_04 3 146 143 144 140 142 145 148 141 44 327 101 159 107 121 111 110 109 108 122 97 98 125 116 117 118 1
#ZOMPROPERTIES_04 19 124 103 322 115 114 113 112 123 99 100 120 104 105 106 338 339 340 341 342 343 367 366 344 345 36
#ZOMPROPERTIES_04 5 364 346 347 348 362 363 361 349 350 351 353 354 358 355 352 382 360 359 381 356 357 379 380 370 36
#ZOMPROPERTIES_04 9 378 373 368 371 383 384 385 386 414 425 424 418 423 412 413 388 389 390 391 409 408 392 393 394 40
#ZOMPROPERTIES_04 6 427 426 400 397 404 403 398 399 396 395 405 402 401 407 410 387 411 415 416 2 16 92 94 95 91 93 96
#ZOMPROPERTIES_04  80 17 372 375 374 377 376 451 452 453 454 455 456 457 458 460 461 515 516 517 518 519 520 521 522 5
#ZOMPROPERTIES_04 24 525 417 420 421 422 419 428 443 442 441 440 439 438 437 436 435 434 433 432 431 430 429 183 268 2
#ZOMPROPERTIES_04 69 270 248 246 222 221 223 266 217 237 250 276 265 278 274 273 254 257 227 226 225 224 238 213 252 2
#ZOMPROPERTIES_04 61 262 255 192 241 214 232 233 234 235 240 219 189 302 311 308 243 304 306 301 300 259 260 317 263 2
#ZOMPROPERTIES_04 58 256 284 290 288 244 285 287 329 289 330 286 279 316 283 190 207 318 231 230 229 228 239 194 281 2
#ZOMPROPERTIES_04 80 197 191 282 215 216 196 264 275 267 247 185 220 236 299 298 297 313 332 303 309 305 295 296 188 1
#ZOMPROPERTIES_04 86 294 293 184 292 245 291 312 307 334 333 331 314 310 242 195 277 271 249 272 251 253 193 320 315 3
#ZOMPROPERTIES_04 36 335 337 8 27 12 21 9 39 40 325 326 51 50 49 48 42 29 10 45 55 54 53 52 3 41 102 56 57 58 59 26 11
#ZOMPROPERTIES_04  38 37 24 5 20 25 60 61 62 31 328 63 579 587 586 582 584 585 580 581 583 1 71 70 69 68 30 14 15 28 7
#ZOMPROPERTIES_04 6 77 78 79 4 46 324 75 74 73 72 86 90 83 89 82 47 323 67 66 65 64 85 87 81 88 84 } } } BBoxUV box3d 
#ZOMPROPERTIES_04 0 0 0 0 0 0 BBox3D box3d 0 0 0 0 0 0 Area3D double 0 AreaUV double 0 IsRoot bool true Properties tab
#ZOMPROPERTIES_04 le {Selected bool false Box box3d 0 1 0 1 0 1 U int 0 V int 0 NU int 1 NV int 1 Tiling vector3d 1 1 
#ZOMPROPERTIES_04 1 TileRatioMode string "1:1" Overflow string "Off" Pack table {Rotate table {Mode int 0 Min double 0
#ZOMPROPERTIES_04  Max double 90 Step double 0 } PaddingSize double 0.0078125 MarginSize double 0.00390625 Resolution 
#ZOMPROPERTIES_04 int 256 MapResolution int 2048 Scaling table {TexelDensity double 1024 Mode int 2 } LayoutScalingMod
#ZOMPROPERTIES_04 e int 2 MaxMutations int 1 } } IsTile bool false PolyIDs ints { } } Maps table {Pin table {PrimType 
#ZOMPROPERTIES_04 string "Vertex" Size int 1 DefaultValue double 0 ScaleType string "Normalized" MergeMode string "Max
#ZOMPROPERTIES_04 " MinValue double 0 MaxValue double 1 Data doubles { r 921 0 } } Density table {PrimType string "Pol
#ZOMPROPERTIES_04 ygon" Size int 1 DefaultValue double 1 ScaleType string "Log" MergeMode string "Average" MinValue do
#ZOMPROPERTIES_04 uble 0.1 MaxValue double 4 Data doubles { r 588 1 } } Protect table {PrimType string "Vertex" Size i
#ZOMPROPERTIES_04 nt 1 DefaultValue double 0 ScaleType string "Normalized" MergeMode string "Average" MinValue double 
#ZOMPROPERTIES_04 -1 MaxValue double 1 Data doubles { r 921 0 } } } } }
#ZOMPROPERTIES_04}


#ZOMSCENE_01{
#ZOMSCENE_01 CScene {Settings table {AxisSystem table {UpVector string "y" } Unit string "cm" TexelDensityDisplay
#ZOMSCENE_01 Unit string "tx/cm" } Root table {} }
#ZOMSCENE_01}

#begin 0 fatal error vertex (that RizomUV cannot handle)
#end 0 fatal error vertex (that RizomUV cannot handle)

#begin 0 error vertex
#end 0 error vertex
