# Blender 4.2.8 LTS
# www.blender.org
mtllib piso caldero.mtl
o caldero.001
v 0.273766 -1.471252 21.351370
v 0.273766 -1.661174 21.062418
v 0.876826 -1.471252 21.471327
v 0.987403 -1.661174 21.204370
v 1.388076 -1.471252 21.812933
v 1.592395 -1.661174 21.608612
v 1.729681 -1.471252 22.324181
v 1.996638 -1.661174 22.213604
v 1.849637 -1.471252 22.927240
v 2.138589 -1.661174 22.927240
v 1.729681 -1.471252 23.530300
v 1.996638 -1.661174 23.640879
v 1.388076 -1.471252 24.041550
v 1.592395 -1.661174 24.245871
v 0.876826 -1.471252 24.383156
v 0.987403 -1.661174 24.650112
v 0.273766 -1.471252 24.503113
v 0.273766 -1.661174 24.792065
v -0.329293 -1.471252 24.383156
v -0.439870 -1.661174 24.650112
v -0.840543 -1.471252 24.041550
v -1.044862 -1.661174 24.245871
v -1.182148 -1.471252 23.530300
v -1.449105 -1.661174 23.640879
v -1.302105 -1.471252 22.927240
v -1.591056 -1.661174 22.927240
v -1.182148 -1.471252 22.324181
v -1.449105 -1.661174 22.213604
v -0.840543 -1.471252 21.812933
v -1.044862 -1.661174 21.608612
v -0.329293 -1.471252 21.471327
v -0.439870 -1.661174 21.204370
v 0.273766 -1.640313 21.351370
v 0.876826 -1.640313 21.471327
v 1.388076 -1.640313 21.812933
v 1.729681 -1.640313 22.324181
v 1.849637 -1.640313 22.927240
v 1.729681 -1.640313 23.530300
v 1.388076 -1.640313 24.041550
v 0.876826 -1.640313 24.383156
v 0.273766 -1.640313 24.503113
v -0.329293 -1.640313 24.383156
v -0.840543 -1.640313 24.041550
v -1.182148 -1.640313 23.530300
v -1.302105 -1.640313 22.927240
v -1.182148 -1.640313 22.324181
v -0.840543 -1.640313 21.812933
v -0.329293 -1.640313 21.471327
v 0.273766 -1.471252 21.120840
v 0.273766 -1.528551 21.062418
v 0.273766 -1.488034 21.079529
v 0.987403 -1.528551 21.204370
v 0.965046 -1.471252 21.258345
v 0.980855 -1.488034 21.220179
v 1.592395 -1.528551 21.608612
v 1.551085 -1.471252 21.649923
v 1.580296 -1.488034 21.620712
v 1.996638 -1.528551 22.213604
v 1.942663 -1.471252 22.235962
v 1.980829 -1.488034 22.220154
v 2.138589 -1.528551 22.927240
v 2.080168 -1.471252 22.927240
v 2.121478 -1.488034 22.927240
v 1.996638 -1.528551 23.640879
v 1.942663 -1.471252 23.618521
v 1.980829 -1.488034 23.634331
v 1.592395 -1.528551 24.245871
v 1.551085 -1.471252 24.204559
v 1.580296 -1.488034 24.233770
v 0.987403 -1.528551 24.650112
v 0.965046 -1.471252 24.596138
v 0.980855 -1.488034 24.634304
v 0.273766 -1.528551 24.792065
v 0.273766 -1.471252 24.733643
v 0.273766 -1.488034 24.774952
v -0.439870 -1.528551 24.650112
v -0.417513 -1.471252 24.596138
v -0.433322 -1.488034 24.634304
v -1.044862 -1.528551 24.245871
v -1.003552 -1.471252 24.204559
v -1.032763 -1.488034 24.233770
v -1.449105 -1.528551 23.640879
v -1.395131 -1.471252 23.618521
v -1.433296 -1.488034 23.634331
v -1.591056 -1.528551 22.927240
v -1.532635 -1.471252 22.927240
v -1.573945 -1.488034 22.927240
v -1.449105 -1.528551 22.213604
v -1.395131 -1.471252 22.235962
v -1.433296 -1.488034 22.220154
v -1.044862 -1.528551 21.608612
v -1.003552 -1.471252 21.649923
v -1.032763 -1.488034 21.620712
v -0.439870 -1.528551 21.204370
v -0.417513 -1.471252 21.258345
v -0.433322 -1.488034 21.220179
vn -0.3754 0.1938 -0.9064
vn -0.0000 0.1938 -0.9810
vn -0.0000 -0.0000 -1.0000
vn -0.3827 -0.0000 -0.9239
vn -0.0000 1.0000 -0.0000
vn 0.1518 0.9767 -0.1518
vn 0.0821 0.9767 -0.1983
vn 0.1983 0.9767 -0.0821
vn 0.2146 0.9767 -0.0000
vn 0.1983 0.9767 0.0821
vn 0.1518 0.9767 0.1518
vn 0.0821 0.9767 0.1983
vn -0.0000 0.9767 0.2146
vn -0.0821 0.9767 0.1983
vn -0.1518 0.9767 0.1518
vn -0.1983 0.9767 0.0821
vn -0.2146 0.9767 -0.0000
vn -0.1983 0.9767 -0.0821
vn -0.1518 0.9767 -0.1518
vn -0.0821 0.9767 -0.1983
vn -0.0000 0.9767 -0.2146
vn 0.9239 -0.0000 0.3827
vn 0.7071 -0.0000 0.7071
vn 0.3754 0.1938 -0.9064
vn 0.3827 -0.0000 -0.9239
vn 0.6937 0.1938 -0.6937
vn 0.9064 0.1938 -0.3754
vn 0.9239 -0.0000 -0.3827
vn 0.7071 -0.0000 -0.7071
vn 0.9810 0.1938 -0.0000
vn 1.0000 -0.0000 -0.0000
vn 0.9064 0.1938 0.3754
vn 0.6937 0.1938 0.6937
vn 0.3754 0.1938 0.9064
vn 0.3827 -0.0000 0.9239
vn -0.0000 0.1938 0.9810
vn -0.0000 -0.0000 1.0000
vn -0.3754 0.1938 0.9064
vn -0.3827 -0.0000 0.9239
vn -0.6937 0.1938 0.6937
vn -0.7071 -0.0000 0.7071
vn -0.9064 0.1938 0.3754
vn -0.9239 -0.0000 0.3827
vn -0.9810 0.1938 -0.0000
vn -1.0000 -0.0000 -0.0000
vn -0.9064 0.1938 -0.3754
vn -0.9239 -0.0000 -0.3827
vn -0.6937 0.1938 -0.6937
vn -0.7071 -0.0000 -0.7071
vn -0.0000 0.3890 -0.9212
vn 0.3525 0.3891 -0.8511
vn -0.0000 0.9265 -0.3764
vn 0.1440 0.9265 -0.3477
vn 0.6514 0.3891 -0.6514
vn 0.2661 0.9265 -0.2661
vn 0.8511 0.3891 -0.3525
vn 0.3477 0.9265 -0.1440
vn 0.9212 0.3891 -0.0000
vn 0.3764 0.9265 -0.0000
vn 0.8511 0.3891 0.3525
vn 0.3477 0.9265 0.1440
vn 0.6514 0.3891 0.6514
vn 0.2661 0.9265 0.2661
vn 0.3525 0.3891 0.8511
vn 0.1440 0.9265 0.3477
vn -0.0000 0.3891 0.9212
vn -0.0000 0.9265 0.3764
vn -0.3525 0.3891 0.8511
vn -0.1440 0.9265 0.3477
vn -0.6514 0.3891 0.6514
vn -0.2661 0.9265 0.2661
vn -0.8511 0.3891 0.3525
vn -0.3477 0.9265 0.1440
vn -0.9212 0.3891 -0.0000
vn -0.3764 0.9265 -0.0000
vn -0.8511 0.3891 -0.3525
vn -0.3477 0.9265 -0.1440
vn -0.6514 0.3891 -0.6514
vn -0.2661 0.9265 -0.2661
vn -0.3525 0.3891 -0.8511
vn -0.1440 0.9265 -0.3477
vt 0.568365 0.738113
vt 0.569761 0.634083
vt 0.588545 0.634335
vt 0.587148 0.738365
vt 0.112270 0.430930
vt 0.088962 0.454238
vt 0.032972 0.370443
vt 0.063425 0.357828
vt 0.185371 0.479774
vt 0.172757 0.510228
vt 0.271599 0.496926
vt 0.271599 0.529889
vt 0.357828 0.479774
vt 0.370443 0.510228
vt 0.430930 0.430930
vt 0.454238 0.454237
vt 0.479774 0.357828
vt 0.510228 0.370442
vt 0.496926 0.271599
vt 0.529889 0.271599
vt 0.479774 0.185371
vt 0.510228 0.172756
vt 0.430930 0.112269
vt 0.454238 0.088961
vt 0.357828 0.063425
vt 0.370443 0.032971
vt 0.271599 0.046273
vt 0.271599 0.013310
vt 0.185371 0.063425
vt 0.172757 0.032971
vt 0.112270 0.112269
vt 0.088962 0.088961
vt 0.063425 0.185371
vt 0.032972 0.172756
vt 0.046273 0.271600
vt 0.013310 0.271600
vt 0.837236 0.545275
vt 0.813298 0.545926
vt 0.806498 0.464855
vt 0.830436 0.464205
vt 0.565614 0.537900
vt 0.584397 0.538152
vt 0.735278 0.464205
vt 0.727232 0.538017
vt 0.708453 0.538527
vt 0.716500 0.464715
vt 0.724406 0.634248
vt 0.705628 0.634759
vt 0.727232 0.738249
vt 0.708453 0.738759
vt 0.735278 0.834185
vt 0.716500 0.834695
vt 0.661170 0.834185
vt 0.669217 0.738249
vt 0.687995 0.738759
vt 0.679948 0.834695
vt 0.672042 0.634249
vt 0.690821 0.634759
vt 0.669217 0.538017
vt 0.687995 0.538527
vt 0.661170 0.464205
vt 0.679948 0.464715
vt 0.762041 0.834185
vt 0.770087 0.738249
vt 0.788866 0.738759
vt 0.780819 0.834696
vt 0.772913 0.634249
vt 0.791691 0.634759
vt 0.770087 0.538017
vt 0.788866 0.538527
vt 0.550602 0.907575
vt 0.561637 0.834150
vt 0.580421 0.834402
vt 0.569386 0.907827
vt 0.556554 0.464205
vt 0.575338 0.464457
vt 0.016591 0.550602
vt 0.040529 0.551253
vt 0.033729 0.632324
vt 0.009791 0.631674
vt 0.079283 0.800972
vt 0.055336 0.800972
vt 0.059931 0.719746
vt 0.083878 0.719746
vt 0.031341 0.720210
vt 0.007404 0.719559
vt 0.083878 0.631828
vt 0.059931 0.631828
vt 0.055336 0.550602
vt 0.079283 0.550602
vt 0.033729 0.801530
vt 0.009791 0.800880
vt 0.627299 0.838909
vt 0.603352 0.838909
vt 0.611843 0.776742
vt 0.635790 0.776742
vt 0.040529 0.863905
vt 0.016591 0.863255
vt 0.616438 0.695516
vt 0.640385 0.695516
vt 0.830436 0.776857
vt 0.806498 0.777507
vt 0.813298 0.715132
vt 0.837236 0.714482
vt 0.616438 0.607598
vt 0.640385 0.607598
vt 0.815686 0.633812
vt 0.839624 0.633161
vt 0.611843 0.526372
vt 0.635790 0.526372
vt 0.603352 0.464205
vt 0.627298 0.464205
vt 0.563688 0.634479
vt 0.559579 0.539178
vt 0.007404 0.271600
vt 0.027514 0.372703
vt 0.550602 0.466159
vt 0.084785 0.458414
vt 0.741256 0.466078
vt 0.733283 0.539213
vt 0.170496 0.515685
vt 0.730484 0.634561
vt 0.271599 0.535795
vt 0.733283 0.737607
vt 0.372703 0.515685
vt 0.741256 0.832663
vt 0.458414 0.458414
vt 0.655192 0.832663
vt 0.663165 0.737607
vt 0.515685 0.372703
vt 0.665965 0.634561
vt 0.535795 0.271599
vt 0.663165 0.539212
vt 0.515685 0.170496
vt 0.655192 0.466077
vt 0.458414 0.084785
vt 0.756063 0.832663
vt 0.764036 0.737607
vt 0.372703 0.027514
vt 0.766835 0.634561
vt 0.271599 0.007404
vt 0.764036 0.539213
vt 0.170496 0.027514
vt 0.756063 0.466078
vt 0.762041 0.464205
vt 0.084785 0.084785
vt 0.555639 0.832710
vt 0.562305 0.737554
vt 0.027514 0.170496
vt 0.992597 0.272360
vt 0.958952 0.353585
vt 0.958952 0.103216
vt 0.992597 0.184442
vt 0.896784 0.415753
vt 0.896784 0.041048
vt 0.815558 0.449398
vt 0.815558 0.007404
vt 0.727641 0.449398
vt 0.727640 0.007404
vt 0.646415 0.415753
vt 0.646415 0.041048
vt 0.584247 0.353585
vt 0.584247 0.103216
vt 0.550602 0.272360
vt 0.550602 0.184442
s 1
f 94/1/1 50/2/2 2/3/3 32/4/4
f 5/5/5 56/6/6 53/7/7 3/8/5
f 7/9/5 59/10/8 56/6/6 5/5/5
f 9/11/5 62/12/9 59/10/8 7/9/5
f 11/13/5 65/14/10 62/12/9 9/11/5
f 13/15/5 68/16/11 65/14/10 11/13/5
f 15/17/5 71/18/12 68/16/11 13/15/5
f 17/19/5 74/20/13 71/18/12 15/17/5
f 19/21/5 77/22/14 74/20/13 17/19/5
f 21/23/5 80/24/15 77/22/14 19/21/5
f 23/25/5 83/26/16 80/24/15 21/23/5
f 25/27/5 86/28/17 83/26/16 23/25/5
f 27/29/5 89/30/18 86/28/17 25/27/5
f 29/31/5 92/32/19 89/30/18 27/29/5
f 31/33/5 95/34/20 92/32/19 29/31/5
f 1/35/5 49/36/21 95/34/20 31/33/5
f 27/37/22 46/38/22 47/39/23 29/40/23
f 50/2/2 52/41/24 4/42/25 2/3/3
f 55/43/26 58/44/27 8/45/28 6/46/29
f 58/44/27 61/47/30 10/48/31 8/45/28
f 61/47/30 64/49/32 12/50/22 10/48/31
f 64/49/32 67/51/33 14/52/23 12/50/22
f 67/53/33 70/54/34 16/55/35 14/56/23
f 70/54/34 73/57/36 18/58/37 16/55/35
f 73/57/36 76/59/38 20/60/39 18/58/37
f 76/59/38 79/61/40 22/62/41 20/60/39
f 79/63/40 82/64/42 24/65/43 22/66/41
f 82/64/42 85/67/44 26/68/45 24/65/43
f 85/67/44 88/69/46 28/70/47 26/68/45
f 88/71/46 91/72/48 30/73/49 28/74/47
f 91/72/48 94/1/1 32/4/4 30/73/49
f 52/41/24 55/75/26 6/76/29 4/42/25
f 13/77/49 39/78/49 40/79/4 15/80/4
f 29/81/23 47/82/23 48/83/35 31/84/35
f 15/80/4 40/79/4 41/85/3 17/86/3
f 1/87/37 33/88/37 34/89/39 3/90/39
f 31/84/35 48/83/35 33/88/37 1/87/37
f 17/86/3 41/85/3 42/91/25 19/92/25
f 3/93/39 34/94/39 35/95/41 5/96/41
f 19/92/25 42/91/25 43/97/29 21/98/29
f 5/96/41 35/95/41 36/99/43 7/100/43
f 21/101/29 43/102/29 44/103/28 23/104/28
f 7/100/43 36/99/43 37/105/45 9/106/45
f 23/104/28 44/103/28 45/107/31 25/108/31
f 9/106/45 37/105/45 38/109/47 11/110/47
f 25/108/31 45/107/31 46/38/22 27/37/22
f 11/110/47 38/109/47 39/111/49 13/112/49
f 50/2/2 51/113/50 54/114/51 52/41/24
f 51/115/52 49/36/21 53/7/7 54/116/53
f 52/41/24 54/114/51 57/117/54 55/75/26
f 54/116/53 53/7/7 56/6/6 57/118/55
f 55/43/26 57/119/54 60/120/56 58/44/27
f 57/118/55 56/6/6 59/10/8 60/121/57
f 58/44/27 60/120/56 63/122/58 61/47/30
f 60/121/57 59/10/8 62/12/9 63/123/59
f 61/47/30 63/122/58 66/124/60 64/49/32
f 63/123/59 62/12/9 65/14/10 66/125/61
f 64/49/32 66/124/60 69/126/62 67/51/33
f 66/125/61 65/14/10 68/16/11 69/127/63
f 67/53/33 69/128/62 72/129/64 70/54/34
f 69/127/63 68/16/11 71/18/12 72/130/65
f 70/54/34 72/129/64 75/131/66 73/57/36
f 72/130/65 71/18/12 74/20/13 75/132/67
f 73/57/36 75/131/66 78/133/68 76/59/38
f 75/132/67 74/20/13 77/22/14 78/134/69
f 76/59/38 78/133/68 81/135/70 79/61/40
f 78/134/69 77/22/14 80/24/15 81/136/71
f 79/63/40 81/137/70 84/138/72 82/64/42
f 81/136/71 80/24/15 83/26/16 84/139/73
f 82/64/42 84/138/72 87/140/74 85/67/44
f 84/139/73 83/26/16 86/28/17 87/141/75
f 85/67/44 87/140/74 90/142/76 88/69/46
f 87/141/75 86/28/17 89/30/18 90/143/77
f 88/69/46 90/142/76 93/144/78 91/145/48
f 90/143/77 89/30/18 92/32/19 93/146/79
f 91/72/48 93/147/78 96/148/80 94/1/1
f 93/146/79 92/32/19 95/34/20 96/149/81
f 94/1/1 96/148/80 51/113/50 50/2/2
f 96/149/81 95/34/20 49/36/21 51/115/52
f 3/8/5 53/7/7 49/36/21 1/35/5
f 39/150/5 38/151/5 41/152/5 40/153/5
f 38/151/5 37/154/5 42/155/5 41/152/5
f 37/154/5 36/156/5 43/157/5 42/155/5
f 36/156/5 35/158/5 44/159/5 43/157/5
f 35/158/5 34/160/5 45/161/5 44/159/5
f 34/160/5 33/162/5 46/163/5 45/161/5
f 33/162/5 48/164/5 47/165/5 46/163/5
