# Blender 4.2.8 LTS
# www.blender.org
mtllib atelier libro.mtl
o atril
v 8.745955 1.597047 22.499195
v 8.745955 1.579951 22.554626
v 8.716952 1.586426 22.504808
v 8.722275 1.592787 22.528233
v 8.745955 1.599979 22.530451
v 8.704939 1.560784 22.518362
v 8.745955 1.524520 22.537529
v 8.716952 1.574337 22.544004
v 8.722275 1.550913 22.550365
v 8.716952 1.535142 22.531916
v 8.745955 1.548695 22.557558
v 8.745955 1.565015 22.438591
v 8.704939 1.528752 22.457758
v 8.745955 1.540841 22.418562
v 8.722275 1.538622 22.425755
v 8.716952 1.515199 22.432116
v 8.716952 1.554394 22.444204
v 8.745955 1.492488 22.476925
v 8.745955 1.509585 22.421494
v 8.716952 1.503109 22.471312
v 8.722275 1.496749 22.447887
v 8.745955 1.489556 22.445669
v 11.479390 1.597047 22.499195
v 11.479390 1.579951 22.554626
v 11.479390 1.599979 22.530451
v 11.503071 1.592787 22.528233
v 11.508393 1.574337 22.544004
v 11.508393 1.586426 22.504808
v 11.479390 1.524520 22.537529
v 11.520407 1.560784 22.518362
v 11.508393 1.535142 22.531916
v 11.503071 1.550913 22.550365
v 11.479390 1.548695 22.557558
v 11.479390 1.565015 22.438591
v 11.479390 1.509585 22.421494
v 11.508393 1.554394 22.444204
v 11.503071 1.538622 22.425755
v 11.479390 1.540841 22.418562
v 11.479390 1.492488 22.476925
v 11.520407 1.528752 22.457758
v 11.479390 1.489556 22.445669
v 11.503071 1.496749 22.447887
v 11.508393 1.515199 22.432116
v 11.508393 1.503109 22.471312
v 8.571186 2.661787 24.617846
v 8.530169 2.625523 24.637012
v 8.571186 2.644690 24.673277
v 8.542183 2.651165 24.623459
v 8.547505 2.657526 24.646883
v 8.542183 2.639076 24.662655
v 8.571186 2.664718 24.649101
v 8.571186 2.585616 24.704500
v 8.530169 2.566449 24.668236
v 8.571186 2.530186 24.687403
v 8.542183 2.580002 24.693878
v 8.547505 2.556579 24.700239
v 8.542183 2.540807 24.681789
v 8.571186 2.554360 24.707432
v 8.571186 1.406776 22.243380
v 8.571186 1.351345 22.226282
v 8.530169 1.370512 22.262547
v 8.571186 1.382601 22.223351
v 8.547505 1.380383 22.230543
v 8.542183 1.356959 22.236904
v 8.542183 1.396154 22.248993
v 8.571186 1.275175 22.312937
v 8.530169 1.311438 22.293770
v 8.571186 1.292272 22.257505
v 8.542183 1.285796 22.307322
v 8.547505 1.279436 22.283899
v 8.542183 1.297885 22.268127
v 8.571186 1.272243 22.281681
v 11.677898 2.661787 24.617846
v 11.677898 2.644690 24.673277
v 11.718916 2.625523 24.637012
v 11.677898 2.664718 24.649101
v 11.701580 2.657526 24.646883
v 11.706903 2.639076 24.662655
v 11.706903 2.651165 24.623459
v 11.677898 2.530186 24.687403
v 11.718916 2.566449 24.668236
v 11.677898 2.585616 24.704500
v 11.706903 2.540807 24.681789
v 11.701580 2.556579 24.700239
v 11.706903 2.580002 24.693878
v 11.677898 2.554360 24.707432
v 11.677898 1.406776 22.243380
v 11.718916 1.370512 22.262547
v 11.677898 1.351345 22.226282
v 11.706903 1.396154 22.248993
v 11.701580 1.380383 22.230543
v 11.706903 1.356959 22.236904
v 11.677898 1.382601 22.223351
v 11.677898 1.275175 22.312937
v 11.677898 1.292272 22.257505
v 11.718916 1.311438 22.293770
v 11.677898 1.272243 22.281681
v 11.701580 1.279436 22.283899
v 11.706903 1.297885 22.268127
v 11.706903 1.285796 22.307322
v 9.194856 -1.846671 24.449785
v 9.194856 -1.805654 24.490803
v 9.153838 -1.805654 24.449785
v 9.194856 -1.834657 24.478788
v 9.171174 -1.829335 24.473467
v 9.165852 -1.805653 24.478788
v 9.165852 -1.834657 24.449785
v 9.194856 -1.314492 24.490803
v 9.194856 -1.273475 24.449785
v 9.153838 -1.314492 24.449785
v 9.194856 -1.285488 24.478788
v 9.171174 -1.290810 24.473467
v 9.165852 -1.285488 24.449785
v 9.165852 -1.314492 24.478788
v 9.194856 -1.846671 22.531820
v 9.153838 -1.805654 22.531820
v 9.194856 -1.805654 22.490803
v 9.165852 -1.834658 22.531820
v 9.171174 -1.829336 22.508139
v 9.165852 -1.805654 22.502817
v 9.194856 -1.834658 22.502817
v 9.194856 -1.273474 22.531820
v 9.194856 -1.314491 22.490803
v 9.153838 -1.314491 22.531820
v 9.194856 -1.285488 22.502815
v 9.171174 -1.290811 22.508139
v 9.165852 -1.314491 22.502815
v 9.165852 -1.285488 22.531820
v 11.112821 -1.846671 24.449785
v 11.153838 -1.805654 24.449785
v 11.112821 -1.805654 24.490803
v 11.141825 -1.834657 24.449785
v 11.136502 -1.829335 24.473467
v 11.141825 -1.805654 24.478788
v 11.112821 -1.834657 24.478788
v 11.112821 -1.273475 24.449785
v 11.112821 -1.314492 24.490803
v 11.153838 -1.314492 24.449785
v 11.112821 -1.285488 24.478788
v 11.136502 -1.290810 24.473467
v 11.141825 -1.314492 24.478788
v 11.141825 -1.285488 24.449785
v 11.112821 -1.846671 22.531820
v 11.112821 -1.805654 22.490803
v 11.153838 -1.805654 22.531820
v 11.112821 -1.834658 22.502817
v 11.136502 -1.829336 22.508139
v 11.141825 -1.805654 22.502817
v 11.141825 -1.834658 22.531820
v 11.112821 -1.273474 22.531820
v 11.153838 -1.314491 22.531820
v 11.112821 -1.314491 22.490803
v 11.141825 -1.285488 22.531820
v 11.136502 -1.290811 22.508139
v 11.141825 -1.314491 22.502815
v 11.112821 -1.285488 22.502815
v 9.546097 -1.331637 24.098543
v 9.546097 -1.290619 24.139561
v 9.505079 -1.290619 24.098543
v 9.546097 -1.319623 24.127546
v 9.522415 -1.314300 24.122225
v 9.517093 -1.290619 24.127546
v 9.517093 -1.319623 24.098543
v 9.546097 -1.000787 24.139561
v 9.546097 -0.959770 24.098543
v 9.505079 -1.000787 24.098543
v 9.546097 -0.971784 24.127546
v 9.522415 -0.977106 24.122225
v 9.517093 -0.971784 24.098543
v 9.517093 -1.000787 24.127546
v 9.546097 -1.331637 22.883060
v 9.505079 -1.290620 22.883060
v 9.546097 -1.290620 22.842043
v 9.517093 -1.319623 22.883060
v 9.522415 -1.314301 22.859379
v 9.517093 -1.290619 22.854057
v 9.546097 -1.319623 22.854057
v 9.546097 -0.959771 22.883060
v 9.546097 -1.000788 22.842043
v 9.505079 -1.000788 22.883060
v 9.546097 -0.971784 22.854057
v 9.522415 -0.977106 22.859379
v 9.517093 -1.000788 22.854057
v 9.517093 -0.971784 22.883060
v 10.761580 -1.331637 24.098543
v 10.802597 -1.290619 24.098543
v 10.761580 -1.290619 24.139561
v 10.790583 -1.319623 24.098543
v 10.785261 -1.314300 24.122225
v 10.790583 -1.290619 24.127546
v 10.761580 -1.319623 24.127546
v 10.761580 -0.959770 24.098543
v 10.761580 -1.000787 24.139561
v 10.802597 -1.000787 24.098543
v 10.761580 -0.971784 24.127546
v 10.785261 -0.977106 24.122225
v 10.790583 -1.000787 24.127546
v 10.790583 -0.971784 24.098543
v 10.761580 -1.331637 22.883060
v 10.761580 -1.290620 22.842043
v 10.802597 -1.290620 22.883060
v 10.761580 -1.319623 22.854057
v 10.785261 -1.314301 22.859379
v 10.790583 -1.290619 22.854057
v 10.790583 -1.319623 22.883060
v 10.761580 -0.959771 22.883060
v 10.802597 -1.000788 22.883060
v 10.761580 -1.000788 22.842043
v 10.790583 -0.971784 22.883060
v 10.785261 -0.977106 22.859379
v 10.790583 -1.000788 22.854057
v 10.761580 -0.971784 22.854057
v 10.413986 -0.923368 23.189636
v 10.455003 -0.923368 23.230656
v 10.413986 -0.964385 23.230654
v 10.442989 -0.923368 23.201651
v 10.437667 -0.947049 23.206972
v 10.442989 -0.952371 23.230656
v 10.413986 -0.952371 23.201651
v 10.413986 -0.964385 23.750950
v 10.455003 -0.923367 23.750948
v 10.413986 -0.923367 23.791967
v 10.442989 -0.952371 23.750950
v 10.437668 -0.947049 23.774632
v 10.442989 -0.923367 23.779953
v 10.413986 -0.952371 23.779953
v 9.893690 -0.964385 23.230654
v 9.852673 -0.923368 23.230656
v 9.893690 -0.923368 23.189636
v 9.864686 -0.952371 23.230656
v 9.870008 -0.947049 23.206972
v 9.864686 -0.923368 23.201651
v 9.893690 -0.952371 23.201651
v 9.893690 -0.964385 23.750950
v 9.893690 -0.923367 23.791967
v 9.852673 -0.923367 23.750948
v 9.893690 -0.952371 23.779953
v 9.870008 -0.947049 23.774632
v 9.864686 -0.923368 23.779953
v 9.864686 -0.952371 23.750950
v 10.455003 1.899622 23.716642
v 10.413986 1.948148 23.720570
v 10.413986 1.926370 23.757320
v 10.442989 1.932379 23.718498
v 10.437667 1.940332 23.740767
v 10.413986 1.951293 23.747261
v 10.442989 1.916980 23.744484
v 10.455003 1.660070 23.265472
v 10.413986 1.643905 23.224224
v 10.413986 1.704153 23.261034
v 10.442989 1.652108 23.236355
v 10.437668 1.675579 23.240089
v 10.413986 1.678539 23.235247
v 10.442989 1.689614 23.259270
v 9.893690 1.926370 23.757320
v 9.893690 1.948148 23.720570
v 9.852673 1.899622 23.716642
v 9.893690 1.949737 23.746340
v 9.870008 1.938998 23.739977
v 9.864686 1.931388 23.714622
v 9.864686 1.913104 23.745476
v 9.852673 1.660070 23.265472
v 9.893690 1.704153 23.261034
v 9.893690 1.643905 23.224224
v 9.864686 1.690605 23.263374
v 9.870008 1.675065 23.240932
v 9.893690 1.679175 23.234205
v 9.864686 1.648003 23.237345
vn -0.1794 0.7714 -0.6106
vn -0.1794 0.9390 -0.2934
vn 0.1794 0.9390 -0.2934
vn 0.1794 0.7714 -0.6106
vn 0.1794 -0.9390 0.2934
vn 0.1794 -0.7714 0.6106
vn -0.1794 -0.7714 0.6106
vn -0.1794 -0.9390 0.2934
vn 0.1794 0.6106 0.7714
vn -0.1794 0.6106 0.7714
vn -0.1794 0.2934 0.9390
vn 0.1794 0.2934 0.9390
vn 0.9673 0.0748 -0.2424
vn 0.9673 0.2424 0.0748
vn 0.9673 -0.0748 0.2424
vn 0.9673 -0.2424 -0.0748
vn -0.1794 -0.9673 -0.1794
vn 0.1794 -0.9673 -0.1794
vn 0.1794 -0.9673 0.1794
vn -0.1794 -0.9673 0.1794
vn -0.9673 0.2424 0.0748
vn -0.9673 0.0748 -0.2424
vn -0.9673 -0.2424 -0.0747
vn -0.9673 -0.0748 0.2424
vn -0.1794 -0.2935 -0.9390
vn 0.1794 -0.2934 -0.9390
vn 0.1794 -0.6106 -0.7714
vn -0.1794 -0.6106 -0.7714
vn 0.1794 -0.1794 0.9673
vn 0.1794 0.1794 0.9673
vn -0.1794 0.1794 0.9673
vn -0.1794 -0.1794 0.9673
vn 0.9673 -0.1794 -0.1794
vn 0.9673 0.1794 -0.1794
vn 0.9673 0.1794 0.1794
vn 0.9673 -0.1794 0.1794
vn 0.1794 0.9673 -0.1794
vn -0.1794 0.9673 -0.1794
vn -0.1794 0.9673 0.1794
vn 0.1794 0.9673 0.1794
vn -0.9673 -0.1794 0.1794
vn -0.9673 0.1794 0.1794
vn -0.9673 0.1794 -0.1793
vn -0.9673 -0.1794 -0.1794
vn -0.1794 -0.1794 -0.9673
vn -0.1794 0.1794 -0.9673
vn 0.1794 0.1794 -0.9673
vn 0.1794 -0.1794 -0.9673
vn -0.9796 0.1738 0.1010
vn -0.9674 -0.1782 0.1802
vn -0.9197 -0.1567 0.3600
vn -0.9456 0.1912 0.2632
vn -0.9673 0.1794 -0.1794
vn 0.2086 0.1959 0.9582
vn 0.1829 -0.1736 0.9677
vn 0.3671 -0.1524 0.9176
vn 0.4114 0.1199 0.9035
vn 0.1794 -0.1729 -0.9685
vn 0.1711 0.1344 -0.9760
vn 0.3238 0.1529 -0.9337
vn 0.3604 -0.1518 -0.9204
vn 0.2086 0.9347 -0.2878
vn 0.1752 0.8064 -0.5649
vn -0.1882 0.8050 -0.5626
vn -0.2133 0.9385 -0.2716
vn 0.9671 -0.1782 0.1816
vn 0.9674 -0.1781 -0.1802
vn 0.9630 0.1411 -0.2298
vn 0.9808 0.1679 0.0997
vn -0.3600 0.8869 -0.2895
vn -0.3251 0.9370 -0.1276
vn -0.1585 0.9811 -0.1114
vn -0.9858 0.0785 0.1485
vn -0.9391 0.1606 0.3039
vn -0.8881 0.4393 0.1355
vn -0.9194 0.3923 -0.0281
vn -0.1680 0.4606 0.8715
vn -0.1585 0.7479 0.6446
vn -0.3251 0.7024 0.6332
vn -0.3438 0.4388 0.8302
vn -0.3251 0.1276 0.9370
vn -0.1585 0.1113 0.9811
vn -0.9194 -0.2442 0.3083
vn -0.8881 -0.1355 0.4393
vn -0.1585 -0.6447 0.7479
vn -0.3250 -0.6333 0.7023
vn -0.3600 -0.7388 0.5697
vn -0.1585 0.6447 -0.7478
vn -0.3250 0.6333 -0.7023
vn -0.3599 0.7388 -0.5697
vn -0.1680 -0.4607 -0.8715
vn -0.3437 -0.4389 -0.8302
vn -0.3251 -0.1276 -0.9370
vn -0.1585 -0.1114 -0.9811
vn -0.9858 -0.0785 -0.1485
vn -0.9194 0.2442 -0.3083
vn -0.8881 0.1355 -0.4393
vn -0.9391 -0.1606 -0.3039
vn -0.3600 -0.8869 0.2895
vn -0.3251 -0.9371 0.1276
vn -0.1585 -0.9811 0.1114
vn -0.8881 -0.4393 -0.1355
vn -0.9194 -0.3923 0.0281
vn -0.1585 -0.7479 -0.6446
vn -0.3251 -0.7024 -0.6332
vn 0.1585 0.9811 -0.1114
vn 0.3251 0.9370 -0.1276
vn 0.3600 0.8869 -0.2895
vn 0.1680 0.4607 0.8715
vn 0.3438 0.4388 0.8302
vn 0.3251 0.7024 0.6332
vn 0.1585 0.7479 0.6446
vn 0.9858 0.0785 0.1485
vn 0.9194 0.3923 -0.0281
vn 0.8881 0.4393 0.1355
vn 0.9391 0.1606 0.3039
vn 0.3600 -0.7388 0.5697
vn 0.3250 -0.6333 0.7023
vn 0.1585 -0.6447 0.7478
vn 0.8881 -0.1355 0.4393
vn 0.9194 -0.2442 0.3083
vn 0.1585 0.1114 0.9811
vn 0.3251 0.1276 0.9370
vn 0.3600 0.7388 -0.5697
vn 0.3250 0.6333 -0.7023
vn 0.1585 0.6447 -0.7478
vn 0.9858 -0.0785 -0.1485
vn 0.9391 -0.1606 -0.3039
vn 0.8881 0.1355 -0.4393
vn 0.9194 0.2442 -0.3083
vn 0.1680 -0.4607 -0.8715
vn 0.1585 -0.1114 -0.9811
vn 0.3251 -0.1276 -0.9370
vn 0.3437 -0.4389 -0.8302
vn 0.1585 -0.9811 0.1114
vn 0.3251 -0.9370 0.1276
vn 0.3600 -0.8869 0.2895
vn 0.3251 -0.7024 -0.6332
vn 0.1585 -0.7479 -0.6446
vn 0.9194 -0.3923 0.0281
vn 0.8881 -0.4393 -0.1355
vn -0.9194 0.3083 0.2442
vn -0.3251 0.7024 0.6333
vn -0.3600 0.5697 0.7388
vn -0.3600 0.2896 0.8869
vn -0.3251 0.1277 0.9370
vn -0.1585 0.1114 0.9811
vn -0.8881 -0.1355 0.4392
vn -0.9194 0.0281 0.3923
vn -0.1585 -0.6446 0.7479
vn -0.3251 -0.6332 0.7024
vn -0.1585 0.6447 -0.7479
vn -0.3251 0.6333 -0.7024
vn -0.3600 0.7388 -0.5697
vn -0.3600 -0.2896 -0.8869
vn -0.3251 -0.1277 -0.9370
vn -0.9194 -0.0281 -0.3923
vn -0.3251 -0.9370 0.1276
vn -0.9194 -0.3083 -0.2442
vn -0.3251 -0.7024 -0.6333
vn -0.3600 -0.5697 -0.7388
vn 0.3250 0.9370 -0.1276
vn 0.3600 0.5698 0.7388
vn 0.9194 0.3083 0.2442
vn 0.3250 -0.6333 0.7024
vn 0.1585 -0.6447 0.7479
vn 0.9194 0.0281 0.3923
vn 0.3600 0.2895 0.8869
vn 0.3251 0.6333 -0.7024
vn 0.1585 0.6447 -0.7479
vn 0.9194 -0.0281 -0.3923
vn 0.8880 0.1355 -0.4393
vn 0.9194 0.2442 -0.3084
vn 0.3251 -0.1277 -0.9370
vn 0.3600 -0.2895 -0.8869
vn 0.3600 -0.5697 -0.7388
vn 0.9194 -0.3083 -0.2442
vn -0.1585 -0.9194 0.3600
vn -0.3251 -0.8881 0.3251
vn -0.3600 -0.9194 0.1585
vn -0.3600 -0.1585 0.9194
vn -0.3251 -0.3251 0.8881
vn -0.1585 -0.3600 0.9194
vn -0.9194 -0.3600 0.1585
vn -0.8881 -0.3251 0.3250
vn -0.9194 -0.1585 0.3600
vn -0.1585 0.3599 0.9194
vn -0.3250 0.3250 0.8881
vn -0.3600 0.1585 0.9194
vn -0.3600 0.9194 0.1585
vn -0.3251 0.8881 0.3251
vn -0.1585 0.9194 0.3600
vn -0.9194 0.1585 0.3600
vn -0.8881 0.3251 0.3250
vn -0.9194 0.3600 0.1585
vn -0.3599 -0.9194 -0.1585
vn -0.3250 -0.8881 -0.3251
vn -0.1585 -0.9194 -0.3600
vn -0.9194 -0.1585 -0.3599
vn -0.8881 -0.3251 -0.3250
vn -0.9194 -0.3600 -0.1585
vn -0.1585 -0.3600 -0.9194
vn -0.3250 -0.3250 -0.8881
vn -0.3599 -0.1585 -0.9194
vn -0.1585 0.9194 -0.3600
vn -0.3251 0.8881 -0.3251
vn -0.3600 0.9194 -0.1585
vn -0.3600 0.1585 -0.9194
vn -0.3251 0.3251 -0.8881
vn -0.1585 0.3600 -0.9194
vn -0.9194 0.3600 -0.1585
vn -0.8881 0.3251 -0.3250
vn -0.9194 0.1585 -0.3599
vn 0.3600 -0.9194 0.1585
vn 0.3251 -0.8881 0.3251
vn 0.1585 -0.9194 0.3600
vn 0.9194 -0.1585 0.3599
vn 0.8881 -0.3251 0.3250
vn 0.9194 -0.3600 0.1585
vn 0.1585 -0.3599 0.9194
vn 0.3250 -0.3250 0.8881
vn 0.3600 -0.1585 0.9194
vn 0.1585 0.9194 0.3600
vn 0.3250 0.8881 0.3251
vn 0.3600 0.9194 0.1585
vn 0.3600 0.1585 0.9194
vn 0.3250 0.3251 0.8881
vn 0.1585 0.3600 0.9194
vn 0.9194 0.3600 0.1585
vn 0.8881 0.3251 0.3250
vn 0.9194 0.1585 0.3599
vn 0.1585 -0.9194 -0.3600
vn 0.3250 -0.8881 -0.3251
vn 0.3599 -0.9194 -0.1585
vn 0.3600 -0.1585 -0.9194
vn 0.3251 -0.3250 -0.8881
vn 0.1585 -0.3600 -0.9194
vn 0.9194 -0.3600 -0.1585
vn 0.8881 -0.3251 -0.3250
vn 0.9194 -0.1585 -0.3600
vn 0.3600 0.9194 -0.1585
vn 0.3251 0.8881 -0.3251
vn 0.1585 0.9194 -0.3600
vn 0.9194 0.1585 -0.3599
vn 0.8881 0.3251 -0.3250
vn 0.9194 0.3600 -0.1585
vn 0.1585 0.3600 -0.9194
vn 0.3250 0.3251 -0.8881
vn 0.3600 0.1585 -0.9194
vn -0.3251 -0.8881 0.3250
vn -0.3251 -0.3250 0.8881
vn -0.1585 -0.3599 0.9194
vn -0.8881 -0.3251 0.3251
vn -0.3251 0.3250 0.8881
vn -0.3599 0.9194 0.1585
vn -0.3250 0.8881 0.3250
vn -0.1585 0.9194 0.3599
vn -0.8881 0.3251 0.3251
vn -0.3600 -0.9194 -0.1585
vn -0.3250 -0.8881 -0.3250
vn -0.9194 -0.1585 -0.3600
vn -0.8881 -0.3250 -0.3251
vn -0.9194 -0.3599 -0.1585
vn -0.3251 -0.3250 -0.8881
vn -0.3600 -0.1585 -0.9194
vn -0.3250 0.8881 -0.3251
vn -0.3599 0.9194 -0.1585
vn -0.9194 0.3599 -0.1585
vn -0.8881 0.3250 -0.3251
vn -0.9194 0.1585 -0.3600
vn 0.3250 -0.8881 0.3250
vn 0.9194 -0.1585 0.3600
vn 0.8881 -0.3251 0.3251
vn 0.3251 -0.3250 0.8881
vn 0.3250 0.8881 0.3250
vn 0.3599 0.9194 0.1585
vn 0.3251 0.3250 0.8881
vn 0.1585 0.3599 0.9194
vn 0.8881 0.3250 0.3251
vn 0.9194 0.1585 0.3600
vn 0.3600 -0.9194 -0.1585
vn 0.3250 -0.3251 -0.8881
vn 0.3599 0.9194 -0.1585
vn 0.3250 0.8881 -0.3250
vn 0.9194 0.1585 -0.3600
vn 0.8881 0.3250 -0.3251
vn 0.3251 0.3250 -0.8881
vn 0.9197 -0.1565 -0.3600
vn 0.3251 -0.8881 -0.3250
vn 0.3599 -0.9194 0.1585
vn 0.9186 -0.1566 0.3628
vn 0.8881 -0.3250 0.3250
vn 0.9194 -0.3599 0.1585
vn 0.1585 -0.3600 0.9194
vn -0.1585 -0.9194 -0.3599
vn -0.9671 -0.1781 -0.1819
vn -0.9185 -0.1564 -0.3631
vn -0.1833 -0.1730 -0.9677
vn -0.3679 -0.1518 -0.9174
vn -0.3250 -0.8881 0.3250
vn -0.1794 -0.1735 0.9684
vn -0.3603 -0.1525 0.9203
vn -0.9194 -0.3599 0.1585
vn -0.8881 -0.3250 0.3251
vn 0.9470 0.3168 0.0529
vn 0.9390 0.2959 0.1754
vn 0.9470 0.1984 0.2525
vn 0.1957 0.9730 -0.1224
vn 0.4267 0.8909 -0.1555
vn 0.4116 0.8503 -0.3280
vn 0.4267 0.2914 0.8562
vn 0.1957 0.3599 0.9122
vn 0.9073 0.1117 -0.4055
vn 0.8640 0.2625 -0.4296
vn 0.9059 0.3126 -0.2859
vn 0.1405 0.5162 -0.8449
vn 0.2725 0.2602 -0.9263
vn 0.3297 0.7592 -0.5612
vn 0.2725 0.7055 -0.6543
vn -0.2104 0.2122 0.9543
vn -0.2049 0.3763 0.9036
vn -0.4384 0.3273 0.8370
vn -0.4076 0.1249 0.9046
vn -0.4166 0.8497 -0.3232
vn -0.4384 0.8914 -0.1148
vn -0.2049 0.9733 -0.1038
vn -0.9352 0.3047 0.1806
vn -0.9449 0.3248 0.0404
vn -0.9595 0.1468 -0.2404
vn -0.9053 0.3185 -0.2811
vn -0.8564 0.2692 -0.4405
vn -0.9053 0.1045 -0.4116
vn -0.1756 0.5133 -0.8401
vn -0.3434 0.7069 -0.6184
vn -0.3710 0.7608 -0.5324
vn -0.1882 0.1327 -0.9731
vn -0.3711 0.1258 -0.9200
vn -0.3433 0.2276 -0.9112
vt 0.317783 0.365535
vt 0.016646 0.365490
vt 0.016646 0.016570
vt 0.317783 0.016616
vt 0.950204 0.663716
vt 0.942595 0.663716
vt 0.942595 0.356719
vt 0.950204 0.356719
vt 0.869505 0.016574
vt 0.869505 0.365495
vt 0.862103 0.365495
vt 0.862103 0.016574
vt 0.512647 0.948805
vt 0.512646 0.647185
vt 0.520151 0.647185
vt 0.520151 0.948805
vt 0.554675 0.398642
vt 0.554675 0.614053
vt 0.351110 0.614053
vt 0.351110 0.398642
vt 0.648717 0.365494
vt 0.350604 0.365494
vt 0.350604 0.016574
vt 0.648717 0.016574
vt 0.180804 0.647459
vt 0.180805 0.949079
vt 0.173300 0.949079
vt 0.173300 0.647460
vt 0.909511 0.016575
vt 0.909511 0.365496
vt 0.902113 0.365495
vt 0.902113 0.016574
vt 0.854993 0.647188
vt 0.907349 0.647188
vt 0.907349 0.862599
vt 0.854993 0.862599
vt 0.770363 0.398659
vt 0.825526 0.398657
vt 0.825526 0.614054
vt 0.770363 0.614056
vt 0.480116 0.647200
vt 0.480116 0.783713
vt 0.351110 0.783713
vt 0.351109 0.647200
vt 0.211655 0.398683
vt 0.211655 0.614093
vt 0.015719 0.614325
vt 0.015719 0.398915
vt 0.828774 0.231987
vt 0.773611 0.231985
vt 0.773611 0.016589
vt 0.828774 0.016591
vt 0.770618 0.647197
vt 0.823021 0.647189
vt 0.823021 0.862599
vt 0.770618 0.862607
vt 0.858079 0.477527
vt 0.888973 0.477527
vt 0.888973 0.614040
vt 0.858079 0.614040
vt 0.678780 0.735964
vt 0.711332 0.735963
vt 0.711332 0.872467
vt 0.678780 0.872468
vt 0.245052 0.399814
vt 0.245053 0.716891
vt 0.241811 0.716935
vt 0.241811 0.398343
vt 0.139891 0.647472
vt 0.139891 0.783985
vt 0.015719 0.784132
vt 0.015719 0.647619
vt 0.277616 0.886563
vt 0.245065 0.886562
vt 0.245065 0.750058
vt 0.277616 0.750059
vt 0.587461 0.750151
vt 0.618384 0.750146
vt 0.618384 0.886659
vt 0.587461 0.886664
vt 0.678776 0.398397
vt 0.678776 0.703391
vt 0.675519 0.702966
vt 0.675519 0.398944
vt 0.740468 0.289434
vt 0.740468 0.016739
vt 0.743725 0.016289
vt 0.743725 0.289856
vt 0.350463 0.816855
vt 0.408794 0.816941
vt 0.408718 0.875376
vt 0.350386 0.875290
vt 0.645644 0.716994
vt 0.587217 0.716262
vt 0.594750 0.426185
vt 0.645750 0.399917
vt 0.773877 0.265118
vt 0.829099 0.265118
vt 0.829099 0.323554
vt 0.773877 0.323554
vt 0.942911 0.323566
vt 0.942833 0.326827
vt 0.940144 0.326231
vt 0.939581 0.323569
vt 0.682028 0.322825
vt 0.682032 0.319583
vt 0.684693 0.320187
vt 0.685289 0.322840
vt 0.553473 0.954197
vt 0.556463 0.954197
vt 0.555775 0.956857
vt 0.553251 0.957455
vt 0.550529 0.956857
vt 0.550038 0.954197
vt 0.678774 0.322841
vt 0.679374 0.320188
vt 0.939581 0.356719
vt 0.940263 0.354059
vt 0.942801 0.353461
vt 0.950597 0.323568
vt 0.953771 0.323572
vt 0.953140 0.326233
vt 0.950519 0.326828
vt 0.983246 0.356719
vt 0.983472 0.353461
vt 0.986195 0.354059
vt 0.986684 0.356719
vt 0.682028 0.330523
vt 0.685289 0.330538
vt 0.684694 0.333205
vt 0.682032 0.333796
vt 0.950409 0.353461
vt 0.953129 0.354059
vt 0.953629 0.356719
vt 0.679374 0.333205
vt 0.678774 0.330539
vt 0.980261 0.356718
vt 0.980951 0.354058
vt 0.942911 0.016570
vt 0.939581 0.016573
vt 0.940144 0.013915
vt 0.942833 0.013316
vt 0.553473 0.647200
vt 0.553251 0.643943
vt 0.555775 0.644540
vt 0.556463 0.647200
vt 0.715183 0.322825
vt 0.711922 0.322840
vt 0.712518 0.320188
vt 0.715179 0.319583
vt 0.942801 0.666973
vt 0.940263 0.666375
vt 0.939581 0.663716
vt 0.717838 0.320188
vt 0.718437 0.322840
vt 0.550038 0.647200
vt 0.550529 0.644540
vt 0.950597 0.016571
vt 0.950519 0.013317
vt 0.953140 0.013917
vt 0.953771 0.016575
vt 0.715183 0.330523
vt 0.715179 0.333796
vt 0.712518 0.333205
vt 0.711922 0.330539
vt 0.983246 0.663716
vt 0.986684 0.663716
vt 0.986195 0.666375
vt 0.983472 0.666973
vt 0.953629 0.663716
vt 0.953129 0.666376
vt 0.950409 0.666973
vt 0.980951 0.666375
vt 0.980261 0.663716
vt 0.718437 0.330539
vt 0.717838 0.333205
vt 0.016568 0.368751
vt 0.013879 0.368154
vt 0.013316 0.365493
vt 0.180809 0.644218
vt 0.183470 0.644822
vt 0.184066 0.647475
vt 0.872495 0.365495
vt 0.871807 0.368154
vt 0.869282 0.368752
vt 0.861881 0.368752
vt 0.859159 0.368154
vt 0.858668 0.365495
vt 0.170047 0.647475
vt 0.170646 0.644823
vt 0.173304 0.644218
vt 0.347590 0.016574
vt 0.348272 0.013914
vt 0.350810 0.013316
vt 0.320957 0.365539
vt 0.320326 0.368200
vt 0.317705 0.368796
vt 0.909737 0.013317
vt 0.912459 0.013915
vt 0.912948 0.016575
vt 0.184066 0.949094
vt 0.183470 0.951761
vt 0.180809 0.952351
vt 0.648923 0.013316
vt 0.651642 0.013914
vt 0.652142 0.016574
vt 0.173304 0.952352
vt 0.170646 0.951761
vt 0.170047 0.949094
vt 0.899128 0.016573
vt 0.899817 0.013914
vt 0.902339 0.013316
vt 0.013316 0.016573
vt 0.013879 0.013915
vt 0.016568 0.013316
vt 0.869282 0.013316
vt 0.871807 0.013914
vt 0.872495 0.016574
vt 0.509386 0.647200
vt 0.509982 0.644547
vt 0.512643 0.643943
vt 0.350810 0.368752
vt 0.348272 0.368154
vt 0.347590 0.365494
vt 0.520148 0.643943
vt 0.522806 0.644548
vt 0.523405 0.647200
vt 0.858668 0.016574
vt 0.859159 0.013914
vt 0.861881 0.013316
vt 0.317705 0.013361
vt 0.320326 0.013961
vt 0.320957 0.016620
vt 0.512643 0.952077
vt 0.509982 0.951486
vt 0.509386 0.948820
vt 0.912948 0.365495
vt 0.912459 0.368155
vt 0.909737 0.368753
vt 0.652142 0.365494
vt 0.651642 0.368154
vt 0.648923 0.368752
vt 0.902339 0.368752
vt 0.899817 0.368154
vt 0.899128 0.365494
vt 0.523405 0.948820
vt 0.522806 0.951487
vt 0.520148 0.952077
vt 0.347590 0.398642
vt 0.347959 0.395982
vt 0.350668 0.395385
vt 0.855418 0.865856
vt 0.853082 0.865259
vt 0.852327 0.862599
vt 0.832035 0.231971
vt 0.831439 0.234624
vt 0.828778 0.235228
vt 0.910865 0.862599
vt 0.910486 0.865258
vt 0.907773 0.865856
vt 0.016279 0.617585
vt 0.014108 0.616992
vt 0.013316 0.614331
vt 0.773615 0.235226
vt 0.770957 0.234622
vt 0.770357 0.231969
vt 0.554234 0.395385
vt 0.556552 0.395982
vt 0.557312 0.398642
vt 0.828778 0.013318
vt 0.831439 0.013909
vt 0.832035 0.016575
vt 0.767102 0.647197
vt 0.767483 0.644537
vt 0.770196 0.643939
vt 0.215179 0.614092
vt 0.214883 0.616754
vt 0.212216 0.617353
vt 0.822600 0.643931
vt 0.824939 0.644528
vt 0.825694 0.647188
vt 0.770357 0.016573
vt 0.770957 0.013907
vt 0.773615 0.013316
vt 0.350668 0.617310
vt 0.347959 0.616712
vt 0.347590 0.614053
vt 0.770359 0.617298
vt 0.767698 0.616694
vt 0.767102 0.614041
vt 0.852327 0.647188
vt 0.853082 0.644529
vt 0.855418 0.643931
vt 0.013316 0.398922
vt 0.014108 0.396263
vt 0.016279 0.395661
vt 0.907773 0.643931
vt 0.910486 0.644528
vt 0.910865 0.647188
vt 0.828780 0.614039
vt 0.828180 0.616692
vt 0.825522 0.617296
vt 0.557312 0.614053
vt 0.556552 0.616712
vt 0.554234 0.617310
vt 0.770196 0.865864
vt 0.767483 0.865266
vt 0.767102 0.862607
vt 0.767102 0.398644
vt 0.767697 0.395978
vt 0.770359 0.395387
vt 0.212215 0.395429
vt 0.214883 0.396025
vt 0.215179 0.398683
vt 0.825522 0.395384
vt 0.828180 0.395976
vt 0.828780 0.398642
vt 0.825694 0.862598
vt 0.824939 0.865258
vt 0.822600 0.865856
vt 0.347590 0.647200
vt 0.347959 0.644540
vt 0.350668 0.643943
vt 0.858504 0.617298
vt 0.856168 0.616700
vt 0.855412 0.614040
vt 0.280878 0.886547
vt 0.280281 0.889200
vt 0.277620 0.889804
vt 0.892490 0.614040
vt 0.892111 0.616700
vt 0.889398 0.617298
vt 0.016279 0.787393
vt 0.014108 0.786799
vt 0.013316 0.784139
vt 0.245069 0.889803
vt 0.242411 0.889198
vt 0.241811 0.886546
vt 0.479675 0.643943
vt 0.481993 0.644540
vt 0.482753 0.647200
vt 0.277620 0.746786
vt 0.280281 0.747377
vt 0.280878 0.750043
vt 0.583945 0.750151
vt 0.584326 0.747491
vt 0.587039 0.746893
vt 0.143414 0.783984
vt 0.143119 0.786646
vt 0.140451 0.787246
vt 0.617962 0.746888
vt 0.620302 0.747485
vt 0.621057 0.750145
vt 0.241811 0.750042
vt 0.242411 0.747375
vt 0.245069 0.746785
vt 0.350668 0.786971
vt 0.347959 0.786373
vt 0.347590 0.783713
vt 0.678776 0.875710
vt 0.676114 0.875106
vt 0.675519 0.872453
vt 0.855412 0.477527
vt 0.856168 0.474868
vt 0.858504 0.474270
vt 0.013316 0.647626
vt 0.014109 0.644967
vt 0.016279 0.644365
vt 0.889398 0.474270
vt 0.892111 0.474867
vt 0.892490 0.477527
vt 0.714585 0.872452
vt 0.713985 0.875105
vt 0.711327 0.875709
vt 0.482753 0.783713
vt 0.481993 0.786373
vt 0.479675 0.786971
vt 0.587039 0.889921
vt 0.584326 0.889323
vt 0.583945 0.886664
vt 0.675519 0.735949
vt 0.676114 0.733282
vt 0.678776 0.732691
vt 0.140451 0.644218
vt 0.143119 0.644814
vt 0.143414 0.647472
vt 0.711327 0.732690
vt 0.713985 0.733281
vt 0.714585 0.735947
vt 0.621057 0.886658
vt 0.620302 0.889318
vt 0.617962 0.889916
vt 0.743127 0.292569
vt 0.740467 0.292950
vt 0.587161 0.719524
vt 0.584502 0.718894
vt 0.583945 0.716226
vt 0.831736 0.323554
vt 0.830976 0.326213
vt 0.828658 0.326811
vt 0.773436 0.326811
vt 0.770727 0.326214
vt 0.770357 0.323554
vt 0.648886 0.717039
vt 0.648248 0.719693
vt 0.645588 0.720255
vt 0.678776 0.706057
vt 0.676116 0.705302
vt 0.828658 0.261861
vt 0.830976 0.262459
vt 0.831736 0.265118
vt 0.303480 0.716179
vt 0.306752 0.716143
vt 0.306194 0.718812
vt 0.303535 0.719440
vt 0.682033 0.289425
vt 0.682032 0.292941
vt 0.679372 0.292559
vt 0.678774 0.289846
vt 0.770357 0.265118
vt 0.770727 0.262459
vt 0.773435 0.261861
vt 0.737211 0.703391
vt 0.740469 0.702966
vt 0.739871 0.705302
vt 0.737212 0.706058
vt 0.245108 0.720152
vt 0.242448 0.719588
vt 0.645989 0.396245
vt 0.648495 0.395385
vt 0.648886 0.398011
vt 0.347590 0.816854
vt 0.348768 0.814198
vt 0.351415 0.813603
vt 0.676116 0.396323
vt 0.678776 0.395385
vt 0.591453 0.427042
vt 0.591899 0.424413
vt 0.594079 0.422862
vt 0.740467 0.013430
vt 0.743127 0.013916
vt 0.409657 0.813688
vt 0.412271 0.814291
vt 0.412624 0.816949
vt 0.737212 0.398397
vt 0.737212 0.395518
vt 0.739871 0.396438
vt 0.740469 0.399392
vt 0.351772 0.878554
vt 0.348827 0.877953
vt 0.347680 0.875290
vt 0.242401 0.395429
vt 0.245251 0.396247
vt 0.296044 0.426099
vt 0.296253 0.422670
vt 0.298802 0.424386
vt 0.299234 0.427419
vt 0.412624 0.875384
vt 0.412125 0.878045
vt 0.409107 0.878638
vt 0.682033 0.016729
vt 0.678774 0.016752
vt 0.679372 0.013990
vt 0.682032 0.013316
s 1
f 59/1/1 45/2/2 73/3/3 87/4/4
f 39/5/5 29/6/6 7/7/7 18/8/8
f 74/9/9 47/10/10 52/11/11 82/12/12
f 88/13/13 75/14/14 81/15/15 96/16/16
f 115/17/17 143/18/18 129/19/19 101/20/20
f 94/21/5 80/22/6 54/23/7 66/24/8
f 46/25/21 61/26/22 67/27/23 53/28/24
f 60/29/25 89/30/26 95/31/27 68/32/28
f 131/33/29 137/34/30 108/35/31 102/36/32
f 145/37/33 151/38/34 138/39/35 130/40/36
f 171/41/17 199/42/18 185/43/19 157/44/20
f 150/45/37 122/46/38 109/47/39 136/48/40
f 103/49/41 110/50/42 124/51/43 116/52/44
f 117/53/45 123/54/46 152/55/47 144/56/48
f 187/57/29 193/58/30 164/59/31 158/60/32
f 201/61/33 207/62/34 194/63/35 186/64/36
f 257/65/49 236/66/50 239/67/51 261/68/52
f 206/69/37 178/70/38 165/71/39 192/72/40
f 159/73/41 166/74/42 180/75/53 172/76/44
f 173/77/45 179/78/46 208/79/47 200/80/48
f 243/81/54 222/82/55 225/83/56 247/84/57
f 213/85/58 249/86/59 251/87/60 216/88/61
f 242/89/62 250/90/63 263/91/64 256/92/65
f 221/93/66 214/94/67 248/95/68 241/96/69
f 234/97/20 227/98/17 215/99/18 220/100/19
f 1/101/2 3/102/70 4/103/71 5/104/72
f 6/105/73 8/106/74 4/107/75 3/108/76
f 2/109/77 5/110/78 4/111/79 8/112/80
f 2/109/77 8/112/80 9/113/81 11/114/82
f 6/105/73 10/115/83 9/116/84 8/106/74
f 7/7/7 11/117/85 9/118/86 10/119/87
f 12/120/1 14/121/88 15/122/89 17/123/90
f 19/124/91 16/125/92 15/126/93 14/127/94
f 13/128/95 17/129/96 15/130/97 16/131/98
f 18/8/8 20/132/99 21/133/100 22/134/101
f 13/128/95 16/131/98 21/135/102 20/136/103
f 19/124/91 22/137/104 21/138/105 16/125/92
f 23/139/3 25/140/106 26/141/107 28/142/108
f 24/143/109 27/144/110 26/145/111 25/146/112
f 30/147/113 28/148/114 26/149/115 27/150/116
f 29/6/6 31/151/117 32/152/118 33/153/119
f 30/147/113 27/150/116 32/154/120 31/155/121
f 24/143/109 33/156/122 32/157/123 27/144/110
f 34/158/4 36/159/124 37/160/125 38/161/126
f 40/162/127 43/163/128 37/164/129 36/165/130
f 35/166/131 38/167/132 37/168/133 43/169/134
f 39/5/5 41/170/135 42/171/136 44/172/137
f 35/166/131 43/169/134 42/173/138 41/174/139
f 40/162/127 44/175/140 42/176/141 43/163/128
f 45/2/2 48/177/70 49/178/71 51/179/72
f 46/25/21 50/180/142 49/181/75 48/182/76
f 47/10/10 51/183/78 49/184/143 50/185/144
f 52/11/11 55/186/145 56/187/146 58/188/147
f 53/28/24 57/189/83 56/190/148 55/191/149
f 54/23/7 58/192/150 56/193/151 57/194/87
f 59/1/1 62/195/152 63/196/153 65/197/154
f 60/29/25 64/198/155 63/199/156 62/200/94
f 61/26/22 65/201/96 63/202/97 64/203/157
f 66/24/8 69/204/99 70/205/158 72/206/101
f 67/27/23 71/207/159 70/208/102 69/209/103
f 68/32/28 72/210/104 70/211/160 71/212/161
f 73/3/3 76/213/106 77/214/162 79/215/108
f 74/9/9 78/216/163 77/217/111 76/218/112
f 75/14/14 79/219/114 77/220/115 78/221/164
f 80/22/6 83/222/117 84/223/165 86/224/166
f 81/15/15 85/225/167 84/226/120 83/227/121
f 82/12/12 86/228/122 84/229/123 85/230/168
f 87/4/4 90/231/124 91/232/169 93/233/170
f 88/13/13 92/234/171 91/235/172 90/236/173
f 89/30/26 93/237/132 91/238/174 92/239/175
f 94/21/5 97/240/135 98/241/136 100/242/137
f 95/31/27 99/243/176 98/244/138 97/245/139
f 96/16/16 100/246/140 98/247/141 99/248/177
f 101/20/20 104/249/178 105/250/179 107/251/180
f 102/36/32 106/252/181 105/253/182 104/254/183
f 103/49/41 107/255/184 105/256/185 106/257/186
f 108/35/31 111/258/187 112/259/188 114/260/189
f 109/47/39 113/261/190 112/262/191 111/263/192
f 110/50/42 114/264/193 112/265/194 113/266/195
f 115/17/17 118/267/196 119/268/197 121/269/198
f 116/52/44 120/270/199 119/271/200 118/272/201
f 117/53/45 121/273/202 119/274/203 120/275/204
f 122/46/38 125/276/205 126/277/206 128/278/207
f 123/54/46 127/279/208 126/280/209 125/281/210
f 124/51/43 128/282/211 126/283/212 127/284/213
f 129/19/19 132/285/214 133/286/215 135/287/216
f 130/40/36 134/288/217 133/289/218 132/290/219
f 131/33/29 135/291/220 133/292/221 134/293/222
f 136/48/40 139/294/223 140/295/224 142/296/225
f 137/34/30 141/297/226 140/298/227 139/299/228
f 138/39/35 142/300/229 140/301/230 141/302/231
f 143/18/18 146/303/232 147/304/233 149/305/234
f 144/56/48 148/306/235 147/307/236 146/308/237
f 145/37/33 149/309/238 147/310/239 148/311/240
f 150/45/37 153/312/241 154/313/242 156/314/243
f 151/38/34 155/315/244 154/316/245 153/317/246
f 152/55/47 156/318/247 154/319/248 155/320/249
f 157/44/20 160/321/178 161/322/250 163/323/180
f 158/60/32 162/324/181 161/325/251 160/326/252
f 159/73/41 163/327/184 161/328/253 162/329/186
f 164/59/31 167/330/187 168/331/254 170/332/189
f 165/71/39 169/333/255 168/334/256 167/335/257
f 166/74/42 170/336/193 168/337/258 169/338/195
f 171/41/17 174/339/259 175/340/260 177/341/198
f 172/76/44 176/342/261 175/343/262 174/344/263
f 173/77/45 177/345/202 175/346/264 176/347/265
f 178/70/38 181/348/205 182/349/266 184/350/267
f 179/78/46 183/351/208 182/352/209 181/353/210
f 180/75/53 184/354/268 182/355/269 183/356/270
f 185/43/19 188/357/214 189/358/271 191/359/216
f 186/64/36 190/360/272 189/361/273 188/362/219
f 187/57/29 191/363/220 189/364/274 190/365/222
f 192/72/40 195/366/223 196/367/275 198/368/276
f 193/58/30 197/369/226 196/370/277 195/371/278
f 194/63/35 198/372/229 196/373/279 197/374/280
f 199/42/18 202/375/232 203/376/233 205/377/281
f 200/80/48 204/378/235 203/379/282 202/380/237
f 201/61/33 205/381/238 203/382/239 204/383/240
f 206/69/37 209/384/283 210/385/284 212/386/243
f 207/62/34 211/387/285 210/388/286 209/389/246
f 208/79/47 212/390/247 210/391/287 211/392/249
f 213/85/58 216/88/61 217/393/236 219/394/237
f 214/94/67 218/395/238 217/396/239 216/397/288
f 215/99/18 219/398/232 217/399/289 218/400/281
f 220/100/19 223/401/290 224/402/271 226/403/216
f 221/93/66 225/404/291 224/405/292 223/406/293
f 222/82/55 226/407/294 224/408/274 225/83/56
f 227/98/17 230/409/196 231/410/260 233/411/295
f 228/412/296 232/413/297 231/414/262 230/415/201
f 229/416/298 233/417/202 231/418/264 232/419/299
f 234/97/20 237/420/178 238/421/300 240/422/180
f 235/423/301 239/424/302 238/425/182 237/426/183
f 236/66/50 240/427/303 238/428/304 239/67/51
f 241/96/69 244/429/305 245/430/306 247/431/307
f 242/89/62 246/432/308 245/433/309 244/434/310
f 243/81/54 247/84/57 245/435/311 246/436/312
f 248/95/68 251/437/313 252/438/314 254/439/315
f 249/86/59 253/440/316 252/441/317 251/87/60
f 250/90/63 254/442/318 252/443/319 253/444/316
f 255/445/320 258/446/321 259/447/322 261/448/323
f 256/92/65 260/449/324 259/450/325 258/451/326
f 257/65/49 261/68/52 259/452/327 260/453/328
f 262/454/329 265/455/330 266/456/331 268/457/332
f 263/91/64 267/458/333 266/459/334 265/460/335
f 264/461/336 268/462/337 266/463/338 267/464/333
f 13/128/95 6/105/73 3/108/76 17/129/96
f 17/123/90 3/102/70 1/101/2 12/120/1
f 6/105/73 13/128/95 20/136/103 10/115/83
f 10/119/87 20/132/99 18/8/8 7/7/7
f 35/166/131 19/124/91 14/127/94 38/167/132
f 38/161/126 14/121/88 12/120/1 34/158/4
f 19/124/91 35/166/131 41/174/139 22/137/104
f 22/134/101 41/170/135 39/5/5 18/8/8
f 30/147/113 40/162/127 36/165/130 28/148/114
f 28/142/108 36/159/124 34/158/4 23/139/3
f 40/162/127 30/147/113 31/155/121 44/175/140
f 44/172/137 31/151/117 29/6/6 39/5/5
f 2/109/77 24/143/109 25/146/112 5/110/78
f 5/104/72 25/140/106 23/139/3 1/101/2
f 24/143/109 2/109/77 11/114/82 33/156/122
f 33/153/119 11/117/85 7/7/7 29/6/6
f 61/26/22 46/25/21 48/182/76 65/201/96
f 65/197/154 48/177/70 45/2/2 59/1/1
f 46/25/21 53/28/24 55/191/149 50/180/142
f 50/185/144 55/186/145 52/11/11 47/10/10
f 53/28/24 67/27/23 69/209/103 57/189/83
f 57/194/87 69/204/99 66/24/8 54/23/7
f 67/27/23 61/26/22 64/203/157 71/207/159
f 71/212/161 64/198/155 60/29/25 68/32/28
f 89/30/26 60/29/25 62/200/94 93/237/132
f 93/233/170 62/195/152 59/1/1 87/4/4
f 68/32/28 95/31/27 97/245/139 72/210/104
f 72/206/101 97/240/135 94/21/5 66/24/8
f 95/31/27 89/30/26 92/239/175 99/243/176
f 99/248/177 92/234/171 88/13/13 96/16/16
f 75/14/14 88/13/13 90/236/173 79/219/114
f 79/215/108 90/231/124 87/4/4 73/3/3
f 96/16/16 81/15/15 83/227/121 100/246/140
f 100/242/137 83/222/117 80/22/6 94/21/5
f 81/15/15 75/14/14 78/221/164 85/225/167
f 85/230/168 78/216/163 74/9/9 82/12/12
f 47/10/10 74/9/9 76/218/112 51/183/78
f 51/179/72 76/213/106 73/3/3 45/2/2
f 82/12/12 52/11/11 58/188/147 86/228/122
f 86/224/166 58/192/150 54/23/7 80/22/6
f 115/17/17 101/20/20 107/251/180 118/267/196
f 118/272/201 107/255/184 103/49/41 116/52/44
f 102/36/32 108/35/31 114/260/189 106/252/181
f 106/257/186 114/264/193 110/50/42 103/49/41
f 109/47/39 122/46/38 128/278/207 113/261/190
f 113/266/195 128/282/211 124/51/43 110/50/42
f 123/54/46 117/53/45 120/275/204 127/279/208
f 127/284/213 120/270/199 116/52/44 124/51/43
f 143/18/18 115/17/17 121/269/198 146/303/232
f 146/308/237 121/273/202 117/53/45 144/56/48
f 122/46/38 150/45/37 156/314/243 125/276/205
f 125/281/210 156/318/247 152/55/47 123/54/46
f 151/38/34 145/37/33 148/311/240 155/315/244
f 155/320/249 148/306/235 144/56/48 152/55/47
f 129/19/19 143/18/18 149/305/234 132/285/214
f 132/290/219 149/309/238 145/37/33 130/40/36
f 150/45/37 136/48/40 142/296/225 153/312/241
f 153/317/246 142/300/229 138/39/35 151/38/34
f 137/34/30 131/33/29 134/293/222 141/297/226
f 141/302/231 134/288/217 130/40/36 138/39/35
f 101/20/20 129/19/19 135/287/216 104/249/178
f 104/254/183 135/291/220 131/33/29 102/36/32
f 136/48/40 109/47/39 111/263/192 139/294/223
f 139/299/228 111/258/187 108/35/31 137/34/30
f 171/41/17 157/44/20 163/323/180 174/339/259
f 174/344/263 163/327/184 159/73/41 172/76/44
f 158/60/32 164/59/31 170/332/189 162/324/181
f 162/329/186 170/336/193 166/74/42 159/73/41
f 165/71/39 178/70/38 184/350/267 169/333/255
f 169/338/195 184/354/268 180/75/53 166/74/42
f 179/78/46 173/77/45 176/347/265 183/351/208
f 183/356/270 176/342/261 172/76/44 180/75/53
f 199/42/18 171/41/17 177/341/198 202/375/232
f 202/380/237 177/345/202 173/77/45 200/80/48
f 178/70/38 206/69/37 212/386/243 181/348/205
f 181/353/210 212/390/247 208/79/47 179/78/46
f 207/62/34 201/61/33 204/383/240 211/387/285
f 211/392/249 204/378/235 200/80/48 208/79/47
f 185/43/19 199/42/18 205/377/281 188/357/214
f 188/362/219 205/381/238 201/61/33 186/64/36
f 206/69/37 192/72/40 198/368/276 209/384/283
f 209/389/246 198/372/229 194/63/35 207/62/34
f 193/58/30 187/57/29 190/365/222 197/369/226
f 197/374/280 190/360/272 186/64/36 194/63/35
f 157/44/20 185/43/19 191/359/216 160/321/178
f 160/326/252 191/363/220 187/57/29 158/60/32
f 192/72/40 165/71/39 167/335/257 195/366/223
f 195/371/278 167/330/187 164/59/31 193/58/30
f 247/431/307 225/404/291 221/93/66 241/96/69
f 229/416/298 264/461/336 249/86/59 213/85/58
f 214/94/67 221/93/66 223/406/293 218/395/238
f 218/400/281 223/401/290 220/100/19 215/99/18
f 228/412/296 262/454/329 268/457/332 232/413/297
f 232/419/299 268/462/337 264/461/336 229/416/298
f 222/82/55 235/423/301 237/426/183 226/407/294
f 226/403/216 237/420/178 234/97/20 220/100/19
f 235/423/301 222/82/55 243/81/54 255/445/320
f 216/397/288 251/437/313 248/95/68 214/94/67
f 236/66/50 228/412/296 230/415/201 240/427/303
f 240/422/180 230/409/196 227/98/17 234/97/20
f 261/448/323 239/424/302 235/423/301 255/445/320
f 229/416/298 213/85/58 219/394/237 233/417/202
f 233/411/295 219/398/232 215/99/18 227/98/17
f 241/96/69 248/95/68 254/439/315 244/429/305
f 244/434/310 254/442/318 250/90/63 242/89/62
f 255/445/320 243/81/54 246/436/312 258/446/321
f 258/451/326 246/432/308 242/89/62 256/92/65
f 262/454/329 257/65/49 260/453/328 265/455/330
f 265/460/335 260/449/324 256/92/65 263/91/64
f 249/86/59 264/461/336 267/464/333 253/440/316
f 253/444/316 267/458/333 263/91/64 250/90/63
f 12/120/1 1/101/2 23/139/3 34/158/4
f 236/66/50 257/65/49 262/454/329 228/412/296
