#File written by RizomUV 2023.0.70.ge90189e8. Compilation :Sep 22 2023,12:42:11
mtllib cuarto piso.mtl
#begin vertices
v 38.37641 10.06662 41.3863
v 38.37641 10.07097 31.6706
v 1.729635 10.06662 41.3863
v 1.729635 10.07097 31.6706
v 14.80289 10.06662 41.3863
v 15.17991 10.07097 31.6706
v 9.752376 10.07097 31.6706
v 9.375347 10.06662 41.3863
v 10.15071 10.06662 41.3863
v 10.92607 10.06662 41.3863
v 11.70144 10.06662 41.3863
v 12.4768 10.06662 41.3863
v 13.25216 10.06662 41.3863
v 14.02752 10.06662 41.3863
v 14.40455 10.07097 31.6706
v 13.62919 10.07097 31.6706
v 12.85383 10.07097 31.6706
v 12.07846 10.07097 31.6706
v 11.3031 10.07097 31.6706
v 10.52774 10.07097 31.6706
v 38.37641 10.06662 40.52523
v 38.37641 10.06662 39.66415
v 38.37641 10.06662 38.80308
v 38.37641 10.06662 37.94201
v 38.37641 10.06662 37.08094
v 38.37641 10.06662 36.21986
v 1.729635 10.06662 36.21986
v 1.729635 10.06662 37.08094
v 1.729635 10.06662 37.94201
v 1.729635 10.06662 38.80308
v 1.729635 10.06662 39.66415
v 1.729635 10.06662 40.52523
v 14.80289 10.06662 36.21986
v 14.80289 10.06662 37.08094
v 14.80289 10.06662 37.94201
v 14.80289 10.06662 38.80308
v 14.80289 10.06662 39.66415
v 14.80289 10.06662 40.52523
v 10.33515 10.06157 36.71836
v 9.899953 10.06317 37.24882
v 9.622971 10.06505 37.875
v 9.526642 10.06705 38.54615
v 9.61877 10.06903 39.20791
v 9.891893 10.07081 39.80666
v 13.81385 10.06244 37.0537
v 14.08698 10.06422 37.65245
v 14.1791 10.06619 38.31421
v 14.08277 10.0682 38.98536
v 13.80579 10.07008 39.61153
v 13.37059 10.07168 40.142
v 13.38186 10.061 36.56646
v 12.81244 10.07287 40.53379
v 12.82601 10.06002 36.23021
v 12.17655 10.07355 40.75516
v 12.19131 10.05957 36.07219
v 11.51444 10.07367 40.78817
v 11.5292 10.05969 36.1052
v 10.87974 10.07323 40.63015
v 10.8933 10.06038 36.32657
v 10.32388 10.07224 40.2939
v 38.37641 10.06662 42.12525
v 1.729635 10.06662 42.12525
v 14.80289 10.06662 42.12525
v 9.375347 10.06662 42.12525
v 10.15071 10.06662 42.12525
v 10.92607 10.06662 42.12525
v 11.70144 10.06662 42.12525
v 12.4768 10.06662 42.12525
v 13.25216 10.06662 42.12525
v 14.02752 10.06662 42.12525
v 38.37641 10.06662 61.25261
v 1.729636 10.06662 61.25261
v 14.80289 10.06662 61.25261
v 9.375347 10.06662 61.25261
v 10.15071 10.06662 61.25261
v 10.92607 10.06662 61.25261
v 11.70144 10.06662 61.25261
v 12.4768 10.06662 61.25261
v 13.25216 10.06662 61.25261
v 14.02752 10.06662 61.25261
#end vertices

#begin 80 textures vertices 
vt 0.9864154 0.5554674 0
vt 0.9860869 0.8138705 0
vt 0.01174099 0.5542285 0
vt 0.01141262 0.8126319 0
vt 0.3594432 0.5546702 0
vt 0.3691425 0.8130863 0
vt 0.2247891 0.8129032 0
vt 0.2150899 0.5544867 0
vt 0.2357118 0.5545128 0
vt 0.2563337 0.5545389 0
vt 0.2769556 0.554565 0
vt 0.2975775 0.5545913 0
vt 0.3181994 0.5546176 0
vt 0.3388213 0.5546439 0
vt 0.3485206 0.8130602 0
vt 0.3278987 0.8130341 0
vt 0.3072768 0.8130079 0
vt 0.2866548 0.8129818 0
vt 0.2660329 0.8129556 0
vt 0.245411 0.8129294 0
vt 0.9863863 0.5783688 0
vt 0.9863571 0.6012703 0
vt 0.986328 0.6241718 0
vt 0.9862989 0.6470733 0
vt 0.9862698 0.6699747 0
vt 0.9862407 0.6928762 0
vt 0.01156635 0.6916376 0
vt 0.01159547 0.6687361 0
vt 0.01162458 0.6458346 0
vt 0.01165369 0.6229331 0
vt 0.01168279 0.6000316 0
vt 0.01171189 0.57713 0
vt 0.3592686 0.6920792 0
vt 0.3592977 0.6691778 0
vt 0.3593267 0.6462763 0
vt 0.3593558 0.6233748 0
vt 0.3593849 0.6004733 0
vt 0.3594141 0.5775717 0
vt 0.2404594 0.6786703 0
vt 0.2289026 0.664547 0
vt 0.221557 0.6478835 0
vt 0.2190177 0.6300299 0
vt 0.2214904 0.6124325 0
vt 0.2287748 0.5965172 0
vt 0.3329918 0.6698688 0
vt 0.3402761 0.6539535 0
vt 0.3427488 0.6363561 0
vt 0.3402094 0.6185025 0
vt 0.3328638 0.6018391 0
vt 0.321307 0.5877159 0
vt 0.3214859 0.6828129 0
vt 0.3064753 0.577277 0
vt 0.3066907 0.6917372 0
vt 0.2895704 0.5713683 0
vt 0.2898047 0.6959185 0
vt 0.2719619 0.570468 0
vt 0.272196 0.6950183 0
vt 0.2550761 0.5746491 0
vt 0.2552911 0.6891093 0
vt 0.2402807 0.5835731 0
vt 0.9864404 0.5358138 0
vt 0.01176594 0.5345751 0
vt 0.3594682 0.5350168 0
vt 0.2151148 0.5348332 0
vt 0.2357367 0.5348594 0
vt 0.2563587 0.5348855 0
vt 0.2769806 0.5349117 0
vt 0.2976025 0.5349379 0
vt 0.3182244 0.5349642 0
vt 0.3388463 0.5349905 0
vt 0.987087 0.02709394 0
vt 0.01241249 0.02585496 0
vt 0.3601148 0.0262968 0
vt 0.2157614 0.02611332 0
vt 0.2363833 0.02613953 0
vt 0.2570052 0.02616574 0
vt 0.2776271 0.02619195 0
vt 0.298249 0.02621816 0
vt 0.3188709 0.02624437 0
vt 0.3394929 0.02627059 0
#end 80 textures vertices 

#begin 28 normals 
vn 0.0003 1 0.0014
vn -0 1 0.001
vn 0.0015 1 0.0019
vn -0.0018 1 0.0011
vn -0.0019 1 0.0016
vn -0.0013 1 0.0022
vn -0.0006 1 0.0025
vn 0.0001 1 0.0026
vn 0.0009 1 0.0024
vn -0.0024 1 0.0064
vn -0.0015 0.9999 0.0103
vn 0.0003 0.9999 0.0112
vn 0.0017 1 0.008
vn 0.0021 1 0.0043
vn 0.002 1 0.0018
vn 0.0035 1 -0.0001
vn 0.0029 1 -0.0007
vn 0.0003 1 -0.0013
vn -0.0029 1 -0.0011
vn -0.0042 1 -0.0004
vn -0.0024 1 0.003
vn -0 1 -0
vn -0.0002 1 0.0017
vn -0.0005 1 -0.0011
vn -0.0002 1 -0.0013
vn -0 1 -0.0013
vn 0.0003 1 -0.0012
vn 0.0005 1 -0.001
#end 28 normals 

#begin 51 faces
o Plane:014
s 0
f 39/39/1 7/7/1 4/4/1 27/27/1 
f 26/26/2 2/2/2 6/6/2 33/33/2 
f 59/59/3 20/20/3 7/7/3 39/39/3 
f 33/33/4 6/6/4 15/15/4 45/45/4 
f 45/45/5 15/15/5 16/16/5 51/51/5 
f 51/51/6 16/16/6 17/17/6 53/53/6 
f 53/53/7 17/17/7 18/18/7 55/55/7 
f 55/55/8 18/18/8 19/19/8 57/57/8 
f 57/57/9 19/19/9 20/20/9 59/59/9 
f 10/10/10 58/58/10 60/60/10 9/9/10 
f 11/11/11 56/56/11 58/58/11 10/10/11 
f 12/12/12 54/54/12 56/56/12 11/11/12 
f 13/13/13 52/52/13 54/54/13 12/12/13 
f 14/14/14 50/50/14 52/52/14 13/13/14 
f 5/5/15 38/38/15 50/50/15 14/14/15 
f 38/38/16 37/37/16 49/49/16 50/50/16 
f 37/37/17 36/36/17 48/48/17 49/49/17 
f 36/36/18 35/35/18 47/47/18 48/48/18 
f 35/35/19 34/34/19 46/46/19 47/47/19 
f 34/34/20 33/33/20 45/45/20 46/46/20 
f 9/9/21 60/60/21 44/44/21 8/8/21 
f 1/1/22 21/21/22 38/38/22 5/5/22 
f 21/21/22 22/22/22 37/37/22 38/38/22 
f 22/22/22 23/23/22 36/36/22 37/37/22 
f 23/23/22 24/24/22 35/35/22 36/36/22 
f 24/24/22 25/25/22 34/34/22 35/35/22 
f 25/25/22 26/26/22 33/33/22 34/34/22 
f 8/8/23 44/44/23 32/32/23 3/3/23 
f 44/44/24 43/43/24 31/31/24 32/32/24 
f 43/43/25 42/42/25 30/30/25 31/31/25 
f 42/42/26 41/41/26 29/29/26 30/30/26 
f 41/41/27 40/40/27 28/28/27 29/29/27 
f 40/40/28 39/39/28 27/27/28 28/28/28 
f 9/9/22 8/8/22 64/64/22 65/65/22 
f 1/1/22 5/5/22 63/63/22 61/61/22 
f 13/13/22 12/12/22 68/68/22 69/69/22 
f 5/5/22 14/14/22 70/70/22 63/63/22 
f 10/10/22 9/9/22 65/65/22 66/66/22 
f 8/8/22 3/3/22 62/62/22 64/64/22 
f 14/14/22 13/13/22 69/69/22 70/70/22 
f 11/11/22 10/10/22 66/66/22 67/67/22 
f 12/12/22 11/11/22 67/67/22 68/68/22 
f 64/64/22 62/62/22 72/72/22 74/74/22 
f 68/68/22 67/67/22 77/77/22 78/78/22 
f 65/65/22 64/64/22 74/74/22 75/75/22 
f 61/61/22 63/63/22 73/73/22 71/71/22 
f 69/69/22 68/68/22 78/78/22 79/79/22 
f 66/66/22 65/65/22 75/75/22 76/76/22 
f 63/63/22 70/70/22 80/80/22 73/73/22 
f 70/70/22 69/69/22 79/79/22 80/80/22 
f 67/67/22 66/66/22 76/76/22 77/77/22 
#end 51 faces

#ZOMPROPERTIES_04{
#ZOMPROPERTIES_04 table {Mesh table {SymPlane table {Point vector3d 0 0 0 Normal vector3d 1 0 0 Threshold double 0.01 
#ZOMPROPERTIES_04 Enabled bool false EdgeID int -1 SymEdgeID int -1 UPos double 0.5 LocalMode bool false } RootGroup C
#ZOMPROPERTIES_04 SubMeshGroup {Children table {Tile_0_0 CSubMeshGroup {Children table {} BBoxUV box3d 0 0 0 0 0 0 BBo
#ZOMPROPERTIES_04 x3D box3d 0 0 0 0 0 0 Area3D double 0 AreaUV double 0.754791 IsRoot bool false Properties table {Sel
#ZOMPROPERTIES_04 ected bool false Box box3d 0 1 0 1 0 1 U int 0 V int 0 NU int 0 NV int 0 Tiling vector3d 1 1 1 TileR
#ZOMPROPERTIES_04 atioMode string "1:1" Overflow string "Off" Pack table {BoxFrameEdit bool false Behavior string "Fre
#ZOMPROPERTIES_04 e" } } IsTile bool true PolyIDs ints { 0 2 8 7 6 5 4 3 1 26 25 24 23 22 21 34 45 48 49 46 43 50 47 4
#ZOMPROPERTIES_04 4 42 38 27 28 29 30 31 32 20 9 10 11 12 13 14 39 35 41 40 37 33 36 15 16 17 18 19 } } } BBoxUV box3d
#ZOMPROPERTIES_04  0 0 0 0 0 0 BBox3D box3d 0 0 0 0 0 0 Area3D double 0 AreaUV double 0.794524 IsRoot bool true Proper
#ZOMPROPERTIES_04 ties table {Selected bool false Box box3d 0 1 0 1 0 1 U int 0 V int 0 NU int 1 NV int 1 Tiling vecto
#ZOMPROPERTIES_04 r3d 1 1 1 TileRatioMode string "1:1" Overflow string "Off" Pack table {Rotate table {Mode int 0 Min 
#ZOMPROPERTIES_04 double 0 Max double 90 Step double 0 } PaddingSize double 0.0078125 MarginSize double 0.00390625 Res
#ZOMPROPERTIES_04 olution int 256 MapResolution int 2048 Scaling table {TexelDensity double 1024 Mode int 2 } LayoutSc
#ZOMPROPERTIES_04 alingMode int 2 MaxMutations int 1 } } IsTile bool false PolyIDs ints { } } Maps table {Pin table {P
#ZOMPROPERTIES_04 rimType string "Vertex" Size int 1 DefaultValue double 0 ScaleType string "Normalized" MergeMode str
#ZOMPROPERTIES_04 ing "Max" MinValue double 0 MaxValue double 1 Data doubles { r 80 0 } } Density table {PrimType stri
#ZOMPROPERTIES_04 ng "Polygon" Size int 1 DefaultValue double 1 ScaleType string "Log" MergeMode string "Average" MinV
#ZOMPROPERTIES_04 alue double 0.1 MaxValue double 4 Data doubles { r 51 1 } } Protect table {PrimType string "Vertex" 
#ZOMPROPERTIES_04 Size int 1 DefaultValue double 0 ScaleType string "Normalized" MergeMode string "Average" MinValue d
#ZOMPROPERTIES_04 ouble -1 MaxValue double 1 Data doubles { r 80 0 } } } } }
#ZOMPROPERTIES_04}


#ZOMSCENE_01{
#ZOMSCENE_01 CScene {Settings table {AxisSystem table {UpVector string "y" } Unit string "cm" TexelDensityDisplay
#ZOMSCENE_01 Unit string "tx/cm" } Root table {} }
#ZOMSCENE_01}

#begin 0 fatal error vertex (that RizomUV cannot handle)
#end 0 fatal error vertex (that RizomUV cannot handle)

#begin 0 error vertex
#end 0 error vertex
