#File written by RizomUV 2023.0.70.ge90189e8. Compilation :Sep 22 2023,12:42:11
mtllib CORTINAS.mtl
#begin vertices
v 2.044032 23.06271 57.66066
v 2.132414 23.06271 55.21155
v 1.677583 30.75799 57.66066
v 1.713337 30.75799 55.21155
v 2.181876 22.95885 57.03337
v 1.718885 30.75799 57.17805
v 2.458957 23.06765 56.3741
v 2.326288 23.06958 56.74091
v 2.339487 23.07024 56.55507
v 2.417809 23.06798 55.55452
v 2.48431 23.06758 55.922
v 2.52129 23.06904 55.73894
v 1.702933 30.75287 55.86147
v 1.70082 30.75335 55.47136
v 1.705709 30.75177 55.66643
v 1.683642 30.75284 56.99917
v 1.695344 30.75082 56.63216
v 1.708428 30.75012 56.81796
v 1.884488 29.47858 57.66066
v 1.884488 28.41942 57.66066
v 1.884488 27.36025 57.66066
v 1.884488 26.30108 57.66066
v 2.132414 26.30108 55.21155
v 2.132414 27.36025 55.21155
v 2.132414 28.41942 55.21155
v 2.132414 29.47858 55.21155
v 2.061799 29.47858 57.17805
v 2.227817 28.41942 57.17805
v 2.101119 27.36025 57.17805
v 2.260821 26.30108 57.17805
v 2.096741 29.47546 55.87357
v 2.161415 28.41829 55.88568
v 2.180083 27.36112 55.89779
v 2.361796 26.30395 55.90989
v 2.391935 26.3049 55.72443
v 2.203381 27.36156 55.70993
v 2.177872 28.41822 55.69543
v 2.106357 29.47488 55.68093
v 2.36967 26.30437 55.53789
v 2.185682 27.36155 55.52126
v 2.164739 28.41874 55.50462
v 2.09779 29.47593 55.48799
v 2.16684 29.47584 56.94752
v 2.21714 28.41907 56.89587
v 2.221437 27.3623 56.84421
v 2.218147 26.30554 56.79256
v 2.238975 26.30553 56.60765
v 2.249893 27.36162 56.66023
v 2.253226 28.41771 56.71281
v 2.210554 29.4738 56.76539
v 2.296711 26.3036 56.42571
v 2.213964 27.36034 56.47733
v 2.224911 28.41709 56.52894
v 2.189855 29.47383 56.58055
v 2.413563 23.06478 56.07893
v 2.422637 23.06582 56.3074
v 2.394583 23.06423 56.19384
v 1.703481 30.75602 56.40942
v 1.703338 30.75609 56.07083
v 1.710838 30.75686 56.19363
v 2.101446 29.47711 56.31423
v 2.075234 29.47739 56.07129
v 2.077346 29.4778 56.1936
v 2.147235 28.41859 56.31345
v 2.127044 28.41897 56.07223
v 2.123604 28.41904 56.19365
v 2.14806 27.36029 56.31232
v 2.133293 27.3606 56.07378
v 2.124291 27.36036 56.19378
v 2.302927 26.30228 56.07599
v 2.313561 26.30234 56.31052
v 2.288601 26.3018 56.19389
v 2.120322 30.72895 55.21155
v 2.107744 30.72341 55.67032
v 2.101867 30.72485 55.47583
v 2.137717 30.72191 56.80384
v 2.122589 30.72243 56.6183
v 1.892077 30.72895 57.66066
v 2.105414 30.72895 57.17805
v 2.103131 30.72437 55.86472
v 2.107847 30.72445 56.98529
v 2.104796 30.72712 56.38385
v 2.103704 30.72791 56.19362
v 2.097651 30.72724 56.07095
v 2.163599 23.06271 49.43581
v 1.784531 23.06271 47.23548
v 1.677583 30.75799 49.39683
v 1.713337 30.75799 47.23548
v 2.181876 22.95885 49.01762
v 1.718886 30.75799 49.1623
v 2.458957 23.06765 48.35835
v 2.326288 23.06958 48.72516
v 2.339488 23.07024 48.53932
v 2.48431 23.06758 47.90625
v 2.52129 23.06904 47.72318
v 1.702933 30.75287 47.84571
v 1.705709 30.75177 47.65068
v 1.683642 30.75284 48.98341
v 1.695345 30.75082 48.61641
v 1.708428 30.75012 48.80221
v 2.004056 29.47858 49.43581
v 2.004056 28.41942 49.43581
v 2.004056 27.36025 49.43581
v 2.004056 26.30108 49.43581
v 1.784531 26.30108 47.23548
v 1.784531 27.36025 47.23548
v 1.784531 28.41942 47.23548
v 1.784531 29.47858 47.23548
v 2.061799 29.47858 49.1623
v 2.227817 28.41942 49.1623
v 2.101119 27.36025 49.1623
v 2.260822 26.30108 49.1623
v 2.096741 29.47546 47.85782
v 2.161415 28.41829 47.86993
v 2.180083 27.36112 47.88203
v 2.361796 26.30395 47.89414
v 2.391935 26.3049 47.70868
v 2.203381 27.36156 47.69418
v 2.177872 28.41822 47.67968
v 2.106357 29.47488 47.66518
v 2.16684 29.47584 48.93176
v 2.21714 28.41907 48.88011
v 2.221437 27.3623 48.82846
v 2.218147 26.30554 48.77681
v 2.238975 26.30553 48.5919
v 2.249893 27.36162 48.64448
v 2.253226 28.41771 48.69706
v 2.210554 29.4738 48.74963
v 2.296712 26.3036 48.40996
v 2.213964 27.36034 48.46158
v 2.224911 28.41709 48.51318
v 2.189855 29.47383 48.5648
v 2.413563 23.06478 48.06317
v 2.422637 23.06582 48.29165
v 2.394583 23.06423 48.17809
v 1.703481 30.75602 48.39366
v 1.703338 30.75609 48.05507
v 1.710838 30.75686 48.17788
v 2.101446 29.47711 48.29848
v 2.075234 29.47739 48.05553
v 2.077346 29.4778 48.17784
v 2.147235 28.41859 48.2977
v 2.127044 28.41897 48.05648
v 2.123604 28.41904 48.1779
v 2.14806 27.36029 48.29657
v 2.133293 27.3606 48.05803
v 2.124291 27.36036 48.17802
v 2.302927 26.30228 48.06024
v 2.313561 26.30234 48.29476
v 2.288601 26.3018 48.17814
v 1.772439 30.72895 47.23548
v 2.107744 30.72341 47.65457
v 2.137718 30.72191 48.78809
v 2.122589 30.72243 48.60255
v 2.011645 30.72895 49.43581
v 2.105414 30.72895 49.1623
v 2.103131 30.72437 47.84897
v 2.107848 30.72445 48.96954
v 2.104796 30.72712 48.3681
v 2.103704 30.72791 48.17787
v 2.097651 30.72724 48.0552
v 2.21403 23.06708 47.4225
v 2.363934 23.06828 47.53424
v 1.624772 30.75284 47.46609
v 1.636797 30.7552 47.32141
v 2.166066 26.30374 47.40513
v 2.298764 26.30454 47.52897
v 1.990046 27.36118 47.37361
v 2.113386 27.36155 47.51315
v 1.968211 28.41895 47.35716
v 2.091071 28.41857 47.49739
v 1.905745 29.47696 47.3327
v 2.022774 29.47559 47.48169
v 2.026107 30.72439 47.4703
v 1.904224 30.72644 47.32576
#end vertices

#begin 175 textures vertices 
vt 0.4650964 0.00390625 0
vt 0.7055328 0.1624592 0
vt 0.00390625 0.7137629 0
vt 0.2178428 0.8733592 0
vt 0.5283249 0.03245036 0
vt 0.04427841 0.7506297 0
vt 0.5876192 0.08407389 0
vt 0.5511118 0.06135629 0
vt 0.567811 0.07212811 0
vt 0.6659152 0.1359371 0
vt 0.6305586 0.1122788 0
vt 0.6472003 0.1232842 0
vt 0.1608024 0.8346544 0
vt 0.1946812 0.8582175 0
vt 0.1780676 0.8460439 0
vt 0.05764313 0.7662577 0
vt 0.09132735 0.7894234 0
vt 0.07525552 0.7766553 0
vt 0.09041795 0.5798011 0
vt 0.1498019 0.4816822 0
vt 0.2131092 0.3879704 0
vt 0.2709782 0.2904611 0
vt 0.5094584 0.4475541 0
vt 0.4418768 0.5386558 0
vt 0.3794389 0.6324784 0
vt 0.3170124 0.727061 0
vt 0.1373879 0.6083406 0
vt 0.2024801 0.5155401 0
vt 0.2609234 0.4186383 0
vt 0.325918 0.3254237 0
vt 0.2583738 0.68756 0
vt 0.3195033 0.5923688 0
vt 0.380233 0.4971942 0
vt 0.4411918 0.4007882 0
vt 0.4579817 0.4115687 0
vt 0.3973352 0.5081847 0
vt 0.3365125 0.6035123 0
vt 0.2754944 0.698881 0
vt 0.4745771 0.4226307 0
vt 0.414274 0.519496 0
vt 0.3534088 0.6148615 0
vt 0.2925035 0.7103941 0
vt 0.1607167 0.6226494 0
vt 0.2273259 0.5320809 0
vt 0.2927466 0.4400253 0
vt 0.3597476 0.3488904 0
vt 0.3763731 0.3596262 0
vt 0.3095786 0.4509401 0
vt 0.2440528 0.5426642 0
vt 0.1778241 0.6332808 0
vt 0.3936642 0.3702812 0
vt 0.3264479 0.4617813 0
vt 0.2606178 0.5534422 0
vt 0.1944052 0.6442942 0
vt 0.6152382 0.1021469 0
vt 0.5943923 0.08852322 0
vt 0.6048534 0.095323 0
vt 0.1119981 0.802288 0
vt 0.1423407 0.822274 0
vt 0.131835 0.8144154 0
vt 0.218986 0.6614589 0
vt 0.2406551 0.6760084 0
vt 0.2298172 0.6688184 0
vt 0.2808409 0.5670968 0
vt 0.3025143 0.5814188 0
vt 0.2916698 0.5743242 0
vt 0.3421317 0.4726149 0
vt 0.3636848 0.4868329 0
vt 0.3528685 0.4798474 0
vt 0.4253147 0.3908221 0
vt 0.4041336 0.3769039 0
vt 0.4146873 0.3839706 0
vt 0.2428976 0.8381427 0
vt 0.2021629 0.8106291 0
vt 0.2191978 0.8226391 0
vt 0.1035342 0.7418427 0
vt 0.1191473 0.7534807 0
vt 0.02065653 0.6968741 0
vt 0.0706219 0.7211383 0
vt 0.1848216 0.7991905 0
vt 0.08698423 0.732323 0
vt 0.1389214 0.7683333 0
vt 0.1555964 0.7797331 0
vt 0.1663316 0.7872211 0
vt 0.766766 0.1552145 0
vt 0.9960937 0.3333552 0
vt 0.2539212 0.8463564 0
vt 0.4660644 0.9694965 0
vt 0.8088181 0.173869 0
vt 0.2751282 0.8611941 0
vt 0.8642843 0.229601 0
vt 0.8294749 0.2043281 0
vt 0.845369 0.2162658 0
vt 0.9051309 0.2608265 0
vt 0.9209588 0.2730215 0
vt 0.3943804 0.9505918 0
vt 0.4154701 0.961256 0
vt 0.2878993 0.8770897 0
vt 0.3208854 0.9017309 0
vt 0.3050934 0.8881026 0
vt 0.3536859 0.7040132 0
vt 0.4196755 0.6102611 0
vt 0.4903836 0.5220075 0
vt 0.553635 0.4280169 0
vt 0.776437 0.6013787 0
vt 0.6980595 0.6840938 0
vt 0.6271748 0.7714569 0
vt 0.5548169 0.8588415 0
vt 0.3778468 0.7215539 0
vt 0.4495547 0.6328483 0
vt 0.5151959 0.5407972 0
vt 0.5857428 0.4517691 0
vt 0.4934837 0.8078563 0
vt 0.5611017 0.7177783 0
vt 0.6292427 0.6275598 0
vt 0.6954706 0.534792 0
vt 0.7114616 0.5466029 0
vt 0.6457203 0.6397995 0
vt 0.5772495 0.7301388 0
vt 0.5099981 0.8206031 0
vt 0.4000151 0.7372637 0
vt 0.4732282 0.6511403 0
vt 0.5454361 0.5642987 0
vt 0.6178811 0.4775439 0
vt 0.6337184 0.489397 0
vt 0.5614991 0.5763598 0
vt 0.489213 0.6628787 0
vt 0.4163544 0.7488834 0
vt 0.65022 0.5012019 0
vt 0.5776335 0.5883654 0
vt 0.5050248 0.6747878 0
vt 0.4321856 0.7608387 0
vt 0.8905622 0.2496137 0
vt 0.8707259 0.234524 0
vt 0.8806826 0.2420589 0
vt 0.3415566 0.9158577 0
vt 0.3735822 0.9375448 0
vt 0.3620424 0.9292127 0
vt 0.4556229 0.7793659 0
vt 0.4764409 0.7951975 0
vt 0.4660174 0.7873525 0
vt 0.5242796 0.6898135 0
vt 0.5449323 0.7056299 0
vt 0.5345974 0.6977839 0
vt 0.5926206 0.6002885 0
vt 0.6132887 0.6160335 0
vt 0.6029014 0.6082791 0
vt 0.6803421 0.523809 0
vt 0.6601961 0.5085183 0
vt 0.6702258 0.5162721 0
vt 0.4673118 0.9623918 0
vt 0.4290944 0.9222976 0
vt 0.3340646 0.8535829 0
vt 0.3491162 0.8659784 0
vt 0.2754387 0.8156776 0
vt 0.3018434 0.8310879 0
vt 0.4124337 0.9122825 0
vt 0.31791 0.8432035 0
vt 0.3682065 0.8815715 0
vt 0.3842843 0.8932421 0
vt 0.3945462 0.9007951 0
vt 0.9570144 0.302036 0
vt 0.9414461 0.2895086 0
vt 0.435889 0.9754156 0
vt 0.4539621 0.9763715 0
vt 0.7427606 0.5725392 0
vt 0.7280663 0.5601336 0
vt 0.677988 0.6667625 0
vt 0.6626469 0.653751 0
vt 0.6091788 0.7563435 0
vt 0.5939205 0.7436696 0
vt 0.5422514 0.8478117 0
vt 0.5267922 0.834512 0
vt 0.4441286 0.9355813 0
vt 0.4573271 0.9494124 0
#end 175 textures vertices 

#begin 195 normals 
vn 0.9511 0.0342 0.3068
vn 0.8803 0.0336 0.4733
vn 0.9074 0.0019 0.4202
vn 0.9576 0.0009 0.288
vn 0.9889 0.0135 -0.1478
vn 0.9875 0.0466 -0.1505
vn 0.9808 0.0449 -0.1899
vn 0.9793 0.0273 -0.2008
vn 0.8526 0.0395 -0.521
vn 0.9246 0.0696 -0.3744
vn 0.8789 0.0144 -0.4767
vn 0.7881 0.0043 -0.6155
vn 0.9635 0.1008 0.2481
vn 0.9685 0.096 0.2296
vn 0.9649 0.034 0.2603
vn 0.9599 0.0368 0.278
vn 0.9969 0.0328 -0.072
vn 0.9943 0.1026 -0.0287
vn 0.9925 0.0208 0.1206
vn 0.9925 0.0147 0.1211
vn 0.9606 0.0305 0.2761
vn 0.9833 0.0203 0.181
vn 0.9849 0.0375 0.1691
vn 0.9965 0.0585 0.0599
vn 0.9745 0.023 0.223
vn 0.9502 -0.0084 0.3116
vn 0.9445 0.0366 0.3265
vn 0.977 0.0456 0.2082
vn 0.942 0.0128 0.3352
vn 0.9825 0.0132 0.1861
vn 0.9387 0.0057 0.3446
vn 0.9891 -0.0013 0.147
vn 0.997 0.0525 0.0572
vn 0.9978 0.0454 0.0489
vn 0.9996 0.0175 0.0209
vn 0.9687 0.0233 -0.2473
vn 0.999 0.0024 0.0446
vn 0.986 0.0387 -0.1624
vn 1 -0.0027 -0.0006
vn 0.9995 0.0311 0.0025
vn 0.9997 0.0241 0.0021
vn 0.9995 0.0006 0.0313
vn 0.999 0.0431 0.0086
vn 0.9971 0.0315 -0.0692
vn 0.9951 0.0975 0.0149
vn 0.9791 0.0689 -0.1914
vn 0.9986 -0.007 0.0517
vn 0.9965 0.0266 0.0787
vn 0.9903 0.0388 0.1338
vn 0.9773 0.0919 0.191
vn 0.9997 -0.0154 0.0166
vn 0.9988 0.0177 0.0456
vn 0.994 0.0296 0.1053
vn 0.9828 0.0823 0.1651
vn 0.9952 0.0037 0.0977
vn 0.9985 0.0176 0.0512
vn 0.9975 0.0202 -0.0684
vn 0.9584 0.043 -0.2822
vn 0.963 0.0231 -0.2684
vn 0.9702 0.0685 -0.2324
vn 0.9806 0.0855 -0.1763
vn 0.9268 -0.019 0.3751
vn 0.9045 0.0252 0.4257
vn 0.8726 0.0084 0.4884
vn 0.8586 0.0063 0.5127
vn 0.9854 0.0376 -0.1662
vn 0.9985 0.0334 -0.0424
vn 0.9943 0.0947 -0.0482
vn 0.997 0.015 -0.0759
vn 0.9983 -0.0145 -0.0571
vn 0.9962 0.0235 -0.0841
vn 0.995 0.0775 -0.0626
vn 0.073 0.9973 -0.0024
vn 0.073 0.9973 -0.0023
vn 0.0726 0.9973 -0.0118
vn 0.0713 0.9974 0.0131
vn 0.0714 0.9974 0.0124
vn 0.0828 0.9966 -0.0041
vn 0.0961 0.995 0.0254
vn 0.0814 0.9967 -0.0072
vn 0.0709 0.9973 0.0208
vn 0.0707 0.9974 0.0133
vn 0.0714 0.9974 -0.0088
vn 0.0707 0.9975 0.0009
vn 0.0707 0.9975 0.001
vn 0.0681 0.9975 -0.0184
vn 0.0679 0.9975 -0.0173
vn 0.0659 0.9978 -0.0031
vn 0.0659 0.9978 -0.0032
vn 0.0679 0.9977 0.009
vn 0.955 0.0343 0.2947
vn 0.8879 0.0337 0.4589
vn 0.9294 0.0033 0.3691
vn 0.9653 0.0016 0.261
vn 0.9892 0.0128 -0.1459
vn 0.9874 0.0465 -0.1512
vn 0.9807 0.045 -0.1901
vn 0.9792 0.0275 -0.2012
vn 0.0708 0.9974 -0.0161
vn 0.0708 0.9974 -0.0131
vn 0.0752 0.9969 -0.0231
vn 0.0791 0.9966 -0.0209
vn 0.9636 0.1015 0.2472
vn 0.9688 0.0964 0.2285
vn 0.9653 0.034 0.2589
vn 0.96 0.0368 0.2776
vn 0.983 0.039 0.1793
vn 0.9814 0.1059 0.1602
vn 0.4335 0.0129 -0.9011
vn 0.5678 0.0375 -0.8223
vn 0.5272 0.0046 -0.8498
vn 0.4026 0.0005 -0.9154
vn 0.9925 0.0214 0.1203
vn 0.9924 0.014 0.1223
vn 0.9617 0.0305 0.2724
vn 0.9834 0.02 0.1802
vn 0.8984 0.0294 0.4383
vn 0.9967 0.0582 0.0572
vn 0.9746 0.0232 0.2228
vn 0.9665 -0.0088 0.2565
vn 0.9559 0.0366 0.2915
vn 0.977 0.0452 0.2084
vn 0.9438 0.0133 0.3302
vn 0.9825 0.0139 0.1858
vn 0.9382 0.0056 0.346
vn 0.9891 -0.0021 0.1472
vn 0.9971 0.0526 0.0549
vn 0.9978 0.0455 0.0476
vn 0.9996 0.0175 0.0207
vn 0.9688 0.0233 -0.2467
vn 0.9989 0.0026 0.0461
vn 0.9861 0.0394 -0.1615
vn 0.5954 0.001 -0.8034
vn 0.6898 -0.0021 -0.724
vn 0.6849 0.0096 -0.7286
vn 0.5894 0.0044 -0.8078
vn 0.9812 -0.0042 -0.1927
vn 0.9816 0.0287 -0.1886
vn 0.8471 0.0198 -0.5311
vn 0.8505 -0.0053 -0.526
vn 0.6713 0.0124 -0.7411
vn 0.5693 0.0036 -0.8221
vn 0.6235 0.0329 -0.7811
vn 0.5103 0.0124 -0.8599
vn 0.9986 -0.007 0.0518
vn 0.9965 0.0267 0.0788
vn 0.9903 0.0389 0.1337
vn 0.9833 0.04 -0.1775
vn 0.9773 0.0923 0.1907
vn 0.9876 0.0975 0.1227
vn 0.9997 -0.0154 0.0165
vn 0.9988 0.0177 0.0455
vn 0.994 0.0296 0.1051
vn 0.9828 0.0828 0.1651
vn 0.839 0.0276 -0.5434
vn 0.8921 0.0844 -0.4439
vn 0.8186 0.0693 -0.5702
vn 0.8566 0.0844 -0.509
vn 0.7789 0.0733 -0.6229
vn 0.9632 0.0231 -0.2679
vn 0.9703 0.0691 -0.2317
vn 0.9806 0.0859 -0.1762
vn 0.9635 -0.0197 0.2669
vn 0.9311 0.0251 0.364
vn 0.8762 0.009 0.4819
vn 0.8513 0.0058 0.5246
vn 0.9853 0.0375 -0.1664
vn 0.9986 0.0334 -0.0418
vn 0.9943 0.0949 -0.0478
vn 0.997 0.0149 -0.0757
vn 0.9983 -0.0145 -0.0571
vn 0.9962 0.0235 -0.0838
vn 0.995 0.0781 -0.0623
vn 0.9933 0.0425 -0.1071
vn 0.073 0.9973 -0.0025
vn 0.073 0.9973 -0.0023
vn 0.0726 0.9973 -0.0118
vn 0.0726 0.9973 -0.0119
vn 0.0713 0.9974 0.0131
vn 0.0714 0.9974 0.0125
vn 0.0746 0.9972 -0.0057
vn 0.0792 0.9966 0.0211
vn 0.0741 0.9972 -0.0088
vn 0.0714 0.9974 -0.0088
vn 0.1746 0.9843 -0.0251
vn 0.1165 0.993 -0.02
vn 0.1038 0.9944 -0.0189
vn 0.0681 0.9975 -0.0183
vn 0.0679 0.9975 -0.0173
vn 0.0659 0.9978 -0.0031
vn 0.0659 0.9978 -0.0032
vn 0.0678 0.9977 0.0089
vn 0.0679 0.9977 0.0091
vn 0.7414 0.016 -0.6709
vn 0.8268 0.0231 -0.562
#end 195 normals 

#begin 138 faces
o Plane:116
s 1
f 30/30/1 22/22/2 1/1/3 5/5/4 
f 82/82/5 77/77/6 54/54/7 61/61/8 
f 23/23/9 39/39/10 10/10/11 2/2/12 
f 34/34/13 70/70/14 55/55/15 11/11/16 
f 34/34/13 11/11/16 12/12/17 35/35/18 
f 35/35/18 12/12/17 10/10/11 39/39/10 
f 46/46/19 8/8/20 9/9/21 47/47/22 
f 47/47/22 9/9/21 7/7/23 51/51/24 
f 46/46/19 30/30/1 5/5/4 8/8/20 
f 81/81/25 79/79/26 27/27/27 43/43/28 
f 43/43/28 27/27/27 28/28/29 44/44/30 
f 44/44/30 28/28/29 29/29/31 45/45/32 
f 45/45/32 29/29/31 30/30/1 46/46/19 
f 76/76/33 50/50/34 54/54/7 77/77/6 
f 50/50/34 49/49/35 53/53/36 54/54/7 
f 49/49/35 48/48/37 52/52/38 53/53/36 
f 48/48/37 47/47/22 51/51/24 52/52/38 
f 81/81/25 43/43/28 50/50/34 76/76/33 
f 43/43/28 44/44/30 49/49/35 50/50/34 
f 44/44/30 45/45/32 48/48/37 49/49/35 
f 45/45/32 46/46/19 47/47/22 48/48/37 
f 74/74/39 38/38/40 42/42/41 75/75/42 
f 38/38/40 37/37/43 41/41/44 42/42/41 
f 37/37/43 36/36/45 40/40/46 41/41/44 
f 36/36/45 35/35/18 39/39/10 40/40/46 
f 80/80/47 31/31/48 38/38/40 74/74/39 
f 31/31/48 32/32/49 37/37/43 38/38/40 
f 32/32/49 33/33/50 36/36/45 37/37/43 
f 33/33/50 34/34/13 35/35/18 36/36/45 
f 80/80/47 84/84/51 62/62/52 31/31/48 
f 32/32/49 65/65/53 68/68/54 33/33/50 
f 33/33/50 68/68/54 70/70/14 34/34/13 
f 73/73/55 75/75/42 42/42/41 26/26/56 
f 26/26/56 42/42/41 41/41/44 25/25/57 
f 25/25/57 41/41/44 40/40/46 24/24/58 
f 24/24/58 40/40/46 39/39/10 23/23/9 
f 31/31/48 62/62/52 65/65/53 32/32/49 
f 61/61/8 54/54/7 53/53/36 64/64/59 
f 64/64/59 53/53/36 52/52/38 67/67/60 
f 67/67/60 52/52/38 51/51/24 71/71/61 
f 79/79/26 78/78/62 19/19/63 27/27/27 
f 27/27/27 19/19/63 20/20/64 28/28/29 
f 28/28/29 20/20/64 21/21/65 29/29/31 
f 29/29/31 21/21/65 22/22/2 30/30/1 
f 71/71/61 56/56/66 57/57/67 72/72/68 
f 72/72/68 57/57/67 55/55/15 70/70/14 
f 82/82/5 61/61/8 63/63/69 83/83/70 
f 83/83/70 63/63/69 62/62/52 84/84/51 
f 61/61/8 64/64/59 66/66/71 63/63/69 
f 63/63/69 66/66/71 65/65/53 62/62/52 
f 64/64/59 67/67/60 69/69/72 66/66/71 
f 66/66/71 69/69/72 68/68/54 65/65/53 
f 67/67/60 71/71/61 72/72/68 69/69/72 
f 69/69/72 72/72/68 70/70/14 68/68/54 
f 71/71/61 51/51/24 7/7/23 56/56/66 
f 60/60/73 83/83/74 84/84/75 59/59/75 
f 58/58/76 82/82/77 83/83/74 60/60/73 
f 6/6/78 3/3/79 78/78/79 79/79/80 
f 4/4/81 14/14/82 75/75/82 73/73/81 
f 13/13/83 59/59/75 84/84/75 80/80/83 
f 13/13/83 80/80/83 74/74/84 15/15/85 
f 15/15/85 74/74/84 75/75/82 14/14/82 
f 16/16/86 81/81/87 76/76/88 18/18/89 
f 18/18/89 76/76/88 77/77/90 17/17/90 
f 16/16/86 6/6/78 79/79/80 81/81/87 
f 58/58/76 17/17/90 77/77/90 82/82/77 
o Plane:121
s 1
f 112/112/91 104/104/92 85/85/93 89/89/94 
f 159/159/95 154/154/96 132/132/97 139/139/98 
f 97/97/99 152/152/100 174/174/101 164/164/102 
f 116/116/103 148/148/104 133/133/105 94/94/106 
f 116/116/103 94/94/106 95/95/107 117/117/108 
f 105/105/109 166/166/110 162/162/111 86/86/112 
f 124/124/113 92/92/114 93/93/115 125/125/116 
f 125/125/116 93/93/115 91/91/117 129/129/118 
f 124/124/113 112/112/91 89/89/94 92/92/114 
f 158/158/119 156/156/120 109/109/121 121/121/122 
f 121/121/122 109/109/121 110/110/123 122/122/124 
f 122/122/124 110/110/123 111/111/125 123/123/126 
f 123/123/126 111/111/125 112/112/91 124/124/113 
f 153/153/127 128/128/128 132/132/97 154/154/96 
f 128/128/128 127/127/129 131/131/130 132/132/97 
f 127/127/129 126/126/131 130/130/132 131/131/130 
f 126/126/131 125/125/116 129/129/118 130/130/132 
f 158/158/119 121/121/122 128/128/128 153/153/127 
f 121/121/122 122/122/124 127/127/129 128/128/128 
f 122/122/124 123/123/126 126/126/131 127/127/129 
f 123/123/126 124/124/113 125/125/116 126/126/131 
f 151/151/133 175/175/134 172/172/135 108/108/136 
f 152/152/137 120/120/138 173/173/139 174/174/140 
f 108/108/136 172/172/135 170/170/141 107/107/142 
f 107/107/142 170/170/141 168/168/143 106/106/144 
f 157/157/145 113/113/146 120/120/138 152/152/137 
f 113/113/146 114/114/147 119/119/148 120/120/138 
f 114/114/147 115/115/149 118/118/150 119/119/148 
f 115/115/149 116/116/103 117/117/108 118/118/150 
f 157/157/145 161/161/151 140/140/152 113/113/146 
f 114/114/147 143/143/153 146/146/154 115/115/149 
f 115/115/149 146/146/154 148/148/104 116/116/103 
f 120/120/138 119/119/148 171/171/155 173/173/139 
f 119/119/148 118/118/156 169/169/157 171/171/155 
f 118/118/156 117/117/158 167/167/159 169/169/157 
f 113/113/146 140/140/152 143/143/153 114/114/147 
f 139/139/98 132/132/97 131/131/130 142/142/160 
f 142/142/160 131/131/130 130/130/132 145/145/161 
f 145/145/161 130/130/132 129/129/118 149/149/162 
f 156/156/120 155/155/163 101/101/164 109/109/121 
f 109/109/121 101/101/164 102/102/165 110/110/123 
f 110/110/123 102/102/165 103/103/166 111/111/125 
f 111/111/125 103/103/166 104/104/92 112/112/91 
f 149/149/162 134/134/167 135/135/168 150/150/169 
f 150/150/169 135/135/168 133/133/105 148/148/104 
f 159/159/95 139/139/98 141/141/170 160/160/171 
f 160/160/171 141/141/170 140/140/152 161/161/151 
f 139/139/98 142/142/160 144/144/172 141/141/170 
f 141/141/170 144/144/172 143/143/153 140/140/152 
f 142/142/160 145/145/161 147/147/173 144/144/172 
f 144/144/172 147/147/173 146/146/154 143/143/153 
f 145/145/161 149/149/162 150/150/169 147/147/173 
f 147/147/173 150/150/169 148/148/104 146/146/154 
f 149/149/162 129/129/118 91/91/174 134/134/167 
f 138/138/175 160/160/176 161/161/177 137/137/178 
f 136/136/179 159/159/180 160/160/176 138/138/175 
f 90/90/181 87/87/182 155/155/182 156/156/183 
f 106/106/144 168/168/143 166/166/110 105/105/109 
f 96/96/184 137/137/178 161/161/177 157/157/184 
f 96/96/184 157/157/184 152/152/100 97/97/99 
f 88/88/185 165/165/186 175/175/187 151/151/185 
f 98/98/188 158/158/189 153/153/190 100/100/191 
f 100/100/191 153/153/190 154/154/192 99/99/193 
f 98/98/188 90/90/181 156/156/183 158/158/189 
f 136/136/179 99/99/193 154/154/192 159/159/180 
f 175/175/187 165/165/186 164/164/102 174/174/101 
f 162/162/111 166/166/110 167/167/159 163/163/194 
f 166/166/110 168/168/143 169/169/157 167/167/159 
f 168/168/143 170/170/141 171/171/155 169/169/157 
f 170/170/141 172/172/135 173/173/139 171/171/155 
f 172/172/135 175/175/134 174/174/140 173/173/139 
f 117/117/158 95/95/195 163/163/194 167/167/159 
#end 138 faces

#ZOMPROPERTIES_04{
#ZOMPROPERTIES_04 table {Mesh table {SymPlane table {Point vector3d 0 0 0 Normal vector3d 1 0 0 Threshold double 0.01 
#ZOMPROPERTIES_04 Enabled bool false EdgeID int -1 SymEdgeID int -1 UPos double 0.5 LocalMode bool false } RootGroup C
#ZOMPROPERTIES_04 SubMeshGroup {Children table {Tile_0_0 CSubMeshGroup {Children table {} BBoxUV box3d 0 0 0 0 0 0 BBo
#ZOMPROPERTIES_04 x3D box3d 0 0 0 0 0 0 Area3D double 0 AreaUV double 0.471662 IsRoot bool false Properties table {Sel
#ZOMPROPERTIES_04 ected bool false Box box3d 0 1 0 1 0 1 U int 0 V int 0 NU int 0 NV int 0 Tiling vector3d 1 1 1 TileR
#ZOMPROPERTIES_04 atioMode string "1:1" Overflow string "Off" Pack table {BoxFrameEdit bool false Behavior string "Fre
#ZOMPROPERTIES_04 e" } } IsTile bool true PolyIDs ints { 66 108 107 106 105 122 129 75 83 79 67 130 128 121 120 112 95
#ZOMPROPERTIES_04  124 125 68 88 136 87 126 131 89 90 123 71 132 137 70 69 110 109 119 73 72 74 86 78 85 77 84 81 103 
#ZOMPROPERTIES_04 102 115 116 96 101 93 99 134 100 98 94 92 97 118 114 117 113 104 80 82 133 135 91 111 76 127 0 43 42
#ZOMPROPERTIES_04  41 40 57 64 9 17 13 1 65 63 56 55 47 29 59 60 61 21 32 58 33 34 35 2 5 4 3 45 44 54 7 6 8 20 12 19 
#ZOMPROPERTIES_04 11 18 15 38 37 50 51 30 36 27 23 28 26 31 53 49 52 48 39 14 16 24 22 25 46 10 62 } } } BBoxUV box3d 
#ZOMPROPERTIES_04 0 0 0 0 0 0 BBox3D box3d 0 0 0 0 0 0 Area3D double 0 AreaUV double 0 IsRoot bool true Properties tab
#ZOMPROPERTIES_04 le {Selected bool false Box box3d 0 1 0 1 0 1 U int 0 V int 0 NU int 1 NV int 1 Tiling vector3d 1 1 
#ZOMPROPERTIES_04 1 TileRatioMode string "1:1" Overflow string "Off" Pack table {Rotate table {Mode int 0 Min double 0
#ZOMPROPERTIES_04  Max double 90 Step double 0 } PaddingSize double 0.0078125 MarginSize double 0.00390625 Resolution 
#ZOMPROPERTIES_04 int 256 MapResolution int 2048 Scaling table {TexelDensity double 1024 Mode int 2 } LayoutScalingMod
#ZOMPROPERTIES_04 e int 2 MaxMutations int 1 } } IsTile bool false PolyIDs ints { } } Maps table {Pin table {PrimType 
#ZOMPROPERTIES_04 string "Vertex" Size int 1 DefaultValue double 0 ScaleType string "Normalized" MergeMode string "Max
#ZOMPROPERTIES_04 " MinValue double 0 MaxValue double 1 Data doubles { r 175 0 } } Density table {PrimType string "Pol
#ZOMPROPERTIES_04 ygon" Size int 1 DefaultValue double 1 ScaleType string "Log" MergeMode string "Average" MinValue do
#ZOMPROPERTIES_04 uble 0.1 MaxValue double 4 Data doubles { r 138 1 } } Protect table {PrimType string "Vertex" Size i
#ZOMPROPERTIES_04 nt 1 DefaultValue double 0 ScaleType string "Normalized" MergeMode string "Average" MinValue double 
#ZOMPROPERTIES_04 -1 MaxValue double 1 Data doubles { r 175 0 } } } } }
#ZOMPROPERTIES_04}


#ZOMSCENE_01{
#ZOMSCENE_01 CScene {Settings table {AxisSystem table {UpVector string "y" } Unit string "cm" TexelDensityDisplay
#ZOMSCENE_01 Unit string "tx/cm" } Root table {} }
#ZOMSCENE_01}

#begin 0 fatal error vertex (that RizomUV cannot handle)
#end 0 fatal error vertex (that RizomUV cannot handle)

#begin 0 error vertex
#end 0 error vertex
