#File written by RizomUV 2023.0.70.ge90189e8. Compilation :Sep 22 2023,12:42:11
mtllib PARED FINAL.mtl
#begin vertices
v 1.729636 10.06662 61.25261
v 1.729636 10.06662 31.62648
v 1.729637 31.88631 61.25261
v 1.729637 31.88631 31.62648
v 1.729636 10.06662 57.02031
v 1.729636 10.06662 52.788
v 1.729636 10.06662 48.5557
v 1.729636 10.06662 44.32339
v 1.729636 10.06662 40.09109
v 1.729636 10.06662 35.85879
v 1.729637 31.88631 35.85879
v 1.729637 31.88631 40.0911
v 1.729637 31.88631 44.32339
v 1.729637 31.88631 48.5557
v 1.729637 31.88631 52.788
v 1.729637 31.88631 57.02031
v 1.729637 23.16818 61.25261
v 1.729636 23.16818 31.62648
v 1.729637 30.64086 31.62648
v 1.729637 30.64086 61.25261
v 1.729636 23.16818 35.85879
v 1.729636 23.16818 40.0911
v 1.729637 23.16818 44.32339
v 1.729637 23.16818 48.5557
v 1.729637 23.16818 52.788
v 1.729637 23.16818 57.02031
v 1.729637 30.64086 57.02031
v 1.729637 30.64086 48.5557
v 1.729637 30.64086 44.32339
v 1.729637 30.64086 35.85879
v 1.729637 30.64086 40.0911
v 1.729637 30.64086 52.788
#end vertices

#begin 32 textures vertices 
vt 0.009636526 0.04674224 0
vt 0.9792632 0.03242214 0
vt 0.0201833 0.7608737 0
vt 0.9898099 0.7465536 0
vt 0.1481546 0.04469651 0
vt 0.2866727 0.04265078 0
vt 0.4251908 0.04060506 0
vt 0.5637089 0.03855933 0
vt 0.702227 0.0365136 0
vt 0.8407451 0.03446787 0
vt 0.8512918 0.7485994 0
vt 0.7127736 0.7506451 0
vt 0.5742557 0.7526908 0
vt 0.4357376 0.7547366 0
vt 0.2972195 0.7567823 0
vt 0.1587014 0.758828 0
vt 0.0159693 0.4755399 0
vt 0.9855959 0.4612198 0
vt 0.9892079 0.7057917 0
vt 0.0195813 0.7201118 0
vt 0.8470778 0.4632656 0
vt 0.7085596 0.4653113 0
vt 0.5700417 0.467357 0
vt 0.4315236 0.4694027 0
vt 0.2930055 0.4714485 0
vt 0.1544874 0.4734942 0
vt 0.1580994 0.7180661 0
vt 0.4351356 0.7139746 0
vt 0.5736537 0.7119289 0
vt 0.8506898 0.7078374 0
vt 0.7121716 0.7098832 0
vt 0.2966175 0.7160203 0
#end 32 textures vertices 

#begin 1 normals 
vn 1 -0 -0
#end 1 normals 

#begin 17 faces
o Plane:122
s 0
f 30/30/1 19/19/1 4/4/1 11/11/1 
f 20/20/1 27/27/1 16/16/1 3/3/1 
f 27/27/1 32/32/1 15/15/1 16/16/1 
f 32/32/1 28/28/1 14/14/1 15/15/1 
f 28/28/1 29/29/1 13/13/1 14/14/1 
f 29/29/1 31/31/1 12/12/1 13/13/1 
f 31/31/1 30/30/1 11/11/1 12/12/1 
f 9/9/1 10/10/1 21/21/1 22/22/1 
f 8/8/1 9/9/1 22/22/1 23/23/1 
f 7/7/1 8/8/1 23/23/1 24/24/1 
f 6/6/1 7/7/1 24/24/1 25/25/1 
f 5/5/1 6/6/1 25/25/1 26/26/1 
f 1/1/1 5/5/1 26/26/1 17/17/1 
f 10/10/1 2/2/1 18/18/1 21/21/1 
f 24/24/1 23/23/1 29/29/1 28/28/1 
f 17/17/1 26/26/1 27/27/1 20/20/1 
f 21/21/1 18/18/1 19/19/1 30/30/1 
#end 17 faces

#ZOMPROPERTIES_04{
#ZOMPROPERTIES_04 table {Mesh table {SymPlane table {Point vector3d 0 0 0 Normal vector3d 1 0 0 Threshold double 0.01 
#ZOMPROPERTIES_04 Enabled bool false EdgeID int -1 SymEdgeID int -1 UPos double 0.5 LocalMode bool false } RootGroup C
#ZOMPROPERTIES_04 SubMeshGroup {Children table {Tile_0_0 CSubMeshGroup {Children table {} BBoxUV box3d 0 0 0 0 0 0 BBo
#ZOMPROPERTIES_04 x3D box3d 0 0 0 0 0 0 Area3D double 0 AreaUV double 0.557052 IsRoot bool false Properties table {Sel
#ZOMPROPERTIES_04 ected bool false Box box3d 0 1 0 1 0 1 U int 0 V int 0 NU int 0 NV int 0 Tiling vector3d 1 1 1 TileR
#ZOMPROPERTIES_04 atioMode string "1:1" Overflow string "Off" Pack table {BoxFrameEdit bool false Behavior string "Fre
#ZOMPROPERTIES_04 e" } } IsTile bool true PolyIDs ints { 0 16 13 7 8 9 10 11 12 15 1 2 3 4 5 6 14 } } } BBoxUV box3d 0
#ZOMPROPERTIES_04  0 0 0 0 0 BBox3D box3d 0 0 0 0 0 0 Area3D double 0 AreaUV double 1.09206 IsRoot bool true Propertie
#ZOMPROPERTIES_04 s table {Selected bool false Box box3d 0 1 0 1 0 1 U int 0 V int 0 NU int 1 NV int 1 Tiling vector3d
#ZOMPROPERTIES_04  1 1 1 TileRatioMode string "1:1" Overflow string "Off" Pack table {Rotate table {Mode int 0 Min dou
#ZOMPROPERTIES_04 ble 0 Max double 90 Step double 0 } PaddingSize double 0.0078125 MarginSize double 0.00390625 Resolu
#ZOMPROPERTIES_04 tion int 256 MapResolution int 2048 Scaling table {TexelDensity double 1024 Mode int 2 } LayoutScali
#ZOMPROPERTIES_04 ngMode int 2 MaxMutations int 1 } } IsTile bool false PolyIDs ints { } } Maps table {Pin table {Prim
#ZOMPROPERTIES_04 Type string "Vertex" Size int 1 DefaultValue double 0 ScaleType string "Normalized" MergeMode string
#ZOMPROPERTIES_04  "Max" MinValue double 0 MaxValue double 1 Data doubles { r 32 0 } } Density table {PrimType string 
#ZOMPROPERTIES_04 "Polygon" Size int 1 DefaultValue double 1 ScaleType string "Log" MergeMode string "Average" MinValu
#ZOMPROPERTIES_04 e double 0.1 MaxValue double 4 Data doubles { r 17 1 } } Protect table {PrimType string "Vertex" Siz
#ZOMPROPERTIES_04 e int 1 DefaultValue double 0 ScaleType string "Normalized" MergeMode string "Average" MinValue doub
#ZOMPROPERTIES_04 le -1 MaxValue double 1 Data doubles { r 32 0 } } } } }
#ZOMPROPERTIES_04}


#ZOMSCENE_01{
#ZOMSCENE_01 CScene {Settings table {AxisSystem table {UpVector string "y" } Unit string "cm" TexelDensityDisplay
#ZOMSCENE_01 Unit string "tx/cm" } Root table {} }
#ZOMSCENE_01}

#begin 0 fatal error vertex (that RizomUV cannot handle)
#end 0 fatal error vertex (that RizomUV cannot handle)

#begin 0 error vertex
#end 0 error vertex
