#File written by RizomUV 2023.0.70.ge90189e8. Compilation :Sep 22 2023,12:42:11
mtllib VENTANA.mtl
#begin vertices
v 1.729637 23.46558 56.72805
v 1.729637 23.46558 52.788
v 1.729637 23.46558 48.84795
v 1.729637 30.34345 56.72805
v 1.729637 30.34345 52.788
v 1.729637 30.34345 48.84795
v 1.729637 23.16818 48.5557
v 1.729637 23.16818 52.788
v 1.729637 23.16818 57.02031
v 1.729637 30.64086 57.02031
v 1.729637 30.64086 48.5557
v 1.729637 30.64086 52.788
v 1.235416 23.46558 52.788
v 1.235416 30.34345 52.788
v 1.235416 23.46558 48.84795
v 1.235416 23.46558 56.72805
v 1.235417 30.34345 56.72805
v 1.235416 30.34345 48.84795
v 2.013244 23.46558 48.84795
v 2.013244 23.46558 52.788
v 2.013244 23.46558 56.72805
v 2.013244 30.34345 56.72805
v 2.013244 30.34345 48.84795
v 2.013244 30.34345 52.788
v 1.914621 23.16818 48.5557
v 2.013244 23.26737 48.65317
v 1.984358 23.19723 48.58425
v 2.013244 23.26735 52.788
v 1.914621 23.16818 52.788
v 1.984358 23.19722 52.788
v 2.013244 23.26737 56.92283
v 1.914621 23.16818 57.02031
v 1.984358 23.19723 56.99175
v 2.013244 30.54166 56.92283
v 1.914621 30.64086 57.02031
v 1.984358 30.61181 56.99175
v 1.914621 30.64086 48.5557
v 2.013244 30.54166 48.65317
v 1.984358 30.61181 48.58425
v 1.914621 30.64086 52.788
v 2.013244 30.54169 52.788
v 1.984358 30.61181 52.788
v 1.235416 23.46558 52.788
v 1.235416 30.34345 52.788
v 1.235416 23.46558 48.84795
v 1.235416 23.46558 56.72805
v 1.235417 30.34345 56.72805
v 1.235416 30.34345 48.84795
#end vertices

#begin 54 textures vertices 
vt 0.461873 0.04063651 0
vt 0.3534397 0.2182664 0
vt 0.4542699 0.3993765 0
vt 0.836309 0.0403839 0
vt 0.9371619 0.2214514 0
vt 0.8287619 0.3991175 0
vt 0.1422177 0.4477284 0
vt 0.08781323 0.718739 0
vt 0.1505339 0.9877765 0
vt 0.6271082 0.9807976 0
vt 0.6187986 0.4407562 0
vt 0.6815118 0.7097928 0
vt 0.3265795 0.2180637 0
vt 0.9640223 0.2216439 0
vt 0.4435057 0.4239308 0
vt 0.4507158 0.0160908 0
vt 0.8470714 0.01582798 0
vt 0.8399255 0.4236593 0
vt 0.4604361 0.3852076 0
vt 0.122281 0.7181904 0
vt 0.1740845 0.9556853 0
vt 0.8301475 0.05455519 0
vt 0.8224524 0.3849293 0
vt 0.9216361 0.2212228 0
vt 0.1480187 0.4572764 0
vt 0.1553925 0.4663696 0
vt 0.1511807 0.4615853 0
vt 0.1095186 0.7183975 0
vt 0.09970615 0.7185492 0
vt 0.1046016 0.718476 0
vt 0.1630316 0.9686482 0
vt 0.1559511 0.9779697 0
vt 0.1589625 0.9735519 0
vt 0.6139332 0.9621565 0
vt 0.6213072 0.9712496 0
vt 0.6181451 0.9669407 0
vt 0.6133812 0.4505629 0
vt 0.6062998 0.4598841 0
vt 0.6103693 0.4549805 0
vt 0.6696189 0.7099822 0
vt 0.6598064 0.7101336 0
vt 0.6647233 0.7100553 0
vt 0.3904422 0.5379586 0
vt 0.3877619 0.8976357 0
vt 0.5964864 0.539494 0
vt 0.184398 0.5364232 0
vt 0.1817177 0.8961003 0
vt 0.5938061 0.8991712 0
vt 0.1667972 0.4790274 0
vt 0.5952464 0.4728467 0
vt 0.6470438 0.7103404 0
vt 0.6025285 0.9494988 0
vt 0.4681772 0.0548276 0
vt 0.3689653 0.2185005 0
#end 54 textures vertices 

#begin 14 normals 
vn -0 -1 -0
vn -0 1 -0
vn -0 -0 1
vn 1 -0 -0
vn -0 -0 -1
vn 0.9246 -0.3808 -0
vn 0.3846 -0.9231 -0
vn 0.9223 -0 0.3865
vn 0.3789 -0 0.9254
vn 0.3789 -0 -0.9254
vn 0.9223 -0 -0.3865
vn 0.3846 0.9231 -0
vn 0.9246 0.3808 -0
vn 1 -0 -0
#end 14 normals 

#begin 38 faces
o Plane:119
s 0
f 6/6/1 5/5/1 14/14/1 18/18/1 
f 1/1/2 2/2/2 13/13/2 16/16/2 
f 6/6/3 3/3/3 19/19/3 23/23/3 
f 11/11/2 12/12/2 40/40/2 37/37/2 
f 20/20/4 21/21/4 31/31/4 28/28/4 
f 1/1/5 4/4/5 22/22/5 21/53/5 
f 4/4/1 5/5/1 24/24/1 22/22/1 
f 24/51/4 23/50/4 38/38/4 41/41/4 
f 23/50/4 19/49/4 26/26/4 38/38/4 
f 2/2/2 1/1/2 21/53/2 20/54/2 
f 8/8/1 7/7/1 25/25/1 29/29/1 
f 5/5/1 6/6/1 23/23/1 24/24/1 
f 3/3/2 2/2/2 20/54/2 19/19/2 
f 4/4/5 1/1/5 16/16/5 17/17/5 
f 5/5/1 4/4/1 17/17/1 14/14/1 
f 3/3/3 6/6/3 18/18/3 15/15/3 
f 2/2/2 3/3/2 15/15/2 13/13/2 
f 9/9/1 8/8/1 29/29/1 32/32/1 
f 10/10/3 9/9/3 32/32/3 35/35/3 
f 22/52/4 24/51/4 41/41/4 34/34/4 
f 19/49/4 20/20/4 28/28/4 26/26/4 
f 7/7/5 11/11/5 37/37/5 25/25/5 
f 12/12/2 10/10/2 35/35/2 40/40/2 
f 21/21/4 22/52/4 34/34/4 31/31/4 
f 26/26/6 28/28/6 30/30/6 27/27/6 
f 27/27/7 30/30/7 29/29/7 25/25/7 
f 28/28/6 31/31/6 33/33/6 30/30/6 
f 30/30/7 33/33/7 32/32/7 29/29/7 
f 31/31/8 34/34/8 36/36/8 33/33/8 
f 33/33/9 36/36/9 35/35/9 32/32/9 
f 25/25/10 37/37/10 39/39/10 27/27/10 
f 27/27/11 39/39/11 38/38/11 26/26/11 
f 37/37/12 40/40/12 42/42/12 39/39/12 
f 39/39/13 42/42/13 41/41/13 38/38/13 
f 40/40/12 35/35/12 36/36/12 42/42/12 
f 42/42/13 36/36/13 34/34/13 41/41/13 
o Plane:120
s 0
f 43/43/14 45/45/14 48/48/14 44/44/14 
f 46/46/14 43/43/14 44/44/14 47/47/14 
#end 38 faces

#ZOMPROPERTIES_04{
#ZOMPROPERTIES_04 table {Mesh table {SymPlane table {Point vector3d 0 0 0 Normal vector3d 1 0 0 Threshold double 0.01 
#ZOMPROPERTIES_04 Enabled bool false EdgeID int -1 SymEdgeID int -1 UPos double 0.5 LocalMode bool false } RootGroup C
#ZOMPROPERTIES_04 SubMeshGroup {Children table {Tile_0_0 CSubMeshGroup {Children table {} BBoxUV box3d 0 0 0 0 0 0 BBo
#ZOMPROPERTIES_04 x3D box3d 0 0 0 0 0 0 Area3D double 0 AreaUV double 0.269791 IsRoot bool false Properties table {Sel
#ZOMPROPERTIES_04 ected bool false Box box3d 0 1 0 1 0 1 U int 0 V int 0 NU int 0 NV int 0 Tiling vector3d 1 1 1 TileR
#ZOMPROPERTIES_04 atioMode string "1:1" Overflow string "Off" Pack table {BoxFrameEdit bool false Behavior string "Fre
#ZOMPROPERTIES_04 e" } } IsTile bool true PolyIDs ints { 0 14 13 1 16 15 2 11 12 9 5 6 3 32 33 7 19 23 4 20 8 24 25 10
#ZOMPROPERTIES_04  17 18 22 29 28 34 27 21 26 30 31 35 36 37 } } } BBoxUV box3d 0 0 0 0 0 0 BBox3D box3d 0 0 0 0 0 0 A
#ZOMPROPERTIES_04 rea3D double 0 AreaUV double 0 IsRoot bool true Properties table {Selected bool false Box box3d 0 1 
#ZOMPROPERTIES_04 0 1 0 1 U int 0 V int 0 NU int 1 NV int 1 Tiling vector3d 1 1 1 TileRatioMode string "1:1" Overflow 
#ZOMPROPERTIES_04 string "Off" Pack table {Rotate table {Mode int 0 Min double 0 Max double 90 Step double 0 } Padding
#ZOMPROPERTIES_04 Size double 0.0078125 MarginSize double 0.00390625 Resolution int 256 MapResolution int 2048 Scaling
#ZOMPROPERTIES_04  table {TexelDensity double 1024 Mode int 2 } LayoutScalingMode int 2 MaxMutations int 1 } } IsTile 
#ZOMPROPERTIES_04 bool false PolyIDs ints { } } Maps table {Pin table {PrimType string "Vertex" Size int 1 DefaultValu
#ZOMPROPERTIES_04 e double 0 ScaleType string "Normalized" MergeMode string "Max" MinValue double 0 MaxValue double 1 
#ZOMPROPERTIES_04 Data doubles { r 54 0 } } Density table {PrimType string "Polygon" Size int 1 DefaultValue double 1 
#ZOMPROPERTIES_04 ScaleType string "Log" MergeMode string "Average" MinValue double 0.1 MaxValue double 4 Data doubles
#ZOMPROPERTIES_04  { r 38 1 } } Protect table {PrimType string "Vertex" Size int 1 DefaultValue double 0 ScaleType str
#ZOMPROPERTIES_04 ing "Normalized" MergeMode string "Average" MinValue double -1 MaxValue double 1 Data doubles { r 54
#ZOMPROPERTIES_04  0 } } } } }
#ZOMPROPERTIES_04}


#ZOMSCENE_01{
#ZOMSCENE_01 CScene {Settings table {AxisSystem table {UpVector string "y" } Unit string "cm" TexelDensityDisplay
#ZOMSCENE_01 Unit string "tx/cm" } Root table {} }
#ZOMSCENE_01}

#begin 0 fatal error vertex (that RizomUV cannot handle)
#end 0 fatal error vertex (that RizomUV cannot handle)

#begin 0 error vertex
#end 0 error vertex
