# Blender 4.2.8 LTS
# www.blender.org
mtllib PARED_SIN_DESGASTE.mtl
o pared_con_relieve_plana
v -0.038190 0.963452 0.993107
v -0.038190 -0.826022 0.993107
v -0.038190 -0.826021 -1.006893
v 0.049486 -0.931231 -1.006893
v 0.049486 -0.931231 0.993107
v 0.049486 1.068769 0.993107
v 0.049486 1.068769 -1.006893
v -0.038190 0.963452 -1.006893
v -0.031942 -0.826021 -1.006893
v 0.049486 -0.907449 -1.006893
v -0.017692 -0.826022 -1.006893
v -0.017692 -0.832129 -1.006893
v -0.011585 -0.832129 -1.006893
v -0.008409 -0.848251 -1.006893
v 0.000629 -0.858593 -1.006893
v 0.015449 -0.864944 -1.006893
v 0.027745 -0.872191 -1.006893
v 0.033200 -0.887092 -1.006893
v 0.039307 -0.887092 -1.006893
v 0.042972 -0.894421 -1.006893
v 0.049486 -0.897271 -1.006893
v -0.031942 0.963452 0.993107
v 0.049486 1.044880 0.993107
v -0.021763 0.963452 0.993107
v -0.018913 0.969966 0.993107
v -0.011585 0.973630 0.993107
v -0.011585 0.979738 0.993107
v 0.003316 0.985193 0.993107
v 0.010563 0.997489 0.993107
v 0.016915 1.012309 0.993107
v 0.027256 1.021347 0.993107
v 0.043379 1.024523 0.993107
v 0.043379 1.030630 0.993107
v 0.049486 1.030630 0.993107
v 0.049486 1.044880 -1.006893
v -0.031942 0.963452 -1.006893
v 0.049486 1.030630 -1.006893
v 0.043379 1.030630 -1.006893
v 0.043379 1.024523 -1.006893
v 0.027256 1.021347 -1.006893
v 0.016915 1.012309 -1.006893
v 0.010563 0.997489 -1.006893
v 0.003316 0.985193 -1.006893
v -0.011585 0.979738 -1.006893
v -0.011585 0.973631 -1.006893
v -0.018913 0.969966 -1.006893
v -0.021763 0.963452 -1.006893
v 0.049486 -0.907449 0.993107
v -0.031942 -0.826022 0.993107
v 0.049486 -0.897271 0.993107
v 0.042972 -0.894421 0.993107
v 0.039307 -0.887092 0.993107
v 0.033200 -0.887092 0.993107
v 0.027745 -0.872191 0.993107
v 0.015449 -0.864944 0.993107
v 0.000629 -0.858592 0.993107
v -0.008409 -0.848251 0.993107
v -0.011585 -0.832128 0.993107
v -0.017692 -0.832128 0.993107
v -0.017692 -0.826021 0.993107
v -0.038190 -0.285083 0.993107
v -0.038190 -0.368995 0.993107
v -0.038190 -0.368995 -1.006893
v -0.038190 -0.285083 -1.006893
v 0.012295 -0.298449 0.979741
v -0.001071 -0.285083 0.993107
v 0.010504 -0.291766 0.986424
v 0.005612 -0.286874 0.991316
v -0.001071 -0.368995 0.993107
v 0.012295 -0.355629 0.979741
v 0.005612 -0.367204 0.991316
v 0.010504 -0.362312 0.986424
v 0.012295 -0.355629 -0.993528
v -0.001071 -0.368995 -1.006893
v 0.010504 -0.362312 -1.000211
v 0.005612 -0.367204 -1.005103
v -0.001071 -0.285083 -1.006893
v 0.012295 -0.298448 -0.993528
v 0.005612 -0.286873 -1.005103
v 0.010504 -0.291766 -1.000211
v -0.056174 -0.369308 0.993107
v -0.056174 -0.826335 0.993107
v 0.031502 -0.931544 0.993107
v 0.031502 -0.931544 -1.006893
v 0.031502 1.068456 -1.006893
v 0.031502 1.068456 0.993107
v -0.056173 -0.285396 -1.006893
v -0.056173 0.963139 -1.006893
v -0.056173 0.963139 0.993107
v -0.056174 -0.826335 -1.006893
v 0.031502 -0.897584 0.993107
v 0.031502 -0.907762 0.993107
v 0.031502 -0.907762 -1.006893
v 0.031502 -0.897584 -1.006893
v 0.024988 -0.894734 0.993107
v 0.024988 -0.894734 -1.006893
v 0.021324 -0.887405 0.993107
v 0.021324 -0.887405 -1.006893
v 0.015217 -0.887405 0.993107
v 0.015217 -0.887405 -1.006893
v 0.009761 -0.872504 0.993107
v 0.009761 -0.872504 -1.006893
v -0.002534 -0.865257 0.993107
v -0.002534 -0.865257 -1.006893
v -0.017354 -0.858906 0.993107
v -0.017354 -0.858906 -1.006893
v -0.026393 -0.848564 0.993107
v -0.026393 -0.848564 -1.006893
v -0.029568 -0.832442 0.993107
v -0.029568 -0.832442 -1.006893
v -0.035675 -0.832442 0.993107
v -0.035675 -0.832442 -1.006893
v -0.035675 -0.826335 0.993107
v -0.035675 -0.826335 -1.006893
v -0.049925 -0.826335 0.993107
v -0.049925 -0.826335 -1.006893
v -0.039747 0.963139 0.993107
v -0.049925 0.963139 0.993107
v -0.049925 0.963139 -1.006893
v -0.039747 0.963139 -1.006893
v -0.036897 0.969653 0.993107
v -0.036897 0.969653 -1.006893
v -0.029568 0.973317 0.993107
v -0.029568 0.973318 -1.006893
v -0.029568 0.979424 0.993107
v -0.029568 0.979425 -1.006893
v -0.014667 0.984880 0.993107
v -0.014667 0.984880 -1.006893
v -0.007420 0.997176 0.993107
v -0.007420 0.997176 -1.006893
v -0.001069 1.011995 0.993107
v -0.001069 1.011996 -1.006893
v 0.009273 1.021034 0.993107
v 0.009273 1.021034 -1.006893
v 0.025395 1.024210 0.993107
v 0.025395 1.024210 -1.006893
v 0.025395 1.030317 0.993107
v 0.025395 1.030317 -1.006893
v 0.031502 1.030317 0.993107
v 0.031502 1.030317 -1.006893
v 0.031502 1.044567 0.993107
v 0.031502 1.044567 -1.006893
v -0.056173 -0.285396 0.993107
v -0.056174 -0.369308 -1.006893
v -0.019054 -0.285396 0.993107
vn 0.2589 -0.0000 0.9659
vn 0.7071 -0.0000 0.7071
vn 0.8820 -0.3332 0.3332
vn 0.8687 0.0583 0.4919
vn 0.9903 -0.0985 0.0985
vn 0.9903 0.0985 0.0985
vn 0.2587 -0.0000 -0.9660
vn 0.4262 -0.0000 -0.9046
vn 0.4259 -0.0000 -0.9048
vn 0.7071 -0.0000 -0.7071
vn 0.8687 -0.4919 -0.0583
vn 0.9825 0.1316 -0.1317
vn 0.9903 0.0985 -0.0985
vn 0.9903 -0.0985 -0.0985
vn -1.0000 -0.0000 -0.0000
vn -0.0000 -0.0000 1.0000
vn -0.0000 -1.0000 -0.0000
vn -0.0000 1.0000 -0.0000
vn -0.1933 0.9811 -0.0000
vn -0.6581 0.7530 -0.0000
vn -0.8088 0.5881 -0.0000
vn -0.8921 0.4518 -0.0000
vn -0.8615 0.5078 -0.0000
vn -0.3438 0.9390 -0.0000
vn -0.4472 0.8944 -0.0000
vn -0.9162 0.4008 -0.0000
vn -0.9812 -0.1932 -0.0000
vn -0.7529 -0.6581 -0.0000
vn -0.5881 -0.8088 -0.0000
vn -0.4518 -0.8921 -0.0000
vn -0.5078 -0.8615 -0.0000
vn -0.9390 -0.3438 -0.0000
vn -0.8945 -0.4472 -0.0000
vn -0.4008 -0.9162 -0.0000
vn 0.7071 -0.7071 -0.0000
vn 0.1191 -0.9929 -0.0000
vn 0.2589 -0.9659 -0.0000
vn 0.4260 0.9047 -0.0000
vn 0.1191 0.9929 -0.0000
vn 0.7071 0.7071 -0.0000
vn 1.0000 -0.0000 -0.0000
vn 0.1933 -0.9811 -0.0000
vn 0.8088 -0.5881 -0.0000
vn 0.6581 -0.7530 -0.0000
vn 0.8921 -0.4518 -0.0000
vn 0.8615 -0.5077 -0.0000
vn 0.3438 -0.9391 -0.0000
vn 0.4473 -0.8944 -0.0000
vn 0.9161 -0.4008 -0.0000
vn 0.9811 0.1933 -0.0000
vn 0.5881 0.8088 -0.0000
vn 0.7530 0.6581 -0.0000
vn 0.4518 0.8921 -0.0000
vn 0.5078 0.8615 -0.0000
vn 0.9391 0.3438 -0.0000
vn 0.8944 0.4473 -0.0000
vn 0.4008 0.9162 -0.0000
vn -0.0174 0.9998 -0.0000
vn 0.0174 -0.9998 -0.0000
vt 0.229713 0.938278
vt 0.185307 0.938234
vt 0.188392 0.937205
vt 0.226632 0.937259
vt 0.191499 0.934917
vt 0.223530 0.934956
vt 0.194622 0.931895
vt 0.220414 0.931927
vt 0.186279 0.034318
vt 0.230686 0.034361
vt 0.227601 0.035390
vt 0.189360 0.035336
vt 0.224493 0.037680
vt 0.192463 0.037641
vt 0.221371 0.040704
vt 0.195578 0.040672
vt 0.009878 0.245550
vt 0.155817 0.245945
vt 0.156450 0.012169
vt 0.010512 0.011774
vt 0.246466 0.938300
vt 0.254582 0.938459
vt 0.237829 0.938428
vt 0.049293 0.706502
vt 0.049515 0.311745
vt 0.050748 0.311746
vt 0.050526 0.706503
vt 0.209461 0.967457
vt 0.006996 0.969926
vt 0.007014 0.971368
vt 0.209478 0.968900
vt 0.007021 0.971987
vt 0.209486 0.969518
vt 0.007029 0.972605
vt 0.209494 0.970136
vt 0.007049 0.974268
vt 0.209514 0.971799
vt 0.007066 0.975659
vt 0.209531 0.973190
vt 0.007086 0.977291
vt 0.209551 0.974822
vt 0.007104 0.978736
vt 0.209568 0.976267
vt 0.007123 0.980342
vt 0.209588 0.977873
vt 0.007131 0.980960
vt 0.209595 0.978491
vt 0.007141 0.981790
vt 0.209606 0.979321
vt 0.007150 0.982510
vt 0.209614 0.980041
vt 0.007162 0.983540
vt 0.209627 0.981071
vt 0.046480 0.706500
vt 0.046702 0.311744
vt 0.045275 0.706500
vt 0.045497 0.311743
vt 0.044070 0.706499
vt 0.044292 0.311742
vt 0.040826 0.706497
vt 0.041048 0.311740
vt 0.038115 0.706496
vt 0.038337 0.311739
vt 0.034933 0.706494
vt 0.035155 0.311737
vt 0.032116 0.706492
vt 0.032338 0.311736
vt 0.028984 0.706491
vt 0.029206 0.311734
vt 0.027778 0.706490
vt 0.028000 0.311733
vt 0.026161 0.706489
vt 0.026383 0.311732
vt 0.024758 0.706488
vt 0.024980 0.311731
vt 0.022749 0.706487
vt 0.022971 0.311730
vt 0.140956 0.311797
vt 0.140734 0.706554
vt 0.007170 0.984173
vt 0.209635 0.981704
vt 0.018055 0.706484
vt 0.018277 0.311728
vt 0.209431 0.965039
vt 0.006967 0.967507
vt 0.247440 0.034382
vt 0.908739 0.963297
vt 0.915510 0.009457
vt 0.918490 0.009478
vt 0.911719 0.963318
vt 0.882071 0.962477
vt 0.887511 0.011932
vt 0.894284 0.011971
vt 0.888843 0.962515
vt 0.879168 0.962460
vt 0.884609 0.011915
vt 0.876266 0.962443
vt 0.881706 0.011899
vt 0.868456 0.962399
vt 0.873896 0.011854
vt 0.861928 0.962362
vt 0.867369 0.011817
vt 0.854265 0.962318
vt 0.859706 0.011773
vt 0.847482 0.962279
vt 0.852922 0.011734
vt 0.839940 0.962236
vt 0.845380 0.011691
vt 0.837037 0.962219
vt 0.842478 0.011674
vt 0.833143 0.962197
vt 0.838584 0.011652
vt 0.829764 0.962177
vt 0.835205 0.011633
vt 0.824926 0.962150
vt 0.830367 0.011605
vt 0.925286 0.009526
vt 0.918515 0.963367
vt 0.928198 0.009547
vt 0.921428 0.963387
vt 0.931111 0.009568
vt 0.924340 0.963408
vt 0.938948 0.009623
vt 0.932177 0.963464
vt 0.945498 0.009670
vt 0.938727 0.963510
vt 0.953188 0.009724
vt 0.946417 0.963565
vt 0.959995 0.009773
vt 0.953224 0.963613
vt 0.967562 0.009826
vt 0.960792 0.963667
vt 0.970475 0.009847
vt 0.963704 0.963687
vt 0.974383 0.009875
vt 0.967612 0.963715
vt 0.977774 0.009899
vt 0.971003 0.963739
vt 0.982628 0.009933
vt 0.975857 0.963774
vt 0.283711 0.866802
vt 0.812184 0.866826
vt 0.812179 0.987589
vt 0.283706 0.987565
vt 0.821957 0.962133
vt 0.827397 0.011588
vt 0.993970 0.010014
vt 0.987199 0.963854
vt 0.905638 0.012036
vt 0.900197 0.962581
vt 0.168553 0.938215
vt 0.169525 0.034300
vt 0.144506 0.311799
vt 0.144284 0.706555
vt 0.272541 0.035950
vt 0.264425 0.035788
vt 0.279350 0.011112
vt 0.806054 0.009992
vt 0.807848 0.853708
vt 0.281144 0.854828
s 1
f 66/1/1 69/2/1 71/3/1 68/4/1
f 68/4/2 71/3/2 72/5/3 67/6/4
f 67/6/4 72/5/3 70/7/5 65/8/6
f 74/9/7 77/10/7 79/11/8 76/12/9
f 76/12/9 79/11/8 80/13/10 75/14/10
f 75/14/11 80/13/12 78/15/13 73/16/14
f 143/17/15 89/18/15 88/19/15 87/20/15
f 61/21/16 143/22/16 145/23/16 66/1/16
f 116/24/17 115/25/17 82/26/17 90/27/17
f 141/28/15 142/29/15 140/30/15 139/31/15
f 139/31/18 140/30/18 138/32/18 137/33/18
f 137/33/15 138/32/15 136/34/15 135/35/15
f 135/35/19 136/34/19 134/36/19 133/37/19
f 133/37/20 134/36/20 132/38/21 131/39/21
f 131/39/21 132/38/21 130/40/22 129/41/22
f 129/41/22 130/40/22 128/42/23 127/43/23
f 127/43/24 128/42/24 126/44/24 125/45/24
f 125/45/15 126/44/15 124/46/15 123/47/15
f 123/47/25 124/46/25 122/48/25 121/49/25
f 121/49/26 122/48/26 120/50/26 117/51/26
f 117/51/18 120/50/18 119/52/18 118/53/18
f 115/25/17 116/24/17 114/54/17 113/55/17
f 113/55/15 114/54/15 112/56/15 111/57/15
f 111/57/17 112/56/17 110/58/17 109/59/17
f 109/59/27 110/58/27 108/60/27 107/61/27
f 107/61/28 108/60/28 106/62/29 105/63/29
f 105/63/29 106/62/29 104/64/30 103/65/30
f 103/65/30 104/64/30 102/66/31 101/67/31
f 101/67/32 102/66/32 100/68/32 99/69/32
f 99/69/17 100/68/17 98/70/17 97/71/17
f 97/71/33 98/70/33 96/72/33 95/73/33
f 95/73/34 96/72/34 94/74/34 91/75/34
f 91/75/15 94/74/15 93/76/15 92/77/15
f 81/78/15 144/79/15 90/27/15 82/26/15
f 118/53/18 119/52/18 88/80/18 89/81/18
f 92/77/15 93/76/15 84/82/15 83/83/15
f 86/84/15 85/85/15 142/29/15 141/28/15
f 72/5/3 75/14/11 73/16/14 70/7/5
f 71/3/35 76/12/35 75/14/11 72/5/3
f 69/2/36 74/9/36 76/12/37 71/3/37
f 68/4/38 79/11/38 77/10/39 66/1/39
f 67/6/40 80/13/40 79/11/38 68/4/38
f 65/8/6 78/15/13 80/13/12 67/6/4
f 70/7/5 73/16/14 78/15/13 65/8/6
f 77/10/39 64/86/18 61/21/18 66/1/39
f 3/87/18 2/88/18 49/89/18 9/90/18
f 34/91/41 37/92/41 35/93/41 23/94/41
f 33/95/17 38/96/17 37/92/17 34/91/17
f 32/97/41 39/98/41 38/96/41 33/95/41
f 31/99/42 40/100/42 39/98/42 32/97/42
f 30/101/43 41/102/43 40/100/44 31/99/44
f 29/103/45 42/104/45 41/102/43 30/101/43
f 28/105/46 43/106/46 42/104/45 29/103/45
f 27/107/47 44/108/47 43/106/47 28/105/47
f 26/109/41 45/110/41 44/108/41 27/107/41
f 25/111/48 46/112/48 45/110/48 26/109/48
f 24/113/49 47/114/49 46/112/49 25/111/49
f 22/115/17 36/116/17 47/114/17 24/113/17
f 60/117/18 11/118/18 9/90/18 49/89/18
f 59/119/41 12/120/41 11/118/41 60/117/41
f 58/121/18 13/122/18 12/120/18 59/119/18
f 57/123/50 14/124/50 13/122/50 58/121/50
f 56/125/51 15/126/51 14/124/52 57/123/52
f 55/127/53 16/128/53 15/126/51 56/125/51
f 54/129/54 17/130/54 16/128/53 55/127/53
f 53/131/55 18/132/55 17/130/55 54/129/55
f 52/133/18 19/134/18 18/132/18 53/131/18
f 51/135/56 20/136/56 19/134/56 52/133/56
f 50/137/57 21/138/57 20/136/57 51/135/57
f 48/139/41 10/140/41 21/138/41 50/137/41
f 2/141/41 3/142/41 63/143/41 62/144/41
f 1/145/17 8/146/17 36/116/17 22/115/17
f 5/147/41 4/148/41 10/140/41 48/139/41
f 23/94/41 35/93/41 7/149/41 6/150/41
f 69/2/36 62/151/17 63/152/17 74/9/36
f 81/78/58 62/153/58 63/154/58 144/79/58
f 143/22/59 87/155/59 64/156/59 61/21/59
f 64/157/41 8/158/41 1/159/41 61/160/41
