#File written by RizomUV 2023.0.70.ge90189e8. Compilation :Sep 22 2023,12:42:11
mtllib techonuevoobj.mtl
#begin vertices
v 2.501404 7.404521 -10.62472
v 2.501404 7.404521 -16.65224
v -20.56278 7.404521 -10.62472
v -20.56278 7.404521 -16.65224
v -14.24357 7.404521 -10.62472
v -14.24357 7.404521 -16.65224
v -19.67111 7.404521 -16.65224
v -19.67111 7.404521 -10.62472
v -18.89575 7.404521 -10.62472
v -18.12039 7.404521 -10.62472
v -17.34502 7.404521 -10.62472
v -16.56966 7.404521 -10.62472
v -15.7943 7.404521 -10.62472
v -15.01893 7.404521 -10.62472
v -15.01893 7.404521 -16.65224
v -15.7943 7.404521 -16.65224
v -16.56966 7.404521 -16.65224
v -17.34502 7.404521 -16.65224
v -18.12039 7.404521 -16.65224
v -18.89575 7.404521 -16.65224
v 2.501404 7.404521 -11.4858
v 2.501404 7.404521 -12.34687
v 2.501404 7.404521 -13.20795
v 2.501404 7.404521 -14.06902
v 2.501404 7.404521 -14.93009
v 2.501404 7.404521 -15.79116
v -20.56278 7.404521 -15.79116
v -20.56278 7.404521 -14.93009
v -20.56278 7.404521 -14.06902
v -20.56278 7.404521 -13.20794
v -20.56278 7.404521 -12.34687
v -20.56278 7.404521 -11.4858
v -14.24357 7.404521 -15.79116
v -14.24357 7.404521 -14.93009
v -14.24357 7.404521 -14.06902
v -14.24357 7.404521 -13.20794
v -14.24357 7.404521 -12.34687
v -14.24357 7.404521 -11.4858
v -18.71131 7.399464 -15.29267
v -19.14651 7.401064 -14.7622
v -19.42349 7.402945 -14.13603
v -19.51982 7.404952 -13.46487
v -19.42769 7.406924 -12.80312
v -19.15457 7.408702 -12.20436
v -15.23261 7.400336 -14.95733
v -14.95948 7.402113 -14.35858
v -14.86735 7.404086 -13.69682
v -14.96369 7.406093 -13.02567
v -15.24067 7.407973 -12.39949
v -15.67586 7.409574 -11.86902
v -15.66459 7.398897 -15.44456
v -16.23402 7.410764 -11.47724
v -16.22045 7.397913 -15.78081
v -16.86991 7.411449 -11.25587
v -16.85515 7.397466 -15.93883
v -17.53202 7.411572 -11.22286
v -17.51726 7.397589 -15.90582
v -18.16672 7.411124 -11.38088
v -18.15316 7.398273 -15.68446
v -18.72258 7.410141 -11.71713
#end vertices

#begin 60 textures vertices 
vt 0.9552393 0.4088538 0
vt 0.9960937 0.1602361 0
vt 0.00390625 0.252524 0
vt 0.04476135 0.00390625 0
vt 0.2645565 0.2953564 0
vt 0.3054111 0.04673849 0
vt 0.08154006 0.009949884 0
vt 0.0406849 0.2585682 0
vt 0.07266644 0.2638241 0
vt 0.104648 0.2690802 0
vt 0.1366297 0.2743361 0
vt 0.1686117 0.2795913 0
vt 0.2005935 0.2848462 0
vt 0.2325751 0.2901012 0
vt 0.2734297 0.04148278 0
vt 0.2414482 0.03622691 0
vt 0.2094666 0.030971 0
vt 0.1774849 0.02571536 0
vt 0.1455033 0.02046018 0
vt 0.1135217 0.01520511 0
vt 0.9610756 0.373337 0
vt 0.966912 0.3378202 0
vt 0.9727483 0.3023033 0
vt 0.9785847 0.2667865 0
vt 0.984421 0.2312696 0
vt 0.9902574 0.1957529 0
vt 0.03892507 0.03942313 0
vt 0.03308869 0.07493995 0
vt 0.02725233 0.1104568 0
vt 0.0214159 0.1459736 0
vt 0.0155794 0.1814904 0
vt 0.009742833 0.2170072 0
vt 0.2995747 0.08225534 0
vt 0.2937382 0.1177722 0
vt 0.2879018 0.153289 0
vt 0.2820654 0.1888058 0
vt 0.2762291 0.2243227 0
vt 0.2703928 0.2598395 0
vt 0.1119144 0.0725339 0
vt 0.09036813 0.09146449 0
vt 0.07469897 0.1154151 0
vt 0.06617655 0.1424455 0
vt 0.0654912 0.1703656 0
vt 0.07269844 0.1969137 0
vt 0.2531276 0.1099447 0
vt 0.2603349 0.1364927 0
vt 0.2596497 0.164413 0
vt 0.2511272 0.1914433 0
vt 0.2354581 0.2153939 0
vt 0.2139119 0.2343245 0
vt 0.2386118 0.08691962 0
vt 0.188234 0.2467013 0
vt 0.2179633 0.06928281 0
vt 0.160505 0.2515218 0
vt 0.1928551 0.05846316 0
vt 0.132971 0.2483955 0
vt 0.1653213 0.05533674 0
vt 0.1078628 0.2375757 0
vt 0.1375922 0.0601571 0
vt 0.08721421 0.2199388 0
#end 60 textures vertices 

#begin 25 normals 
vn -0.0016 -1 -0.0016
vn -0 -1 -0
vn -0.0019 -1 -0.0035
vn 0.0017 -1 -0.0015
vn 0.0025 -1 -0.0033
vn 0.0024 -1 -0.0064
vn 0.0014 -1 -0.0093
vn -0.0003 -1 -0.0094
vn -0.0015 -1 -0.0065
vn 0.0015 -0.9999 -0.0103
vn -0.0003 -0.9999 -0.0112
vn -0.0017 -1 -0.008
vn -0.0021 -1 -0.0043
vn -0.002 -1 -0.0018
vn -0.0035 -1 0.0001
vn -0.0029 -1 0.0007
vn -0.0003 -1 0.0013
vn 0.0029 -1 0.0011
vn 0.0042 -1 0.0004
vn 0.0024 -1 -0.003
vn 0.0014 -1 -0.0014
vn 0.0029 -1 0.0007
vn 0.0017 -1 0.0012
vn -0.002 -1 0.0009
vn -0.0027 -1 0.0003
#end 25 normals 

#begin 33 faces
o Plane:061
s 0
f 39/39/1 27/27/1 4/4/1 7/7/1 
f 26/26/2 33/33/2 6/6/2 2/2/2 
f 59/59/3 39/39/3 7/7/3 20/20/3 
f 33/33/4 45/45/4 15/15/4 6/6/4 
f 45/45/5 51/51/5 16/16/5 15/15/5 
f 51/51/6 53/53/6 17/17/6 16/16/6 
f 53/53/7 55/55/7 18/18/7 17/17/7 
f 55/55/8 57/57/8 19/19/8 18/18/8 
f 57/57/9 59/59/9 20/20/9 19/19/9 
f 10/10/6 9/9/6 60/60/6 58/58/6 
f 11/11/10 10/10/10 58/58/10 56/56/10 
f 12/12/11 11/11/11 56/56/11 54/54/11 
f 13/13/12 12/12/12 54/54/12 52/52/12 
f 14/14/13 13/13/13 52/52/13 50/50/13 
f 5/5/14 14/14/14 50/50/14 38/38/14 
f 38/38/15 50/50/15 49/49/15 37/37/15 
f 37/37/16 49/49/16 48/48/16 36/36/16 
f 36/36/17 48/48/17 47/47/17 35/35/17 
f 35/35/18 47/47/18 46/46/18 34/34/18 
f 34/34/19 46/46/19 45/45/19 33/33/19 
f 9/9/20 8/8/20 44/44/20 60/60/20 
f 1/1/2 5/5/2 38/38/2 21/21/2 
f 21/21/2 38/38/2 37/37/2 22/22/2 
f 22/22/2 37/37/2 36/36/2 23/23/2 
f 23/23/2 36/36/2 35/35/2 24/24/2 
f 24/24/2 35/35/2 34/34/2 25/25/2 
f 25/25/2 34/34/2 33/33/2 26/26/2 
f 8/8/21 3/3/21 32/32/21 44/44/21 
f 44/44/22 32/32/22 31/31/22 43/43/22 
f 43/43/23 31/31/23 30/30/23 42/42/23 
f 42/42/17 30/30/17 29/29/17 41/41/17 
f 41/41/24 29/29/24 28/28/24 40/40/24 
f 40/40/25 28/28/25 27/27/25 39/39/25 
#end 33 faces

#ZOMPROPERTIES_04{
#ZOMPROPERTIES_04 table {Mesh table {SymPlane table {Point vector3d 0 0 0 Normal vector3d 1 0 0 Threshold double 0.01 
#ZOMPROPERTIES_04 Enabled bool false EdgeID int -1 SymEdgeID int -1 UPos double 0.5 LocalMode bool false } RootGroup C
#ZOMPROPERTIES_04 SubMeshGroup {Children table {Tile_0_0 CSubMeshGroup {Children table {} BBoxUV box3d 0 0 0 0 0 0 BBo
#ZOMPROPERTIES_04 x3D box3d 0 0 0 0 0 0 Area3D double 0 AreaUV double 0.213113 IsRoot bool false Properties table {Sel
#ZOMPROPERTIES_04 ected bool false Box box3d 0 1 0 1 0 1 U int 0 V int 0 NU int 0 NV int 0 Tiling vector3d 1 1 1 TileR
#ZOMPROPERTIES_04 atioMode string "1:1" Overflow string "Off" Pack table {BoxFrameEdit bool false Behavior string "Fre
#ZOMPROPERTIES_04 e" } } IsTile bool true PolyIDs ints { 0 32 31 30 29 28 27 20 9 10 11 12 13 14 21 22 23 24 25 26 1 3
#ZOMPROPERTIES_04  4 5 6 7 8 2 19 18 17 16 15 } } } BBoxUV box3d 0 0 0 0 0 0 BBox3D box3d 0 0 0 0 0 0 Area3D double 0 
#ZOMPROPERTIES_04 AreaUV double 0 IsRoot bool true Properties table {Selected bool false Box box3d 0 1 0 1 0 1 U int 0
#ZOMPROPERTIES_04  V int 0 NU int 1 NV int 1 Tiling vector3d 1 1 1 TileRatioMode string "1:1" Overflow string "Off" Pa
#ZOMPROPERTIES_04 ck table {Rotate table {Mode int 0 Min double 0 Max double 90 Step double 0 } PaddingSize double 0.0
#ZOMPROPERTIES_04 078125 MarginSize double 0.00390625 Resolution int 256 MapResolution int 2048 Scaling table {TexelDe
#ZOMPROPERTIES_04 nsity double 1024 Mode int 2 } LayoutScalingMode int 2 MaxMutations int 1 } } IsTile bool false Poly
#ZOMPROPERTIES_04 IDs ints { } } Maps table {Pin table {PrimType string "Vertex" Size int 1 DefaultValue double 0 Scal
#ZOMPROPERTIES_04 eType string "Normalized" MergeMode string "Max" MinValue double 0 MaxValue double 1 Data doubles { 
#ZOMPROPERTIES_04 r 60 0 } } Density table {PrimType string "Polygon" Size int 1 DefaultValue double 1 ScaleType strin
#ZOMPROPERTIES_04 g "Log" MergeMode string "Average" MinValue double 0.1 MaxValue double 4 Data doubles { r 33 1 } } P
#ZOMPROPERTIES_04 rotect table {PrimType string "Vertex" Size int 1 DefaultValue double 0 ScaleType string "Normalized
#ZOMPROPERTIES_04 " MergeMode string "Average" MinValue double -1 MaxValue double 1 Data doubles { r 60 0 } } } } }
#ZOMPROPERTIES_04}


#ZOMSCENE_01{
#ZOMSCENE_01 CScene {Settings table {AxisSystem table {UpVector string "y" } Unit string "cm" TexelDensityDisplay
#ZOMSCENE_01 Unit string "tx/cm" } Root table {} }
#ZOMSCENE_01}

#begin 0 fatal error vertex (that RizomUV cannot handle)
#end 0 fatal error vertex (that RizomUV cannot handle)

#begin 0 error vertex
#end 0 error vertex
