#File written by RizomUV 2023.0.70.ge90189e8. Compilation :Sep 22 2023,12:42:11
mtllib teecho agujero.mtl
#begin vertices
v 2.501404 7.404521 -10.62472
v 2.501404 7.404521 -16.65224
v -20.56278 7.404521 -10.62472
v -20.56278 7.404521 -16.65224
v -14.24357 7.404521 -10.62472
v -14.24357 7.404521 -16.65224
v -19.67111 7.404521 -16.65224
v -19.67111 7.404521 -10.62472
v -18.89575 7.404521 -10.62472
v -18.12039 7.404521 -10.62472
v -17.34502 7.404521 -10.62472
v -16.56966 7.404521 -10.62472
v -15.7943 7.404521 -10.62472
v -15.01893 7.404521 -10.62472
v -15.01893 7.404521 -16.65224
v -15.7943 7.404521 -16.65224
v -16.56966 7.404521 -16.65224
v -17.34502 7.404521 -16.65224
v -18.12039 7.404521 -16.65224
v -18.89575 7.404521 -16.65224
v 2.501404 7.404521 -11.4858
v 2.501404 7.404521 -12.34687
v 2.501404 7.404521 -13.20795
v 2.501404 7.404521 -14.06902
v 2.501404 7.404521 -14.93009
v 2.501404 7.404521 -15.79116
v -20.56278 7.404521 -15.79116
v -20.56278 7.404521 -14.93009
v -20.56278 7.404521 -14.06902
v -20.56278 7.404521 -13.20794
v -20.56278 7.404521 -12.34687
v -20.56278 7.404521 -11.4858
v -14.24357 7.404521 -15.79116
v -14.24357 7.404521 -14.93009
v -14.24357 7.404521 -14.06902
v -14.24357 7.404521 -13.20794
v -14.24357 7.404521 -12.34687
v -14.24357 7.404521 -11.4858
v -17.84138 7.402363 -14.31149
v -18.02714 7.403046 -14.08507
v -18.14536 7.403848 -13.81781
v -18.18647 7.404705 -13.53134
v -18.14715 7.405547 -13.24889
v -18.03058 7.406306 -12.99333
v -16.3566 7.402735 -14.16836
v -16.24002 7.403493 -13.9128
v -16.2007 7.404335 -13.63035
v -16.24182 7.405192 -13.34388
v -16.36004 7.405994 -13.07662
v -16.54579 7.406678 -12.8502
v -16.54098 7.402121 -14.37632
v -16.78402 7.407186 -12.68298
v -16.77823 7.401701 -14.51984
v -17.05543 7.407478 -12.58849
v -17.04914 7.40151 -14.58728
v -17.33804 7.407531 -12.57441
v -17.33174 7.401562 -14.5732
v -17.60894 7.40734 -12.64185
v -17.60315 7.401855 -14.47871
v -17.8462 7.40692 -12.78537
#end vertices

#begin 60 textures vertices 
vt 0.9721222 0.00390625 0
vt 0.9960938 0.2569364 0
vt 0.00390625 0.09563295 0
vt 0.02787776 0.3486632 0
vt 0.2691816 0.07050132 0
vt 0.2931531 0.3235315 0
vt 0.06530919 0.345117 0
vt 0.04133767 0.09208674 0
vt 0.07388684 0.08900305 0
vt 0.1064359 0.08591938 0
vt 0.138985 0.08283573 0
vt 0.1715342 0.07975211 0
vt 0.2040834 0.07666851 0
vt 0.2366325 0.07358492 0
vt 0.260604 0.3266152 0
vt 0.2280549 0.3296989 0
vt 0.1955058 0.3327825 0
vt 0.1629566 0.3358662 0
vt 0.1304075 0.3389498 0
vt 0.09785836 0.3420334 0
vt 0.9755467 0.0400534 0
vt 0.9789712 0.07620056 0
vt 0.9823957 0.1123478 0
vt 0.9858202 0.1484949 0
vt 0.9892447 0.1846421 0
vt 0.9926692 0.2207892 0
vt 0.02445327 0.312516 0
vt 0.02102879 0.2763688 0
vt 0.01760431 0.2402216 0
vt 0.01417981 0.2040745 0
vt 0.0107553 0.1679273 0
vt 0.007330778 0.1317801 0
vt 0.2897286 0.2873843 0
vt 0.2863041 0.2512371 0
vt 0.2828796 0.21509 0
vt 0.2794551 0.1789428 0
vt 0.2760306 0.1427956 0
vt 0.2726061 0.1066485 0
vt 0.1328105 0.2395775 0
vt 0.1241123 0.2308114 0
vt 0.1180865 0.220062 0
vt 0.1152213 0.2082 0
vt 0.1157487 0.1961865 0
vt 0.1196261 0.1849946 0
vt 0.1945714 0.2276639 0
vt 0.1984488 0.2164721 0
vt 0.1989762 0.2044585 0
vt 0.1961109 0.1925965 0
vt 0.190085 0.1818471 0
vt 0.1813869 0.173081 0
vt 0.1876583 0.2371273 0
vt 0.1707211 0.1670086 0
vt 0.1782694 0.2440956 0
vt 0.1589517 0.1641216 0
vt 0.1671653 0.2480043 0
vt 0.1470322 0.1646541 0
vt 0.1552458 0.2485368 0
vt 0.1359281 0.1685628 0
vt 0.1434764 0.2456499 0
vt 0.1265392 0.1755312 0
#end 60 textures vertices 

#begin 24 normals 
vn 0.0004 1 0.0004
vn -0 1 -0
vn 0.0006 1 0.0006
vn -0.0004 1 0.0004
vn -0.0008 1 0.0005
vn -0.0006 1 0.0011
vn -0.0003 1 0.0014
vn 0.0001 1 0.0014
vn 0.0004 1 0.0011
vn -0.0006 1 0.001
vn 0.0001 1 0.0015
vn 0.0004 1 0.0013
vn 0.0006 1 0.0008
vn 0.0005 1 0.0005
vn 0.001 1 -0.0005
vn 0.0007 1 -0.0006
vn 0.0001 1 -0.0007
vn -0.0006 1 -0.0007
vn -0.0011 1 -0.0006
vn -0.0007 1 0.0005
vn -0.0009 1 -0.0006
vn -0.0004 1 -0.0007
vn 0.0006 1 -0.0007
vn 0.0009 1 -0.0005
#end 24 normals 

#begin 33 faces
o Plane:061
s 0
f 39/39/1 7/7/1 4/4/1 27/27/1 
f 26/26/2 2/2/2 6/6/2 33/33/2 
f 59/59/3 20/20/3 7/7/3 39/39/3 
f 33/33/4 6/6/4 15/15/4 45/45/4 
f 45/45/5 15/15/5 16/16/5 51/51/5 
f 51/51/6 16/16/6 17/17/6 53/53/6 
f 53/53/7 17/17/7 18/18/7 55/55/7 
f 55/55/8 18/18/8 19/19/8 57/57/8 
f 57/57/9 19/19/9 20/20/9 59/59/9 
f 10/10/10 58/58/10 60/60/10 9/9/10 
f 11/11/7 56/56/7 58/58/7 10/10/7 
f 12/12/11 54/54/11 56/56/11 11/11/11 
f 13/13/12 52/52/12 54/54/12 12/12/12 
f 14/14/13 50/50/13 52/52/13 13/13/13 
f 5/5/14 38/38/14 50/50/14 14/14/14 
f 38/38/15 37/37/15 49/49/15 50/50/15 
f 37/37/16 36/36/16 48/48/16 49/49/16 
f 36/36/17 35/35/17 47/47/17 48/48/17 
f 35/35/18 34/34/18 46/46/18 47/47/18 
f 34/34/19 33/33/19 45/45/19 46/46/19 
f 9/9/20 60/60/20 44/44/20 8/8/20 
f 1/1/2 21/21/2 38/38/2 5/5/2 
f 21/21/2 22/22/2 37/37/2 38/38/2 
f 22/22/2 23/23/2 36/36/2 37/37/2 
f 23/23/2 24/24/2 35/35/2 36/36/2 
f 24/24/2 25/25/2 34/34/2 35/35/2 
f 25/25/2 26/26/2 33/33/2 34/34/2 
f 8/8/4 44/44/4 32/32/4 3/3/4 
f 44/44/21 43/43/21 31/31/21 32/32/21 
f 43/43/22 42/42/22 30/30/22 31/31/22 
f 42/42/17 41/41/17 29/29/17 30/30/17 
f 41/41/23 40/40/23 28/28/23 29/29/23 
f 40/40/24 39/39/24 27/27/24 28/28/24 
#end 33 faces

#ZOMPROPERTIES_04{
#ZOMPROPERTIES_04 table {Mesh table {SymPlane table {Point vector3d 0 0 0 Normal vector3d 1 0 0 Threshold double 0.01 
#ZOMPROPERTIES_04 Enabled bool false EdgeID int -1 SymEdgeID int -1 UPos double 0.5 LocalMode bool false } RootGroup C
#ZOMPROPERTIES_04 SubMeshGroup {Children table {Tile_0_0 CSubMeshGroup {Children table {} BBoxUV box3d 0 0 0 0 0 0 BBo
#ZOMPROPERTIES_04 x3D box3d 0 0 0 0 0 0 Area3D double 0 AreaUV double 0.241664 IsRoot bool false Properties table {Sel
#ZOMPROPERTIES_04 ected bool false Box box3d 0 1 0 1 0 1 U int 0 V int 0 NU int 0 NV int 0 Tiling vector3d 1 1 1 TileR
#ZOMPROPERTIES_04 atioMode string "1:1" Overflow string "Off" Pack table {BoxFrameEdit bool false Behavior string "Fre
#ZOMPROPERTIES_04 e" } } IsTile bool true PolyIDs ints { 0 2 8 7 6 5 4 3 1 26 25 24 23 22 21 14 13 12 11 10 9 20 27 28
#ZOMPROPERTIES_04  29 30 31 32 15 16 17 18 19 } } } BBoxUV box3d 0 0 0 0 0 0 BBox3D box3d 0 0 0 0 0 0 Area3D double 0 
#ZOMPROPERTIES_04 AreaUV double 0 IsRoot bool true Properties table {Selected bool false Box box3d 0 1 0 1 0 1 U int 0
#ZOMPROPERTIES_04  V int 0 NU int 1 NV int 1 Tiling vector3d 1 1 1 TileRatioMode string "1:1" Overflow string "Off" Pa
#ZOMPROPERTIES_04 ck table {Rotate table {Mode int 0 Min double 0 Max double 90 Step double 0 } PaddingSize double 0.0
#ZOMPROPERTIES_04 078125 MarginSize double 0.00390625 Resolution int 256 MapResolution int 2048 Scaling table {TexelDe
#ZOMPROPERTIES_04 nsity double 1024 Mode int 2 } LayoutScalingMode int 2 MaxMutations int 1 } } IsTile bool false Poly
#ZOMPROPERTIES_04 IDs ints { } } Maps table {Pin table {PrimType string "Vertex" Size int 1 DefaultValue double 0 Scal
#ZOMPROPERTIES_04 eType string "Normalized" MergeMode string "Max" MinValue double 0 MaxValue double 1 Data doubles { 
#ZOMPROPERTIES_04 r 60 0 } } Density table {PrimType string "Polygon" Size int 1 DefaultValue double 1 ScaleType strin
#ZOMPROPERTIES_04 g "Log" MergeMode string "Average" MinValue double 0.1 MaxValue double 4 Data doubles { r 33 1 } } P
#ZOMPROPERTIES_04 rotect table {PrimType string "Vertex" Size int 1 DefaultValue double 0 ScaleType string "Normalized
#ZOMPROPERTIES_04 " MergeMode string "Average" MinValue double -1 MaxValue double 1 Data doubles { r 60 0 } } } } }
#ZOMPROPERTIES_04}


#ZOMSCENE_01{
#ZOMSCENE_01 CScene {Settings table {AxisSystem table {UpVector string "y" } Unit string "cm" TexelDensityDisplay
#ZOMSCENE_01 Unit string "tx/cm" } Root table {} }
#ZOMSCENE_01}

#begin 0 fatal error vertex (that RizomUV cannot handle)
#end 0 fatal error vertex (that RizomUV cannot handle)

#begin 0 error vertex
#end 0 error vertex
