# Blender 4.2.8 LTS
# www.blender.org
mtllib estante.mtl
o chimenea
v 1.311893 3.687798 25.532591
v -0.840817 3.687798 25.532591
v -3.797818 -1.831358 25.044788
v -3.781138 -1.800224 25.075922
v -3.816358 -1.802885 25.044788
v -3.792086 -1.821688 25.066803
v -3.809607 -1.818761 25.062763
v -3.805196 -1.801555 25.066803
v -3.816990 -1.823569 25.044788
v -3.797818 -1.831358 23.191387
v -3.816358 -1.802885 23.202753
v -3.786457 -1.800761 23.158005
v -3.815889 -1.823458 23.199890
v -3.810731 -1.818875 23.179501
v -3.807856 -1.801823 23.176287
v -3.794746 -1.821957 23.168249
v -1.955784 -1.831358 25.044788
v -1.921907 -1.800346 25.044788
v -1.953152 -1.800224 25.075922
v -1.932943 -1.822300 25.044788
v -1.936673 -1.818225 25.062763
v -1.931082 -1.800285 25.066803
v -1.955036 -1.822214 25.066803
v -1.630338 0.703614 25.044788
v -3.517520 -1.204193 25.075922
v -3.548654 -1.197615 25.044788
v -3.539535 -1.199542 25.066803
v -3.520849 0.069871 23.156294
v -3.548654 -1.197615 23.202753
v -3.520567 -1.197615 23.156656
v -3.540427 -1.197615 23.176355
v -1.955784 0.076748 25.075922
v -1.924651 0.069871 25.044788
v -1.933769 0.071885 25.066803
v -1.924651 -0.563872 25.044788
v -1.868591 -1.197615 25.044788
v -1.877745 -1.197615 25.066803
v -3.517520 1.240966 25.075922
v -3.548654 1.236180 25.044788
v -3.539535 1.237582 25.066803
v -3.548654 1.236180 23.202753
v -3.519221 1.236180 23.159788
v -3.540033 1.236180 23.177273
v -1.294293 1.250360 25.044788
v -1.344357 1.259719 25.075922
v -1.337609 1.209236 25.044788
v -1.316388 1.249299 25.066803
v -1.323364 1.237606 25.062763
v -1.335403 1.231247 25.066803
v -1.318461 1.232442 25.044788
v -3.755773 1.997771 25.075922
v -3.786907 1.992985 25.044788
v -3.777788 1.994387 25.066803
v -3.786907 1.992985 23.202753
v -3.755864 1.992985 23.164574
v -3.777815 1.992985 23.178675
v 0.157291 1.992985 25.044788
v 0.157291 2.027957 25.075922
v 0.157291 2.003228 25.066803
v 0.157291 2.016642 22.484396
v 0.157291 1.992985 22.433022
v 0.157291 1.999914 22.460964
v -3.755773 2.819865 25.044788
v -3.786907 2.788731 25.044788
v -3.755773 2.788731 25.075922
v -3.777788 2.810746 25.044788
v -3.773748 2.806706 25.062763
v -3.777788 2.788731 25.066803
v -3.755773 2.810746 25.066803
v -3.755773 2.819865 23.202753
v -3.755101 2.788731 23.171619
v -3.786907 2.788731 23.202753
v -3.755437 2.810746 23.180738
v -3.773607 2.806706 23.184778
v -3.777599 2.788731 23.180750
v -3.777788 2.810746 23.202753
v 0.157291 2.788731 25.075922
v 0.157291 2.819865 25.044788
v 0.157291 2.810746 25.066803
v 0.157291 2.819865 23.202753
v 0.157291 2.796208 23.151381
v 0.157291 2.812936 23.174810
v -2.349255 -1.800299 22.478430
v -2.318941 -1.800628 22.433022
v -2.292806 -1.831358 22.483923
v -2.327956 -1.801418 22.459200
v -2.322078 -1.818499 22.464325
v -2.313357 -1.822358 22.458471
v -2.323963 -1.822261 22.474937
v -2.220862 -1.197615 22.433022
v -2.250534 -1.197615 22.479965
v -2.229553 -1.197615 22.459667
v -2.294844 0.069871 22.480513
v -2.265167 0.069871 22.433022
v -2.273859 0.069871 22.459827
v -1.763102 1.253629 22.433022
v -1.800657 1.207357 22.433022
v -1.820994 1.236180 22.477062
v -1.784782 1.232849 22.433022
v -1.792918 1.232336 22.453169
v -1.805166 1.219332 22.458807
v -1.792083 1.240394 22.458838
v -0.696276 1.975537 22.433022
v -0.673103 2.018061 22.475180
v -0.639357 1.992985 22.433022
v -0.680947 1.993795 22.458292
v -0.669383 1.993966 22.452852
v -0.656884 2.000346 22.458286
v -0.668924 1.987875 22.433022
v -0.670491 2.796208 23.151381
v -0.670491 2.812936 23.174810
v -1.630338 0.703614 21.988188
v -1.868591 -1.197615 21.988188
v -1.877745 -1.197615 21.966171
v -1.955784 -1.831358 21.988188
v -1.953152 -1.800224 21.957054
v -1.921907 -1.800346 21.988188
v -1.955036 -1.822214 21.966171
v -1.936673 -1.818225 21.970211
v -1.931081 -1.800285 21.966171
v -1.932943 -1.822300 21.988186
v -1.924651 0.069871 21.988188
v -1.955784 0.076748 21.957054
v -1.933769 0.071885 21.966171
v -1.924651 -0.563872 21.988188
v -2.189641 -1.199589 21.957054
v -2.220862 -1.197615 21.988188
v -2.211718 -1.198193 21.966171
v -2.265167 0.069871 21.988188
v -2.233819 0.064284 21.957054
v -2.255986 0.068235 21.966171
v -1.763102 1.253629 21.988188
v -1.763629 1.215680 21.957054
v -1.800657 1.207357 21.988188
v -1.766979 1.239995 21.966171
v -1.781492 1.230178 21.970211
v -1.788113 1.213956 21.966171
v -1.784782 1.232849 21.988188
v -1.294293 1.250360 21.988188
v -1.337609 1.209236 21.988188
v -1.344357 1.259719 21.957054
v -1.318461 1.232442 21.988188
v -1.323364 1.237606 21.970211
v -1.335403 1.231247 21.966171
v -1.316388 1.249299 21.966171
v -0.696276 1.975537 21.988188
v -0.639357 1.992985 21.988188
v -0.660947 1.961851 21.957054
v -0.668924 1.987875 21.988188
v -0.667684 1.983828 21.970211
v -0.650152 1.983866 21.966171
v -0.682225 1.974034 21.966171
v 0.157291 2.022236 21.967716
v 0.286505 1.961851 21.957054
v 0.157291 1.992985 21.988188
v 0.028078 1.961851 21.957054
v 0.221898 1.992434 21.960176
v 0.157291 1.985989 21.962053
v 0.218962 1.971678 21.966171
v 0.095621 1.971678 21.966171
v 0.092685 1.992434 21.960176
v -2.318941 -1.800628 21.988188
v -2.287333 -1.800224 21.957054
v -2.292806 -1.831358 21.988188
v -2.309585 -1.800426 21.966171
v -2.308568 -1.818285 21.970211
v -2.291105 -1.822156 21.966171
v -2.313455 -1.822441 21.988186
v 4.112401 -1.831358 25.044788
v 4.130941 -1.802885 25.044788
v 4.095721 -1.800224 25.075922
v 4.131573 -1.823569 25.044788
v 4.124190 -1.818761 25.062763
v 4.119779 -1.801555 25.066803
v 4.106669 -1.821688 25.066803
v 4.112401 -1.831358 23.191387
v 4.101039 -1.800761 23.158005
v 4.130941 -1.802885 23.202753
v 4.109970 -1.822396 23.167782
v 4.125196 -1.818398 23.178913
v 4.120964 -1.799523 23.176743
v 4.130727 -1.823018 23.197071
v 2.270367 -1.831358 25.044788
v 2.267734 -1.800224 25.075922
v 2.236490 -1.800346 25.044788
v 2.269618 -1.822214 25.066803
v 2.251255 -1.818225 25.062763
v 2.245664 -1.800285 25.066803
v 2.247525 -1.822300 25.044788
v 1.944920 0.703614 25.044788
v 3.863237 -1.197615 25.044788
v 3.832103 -1.204193 25.075922
v 3.854118 -1.199542 25.066803
v 3.835432 0.069871 23.156294
v 3.835150 -1.197615 23.156656
v 3.863237 -1.197615 23.202753
v 3.855010 -1.197615 23.176355
v 2.239233 0.069871 25.044788
v 2.270367 0.076748 25.075922
v 2.248352 0.071885 25.066803
v 2.239233 -0.563872 25.044788
v 2.183174 -1.197615 25.044788
v 2.192328 -1.197615 25.066803
v 3.832103 1.240966 25.075922
v 3.863237 1.236180 25.044788
v 3.854118 1.237582 25.066803
v 3.833803 1.236180 23.159788
v 3.863237 1.236180 23.202753
v 3.854616 1.236180 23.177273
v 1.608876 1.250360 25.044788
v 1.652192 1.209236 25.044788
v 1.658940 1.259719 25.075922
v 1.633044 1.232442 25.044788
v 1.637947 1.237606 25.062763
v 1.649986 1.231247 25.066803
v 1.630971 1.249299 25.066803
v 4.070356 1.997771 25.075922
v 4.101490 1.992985 25.044788
v 4.092371 1.994387 25.066803
v 4.070447 1.992985 23.164574
v 4.101490 1.992985 23.202753
v 4.092398 1.992985 23.178675
v 4.070356 2.819865 25.044788
v 4.070356 2.788731 25.075922
v 4.101490 2.788731 25.044788
v 4.070356 2.810746 25.066803
v 4.088331 2.806706 25.062763
v 4.092371 2.788731 25.066803
v 4.092371 2.810746 25.044788
v 4.070356 2.819865 23.202753
v 4.101490 2.788731 23.202753
v 4.069684 2.788731 23.171619
v 4.092510 2.810746 23.202753
v 4.088189 2.806706 23.184778
v 4.092035 2.788731 23.180738
v 4.070020 2.810746 23.180738
v 2.663838 -1.800299 22.478430
v 2.607389 -1.831358 22.483923
v 2.633524 -1.800628 22.433022
v 2.638546 -1.822261 22.474937
v 2.636661 -1.818499 22.464325
v 2.627940 -1.822358 22.458471
v 2.642539 -1.801418 22.459200
v 2.565117 -1.197615 22.479965
v 2.535445 -1.197615 22.433022
v 2.544136 -1.197615 22.459667
v 2.579750 0.069871 22.433022
v 2.609427 0.069871 22.480513
v 2.588442 0.069871 22.459827
v 2.077684 1.253629 22.433022
v 2.135577 1.236180 22.477062
v 2.115240 1.207357 22.433022
v 2.106666 1.240394 22.458838
v 2.107501 1.232336 22.453169
v 2.119749 1.219332 22.458807
v 2.099365 1.232849 22.433022
v 1.010859 1.975537 22.433022
v 0.953940 1.992985 22.433022
v 0.987686 2.018061 22.475180
v 0.983507 1.987875 22.433022
v 0.983965 1.993966 22.452852
v 0.971467 2.000346 22.458286
v 0.995529 1.993795 22.458292
v 0.985074 2.796208 23.151381
v 0.985074 2.812936 23.174810
v 1.944920 0.703614 21.988188
v 2.183174 -1.197615 21.988188
v 2.192328 -1.197615 21.966171
v 2.270367 -1.831358 21.988188
v 2.236490 -1.800346 21.988188
v 2.267734 -1.800224 21.957054
v 2.247525 -1.822300 21.988186
v 2.251256 -1.818225 21.970211
v 2.245664 -1.800285 21.966171
v 2.269619 -1.822214 21.966171
v 2.270367 0.076748 21.957054
v 2.239233 0.069871 21.988188
v 2.248352 0.071885 21.966171
v 2.239233 -0.563872 21.988188
v 2.535445 -1.197615 21.988188
v 2.504223 -1.199589 21.957054
v 2.526301 -1.198193 21.966171
v 2.548402 0.064284 21.957054
v 2.579750 0.069871 21.988188
v 2.570569 0.068235 21.966171
v 2.077684 1.253629 21.988188
v 2.115240 1.207357 21.988188
v 2.078211 1.215680 21.957054
v 2.099365 1.232849 21.988188
v 2.096074 1.230178 21.970211
v 2.102695 1.213956 21.966171
v 2.081562 1.239995 21.966171
v 1.608876 1.250360 21.988188
v 1.658940 1.259719 21.957054
v 1.652192 1.209236 21.988188
v 1.630971 1.249299 21.966171
v 1.637947 1.237606 21.970211
v 1.649986 1.231247 21.966171
v 1.633044 1.232442 21.988188
v 1.010859 1.975537 21.988188
v 0.975530 1.961851 21.957054
v 0.953940 1.992985 21.988188
v 0.996808 1.974034 21.966171
v 0.982267 1.983828 21.970211
v 0.964735 1.983866 21.966171
v 0.983507 1.987875 21.988188
v 2.633524 -1.800628 21.988188
v 2.607389 -1.831358 21.988188
v 2.601916 -1.800224 21.957054
v 2.628038 -1.822441 21.988186
v 2.623151 -1.818285 21.970211
v 2.605688 -1.822156 21.966171
v 2.624168 -1.800426 21.966171
v 5.617313 3.615386 22.207640
v 5.586180 3.621579 22.176506
v 5.608194 3.619765 22.185625
v 5.617313 3.656664 22.248919
v 5.586180 3.687798 22.242725
v 5.608194 3.678679 22.244539
v 5.617313 3.644574 22.219730
v 5.586180 3.639639 22.183987
v 5.586180 3.680317 22.224667
v 5.608194 3.644574 22.195902
v 5.604155 3.660532 22.203773
v 5.586180 3.663468 22.200836
v 5.608194 3.668403 22.219730
v -5.146237 3.656664 22.248919
v -5.115104 3.687798 22.242725
v -5.137118 3.678679 22.244539
v -5.146237 3.615386 22.207640
v -5.115104 3.621579 22.176506
v -5.137118 3.619765 22.185625
v -5.146237 3.644574 22.219730
v -5.115104 3.680317 22.224667
v -5.115104 3.639639 22.183987
v -5.137118 3.668403 22.219730
v -5.133079 3.660532 22.203773
v -5.115103 3.663468 22.200836
v -5.137118 3.644574 22.195902
v 5.617313 3.656664 25.526398
v 5.586180 3.687798 25.532591
v 5.608194 3.678679 25.530777
v 5.617313 3.609961 25.573101
v 5.586180 3.616154 25.604235
v 5.608194 3.614340 25.595116
v 5.586180 3.678728 25.554487
v 5.586180 3.638050 25.595165
v 5.617313 3.642985 25.559422
v 5.586180 3.663324 25.579762
v 5.604155 3.658217 25.574656
v 5.608195 3.638050 25.583252
v 5.608195 3.666814 25.554487
v -5.146237 3.609961 25.573101
v -5.115104 3.616154 25.604235
v -5.137118 3.614340 25.595116
v -5.146237 3.656664 25.526398
v -5.115104 3.687798 25.532591
v -5.137118 3.678679 25.530777
v -5.115104 3.678728 25.554487
v -5.146237 3.642985 25.559422
v -5.115104 3.638050 25.595165
v -5.137119 3.666814 25.554487
v -5.133079 3.658217 25.574656
v -5.137119 3.638050 25.583252
v -5.115104 3.663324 25.579762
v 5.617313 2.768245 25.573101
v 5.586180 2.762052 25.604235
v 5.608194 2.763866 25.595116
v 5.617313 2.752508 25.557364
v 5.608194 2.730493 25.561743
v 5.586180 2.721374 25.563557
v 5.617313 2.757117 25.568493
v 5.608194 2.733288 25.568493
v 5.604155 2.741159 25.584450
v 5.608194 2.757117 25.592321
v 5.586180 2.738223 25.587385
v -5.146237 2.752508 25.557364
v -5.137118 2.730493 25.561743
v -5.146237 2.768245 25.573101
v -5.137118 2.763866 25.595116
v -5.115104 2.721374 25.563557
v -5.115104 2.762052 25.604235
v -5.146237 2.757117 25.568493
v -5.115104 2.738223 25.587385
v -5.133079 2.741159 25.584450
v -5.137118 2.757117 25.592321
v -5.137118 2.733288 25.568493
v 5.617313 2.752508 22.312683
v 5.586180 2.721374 22.306490
v 5.608194 2.730493 22.308304
v 5.617313 2.857550 22.207640
v 5.586180 2.851357 22.176506
v 5.608194 2.853171 22.185625
v 5.617313 2.783274 22.238407
v 5.586180 2.747530 22.243341
v 5.586180 2.788209 22.202663
v 5.608195 2.759445 22.243341
v 5.604155 2.768041 22.223175
v 5.586180 2.762935 22.218067
v 5.608195 2.788209 22.214579
v -5.146237 2.857550 22.207640
v -5.115104 2.851357 22.176506
v -5.137118 2.853171 22.185625
v -5.146237 2.752508 22.312683
v -5.115104 2.721374 22.306490
v -5.137118 2.730493 22.308304
v -5.146237 2.783274 22.238407
v -5.115104 2.788209 22.202663
v -5.115104 2.747530 22.243341
v -5.137119 2.788209 22.214579
v -5.133079 2.768041 22.223175
v -5.115104 2.762935 22.218067
v -5.137119 2.759445 22.243341
v 0.050488 3.718931 22.869797
v 0.044499 3.696917 22.862862
v 0.420587 3.718931 22.869797
v 0.426577 3.696917 22.862862
v 0.122720 3.687798 22.780882
v 0.135390 3.718931 22.810036
v 0.131679 3.696917 22.801497
v 0.235538 3.687798 22.757240
v 0.235538 3.718931 22.789051
v 0.235538 3.696917 22.779734
v 0.348356 3.687798 22.780882
v 0.335686 3.718931 22.810036
v 0.339397 3.696917 22.801497
v 0.420587 13.386605 22.869797
v 0.414598 13.408620 22.876732
v 0.050488 13.386605 22.869797
v 0.056478 13.408620 22.876732
v 0.335686 13.386605 22.810036
v 0.323016 13.417739 22.839191
v 0.331975 13.408620 22.818575
v 0.235538 13.386605 22.789051
v 0.235538 13.417739 22.820860
v 0.235538 13.408620 22.798368
v 0.135390 13.386605 22.810036
v 0.148059 13.417739 22.839191
v 0.139101 13.408620 22.818575
v 1.159187 3.718931 23.647873
v 1.166175 3.696917 23.641989
v 1.311893 3.718931 24.030544
v 1.321012 3.696917 24.030001
v 1.244283 3.687798 23.709988
v 1.217625 3.718931 23.726318
v 1.225433 3.696917 23.721535
v 1.267166 3.718931 23.826588
v 1.275662 3.696917 23.823198
v 1.330846 3.687798 23.926908
v 1.300269 3.718931 23.933418
v 1.309225 3.696917 23.931511
v 1.311893 13.386605 24.030544
v 1.302774 13.408620 24.031088
v 1.159187 13.386605 23.647873
v 1.152199 13.408620 23.653755
v 1.269692 13.417739 23.939930
v 1.300269 13.386605 23.933418
v 1.291313 13.408620 23.935326
v 1.267166 13.386605 23.826588
v 1.258670 13.408620 23.829979
v 1.190967 13.417739 23.742647
v 1.217625 13.386605 23.726318
v 1.209817 13.408620 23.731100
v -0.840817 3.718931 24.133749
v -0.849936 3.696917 24.133205
v -0.617058 3.718931 23.573023
v -0.624046 3.696917 23.567139
v -0.854361 3.687798 23.984921
v -0.823785 3.718931 23.991430
v -0.832740 3.696917 23.989523
v -0.775280 3.718931 23.834892
v -0.783776 3.696917 23.831503
v -0.729346 3.687798 23.671638
v -0.702687 3.718931 23.687967
v -0.710495 3.696917 23.683184
v -0.617058 13.386605 23.573021
v -0.610071 13.408620 23.578905
v -0.840817 13.386605 24.133749
v -0.831699 13.408620 24.134293
v -0.676028 13.417739 23.704296
v -0.702687 13.386605 23.687967
v -0.694879 13.408620 23.692749
v -0.775280 13.386605 23.834892
v -0.766784 13.408620 23.838284
v -0.793208 13.417739 23.997942
v -0.823785 13.386605 23.991430
v -0.814829 13.408620 23.993338
v -0.672766 3.687798 25.463804
v -0.616984 3.718931 25.440971
v -0.633322 3.696917 25.447659
v -0.840817 3.718931 25.217138
v -0.849936 3.696917 25.218035
v -0.702641 3.718931 25.423933
v -0.710313 3.687798 25.456251
v -0.704888 3.696917 25.433399
v -0.775258 3.718931 25.375412
v -0.797704 3.687798 25.397858
v -0.781832 3.696917 25.381987
v -0.823779 3.718931 25.302795
v -0.853106 3.687798 25.314943
v -0.832369 3.696917 25.306353
v -0.840817 13.386605 25.217138
v -0.831699 13.408620 25.216240
v -0.616984 13.386605 25.440971
v -0.616086 13.408620 25.431852
v -0.794452 13.417739 25.290648
v -0.823779 13.386605 25.302795
v -0.815189 13.408620 25.299236
v -0.752812 13.417739 25.352964
v -0.775258 13.386605 25.375412
v -0.768684 13.408620 25.368837
v -0.690493 13.417739 25.394606
v -0.702641 13.386605 25.423933
v -0.699083 13.408620 25.415342
v 1.311893 3.718931 25.185801
v 1.321012 3.696917 25.186699
v 1.056723 3.718931 25.440971
v 1.120071 3.687798 25.463717
v 1.075276 3.696917 25.447632
v 1.292469 3.718931 25.283449
v 1.321797 3.687798 25.295597
v 1.301059 3.696917 25.287008
v 1.237155 3.718931 25.366234
v 1.259601 3.687798 25.388680
v 1.243730 3.696917 25.372807
v 1.154372 3.718931 25.421547
v 1.159138 3.687798 25.455807
v 1.155768 3.696917 25.431581
v 1.056723 13.386605 25.440971
v 1.055825 13.408620 25.431852
v 1.311893 13.386605 25.185801
v 1.302774 13.408620 25.184902
v 1.142224 13.417739 25.392220
v 1.154372 13.386605 25.421547
v 1.150814 13.408620 25.412958
v 1.214709 13.417739 25.343786
v 1.237155 13.386605 25.366234
v 1.230581 13.408620 25.359659
v 1.263142 13.417739 25.271301
v 1.292469 13.386605 25.283449
v 1.283879 13.408620 25.279892
vn 0.8786 0.4464 -0.1695
vn 0.9658 0.1721 -0.1940
vn 0.8810 0.4374 -0.1804
vn -0.1790 -0.2864 0.9412
vn 0.1938 0.1914 0.9622
vn -0.1938 0.1914 0.9622
vn -0.2112 0.9773 -0.0167
vn -0.0466 0.9982 -0.0375
vn -0.0205 0.9886 -0.1493
vn 0.5230 -0.1488 -0.8392
vn 0.5693 0.1084 -0.8149
vn 0.5518 0.0377 -0.8331
vn 0.5627 0.0780 -0.8230
vn 0.6120 0.0009 -0.7908
vn 0.1938 0.9622 -0.1914
vn -0.1776 0.8679 -0.4639
vn -0.1938 0.9622 -0.1914
vn -0.0000 0.9808 0.1951
vn -0.2060 0.8730 0.4421
vn -0.2085 -0.0320 0.9775
vn -0.1729 -0.0266 0.9846
vn 0.1097 -0.1124 0.9876
vn -0.9682 -0.1488 0.2009
vn -0.9664 0.2086 -0.1501
vn -0.9578 0.2022 0.2043
vn -0.2060 0.4421 0.8730
vn 0.2060 0.4422 0.8730
vn -0.9558 -0.2111 -0.2048
vn -0.9415 0.0416 -0.3345
vn -0.9558 -0.2111 0.2048
vn -0.5004 -0.8387 0.2148
vn -0.4456 -0.8711 0.2064
vn -0.4555 -0.8903 -0.0000
vn 0.4555 -0.8903 -0.0000
vn 0.4456 -0.8711 0.2064
vn 0.5004 -0.8387 0.2148
vn -0.4068 0.2952 -0.8645
vn -0.3818 -0.0092 -0.9242
vn -0.1360 0.6220 -0.7711
vn 0.8359 0.1980 -0.5120
vn 0.7504 0.1940 -0.6319
vn 0.8366 0.1937 -0.5124
vn 0.1794 0.1794 0.9673
vn -0.0000 0.1951 0.9808
vn -0.1097 -0.1124 0.9876
vn -0.0388 0.7210 -0.6918
vn 0.0040 0.7373 -0.6755
vn -0.0000 0.7374 -0.6754
vn -0.0040 0.7374 -0.6755
vn 0.0388 0.7211 -0.6918
vn 0.1360 0.6220 -0.7711
vn 0.9415 0.0416 0.3344
vn 0.9558 -0.2111 0.2048
vn 0.9415 0.0416 -0.3345
vn 0.9811 -0.0000 -0.1937
vn 0.9501 -0.2559 0.1786
vn 0.9501 -0.2559 -0.1786
vn 0.9811 -0.0000 0.1937
vn 0.1793 0.9672 -0.1801
vn -0.0000 0.9926 -0.1212
vn -0.9859 0.0618 -0.1552
vn -0.9823 -0.0317 -0.1848
vn -0.9883 -0.0886 -0.1237
vn -0.1939 -0.9622 -0.1914
vn 0.2122 -0.8736 -0.4380
vn 0.1939 -0.9622 -0.1914
vn -0.9658 0.1721 -0.1940
vn -0.9716 0.1770 -0.1569
vn -0.1955 0.1586 -0.9678
vn 0.1097 -0.1123 -0.9876
vn 0.1564 -0.0344 -0.9871
vn 0.6093 0.7721 -0.1804
vn 0.4987 0.8542 -0.1467
vn 0.6058 0.7859 -0.1239
vn 0.9735 -0.1469 -0.1751
vn 0.9682 -0.1488 0.2009
vn 0.9748 -0.1520 -0.1632
vn 0.9558 -0.2111 -0.2048
vn 0.8321 -0.4316 -0.3483
vn -0.4988 0.8542 -0.1467
vn -0.6093 0.7722 -0.1804
vn -0.6058 0.7859 -0.1239
vn 0.2643 -0.9490 -0.1718
vn 0.1846 -0.9614 0.2041
vn -0.1711 -0.9689 0.1787
vn -0.7500 0.1968 -0.6315
vn -0.8366 0.1937 -0.5124
vn -0.7504 0.1940 -0.6319
vn -0.8810 0.4374 -0.1804
vn -0.8786 0.4464 -0.1695
vn 0.9823 -0.0317 -0.1848
vn 0.9859 0.0618 -0.1552
vn 0.9883 -0.0886 -0.1238
vn 0.9667 0.1765 -0.1855
vn 0.9697 -0.1490 0.1935
vn 0.9578 0.2021 0.2043
vn 0.9664 0.2084 -0.1502
vn 0.4068 0.2952 -0.8645
vn 0.3818 -0.0092 -0.9242
vn 0.5168 -0.0561 -0.8543
vn -0.9703 0.2043 -0.1292
vn -0.9539 0.2201 0.2042
vn -0.1801 0.9671 -0.1798
vn 0.2112 0.9773 -0.0167
vn 0.3266 0.9452 -0.0000
vn 0.0205 0.9886 -0.1493
vn -0.9767 0.2105 -0.0419
vn -0.9763 -0.0449 -0.2115
vn -0.9763 -0.2115 -0.0449
vn -0.5168 -0.0561 -0.8543
vn -0.5627 0.0780 -0.8230
vn -0.6120 0.0009 -0.7908
vn -0.9811 -0.0000 -0.1937
vn -0.9501 -0.2559 0.1786
vn -0.9811 -0.0000 0.1937
vn -0.9735 -0.1470 -0.1750
vn -0.9748 -0.1520 -0.1632
vn -0.1564 -0.0344 -0.9871
vn -0.1097 -0.1123 -0.9876
vn 0.1955 0.1587 -0.9678
vn -0.5693 0.1084 -0.8149
vn -0.5934 0.0389 -0.8040
vn -0.5232 -0.1491 -0.8391
vn -0.5393 0.0177 -0.8419
vn 0.9716 0.1770 -0.1569
vn 0.9782 0.0618 -0.1983
vn 0.1776 0.4639 -0.8679
vn -0.1938 0.1914 -0.9622
vn -0.1776 0.4639 -0.8679
vn -0.9415 0.0416 0.3344
vn -0.9697 -0.1490 0.1935
vn -0.9667 0.1792 -0.1828
vn -0.9754 0.1983 0.0961
vn -0.9064 0.1939 0.3754
vn -0.9764 0.1936 0.0962
vn 0.3910 0.1939 -0.8997
vn 0.6407 0.1983 -0.7418
vn 0.3902 0.2039 -0.8979
vn -0.3910 0.1939 -0.8997
vn -0.0000 0.2041 -0.9790
vn -0.3902 0.2039 -0.8979
vn -0.0000 0.9860 -0.1669
vn 0.0686 0.9860 -0.1519
vn 0.1938 0.1914 -0.9622
vn -0.1939 -0.1914 -0.9622
vn -0.8321 -0.4316 0.3483
vn -0.8116 -0.5433 0.2148
vn -0.8116 -0.5433 -0.2148
vn 0.0766 0.1693 0.9826
vn -0.0962 0.1936 0.9764
vn -0.0785 0.1685 0.9826
vn 0.9669 0.2161 -0.1357
vn 0.9539 0.2201 0.2042
vn 0.8321 -0.4316 0.3482
vn 0.8116 -0.5433 0.2148
vn 0.8104 -0.1240 -0.5726
vn 0.1790 -0.9412 0.2864
vn -0.1790 -0.9412 0.2864
vn -0.2122 -0.4379 -0.8736
vn 0.1938 -0.1914 -0.9622
vn 0.2122 -0.4379 -0.8736
vn -0.6413 0.1936 -0.7425
vn -0.6406 0.1984 -0.7418
vn 0.9767 -0.2105 0.0418
vn 0.9758 0.2133 0.0477
vn 0.9758 0.0477 0.2133
vn -0.0000 0.1941 -0.9810
vn -0.2006 0.9788 -0.0422
vn 0.0791 0.9768 0.1990
vn 0.2007 0.9788 -0.0419
vn 0.7500 0.1968 -0.6315
vn 0.9105 0.1976 -0.3633
vn 0.9112 0.1938 -0.3636
vn 0.9787 0.1968 -0.0584
vn 0.9764 0.1936 0.0962
vn 0.9754 0.1983 0.0961
vn -0.9587 0.1980 -0.2041
vn -0.9793 0.1940 -0.0584
vn -0.9596 0.1937 -0.2043
vn 0.9587 0.1980 -0.2041
vn 0.9596 0.1937 -0.2043
vn 0.9793 0.1940 -0.0584
vn -0.8321 -0.4316 -0.3483
vn -0.9105 0.1975 -0.3633
vn -0.9112 0.1938 -0.3636
vn -0.3781 0.2093 0.9018
vn -0.3754 0.1939 0.9063
vn -0.8359 0.1980 -0.5120
vn -0.9787 0.1968 -0.0584
vn -0.6923 0.2034 0.6923
vn -0.6937 0.1939 0.6937
vn 0.9046 0.2035 0.3747
vn -0.9046 0.2034 0.3747
vn 0.0284 0.9845 0.1732
vn 0.3754 0.1938 0.9064
vn 0.3803 0.2127 0.9001
vn 0.6937 0.1939 0.6937
vn 0.6923 0.2034 0.6923
vn 0.9064 0.1938 0.3754
vn 1.0000 -0.0000 -0.0000
vn -0.1846 -0.9614 0.2041
vn -0.2921 -0.8627 0.4129
vn -0.3707 -0.9125 0.1732
vn -0.3243 -0.0646 0.9438
vn -0.1902 -0.2704 0.9438
vn -0.1776 -0.1158 0.9773
vn -0.9071 0.0818 0.4130
vn -0.8645 0.2737 0.4215
vn -0.2641 -0.9473 -0.1813
vn -0.4615 -0.8138 -0.3532
vn -0.2644 -0.8807 -0.3930
vn -0.9583 0.0666 -0.2778
vn -0.9921 -0.0052 -0.1253
vn -0.5508 -0.1535 -0.8204
vn -0.8132 0.1723 -0.5559
vn 0.1711 -0.9689 0.1786
vn 0.3151 -0.8941 0.3182
vn 0.1353 -0.9166 0.3761
vn 0.8629 -0.3927 0.3182
vn 0.8854 -0.4450 0.1346
vn 0.1766 -0.1927 0.9652
vn 0.3205 -0.3500 0.8802
vn 0.3765 -0.1617 0.9122
vn -0.6687 -0.7044 -0.2380
vn -0.5537 -0.7153 -0.4263
vn -0.6401 -0.6743 -0.3683
vn 0.2728 -0.2873 0.9182
vn 0.1632 -0.3643 0.9169
vn -0.1794 0.9673 0.1794
vn -0.3250 0.8881 0.3251
vn -0.1369 0.9152 0.3791
vn -0.9673 0.1794 0.1794
vn -0.8881 0.3250 0.3251
vn -0.9152 0.3791 0.1368
vn -0.1794 0.1794 0.9673
vn -0.3251 0.3250 0.8881
vn -0.3791 0.1368 0.9152
vn -0.3238 0.8873 -0.3283
vn -0.3790 0.9151 -0.1378
vn -0.1787 0.1825 -0.9668
vn -0.3209 0.3217 -0.8908
vn -0.1377 0.3773 -0.9158
vn -0.8860 0.3238 -0.3318
vn -0.9126 0.1361 -0.3856
vn -0.7133 -0.5288 -0.4599
vn -0.6303 -0.4609 -0.6247
vn -0.8366 -0.4356 -0.3322
vn -0.2420 -0.9240 -0.2962
vn -0.3790 -0.9209 -0.0912
vn -0.0892 -0.9944 -0.0572
vn -0.7708 0.6109 -0.1807
vn -0.6069 0.5933 -0.5289
vn -0.7994 0.4392 -0.4100
vn -0.7093 0.3798 -0.5938
vn -0.3522 0.7523 -0.5567
vn -0.2867 0.9402 -0.1837
vn -0.1050 0.8150 -0.5699
vn -0.0616 0.9843 -0.1653
vn 0.1712 -0.9689 -0.1786
vn 0.3151 -0.8941 -0.3182
vn 0.3653 -0.9211 -0.1346
vn 0.1766 -0.1927 -0.9652
vn 0.3204 -0.3501 -0.8802
vn 0.1279 -0.3892 -0.9122
vn 0.8629 -0.3926 -0.3182
vn 0.9011 -0.2157 -0.3761
vn -0.5906 0.7408 -0.3202
vn -0.7689 0.6241 -0.1390
vn -0.3855 0.3129 -0.8681
vn -0.2955 0.2994 -0.9072
vn -0.8464 0.4256 -0.3202
vn 0.6687 -0.7044 0.2381
vn 0.5537 -0.7153 0.4263
vn 0.6401 -0.6742 0.3683
vn 0.2728 -0.2874 -0.9182
vn 0.3684 -0.1764 -0.9128
vn -0.2903 0.9468 -0.1388
vn -0.4672 0.8242 -0.3200
vn -0.4896 0.8531 -0.1803
vn -0.1228 0.9526 -0.2782
vn -0.0874 0.9930 -0.0796
vn -0.0739 0.2410 -0.9677
vn -0.1456 0.4750 -0.8679
vn -0.0641 0.5775 -0.8139
vn -0.0000 0.1544 -0.9880
vn 0.0441 0.1543 -0.9870
vn -0.0850 -0.2653 -0.9604
vn -0.0205 0.0437 -0.9988
vn -0.0842 -0.1137 -0.9899
vn -0.0000 -0.9660 0.2586
vn -0.2347 -0.9390 0.2513
vn 0.0205 0.0437 -0.9988
vn 0.0850 -0.2653 -0.9604
vn 0.0842 -0.1137 -0.9899
vn -0.9188 -0.1844 -0.3491
vn -0.9593 -0.2414 -0.1466
vn -0.1735 -0.3295 -0.9281
vn -0.3530 -0.1184 -0.9281
vn -0.1881 -0.1599 -0.9690
vn -0.1891 -0.9644 -0.1848
vn -0.3295 -0.8772 -0.3491
vn -0.1312 -0.9110 -0.3909
vn 0.2921 -0.8627 0.4129
vn 0.0993 -0.9013 0.4217
vn 0.9071 0.0818 0.4129
vn 0.9844 0.0299 0.1734
vn 0.1902 -0.2703 0.9438
vn 0.3243 -0.0646 0.9438
vn 0.1776 -0.1157 0.9773
vn 0.4734 -0.8071 -0.3529
vn 0.4450 -0.8850 -0.1368
vn 0.8078 0.2179 -0.5478
vn 0.5699 -0.0894 -0.8169
vn 0.9419 0.1282 -0.3104
vn -0.3151 -0.8941 0.3182
vn -0.3653 -0.9211 0.1346
vn -0.1766 -0.1927 0.9652
vn -0.3205 -0.3500 0.8802
vn -0.1279 -0.3893 0.9122
vn -0.8629 -0.3927 0.3182
vn -0.9011 -0.2157 0.3761
vn -0.2728 -0.2873 0.9182
vn -0.3684 -0.1765 0.9128
vn 0.1794 0.9673 0.1794
vn 0.3250 0.8881 0.3251
vn 0.3791 0.9152 0.1368
vn 0.3251 0.3250 0.8881
vn 0.1369 0.3790 0.9152
vn 0.9673 0.1794 0.1794
vn 0.8881 0.3250 0.3251
vn 0.9152 0.1369 0.3791
vn 0.3228 0.8873 -0.3293
vn 0.1351 0.9147 -0.3809
vn 0.8859 0.3181 -0.3375
vn 0.9164 0.3738 -0.1431
vn 0.1794 0.1823 -0.9667
vn 0.3217 0.3209 -0.8908
vn 0.3742 0.1366 -0.9172
vn 0.6302 -0.4608 -0.6249
vn 0.7133 -0.5289 -0.4599
vn 0.3790 -0.9209 -0.0912
vn 0.2420 -0.9240 -0.2962
vn 0.0892 -0.9944 -0.0572
vn 0.8366 -0.4355 -0.3323
vn 0.6068 0.5933 -0.5289
vn 0.7708 0.6109 -0.1807
vn 0.7093 0.3799 -0.5938
vn 0.7994 0.4392 -0.4100
vn 0.2867 0.9402 -0.1837
vn 0.3522 0.7523 -0.5568
vn 0.1050 0.8150 -0.5699
vn 0.0616 0.9843 -0.1653
vn -0.1712 -0.9689 -0.1786
vn -0.3151 -0.8941 -0.3183
vn -0.1354 -0.9166 -0.3761
vn -0.9501 -0.2559 -0.1786
vn -0.8629 -0.3926 -0.3182
vn -0.8854 -0.4450 -0.1346
vn -0.1766 -0.1927 -0.9652
vn -0.3204 -0.3501 -0.8802
vn -0.3764 -0.1617 -0.9122
vn 0.7689 0.6241 -0.1390
vn 0.5906 0.7408 -0.3202
vn 0.8464 0.4256 -0.3202
vn 0.3855 0.3129 -0.8681
vn 0.3538 0.2276 -0.9072
vn -0.6687 -0.7044 0.2381
vn -0.6914 -0.5942 0.4110
vn -0.6401 -0.6742 0.3683
vn -0.2728 -0.2873 -0.9182
vn -0.1632 -0.3642 -0.9169
vn 0.4671 0.8243 -0.3200
vn 0.2903 0.9468 -0.1388
vn 0.4895 0.8532 -0.1803
vn 0.0739 0.2410 -0.9677
vn 0.1456 0.4750 -0.8679
vn 0.1678 0.3858 -0.9072
vn 0.1228 0.9526 -0.2782
vn 0.0874 0.9930 -0.0796
vn 0.9188 -0.1844 -0.3490
vn 0.9203 0.0168 -0.3909
vn 0.1891 -0.9644 -0.1848
vn 0.3295 -0.8772 -0.3491
vn 0.3922 -0.9082 -0.1465
vn 0.3530 -0.1183 -0.9281
vn 0.1735 -0.3295 -0.9281
vn 0.1881 -0.1599 -0.9691
vn 0.9652 0.1849 -0.1849
vn 0.8639 0.3562 -0.3562
vn 0.9067 0.3469 -0.2400
vn 0.1347 0.7007 -0.7007
vn 0.3170 0.4572 -0.8309
vn 0.3170 0.8309 -0.4572
vn 0.1776 0.8679 -0.4639
vn -0.9652 0.1849 -0.1849
vn -0.8639 0.3562 -0.3562
vn -0.9067 0.2400 -0.3470
vn -0.1346 0.7007 -0.7007
vn -0.3170 0.8309 -0.4572
vn -0.3170 0.4572 -0.8309
vn -0.1847 0.6949 0.6950
vn -0.4053 0.6465 0.6464
vn 0.6687 -0.7044 -0.2381
vn 0.6914 -0.5942 -0.4110
vn 0.6401 -0.6743 -0.3683
vn 0.9583 0.2021 0.2021
vn 0.8534 0.3686 0.3686
vn 0.8980 0.2234 0.3791
vn 0.2060 0.8730 0.4421
vn 0.1847 0.6950 0.6949
vn 0.4053 0.6464 0.6464
vn -0.9583 0.2021 0.2021
vn -0.8534 0.3686 0.3686
vn -0.8980 0.3791 0.2234
vn 0.3169 -0.8310 0.4572
vn 0.1346 -0.7007 0.7007
vn 0.9652 -0.1849 0.1848
vn 0.8639 -0.3562 0.3562
vn 0.9067 -0.3469 0.2400
vn 0.3170 -0.4571 0.8310
vn 0.1790 -0.2864 0.9412
vn -0.1346 -0.7006 0.7007
vn -0.3169 -0.8310 0.4572
vn -0.3170 -0.4571 0.8310
vn -0.9652 -0.1849 0.1849
vn -0.8639 -0.3561 0.3562
vn -0.9066 -0.2401 0.3470
vn 0.9583 -0.2021 -0.2021
vn 0.8534 -0.3686 -0.3686
vn 0.8964 -0.2200 -0.3849
vn 0.4054 -0.6464 -0.6464
vn 0.4367 -0.8070 -0.3977
vn 0.1848 -0.6949 -0.6950
vn -0.9583 -0.2021 -0.2021
vn -0.8534 -0.3686 -0.3686
vn -0.8964 -0.3849 -0.2200
vn -0.4054 -0.6464 -0.6464
vn -0.4367 -0.3976 -0.8069
vn -0.2122 -0.8736 -0.4379
vn -0.1848 -0.6949 -0.6949
vn -0.4404 -0.8912 -0.1083
vn -0.9844 0.0299 0.1734
vn -0.8314 0.1803 -0.5256
vn 0.3653 -0.9211 0.1346
vn -0.1239 -0.0002 0.9923
vn -0.1564 -0.0344 0.9871
vn 0.9282 -0.0005 0.3721
vn -0.3676 0.0777 0.9267
vn 0.8315 0.1802 -0.5255
vn 0.8116 -0.5433 -0.2148
vn 0.9090 -0.2007 -0.3652
vn 0.9282 -0.0005 -0.3721
vn 0.5005 -0.8387 -0.2148
vn -0.1631 0.0345 0.9860
vn -0.9116 -0.1401 0.3865
vn -0.9011 0.1900 0.3899
vn 0.0012 0.9080 -0.4190
vn 0.4208 -0.8225 0.3827
vn 0.0631 -0.1234 0.9903
vn -0.3745 -0.0576 0.9254
vn -0.3745 -0.0575 0.9254
vn -0.9255 -0.1470 -0.3491
vn -0.8104 -0.1240 -0.5726
vn -0.3791 0.9152 0.1368
vn -0.9148 0.3789 -0.1402
vn -0.1821 0.0115 -0.9832
vn -0.3803 0.0240 -0.9245
vn -0.2124 0.0378 -0.9765
vn -0.0000 0.9083 -0.4183
vn -0.0015 0.9079 -0.4191
vn -0.5375 -0.0716 -0.8403
vn -0.0993 -0.9013 0.4217
vn 0.1279 -0.3893 0.9122
vn -0.0000 0.9239 0.3827
vn -0.1369 0.3791 0.9152
vn -0.0000 0.1950 0.9808
vn -0.0000 0.3826 0.9239
vn -0.8508 0.0537 -0.5228
vn -0.8316 0.1525 -0.5340
vn -0.8192 0.1349 -0.5574
vn 0.1239 -0.0002 0.9923
vn -0.9090 -0.2007 0.3652
vn -0.6571 0.4209 -0.6253
vn -0.7214 0.0309 -0.6918
vn -0.0686 0.9860 -0.1518
vn -0.0143 0.9204 -0.3907
vn 0.4208 -0.8225 -0.3827
vn 0.4543 -0.8880 -0.0711
vn 0.1632 -0.3643 -0.9169
vn 0.1743 -0.3407 -0.9239
vn 0.1354 -0.9166 -0.3761
vn 0.3803 0.0240 -0.9245
vn 0.1821 0.0115 -0.9832
vn -0.9065 0.1615 -0.3900
vn -0.9782 0.0618 -0.1983
vn -0.9203 0.0168 -0.3909
vn -0.9214 0.0582 -0.3842
vn -0.3538 0.2276 -0.9072
vn 0.9876 0.0329 -0.1536
vn -0.8854 -0.4450 0.1346
vn -0.9282 -0.0005 0.3721
vn 0.3730 0.9244 -0.0794
vn 0.2789 0.9538 -0.1113
vn 0.8645 0.2738 0.4215
vn 0.3676 0.0777 0.9268
vn 0.9116 -0.1401 0.3865
vn 0.9011 0.1900 0.3898
vn 0.1729 -0.0266 0.9846
vn 0.1631 0.0345 0.9860
vn -0.9090 -0.2007 -0.3652
vn -0.6914 -0.5942 -0.4109
vn 0.1564 -0.0344 0.9871
vn 0.3684 -0.1765 0.9127
vn -0.9282 -0.0005 -0.3721
vn -0.3684 -0.1764 -0.9128
vn -0.3662 -0.0803 -0.9271
vn 0.9593 -0.2413 -0.1466
vn -0.5005 -0.8387 -0.2148
vn -0.0012 0.9080 -0.4189
vn -0.0631 -0.1234 0.9903
vn -0.1632 -0.3643 0.9169
vn -0.4208 -0.8225 0.3827
vn -0.5537 -0.7153 0.4263
vn 0.2085 -0.0320 0.9775
vn 0.3745 -0.0576 0.9254
vn 0.9255 -0.1469 -0.3491
vn 0.9152 0.3790 0.1369
vn 0.0015 0.9079 -0.4191
vn 0.5375 -0.0715 -0.8402
vn 0.9108 0.1331 -0.3907
vn 0.3791 0.1368 0.9152
vn 0.1377 0.3772 -0.9158
vn -0.0000 0.3828 0.9239
vn 0.1369 0.9152 0.3791
vn 0.5934 0.0389 -0.8040
vn 0.8316 0.1525 -0.5340
vn 0.8508 0.0537 -0.5228
vn 0.8192 0.1349 -0.5575
vn 0.1239 -0.0002 -0.9923
vn 0.3662 -0.0803 -0.9271
vn 0.0641 0.5775 -0.8139
vn 0.0143 0.9204 -0.3908
vn -0.1743 -0.3407 -0.9239
vn -0.4209 -0.8224 -0.3827
vn -0.4543 -0.8880 -0.0711
vn -0.1279 -0.3892 -0.9122
vn 0.1311 -0.9110 -0.3909
vn 0.2955 0.2995 -0.9072
vn 0.9065 0.1616 -0.3900
vn 0.9214 0.0582 -0.3842
vn 0.2124 0.0378 -0.9765
vn -0.9067 0.3469 -0.2400
vn -0.3890 0.9035 -0.1797
vn 0.9767 0.2105 -0.0419
vn 0.9265 0.3691 -0.0734
vn 0.3890 0.9035 -0.1797
vn -0.9767 0.0419 -0.2105
vn -0.9265 0.0734 -0.3692
vn -0.3891 0.1798 -0.9035
vn 0.9767 0.0419 -0.2105
vn 0.9066 0.2400 -0.3470
vn 0.3891 0.1798 -0.9035
vn 0.8980 0.3791 0.2234
vn 0.9264 0.0851 0.3668
vn -0.9758 0.2133 0.0477
vn -0.9264 0.3668 0.0851
vn -0.9758 0.0477 0.2133
vn -0.8980 0.2234 0.3791
vn 0.4044 0.8936 0.1949
vn 0.9264 0.3668 0.0851
vn -0.4044 0.8936 0.1949
vn -0.1938 0.9622 0.1914
vn -0.9265 0.3691 -0.0734
vn -0.9767 -0.2105 0.0419
vn -0.9067 -0.3469 0.2399
vn -0.3890 -0.9036 0.1796
vn -0.9767 -0.0419 0.2105
vn -0.9264 -0.0736 0.3692
vn -0.3891 -0.1796 0.9035
vn 0.9265 -0.3690 0.0734
vn 0.3890 -0.9036 0.1796
vn 0.9767 -0.0419 0.2105
vn 0.9066 -0.2400 0.3470
vn 0.3891 -0.1796 0.9035
vn 0.4044 0.1949 0.8936
vn 0.9264 -0.0735 0.3692
vn -0.9264 0.0851 0.3668
vn -0.4044 0.1949 0.8936
vn 0.9763 -0.2115 -0.0449
vn 0.8964 -0.3849 -0.2200
vn 0.3959 -0.9001 -0.1817
vn -0.9265 -0.3683 -0.0778
vn -0.3959 -0.9001 -0.1817
vn 0.9763 -0.0449 -0.2115
vn 0.9265 -0.0778 -0.3683
vn 0.3959 -0.1817 -0.9001
vn -0.8964 -0.2200 -0.3849
vn -0.3959 -0.1817 -0.9001
vn -0.9264 -0.0778 -0.3683
vn 0.9265 0.0734 -0.3692
vn -0.9265 -0.3691 0.0734
vn 0.9264 -0.3683 -0.0778
vn 0.6413 0.1936 -0.7425
vn 0.3671 0.3894 -0.8448
vn 0.6034 0.3843 -0.6987
vn 0.7106 0.1275 -0.6919
vn 0.4818 0.7501 -0.4529
vn 0.1557 0.9831 -0.0962
vn -0.0000 0.3899 -0.9209
vn 0.1498 0.9267 -0.3448
vn -0.0000 0.9765 -0.2154
vn 0.0883 0.9767 -0.1956
vn -0.1498 0.9267 -0.3448
vn -0.0000 0.9267 -0.3758
vn -0.3671 0.3895 -0.8447
vn 0.9090 -0.2007 0.3652
vn -0.6034 0.3844 -0.6987
vn -0.3671 0.3896 -0.8447
vn -0.0000 0.9267 -0.3757
vn -0.0000 0.3897 -0.9209
vn 0.1498 0.9266 -0.3448
vn 0.3671 0.3896 -0.8447
vn -0.2398 0.9708 -0.0027
vn -0.2515 0.9678 0.0073
vn -0.1991 0.9768 0.0786
vn 0.6035 0.3842 -0.6987
vn 0.9031 0.3840 -0.1923
vn 0.9220 0.3833 -0.0550
vn -0.1745 0.9788 -0.1075
vn -0.3252 0.9244 -0.1992
vn -0.2483 0.9636 -0.0991
vn 0.8577 0.3838 -0.3423
vn 0.8577 0.3837 -0.3423
vn 0.7874 0.3840 -0.4823
vn 0.7065 0.3833 -0.5949
vn 0.7065 0.3832 -0.5949
vn -0.7874 0.3840 -0.4823
vn -0.7065 0.3833 -0.5949
vn -0.1793 0.9831 -0.0377
vn -0.3730 0.9244 -0.0794
vn -0.6491 0.7152 -0.2590
vn -0.8577 0.3837 -0.3423
vn 0.3252 0.9244 -0.1992
vn 0.5171 0.8307 -0.2063
vn -0.7873 0.3841 -0.4823
vn -0.9031 0.3840 -0.1923
vn -0.1239 -0.0002 -0.9923
vn -0.9220 0.3833 -0.0550
vn -0.6034 0.3843 -0.6987
vn -0.7066 0.3832 -0.5949
vn -0.1237 0.3712 0.9203
vn -0.1482 0.9302 0.3358
vn -0.0289 0.9833 0.1797
vn -0.0132 0.8841 0.4672
vn -0.6514 0.3890 0.6514
vn -0.3445 0.4002 0.8492
vn -0.1191 0.9857 0.1191
vn -0.0603 0.9866 0.1518
vn -0.2661 0.9265 0.2661
vn -0.1558 0.9859 0.0615
vn -0.9188 0.3842 0.0905
vn -0.8511 0.3890 0.3525
vn -0.1643 0.9726 -0.1644
vn -0.1738 0.9714 -0.1620
vn -0.0883 0.9767 -0.1956
vn -0.8902 0.4556 -0.0015
vn -0.8511 0.3891 0.3525
vn -0.1517 0.9767 0.1518
vn -0.3478 0.9264 0.1440
vn -0.6514 0.3891 0.6514
vn -0.0786 0.9768 0.1991
vn -0.1440 0.9265 0.3477
vn -0.3525 0.3892 0.8510
vn 0.1982 0.9626 -0.1849
vn 0.1643 0.9726 -0.1644
vn -0.0905 0.3841 0.9188
vn 0.9188 0.3843 0.0905
vn -0.0073 0.9678 0.2515
vn 0.0066 0.9712 0.2381
vn 0.6514 0.3891 0.6514
vn 0.8511 0.3891 0.3525
vn 0.2662 0.9265 0.2661
vn 0.1558 0.9858 0.0619
vn 0.3477 0.9265 0.1440
vn 0.1509 0.9320 0.3295
vn 0.1191 0.9857 0.1191
vn 0.1265 0.3832 0.9150
vn 0.3393 0.4078 0.8477
vn 0.0577 0.9871 0.1491
vn 0.9749 0.2225 0.0114
vn 0.1791 0.9831 -0.0374
vn 0.1518 0.9767 0.1518
vn 0.1990 0.9768 0.0791
vn 0.2662 0.9265 0.2662
vn 0.2374 0.9714 0.0064
vn 0.2718 0.9623 -0.0025
vn 0.3525 0.3890 0.8511
vn 0.0962 0.1937 0.9763
vn 0.0118 0.8835 0.4682
vn 0.0905 0.3843 0.9187
vn -0.3266 0.9452 -0.0000
vn 0.1938 0.9622 0.1914
vn 0.0466 0.9982 -0.0375
vn -0.1560 0.9831 -0.0961
vn 0.1744 0.9788 -0.1078
vn -0.2472 -0.1609 0.9555
vn -0.5818 -0.0547 -0.8115
vn 0.9011 -0.2157 0.3761
vn -0.9152 0.1368 0.3791
vn -0.1351 0.9147 -0.3809
vn -0.3725 0.1371 -0.9179
vn -0.7722 -0.4112 -0.4844
vn -0.5697 -0.7375 -0.3626
vn -0.2418 0.9034 -0.3542
vn 0.3764 -0.1617 -0.9122
vn 0.8854 -0.4450 -0.1346
vn -0.7557 0.6134 -0.2294
vn 0.6914 -0.5942 0.4110
vn -0.2852 0.9307 -0.2291
vn -0.1678 0.3859 -0.9072
vn -0.0441 0.1543 -0.9870
vn -0.0002 -0.2774 -0.9608
vn 0.2347 -0.9390 0.2513
vn 0.0002 -0.2772 -0.9608
vn -0.2670 -0.2272 -0.9365
vn -0.3921 -0.9082 -0.1464
vn 0.3707 -0.9125 0.1731
vn 0.2472 -0.1609 0.9555
vn 0.2724 -0.8899 -0.3659
vn 0.5833 0.0373 -0.8114
vn -0.1353 -0.9166 0.3761
vn -0.3765 -0.1617 0.9122
vn 0.3769 0.9158 -0.1386
vn 0.7722 -0.4111 -0.4844
vn 0.5697 -0.7375 -0.3626
vn 0.2418 0.9033 -0.3543
vn -0.3653 -0.9211 -0.1346
vn -0.9011 -0.2157 -0.3761
vn 0.7557 0.6134 -0.2294
vn 0.2852 0.9307 -0.2291
vn 0.2670 -0.2271 -0.9365
vn 0.2251 0.6890 -0.6889
vn -0.2251 0.6890 -0.6889
vn -0.4330 0.4151 0.8001
vn 0.5537 -0.7153 -0.4263
vn 0.4330 0.8001 0.4151
vn 0.4330 0.4151 0.8001
vn 0.2251 -0.6890 0.6890
vn -0.2251 -0.6889 0.6890
vn 0.4367 -0.3976 -0.8069
vn -0.4367 -0.8070 -0.3976
vn -0.3663 -0.0803 0.9270
vn 0.1743 -0.3406 0.9239
vn -0.3695 0.0658 -0.9269
vn 0.3663 -0.0803 0.9270
vn -0.1498 0.9266 -0.3448
vn -0.0360 0.3178 -0.9475
vn 0.3695 0.0658 -0.9269
vn -0.1743 -0.3406 0.9239
vn -0.4330 0.8001 0.4151
vn 0.0360 0.3177 -0.9475
vn -0.3477 0.9265 0.1440
vn -0.9240 0.3823 0.0057
vn 0.1440 0.9265 0.3477
vn 0.6614 0.7500 -0.0033
vt 0.969228 0.172647
vt 0.951531 0.220104
vt 0.951011 0.172535
vt 0.839803 0.454092
vt 0.874820 0.015307
vt 0.874820 0.454092
vt 0.947564 0.561195
vt 0.947176 0.558426
vt 0.966726 0.563724
vt 0.349506 0.279880
vt 0.375176 0.327909
vt 0.350462 0.338811
vt 0.426144 0.277649
vt 0.427114 0.327920
vt 0.016159 0.454092
vt 0.015407 0.015307
vt 0.016159 0.015307
vt 0.150958 0.278835
vt 0.150958 0.190568
vt 0.151841 0.015309
vt 0.505209 0.691713
vt 0.474181 0.681944
vt 0.474950 0.592838
vt 0.168402 0.778820
vt 0.243858 0.878649
vt 0.168429 0.878443
vt 0.875723 0.454092
vt 0.875723 0.015307
vt 0.426033 0.850177
vt 0.400092 0.725090
vt 0.426033 0.725012
vt 0.645869 0.921374
vt 0.586351 0.920550
vt 0.586351 0.813498
vt 0.526831 0.921374
vt 0.473932 0.095988
vt 0.505931 0.016654
vt 0.505969 0.143055
vt 0.742544 0.412768
vt 0.738942 0.016782
vt 0.742272 0.016895
vt 0.537638 0.370818
vt 0.537638 0.531266
vt 0.474950 0.469694
vt 0.538827 0.143164
vt 0.505924 0.177104
vt 0.538827 0.177105
vt 0.538827 0.211047
vt 0.505969 0.211152
vt 0.086672 0.842363
vt 0.060721 0.717117
vt 0.086672 0.717183
vt 0.112741 0.842317
vt 0.137309 0.717306
vt 0.137309 0.842486
vt 0.112741 0.717137
vt 0.645972 0.604038
vt 0.570497 0.764484
vt 0.570497 0.604037
vt 0.952625 0.115950
vt 0.970860 0.140758
vt 0.952645 0.140869
vt 0.185333 0.454092
vt 0.182715 0.015307
vt 0.185333 0.015307
vt 0.970276 0.064066
vt 0.952060 0.064177
vt 0.138878 0.506192
vt 0.140683 0.523383
vt 0.092207 0.498313
vt 0.947361 0.642476
vt 0.966699 0.598723
vt 0.965587 0.642476
vt 0.841297 0.517479
vt 0.916248 0.547794
vt 0.840810 0.547963
vt 0.060721 0.842297
vt 0.035396 0.716462
vt 0.966699 0.528725
vt 0.947361 0.484992
vt 0.965587 0.484993
vt 0.915302 0.752839
vt 0.915302 0.828806
vt 0.839773 0.828805
vt 0.642784 0.412253
vt 0.641678 0.016685
vt 0.646567 0.016542
vt 0.970821 0.016389
vt 0.952606 0.016500
vt 0.950974 0.296810
vt 0.969210 0.272020
vt 0.969191 0.296921
vt 0.841307 0.484895
vt 0.916736 0.517309
vt 0.916219 0.647453
vt 0.840780 0.647623
vt 0.473932 0.258220
vt 0.505931 0.337557
vt 0.474912 0.327853
vt 0.243301 0.904064
vt 0.167872 0.903858
vt 0.570497 0.443590
vt 0.947564 0.566253
vt 0.948499 0.563724
vt 0.982786 0.839608
vt 0.950076 0.841396
vt 0.945777 0.837108
vt 0.474912 0.026357
vt 0.426144 0.076559
vt 0.427114 0.026291
vt 0.374017 0.850215
vt 0.349473 0.725236
vt 0.374017 0.725050
vt 0.243320 0.748616
vt 0.243831 0.779025
vt 0.092207 0.671598
vt 0.140683 0.646528
vt 0.138878 0.663719
vt 0.375176 0.026302
vt 0.374205 0.078376
vt 0.349506 0.074328
vt 0.350462 0.015400
vt 0.969749 0.220216
vt 0.950993 0.271909
vt 0.318791 0.923492
vt 0.318040 0.484707
vt 0.318791 0.484707
vt 0.400092 0.850254
vt 0.167891 0.748410
vt 0.243311 0.716043
vt 0.574988 0.411938
vt 0.575300 0.016141
vt 0.578771 0.016226
vt 0.917516 0.015402
vt 0.920999 0.411478
vt 0.917517 0.411563
vt 0.909304 0.015402
vt 0.913411 0.411594
vt 0.909305 0.411563
vt 0.037240 0.234700
vt 0.038209 0.239326
vt 0.318040 0.923492
vt 0.286478 0.484707
vt 0.451270 0.849481
vt 0.471266 0.723639
vt 0.471266 0.848803
vt 0.713261 0.839970
vt 0.781861 0.443604
vt 0.781888 0.839965
vt 0.841311 0.672975
vt 0.916749 0.672805
vt 0.035396 0.841642
vt 0.015314 0.715823
vt 0.839749 0.547947
vt 0.318833 0.015307
vt 0.318833 0.454092
vt 0.283928 0.484707
vt 0.286478 0.923492
vt 0.283928 0.923492
vt 0.905823 0.015317
vt 0.905824 0.411478
vt 0.253223 0.485422
vt 0.216199 0.486596
vt 0.218112 0.484688
vt 0.673001 0.411036
vt 0.676783 0.015324
vt 0.913410 0.015433
vt 0.707171 0.928426
vt 0.786530 0.871296
vt 0.791756 0.930802
vt 0.705864 0.411192
vt 0.739214 0.412654
vt 0.746750 0.412859
vt 0.746478 0.016987
vt 0.755193 0.412927
vt 0.802233 0.016902
vt 0.802505 0.412775
vt 0.625212 0.412528
vt 0.623131 0.016783
vt 0.628994 0.016816
vt 0.751192 0.412915
vt 0.750920 0.017043
vt 0.754921 0.017055
vt 0.451270 0.724316
vt 0.631725 0.412493
vt 0.635507 0.016781
vt 0.785400 0.839955
vt 0.785373 0.443593
vt 0.637896 0.412397
vt 0.619348 0.412495
vt 0.788377 0.839925
vt 0.788351 0.443564
vt 0.806465 0.412721
vt 0.571517 0.411853
vt 0.572430 0.015989
vt 0.148136 0.270970
vt 0.709230 0.443597
vt 0.709257 0.839958
vt 0.705836 0.443564
vt 0.705862 0.839925
vt 0.806193 0.016848
vt 0.809744 0.412592
vt 0.977788 0.977340
vt 0.945866 0.949944
vt 0.944897 0.947837
vt 0.839622 0.984704
vt 0.839139 0.985427
vt 0.838836 0.984695
vt 0.349448 0.693740
vt 0.348622 0.693202
vt 0.349497 0.692753
vt 0.167150 0.904490
vt 0.166994 0.903774
vt 0.839621 0.908737
vt 0.839092 0.908235
vt 0.839747 0.907778
vt 0.244265 0.904707
vt 0.243419 0.904905
vt 0.349608 0.015060
vt 0.350445 0.014523
vt 0.915151 0.984703
vt 0.915935 0.985425
vt 0.915182 0.985595
vt 0.138009 0.716601
vt 0.138184 0.717331
vt 0.349497 0.617801
vt 0.348767 0.617125
vt 0.349500 0.616896
vt 0.348601 0.881258
vt 0.348601 0.880131
vt 0.348877 0.880530
vt 0.474052 0.591977
vt 0.474529 0.591691
vt 0.645972 0.443590
vt 0.646689 0.442854
vt 0.646860 0.443591
vt 0.167882 0.715838
vt 0.167174 0.715068
vt 0.167901 0.714915
vt 0.537638 0.691713
vt 0.538383 0.692450
vt 0.537643 0.692616
vt 0.569740 0.442858
vt 0.570483 0.442687
vt 0.538549 0.016685
vt 0.539305 0.015927
vt 0.539465 0.016672
vt 0.244075 0.715278
vt 0.244232 0.716023
vt 0.349432 0.075201
vt 0.348601 0.075365
vt 0.951622 0.141751
vt 0.951554 0.140929
vt 0.900054 0.879360
vt 0.900489 0.878685
vt 0.901331 0.879739
vt 0.952630 0.015418
vt 0.951554 0.015134
vt 0.952667 0.014516
vt 0.951788 0.015464
vt 0.474079 0.097174
vt 0.473216 0.096637
vt 0.967763 0.529353
vt 0.966718 0.529847
vt 0.505219 0.143720
vt 0.504951 0.142733
vt 0.967772 0.530340
vt 0.966726 0.531059
vt 0.915150 0.859419
vt 0.915934 0.858668
vt 0.916087 0.859409
vt 0.015293 0.498421
vt 0.014574 0.499097
vt 0.014405 0.498344
vt 0.138009 0.843254
vt 0.137287 0.843406
vt 0.971781 0.014967
vt 0.970845 0.015307
vt 0.970882 0.014405
vt 0.139491 0.505460
vt 0.139888 0.506055
vt 0.971746 0.016083
vt 0.377686 0.881268
vt 0.377686 0.880131
vt 0.377947 0.880555
vt 0.139796 0.524244
vt 0.139529 0.523751
vt 0.948491 0.529846
vt 0.947568 0.529301
vt 0.948472 0.528725
vt 0.947583 0.530616
vt 0.948499 0.531059
vt 0.169455 0.551405
vt 0.170374 0.551129
vt 0.170370 0.551848
vt 0.171944 0.584956
vt 0.170451 0.584956
vt 0.170712 0.582306
vt 0.169870 0.587484
vt 0.170712 0.587605
vt 0.169455 0.590254
vt 0.586351 0.795266
vt 0.586351 0.794202
vt 0.588879 0.794387
vt 0.169870 0.582427
vt 0.169455 0.579657
vt 0.971624 0.141451
vt 0.970880 0.141637
vt 0.014407 0.484564
vt 0.015298 0.483806
vt 0.015293 0.484719
vt 0.901331 0.859419
vt 0.900685 0.858668
vt 0.901401 0.858507
vt 0.915785 0.829529
vt 0.915067 0.829697
vt 0.917472 0.673440
vt 0.916750 0.673654
vt 0.348622 0.369330
vt 0.349448 0.368792
vt 0.349497 0.369778
vt 0.915827 0.752313
vt 0.916054 0.753062
vt 0.350540 0.339628
vt 0.349590 0.339177
vt 0.840323 0.673600
vt 0.840225 0.672818
vt 0.838989 0.829527
vt 0.838836 0.828795
vt 0.349497 0.444731
vt 0.348767 0.445407
vt 0.348601 0.444654
vt 0.348776 0.724533
vt 0.349497 0.724354
vt 0.474052 0.470555
vt 0.473788 0.470061
vt 0.645972 0.764485
vt 0.646689 0.765223
vt 0.645958 0.765388
vt 0.538383 0.370081
vt 0.538546 0.370818
vt 0.916745 0.484725
vt 0.917455 0.483960
vt 0.917628 0.484704
vt 0.569740 0.765216
vt 0.569581 0.764471
vt 0.840544 0.484132
vt 0.841289 0.483974
vt 0.538550 0.337525
vt 0.539305 0.338284
vt 0.538563 0.338442
vt 0.348601 0.278843
vt 0.349432 0.279007
vt 0.854435 0.722787
vt 0.854870 0.723462
vt 0.853593 0.723841
vt 0.970281 0.296980
vt 0.970215 0.297806
vt 0.970280 0.171282
vt 0.969206 0.171569
vt 0.969170 0.170672
vt 0.473216 0.257571
vt 0.474079 0.257034
vt 0.970047 0.171613
vt 0.970298 0.172173
vt 0.966718 0.597601
vt 0.967763 0.598094
vt 0.967772 0.597107
vt 0.966726 0.596389
vt 0.504951 0.211474
vt 0.505219 0.210487
vt 0.839774 0.703521
vt 0.838990 0.702770
vt 0.839743 0.702609
vt 0.349473 0.850401
vt 0.348776 0.851170
vt 0.348601 0.850426
vt 0.015293 0.671490
vt 0.014574 0.670815
vt 0.015303 0.670585
vt 0.950988 0.171458
vt 0.950054 0.171121
vt 0.950953 0.170560
vt 0.950087 0.172233
vt 0.139491 0.664452
vt 0.138821 0.664723
vt 0.102072 0.872215
vt 0.102072 0.873355
vt 0.101786 0.872918
vt 0.139796 0.645667
vt 0.140269 0.645381
vt 0.947568 0.598146
vt 0.948491 0.597601
vt 0.948472 0.598723
vt 0.169455 0.618506
vt 0.170374 0.618782
vt 0.169967 0.619378
vt 0.947583 0.596831
vt 0.948499 0.596389
vt 0.950211 0.297506
vt 0.950054 0.296776
vt 0.853593 0.703521
vt 0.854239 0.702770
vt 0.854439 0.703511
vt 0.015298 0.686105
vt 0.014407 0.685347
vt 0.015293 0.685193
vt 0.216694 0.622018
vt 0.216013 0.622697
vt 0.215699 0.622034
vt 0.319791 0.923492
vt 0.319010 0.924395
vt 0.015187 0.454995
vt 0.014405 0.454093
vt 0.015407 0.454092
vt 0.982292 0.840805
vt 0.982976 0.841484
vt 0.982313 0.841799
vt 0.014405 0.015308
vt 0.015187 0.014405
vt 0.319010 0.483805
vt 0.319791 0.484707
vt 0.876769 0.454092
vt 0.876562 0.454829
vt 0.043579 0.873353
vt 0.043579 0.872215
vt 0.043873 0.872642
vt 0.216759 0.485245
vt 0.216108 0.484646
vt 0.216942 0.484288
vt 0.151841 0.454094
vt 0.152853 0.454094
vt 0.152636 0.454831
vt 0.982227 0.704048
vt 0.982882 0.703450
vt 0.983224 0.704266
vt 0.876562 0.014570
vt 0.876769 0.015307
vt 0.319022 0.014405
vt 0.319791 0.015307
vt 0.253034 0.484966
vt 0.253659 0.484340
vt 0.253990 0.484986
vt 0.838836 0.015307
vt 0.839608 0.014405
vt 0.839803 0.015307
vt 0.319791 0.454092
vt 0.319022 0.454995
vt 0.839608 0.454995
vt 0.838836 0.454092
vt 0.945965 0.703785
vt 0.945343 0.703161
vt 0.945987 0.702828
vt 0.251963 0.621343
vt 0.252559 0.621995
vt 0.251741 0.622337
vt 0.181866 0.014570
vt 0.182702 0.014405
vt 0.283131 0.924229
vt 0.282914 0.923492
vt 0.947036 0.840145
vt 0.946444 0.840799
vt 0.946082 0.839966
vt 0.283131 0.483970
vt 0.283945 0.483805
vt 0.182715 0.454092
vt 0.181866 0.454829
vt 0.181662 0.454092
vt 0.838881 0.909076
vt 0.167870 0.904706
vt 0.245196 0.903910
vt 0.244956 0.878632
vt 0.245805 0.878587
vt 0.244402 0.904003
vt 0.916088 0.984693
vt 0.374208 0.447823
vt 0.426450 0.444623
vt 0.112722 0.716253
vt 0.374129 0.682847
vt 0.839683 0.647608
vt 0.838836 0.647567
vt 0.838837 0.595667
vt 0.014418 0.841898
vt 0.015314 0.841003
vt 0.060620 0.843217
vt 0.112722 0.843237
vt 0.525840 0.796110
vt 0.526831 0.796090
vt 0.014405 0.715782
vt 0.014405 0.840962
vt 0.373933 0.681944
vt 0.167519 0.778738
vt 0.167547 0.878498
vt 0.967882 0.563724
vt 0.586351 0.921441
vt 0.525925 0.922278
vt 0.506447 0.531266
vt 0.167009 0.748328
vt 0.474048 0.682847
vt 0.505076 0.692616
vt 0.244325 0.748597
vt 0.244892 0.779008
vt 0.474937 0.025504
vt 0.645958 0.442688
vt 0.243330 0.715120
vt 0.039905 0.488724
vt 0.039976 0.487819
vt 0.091696 0.486913
vt 0.569341 0.604037
vt 0.568355 0.570096
vt 0.569341 0.570095
vt 0.505952 0.015754
vt 0.839857 0.985595
vt 0.348601 0.617878
vt 0.539546 0.143164
vt 0.646860 0.604038
vt 0.538546 0.691713
vt 0.538546 0.531266
vt 0.675670 0.768033
vt 0.676438 0.813935
vt 0.675670 0.815102
vt 0.966625 0.483804
vt 0.951516 0.115978
vt 0.950945 0.064204
vt 0.950641 0.116033
vt 0.950054 0.064260
vt 0.951536 0.016027
vt 0.374208 0.614709
vt 0.426138 0.724129
vt 0.472162 0.722730
vt 0.643002 0.413174
vt 0.673264 0.411954
vt 0.676783 0.412185
vt 0.947351 0.561074
vt 0.583822 0.794387
vt 0.140269 0.524530
vt 0.915181 0.858507
vt 0.946438 0.484834
vt 0.039976 0.682092
vt 0.039905 0.681187
vt 0.971197 0.064105
vt 0.970840 0.115839
vt 0.971781 0.140721
vt 0.971761 0.115835
vt 0.138821 0.505188
vt 0.841077 0.673799
vt 0.839418 0.672829
vt 0.348601 0.725262
vt 0.374039 0.724168
vt 0.792643 0.931005
vt 0.791304 0.935321
vt 0.917628 0.672725
vt 0.374129 0.379685
vt 0.917131 0.547715
vt 0.917102 0.647511
vt 0.474181 0.380588
vt 0.373933 0.380588
vt 0.245805 0.826705
vt 0.676488 0.581022
vt 0.675670 0.552313
vt 0.676488 0.527532
vt 0.426450 0.617908
vt 0.473788 0.592471
vt 0.374039 0.851135
vt 0.139529 0.646161
vt 0.092021 0.670695
vt 0.950955 0.297691
vt 0.472170 0.848760
vt 0.646860 0.921394
vt 0.645869 0.796090
vt 0.646860 0.796110
vt 0.474529 0.470841
vt 0.646775 0.922278
vt 0.505209 0.370818
vt 0.474048 0.379685
vt 0.505076 0.369916
vt 0.917619 0.517231
vt 0.474937 0.328707
vt 0.840293 0.517462
vt 0.916727 0.483804
vt 0.568355 0.604037
vt 0.569341 0.637979
vt 0.568355 0.637979
vt 0.505952 0.338457
vt 0.840386 0.484877
vt 0.537643 0.369916
vt 0.539546 0.211047
vt 0.539465 0.337539
vt 0.646860 0.764486
vt 0.966625 0.643665
vt 0.675670 0.738056
vt 0.676438 0.692132
vt 0.676438 0.739224
vt 0.971192 0.272096
vt 0.970864 0.220241
vt 0.971753 0.220291
vt 0.970319 0.272046
vt 0.039999 0.501513
vt 0.092021 0.499216
vt 0.152636 0.014572
vt 0.152853 0.015309
vt 0.170370 0.618063
vt 0.947351 0.566373
vt 0.014405 0.671568
vt 0.853523 0.702609
vt 0.139888 0.663857
vt 0.946438 0.642635
vt 0.950611 0.220146
vt 0.950073 0.271907
vt 0.091696 0.682998
vt 0.983289 0.840821
vt 0.016219 0.014405
vt 0.216199 0.620822
vt 0.215278 0.621017
vt 0.016219 0.454995
vt 0.981097 0.841303
vt 0.981298 0.842223
vt 0.317979 0.483804
vt 0.217890 0.622517
vt 0.216675 0.623013
vt 0.317979 0.924395
vt 0.215764 0.485463
vt 0.217913 0.483805
vt 0.982786 0.705398
vt 0.983709 0.705236
vt 0.980875 0.703492
vt 0.982046 0.703092
vt 0.150869 0.454997
vt 0.215278 0.486433
vt 0.150869 0.014406
vt 0.150958 0.015309
vt 0.983709 0.839804
vt 0.945777 0.704241
vt 0.945012 0.703807
vt 0.318749 0.454995
vt 0.946421 0.703595
vt 0.946263 0.702713
vt 0.839883 0.454995
vt 0.254105 0.485263
vt 0.318749 0.014405
vt 0.252578 0.484776
vt 0.253014 0.484008
vt 0.839883 0.014405
vt 0.874751 0.014405
vt 0.252738 0.483893
vt 0.981076 0.702609
vt 0.874751 0.454995
vt 0.253223 0.618304
vt 0.252919 0.621162
vt 0.185397 0.014405
vt 0.944897 0.837309
vt 0.185397 0.454995
vt 0.282914 0.484707
vt 0.181662 0.015307
vt 0.248921 0.622595
vt 0.249081 0.623516
vt 0.286565 0.924395
vt 0.947260 0.841140
vt 0.286565 0.483805
vt 0.949919 0.842318
vt 0.217691 0.623436
vt 0.944897 0.704084
vt 0.254105 0.618504
vt 0.920998 0.015317
vt 0.917364 0.014488
vt 0.920752 0.014405
vt 0.041582 0.242533
vt 0.073506 0.272859
vt 0.076278 0.276062
vt 0.913410 0.014517
vt 0.753307 0.976763
vt 0.749353 0.976655
vt 0.752940 0.975904
vt 0.745399 0.976763
vt 0.749353 0.977591
vt 0.909456 0.014488
vt 0.060620 0.716234
vt 0.905578 0.412390
vt 0.909153 0.412478
vt 0.038209 0.230074
vt 0.038176 0.234700
vt 0.913411 0.412509
vt 0.039068 0.238958
vt 0.917670 0.412478
vt 0.705593 0.922853
vt 0.705593 0.878522
vt 0.707120 0.875459
vt 0.921244 0.412390
vt 0.750980 0.016122
vt 0.755189 0.413848
vt 0.711976 0.940458
vt 0.711203 0.940945
vt 0.708255 0.934982
vt 0.746600 0.016067
vt 0.746629 0.413779
vt 0.751132 0.413836
vt 0.742452 0.015977
vt 0.739169 0.015865
vt 0.738988 0.413571
vt 0.742364 0.413686
vt 0.705864 0.014405
vt 0.705593 0.015320
vt 0.641507 0.015763
vt 0.245574 0.658235
vt 0.246484 0.658227
vt 0.247057 0.664981
vt 0.635395 0.015858
vt 0.076766 0.275289
vt 0.080931 0.277349
vt 0.631837 0.413416
vt 0.638066 0.413319
vt 0.628944 0.015892
vt 0.039999 0.668398
vt 0.623137 0.015860
vt 0.619343 0.413418
vt 0.625262 0.413451
vt 0.676521 0.014405
vt 0.646350 0.015621
vt 0.782558 0.840872
vt 0.146908 0.196141
vt 0.148139 0.197458
vt 0.147492 0.199075
vt 0.788647 0.840832
vt 0.785492 0.840863
vt 0.145437 0.192335
vt 0.147830 0.195919
vt 0.568356 0.412614
vt 0.568647 0.411701
vt 0.144801 0.192986
vt 0.142040 0.190064
vt 0.574923 0.412860
vt 0.571345 0.412773
vt 0.742011 0.974380
vt 0.714680 0.945610
vt 0.745766 0.975904
vt 0.625401 0.413878
vt 0.570945 0.413191
vt 0.575472 0.015222
vt 0.708827 0.872905
vt 0.706270 0.875121
vt 0.708177 0.872269
vt 0.572722 0.015076
vt 0.711383 0.871199
vt 0.711031 0.870363
vt 0.785227 0.442686
vt 0.786939 0.942542
vt 0.756695 0.974380
vt 0.781824 0.442696
vt 0.578835 0.015303
vt 0.802560 0.413695
vt 0.714434 0.869687
vt 0.782987 0.869686
vt 0.810027 0.413507
vt 0.806628 0.413640
vt 0.144425 0.276040
vt 0.141247 0.279241
vt 0.140909 0.278391
vt 0.705593 0.840832
vt 0.146833 0.272434
vt 0.145061 0.276691
vt 0.712500 0.840876
vt 0.709199 0.840867
vt 0.147812 0.272572
vt 0.675670 0.447147
vt 0.676046 0.442687
vt 0.676046 0.498722
vt 0.806030 0.015929
vt 0.802177 0.015982
vt 0.789502 0.873280
vt 0.792338 0.875912
vt 0.791488 0.876250
vt 0.809189 0.015806
vt 0.790153 0.872644
vt 0.706105 0.442658
vt 0.793113 0.879804
vt 0.793113 0.927081
vt 0.709376 0.442689
vt 0.713234 0.443608
vt 0.754924 0.016134
vt 0.147491 0.269133
vt 0.713271 0.442700
vt 0.374205 0.275832
vt 0.150958 0.454094
vt 0.947176 0.569022
vt 0.087543 0.190011
vt 0.085167 0.279612
vt 0.074707 0.195137
vt 0.788528 0.938886
vt 0.809472 0.016720
vt 0.946172 0.871127
vt 0.977324 0.871206
vt 0.944897 0.872399
vt 0.978337 0.871582
vt 0.978756 0.872485
vt 0.978756 0.979447
vt 0.978473 0.978302
vt 0.945271 0.871498
vt 0.945181 0.948982
vt 0.348745 0.693921
vt 0.349751 0.014405
vt 0.137287 0.716423
vt 0.472162 0.849698
vt 0.646775 0.795189
vt 0.072683 0.872642
vt 0.072977 0.872215
vt 0.072977 0.873353
vt 0.167000 0.715813
vt 0.569581 0.443603
vt 0.538563 0.015763
vt 0.464891 0.880131
vt 0.465146 0.880796
vt 0.464891 0.881186
vt 0.043777 0.903210
vt 0.043579 0.902869
vt 0.043777 0.902163
vt 0.900131 0.878921
vt 0.967540 0.529828
vt 0.015303 0.499326
vt 0.138184 0.842511
vt 0.014770 0.873367
vt 0.014405 0.872874
vt 0.014770 0.872216
vt 0.971589 0.015404
vt 0.014418 0.714915
vt 0.525840 0.921394
vt 0.131168 0.872917
vt 0.130882 0.873355
vt 0.130882 0.872215
vt 0.947749 0.529897
vt 0.169967 0.550533
vt 0.014572 0.483848
vt 0.900484 0.859409
vt 0.916088 0.828797
vt 0.348745 0.368611
vt 0.915203 0.751861
vt 0.349770 0.339802
vt 0.839742 0.829697
vt 0.349500 0.445636
vt 0.570483 0.765393
vt 0.436081 0.881187
vt 0.435826 0.880798
vt 0.436081 0.880131
vt 0.854793 0.723023
vt 0.493955 0.880131
vt 0.494153 0.880837
vt 0.493955 0.881178
vt 0.967540 0.597620
vt 0.838837 0.703511
vt 0.349497 0.851321
vt 0.675670 0.843912
vt 0.676035 0.844570
vt 0.675670 0.845064
vt 0.950245 0.171555
vt 0.472170 0.723596
vt 0.406757 0.880554
vt 0.407016 0.880131
vt 0.407016 0.881268
vt 0.947749 0.597550
vt 0.014572 0.686064
vt 0.319675 0.924229
vt 0.014521 0.454830
vt 0.014521 0.014571
vt 0.319675 0.483970
vt 0.875730 0.454995
vt 0.675670 0.874274
vt 0.675947 0.873873
vt 0.675947 0.875001
vt 0.525925 0.795189
vt 0.151823 0.454997
vt 0.875730 0.014405
vt 0.319668 0.014570
vt 0.838958 0.014570
vt 0.319668 0.454829
vt 0.838958 0.454829
vt 0.283945 0.924395
vt 0.182702 0.454995
vt 0.375204 0.025488
vt 0.426256 0.445526
vt 0.675670 0.663323
vt 0.675670 0.609832
vt 0.676488 0.634613
vt 0.968867 0.563723
vt 0.505439 0.531266
vt 0.091871 0.486004
vt 0.569173 0.443617
vt 0.426256 0.617006
vt 0.215278 0.659097
vt 0.216192 0.659081
vt 0.216765 0.664983
vt 0.041582 0.226867
vt 0.039068 0.230441
vt 0.638495 0.413743
vt 0.170775 0.552291
vt 0.091871 0.683907
vt 0.375204 0.328723
vt 0.789301 0.939373
vt 0.426138 0.851097
vt 0.569173 0.764457
vt 0.151823 0.014407
vt 0.170775 0.617621
vt 0.500980 0.722730
vt 0.501355 0.726231
vt 0.500980 0.762621
vt 0.906068 0.014405
vt 0.706285 0.928629
vt 0.705593 0.412107
vt 0.216765 0.652325
vt 0.530559 0.722730
vt 0.530559 0.735825
vt 0.530164 0.729384
vt 0.085369 0.278725
vt 0.141702 0.190914
vt 0.247057 0.652325
vt 0.138083 0.190193
vt 0.788081 0.442658
vt 0.786882 0.870460
vt 0.136799 0.279209
vt 0.089405 0.279208
s 1
f 252/1/1 284/2/2 287/3/3
f 382/4/4 344/5/5 354/6/6
f 160/7/7 156/8/8 61/9/9
f 237/10/10 195/11/11 177/12/12
f 195/11/11 248/13/13 194/14/14
f 318/15/15 334/16/16 328/17/17
f 1/18/18 2/19/18 359/20/19
f 51/21/20 38/22/21 45/23/22
f 39/24/23 29/25/24 26/26/25
f 361/27/26 344/5/5 347/28/27
f 277/29/28 201/30/29 198/31/30
f 210/32/31 57/33/32 61/34/33
f 61/34/34 57/33/35 44/35/36
f 98/36/37 55/37/38 104/38/39
f 445/39/40 454/40/41 462/41/42
f 224/42/43 77/43/44 212/44/45
f 55/37/38 110/45/46 104/38/39
f 60/46/47 110/45/46 81/47/48
f 60/46/49 264/48/50 259/49/51
f 125/50/52 33/51/53 35/52/54
f 113/53/55 18/54/56 117/55/57
f 113/53/55 35/52/54 36/56/58
f 78/57/18 230/58/59 80/59/60
f 90/60/61 162/61/62 84/62/63
f 405/63/64 395/64/65 389/65/66
f 129/66/67 90/60/61 94/67/68
f 133/68/69 141/69/70 123/70/71
f 286/71/72 257/72/73 250/73/74
f 221/74/75 205/75/76 208/76/77
f 122/77/78 24/78/79 33/51/53
f 103/79/80 132/80/81 96/81/82
f 176/82/83 169/83/84 183/84/85
f 466/85/86 481/86/87 476/87/88
f 134/88/89 94/67/68 97/89/90
f 307/90/91 245/91/92 239/92/93
f 231/93/94 218/94/95 221/74/75
f 208/76/77 191/95/96 196/96/97
f 251/97/98 220/98/99 207/99/100
f 26/26/25 11/100/101 5/101/102
f 264/48/50 220/98/99 259/49/51
f 248/13/13 207/99/100 194/14/14
f 70/102/103 78/57/18 80/59/60
f 159/103/104 155/104/105 61/9/106
f 327/105/107 401/106/108 404/107/109
f 42/108/110 93/109/111 28/110/112
f 267/111/113 185/112/114 202/113/115
f 39/24/23 54/114/116 41/115/117
f 276/116/118 294/117/119 288/118/120
f 30/119/121 93/109/111 91/120/122
f 30/119/121 83/121/123 12/122/124
f 247/123/125 280/124/126 284/2/2
f 321/125/127 331/126/128 335/127/129
f 279/128/130 202/113/115 201/30/29
f 52/129/131 72/130/132 54/114/116
f 491/131/133 507/132/134 502/133/135
f 431/134/136 416/135/137 425/136/138
f 437/137/139 422/138/140 419/139/141
f 421/140/142 424/141/143 318/15/15
f 315/142/144 402/143/145 331/126/128
f 266/144/146 211/145/147 295/146/148
f 517/147/149 504/148/150 489/149/151
f 178/150/152 191/95/96 170/151/153
f 112/152/154 46/153/155 24/78/79
f 196/96/97 209/154/156 208/76/77
f 405/63/64 371/155/157 381/156/158
f 408/157/159 392/158/160 396/159/161
f 429/160/162 419/139/141 414/161/163
f 369/162/164 340/163/165 343/164/166
f 414/165/163 476/87/88 429/166/162
f 434/167/167 425/136/138 422/138/140
f 485/168/168 533/169/169 456/170/170
f 416/171/137 454/40/41 440/172/171
f 447/173/172 462/41/42 459/174/173
f 442/175/174 531/176/175 515/177/176
f 469/178/177 478/179/178 486/180/179
f 450/181/180 459/174/173 457/182/181
f 442/175/174 457/182/181 452/183/182
f 266/144/146 198/31/30 190/184/183
f 471/185/184 486/180/179 483/186/185
f 493/187/186 504/148/150 513/188/187
f 474/189/188 483/186/185 481/86/87
f 491/131/133 478/179/178 464/190/189
f 496/191/190 513/188/187 510/192/191
f 531/176/175 520/193/192 515/177/176
f 499/194/193 510/195/191 507/132/134
f 518/196/194 2/19/18 1/18/18
f 534/197/195 517/147/149 526/198/196
f 537/199/197 526/198/196 523/200/198
f 540/201/199 523/202/198 520/193/192
f 60/203/200 81/204/200 80/205/200
f 3/206/201 7/207/202 9/208/203
f 8/209/204 6/210/205 4/211/206
f 5/101/102 7/212/207 8/213/208
f 10/214/209 14/215/210 16/216/211
f 11/100/101 14/217/212 13/218/213
f 16/219/214 15/220/215 12/122/124
f 17/221/216 21/222/217 23/223/218
f 18/54/56 21/224/219 20/225/220
f 19/226/221 21/227/222 22/228/223
f 299/229/224 296/230/225 297/231/226
f 45/23/22 48/232/227 47/233/228
f 63/234/229 67/235/230 69/236/231
f 64/237/232 67/238/233 66/239/234
f 65/240/235 67/241/236 68/242/237
f 70/102/103 74/243/238 76/244/239
f 71/245/240 74/246/241 73/247/242
f 72/130/132 74/248/243 75/249/244
f 86/250/245 89/251/246 83/121/123
f 88/252/247 86/253/245 84/62/63
f 89/254/248 88/255/249 85/256/250
f 99/257/251 102/258/252 96/259/82
f 97/89/90 100/260/253 99/257/251
f 102/261/252 101/262/254 98/36/37
f 106/263/255 109/264/256 103/79/80
f 108/265/257 106/266/255 104/38/39
f 109/264/256 108/267/257 105/268/258
f 115/269/259 119/270/260 121/271/261
f 116/272/262 119/273/263 118/274/264
f 117/55/57 119/275/265 120/276/266
f 135/277/267 138/278/268 132/279/81
f 133/68/69 136/280/269 135/281/270
f 138/278/268 137/282/271 134/88/89
f 50/283/272 47/284/273 48/285/274
f 141/69/70 143/286/275 144/287/276
f 149/288/277 152/289/278 146/290/279
f 151/291/280 149/288/277 147/292/281
f 148/293/282 150/294/283 151/295/284
f 153/296/285 158/297/285 161/298/286
f 159/299/287 157/300/288 154/301/289
f 155/302/290 158/303/290 159/304/291
f 161/298/292 160/305/293 156/306/294
f 162/61/62 166/307/295 168/308/296
f 167/309/297 165/310/298 163/311/299
f 164/312/300 166/313/301 167/314/302
f 169/83/84 173/315/303 175/316/304
f 170/151/153 173/317/305 172/318/306
f 175/319/307 174/320/308 171/321/309
f 176/82/83 180/322/310 182/323/311
f 181/324/312 179/325/313 177/12/12
f 178/150/152 180/326/314 181/327/312
f 183/84/85 187/328/315 189/329/316
f 184/330/317 187/331/318 186/332/319
f 185/112/114 187/333/320 188/334/321
f 212/44/45 214/335/322 215/336/323
f 223/337/324 227/338/325 229/339/326
f 224/42/43 227/340/327 226/341/328
f 225/342/329 227/343/330 228/344/331
f 230/58/59 234/345/332 236/346/333
f 231/93/94 234/347/334 233/348/335
f 232/349/336 234/350/337 235/351/338
f 240/352/339 243/353/340 237/10/10
f 242/354/341 240/355/342 238/356/343
f 243/357/340 242/358/344 239/92/93
f 253/359/345 256/360/346 250/361/74
f 255/362/347 253/363/345 251/97/98
f 252/1/1 254/364/348 255/365/347
f 260/366/349 263/367/350 257/72/73
f 262/368/351 260/366/349 258/369/352
f 263/370/350 262/371/351 259/49/51
f 269/372/353 273/373/354 275/374/355
f 270/375/356 273/376/357 272/377/358
f 271/378/359 273/379/360 274/380/361
f 289/381/362 292/382/363 286/383/72
f 291/384/364 289/381/362 287/3/3
f 288/118/120 290/385/365 291/386/366
f 213/387/367 215/388/368 214/389/369
f 294/117/119 297/390/370 296/391/371
f 303/392/372 306/393/373 300/394/374
f 301/395/375 304/396/376 303/397/377
f 306/393/373 305/398/378 302/399/379
f 307/90/91 311/400/380 313/401/381
f 308/402/382 311/403/383 310/404/384
f 313/405/385 312/406/386 309/407/387
f 320/408/388 324/409/389 326/410/390
f 325/411/391 323/412/392 321/125/127
f 326/413/393 325/414/391 322/415/394
f 333/416/395 337/417/396 339/418/397
f 338/419/398 336/420/399 334/16/16
f 339/421/400 338/422/398 335/127/129
f 361/27/26 365/423/401 363/424/402
f 142/425/403 144/426/404 143/427/405
f 348/428/406 350/429/407 351/430/408
f 346/431/409 349/432/410 350/433/411
f 360/434/412 363/435/413 362/436/414
f 350/437/411 349/438/410 347/28/27
f 373/439/415 376/440/416 371/155/157
f 372/441/417 374/442/418 373/443/419
f 376/444/416 375/445/420 367/446/421
f 384/447/422 387/448/423 381/156/158
f 386/449/424 384/450/422 382/4/4
f 383/451/425 385/452/426 386/453/427
f 394/454/428 398/455/429 400/456/430
f 395/64/65 398/457/431 397/458/432
f 396/159/161 398/459/431 399/460/433
f 407/461/434 411/462/435 413/463/436
f 408/157/159 411/464/437 410/465/438
f 409/466/439 411/467/437 412/468/440
f 3/206/201 13/469/441 10/214/209
f 9/470/442 11/100/101 13/218/213
f 12/471/124 31/472/443 30/473/121
f 15/474/215 29/25/24 31/472/443
f 10/214/209 89/254/248 85/256/250
f 16/219/214 83/121/123 89/251/246
f 115/269/259 20/475/444 17/221/216
f 20/225/220 117/55/57 18/54/56
f 203/476/445 184/330/317 199/477/446
f 37/478/447 18/54/56 36/56/58
f 4/211/206 27/479/448 8/209/204
f 8/213/208 26/26/25 5/101/102
f 197/480/449 195/481/11 194/482/14
f 144/483/404 140/484/450 112/152/154
f 124/485/451 125/50/52 114/486/452
f 84/62/63 168/308/296 88/252/247
f 88/255/249 164/312/300 85/256/250
f 103/79/80 149/288/277 146/290/279
f 109/264/256 147/292/281 149/288/277
f 44/35/36 142/487/403 139/488/453
f 50/489/272 140/484/450 142/490/403
f 38/22/21 27/479/448 25/491/454
f 40/492/455 26/26/25 27/493/456
f 60/46/47 108/265/257 104/38/39
f 62/494/457 105/268/258 108/267/257
f 44/35/36 59/495/458 47/496/273
f 47/233/228 58/497/459 45/23/22
f 39/24/23 53/498/455 52/129/131
f 40/499/460 51/21/20 53/500/461
f 41/115/117 56/501/462 43/502/463
f 43/503/463 55/37/38 42/108/110
f 70/102/103 66/504/464 63/234/229
f 76/505/465 64/237/232 66/239/234
f 126/506/466 128/507/467 130/508/468
f 82/509/469 110/510/46 111/511/470
f 54/114/116 75/249/244 56/501/462
f 56/512/471 71/245/240 55/37/38
f 51/21/20 68/242/237 53/500/461
f 53/498/455 64/237/232 52/129/131
f 17/221/216 6/513/472 3/206/201
f 23/514/473 4/211/206 6/210/205
f 111/515/470 71/245/240 73/247/242
f 63/234/229 79/516/474 78/57/18
f 69/517/475 77/43/476 79/518/477
f 104/519/39 102/520/252 98/521/37
f 106/263/255 96/81/82 102/522/252
f 94/67/68 92/523/478 95/524/479
f 95/524/479 91/525/122 93/526/111
f 84/62/63 92/523/478 90/60/61
f 86/253/480 91/525/122 92/523/478
f 97/89/90 95/524/479 101/527/254
f 101/262/254 93/109/111 98/36/37
f 117/55/57 114/486/452 113/53/55
f 19/226/221 22/228/223 37/528/481
f 190/184/183 200/529/482 215/530/368
f 215/336/323 199/477/446 212/44/45
f 467/531/483 415/532/484 418/533/485
f 147/292/486 161/534/292 151/291/284
f 151/295/284 156/306/294 148/293/282
f 139/488/453 160/535/487 155/302/488
f 145/536/489 156/306/294 160/305/490
f 115/269/259 167/314/302 118/537/491
f 118/274/264 163/311/299 116/272/262
f 132/80/81 152/289/278 135/538/267
f 135/281/270 148/293/282 133/68/69
f 282/539/492 309/407/387 281/540/493
f 131/541/494 127/542/495 129/66/67
f 165/543/496 127/542/495 128/544/497
f 130/508/468 137/545/498 133/68/69
f 131/541/494 134/88/89 137/282/271
f 97/89/90 138/278/268 134/88/89
f 99/257/251 132/279/81 138/278/268
f 178/150/152 172/318/306 182/546/499
f 182/323/311 169/83/84 176/82/83
f 196/96/97 181/327/312 197/480/449
f 197/480/449 177/547/12 195/481/11
f 237/10/10 179/325/313 240/352/339
f 240/355/342 176/82/83 238/356/343
f 270/375/356 189/548/500 185/112/114
f 189/329/316 269/372/353 183/84/85
f 185/112/114 203/549/501 202/113/115
f 456/170/170 458/550/502 460/551/503
f 191/95/96 174/552/504 170/151/153
f 193/553/505 171/321/309 174/320/308
f 191/95/96 206/554/506 193/555/507
f 193/553/505 204/556/508 192/557/509
f 43/502/463 29/25/24 41/115/117
f 28/558/112 31/472/443 43/502/463
f 278/559/510 266/560/146 298/561/511
f 32/562/512 49/563/513 45/23/22
f 268/564/514 267/111/113 279/128/130
f 298/565/515 276/116/118 278/566/516
f 308/402/382 242/354/341 238/356/343
f 310/567/517 239/92/93 242/358/344
f 258/369/352 306/393/373 302/399/379
f 260/366/349 300/394/374 306/393/373
f 211/145/147 299/568/224 295/146/148
f 213/569/367 293/570/518 299/571/224
f 258/369/352 62/494/519 262/368/351
f 262/371/351 60/46/49 259/49/51
f 58/497/520 216/572/521 212/44/45
f 59/495/522 210/32/31 216/573/523
f 217/574/524 206/575/525 219/576/525
f 219/577/506 205/75/76 218/94/95
f 220/98/99 209/578/156 207/99/100
f 222/579/526 208/76/77 209/154/156
f 231/93/94 229/580/527 225/342/329
f 229/339/326 230/58/59 223/337/324
f 81/581/48 265/582/528 264/583/50
f 80/59/60 82/509/469 111/511/470
f 232/349/336 222/584/529 220/98/99
f 235/585/530 221/74/75 222/579/526
f 225/342/329 219/577/506 218/94/95
f 228/586/531 217/574/524 219/576/525
f 171/321/309 186/332/319 175/319/307
f 175/316/304 183/84/85 169/83/84
f 232/349/336 265/587/528 236/588/532
f 224/42/43 79/518/533 77/43/44
f 226/589/534 78/57/18 79/516/474
f 250/73/74 263/367/350 253/590/345
f 253/591/345 259/592/51 251/593/98
f 244/594/535 249/595/536 248/596/13
f 246/597/537 247/123/125 249/595/536
f 244/594/535 243/357/538 246/597/537
f 246/597/537 239/92/93 245/91/92
f 248/13/13 255/362/347 251/97/98
f 249/595/536 252/1/1 255/365/347
f 114/598/539 116/272/262 123/70/71
f 268/564/514 270/375/356 267/111/113
f 123/70/71 144/287/276 124/599/540
f 363/600/402 365/601/401 359/20/19
f 37/478/447 36/56/58 35/52/54
f 154/301/289 305/602/541 301/395/375
f 157/603/288 302/399/542 305/398/541
f 154/301/289 296/391/371 159/299/543
f 159/304/544 293/570/518 155/302/545
f 309/407/387 275/604/546 271/378/359
f 312/605/547 269/372/353 275/374/355
f 301/395/375 292/606/548 288/118/120
f 303/392/372 286/71/72 292/607/363
f 280/124/126 285/608/549 284/2/2
f 280/124/126 313/401/381 282/609/550
f 287/3/3 285/608/549 291/384/364
f 291/386/366 283/610/551 288/118/120
f 250/361/74 289/381/362 286/383/72
f 256/360/346 287/3/3 289/381/362
f 327/105/107 336/611/552 333/416/395
f 329/612/553 334/16/16 336/420/399
f 317/613/554 326/410/390 319/614/555
f 319/615/556 322/415/394 318/15/15
f 321/125/127 338/422/398 325/411/391
f 338/419/398 322/415/394 325/414/391
f 330/616/557 339/418/397 332/617/558
f 332/618/559 335/127/129 331/126/128
f 314/619/560 323/620/561 320/408/388
f 316/621/562 321/125/127 323/412/392
f 340/163/165 352/622/563 348/428/406
f 343/164/166 351/430/408 345/623/564
f 356/624/565 362/436/414 358/625/566
f 353/626/567 364/627/568 360/434/412
f 347/28/27 365/423/401 361/27/26
f 349/432/410 359/20/19 365/601/401
f 318/15/15 342/628/569 319/615/556
f 342/629/570 317/613/554 319/614/555
f 328/17/17 358/630/571 357/631/572
f 329/632/573 356/624/565 358/625/566
f 377/633/574 387/634/575 383/451/425
f 387/448/423 378/635/576 381/156/158
f 379/636/577 386/453/427 380/637/578
f 380/638/579 386/449/424 382/4/4
f 369/162/164 373/443/419 370/639/580
f 370/640/581 373/439/415 371/155/157
f 366/641/582 375/642/583 372/441/417
f 375/445/420 368/643/584 367/446/421
f 382/4/4 376/444/416 367/446/421
f 384/447/422 371/155/157 376/440/416
f 367/446/421 345/644/585 344/5/5
f 368/645/586 343/164/166 345/623/564
f 379/636/577 355/646/587 353/626/567
f 380/638/579 354/6/6 355/647/588
f 388/648/589 397/649/590 394/454/428
f 390/650/591 395/64/65 397/458/432
f 404/107/109 413/463/436 406/651/592
f 406/652/593 409/466/439 405/63/64
f 396/159/161 412/653/440 408/157/159
f 399/654/433 409/466/439 412/468/440
f 391/655/594 400/456/430 393/656/595
f 393/657/596 396/159/161 392/158/160
f 401/106/108 410/658/597 407/461/434
f 403/659/598 408/157/159 410/465/438
f 330/616/557 403/660/599 401/106/108
f 332/618/559 402/143/145 403/659/598
f 391/655/594 316/661/600 314/619/560
f 393/657/596 315/142/144 316/621/562
f 404/107/109 378/662/601 377/633/574
f 406/652/593 381/156/158 378/635/576
f 369/162/164 390/663/602 388/648/589
f 370/640/581 389/65/66 390/650/591
f 427/664/603 433/665/604 428/666/605
f 417/667/606 441/668/607 444/669/608
f 431/134/136 436/670/609 433/665/604
f 433/671/610 435/672/611 432/673/612
f 437/137/139 436/670/609 434/167/167
f 439/674/613 435/672/611 436/675/614
f 429/160/162 439/676/615 437/137/139
f 200/529/482 201/30/29 203/549/501
f 34/677/616 33/51/53 24/78/79
f 415/678/617 419/139/141 420/679/618
f 418/680/485 423/681/619 421/140/142
f 420/679/618 422/138/140 423/682/620
f 424/141/143 423/681/619 426/683/621
f 426/684/622 422/138/140 425/136/138
f 479/685/623 503/686/624 506/687/625
f 417/688/626 425/136/138 416/135/137
f 458/689/627 452/183/182 457/182/181
f 443/690/628 450/181/180 442/175/174
f 480/691/629 482/692/630 484/693/631
f 458/689/627 459/174/173 460/694/632
f 265/582/528 80/59/60 230/58/59
f 448/695/633 450/181/180 451/696/627
f 463/697/634 459/174/173 462/41/42
f 448/695/633 445/39/40 447/173/172
f 463/697/634 454/40/41 455/698/635
f 441/699/636 445/39/40 446/700/634
f 441/699/636 416/171/137 440/172/171
f 428/701/605 454/40/41 427/702/603
f 482/703/637 476/87/88 481/86/87
f 467/531/638 474/189/188 466/85/86
f 468/704/639 470/705/640 472/706/641
f 482/703/637 483/186/185 484/707/642
f 444/669/608 446/708/643 448/709/644
f 472/710/642 474/189/188 475/711/645
f 487/712/646 483/186/185 486/180/179
f 472/710/642 469/178/177 471/185/184
f 271/378/359 274/380/361 268/713/647
f 487/712/646 478/179/178 479/714/648
f 465/715/648 469/178/177 470/716/646
f 467/531/638 414/165/163 415/532/617
f 430/717/649 476/87/88 477/718/650
f 493/187/186 490/719/651 489/149/151
f 495/720/652 488/721/653 490/722/654
f 493/187/186 498/723/655 495/724/656
f 495/720/652 497/725/657 494/726/658
f 499/194/193 498/727/655 496/728/190
f 498/729/659 500/730/660 497/725/657
f 499/194/193 492/731/661 501/732/662
f 430/733/663 477/734/664 438/735/665
f 465/715/666 468/736/639 500/737/660
f 508/738/667 502/133/135 507/132/134
f 509/739/668 508/740/669 511/741/659
f 511/742/670 507/132/134 510/195/191
f 512/743/671 511/741/659 514/744/672
f 514/745/673 510/192/191 513/188/187
f 455/746/674 428/747/675 432/673/612
f 514/745/673 504/148/150 505/748/676
f 491/131/133 465/715/648 492/731/661
f 503/749/661 478/179/178 502/133/135
f 520/193/192 516/750/677 515/177/176
f 505/751/678 530/752/679 512/743/671
f 520/193/192 525/753/680 522/754/681
f 525/755/682 521/756/683 522/757/684
f 526/198/196 525/758/680 523/200/198
f 528/759/685 524/760/686 525/755/682
f 526/198/196 519/761/687 528/762/688
f 528/759/685 518/196/194 527/763/689
f 516/764/690 521/765/683 449/766/691
f 541/767/681 531/176/175 532/768/677
f 536/769/692 541/770/684 539/771/693
f 538/772/680 540/201/199 541/767/681
f 533/169/169 538/773/694 536/769/692
f 538/774/680 534/197/195 537/199/197
f 532/775/695 453/776/696 539/771/693
f 535/777/697 529/778/698 534/197/195
f 515/177/176 443/690/628 442/175/174
f 532/768/677 452/183/182 453/779/628
f 488/721/653 519/780/699 490/722/654
f 490/719/651 517/147/149 489/149/151
f 505/748/676 529/778/698 530/781/700
f 115/269/259 17/221/216 85/256/250
f 252/1/1 247/123/125 284/2/2
f 382/4/4 367/446/421 344/5/5
f 147/292/281 105/268/258 156/8/8
f 105/268/258 61/9/9 156/8/8
f 61/9/9 155/104/701 160/7/7
f 237/10/10 244/782/535 195/11/11
f 195/11/11 244/782/535 248/13/13
f 318/15/15 322/415/394 334/16/16
f 2/19/18 357/631/572 359/20/19
f 359/20/19 346/431/409 1/18/18
f 346/431/409 341/783/702 1/18/18
f 4/211/206 19/226/221 25/491/454
f 19/226/221 32/562/512 25/491/454
f 45/23/22 58/497/459 77/43/476
f 32/562/512 45/23/22 38/22/21
f 25/491/454 32/562/512 38/22/21
f 45/23/22 77/43/476 65/240/235
f 65/240/235 51/21/20 45/23/22
f 39/24/23 41/115/117 29/25/24
f 361/27/26 354/6/6 344/5/5
f 277/29/28 279/128/130 201/30/29
f 61/34/33 155/302/545 293/570/518
f 293/570/518 210/32/31 61/34/33
f 44/35/36 139/488/453 61/34/34
f 139/488/453 155/302/488 61/34/34
f 98/36/37 42/108/110 55/37/38
f 445/39/40 440/172/171 454/40/41
f 199/477/446 184/330/317 192/557/509
f 184/330/317 171/321/309 192/557/509
f 77/43/44 58/497/520 212/44/45
f 212/44/45 199/477/446 204/556/508
f 199/477/446 192/557/509 204/556/508
f 204/556/508 217/574/524 212/44/45
f 217/574/524 224/42/43 212/44/45
f 55/37/38 71/245/240 110/45/46
f 60/46/47 104/38/39 110/45/46
f 60/46/49 81/47/48 264/48/50
f 125/50/52 122/77/78 33/51/53
f 113/53/55 36/56/58 18/54/56
f 113/53/55 125/50/52 35/52/54
f 78/57/18 223/337/324 230/58/59
f 90/60/61 127/542/495 162/61/62
f 405/63/64 409/466/439 395/64/65
f 129/66/67 127/542/495 90/60/61
f 126/506/466 130/508/468 123/70/71
f 130/508/468 133/68/69 123/70/71
f 133/68/69 148/293/282 141/69/70
f 148/293/282 156/306/294 141/69/70
f 163/311/299 126/506/466 116/272/262
f 123/70/71 116/272/262 126/506/466
f 286/71/72 300/394/374 257/72/73
f 221/74/75 218/94/95 205/75/76
f 122/77/78 112/152/154 24/78/79
f 103/79/80 146/290/279 132/80/81
f 183/84/85 269/372/353 238/356/343
f 269/372/353 308/402/382 238/356/343
f 238/356/343 176/82/83 183/84/85
f 466/85/86 474/189/188 481/86/87
f 134/88/89 129/66/67 94/67/68
f 307/90/91 280/124/126 245/91/92
f 231/93/94 225/342/329 218/94/95
f 208/76/77 205/75/76 191/95/96
f 251/97/98 259/49/51 220/98/99
f 26/26/25 29/25/24 11/100/101
f 264/48/50 232/349/336 220/98/99
f 248/13/13 251/97/98 207/99/100
f 70/102/103 63/234/229 78/57/18
f 61/9/106 258/369/352 154/784/703
f 258/369/352 302/399/379 154/784/703
f 154/784/703 159/103/104 61/9/106
f 356/624/565 327/105/107 404/107/109
f 327/105/107 333/416/395 330/616/557
f 401/106/108 327/105/107 330/616/557
f 401/106/108 407/461/434 404/107/109
f 404/107/109 377/633/574 356/624/565
f 377/633/574 383/451/425 379/636/577
f 356/624/565 377/633/574 353/626/567
f 379/636/577 353/626/567 377/633/574
f 353/626/567 360/434/412 356/624/565
f 42/108/110 98/36/37 93/109/111
f 267/111/113 270/375/356 185/112/114
f 39/24/23 52/129/131 54/114/116
f 294/117/119 154/301/289 301/395/375
f 288/118/120 283/610/551 276/116/118
f 283/610/551 281/540/493 276/116/118
f 281/540/493 309/407/387 271/378/359
f 281/540/493 271/378/359 276/116/118
f 294/117/119 301/395/375 288/118/120
f 30/119/121 28/110/112 93/109/111
f 30/119/121 91/120/122 83/121/123
f 247/123/125 245/91/92 280/124/126
f 321/125/127 315/142/144 331/126/128
f 279/128/130 267/111/113 202/113/115
f 52/129/131 64/237/232 72/130/132
f 491/131/133 499/194/193 507/132/134
f 431/134/136 427/664/603 416/135/137
f 437/137/139 434/167/167 422/138/140
f 2/19/18 488/721/653 494/726/658
f 2/19/18 494/726/658 497/725/657
f 328/17/17 357/631/572 468/785/639
f 357/631/572 2/19/18 500/730/660
f 1/18/18 341/783/702 521/756/683
f 341/783/702 318/15/15 449/786/691
f 521/756/683 341/783/702 449/786/691
f 527/763/689 518/196/194 1/18/18
f 524/760/686 527/763/689 1/18/18
f 357/631/572 500/730/660 468/785/639
f 2/19/18 497/725/657 500/730/660
f 524/760/686 1/18/18 521/756/683
f 328/17/17 468/785/639 473/787/704
f 444/669/608 449/786/691 318/15/15
f 328/17/17 473/787/704 418/680/485
f 328/17/17 418/680/485 421/140/142
f 424/141/143 444/669/608 318/15/15
f 318/15/15 328/17/17 421/140/142
f 315/142/144 392/158/160 402/143/145
f 266/144/146 190/184/183 211/145/147
f 517/147/149 529/778/698 504/148/150
f 178/150/152 196/96/97 191/95/96
f 112/152/154 140/484/450 46/153/155
f 196/96/97 197/480/449 209/154/156
f 405/63/64 389/65/66 371/155/157
f 408/157/159 402/143/145 392/158/160
f 429/160/162 437/137/139 419/139/141
f 372/441/417 369/162/164 366/641/582
f 369/162/164 388/648/589 340/163/165
f 388/648/589 394/454/428 391/655/594
f 391/655/594 314/619/560 317/613/554
f 314/619/560 320/408/388 317/613/554
f 317/613/554 340/163/165 388/648/589
f 391/655/594 317/613/554 388/648/589
f 340/163/165 348/428/406 343/164/166
f 343/164/166 366/641/582 369/162/164
f 414/165/163 466/85/86 476/87/88
f 434/167/167 431/134/136 425/136/138
f 485/168/168 506/687/625 512/743/671
f 506/687/625 509/739/668 512/743/671
f 512/743/671 533/169/169 485/168/168
f 533/169/169 536/769/692 539/771/693
f 539/771/693 456/170/170 533/169/169
f 456/170/170 461/788/705 480/691/629
f 461/788/705 432/673/612 480/691/629
f 432/673/612 435/672/611 438/735/665
f 480/691/629 432/673/612 438/735/665
f 480/691/629 485/168/168 456/170/170
f 416/171/137 427/702/603 454/40/41
f 447/173/172 445/39/40 462/41/42
f 442/175/174 452/183/182 531/176/175
f 469/178/177 464/190/189 478/179/178
f 450/181/180 447/173/172 459/174/173
f 442/175/174 450/181/180 457/182/181
f 266/144/146 277/29/28 198/31/30
f 471/185/184 469/178/177 486/180/179
f 493/187/186 489/149/151 504/148/150
f 474/189/188 471/185/184 483/186/185
f 491/131/133 502/133/135 478/179/178
f 496/191/190 493/187/186 513/188/187
f 531/176/175 540/201/199 520/193/192
f 499/194/193 496/728/190 510/195/191
f 518/196/194 488/721/653 2/19/18
f 534/197/195 529/778/698 517/147/149
f 537/199/197 534/197/195 526/198/196
f 540/201/199 537/789/197 523/202/198
f 77/790/200 58/791/200 78/792/200
f 58/791/200 59/793/200 57/794/200
f 78/792/200 58/791/200 57/794/200
f 57/794/200 61/795/200 62/796/200
f 57/794/200 62/796/200 60/203/200
f 79/797/200 77/790/200 78/792/200
f 80/205/200 78/792/200 57/794/200
f 81/204/200 82/798/200 80/205/200
f 57/794/200 60/203/200 80/205/200
f 3/206/201 6/513/472 7/207/202
f 8/209/204 7/799/706 6/210/205
f 5/101/102 9/470/442 7/212/207
f 10/214/209 13/469/441 14/215/210
f 11/100/101 15/474/215 14/217/212
f 16/219/214 14/800/707 15/220/215
f 17/221/216 20/475/444 21/222/217
f 18/54/56 22/801/708 21/224/219
f 19/226/221 23/514/473 21/227/222
f 298/802/511 295/146/148 299/568/224
f 299/571/224 293/570/518 296/803/225
f 297/804/226 298/805/511 299/806/224
f 45/23/22 49/563/513 48/232/227
f 63/234/229 66/504/464 67/235/230
f 64/237/232 68/807/709 67/238/233
f 65/240/235 69/517/475 67/241/236
f 70/102/103 73/808/710 74/243/238
f 71/245/240 75/809/711 74/246/241
f 72/130/132 76/505/465 74/248/243
f 86/810/245 87/811/712 89/812/246
f 88/813/247 87/814/712 86/815/245
f 89/254/248 87/816/713 88/255/249
f 99/257/251 100/260/253 102/258/252
f 97/89/90 101/527/254 100/260/253
f 102/258/252 100/260/253 101/527/254
f 106/263/255 107/817/714 109/264/256
f 108/267/257 107/817/714 106/263/255
f 109/264/256 107/817/714 108/267/257
f 115/269/259 118/537/491 119/270/260
f 116/272/262 120/818/715 119/273/263
f 117/55/57 121/819/716 119/275/265
f 135/820/267 136/821/717 138/822/268
f 133/68/69 137/545/498 136/280/269
f 138/278/268 136/823/717 137/282/271
f 49/824/718 46/153/155 50/489/272
f 50/825/272 44/35/36 47/496/273
f 48/826/274 49/827/718 50/828/272
f 141/69/70 145/536/489 143/286/275
f 149/288/277 150/829/719 152/289/278
f 151/291/280 150/829/719 149/288/277
f 148/293/282 152/830/720 150/294/283
f 153/296/285 157/300/721 158/297/285
f 159/299/287 158/297/722 157/300/288
f 155/302/290 160/535/723 158/303/290
f 161/298/292 158/297/724 160/305/293
f 162/61/62 165/543/496 166/307/295
f 167/309/297 166/831/725 165/310/298
f 164/312/300 168/832/726 166/313/301
f 169/83/84 172/833/727 173/315/303
f 170/151/153 174/552/504 173/317/305
f 175/319/307 173/834/728 174/320/308
f 176/82/83 179/835/729 180/322/310
f 181/324/312 180/836/730 179/325/313
f 178/150/152 182/546/499 180/326/314
f 183/84/85 186/837/731 187/328/315
f 184/330/317 188/838/732 187/331/318
f 185/112/114 189/548/500 187/333/320
f 212/44/45 216/572/521 214/335/322
f 223/337/324 226/589/534 227/338/325
f 224/42/43 228/586/531 227/340/327
f 225/342/329 229/580/527 227/343/330
f 230/58/59 233/839/733 234/345/332
f 231/93/94 235/585/530 234/347/334
f 232/349/336 236/588/532 234/350/337
f 240/840/339 241/841/734 243/842/340
f 242/354/341 241/843/735 240/355/342
f 243/844/340 241/845/734 242/846/344
f 253/359/345 254/364/348 256/360/346
f 255/365/347 254/364/348 253/359/345
f 252/1/1 256/360/346 254/364/348
f 260/366/349 261/847/736 263/367/350
f 262/368/351 261/847/736 260/366/349
f 263/367/350 261/847/736 262/368/351
f 269/372/353 272/848/737 273/373/354
f 270/375/356 274/849/738 273/376/357
f 271/378/359 275/604/546 273/379/360
f 289/850/362 290/851/739 292/852/363
f 291/384/364 290/853/739 289/381/362
f 288/118/120 292/606/548 290/385/365
f 213/854/367 211/145/147 215/530/368
f 214/855/369 216/856/523 213/857/367
f 216/573/523 210/32/31 213/569/367
f 294/117/119 298/565/515 297/390/370
f 303/392/372 304/858/740 306/393/373
f 301/395/375 305/602/541 304/396/376
f 306/393/373 304/858/740 305/398/378
f 307/90/91 310/567/517 311/400/380
f 308/402/382 312/605/547 311/403/383
f 313/405/385 311/859/741 312/406/386
f 320/408/388 323/620/561 324/409/389
f 325/411/391 324/860/742 323/412/392
f 326/413/393 324/861/742 325/414/391
f 333/416/395 336/611/552 337/417/396
f 338/419/398 337/862/743 336/420/399
f 339/421/400 337/863/743 338/422/398
f 363/424/402 364/864/744 361/27/26
f 364/864/744 355/647/588 361/27/26
f 355/647/588 354/6/6 361/27/26
f 142/490/403 140/484/450 144/483/404
f 143/865/405 145/866/745 142/867/403
f 145/868/745 139/488/453 142/487/403
f 348/428/406 352/622/563 350/429/407
f 350/433/411 352/869/746 346/431/409
f 352/869/746 342/628/569 346/431/409
f 342/628/569 341/783/702 346/431/409
f 360/434/412 364/627/568 363/435/413
f 344/5/5 345/644/585 347/28/27
f 345/644/585 351/870/747 347/28/27
f 351/870/747 350/437/411 347/28/27
f 373/439/415 374/871/748 376/440/416
f 372/441/417 375/642/583 374/442/418
f 376/444/416 374/872/748 375/445/420
f 384/447/422 385/873/749 387/448/423
f 386/449/424 385/874/749 384/450/422
f 383/451/425 387/634/575 385/452/426
f 394/454/428 397/649/590 398/455/429
f 395/64/65 399/654/433 398/457/431
f 396/159/161 400/875/750 398/459/431
f 407/461/434 410/658/597 411/462/435
f 408/157/159 412/653/440 411/464/437
f 409/466/439 413/876/751 411/467/437
f 3/206/201 9/208/203 13/469/441
f 9/470/442 5/101/102 11/100/101
f 12/122/124 15/220/215 31/877/443
f 15/474/215 11/100/101 29/25/24
f 10/214/209 16/216/211 89/254/248
f 16/219/214 12/122/124 83/121/123
f 115/269/259 121/271/261 20/475/444
f 20/225/220 121/819/716 117/55/57
f 199/477/446 200/878/752 203/476/445
f 203/476/445 188/838/732 184/330/317
f 37/478/447 22/801/708 18/54/56
f 4/211/206 25/491/454 27/479/448
f 8/213/208 27/493/456 26/26/25
f 207/99/100 209/578/156 194/14/14
f 209/154/156 197/480/449 194/482/14
f 122/77/78 124/485/451 112/152/154
f 124/879/451 144/880/404 112/881/154
f 122/77/78 125/50/52 124/485/451
f 125/50/52 113/53/55 114/486/452
f 84/62/63 162/61/62 168/308/296
f 88/255/249 168/832/726 164/312/300
f 103/79/80 109/264/256 149/288/277
f 109/264/256 105/268/258 147/292/281
f 44/35/36 50/825/272 142/487/403
f 50/489/272 46/153/155 140/484/450
f 38/22/21 40/499/460 27/479/448
f 40/492/455 39/24/23 26/26/25
f 60/882/47 62/494/457 108/267/257
f 62/494/457 61/9/9 105/268/258
f 44/35/36 57/33/35 59/495/458
f 47/233/228 59/883/753 58/497/459
f 39/24/23 40/492/455 53/498/455
f 40/499/460 38/22/21 51/21/20
f 41/115/117 54/114/116 56/501/462
f 43/503/463 56/512/471 55/37/38
f 70/102/103 76/244/239 66/504/464
f 76/505/465 72/130/132 64/237/232
f 126/506/466 163/311/299 128/507/467
f 163/311/299 165/310/298 128/507/467
f 128/507/467 131/884/754 130/508/468
f 82/509/469 81/581/48 110/510/46
f 54/114/116 72/130/132 75/249/244
f 56/512/471 75/809/711 71/245/240
f 51/21/20 65/240/235 68/242/237
f 53/498/455 68/807/709 64/237/232
f 17/221/216 23/223/218 6/513/472
f 23/514/473 19/226/221 4/211/206
f 111/511/470 110/510/46 71/885/240
f 63/234/229 69/236/231 79/516/474
f 69/517/475 65/240/235 77/43/476
f 104/38/39 106/266/255 102/261/252
f 106/263/255 103/79/80 96/81/82
f 94/67/68 90/60/61 92/523/478
f 95/524/479 92/523/478 91/525/122
f 84/62/63 86/253/480 92/523/478
f 86/250/480 83/121/123 91/120/122
f 97/89/90 94/67/68 95/524/479
f 101/527/254 95/524/479 93/526/111
f 117/55/57 120/276/266 114/486/452
f 34/886/755 32/562/512 37/528/481
f 32/562/512 19/226/221 37/528/481
f 215/530/368 211/145/147 190/184/183
f 190/184/183 198/31/30 200/529/482
f 215/336/323 200/878/752 199/477/446
f 473/887/704 475/888/630 467/889/483
f 415/890/484 420/891/756 418/680/485
f 473/892/704 467/531/483 418/533/485
f 147/893/486 153/296/757 161/298/292
f 151/295/284 161/298/292 156/306/294
f 139/488/453 145/868/745 160/535/487
f 145/536/489 141/69/70 156/306/294
f 115/269/259 164/312/300 167/314/302
f 118/274/264 167/309/297 163/311/299
f 132/80/81 146/290/279 152/289/278
f 135/281/270 152/830/720 148/293/282
f 282/539/492 313/405/385 309/407/387
f 281/540/493 283/610/551 282/539/492
f 283/610/551 285/894/758 282/539/492
f 131/541/494 128/544/497 127/542/495
f 165/543/496 162/61/62 127/542/495
f 130/508/468 131/884/754 137/545/498
f 131/541/494 129/66/67 134/88/89
f 97/89/90 99/257/251 138/278/268
f 99/257/251 96/259/82 132/279/81
f 178/150/152 170/151/153 172/318/306
f 182/323/311 172/833/727 169/83/84
f 196/96/97 178/150/152 181/327/312
f 197/895/449 181/324/312 177/12/12
f 237/10/10 177/12/12 179/325/313
f 240/355/342 179/835/729 176/82/83
f 270/375/356 272/377/358 189/548/500
f 189/329/316 272/848/737 269/372/353
f 185/112/114 188/334/321 203/549/501
f 463/896/643 461/788/705 460/551/503
f 461/788/705 456/170/170 460/551/503
f 191/95/96 193/555/507 174/552/504
f 193/553/505 192/557/509 171/321/309
f 191/95/96 205/75/76 206/554/506
f 193/553/505 206/575/525 204/556/508
f 43/502/463 31/472/443 29/25/24
f 43/503/463 42/108/110 28/110/112
f 28/558/112 30/473/121 31/472/443
f 277/29/28 266/144/146 278/897/510
f 266/144/146 295/146/148 298/802/511
f 32/562/512 34/886/755 49/563/513
f 277/29/28 278/897/510 279/128/130
f 278/897/510 268/564/514 279/128/130
f 298/565/515 294/117/119 276/116/118
f 308/402/382 310/404/384 242/354/341
f 310/567/517 307/90/91 239/92/93
f 258/369/352 260/366/349 306/393/373
f 260/366/349 257/72/73 300/394/374
f 211/145/147 213/854/367 299/568/224
f 213/569/367 210/32/31 293/570/518
f 258/369/352 61/9/106 62/494/519
f 262/368/351 62/494/519 60/882/49
f 58/497/520 59/883/759 216/572/521
f 59/495/522 57/33/32 210/32/31
f 217/574/524 204/556/508 206/575/525
f 219/577/506 206/554/506 205/75/76
f 220/98/99 222/584/529 209/578/156
f 222/579/526 221/74/75 208/76/77
f 231/93/94 233/348/335 229/580/527
f 229/339/326 233/839/733 230/58/59
f 81/581/48 82/509/469 265/582/528
f 73/808/710 70/102/103 111/511/470
f 70/102/103 80/59/60 111/511/470
f 232/349/336 235/351/338 222/584/529
f 235/585/530 231/93/94 221/74/75
f 225/342/329 228/344/331 219/577/506
f 228/586/531 224/42/43 217/574/524
f 171/321/309 184/330/317 186/332/319
f 175/316/304 186/837/731 183/84/85
f 232/898/336 264/583/50 265/582/528
f 224/42/43 226/341/328 79/518/533
f 226/589/534 223/337/324 78/57/18
f 250/73/74 257/72/73 263/367/350
f 253/363/345 263/370/350 259/49/51
f 244/594/535 246/597/537 249/595/536
f 246/597/537 245/91/92 247/123/125
f 244/782/535 237/10/10 243/353/538
f 246/597/537 243/357/538 239/92/93
f 248/596/13 249/595/536 255/365/347
f 249/595/536 247/123/125 252/1/1
f 123/70/71 124/599/540 114/598/539
f 114/598/539 120/818/715 116/272/262
f 268/564/514 274/849/738 270/375/356
f 123/70/71 141/69/70 144/287/276
f 357/631/572 358/630/571 359/20/19
f 358/630/571 362/899/760 359/20/19
f 362/899/760 363/600/402 359/20/19
f 33/51/53 34/677/616 35/52/54
f 34/677/616 37/478/447 35/52/54
f 154/301/289 157/300/288 305/602/541
f 157/300/288 153/296/761 302/900/542
f 154/301/289 294/117/119 296/391/371
f 159/304/544 296/803/225 293/570/518
f 309/407/387 312/406/386 275/604/546
f 312/605/547 308/402/382 269/372/353
f 301/395/375 303/397/377 292/606/548
f 303/392/372 300/394/374 286/71/72
f 280/124/126 282/609/550 285/608/549
f 280/124/126 307/90/91 313/401/381
f 287/3/3 284/2/2 285/608/549
f 291/386/366 285/894/758 283/610/551
f 250/361/74 256/360/346 289/381/362
f 256/360/346 252/1/1 287/3/3
f 327/105/107 329/632/573 336/611/552
f 329/612/553 328/17/17 334/16/16
f 317/613/554 320/408/388 326/410/390
f 319/615/556 326/413/393 322/415/394
f 321/125/127 335/127/129 338/422/398
f 338/419/398 334/16/16 322/415/394
f 330/616/557 333/416/395 339/418/397
f 332/618/559 339/421/400 335/127/129
f 314/619/560 316/661/600 323/620/561
f 316/621/562 315/142/144 321/125/127
f 340/163/165 342/629/570 352/622/563
f 343/164/166 348/428/406 351/430/408
f 356/624/565 360/434/412 362/436/414
f 353/626/567 355/646/587 364/627/568
f 347/28/27 349/438/410 365/423/401
f 349/432/410 346/431/409 359/20/19
f 318/15/15 341/783/702 342/628/569
f 342/629/570 340/163/165 317/613/554
f 328/17/17 329/612/553 358/630/571
f 329/632/573 327/105/107 356/624/565
f 377/633/574 378/662/601 387/634/575
f 379/636/577 383/451/425 386/453/427
f 369/162/164 372/441/417 373/443/419
f 366/641/582 368/645/586 375/642/583
f 382/4/4 384/450/422 376/444/416
f 384/447/422 381/156/158 371/155/157
f 367/446/421 368/643/584 345/644/585
f 368/645/586 366/641/582 343/164/166
f 379/636/577 380/637/578 355/646/587
f 380/638/579 382/4/4 354/6/6
f 388/648/589 390/663/602 397/649/590
f 390/650/591 389/65/66 395/64/65
f 404/107/109 407/461/434 413/463/436
f 406/652/593 413/876/751 409/466/439
f 396/159/161 399/460/433 412/653/440
f 399/654/433 395/64/65 409/466/439
f 391/655/594 394/454/428 400/456/430
f 393/657/596 400/875/750 396/159/161
f 401/106/108 403/660/599 410/658/597
f 403/659/598 402/143/145 408/157/159
f 330/616/557 332/617/558 403/660/599
f 332/618/559 331/126/128 402/143/145
f 391/655/594 393/656/595 316/661/600
f 393/657/596 392/158/160 315/142/144
f 404/107/109 406/651/592 378/662/601
f 406/652/593 405/63/64 381/156/158
f 369/162/164 370/639/580 390/663/602
f 370/640/581 371/155/157 389/65/66
f 427/664/603 431/134/136 433/665/604
f 424/141/143 426/683/621 417/667/606
f 441/668/607 446/708/643 444/669/608
f 424/901/143 417/902/606 444/903/608
f 431/134/136 434/167/167 436/670/609
f 433/671/610 436/675/614 435/672/611
f 437/137/139 439/676/615 436/670/609
f 439/674/613 438/735/665 435/672/611
f 429/160/162 430/904/649 439/676/615
f 198/31/30 201/30/29 200/529/482
f 201/30/29 202/113/115 203/549/501
f 46/153/155 49/824/718 24/78/79
f 49/824/718 34/677/616 24/78/79
f 415/678/617 414/161/163 419/139/141
f 418/680/485 420/891/756 423/681/619
f 420/679/618 419/139/141 422/138/140
f 424/141/143 421/140/142 423/681/619
f 426/684/622 423/682/620 422/138/140
f 508/740/669 506/687/625 503/686/624
f 506/687/625 485/168/168 479/685/623
f 485/168/168 487/905/640 479/685/623
f 417/688/626 426/684/622 425/136/138
f 458/689/627 453/779/628 452/183/182
f 443/690/628 451/696/627 450/181/180
f 487/905/640 485/168/168 484/693/631
f 485/168/168 480/691/629 484/693/631
f 458/689/627 457/182/181 459/174/173
f 230/58/59 236/346/333 265/582/528
f 265/582/528 82/509/469 80/59/60
f 448/695/633 447/173/172 450/181/180
f 463/697/634 460/694/632 459/174/173
f 448/695/633 446/700/634 445/39/40
f 463/697/634 462/41/42 454/40/41
f 441/699/636 440/172/171 445/39/40
f 441/699/636 417/906/626 416/171/137
f 428/701/605 455/698/635 454/40/41
f 482/703/637 477/718/650 476/87/88
f 467/531/638 475/711/645 474/189/188
f 475/888/630 473/887/704 472/907/641
f 473/908/704 468/909/639 472/910/641
f 482/703/637 481/86/87 483/186/185
f 451/911/502 449/786/691 448/709/644
f 449/786/691 444/669/608 448/709/644
f 472/710/642 471/185/184 474/189/188
f 487/712/646 484/707/642 483/186/185
f 472/710/642 470/716/646 469/178/177
f 278/566/516 276/116/118 268/713/647
f 276/116/118 271/378/359 268/713/647
f 487/712/646 486/180/179 478/179/178
f 465/715/648 464/190/189 469/178/177
f 467/531/638 466/85/86 414/165/163
f 430/717/649 429/166/162 476/87/88
f 493/187/186 495/724/656 490/719/651
f 495/720/652 494/726/658 488/721/653
f 493/187/186 496/191/190 498/723/655
f 495/720/652 498/729/659 497/725/657
f 499/194/193 501/732/662 498/727/655
f 498/729/659 501/912/762 500/730/660
f 499/194/193 491/131/133 492/731/661
f 482/692/630 480/691/629 477/734/664
f 480/691/629 438/735/665 477/734/664
f 438/735/665 439/674/613 430/733/663
f 465/913/666 470/705/640 468/704/639
f 500/730/660 501/912/762 492/914/763
f 492/731/763 465/715/666 500/737/660
f 508/738/667 503/749/661 502/133/135
f 509/739/668 506/687/625 508/740/669
f 511/742/670 508/738/667 507/132/134
f 512/743/671 509/739/668 511/741/659
f 514/745/673 511/915/670 510/192/191
f 433/671/610 432/673/612 428/747/675
f 432/673/612 461/788/705 455/746/674
f 461/788/705 463/896/643 455/746/674
f 514/745/673 513/188/187 504/148/150
f 491/131/133 464/190/189 465/715/648
f 503/749/661 479/714/648 478/179/178
f 520/193/192 522/754/681 516/750/677
f 535/916/764 533/169/169 530/752/679
f 533/169/169 512/743/671 530/752/679
f 512/743/671 514/744/672 505/751/678
f 520/193/192 523/202/198 525/753/680
f 525/755/682 524/760/686 521/756/683
f 526/198/196 528/762/688 525/758/680
f 528/759/685 527/763/689 524/760/686
f 526/198/196 517/147/149 519/761/687
f 528/759/685 519/780/699 518/196/194
f 516/917/690 522/757/684 521/756/683
f 449/786/691 451/911/502 443/918/765
f 443/918/765 516/917/690 449/786/691
f 541/767/681 540/201/199 531/176/175
f 536/769/692 538/773/694 541/770/684
f 538/772/680 537/789/197 540/201/199
f 533/169/169 535/916/764 538/773/694
f 538/774/680 535/777/697 534/197/195
f 458/550/502 456/170/170 453/776/696
f 456/170/170 539/771/693 453/776/696
f 539/771/693 541/770/684 532/775/695
f 535/777/697 530/781/700 529/778/698
f 515/177/176 516/750/677 443/690/628
f 532/768/677 531/176/175 452/183/182
f 488/721/653 518/196/194 519/780/699
f 490/719/651 519/761/687 517/147/149
f 505/748/676 504/148/150 529/778/698
f 3/206/201 10/214/209 17/221/216
f 10/214/209 85/256/250 17/221/216
f 85/256/250 164/312/300 115/269/259
