# Blender 4.2.8 LTS
# www.blender.org
mtllib tobogan nuevo2_UV.mtl
o Cube:017
v 2.580410 2.579096 0.784831
v 2.580410 1.795445 0.319146
v 2.580410 0.906243 0.118416
v 2.580410 -0.001466 0.202289
v 2.580410 -0.838832 0.562554
v 2.580410 -1.523886 1.163947
v 2.580410 3.180489 1.469883
v 2.580410 -1.989569 1.947598
v 2.580410 3.540755 2.307249
v 2.580410 -2.190300 2.836800
v 2.580410 3.624627 3.214959
v 2.580410 -2.106426 3.744511
v 2.580410 3.423897 4.104161
v 2.580410 -1.746161 4.581876
v 2.580410 2.958212 4.887813
v 2.580410 2.273159 5.489206
v 2.580410 1.435794 5.849471
v 2.580410 0.528085 5.933343
v 2.580410 -0.361116 5.732614
v 2.580410 -1.144770 5.266929
v 11.197035 2.320510 1.125881
v 11.043808 1.674029 0.731065
v 10.869938 0.940473 0.560883
v 10.692445 0.191649 0.631992
v 10.528702 -0.499143 0.937431
v 10.394753 -1.064285 1.447302
v 11.314631 2.816635 1.706680
v 10.303693 -1.448456 2.111694
v 11.385078 3.113840 2.416612
v 10.264449 -1.614051 2.865575
v 11.401477 3.183031 3.186184
v 10.280848 -1.544859 3.635148
v 11.362223 3.017437 3.940065
v 10.351285 -1.247654 4.345079
v 11.271163 2.633267 4.604458
v 11.137214 2.068124 5.114329
v 10.973483 1.377331 5.419768
v 10.795988 0.628508 5.490876
v 10.622118 -0.105048 5.320695
v 10.468881 -0.751530 4.925879
v 28.475519 -8.464120 1.316791
v 28.307570 -9.037671 0.961646
v 28.116989 -9.688474 0.808563
v 27.922461 -10.352820 0.872527
v 27.742990 -10.965690 1.147276
v 27.596170 -11.467070 1.605916
v 28.604410 -8.023963 1.839232
v 27.496370 -11.807910 2.203551
v 28.681620 -7.760285 2.477831
v 27.453350 -11.954820 2.881683
v 28.699600 -7.698900 3.170078
v 27.471331 -11.893440 3.573930
v 28.656580 -7.845814 3.848209
v 27.548540 -11.629760 4.212529
v 28.556770 -8.186646 4.445846
v 28.409950 -8.688033 4.904486
v 28.230490 -9.300900 5.179235
v 28.035950 -9.965247 5.243198
v 27.845381 -10.616050 5.090116
v 27.677429 -11.189600 4.734971
v 38.447319 -8.406896 1.316791
v 38.447319 -9.004532 0.961646
v 38.447319 -9.682663 0.808563
v 38.447319 -10.374910 0.872527
v 38.447319 -11.013510 1.147276
v 38.447319 -11.535950 1.605916
v 38.447319 -7.948255 1.839232
v 38.447319 -11.891090 2.203551
v 38.447319 -7.673506 2.477831
v 38.447319 -12.044180 2.881683
v 38.447319 -7.609541 3.170078
v 38.447319 -11.980210 3.573930
v 38.447319 -7.762626 3.848209
v 38.447319 -11.705470 4.212529
v 38.447319 -8.117770 4.445846
v 38.447319 -8.640212 4.904486
v 38.447319 -9.278812 5.179235
v 38.447319 -9.971058 5.243198
v 38.447319 -10.649190 5.090116
v 38.447319 -11.246820 4.734971
v 12.528554 -1.841102 0.852357
v 12.316297 -2.407049 1.382998
v 13.773949 1.479397 1.652942
v 13.587605 0.982566 1.048483
v 12.135790 -2.888306 3.659966
v 12.247427 -2.590678 4.398818
v 13.705069 1.295767 4.668762
v 13.492810 0.729820 5.199402
v 13.849367 1.680485 3.977304
v 13.911555 1.846315 3.192714
v 13.233351 0.038044 5.517285
v 12.109809 -2.957597 2.859046
v 12.952102 -0.711846 5.591290
v 13.344788 0.335164 0.637586
v 13.885575 1.777025 2.391793
v 12.676578 -1.446447 5.414174
v 13.069263 -0.399436 0.460471
v 12.171997 -2.791767 2.074455
v 12.433759 -2.093848 5.003276
v 12.788013 -1.149326 0.534475
v 26.175159 -10.576390 1.600243
v 26.931141 -7.527215 1.309962
v 26.134211 -10.741570 4.217271
v 26.874769 -7.754573 4.911991
v 27.123779 -6.750216 3.170654
v 26.720490 -8.376873 5.187838
v 26.553240 -9.051444 5.252057
v 26.786751 -8.109593 0.953399
v 27.108330 -6.812549 2.475641
v 26.389400 -9.712264 5.098363
v 26.622919 -8.770411 0.799704
v 26.245010 -10.294640 4.741799
v 26.455669 -9.444985 0.863924
v 26.301380 -10.067280 1.139770
v 27.041950 -7.080283 1.834490
v 26.067829 -11.009310 3.576119
v 27.000990 -7.245471 4.451519
v 27.086800 -6.899394 3.851496
v 26.052370 -11.071640 2.881107
v 26.089359 -10.922460 2.200266
v 29.786461 -9.025646 0.961646
v 29.657351 -9.686365 0.808563
v 29.236900 -11.838090 2.203551
v 29.207750 -11.987250 2.881683
v 29.473339 -10.628080 5.090116
v 29.359560 -11.210370 4.734971
v 29.525560 -10.360840 0.872527
v 30.039860 -7.728795 2.477831
v 29.987560 -7.996490 1.839232
v 29.272240 -11.657230 4.212529
v 29.403980 -10.983040 1.147276
v 29.304510 -11.492070 1.605916
v 29.955280 -8.161653 4.445846
v 30.022900 -7.815627 3.848209
v 29.900240 -8.443355 1.316791
v 29.219931 -11.924920 3.573930
v 29.855820 -8.670679 4.904486
v 30.052040 -7.666472 3.170078
v 29.734240 -9.292884 5.179235
v 29.602449 -9.967356 5.243198
vn -0.0682 0.7745 0.6289
vn -0.0725 0.9293 0.3622
vn -0.0724 0.9259 0.3708
vn 0.2028 0.7212 0.6624
vn -0.0507 -0.3684 0.9283
vn -0.0532 -0.0593 0.9968
vn -0.0329 -0.0905 0.9953
vn -0.1115 -0.3763 0.9197
vn -0.0496 -0.7698 -0.6364
vn -0.0498 -0.9286 -0.3677
vn -0.2488 -0.8975 -0.3642
vn -0.2103 -0.7481 -0.6294
vn -0.0496 -0.8458 0.5313
vn -0.0497 -0.6395 0.7672
vn -0.1785 -0.6269 0.7584
vn -0.2287 -0.8193 0.5257
vn -0.0574 0.2556 0.9651
vn 0.0511 0.2055 0.9773
vn -0.0737 0.9677 -0.2411
vn -0.0702 0.8487 -0.5243
vn 0.2262 0.7996 -0.5563
vn -0.0736 0.9662 -0.2470
vn -0.1526 -0.5291 -0.8347
vn -0.0499 -0.5339 -0.8441
vn -0.0628 0.5430 0.8374
vn 0.1327 0.4852 0.8643
vn -0.0500 -0.9967 -0.0644
vn -0.2654 -0.9620 -0.0639
vn -0.0801 -0.2611 -0.9620
vn -0.0515 -0.2434 -0.9685
vn -0.0745 0.9952 0.0634
vn -0.0745 0.9951 0.0650
vn 0.0016 0.0321 -0.9995
vn -0.0548 0.0721 -0.9959
vn -0.0499 -0.9683 0.2449
vn -0.2585 -0.9350 0.2427
vn 0.0856 0.3247 -0.9419
vn -0.0595 0.3795 -0.9233
vn 0.1636 0.5897 -0.7909
vn -0.0651 0.6469 -0.7598
vn 0.2760 0.4703 0.8382
vn 0.4003 0.6684 0.6269
vn 0.2205 0.7479 0.6261
vn 0.1540 0.5309 0.8333
vn -0.4558 -0.7225 0.5198
vn -0.3518 -0.5509 0.7568
vn -0.1649 -0.5995 0.7832
vn -0.2174 -0.8082 0.5472
vn 0.5030 0.8306 -0.2390
vn 0.4399 0.7310 -0.5216
vn 0.2422 0.8177 -0.5222
vn 0.2772 0.9302 -0.2405
vn -0.4178 -0.6597 -0.6247
vn -0.1981 -0.7307 -0.6533
vn -0.1377 -0.4946 -0.8581
vn -0.2976 -0.4618 -0.8356
vn -0.4968 -0.7904 -0.3584
vn -0.5302 -0.8456 -0.0626
vn -0.5150 -0.8548 -0.0640
vn -0.2383 -0.8937 -0.3802
vn -0.0618 -0.2115 -0.9754
vn -0.1459 -0.2130 -0.9661
vn 0.5175 0.8534 0.0628
vn 0.5320 0.8446 0.0604
vn 0.0230 0.0892 -0.9958
vn 0.0223 0.0611 -0.9979
vn -0.2116 -0.3206 0.9233
vn -0.0947 -0.3324 0.9384
vn -0.5163 -0.8226 0.2383
vn -0.2482 -0.9349 0.2537
vn 0.1079 0.3780 -0.9195
vn 0.1879 0.3288 -0.9255
vn -0.0481 -0.0533 0.9974
vn -0.0126 -0.0353 0.9993
vn 0.4826 0.7986 0.3596
vn 0.2658 0.8938 0.3612
vn 0.1837 0.6282 -0.7561
vn 0.3319 0.5596 -0.7594
vn 0.1210 0.2210 0.9677
vn 0.0734 0.2618 0.9623
vn 0.0024 -0.3779 0.9258
vn 0.0004 -0.0667 0.9978
vn 0.0002 -0.0658 0.9978
vn 0.0010 -0.3743 0.9273
vn 0.0106 0.9315 0.3635
vn 0.0121 0.9979 0.0636
vn 0.0060 0.9979 0.0641
vn 0.0052 0.9305 0.3661
vn 0.0020 0.3770 -0.9262
vn 0.0010 0.3741 -0.9274
vn 0.0026 0.6438 -0.7652
vn 0.0053 0.6470 -0.7624
vn 0.0011 0.2516 0.9678
vn 0.0005 0.2496 0.9683
vn 0.0139 -0.9705 0.2408
vn 0.0107 -0.8514 0.5245
vn 0.0048 -0.8487 0.5289
vn 0.0062 -0.9699 0.2435
vn 0.0089 0.8504 -0.5261
vn 0.0044 0.8484 -0.5293
vn 0.0038 0.5422 0.8402
vn 0.0019 0.5389 0.8424
vn 0.0075 0.7757 0.6311
vn 0.0037 0.7731 0.6343
vn 0.0089 -0.7769 -0.6296
vn 0.0129 -0.9321 -0.3621
vn 0.0057 -0.9307 -0.3658
vn 0.0040 -0.7734 -0.6340
vn 0.0063 -0.6483 0.7613
vn 0.0028 -0.6441 0.7650
vn 0.0115 0.9702 -0.2419
vn 0.0057 0.9698 -0.2438
vn 0.0020 -0.5391 -0.8422
vn 0.0045 -0.5434 -0.8394
vn 0.0148 -0.9979 -0.0633
vn 0.0066 -0.9979 -0.0640
vn 0.0005 -0.2497 -0.9683
vn 0.0013 -0.2524 -0.9676
vn 0.0002 0.0657 -0.9978
vn 0.0004 0.0661 -0.9978
vn -0.4736 -0.8034 -0.3610
vn -0.3951 -0.6703 -0.6282
vn 0.5478 0.7535 0.3636
vn 0.5090 0.7830 0.3575
vn 0.4258 0.6553 0.6239
vn 0.3003 0.4602 0.8355
vn 0.1440 0.2133 0.9663
vn 0.3567 0.5483 -0.7564
vn 0.4657 0.7168 -0.5189
vn -0.4328 -0.7342 0.5231
vn -0.4929 -0.8363 0.2401
vn -0.0260 -0.0599 0.9979
vn 0.2113 0.3202 -0.9235
vn 0.5867 0.8073 0.0634
vn 0.5442 0.8367 0.0624
vn -0.1897 -0.3277 0.9255
vn 0.0446 0.0542 -0.9975
vn -0.5067 -0.8598 -0.0631
vn -0.3295 -0.5600 0.7601
vn -0.1240 -0.2197 -0.9677
vn 0.5704 0.7850 -0.2416
vn 0.5295 0.8144 -0.2376
vn -0.2755 -0.4700 -0.8386
vn 0.0232 -0.9977 -0.0643
vn 0.0180 0.9979 0.0614
vt 0.022069 0.585111
vt 0.013017 0.569757
vt 0.175697 0.469836
vt 0.185904 0.484512
vt 0.058885 0.648087
vt 0.049434 0.632170
vt 0.214997 0.527270
vt 0.224273 0.541026
vt 0.123017 0.740714
vt 0.111446 0.725955
vt 0.270987 0.608665
vt 0.280717 0.621939
vt 0.078752 0.679824
vt 0.068638 0.664001
vt 0.233473 0.554660
vt 0.242685 0.568239
vt 0.040203 0.616332
vt 0.205551 0.513298
vt 0.205399 0.838269
vt 0.193957 0.824694
vt 0.342117 0.703397
vt 0.352868 0.717827
vt 0.290611 0.635064
vt 0.134756 0.755322
vt 0.031108 0.600635
vt 0.195864 0.499043
vt 0.100172 0.710864
vt 0.261410 0.595272
vt 0.300564 0.648249
vt 0.146662 0.769624
vt 0.216785 0.851931
vt 0.363343 0.732314
vt 0.310629 0.661609
vt 0.158630 0.783658
vt 0.089263 0.695469
vt 0.251983 0.581784
vt 0.320864 0.675251
vt 0.170563 0.797479
vt 0.003906 0.554527
vt 0.165317 0.455265
vt 0.331295 0.689243
vt 0.182386 0.811151
vt 0.574666 0.220395
vt 0.566113 0.204835
vt 0.592308 0.178553
vt 0.602034 0.192549
vt 0.614063 0.300395
vt 0.605518 0.284411
vt 0.643899 0.251099
vt 0.655304 0.266982
vt 0.742290 0.450550
vt 0.731277 0.436435
vt 0.764324 0.419960
vt 0.774206 0.433876
vt 0.657085 0.359543
vt 0.702336 0.332328
vt 0.713287 0.348249
vt 0.669588 0.372577
vt 0.645110 0.345753
vt 0.633857 0.331236
vt 0.678776 0.299842
vt 0.690591 0.316287
vt 0.723923 0.363536
vt 0.682306 0.385140
vt 0.752477 0.465262
vt 0.784277 0.448125
vt 0.734252 0.378225
vt 0.695011 0.397513
vt 0.597646 0.268294
vt 0.632851 0.235770
vt 0.623487 0.316066
vt 0.666972 0.283306
vt 0.744371 0.392403
vt 0.707504 0.410022
vt 0.590129 0.252190
vt 0.622209 0.220982
vt 0.556794 0.189614
vt 0.546681 0.174885
vt 0.572697 0.150021
vt 0.582609 0.164442
vt 0.754415 0.406204
vt 0.719621 0.422949
vt 0.582586 0.236201
vt 0.611960 0.206629
vt 0.668420 0.218335
vt 0.657678 0.204265
vt 0.842671 0.077775
vt 0.852031 0.092260
vt 0.616060 0.146953
vt 0.606175 0.132163
vt 0.794907 0.003906
vt 0.804700 0.018721
vt 0.771506 0.364913
vt 0.952572 0.229853
vt 0.963496 0.243577
vt 0.781632 0.379454
vt 0.647050 0.190179
vt 0.833300 0.063136
vt 0.700786 0.261406
vt 0.690048 0.246850
vt 0.870884 0.120689
vt 0.880450 0.134634
vt 0.792086 0.393885
vt 0.974386 0.257368
vt 0.636560 0.175968
vt 0.823873 0.048382
vt 0.626219 0.161564
vt 0.814349 0.033561
vt 0.731894 0.305919
vt 0.721746 0.291009
vt 0.900008 0.162083
vt 0.910047 0.175651
vt 0.679233 0.232503
vt 0.861422 0.106567
vt 0.802809 0.408186
vt 0.985267 0.271288
vt 0.920419 0.189158
vt 0.741901 0.320779
vt 0.711371 0.276147
vt 0.890149 0.148422
vt 0.930985 0.202672
vt 0.751753 0.335582
vt 0.813796 0.422249
vt 0.996094 0.285338
vt 0.941717 0.216227
vt 0.761578 0.350294
vt 0.317240 0.577929
vt 0.328109 0.592196
vt 0.219599 0.427795
vt 0.229803 0.442857
vt 0.239473 0.458045
vt 0.248796 0.473271
vt 0.384268 0.661084
vt 0.395229 0.675443
vt 0.286259 0.533763
vt 0.296273 0.548668
vt 0.257968 0.488480
vt 0.373000 0.647218
vt 0.208698 0.412980
vt 0.267176 0.503643
vt 0.361664 0.633554
vt 0.306612 0.563408
vt 0.276574 0.518743
vt 0.350357 0.619925
vt 0.405818 0.690279
vt 0.415905 0.705664
vt 0.339153 0.606176
s 1
f 6/1/1 8/2/2 28/3/3 26/4/4
f 2/5/5 3/6/6 23/7/7 22/8/8
f 15/9/9 13/10/10 33/11/11 35/12/12
f 7/13/13 1/14/14 21/15/15 27/16/16
f 3/6/6 4/17/17 24/18/18 23/7/7
f 12/19/19 14/20/20 34/21/21 32/22/22
f 15/9/9 35/12/12 36/23/23 16/24/24
f 4/17/17 5/25/25 25/26/26 24/18/18
f 13/10/10 11/27/27 31/28/28 33/11/11
f 16/24/24 36/23/23 37/29/29 17/30/30
f 5/25/25 6/1/1 26/4/4 25/26/26
f 10/31/31 12/19/19 32/22/22 30/32/32
f 17/30/30 37/29/29 38/33/33 18/34/34
f 11/27/27 9/35/35 29/36/36 31/28/28
f 18/34/34 38/33/33 39/37/37 19/38/38
f 8/2/2 10/39/31 30/40/32 28/3/3
f 19/38/38 39/37/37 40/41/39 20/42/40
f 9/35/35 7/13/13 27/16/16 29/36/36
f 1/14/14 2/5/5 22/8/8 21/15/15
f 14/20/20 20/42/40 40/41/39 34/21/21
f 114/43/41 101/44/42 46/45/43 45/46/44
f 115/47/45 102/48/46 41/49/47 47/50/48
f 116/51/49 103/52/50 54/53/51 52/54/52
f 117/55/53 55/56/54 56/57/55 104/58/56
f 118/59/57 105/60/58 51/61/59 53/62/60
f 104/58/56 56/57/55 57/63/61 106/64/62
f 119/65/63 116/51/49 52/54/52 50/66/64
f 106/64/62 57/63/61 58/67/65 107/68/66
f 102/48/46 108/69/67 42/70/68 41/49/47
f 105/60/58 109/71/69 49/72/70 51/61/59
f 107/68/66 58/67/65 59/73/71 110/74/72
f 108/69/67 111/75/73 43/76/74 42/70/68
f 120/77/75 119/78/63 50/79/64 48/80/76
f 110/74/72 59/73/71 60/81/77 112/82/78
f 111/75/73 113/83/79 44/84/80 43/76/74
f 109/71/69 115/47/45 47/50/48 49/72/70
f 103/52/50 112/82/78 60/81/77 54/53/51
f 113/83/79 114/43/41 45/46/44 44/84/80
f 101/44/42 120/77/75 48/80/76 46/45/43
f 117/55/53 118/59/57 53/62/60 55/56/54
f 121/85/81 122/86/82 63/87/83 62/88/84
f 123/89/85 124/90/86 70/91/87 68/92/88
f 125/93/89 79/94/90 80/95/91 126/96/92
f 122/86/82 127/97/93 64/98/94 63/87/83
f 128/99/95 129/100/96 67/101/97 69/102/98
f 130/103/99 126/96/92 80/95/91 74/104/100
f 127/97/93 131/105/101 65/106/102 64/98/94
f 132/107/103 123/89/85 68/92/88 66/108/104
f 133/109/105 134/110/106 73/111/107 75/112/108
f 131/105/101 132/107/103 66/108/104 65/106/102
f 129/100/96 135/113/109 61/114/110 67/101/97
f 136/115/111 130/103/99 74/104/100 72/116/112
f 133/109/105 75/112/108 76/117/113 137/118/114
f 134/110/106 138/119/115 71/120/116 73/111/107
f 137/118/114 76/117/113 77/121/117 139/122/118
f 124/123/86 136/115/111 72/116/112 70/124/87
f 139/122/118 77/121/117 78/125/119 140/126/120
f 135/113/109 121/85/81 62/88/84 61/114/110
f 138/119/115 128/99/95 69/102/98 71/120/116
f 140/126/120 78/125/119 79/94/90 125/93/89
f 35/12/12 33/11/11 89/127/121 87/128/122
f 26/4/4 28/3/123 98/129/124 82/130/125
f 24/18/18 25/26/26 81/131/126 100/132/127
f 34/21/21 40/41/39 99/133/128 86/134/129
f 29/36/36 27/16/16 83/135/130 95/136/131
f 23/7/7 24/18/18 100/132/127 97/137/132
f 39/37/37 96/138/133 99/133/128 40/41/39
f 28/3/123 30/40/134 92/139/135 98/129/124
f 22/8/8 23/7/7 97/137/132 94/140/136
f 38/33/33 93/141/137 96/138/133 39/37/37
f 31/28/28 29/36/36 95/136/131 90/142/138
f 21/15/15 22/8/8 94/140/136 84/143/139
f 37/29/29 91/144/140 93/141/137 38/33/33
f 30/32/134 32/22/141 85/145/142 92/146/135
f 36/23/23 88/147/143 91/144/140 37/29/29
f 33/11/11 31/28/28 90/142/138 89/127/121
f 35/12/12 87/128/122 88/147/143 36/23/23
f 32/22/141 34/21/21 86/134/129 85/145/142
f 27/16/16 21/15/15 84/143/139 83/135/130
f 25/26/26 26/4/4 82/130/125 81/131/126
f 87/128/122 89/127/121 118/59/57 117/55/53
f 82/130/125 98/129/124 120/77/75 101/44/42
f 100/132/127 81/131/126 114/43/41 113/83/79
f 86/134/129 99/133/128 112/82/78 103/52/50
f 95/136/131 83/135/130 115/47/45 109/71/69
f 97/137/132 100/132/127 113/83/79 111/75/73
f 96/138/133 110/74/72 112/82/78 99/133/128
f 98/129/124 92/139/135 119/78/63 120/77/75
f 94/140/136 97/137/132 111/75/73 108/69/67
f 93/141/137 107/68/66 110/74/72 96/138/133
f 90/142/138 95/136/131 109/71/69 105/60/58
f 84/143/139 94/140/136 108/69/67 102/48/46
f 91/144/140 106/64/62 107/68/66 93/141/137
f 92/146/135 85/145/142 116/51/49 119/65/63
f 88/147/143 104/58/56 106/64/62 91/144/140
f 89/127/121 90/142/138 105/60/58 118/59/57
f 87/128/122 117/55/53 104/58/56 88/147/143
f 85/145/142 86/134/129 103/52/50 116/51/49
f 83/135/130 84/143/139 102/48/46 115/47/45
f 81/131/126 82/130/125 101/44/42 114/43/41
f 58/67/65 140/126/120 125/93/89 59/73/71
f 51/61/144 49/72/70 128/99/95 138/119/115
f 41/49/47 42/70/68 121/85/81 135/113/109
f 57/63/61 139/122/118 140/126/120 58/67/65
f 50/66/145 52/54/52 136/115/111 124/123/86
f 56/57/55 137/118/114 139/122/118 57/63/61
f 53/62/60 51/61/144 138/119/115 134/110/106
f 55/56/54 133/109/105 137/118/114 56/57/55
f 52/54/52 54/53/51 130/103/99 136/115/111
f 47/50/48 41/49/47 135/113/109 129/100/96
f 45/46/44 46/45/43 132/107/103 131/105/101
f 55/56/54 53/62/60 134/110/106 133/109/105
f 46/45/43 48/80/76 123/89/85 132/107/103
f 44/84/80 45/46/44 131/105/101 127/97/93
f 54/53/51 60/81/77 126/96/92 130/103/99
f 49/72/70 47/50/48 129/100/96 128/99/95
f 43/76/74 44/84/80 127/97/93 122/86/82
f 59/73/71 125/93/89 126/96/92 60/81/77
f 48/80/76 50/79/145 124/90/86 123/89/85
f 42/70/68 43/76/74 122/86/82 121/85/81
