#File written by RizomUV 2023.0.70.ge90189e8. Compilation :Sep 22 2023,12:42:11
mtllib tubo led .mtl
#begin vertices
v 9.854327 3.688162 34.67275
v 9.854327 8.962095 34.67275
v 9.854327 3.688162 34.47499
v 9.854327 8.962095 34.47499
v 10.16966 3.688162 34.67275
v 10.16966 8.962095 34.67275
v 10.16966 3.688162 34.47499
v 10.16966 8.962095 34.47499
v 9.854327 3.82205 34.67275
v 9.854327 8.828209 34.67275
v 10.16966 8.828209 34.67275
v 10.16966 3.82205 34.67275
v 9.854327 3.82205 34.29446
v 9.898207 3.778171 34.25058
v 9.867179 3.809199 34.26343
v 9.898207 3.732041 34.25058
v 9.854327 3.688162 34.29446
v 9.867178 3.701013 34.26343
v 10.12578 3.732041 34.25058
v 10.16966 3.688162 34.29446
v 10.15681 3.701013 34.26343
v 9.898207 8.918216 34.25058
v 9.854327 8.962095 34.29446
v 9.867179 8.949244 34.26343
v 10.16966 8.962095 34.29446
v 10.12578 8.918216 34.25058
v 10.15681 8.949244 34.26343
v 10.12578 3.778171 34.25058
v 10.16966 3.82205 34.29446
v 10.15681 3.809199 34.26343
v 9.898207 8.872088 34.25058
v 9.854327 8.828209 34.29446
v 9.867179 8.841061 34.26343
v 10.16966 8.828209 34.29446
v 10.12578 8.872088 34.25058
v 10.15681 8.841061 34.26343
v 9.913197 8.828209 34.47499
v 9.854327 8.828209 34.53386
v 9.854327 8.887078 34.47499
v 9.854327 8.828209 34.41612
v 9.871571 8.828209 34.49223
v 9.854327 3.82205 34.53386
v 9.913197 3.82205 34.47499
v 9.854327 3.82205 34.41612
v 9.854327 3.76318 34.47499
v 9.871571 3.82205 34.49223
v 10.16966 8.828209 34.53386
v 10.11079 8.828209 34.47499
v 10.16966 8.828209 34.41612
v 10.16966 8.887078 34.47499
v 10.15242 8.828209 34.49223
v 10.11079 3.82205 34.47499
v 10.16966 3.82205 34.53386
v 10.16966 3.76318 34.47499
v 10.16966 3.82205 34.41612
v 10.15242 3.82205 34.49223
v 9.854327 8.962095 34.53703
v 10.16966 8.962095 34.53703
v 9.854327 3.688162 34.53641
v 10.16966 3.688162 34.53641
v 10.00742 8.913534 34.37197
v 10.00742 3.801744 34.37197
v 10.06272 8.913534 34.38333
v 10.06272 3.801744 34.38333
v 10.1096 8.913534 34.41566
v 10.1096 3.801744 34.41566
v 10.14093 8.913534 34.46405
v 10.14093 3.801744 34.46405
v 10.15193 8.913534 34.52114
v 10.15193 3.801744 34.52114
v 9.873906 8.913534 34.57822
v 9.873906 3.801744 34.57822
v 9.862906 8.913534 34.52114
v 9.862906 3.801744 34.52114
v 9.873906 8.913534 34.46405
v 9.873906 3.801744 34.46405
v 9.905232 8.913534 34.41566
v 9.905232 3.801744 34.41566
v 9.952115 8.913534 34.38333
v 9.952115 3.801744 34.38333
#end vertices

#begin 116 textures vertices 
vt 0.7985602 0.6408088 0
vt 0.9793565 0.6452186 0
vt 0.9717317 0.2296013 0
vt 0.9734988 0.1255022 0
vt 0.7925505 0.8170824 0
vt 0.9763153 0.8212956 0
vt 0.1177641 0.3948786 0
vt 0.7971474 0.1284518 0
vt 0.5735586 0.00390625 0
vt 0.9806478 0.5704595 0
vt 0.6610982 0.9960938 0
vt 0.7899988 0.8919262 0
vt 0.1517552 0.1556706 0
vt 0.1192293 0.1651702 0
vt 0.1360384 0.1589195 0
vt 0.1029602 0.1533415 0
vt 0.9739408 0.3305508 0
vt 0.09677001 0.127445 0
vt 0.06952059 0.2745647 0
vt 0.03469318 0.3055921 0
vt 0.05034187 0.2929226 0
vt 0.4576663 0.7089037 0
vt 0.9718101 0.02454259 0
vt 0.4670822 0.6849463 0
vt 0.7954587 0.02749227 0
vt 0.4781848 0.8338518 0
vt 0.4939969 0.8539544 0
vt 0.09053775 0.2734882 0
vt 0.1148852 0.2989082 0
vt 0.1025779 0.287875 0
vt 0.4394989 0.7180944 0
vt 0.4087452 0.704133 0
vt 0.4235272 0.7087873 0
vt 0.4347892 0.8538014 0
vt 0.4593069 0.8306815 0
vt 0.4471659 0.8446848 0
vt 0.3252087 0.73198 0
vt 0.9030929 0.5691199 0
vt 0.3428184 0.6578587 0
vt 0.3539012 0.6981094 0
vt 0.7519395 0.9759496 0
vt 0.2655699 0.1470343 0
vt 0.2347361 0.1920183 0
vt 0.2112986 0.1540007 0
vt 0.2256802 0.1160494 0
vt 0.2577855 0.1752203 0
vt 0.687849 0.9901617 0
vt 0.3439369 0.8523676 0
vt 0.3805075 0.8771759 0
vt 0.3813267 0.9181264 0
vt 0.3289827 0.8762481 0
vt 0.1984977 0.3105694 0
vt 0.4740395 0.02597473 0
vt 0.1513515 0.3699802 0
vt 0.1589042 0.3299549 0
vt 0.4827173 0.02405042 0
vt 0.9035739 0.6439097 0
vt 0.9005327 0.8199867 0
vt 0.8747774 0.6434073 0
vt 0.8687677 0.8196809 0
vt 0.04648849 0.9688592 0
vt 0.3855106 0.01910633 0
vt 0.03599932 0.965115 0
vt 0.3750214 0.01536214 0
vt 0.02541788 0.9613378 0
vt 0.36444 0.011585 0
vt 0.01470723 0.9575146 0
vt 0.3537293 0.007761749 0
vt 0.00390625 0.9536591 0
vt 0.3429283 0.00390625 0
vt 0.09987181 0.9879148 0
vt 0.4388939 0.03816195 0
vt 0.08907087 0.9840593 0
vt 0.428093 0.03430646 0
vt 0.07826992 0.9802038 0
vt 0.417292 0.03045097 0
vt 0.06755927 0.9763805 0
vt 0.4065814 0.02662772 0
vt 0.05697783 0.9726034 0
vt 0.3959999 0.02285059 0
vt 0.3323774 0.9053746 0
vt 0.975024 0.8960547 0
vt 0.6965268 0.9882374 0
vt 0.7052046 0.9863131 0
vt 0.7432618 0.9778739 0
vt 0.3042452 0.7127657 0
vt 0.7606174 0.9740253 0
vt 0.7873682 0.9680932 0
vt 0.3851378 0.9702749 0
vt 0.9740791 0.1601991 0
vt 0.8974691 0.8947152 0
vt 0.2997549 0.6839169 0
vt 0.491395 0.02212613 0
vt 0.4472887 0.03190676 0
vt 0.8676404 0.8945732 0
vt 0.2094191 0.3367617 0
vt 0.5294522 0.0136869 0
vt 0.5381299 0.0117626 0
vt 0.5468078 0.009838274 0
vt 0.8011118 0.565965 0
vt 0.2454378 0.06653523 0
vt 0.7946463 0.1991167 0
vt 0.2013789 0.3647378 0
vt 0.8787534 0.5686121 0
vt 0.7953978 0.2334601 0
vt 0.797607 0.3344096 0
vt 0.9709801 0.1952579 0
vt 0.2102078 0.07712223 0
vt 0.1421726 0.4224186 0
vt 0.09117131 0.1084495 0
vt 0.4743732 0.6663994 0
vt 0.3649751 0.6184083 0
vt 0.5075334 0.8696048 0
vt 0.329551 0.6054577 0
vt 0.4138354 0.9497883 0
vt 0.7977277 0.1631488 0
#end 116 textures vertices 

#begin 27 normals 
vn -0 -1 -0
vn 1 -0 -0
vn -0 1 -0
vn -1 -0 -0
vn -0 -0 -1
vn -0.3826 -0 -0.9239
vn -0.9239 -0 -0.3826
vn -0 -0.9239 -0.3826
vn -0 -0.3826 -0.9239
vn -0 0.9239 -0.3826
vn -0 0.3826 -0.9239
vn 0.9239 -0 -0.3826
vn 0.3826 -0 -0.9239
vn -0.3827 -0 -0.9239
vn -0.9239 -0 -0.3827
vn 0.9239 -0 -0.3827
vn 0.3827 -0 -0.9239
vn -0 -0 -1
vn 0.3931 -0 -0.9195
vn 0.7182 -0 -0.6958
vn 0.9281 -0 -0.3724
vn 0.9819 -0 -0.1892
vn -0.9819 -0 0.1892
vn -1 -0 -0
vn -0.9281 -0 -0.3724
vn -0.7182 -0 -0.6958
vn -0.3931 -0 -0.9195
#end 27 normals 

#begin 68 faces
o Cube:075
s 0
f 49/49/1 48/48/1 37/37/1 40/40/1 
f 53/53/2 47/47/2 11/11/2 12/94/2 
f 59/59/1 60/60/1 5/5/1 1/1/1 
f 58/58/3 57/57/3 2/2/3 6/6/3 
f 55/55/2 54/54/2 7/7/2 20/20/2 
f 59/59/4 1/1/4 9/100/4 42/104/4 
f 4/4/3 8/8/3 25/25/3 23/23/3 
f 38/92/4 57/114/4 4/112/4 39/39/4 
f 44/44/3 43/43/3 52/52/3 55/55/3 
f 43/97/5 37/85/5 48/84/5 52/93/5 
f 9/9/4 10/88/4 38/87/4 42/99/4 
f 8/115/2 50/50/2 49/49/2 34/34/2 
f 7/105/1 3/3/1 17/17/1 20/106/1 
f 17/110/4 44/44/4 13/13/4 
f 31/31/5 22/22/5 26/26/5 35/35/5 
f 47/81/2 50/50/2 8/115/2 58/89/2 
f 16/16/5 14/14/5 28/28/5 19/19/5 
f 14/14/6 16/16/6 18/18/6 15/15/6 
f 15/15/7 18/18/7 17/110/7 13/13/7 
f 20/20/8 17/110/8 18/18/8 21/21/8 
f 21/21/9 18/18/9 16/16/9 19/19/9 
f 23/111/10 25/113/10 27/27/10 24/24/10 
f 24/24/11 27/27/11 26/26/11 22/22/11 
f 29/29/12 20/20/12 21/21/12 30/30/12 
f 30/30/13 21/21/13 19/19/13 28/28/13 
f 22/22/6 31/31/6 33/33/6 24/24/6 
f 24/24/7 33/33/7 32/32/7 23/111/7 
f 25/113/12 34/34/12 36/36/12 27/27/12 
f 27/27/13 36/36/13 35/35/13 26/26/13 
f 13/13/10 29/29/10 30/30/10 15/15/10 
f 15/15/11 30/30/11 28/28/11 14/14/11 
f 31/31/9 35/35/9 36/36/9 33/33/9 
f 33/33/8 36/36/8 34/34/8 32/32/8 
f 3/3/1 7/105/1 60/102/1 59/107/1 
f 40/40/4 38/92/4 39/39/4 
f 42/42/3 46/46/3 43/43/3 44/44/3 
f 47/81/1 51/51/1 48/48/1 49/49/1 
f 55/55/2 53/103/2 54/54/2 
f 37/85/14 43/97/14 46/98/14 41/41/14 
f 41/41/15 46/98/15 42/99/15 38/87/15 
f 47/47/16 53/53/16 56/56/16 51/83/16 
f 51/83/17 56/56/17 52/93/17 48/84/17 
f 32/32/4 4/112/4 23/111/4 
f 45/45/4 42/42/4 44/44/4 
f 52/52/3 56/96/3 53/103/3 55/55/3 
f 50/50/2 47/81/2 49/49/2 
f 37/37/1 41/86/1 38/92/1 40/40/1 
f 3/108/4 45/45/4 44/44/4 17/110/4 
f 3/108/4 59/101/4 42/42/4 45/45/4 
f 29/29/2 55/55/2 20/20/2 
f 7/7/2 54/54/2 53/103/2 60/109/2 
f 8/8/3 4/4/3 57/90/3 58/116/3 
f 10/10/4 2/2/4 57/57/4 38/38/4 
f 11/82/2 47/91/2 58/58/2 6/6/2 
f 60/60/2 53/95/2 12/12/2 5/5/2 
f 13/13/3 44/44/3 55/55/3 29/29/3 
f 40/40/4 39/39/4 4/112/4 32/32/4 
f 25/113/2 8/115/2 34/34/2 
f 34/34/1 49/49/1 40/40/1 32/32/1 
o Cylinder:054
s 1
f 61/61/18 63/63/19 64/64/19 62/62/18 
f 63/63/19 65/65/20 66/66/20 64/64/19 
f 65/65/20 67/67/21 68/68/21 66/66/20 
f 67/67/21 69/69/22 70/70/22 68/68/21 
f 71/71/23 73/73/24 74/74/24 72/72/23 
f 73/73/24 75/75/25 76/76/25 74/74/24 
f 75/75/25 77/77/26 78/78/26 76/76/25 
f 77/77/26 79/79/27 80/80/27 78/78/26 
f 79/79/27 61/61/18 62/62/18 80/80/27 
#end 68 faces

#ZOMPROPERTIES_04{
#ZOMPROPERTIES_04 table {Mesh table {SymPlane table {Point vector3d 0 0 0 Normal vector3d 1 0 0 Threshold double 0.01 
#ZOMPROPERTIES_04 Enabled bool false EdgeID int -1 SymEdgeID int -1 UPos double 0.5 LocalMode bool false } RootGroup C
#ZOMPROPERTIES_04 SubMeshGroup {Children table {Tile_0_0 CSubMeshGroup {Children table {} BBoxUV box3d 0 0 0 0 0 0 BBo
#ZOMPROPERTIES_04 x3D box3d 0 0 0 0 0 0 Area3D double 0 AreaUV double 0.425766 IsRoot bool false Properties table {Sel
#ZOMPROPERTIES_04 ected bool false Box box3d 0 1 0 1 0 1 U int 0 V int 0 NU int 0 NV int 0 Tiling vector3d 1 1 1 TileR
#ZOMPROPERTIES_04 atioMode string "1:1" Overflow string "Off" Pack table {BoxFrameEdit bool false Behavior string "Fre
#ZOMPROPERTIES_04 e" } } IsTile bool true PolyIDs ints { 12 33 6 51 3 52 53 2 54 5 4 37 50 44 8 35 43 48 47 13 18 19 2
#ZOMPROPERTIES_04 3 29 30 16 24 20 17 55 49 0 58 56 42 26 32 27 57 11 45 36 15 21 22 25 31 14 28 34 7 46 59 60 61 62 6
#ZOMPROPERTIES_04 7 66 65 64 63 1 40 41 9 38 39 10 } } } BBoxUV box3d 0 0 0 0 0 0 BBox3D box3d 0 0 0 0 0 0 Area3D doub
#ZOMPROPERTIES_04 le 0 AreaUV double 0 IsRoot bool true Properties table {Selected bool false Box box3d 0 1 0 1 0 1 U 
#ZOMPROPERTIES_04 int 0 V int 0 NU int 1 NV int 1 Tiling vector3d 1 1 1 TileRatioMode string "1:1" Overflow string "Of
#ZOMPROPERTIES_04 f" Pack table {Rotate table {Mode int 0 Min double 0 Max double 90 Step double 0 } PaddingSize doubl
#ZOMPROPERTIES_04 e 0.0078125 MarginSize double 0.00390625 Resolution int 256 MapResolution int 2048 Scaling table {Te
#ZOMPROPERTIES_04 xelDensity double 1024 Mode int 2 } LayoutScalingMode int 2 MaxMutations int 1 } } IsTile bool false
#ZOMPROPERTIES_04  PolyIDs ints { } } Maps table {Pin table {PrimType string "Vertex" Size int 1 DefaultValue double 0
#ZOMPROPERTIES_04  ScaleType string "Normalized" MergeMode string "Max" MinValue double 0 MaxValue double 1 Data doubl
#ZOMPROPERTIES_04 es { r 116 0 } } Density table {PrimType string "Polygon" Size int 1 DefaultValue double 1 ScaleType
#ZOMPROPERTIES_04  string "Log" MergeMode string "Average" MinValue double 0.1 MaxValue double 4 Data doubles { r 68 1
#ZOMPROPERTIES_04  } } Protect table {PrimType string "Vertex" Size int 1 DefaultValue double 0 ScaleType string "Norm
#ZOMPROPERTIES_04 alized" MergeMode string "Average" MinValue double -1 MaxValue double 1 Data doubles { r 116 0 } } }
#ZOMPROPERTIES_04  } }
#ZOMPROPERTIES_04}


#ZOMSCENE_01{
#ZOMSCENE_01 CScene {Settings table {AxisSystem table {UpVector string "y" } Unit string "cm" TexelDensityDisplay
#ZOMSCENE_01 Unit string "tx/cm" } Root table {} }
#ZOMSCENE_01}

#begin 0 fatal error vertex (that RizomUV cannot handle)
#end 0 fatal error vertex (that RizomUV cannot handle)

#begin 0 error vertex
#end 0 error vertex
