#File written by RizomUV 2023.0.70.ge90189e8. Compilation :Sep 22 2023,12:42:11
mtllib Tobogan.mtl
#begin vertices
v 2.685226 0.51605 3.473091
v 2.685226 1.94456 3.473091
v 2.685226 0.415661 3.253268
v 2.685226 2.044949 3.253268
v 2.685226 0.381269 3.014067
v 2.685226 2.079341 3.014067
v 2.685226 0.415661 2.774866
v 2.685226 2.044949 2.774866
v 2.685226 0.51605 2.555044
v 2.685226 1.94456 2.555044
v 2.685226 1.351136 2.173673
v 2.685226 1.109475 2.173673
v 2.685226 0.877603 2.241757
v 2.685226 1.351135 3.854462
v 2.685226 1.109475 3.854462
v 2.685226 0.877603 3.786378
v 2.685226 1.583007 3.786378
v 2.685226 1.583007 2.241756
v 2.685226 0.674305 3.655726
v 2.685226 1.786306 3.655726
v 2.685226 0.674305 2.372409
v 2.685226 1.786306 2.372409
v 0.595504 0.60463 3.736135
v 0.595504 0.833404 3.883159
v 0.595504 1.094333 3.959775
v 0.595504 1.366277 3.959775
v 0.595504 1.627206 3.883159
v 0.595504 1.85598 3.736135
v 0.595504 0.60463 2.292
v 0.595504 0.833404 2.144976
v 0.595504 1.094333 2.06836
v 0.595504 1.366277 2.06836
v 0.595504 1.627206 2.144975
v 0.595504 1.85598 2.292
v 0.595504 2.034066 2.497521
v 0.595504 0.426544 2.497522
v 0.595504 2.147036 2.744891
v 0.595504 0.313575 2.744891
v 0.595504 2.185737 3.014067
v 0.595504 0.274873 3.014067
v 0.595504 2.147036 3.283244
v 0.595504 0.313575 3.283244
v 0.595504 2.034066 3.530613
v 0.595504 0.426544 3.530613
v 4.809171 0.078384 3.655726
v 4.867259 0.273207 3.786378
v 4.933511 0.495413 3.854462
v 5.00256 0.726999 3.854462
v 5.068812 0.949205 3.786378
v 5.1269 1.144028 3.655726
v 4.809171 0.078384 2.372409
v 4.867259 0.273207 2.241757
v 4.933511 0.495413 2.173673
v 5.00256 0.726999 2.173673
v 5.068812 0.949205 2.241757
v 5.1269 1.144027 2.372409
v 5.172117 1.295685 2.555044
v 4.763954 -0.073272 2.555044
v 5.200801 1.391889 2.774866
v 4.73527 -0.169477 2.774866
v 5.210628 1.424847 3.014067
v 4.725443 -0.202435 3.014067
v 5.200801 1.391889 3.253268
v 4.73527 -0.169477 3.253269
v 5.172117 1.295684 3.473091
v 4.763954 -0.073272 3.473091
v 8.711185 -2.030931 3.655725
v 8.798731 -1.847449 3.786376
v 8.898581 -1.638177 3.85446
v 9.002646 -1.420071 3.85446
v 9.102496 -1.210799 3.786376
v 9.190042 -1.027317 3.655725
v 8.711185 -2.030931 2.372407
v 8.798731 -1.847449 2.241755
v 8.898581 -1.638177 2.173671
v 9.002646 -1.420071 2.173671
v 9.102496 -1.210799 2.241755
v 9.190042 -1.027317 2.372407
v 9.258191 -0.884487 2.555042
v 8.643036 -2.17376 2.555042
v 9.301421 -0.793883 2.774864
v 8.599806 -2.264365 2.774864
v 9.316231 -0.762843 3.014066
v 8.584996 -2.295405 3.014066
v 9.301421 -0.793883 3.253267
v 8.599806 -2.264365 3.253267
v 9.258191 -0.884488 3.473089
v 8.643036 -2.17376 3.473089
v 14.96992 -5.656544 3.767116
v 15.05747 -5.473062 3.897768
v 15.15731 -5.26379 3.965851
v 15.26138 -5.045683 3.965851
v 15.36123 -4.836412 3.897768
v 15.44878 -4.652929 3.767116
v 14.96992 -5.656544 2.483798
v 15.05747 -5.473062 2.353147
v 15.15731 -5.26379 2.285063
v 15.26138 -5.045683 2.285063
v 15.36123 -4.836412 2.353146
v 15.44878 -4.652929 2.483798
v 15.51693 -4.5101 2.666433
v 14.90177 -5.799373 2.666433
v 15.56016 -4.419496 2.886256
v 14.85854 -5.889977 2.886256
v 15.57497 -4.388456 3.125457
v 14.84373 -5.921018 3.125457
v 15.56016 -4.419496 3.364658
v 14.85854 -5.889977 3.364658
v 15.51693 -4.5101 3.584481
v 14.90177 -5.799373 3.584481
v 17.98179 -6.368968 3.767114
v 17.99204 -6.165929 3.897766
v 18.00373 -5.934352 3.96585
v 18.01591 -5.692998 3.96585
v 18.0276 -5.461421 3.897766
v 18.03785 -5.258381 3.767114
v 17.98179 -6.368968 2.483797
v 17.99204 -6.165929 2.353145
v 18.00373 -5.934352 2.285061
v 18.01591 -5.692998 2.285061
v 18.0276 -5.461421 2.353145
v 18.03785 -5.258381 2.483797
v 18.04582 -5.100327 2.666432
v 17.97382 -6.527022 2.666432
v 18.05088 -5.000066 2.886254
v 17.96876 -6.627284 2.886255
v 18.05261 -4.965718 3.125456
v 17.96702 -6.661632 3.125456
v 18.05088 -5.000066 3.364657
v 17.96876 -6.627284 3.364657
v 18.04582 -5.100328 3.584479
v 17.97382 -6.527022 3.584479
v 21.34465 -6.458564 3.767114
v 21.3549 -6.255525 3.897766
v 21.36659 -6.023948 3.965849
v 21.37877 -5.782594 3.965849
v 21.39045 -5.551016 3.897765
v 21.4007 -5.347977 3.767114
v 21.34465 -6.458564 2.483796
v 21.3549 -6.255525 2.353144
v 21.36659 -6.023948 2.285061
v 21.37877 -5.782594 2.285061
v 21.39045 -5.551016 2.353144
v 21.4007 -5.347977 2.483796
v 21.40868 -5.189923 2.666431
v 21.33667 -6.616618 2.666431
v 21.41374 -5.089662 2.886254
v 21.33161 -6.716879 2.886254
v 21.41547 -5.055314 3.125455
v 21.32988 -6.751227 3.125455
v 21.41374 -5.089662 3.364656
v 21.33161 -6.716879 3.364656
v 21.40868 -5.189924 3.584479
v 21.33667 -6.616618 3.584479
#end vertices

#begin 161 textures vertices 
vt 0.1990801 0.6370532 0
vt 0.1505832 0.5787088 0
vt 0.0934324 0.4383507 0
vt 0.1446484 0.5697071 0
vt 0.09788115 0.4482636 0
vt 0.1391656 0.5604203 0
vt 0.1019928 0.4584131 0
vt 0.1341615 0.5508655 0
vt 0.1057515 0.4687443 0
vt 0.1296427 0.541071 0
vt 0.1186208 0.5105827 0
vt 0.1154867 0.5001653 0
vt 0.1123933 0.4896847 0
vt 0.1705776 0.6041572 0
vt 0.1777151 0.6123123 0
vt 0.1849213 0.6204545 0
vt 0.1636166 0.5958905 0
vt 0.1219456 0.5208959 0
vt 0.1920807 0.6286781 0
vt 0.156926 0.5874271 0
vt 0.1091903 0.4791908 0
vt 0.1255887 0.53107 0
vt 0.1167617 0.687531 0
vt 0.1090575 0.6779357 0
vt 0.1014305 0.6681837 0
vt 0.09391315 0.6582445 0
vt 0.0865479 0.6480938 0
vt 0.07938219 0.6377166 0
vt 0.01995355 0.513888 0
vt 0.02414267 0.5253307 0
vt 0.02845293 0.5368008 0
vt 0.03293505 0.5482961 0
vt 0.03764228 0.5598005 0
vt 0.04262306 0.5712863 0
vt 0.04791544 0.5827172 0
vt 0.0158453 0.5024608 0
vt 0.0535439 0.594053 0
vt 0.0117955 0.4910239 0
vt 0.05951755 0.6052534 0
vt 0.007805503 0.4795399 0
vt 0.06583046 0.6162821 0
vt 0.1323552 0.7063699 0
vt 0.07246265 0.6271097 0
vt 0.1245265 0.6970006 0
vt 0.2818212 0.5783524 0
vt 0.2758829 0.5694536 0
vt 0.2698887 0.5606634 0
vt 0.2639051 0.5519168 0
vt 0.2579908 0.543148 0
vt 0.2521928 0.5343015 0
vt 0.1996414 0.4302725 0
vt 0.2040175 0.4400176 0
vt 0.2082823 0.4497569 0
vt 0.2125252 0.4594653 0
vt 0.216833 0.4691253 0
vt 0.2212772 0.4787239 0
vt 0.2259072 0.4882499 0
vt 0.195075 0.4205548 0
vt 0.2307487 0.4976899 0
vt 0.1902589 0.4109046 0
vt 0.2358081 0.5070284 0
vt 0.1851583 0.4013642 0
vt 0.2410787 0.5162493 0
vt 0.1797634 0.3919713 0
vt 0.2465468 0.5253408 0
vt 0.2876338 0.5874122 0
vt 0.45909 0.4826259 0
vt 0.4535508 0.4733209 0
vt 0.4479267 0.4640803 0
vt 0.442257 0.45488 0
vt 0.4365822 0.4456926 0
vt 0.4309414 0.4364907 0
vt 0.3751956 0.3316071 0
vt 0.3800256 0.3412977 0
vt 0.3848014 0.3510061 0
vt 0.3895678 0.360711 0
vt 0.3943679 0.3703931 0
vt 0.3992401 0.3800343 0
vt 0.4042143 0.3896198 0
vt 0.3702701 0.3219554 0
vt 0.4093104 0.3991381 0
vt 0.3652147 0.3123628 0
vt 0.4145377 0.4085824 0
vt 0.3600056 0.3028469 0
vt 0.4198945 0.4179513 0
vt 0.4697827 0.5014949 0
vt 0.4253693 0.4272499 0
vt 0.4645097 0.4920137 0
vt 0.7415519 0.3284428 0
vt 0.7367774 0.3187214 0
vt 0.7320528 0.3089718 0
vt 0.7273228 0.2992012 0
vt 0.7225283 0.2894169 0
vt 0.7176174 0.2796282 0
vt 0.656322 0.1753543 0
vt 0.6619456 0.1846351 0
vt 0.6676563 0.1938766 0
vt 0.6734262 0.2031173 0
vt 0.6792216 0.2123981 0
vt 0.6850062 0.2217535 0
vt 0.690743 0.2312034 0
vt 0.6508066 0.1660065 0
vt 0.696396 0.2407518 0
vt 0.6454147 0.1565789 0
vt 0.7019325 0.2503885 0
vt 0.6401564 0.1470726 0
vt 0.7073251 0.2600946 0
vt 0.7514043 0.34776 0
vt 0.7125548 0.2698482 0
vt 0.746419 0.3381264 0
vt 0.8563252 0.2644566 0
vt 0.8502192 0.2554727 0
vt 0.8440167 0.2465446 0
vt 0.8377784 0.2376214 0
vt 0.8315712 0.2286486 0
vt 0.8254644 0.2195757 0
vt 0.7722996 0.1120679 0
vt 0.7766115 0.1220161 0
vt 0.7808239 0.1320123 0
vt 0.7850155 0.1420333 0
vt 0.7892718 0.152052 0
vt 0.7936754 0.1620374 0
vt 0.7982946 0.1719561 0
vt 0.7678264 0.1021884 0
vt 0.8031772 0.181774 0
vt 0.7631508 0.0923965 0
vt 0.808347 0.1914612 0
vt 0.7582531 0.08270931 0
vt 0.8138033 0.200995 0
vt 0.8680576 0.2827309 0
vt 0.819523 0.210365 0
vt 0.8622844 0.2735351 0
vt 0.9851787 0.1901527 0
vt 0.9797928 0.1808381 0
vt 0.9744574 0.1715559 0
vt 0.9691728 0.1623098 0
vt 0.963938 0.1531007 0
vt 0.9587506 0.1439256 0
vt 0.903406 0.0423445 0
vt 0.9083845 0.05182043 0
vt 0.9133672 0.06123029 0
vt 0.9183538 0.07057356 0
vt 0.9233452 0.07985379 0
vt 0.9283442 0.08907806 0
vt 0.9333543 0.09825685 0
vt 0.8984335 0.03280676 0
vt 0.9383801 0.1074026 0
vt 0.8934706 0.02321458 0
vt 0.9434268 0.1165291 0
vt 0.8885217 0.01357756 0
vt 0.9485004 0.12565 0
vt 0.883592 0.00390625 0
vt 0.9536064 0.1347784 0
vt 0.9906131 0.1994926 0
vt 0.2058188 0.6456137 0
vt 0.9960938 0.2088481 0
vt 0.293255 0.5966649 0
vt 0.7531328 0.07313928 0
vt 0.00390625 0.4679607 0
vt 0.3546317 0.2934207 0
vt 0.635037 0.1374987 0
#end 161 textures vertices 

#begin 154 normals 
vn 0.0909 0.8317 -0.5477
vn -0.1324 -0.8352 -0.5338
vn 0.1089 0.952 -0.286
vn -0.1458 -0.9495 -0.2778
vn 0.1152 0.9933 -0
vn -0.1504 -0.9886 -0
vn 0.1089 0.952 0.286
vn -0.1458 -0.9495 0.2778
vn 0.0909 0.8317 0.5477
vn -0.1324 -0.8352 0.5338
vn -0.0472 -0.1524 0.9872
vn -0.0094 0.1294 0.9915
vn 0.0285 0.402 0.9152
vn -0.0472 -0.1524 -0.9872
vn -0.0094 0.1294 -0.9915
vn 0.0285 0.402 -0.9152
vn -0.0818 -0.4206 -0.9035
vn -0.0818 -0.4206 0.9035
vn 0.0631 0.6429 -0.7633
vn -0.1107 -0.6542 -0.7481
vn 0.0631 0.6429 0.7633
vn -0.1107 -0.6542 0.7481
vn -0.0508 0.654 -0.7548
vn -0.0508 0.4149 -0.9085
vn -0.0508 0.1421 -0.9885
vn -0.0508 -0.1421 -0.9885
vn -0.0508 -0.4149 -0.9085
vn -0.0508 -0.654 -0.7548
vn -0.0508 0.654 0.7548
vn -0.0508 0.4149 0.9085
vn -0.0508 0.1421 0.9885
vn -0.0508 -0.1421 0.9885
vn -0.0508 -0.4149 0.9085
vn -0.0508 -0.654 0.7548
vn -0.0508 -0.8402 0.5399
vn -0.0508 0.8402 0.5399
vn -0.0508 -0.9583 0.2814
vn -0.0508 0.9583 0.2814
vn -0.0508 -0.9987 -0
vn -0.0508 0.9987 -0
vn -0.0508 -0.9583 -0.2814
vn -0.0508 0.9583 -0.2814
vn -0.0508 -0.8402 -0.5399
vn -0.0508 0.8402 -0.5399
vn 0.2444 0.6047 -0.758
vn 0.1523 0.3804 -0.9122
vn 0.0487 0.124 -0.9911
vn -0.0573 -0.1424 -0.9881
vn -0.1568 -0.3965 -0.9045
vn -0.2423 -0.6174 -0.7484
vn 0.2444 0.6047 0.758
vn 0.1523 0.3804 0.9122
vn 0.0487 0.124 0.9911
vn -0.0573 -0.1424 0.9881
vn -0.1568 -0.3965 0.9045
vn -0.2423 -0.6174 0.7484
vn -0.3076 -0.7879 0.5334
vn 0.3168 0.7785 0.5418
vn -0.3485 -0.8954 0.2773
vn 0.363 0.8881 0.2821
vn -0.3624 -0.932 -0
vn 0.3788 0.9255 -0
vn -0.3485 -0.8954 -0.2773
vn 0.363 0.8881 -0.2821
vn -0.3076 -0.7879 -0.5334
vn 0.3168 0.7785 -0.5419
vn 0.3261 0.5706 -0.7537
vn 0.2097 0.3608 -0.9088
vn 0.0761 0.1207 -0.9898
vn -0.0637 -0.1297 -0.9895
vn -0.1978 -0.3692 -0.908
vn -0.3151 -0.578 -0.7527
vn 0.3153 0.5754 0.7547
vn 0.1968 0.3665 0.9094
vn 0.0622 0.1271 0.9899
vn -0.0773 -0.1229 0.9894
vn -0.21 -0.3626 0.908
vn -0.3251 -0.5722 0.753
vn -0.4133 -0.7348 0.5378
vn 0.4079 0.7368 0.5392
vn -0.4682 -0.838 0.2802
vn 0.4674 0.8382 0.281
vn -0.4858 -0.8741 0.0007
vn 0.4891 0.8723 0.0007
vn -0.4647 -0.8404 -0.279
vn 0.4714 0.8364 -0.2796
vn -0.4064 -0.7392 -0.5371
vn 0.4157 0.7333 -0.538
vn 0.2495 0.6132 -0.7495
vn 0.1629 0.3935 -0.9048
vn 0.0633 0.1415 -0.9879
vn -0.0414 -0.1231 -0.9915
vn -0.1428 -0.3786 -0.9145
vn -0.2327 -0.6039 -0.7623
vn 0.2393 0.6184 0.7485
vn 0.1505 0.3998 0.9041
vn 0.0496 0.1482 0.9877
vn -0.0553 -0.1167 0.9916
vn -0.1558 -0.3731 0.9146
vn -0.2438 -0.5998 0.7621
vn -0.3118 -0.7774 0.5462
vn 0.309 0.7871 0.5339
vn -0.3542 -0.8908 0.2847
vn 0.354 0.8931 0.2774
vn -0.3673 -0.9301 -0.0007
vn 0.3707 0.9287 -0.0007
vn -0.3499 -0.8921 -0.2859
vn 0.3578 0.8912 -0.2788
vn -0.3037 -0.7801 -0.5469
vn 0.3163 0.7834 -0.5351
vn 0.0859 0.6562 -0.7497
vn 0.0556 0.421 -0.9054
vn 0.0204 0.1507 -0.9884
vn -0.0166 -0.1327 -0.991
vn -0.0523 -0.4059 -0.9124
vn -0.0835 -0.6459 -0.7588
vn 0.0859 0.6562 0.7497
vn 0.0556 0.421 0.9054
vn 0.0204 0.1507 0.9884
vn -0.0166 -0.1327 0.991
vn -0.0523 -0.4059 0.9124
vn -0.0835 -0.6459 0.7588
vn -0.1077 -0.8328 0.543
vn 0.1091 0.8379 0.5348
vn -0.123 -0.9512 0.283
vn 0.1237 0.9525 0.2781
vn -0.1282 -0.9918 -0
vn 0.1286 0.9917 -0
vn -0.123 -0.9512 -0.283
vn 0.1237 0.9525 -0.2781
vn -0.1077 -0.8328 -0.543
vn 0.1091 0.8379 -0.5348
vn 0.0174 0.6535 -0.7567
vn 0.011 0.4136 -0.9104
vn 0.0037 0.1402 -0.9901
vn -0.0038 -0.1444 -0.9895
vn -0.0111 -0.4171 -0.9088
vn -0.0175 -0.656 -0.7546
vn 0.0174 0.6535 0.7567
vn 0.011 0.4136 0.9104
vn 0.0037 0.1402 0.9901
vn -0.0038 -0.1444 0.9895
vn -0.0111 -0.4171 0.9088
vn -0.0175 -0.656 0.7546
vn -0.0224 -0.8417 0.5396
vn 0.0224 0.8404 0.5415
vn -0.0256 -0.9593 0.2811
vn 0.0256 0.959 0.2822
vn -0.0266 -0.9996 -0
vn 0.0266 0.9996 -0
vn -0.0256 -0.9593 -0.2811
vn 0.0256 0.959 -0.2822
vn -0.0224 -0.8417 -0.5396
vn 0.0224 0.8404 -0.5415
#end 154 normals 

#begin 132 faces
o Tobogan
s 1
f 3/3/3 64/64/64 62/62/62 5/5/5 
f 19/19/19 23/23/23 24/24/24 16/16/16 
f 16/16/16 24/24/24 25/25/25 15/15/15 
f 15/15/15 25/25/25 26/26/26 14/14/14 
f 17/17/17 27/27/27 28/28/28 20/20/20 
f 13/13/13 30/30/30 29/29/29 21/21/21 
f 12/12/12 31/31/31 30/30/30 13/13/13 
f 11/11/11 32/32/32 31/31/31 12/12/12 
f 22/22/22 34/34/34 33/33/33 18/18/18 
f 10/10/10 35/35/35 34/34/34 22/22/22 
f 21/21/21 29/29/29 36/36/36 9/9/9 
f 8/8/8 37/37/37 35/35/35 10/10/10 
f 9/9/9 36/36/36 38/38/38 7/7/7 
f 6/6/6 39/39/39 37/37/37 8/8/8 
f 7/7/7 38/38/38 40/40/40 5/5/5 
f 4/4/4 41/41/41 39/39/39 6/6/6 
f 5/5/5 40/40/40 42/159/42 3/3/3 
f 2/2/2 43/43/43 41/41/41 4/4/4 
f 3/155/3 42/42/42 44/44/44 1/1/1 
f 20/20/20 28/28/28 43/43/43 2/2/2 
f 1/1/1 44/44/44 23/23/23 19/19/19 
f 14/14/14 26/26/26 27/27/27 17/17/17 
f 18/18/18 33/33/33 32/32/32 11/11/11 
f 56/56/56 78/78/78 79/79/79 57/57/57 
f 22/22/22 56/56/56 57/57/57 10/10/10 
f 15/15/15 47/47/47 46/46/46 16/16/16 
f 4/4/4 63/63/63 65/65/65 2/2/2 
f 9/9/9 58/58/58 51/51/51 21/21/21 
f 14/14/14 48/48/48 47/47/47 15/15/15 
f 1/1/1 66/66/66 64/157/64 3/155/3 
f 10/10/10 57/57/57 59/59/59 8/8/8 
f 20/20/20 50/50/50 49/49/49 17/17/17 
f 2/2/2 65/65/65 50/50/50 20/20/20 
f 7/7/7 60/60/60 58/58/58 9/9/9 
f 21/21/21 51/51/51 52/52/52 13/13/13 
f 19/19/19 45/45/45 66/66/66 1/1/1 
f 8/8/8 59/59/59 61/61/61 6/6/6 
f 13/13/13 52/52/52 53/53/53 12/12/12 
f 17/17/17 49/49/49 48/48/48 14/14/14 
f 5/5/5 62/62/62 60/60/60 7/7/7 
f 12/12/12 53/53/53 54/54/54 11/11/11 
f 11/11/11 54/54/54 55/55/55 18/18/18 
f 6/6/6 61/61/61 63/63/63 4/4/4 
f 18/18/18 55/55/55 56/56/56 22/22/22 
f 16/16/16 46/46/46 45/45/45 19/19/19 
f 69/69/69 91/91/91 90/90/90 68/68/68 
f 47/47/47 69/69/69 68/68/68 46/46/46 
f 63/63/63 85/85/85 87/87/87 65/65/65 
f 58/58/58 80/80/80 73/73/73 51/51/51 
f 48/48/48 70/70/70 69/69/69 47/47/47 
f 66/66/66 88/88/88 86/86/86 64/157/64 
f 57/57/57 79/79/79 81/81/81 59/59/59 
f 50/50/50 72/72/72 71/71/71 49/49/49 
f 65/65/65 87/87/87 72/72/72 50/50/50 
f 60/60/60 82/82/82 80/80/80 58/58/58 
f 51/51/51 73/73/73 74/74/74 52/52/52 
f 45/45/45 67/67/67 88/88/88 66/66/66 
f 59/59/59 81/81/81 83/83/83 61/61/61 
f 52/52/52 74/74/74 75/75/75 53/53/53 
f 49/49/49 71/71/71 70/70/70 48/48/48 
f 62/62/62 84/84/84 82/82/82 60/60/60 
f 53/53/53 75/75/75 76/76/76 54/54/54 
f 54/54/54 76/76/76 77/77/77 55/55/55 
f 61/61/61 83/83/83 85/85/85 63/63/63 
f 55/55/55 77/77/77 78/78/78 56/56/56 
f 46/46/46 68/68/68 67/67/67 45/45/45 
f 64/64/64 86/160/86 84/84/84 62/62/62 
f 102/102/102 124/124/124 117/117/117 95/95/95 
f 85/85/85 107/107/107 109/109/109 87/87/87 
f 80/80/80 102/102/102 95/95/95 73/73/73 
f 70/70/70 92/92/92 91/91/91 69/69/69 
f 88/88/88 110/110/110 108/108/108 86/86/86 
f 79/79/79 101/101/101 103/103/103 81/81/81 
f 72/72/72 94/94/94 93/93/93 71/71/71 
f 87/87/87 109/109/109 94/94/94 72/72/72 
f 82/82/82 104/104/104 102/102/102 80/80/80 
f 73/73/73 95/95/95 96/96/96 74/74/74 
f 67/67/67 89/89/89 110/110/110 88/88/88 
f 81/81/81 103/103/103 105/105/105 83/83/83 
f 74/74/74 96/96/96 97/97/97 75/75/75 
f 71/71/71 93/93/93 92/92/92 70/70/70 
f 84/84/84 106/106/106 104/104/104 82/82/82 
f 75/75/75 97/97/97 98/98/98 76/76/76 
f 76/76/76 98/98/98 99/99/99 77/77/77 
f 83/83/83 105/105/105 107/107/107 85/85/85 
f 77/77/77 99/99/99 100/100/100 78/78/78 
f 68/68/68 90/90/90 89/89/89 67/67/67 
f 86/160/86 108/161/108 106/106/106 84/84/84 
f 78/78/78 100/100/100 101/101/101 79/79/79 
f 114/114/114 136/136/136 135/135/135 113/113/113 
f 92/92/92 114/114/114 113/113/113 91/91/91 
f 110/110/110 132/132/132 130/130/130 108/108/108 
f 101/101/101 123/123/123 125/125/125 103/103/103 
f 94/94/94 116/116/116 115/115/115 93/93/93 
f 109/109/109 131/131/131 116/116/116 94/94/94 
f 104/104/104 126/126/126 124/124/124 102/102/102 
f 95/95/95 117/117/117 118/118/118 96/96/96 
f 89/89/89 111/111/111 132/132/132 110/110/110 
f 103/103/103 125/125/125 127/127/127 105/105/105 
f 96/96/96 118/118/118 119/119/119 97/97/97 
f 93/93/93 115/115/115 114/114/114 92/92/92 
f 106/106/106 128/128/128 126/126/126 104/104/104 
f 97/97/97 119/119/119 120/120/120 98/98/98 
f 98/98/98 120/120/120 121/121/121 99/99/99 
f 105/105/105 127/127/127 129/129/129 107/107/107 
f 99/99/99 121/121/121 122/122/122 100/100/100 
f 90/90/90 112/112/112 111/111/111 89/89/89 
f 108/161/108 130/158/130 128/128/128 106/106/106 
f 100/100/100 122/122/122 123/123/123 101/101/101 
f 91/91/91 113/113/113 112/112/112 90/90/90 
f 107/107/107 129/129/129 131/131/131 109/109/109 
f 132/132/132 154/154/154 152/156/152 130/130/130 
f 123/123/123 145/145/145 147/147/147 125/125/125 
f 116/116/116 138/138/138 137/137/137 115/115/115 
f 131/131/131 153/153/153 138/138/138 116/116/116 
f 126/126/126 148/148/148 146/146/146 124/124/124 
f 117/117/117 139/139/139 140/140/140 118/118/118 
f 111/111/111 133/133/133 154/154/154 132/132/132 
f 125/125/125 147/147/147 149/149/149 127/127/127 
f 118/118/118 140/140/140 141/141/141 119/119/119 
f 115/115/115 137/137/137 136/136/136 114/114/114 
f 128/128/128 150/150/150 148/148/148 126/126/126 
f 119/119/119 141/141/141 142/142/142 120/120/120 
f 120/120/120 142/142/142 143/143/143 121/121/121 
f 127/127/127 149/149/149 151/151/151 129/129/129 
f 121/121/121 143/143/143 144/144/144 122/122/122 
f 112/112/112 134/134/134 133/133/133 111/111/111 
f 130/158/130 152/152/152 150/150/150 128/128/128 
f 122/122/122 144/144/144 145/145/145 123/123/123 
f 113/113/113 135/135/135 134/134/134 112/112/112 
f 129/129/129 151/151/151 153/153/153 131/131/131 
f 124/124/124 146/146/146 139/139/139 117/117/117 
#end 132 faces

#ZOMPROPERTIES_04{
#ZOMPROPERTIES_04 table {Mesh table {SymPlane table {Point vector3d 0 0 0 Normal vector3d 1 0 0 Threshold double 0.01 
#ZOMPROPERTIES_04 Enabled bool false EdgeID int -1 SymEdgeID int -1 UPos double 0.5 LocalMode bool false } RootGroup C
#ZOMPROPERTIES_04 SubMeshGroup {Children table {Tile_0_0 CSubMeshGroup {Children table {} BBoxUV box3d 0 0 0 0 0 0 BBo
#ZOMPROPERTIES_04 x3D box3d 0 0 0 0 0 0 Area3D double 0 AreaUV double 0.240439 IsRoot bool false Properties table {Sel
#ZOMPROPERTIES_04 ected bool false Box box3d 0 1 0 1 0 1 U int 0 V int 0 NU int 0 NV int 0 Tiling vector3d 1 1 1 TileR
#ZOMPROPERTIES_04 atioMode string "1:1" Overflow string "Off" Pack table {BoxFrameEdit bool false Behavior string "Fre
#ZOMPROPERTIES_04 e" } } IsTile bool true PolyIDs ints { 0 39 33 27 34 37 40 41 43 24 30 36 42 26 32 31 38 28 25 44 35
#ZOMPROPERTIES_04  29 50 71 91 111 117 126 129 89 120 113 114 130 124 118 112 128 125 123 122 119 116 131 115 121 127 
#ZOMPROPERTIES_04 107 87 66 81 75 69 76 79 82 83 85 88 72 78 84 68 74 73 80 70 45 86 77 106 65 109 46 90 49 100 59 93 
#ZOMPROPERTIES_04 52 94 53 110 47 104 63 98 57 92 51 108 23 105 64 103 62 102 61 99 58 96 55 67 48 95 54 60 101 97 56 
#ZOMPROPERTIES_04 18 20 1 2 3 21 4 19 17 15 13 11 9 8 22 7 6 5 10 12 14 16 } } } BBoxUV box3d 0 0 0 0 0 0 BBox3D box3d
#ZOMPROPERTIES_04  0 0 0 0 0 0 Area3D double 0 AreaUV double 0 IsRoot bool true Properties table {Selected bool false 
#ZOMPROPERTIES_04 Box box3d 0 1 0 1 0 1 U int 0 V int 0 NU int 1 NV int 1 Tiling vector3d 1 1 1 TileRatioMode string "
#ZOMPROPERTIES_04 1:1" Overflow string "Off" Pack table {Rotate table {Mode int 0 Min double 0 Max double 90 Step doub
#ZOMPROPERTIES_04 le 0 } PaddingSize double 0.0078125 MarginSize double 0.00390625 Resolution int 256 MapResolution in
#ZOMPROPERTIES_04 t 2048 Scaling table {TexelDensity double 1024 Mode int 2 } LayoutScalingMode int 2 MaxMutations int
#ZOMPROPERTIES_04  1 } } IsTile bool false PolyIDs ints { } } Maps table {Pin table {PrimType string "Vertex" Size int
#ZOMPROPERTIES_04  1 DefaultValue double 0 ScaleType string "Normalized" MergeMode string "Max" MinValue double 0 MaxV
#ZOMPROPERTIES_04 alue double 1 Data doubles { r 161 0 } } Density table {PrimType string "Polygon" Size int 1 Default
#ZOMPROPERTIES_04 Value double 1 ScaleType string "Log" MergeMode string "Average" MinValue double 0.1 MaxValue double
#ZOMPROPERTIES_04  4 Data doubles { r 132 1 } } Protect table {PrimType string "Vertex" Size int 1 DefaultValue double
#ZOMPROPERTIES_04  0 ScaleType string "Normalized" MergeMode string "Average" MinValue double -1 MaxValue double 1 Dat
#ZOMPROPERTIES_04 a doubles { r 161 0 } } } } }
#ZOMPROPERTIES_04}


#ZOMSCENE_01{
#ZOMSCENE_01 CScene {Settings table {AxisSystem table {UpVector string "y" } Unit string "cm" TexelDensityDisplay
#ZOMSCENE_01 Unit string "tx/cm" } Root table {} }
#ZOMSCENE_01}

#begin 0 fatal error vertex (that RizomUV cannot handle)
#end 0 fatal error vertex (that RizomUV cannot handle)

#begin 0 error vertex
#end 0 error vertex
