#File written by RizomUV 2023.0.70.ge90189e8. Compilation :Sep 22 2023,12:42:11
mtllib fiesta viga1.mtl
#begin vertices
v 59.16995 9.956404 -10.67928
v 59.16995 9.956404 -11.99937
v 59.16608 0.112272 -11.99937
v 59.16608 0.112272 -10.67928
v 58.46202 9.956403 -11.432
v 58.46202 9.956403 -11.24666
v 58.45816 0.112272 -11.24666
v 58.45816 0.112272 -11.432
v 59.0402 9.956404 -11.99937
v 59.03634 0.112272 -11.99937
v 59.03634 0.112272 -10.67928
v 59.0402 9.956404 -10.67928
v 59.66495 9.956403 -11.24666
v 59.66109 0.112272 -11.24666
v 59.66109 0.112272 -11.432
v 59.66495 9.956403 -11.432
v 59.21438 0.112272 -11.61654
v 59.30353 0.112272 -11.51717
v 59.22454 0.112272 -11.45478
v 59.14334 0.112272 -11.53598
v 59.2447 0.112272 -11.55407
v 59.30353 0.112272 -11.16148
v 59.21438 0.112272 -11.06211
v 59.14334 0.112272 -11.14267
v 59.22454 0.112272 -11.22387
v 59.2447 0.112272 -11.12458
v 59.21824 9.956403 -11.06211
v 59.3074 9.956402 -11.16148
v 59.24857 9.956402 -11.12458
v 59.3074 9.956402 -11.51717
v 59.21824 9.956403 -11.61654
v 59.24857 9.956402 -11.55407
v 58.90212 9.956402 -11.1586
v 58.99191 9.956403 -11.06211
v 58.9614 9.956402 -11.12374
v 58.99191 9.956403 -11.61654
v 58.90212 9.956402 -11.52005
v 58.9614 9.956402 -11.55491
v 58.89825 0.112272 -11.52005
v 58.98804 0.112272 -11.61654
v 59.05907 0.112272 -11.53598
v 58.97788 0.112272 -11.45478
v 58.95754 0.112272 -11.55491
v 58.98804 0.112272 -11.06211
v 58.89825 0.112272 -11.1586
v 58.97788 0.112272 -11.22387
v 59.05907 0.112272 -11.14267
v 58.95754 0.112272 -11.12374
v 59.10121 0.112272 -11.14267
v 59.10121 0.112272 -11.53598
v 59.22454 0.112272 -11.33933
v 58.97788 0.112272 -11.33933
v 58.46202 9.956403 -11.33933
v 58.45816 0.112272 -11.33933
v 59.66109 0.112272 -11.33933
v 59.66495 9.956403 -11.33933
v 59.10121 0.112272 -11.33933
v 59.10508 9.956404 -11.99937
v 59.10121 0.112272 -11.99937
v 59.10508 9.956404 -10.67928
v 59.10121 0.112272 -10.67928
v 59.10121 0.112272 -11.06211
v 59.10121 0.112272 -11.61654
v 58.89825 0.112272 -11.33933
v 59.30353 0.112272 -11.33933
v 59.10508 11.4115 -10.67928
v 59.16995 11.4115 -10.67928
v 58.46202 11.4115 -11.33933
v 58.46202 11.4115 -11.24666
v 59.10508 11.4115 -11.99937
v 59.0402 11.4115 -11.99937
v 59.66495 11.4115 -11.33933
v 59.66495 11.4115 -11.432
v 59.1472 11.4115 -11.14267
v 59.21824 11.4115 -11.06211
v 59.24857 11.4115 -11.12458
v 59.3074 11.4115 -11.16148
v 59.22841 11.4115 -11.22387
v 59.22841 11.4115 -11.45478
v 59.3074 11.4115 -11.51717
v 59.24857 11.4115 -11.55407
v 59.21824 11.4115 -11.61654
v 59.1472 11.4115 -11.53598
v 58.98174 11.4115 -11.22387
v 58.90212 11.4115 -11.1586
v 58.9614 11.4115 -11.12374
v 58.99191 11.4115 -11.06211
v 59.06294 11.4115 -11.14267
v 59.06294 11.4115 -11.53598
v 58.99191 11.4115 -11.61654
v 58.9614 11.4115 -11.55491
v 58.90212 11.4115 -11.52005
v 58.98174 11.4115 -11.45478
v 59.16995 11.4115 -11.99937
v 59.66495 11.4115 -11.24666
v 59.0402 11.4115 -10.67928
v 59.10508 11.4115 -11.14267
v 59.22841 11.4115 -11.33933
v 58.98174 11.4115 -11.33933
v 59.10508 11.4115 -11.53598
v 58.46202 11.4115 -11.432
v 59.10508 11.4115 -11.33933
v 59.10508 11.4115 -11.06211
v 59.10508 11.4115 -11.61654
v 59.3074 11.4115 -11.33933
v 58.90212 11.4115 -11.33933
#end vertices

#begin 166 textures vertices 
vt 0.8124356 0.1089457 0
vt 0.6882659 0.8964502 0
vt 0.1939331 0.9411634 0
vt 0.9008159 0.7793401 0
vt 0.6586669 0.07924586 0
vt 0.6551684 0.06716489 0
vt 0.01247261 0.2406371 0
vt 0.3793782 0.7615308 0
vt 0.6968247 0.897262 0
vt 0.7586251 0.2479233 0
vt 0.1954896 0.5636849 0
vt 0.8212981 0.1077134 0
vt 0.1057383 0.309175 0
vt 0.03360922 0.7410995 0
vt 0.7632544 0.1996108 0
vt 0.1078365 0.3215786 0
vt 0.1700405 0.8339859 0
vt 0.7694025 0.2209084 0
vt 0.1628471 0.7884256 0
vt 0.1880189 0.8092661 0
vt 0.7704591 0.2252408 0
vt 0.1326458 0.7074322 0
vt 0.8796252 0.7837292 0
vt 0.1775297 0.6978294 0
vt 0.1566888 0.7230007 0
vt 0.8751436 0.7842668 0
vt 0.7860955 0.1126587 0
vt 0.1016874 0.2845821 0
vt 0.7813663 0.113356 0
vt 0.1120557 0.3461776 0
vt 0.6628137 0.89403 0
vt 0.6582328 0.8935947 0
vt 0.6465422 0.03798675 0
vt 0.8476213 0.1042521 0
vt 0.852315 0.1036403 0
vt 0.7222769 0.8996821 0
vt 0.6669751 0.1084734 0
vt 0.726813 0.9001129 0
vt 0.01894546 0.2783778 0
vt 0.7840773 0.2503447 0
vt 0.2118942 0.8070188 0
vt 0.2327336 0.7818474 0
vt 0.7886133 0.2507757 0
vt 0.2193822 0.6708624 0
vt 0.004764966 0.2147719 0
vt 0.2265753 0.7164225 0
vt 0.201405 0.6955821 0
vt 0.00390625 0.21024 0
vt 0.1894672 0.6967057 0
vt 0.1999564 0.8081425 0
vt 0.1597679 0.7557133 0
vt 0.2296545 0.7491351 0
vt 0.6569208 0.07320461 0
vt 0.01375889 0.246086 0
vt 0.7620007 0.1941524 0
vt 0.1067844 0.3153771 0
vt 0.1947118 0.7524241 0
vt 0.6925452 0.8968561 0
vt 0.7543458 0.2475176 0
vt 0.8168663 0.108327 0
vt 0.9044608 0.7788929 0
vt 0.1873187 0.6738808 0
vt 0.2021048 0.8309678 0
vt 0.2522145 0.7470116 0
vt 0.1373886 0.7578198 0
vt 0.8018521 0.009362749 0
vt 0.5602446 0.4481887 0
vt 0.750842 0.04335381 0
vt 0.3310852 0.5671146 0
vt 0.6834272 0.9928386 0
vt 0.4505319 0.809375 0
vt 0.009351027 0.330433 0
vt 0.6564808 0.6858183 0
vt 0.528096 0.5762447 0
vt 0.552407 0.557717 0
vt 0.7664251 0.01480973 0
vt 0.5717547 0.590415 0
vt 0.5462363 0.6034267 0
vt 0.533379 0.6678708 0
vt 0.5519504 0.6896792 0
vt 0.01477269 0.3659134 0
vt 0.5215363 0.7124491 0
vt 0.5061965 0.6860107 0
vt 0.4773976 0.5896926 0
vt 0.4588109 0.5670443 0
vt 0.4707564 0.5515428 0
vt 0.4892403 0.5451145 0
vt 0.5045801 0.571553 0
vt 0.4826806 0.681319 0
vt 0.4583696 0.6998467 0
vt 0.4437677 0.6868175 0
vt 0.7620253 0.07839798 0
vt 0.4645403 0.6541367 0
vt 0.679148 0.9924321 0
vt 0.008392191 0.324222 0
vt 0.5240338 0.4409642 0
vt 0.5163386 0.5738989 0
vt 0.5398077 0.6356489 0
vt 0.4709689 0.6219148 0
vt 0.4944391 0.683665 0
vt 0.3207655 0.6188395 0
vt 0.5053888 0.628782 0
vt 0.5208242 0.5514159 0
vt 0.4899535 0.706148 0
vt 0.5618526 0.6400471 0
vt 0.4487482 0.6174815 0
vt 0.004613126 0.2995956 0
vt 0.5667709 0.571291 0
vt 0.7711497 0.01407363 0
vt 0.5421398 0.4445766 0
vt 0.7974349 0.01004454 0
vt 0.8062697 0.008680543 0
vt 0.8325706 0.004639716 0
vt 0.7381641 0.00390625 0
vt 0.7396156 0.00833734 0
vt 0.7489334 0.03736169 0
vt 0.3259253 0.5929771 0
vt 0.7527505 0.0493456 0
vt 0.4386854 0.6679188 0
vt 0.7176953 0.9960938 0
vt 0.7131592 0.9956629 0
vt 0.4867427 0.8165994 0
vt 0.4686379 0.8129873 0
vt 0.6877067 0.9932451 0
vt 0.6536954 0.9900144 0
vt 0.5400095 0.7054265 0
vt 0.01407245 0.3612591 0
vt 0.6616406 0.6599559 0
vt 0.6668004 0.6340934 0
vt 0.01030947 0.3366436 0
vt 0.1128695 0.350815 0
vt 0.6491145 0.9895792 0
vt 0.1009232 0.2799366 0
vt 0.00390625 0.2949415 0
vt 0.8372489 0.00390625 0
vt 0.6452214 0.03351828 0
vt 0.7634691 0.08283159 0
vt 0.6682463 0.1129567 0
vt 0.2500338 0.8164927 0
vt 0.02010228 0.282921 0
vt 0.2570343 0.7982165 0
vt 0.2341683 0.8279497 0
vt 0.7200334 0.2442553 0
vt 0.1597838 0.8170932 0
vt 0.7564468 0.1622952 0
vt 0.1395702 0.6889223 0
vt 0.2371069 0.6791577 0
vt 0.9342669 0.7775345 0
vt 0.9298386 0.7779827 0
vt 0.1552543 0.6768986 0
vt 0.2473948 0.6958066 0
vt 0.1421315 0.8082073 0
vt 0.7575754 0.1667412 0
vt 0.7246142 0.2446905 0
vt 0.7500663 0.247112 0
vt 0.2123144 0.9394332 0
vt 0.2306948 0.9377031 0
vt 0.03855203 0.7936117 0
vt 0.03608063 0.7673556 0
vt 0.7608745 0.1886659 0
vt 0.9081158 0.7785349 0
vt 0.1771092 0.565415 0
vt 0.1587279 0.5671452 0
vt 0.3744354 0.7090185 0
vt 0.01490148 0.25157 0
vt 0.3769068 0.7352747 0
#end 166 textures vertices 

#begin 76 normals 
vn -0 -1 -0
vn -0 -0 1
vn -0 -0 -1
vn -0.1962 0.0001 0.9806
vn -0.3565 0.0001 0.9343
vn -0.1962 -0 0.9806
vn -1 0.0002 -0
vn -1 0.0004 -0
vn -0.9575 0.0002 0.2884
vn -0.9575 0.0004 0.2884
vn -0.9921 0.0004 0.1252
vn -0.9921 0.0002 0.1252
vn -0.1962 0.0001 -0.9806
vn -0.1962 -0 -0.9806
vn -0.3565 0.0001 -0.9343
vn -0.9575 0.0004 -0.2884
vn -0.9575 0.0002 -0.2884
vn -0.9921 0.0002 -0.1252
vn -0.9921 0.0004 -0.1252
vn 0.9586 -0.0004 0.2847
vn 0.9586 -0.0002 0.2847
vn 0.9921 -0.0002 0.1252
vn 0.9921 -0.0004 0.1252
vn 1 -0.0002 -0
vn 1 -0.0004 -0
vn 0.3867 -0.0001 0.9222
vn 0.2317 -0 0.9728
vn 0.3867 -0 0.9222
vn 0.3867 -0.0002 0.9222
vn 0.2317 -0.0001 0.9728
vn 0.9586 -0.0002 -0.2847
vn 0.9586 -0.0004 -0.2847
vn 0.9921 -0.0004 -0.1252
vn 0.9921 -0.0002 -0.1252
vn 0.8996 -0.0002 -0.4366
vn 0.9586 -0 -0.2847
vn 0.8996 -0 -0.4366
vn 0.9921 -0 -0.1252
vn -1 -0 -0
vn 0.8996 -0.0004 0.4366
vn 0.8996 -0.0002 0.4366
vn 0.5314 -0.0001 0.8471
vn 0.5314 -0.0002 0.8471
vn 0.8996 -0.0004 -0.4366
vn 0.5314 -0.0002 -0.8471
vn 0.5314 -0.0001 -0.8471
vn 0.3867 -0.0001 -0.9222
vn 0.3867 -0.0002 -0.9222
vn -0.8962 0.0002 0.4436
vn -0.8962 0.0004 0.4436
vn -0.5069 0.0002 0.862
vn -0.5069 0.0001 0.862
vn -0.8962 0.0004 -0.4436
vn -0.8962 0.0002 -0.4436
vn -0.5069 0.0001 -0.862
vn -0.5069 0.0002 -0.862
vn 0.2317 -0 -0.9728
vn 0.2317 -0.0001 -0.9728
vn 0.3867 -0 -0.9222
vn 0.5314 -0 -0.8471
vn -0.3565 -0 -0.9343
vn -0.9575 -0 0.2884
vn -0.8962 -0 0.4436
vn -0.9921 -0 0.1252
vn 1 -0 -0
vn -0.3565 -0 0.9343
vn -0.5069 -0 0.862
vn -0.5069 -0 -0.862
vn 0.9586 -0 0.2847
vn 0.9921 -0 0.1252
vn 0.5314 -0 0.8471
vn -0.9575 -0 -0.2884
vn -0.9921 -0 -0.1252
vn -0.8962 -0 -0.4436
vn 0.8996 -0 0.4366
vn -0 1 -0
#end 76 normals 

#begin 112 faces
o Cube:081
s 1
f 62/62/1 49/49/1 24/24/1 23/150/1 
f 61/61/2 4/4/2 1/1/2 60/60/2 
f 58/58/3 2/2/3 3/155/3 59/59/3 
f 7/7/4 45/45/5 33/33/5 6/6/6 
f 65/65/1 51/51/1 19/19/1 18/152/1 
f 63/63/1 17/17/1 20/20/1 50/50/1 
f 53/53/7 54/54/8 7/7/8 6/6/7 
f 34/34/9 44/149/10 11/161/11 12/12/12 
f 57/57/1 50/50/1 20/20/1 19/19/1 
f 8/165/13 5/5/14 37/37/15 39/39/15 
f 64/64/1 52/52/1 46/46/1 45/151/1 
f 40/40/16 36/36/17 9/9/18 10/10/19 
f 23/23/20 27/27/21 1/1/22 4/4/23 
f 56/56/24 55/55/25 15/15/25 16/16/24 
f 28/28/26 13/13/27 95/95/27 77/107/28 
f 28/28/26 22/153/29 14/160/30 13/13/27 
f 31/31/31 17/154/32 3/155/33 2/2/34 
f 20/20/1 18/152/1 19/19/1 
f 25/25/1 23/150/1 24/24/1 
f 12/12/2 60/60/2 66/66/2 96/112/2 
f 32/32/35 31/31/31 82/125/36 81/132/37 
f 31/31/31 2/2/34 94/94/38 82/125/36 
f 53/53/7 6/6/7 69/116/39 68/68/39 
f 42/42/1 40/142/1 41/41/1 
f 44/44/1 48/147/1 45/151/1 46/46/1 
f 27/27/21 23/23/20 26/26/40 29/29/41 
f 29/133/42 26/145/43 22/153/29 28/28/26 
f 17/154/32 31/31/31 32/32/35 21/143/44 
f 21/21/45 32/131/46 30/30/47 18/18/48 
f 44/149/10 34/34/9 35/35/49 48/148/50 
f 48/48/51 35/136/52 33/33/5 45/45/5 
f 36/36/17 40/40/16 43/43/53 38/38/54 
f 38/138/55 43/140/56 39/39/15 37/37/15 
f 18/18/48 30/30/47 16/16/57 15/15/58 
f 57/57/1 49/49/1 47/47/1 46/46/1 
f 5/5/7 8/165/8 54/54/8 53/53/7 
f 13/13/24 14/160/25 55/55/25 56/56/24 
f 22/22/1 25/25/1 51/51/1 65/65/1 
f 39/141/1 42/42/1 52/52/1 64/64/1 
f 42/42/1 41/41/1 50/50/1 57/57/1 
f 57/57/1 51/51/1 25/25/1 
f 52/52/1 42/42/1 57/57/1 
f 49/49/1 57/57/1 25/25/1 24/24/1 
f 52/52/1 57/57/1 46/46/1 
f 51/51/1 57/57/1 19/19/1 
f 9/9/3 58/58/3 59/59/3 10/10/3 
f 11/161/2 61/61/2 60/60/2 12/12/2 
f 40/142/1 63/63/1 50/50/1 41/41/1 
f 44/44/1 47/47/1 49/49/1 62/62/1 
f 11/11/1 44/44/1 62/62/1 61/162/1 
f 61/162/1 62/62/1 23/150/1 4/163/1 
f 10/157/1 59/156/1 63/63/1 40/142/1 
f 59/156/1 3/3/1 17/17/1 63/63/1 
f 54/166/1 64/64/1 45/151/1 7/164/1 
f 8/8/1 39/141/1 64/64/1 54/166/1 
f 14/14/1 22/22/1 65/65/1 55/159/1 
f 55/159/1 65/65/1 18/152/1 15/158/1 
f 16/16/57 30/30/47 80/127/59 73/130/57 
f 30/30/47 32/131/46 81/81/60 80/127/59 
f 37/37/15 5/5/14 101/118/14 92/92/61 
f 35/35/49 34/34/9 87/113/62 86/135/63 
f 2/2/3 58/58/3 70/70/3 94/94/3 
f 5/5/7 53/53/7 68/68/39 101/118/39 
f 34/34/9 12/12/12 96/112/64 87/113/62 
f 56/56/24 16/16/24 73/130/65 72/72/65 
f 6/6/6 33/33/5 85/115/66 69/116/6 
f 33/33/5 35/136/52 86/114/67 85/115/66 
f 60/60/2 1/1/2 67/111/2 66/66/2 
f 58/58/3 9/9/3 71/124/3 70/70/3 
f 38/138/55 37/37/15 92/92/61 91/137/68 
f 1/1/22 27/27/21 75/109/69 67/111/70 
f 29/133/42 28/28/26 77/107/28 76/134/71 
f 9/9/18 36/36/17 90/121/72 71/124/73 
f 36/36/17 38/38/54 91/120/74 90/121/72 
f 27/27/21 29/29/41 76/76/75 75/109/69 
f 13/13/24 56/56/24 72/72/65 95/95/65 
f 103/103/76 75/75/76 74/74/76 97/97/76 
f 105/105/76 98/98/76 78/78/76 77/77/76 
f 104/104/76 100/100/76 83/83/76 82/82/76 
f 106/106/76 99/99/76 93/93/76 92/119/76 
f 102/102/76 97/97/76 74/74/76 78/78/76 
f 75/75/76 76/108/76 77/77/76 78/78/76 
f 79/79/76 82/82/76 83/83/76 
f 84/84/76 87/87/76 88/88/76 
f 89/89/76 92/119/76 93/93/76 
f 102/102/76 100/100/76 89/89/76 93/93/76 
f 87/87/76 103/103/76 97/97/76 88/88/76 
f 90/90/76 89/89/76 100/100/76 104/104/76 
f 84/84/76 88/88/76 97/97/76 102/102/76 
f 102/102/76 98/98/76 79/79/76 
f 80/80/76 79/79/76 98/98/76 105/105/76 
f 85/85/76 84/84/76 99/99/76 106/106/76 
f 68/117/76 106/106/76 92/119/76 101/101/76 
f 69/69/76 85/85/76 106/106/76 68/117/76 
f 96/96/76 66/110/76 103/103/76 87/87/76 
f 66/110/76 67/67/76 75/75/76 103/103/76 
f 71/71/76 90/90/76 104/104/76 70/123/76 
f 70/123/76 104/104/76 82/82/76 94/122/76 
f 73/73/76 80/80/76 105/105/76 72/128/76 
f 72/128/76 105/105/76 77/77/76 95/129/76 
f 99/99/76 84/84/76 102/102/76 
f 100/100/76 102/102/76 79/79/76 83/83/76 
f 99/99/76 102/102/76 93/93/76 
f 98/98/76 102/102/76 78/78/76 
f 74/74/76 75/75/76 78/78/76 
f 85/85/76 86/86/76 87/87/76 84/84/76 
f 90/90/76 91/91/76 92/119/76 89/89/76 
f 80/80/76 81/126/76 82/82/76 79/79/76 
f 22/22/1 26/146/1 23/150/1 25/25/1 
f 17/17/1 21/144/1 18/152/1 20/20/1 
f 39/141/1 43/139/1 40/142/1 42/42/1 
f 47/47/1 44/44/1 46/46/1 
#end 112 faces

#ZOMPROPERTIES_04{
#ZOMPROPERTIES_04 table {Mesh table {SymPlane table {Point vector3d 0 0 0 Normal vector3d 1 0 0 Threshold double 0.01 
#ZOMPROPERTIES_04 Enabled bool false EdgeID int -1 SymEdgeID int -1 UPos double 0.5 LocalMode bool false } RootGroup C
#ZOMPROPERTIES_04 SubMeshGroup {Children table {Tile_0_0 CSubMeshGroup {Children table {} BBoxUV box3d 0 0 0 0 0 0 BBo
#ZOMPROPERTIES_04 x3D box3d 0 0 0 0 0 0 Area3D double 0 AreaUV double 0.307672 IsRoot bool false Properties table {Sel
#ZOMPROPERTIES_04 ected bool false Box box3d 0 1 0 1 0 1 U int 0 V int 0 NU int 0 NV int 0 Tiling vector3d 1 1 1 TileR
#ZOMPROPERTIES_04 atioMode string "1:1" Overflow string "Off" Pack table {BoxFrameEdit bool false Behavior string "Fre
#ZOMPROPERTIES_04 e" } } IsTile bool true PolyIDs ints { 0 42 40 37 4 56 55 17 109 5 47 51 52 23 110 38 10 53 54 24 11
#ZOMPROPERTIES_04 1 34 48 49 50 43 41 39 8 108 44 18 76 86 88 83 105 91 79 92 93 84 106 87 78 97 96 82 107 90 77 99 98
#ZOMPROPERTIES_04  81 103 80 89 101 85 102 100 94 95 104 2 16 27 20 21 61 68 72 73 31 11 45 1 67 70 74 25 12 19 63 7 4
#ZOMPROPERTIES_04 6 29 60 13 33 28 58 57 64 36 15 26 71 14 75 3 65 66 22 6 35 9 32 69 59 62 30 } } } BBoxUV box3d 0 0 
#ZOMPROPERTIES_04 0 0 0 0 BBox3D box3d 0 0 0 0 0 0 Area3D double 0 AreaUV double 0 IsRoot bool true Properties table {
#ZOMPROPERTIES_04 Selected bool false Box box3d 0 1 0 1 0 1 U int 0 V int 0 NU int 1 NV int 1 Tiling vector3d 1 1 1 Ti
#ZOMPROPERTIES_04 leRatioMode string "1:1" Overflow string "Off" Pack table {Rotate table {Mode int 0 Min double 0 Max
#ZOMPROPERTIES_04  double 90 Step double 0 } PaddingSize double 0.0078125 MarginSize double 0.00390625 Resolution int 
#ZOMPROPERTIES_04 256 MapResolution int 2048 Scaling table {TexelDensity double 1024 Mode int 2 } LayoutScalingMode in
#ZOMPROPERTIES_04 t 2 MaxMutations int 1 } } IsTile bool false PolyIDs ints { } } Maps table {Pin table {PrimType stri
#ZOMPROPERTIES_04 ng "Vertex" Size int 1 DefaultValue double 0 ScaleType string "Normalized" MergeMode string "Max" Mi
#ZOMPROPERTIES_04 nValue double 0 MaxValue double 1 Data doubles { r 166 0 } } Density table {PrimType string "Polygon
#ZOMPROPERTIES_04 " Size int 1 DefaultValue double 1 ScaleType string "Log" MergeMode string "Average" MinValue double
#ZOMPROPERTIES_04  0.1 MaxValue double 4 Data doubles { r 112 1 } } Protect table {PrimType string "Vertex" Size int 1
#ZOMPROPERTIES_04  DefaultValue double 0 ScaleType string "Normalized" MergeMode string "Average" MinValue double -1 M
#ZOMPROPERTIES_04 axValue double 1 Data doubles { r 166 0 } } } } }
#ZOMPROPERTIES_04}


#ZOMSCENE_01{
#ZOMSCENE_01 CScene {Settings table {AxisSystem table {UpVector string "y" } Unit string "cm" TexelDensityDisplay
#ZOMSCENE_01 Unit string "tx/cm" } Root table {} }
#ZOMSCENE_01}

#begin 0 fatal error vertex (that RizomUV cannot handle)
#end 0 fatal error vertex (that RizomUV cannot handle)

#begin 0 error vertex
#end 0 error vertex
