#File written by RizomUV 2023.0.70.ge90189e8. Compilation :Sep 22 2023,12:42:11
mtllib CUARTO TRONCO.mtl
#begin vertices
v 38.35024 31.53696 31.95641
v 1.84817 33.14917 31.62326
v 1.84817 33.14917 31.80813
v 38.35024 31.53696 31.62326
v 1.84817 33.14917 31.95642
v 1.84817 31.53696 31.62326
v 1.84817 31.53696 31.95642
v 38.35024 33.14917 31.80813
v 38.35024 33.14917 31.62326
v 38.35024 33.14917 31.95641
#end vertices

#begin 14 textures vertices 
vt 0.9292115 0.9384789 0
vt 0.02260973 0.1704625 0
vt 0.02673237 0.1660907 0
vt 0.936641 0.9306003 0
vt 0.03003931 0.1625839 0
vt 0.1174647 0.08061538 0
vt 0.06599278 0.1244575 0
vt 0.889951 0.9801121 0
vt 0.9810324 0.8232631 0
vt 0.893258 0.9766053 0
vt 0.1518832 0.04399375 0
vt 0.8858284 0.9844839 0
vt 0.9466139 0.8598847 0
vt 0.07342237 0.1165789 0
#end 14 textures vertices 

#begin 4 normals 
vn -0 -0 -1
vn -0 1 -0
vn -0 -1 -0
vn -0 -0 1
#end 4 normals 

#begin 5 faces
o Plane:117
s 1
f 4/13/1 6/6/1 2/11/1 9/9/1 
f 8/8/2 3/3/2 5/5/2 10/10/2 
f 9/12/2 2/2/2 3/3/2 8/8/2 
f 7/7/3 6/14/3 4/4/3 1/1/3 
f 10/10/4 5/5/4 7/7/4 1/1/4 
#end 5 faces

#ZOMPROPERTIES_04{
#ZOMPROPERTIES_04 table {Mesh table {SymPlane table {Point vector3d 0 0 0 Normal vector3d 1 0 0 Threshold double 0.01 
#ZOMPROPERTIES_04 Enabled bool false EdgeID int -1 SymEdgeID int -1 UPos double 0.5 LocalMode bool false } RootGroup C
#ZOMPROPERTIES_04 SubMeshGroup {Children table {Tile_0_0 CSubMeshGroup {Children table {} BBoxUV box3d 0 0 0 0 0 0 BBo
#ZOMPROPERTIES_04 x3D box3d 0 0 0 0 0 0 Area3D double 0 AreaUV double 0.145062 IsRoot bool false Properties table {Sel
#ZOMPROPERTIES_04 ected bool false Box box3d 0 1 0 1 0 1 U int 0 V int 0 NU int 0 NV int 0 Tiling vector3d 1 1 1 TileR
#ZOMPROPERTIES_04 atioMode string "1:1" Overflow string "Off" Pack table {BoxFrameEdit bool false Behavior string "Fre
#ZOMPROPERTIES_04 e" } } IsTile bool true PolyIDs ints { 0 1 4 3 2 } } } BBoxUV box3d 0 0 0 0 0 0 BBox3D box3d 0 0 0 0
#ZOMPROPERTIES_04  0 0 Area3D double 0 AreaUV double 0 IsRoot bool true Properties table {Selected bool false Box box3
#ZOMPROPERTIES_04 d 0 1 0 1 0 1 U int 0 V int 0 NU int 1 NV int 1 Tiling vector3d 1 1 1 TileRatioMode string "1:1" Ove
#ZOMPROPERTIES_04 rflow string "Off" Pack table {Rotate table {Mode int 0 Min double 0 Max double 90 Step double 0 } P
#ZOMPROPERTIES_04 addingSize double 0.0078125 MarginSize double 0.00390625 Resolution int 256 MapResolution int 2048 S
#ZOMPROPERTIES_04 caling table {TexelDensity double 1024 Mode int 2 } LayoutScalingMode int 2 MaxMutations int 1 } } I
#ZOMPROPERTIES_04 sTile bool false PolyIDs ints { } } Maps table {Pin table {PrimType string "Vertex" Size int 1 Defau
#ZOMPROPERTIES_04 ltValue double 0 ScaleType string "Normalized" MergeMode string "Max" MinValue double 0 MaxValue dou
#ZOMPROPERTIES_04 ble 1 Data doubles { r 14 0 } } Density table {PrimType string "Polygon" Size int 1 DefaultValue dou
#ZOMPROPERTIES_04 ble 1 ScaleType string "Log" MergeMode string "Average" MinValue double 0.1 MaxValue double 4 Data d
#ZOMPROPERTIES_04 oubles { r 5 1 } } Protect table {PrimType string "Vertex" Size int 1 DefaultValue double 0 ScaleTyp
#ZOMPROPERTIES_04 e string "Normalized" MergeMode string "Average" MinValue double -1 MaxValue double 1 Data doubles {
#ZOMPROPERTIES_04  r 14 0 } } } } }
#ZOMPROPERTIES_04}


#ZOMSCENE_01{
#ZOMSCENE_01 CScene {Settings table {AxisSystem table {UpVector string "y" } Unit string "cm" TexelDensityDisplay
#ZOMSCENE_01 Unit string "tx/cm" } Root table {} }
#ZOMSCENE_01}

#begin 0 fatal error vertex (that RizomUV cannot handle)
#end 0 fatal error vertex (that RizomUV cannot handle)

#begin 0 error vertex
#end 0 error vertex
