#File written by RizomUV 2023.0.70.ge90189e8. Compilation :Sep 22 2023,12:42:11
mtllib arnet.mtl
#begin vertices
v 29.22309 14.74629 37.82718
v 29.22309 15.26234 37.82718
v 29.22309 14.74629 35.82718
v 29.22309 15.52193 35.82718
v 32.41204 14.74629 37.82718
v 32.41204 15.26234 37.82718
v 32.41204 14.74629 35.82718
v 32.41204 15.52193 35.82718
v 29.17749 15.00432 37.85577
v 29.17749 15.00432 35.79859
v 32.45763 15.00432 35.79859
v 32.45763 15.00432 37.85577
v 29.44719 15.13404 35.84098
v 29.44719 15.14621 35.61438
v 29.486 15.14087 35.84135
v 29.486 15.15304 35.61475
v 29.52012 15.16054 35.8424
v 29.52012 15.17272 35.61581
v 29.54545 15.19069 35.84402
v 29.54545 15.20286 35.61743
v 29.55893 15.22766 35.84601
v 29.55893 15.23983 35.61941
v 29.55893 15.26701 35.84812
v 29.55893 15.27918 35.62153
v 29.54545 15.30398 35.85011
v 29.54545 15.31616 35.62352
v 29.52012 15.33413 35.85173
v 29.52012 15.3463 35.62513
v 29.486 15.3538 35.85278
v 29.486 15.36597 35.62619
v 29.44719 15.36063 35.85315
v 29.44719 15.3728 35.62656
v 29.40838 15.3538 35.85278
v 29.40838 15.36597 35.62619
v 29.37426 15.33413 35.85173
v 29.37426 15.3463 35.62513
v 29.34893 15.30398 35.85011
v 29.34893 15.31616 35.62352
v 29.33545 15.26701 35.84812
v 29.33545 15.27918 35.62153
v 29.33545 15.22766 35.84601
v 29.33545 15.23983 35.61941
v 29.34893 15.19069 35.84402
v 29.34893 15.20286 35.61743
v 29.37426 15.16054 35.8424
v 29.37426 15.17272 35.61581
v 29.40838 15.14087 35.84135
v 29.40838 15.15304 35.61475
v 29.44719 15.14012 35.72768
v 29.486 15.14696 35.72805
v 29.52012 15.16663 35.72911
v 29.54545 15.19677 35.73072
v 29.55893 15.23375 35.73271
v 29.55893 15.27309 35.73483
v 29.54545 15.31007 35.73681
v 29.52012 15.34021 35.73843
v 29.486 15.35989 35.73949
v 29.44719 15.36672 35.73986
v 29.40838 15.35989 35.73949
v 29.37426 15.34021 35.73843
v 29.34893 15.31007 35.73681
v 29.33545 15.27309 35.73483
v 29.33545 15.23375 35.73271
v 29.34893 15.19677 35.73072
v 29.37426 15.16663 35.72911
v 29.40838 15.14696 35.72805
v 29.44719 15.15442 35.84207
v 29.47902 15.16002 35.84237
v 29.47902 15.16611 35.72908
v 29.507 15.17616 35.84324
v 29.507 15.18224 35.72994
v 29.52777 15.20088 35.84457
v 29.52777 15.20696 35.73127
v 29.53882 15.2312 35.8462
v 29.53882 15.23729 35.7329
v 29.53882 15.26347 35.84793
v 29.53882 15.26956 35.73463
v 29.52777 15.29379 35.84956
v 29.52777 15.29988 35.73626
v 29.507 15.31851 35.85089
v 29.507 15.3246 35.73759
v 29.47902 15.33464 35.85176
v 29.47902 15.34073 35.73846
v 29.44719 15.34025 35.85206
v 29.44719 15.34633 35.73876
v 29.41537 15.33464 35.85176
v 29.41537 15.34073 35.73846
v 29.38738 15.31851 35.85089
v 29.38738 15.3246 35.73759
v 29.36661 15.29379 35.84956
v 29.36661 15.29988 35.73626
v 29.35556 15.26347 35.84793
v 29.35556 15.26956 35.73463
v 29.35556 15.2312 35.8462
v 29.35556 15.23729 35.7329
v 29.36661 15.20088 35.84457
v 29.36661 15.20696 35.73127
v 29.38738 15.17616 35.84324
v 29.38738 15.18224 35.72994
v 29.41537 15.16002 35.84237
v 29.41537 15.16611 35.72908
v 29.44719 15.16051 35.72877
v 29.486 15.16351 35.42002
v 29.44719 15.15667 35.41965
v 29.52012 15.18318 35.42107
v 29.54545 15.21332 35.42269
v 29.55893 15.2503 35.42468
v 29.55893 15.28964 35.42679
v 29.54545 15.32662 35.42878
v 29.52012 15.35676 35.4304
v 29.486 15.37643 35.43146
v 29.44719 15.38327 35.43182
v 29.40838 15.37643 35.43146
v 29.37426 15.35676 35.4304
v 29.34893 15.32662 35.42878
v 29.33545 15.28964 35.42679
v 29.33545 15.2503 35.42468
v 29.34893 15.21332 35.42269
v 29.37426 15.18318 35.42107
v 29.40838 15.16351 35.42002
v 29.486 15.30664 35.18572
v 29.44719 15.30103 35.18181
v 29.52012 15.3228 35.197
v 29.54545 15.34756 35.21426
v 29.55893 15.37793 35.23545
v 29.55893 15.41025 35.25799
v 29.54545 15.44062 35.27918
v 29.52012 15.46538 35.29644
v 29.486 15.48154 35.30771
v 29.44719 15.48715 35.31163
v 29.40838 15.48154 35.30771
v 29.37426 15.46538 35.29644
v 29.34893 15.44062 35.27918
v 29.33545 15.41025 35.25799
v 29.33545 15.37793 35.23545
v 29.34893 15.34756 35.21426
v 29.37426 15.3228 35.197
v 29.40838 15.30664 35.18572
v 29.2498 16.71435 34.79353
v 29.22827 16.70094 34.78934
v 29.26727 16.72885 34.8056
v 29.27858 16.74268 34.82409
v 29.28235 16.75418 34.84678
v 29.27813 16.76195 34.87092
v 29.26644 16.76508 34.8936
v 29.24868 16.76317 34.91209
v 29.227 16.75645 34.92416
v 29.204 16.74574 34.92836
v 29.18247 16.73233 34.92416
v 29.165 16.71784 34.91209
v 29.15369 16.70401 34.8936
v 29.14992 16.69251 34.87092
v 29.15414 16.68473 34.84678
v 29.16583 16.68161 34.82409
v 29.18359 16.68352 34.8056
v 29.20527 16.69024 34.79353
v 29.26773 16.70956 34.75874
v 29.23473 16.68901 34.75232
v 29.29451 16.73178 34.77724
v 29.31183 16.75297 34.80558
v 29.31761 16.7706 34.84035
v 29.31116 16.78252 34.87735
v 29.29324 16.7873 34.91211
v 29.26602 16.78437 34.94046
v 29.23278 16.77408 34.95895
v 29.19754 16.75767 34.96538
v 29.16454 16.73712 34.95895
v 29.13776 16.71491 34.94046
v 29.12044 16.69371 34.91211
v 29.11465 16.67609 34.87735
v 29.12111 16.66417 34.84035
v 29.13903 16.65938 34.80558
v 29.16625 16.66231 34.77724
v 29.19948 16.6726 34.75874
v 28.73407 18.49381 34.04895
v 28.71016 18.48534 34.04475
v 28.75425 18.50421 34.06102
v 28.76826 18.51528 34.07951
v 28.77442 18.5257 34.1022
v 28.77197 18.53421 34.12633
v 28.76123 18.53977 34.14902
v 28.74347 18.54172 34.16751
v 28.72085 18.53982 34.17958
v 28.69609 18.53431 34.18377
v 28.67218 18.52584 34.17958
v 28.652 18.51544 34.16751
v 28.63799 18.50436 34.14902
v 28.63183 18.49394 34.12633
v 28.63427 18.48544 34.1022
v 28.64502 18.47988 34.07951
v 28.66278 18.47793 34.06102
v 28.6854 18.47983 34.04895
v 32.16932 15.13404 35.84098
v 32.16932 15.14621 35.61438
v 32.20813 15.14087 35.84135
v 32.20813 15.15304 35.61475
v 32.24225 15.16054 35.8424
v 32.24225 15.17272 35.61581
v 32.26758 15.19069 35.84402
v 32.26758 15.20286 35.61743
v 32.28106 15.22766 35.84601
v 32.28106 15.23983 35.61941
v 32.28106 15.26701 35.84812
v 32.28106 15.27918 35.62153
v 32.26758 15.30398 35.85011
v 32.26758 15.31616 35.62352
v 32.24225 15.33413 35.85173
v 32.24225 15.3463 35.62513
v 32.20813 15.3538 35.85279
v 32.20813 15.36597 35.62619
v 32.16932 15.36063 35.85315
v 32.16932 15.3728 35.62656
v 32.13052 15.3538 35.85279
v 32.13052 15.36597 35.62619
v 32.09639 15.33413 35.85173
v 32.09639 15.3463 35.62513
v 32.07106 15.30398 35.85011
v 32.07106 15.31616 35.62352
v 32.05759 15.26701 35.84812
v 32.05759 15.27918 35.62153
v 32.05759 15.22766 35.84601
v 32.05759 15.23983 35.61941
v 32.07106 15.19069 35.84402
v 32.07106 15.20286 35.61743
v 32.09639 15.16054 35.8424
v 32.09639 15.17272 35.61581
v 32.13052 15.14087 35.84135
v 32.13052 15.15304 35.61475
v 32.16932 15.14012 35.72768
v 32.20813 15.14696 35.72805
v 32.24225 15.16663 35.72911
v 32.26758 15.19677 35.73072
v 32.28106 15.23375 35.73271
v 32.28106 15.27309 35.73483
v 32.26758 15.31007 35.73681
v 32.24225 15.34021 35.73843
v 32.20813 15.35989 35.73949
v 32.16932 15.36672 35.73986
v 32.13052 15.35989 35.73949
v 32.09639 15.34021 35.73843
v 32.07106 15.31007 35.73681
v 32.05759 15.27309 35.73483
v 32.05759 15.23375 35.73271
v 32.07106 15.19677 35.73072
v 32.09639 15.16663 35.72911
v 32.13052 15.14696 35.72805
v 32.16932 15.15442 35.84208
v 32.20114 15.16002 35.84237
v 32.20114 15.16611 35.72908
v 32.22913 15.17616 35.84324
v 32.22913 15.18224 35.72995
v 32.2499 15.20088 35.84457
v 32.2499 15.20696 35.73127
v 32.26096 15.2312 35.8462
v 32.26096 15.23729 35.7329
v 32.26096 15.26347 35.84793
v 32.26096 15.26956 35.73463
v 32.2499 15.29379 35.84956
v 32.2499 15.29988 35.73626
v 32.22913 15.31851 35.85089
v 32.22913 15.3246 35.73759
v 32.20114 15.33464 35.85176
v 32.20114 15.34073 35.73846
v 32.16932 15.34025 35.85206
v 32.16932 15.34633 35.73876
v 32.1375 15.33464 35.85176
v 32.1375 15.34073 35.73846
v 32.10951 15.31851 35.85089
v 32.10951 15.3246 35.73759
v 32.08874 15.29379 35.84956
v 32.08874 15.29988 35.73626
v 32.07769 15.26347 35.84793
v 32.07769 15.26956 35.73463
v 32.07769 15.2312 35.8462
v 32.07769 15.23729 35.7329
v 32.08874 15.20088 35.84457
v 32.08874 15.20696 35.73127
v 32.10951 15.17616 35.84324
v 32.10951 15.18224 35.72995
v 32.1375 15.16002 35.84237
v 32.1375 15.16611 35.72908
v 32.16932 15.16051 35.72877
v 32.20813 15.16351 35.42002
v 32.16932 15.15667 35.41965
v 32.24225 15.18318 35.42107
v 32.26758 15.21332 35.42269
v 32.28106 15.2503 35.42468
v 32.28106 15.28964 35.42679
v 32.26758 15.32662 35.42878
v 32.24225 15.35676 35.4304
v 32.20813 15.37644 35.43146
v 32.16932 15.38327 35.43182
v 32.13052 15.37644 35.43146
v 32.09639 15.35676 35.4304
v 32.07106 15.32662 35.42878
v 32.05759 15.28964 35.42679
v 32.05759 15.2503 35.42468
v 32.07106 15.21332 35.42269
v 32.09639 15.18318 35.42107
v 32.13052 15.16351 35.42002
v 32.20813 15.30664 35.18573
v 32.16932 15.30103 35.18181
v 32.24225 15.3228 35.197
v 32.26758 15.34756 35.21426
v 32.28106 15.37793 35.23545
v 32.28106 15.41025 35.25799
v 32.26758 15.44062 35.27918
v 32.24225 15.46538 35.29644
v 32.20813 15.48154 35.30771
v 32.16932 15.48715 35.31163
v 32.13052 15.48154 35.30771
v 32.09639 15.46538 35.29644
v 32.07106 15.44062 35.27918
v 32.05759 15.41025 35.25799
v 32.05759 15.37793 35.23545
v 32.07106 15.34756 35.21426
v 32.09639 15.3228 35.197
v 32.13052 15.30664 35.18573
v 32.42699 16.69243 34.79353
v 32.40257 16.69928 34.78934
v 32.44947 16.68931 34.8056
v 32.46731 16.69029 34.82409
v 32.47834 16.69526 34.84678
v 32.48124 16.70362 34.87092
v 32.47566 16.71436 34.8936
v 32.46227 16.72618 34.91209
v 32.44268 16.73766 34.92416
v 32.41927 16.74741 34.92836
v 32.39484 16.75426 34.92416
v 32.37236 16.75738 34.91209
v 32.35452 16.7564 34.8936
v 32.34349 16.75143 34.87092
v 32.34059 16.74307 34.84678
v 32.34617 16.73233 34.82409
v 32.35956 16.72051 34.8056
v 32.37915 16.70903 34.79353
v 32.43555 16.67596 34.75874
v 32.39812 16.68646 34.75232
v 32.47001 16.67118 34.77724
v 32.49735 16.67269 34.80558
v 32.51426 16.68031 34.84035
v 32.5187 16.69312 34.87735
v 32.51014 16.70957 34.91211
v 32.48962 16.72769 34.94046
v 32.45961 16.74528 34.95895
v 32.42371 16.76023 34.96538
v 32.38628 16.77073 34.95895
v 32.35182 16.77551 34.94046
v 32.32449 16.774 34.91211
v 32.30758 16.76638 34.87735
v 32.30313 16.75357 34.84035
v 32.31169 16.73712 34.80558
v 32.33221 16.719 34.77724
v 32.36223 16.70141 34.75874
v 32.46982 17.9459 35.27206
v 32.44518 17.94719 35.26482
v 32.49048 17.94456 35.28731
v 32.50467 17.94335 35.30871
v 32.51069 17.9424 35.33369
v 32.5078 17.94182 35.35923
v 32.49636 17.9417 35.38226
v 32.47775 17.94204 35.39999
v 32.4542 17.9428 35.41028
v 32.42857 17.94388 35.4119
v 32.40393 17.94517 35.40465
v 32.38327 17.94651 35.38941
v 32.36908 17.94772 35.36801
v 32.36306 17.94867 35.34303
v 32.36594 17.94925 35.31749
v 32.37738 17.94937 35.29446
v 32.396 17.94903 35.27673
v 32.41955 17.94827 35.26644
#end vertices

#begin 515 textures vertices 
vt 0.1563653 0.190284 0
vt 0.1082027 0.2109473 0
vt 0.5064286 0.960667 0
vt 0.00390625 0.03528488 0
vt 0.04516482 0.5712571 0
vt 0.2346604 0.5065468 0
vt 0.1014142 0.6266713 0
vt 0.2931141 0.7053151 0
vt 0.1317328 0.1994455 0
vt 0.05092092 0.011743 0
vt 0.3400257 0.6822211 0
vt 0.2591283 0.49731 0
vt 0.081788 0.3818347 0
vt 0.5293737 0.4639605 0
vt 0.1398065 0.3686162 0
vt 0.5320824 0.4723003 0
vt 0.1361784 0.3683868 0
vt 0.5350016 0.4805269 0
vt 0.1326396 0.3683529 0
vt 0.5379787 0.4886688 0
vt 0.1291494 0.3684429 0
vt 0.5410285 0.4966254 0
vt 0.1256505 0.3685206 0
vt 0.5440235 0.5045136 0
vt 0.1221251 0.3687685 0
vt 0.5467708 0.5122153 0
vt 0.1186282 0.3692284 0
vt 0.5489837 0.5198529 0
vt 0.1151337 0.3696952 0
vt 0.5508229 0.5275283 0
vt 0.1116243 0.3702646 0
vt 0.5518444 0.5351815 0
vt 0.108165 0.3710876 0
vt 0.5522298 0.5428819 0
vt 0.1047582 0.3719998 0
vt 0.5517991 0.5506966 0
vt 0.1013508 0.37292 0
vt 0.5509623 0.5585375 0
vt 0.09799503 0.3740492 0
vt 0.5495898 0.566538 0
vt 0.09471741 0.3753312 0
vt 0.5480182 0.5748151 0
vt 0.09143403 0.3765894 0
vt 0.5464279 0.5831895 0
vt 0.08823266 0.3780833 0
vt 0.5450368 0.5918074 0
vt 0.08498242 0.379656 0
vt 0.5267295 0.4555332 0
vt 0.5059791 0.4719658 0
vt 0.5088997 0.479719 0
vt 0.5116052 0.487457 0
vt 0.5145015 0.4949655 0
vt 0.5171214 0.5023477 0
vt 0.519816 0.509497 0
vt 0.5220067 0.5164904 0
vt 0.5240207 0.5233353 0
vt 0.5255932 0.5301039 0
vt 0.5263509 0.5368619 0
vt 0.5268459 0.5436428 0
vt 0.5265111 0.5505611 0
vt 0.5257979 0.5576515 0
vt 0.5248522 0.5649391 0
vt 0.5233906 0.5725118 0
vt 0.5217935 0.5803968 0
vt 0.5196355 0.5885379 0
vt 0.5029863 0.4640629 0
vt 0.08328789 0.383206 0
vt 0.1394664 0.3706717 0
vt 0.504761 0.4812788 0
vt 0.136084 0.3704371 0
vt 0.5076063 0.4888634 0
vt 0.1326517 0.3703836 0
vt 0.5101429 0.4964476 0
vt 0.1291968 0.3703784 0
vt 0.512928 0.5037101 0
vt 0.1257483 0.3705463 0
vt 0.126472 0.3819855 0
vt 0.1223102 0.3708636 0
vt 0.1233944 0.3821813 0
vt 0.1188582 0.3711602 0
vt 0.1203461 0.3825503 0
vt 0.1154361 0.3717089 0
vt 0.1173043 0.38296 0
vt 0.1120365 0.3723262 0
vt 0.114283 0.3835494 0
vt 0.1086603 0.3730628 0
vt 0.1112678 0.3841683 0
vt 0.1052894 0.3738715 0
vt 0.1083039 0.3849611 0
vt 0.1019871 0.3749248 0
vt 0.5212629 0.5571602 0
vt 0.09869049 0.3759554 0
vt 0.5205874 0.5642902 0
vt 0.09544542 0.3771386 0
vt 0.5190917 0.571565 0
vt 0.0922761 0.3785132 0
vt 0.5174902 0.5790193 0
vt 0.08911049 0.3798522 0
vt 0.5154979 0.5860993 0
vt 0.08609826 0.3814088 0
vt 0.4989746 0.4662028 0
vt 0.5018994 0.4736868 0
vt 0.570604 0.464495 0
vt 0.5687878 0.4558742 0
vt 0.5732447 0.4730156 0
vt 0.5766197 0.481345 0
vt 0.5806942 0.4894928 0
vt 0.5851561 0.497498 0
vt 0.5898813 0.5056169 0
vt 0.5942677 0.514013 0
vt 0.5975418 0.5227521 0
vt 0.599492 0.5318218 0
vt 0.5994751 0.5409758 0
vt 0.5979586 0.5499044 0
vt 0.595117 0.5585266 0
vt 0.5917633 0.5668433 0
vt 0.5886304 0.5750209 0
vt 0.5860438 0.5834116 0
vt 0.567918 0.4386356 0
vt 0.5678898 0.4471992 0
vt 0.6200689 0.4654005 0
vt 0.6204671 0.4566548 0
vt 0.6209552 0.4740622 0
vt 0.6231107 0.4823197 0
vt 0.6264141 0.4899944 0
vt 0.6305438 0.4971719 0
vt 0.6349624 0.5042505 0
vt 0.6390281 0.5117422 0
vt 0.6421765 0.5199393 0
vt 0.6440275 0.5287842 0
vt 0.6444144 0.5379483 0
vt 0.6432794 0.5469935 0
vt 0.6407406 0.5555217 0
vt 0.6370762 0.5633224 0
vt 0.6327341 0.5705105 0
vt 0.62829 0.5775161 0
vt 0.624296 0.5848221 0
vt 0.6221353 0.4482076 0
vt 0.9784899 0.7013762 0
vt 0.946946 0.4594614 0
vt 0.9774227 0.694918 0
vt 0.9535896 0.4842511 0
vt 0.9542284 0.4932709 0
vt 0.9540084 0.5023701 0
vt 0.9540734 0.5114789 0
vt 0.9533124 0.5205027 0
vt 0.950856 0.5290717 0
vt 0.9480328 0.5372965 0
vt 0.9460246 0.5454968 0
vt 0.9440635 0.5534362 0
vt 0.9415652 0.5610334 0
vt 0.940599 0.5685698 0
vt 0.9402626 0.5758432 0
vt 0.9407988 0.5826685 0
vt 0.9444709 0.4459522 0
vt 0.9448241 0.4523241 0
vt 0.9409209 0.4686284 0
vt 0.9384882 0.4603938 0
vt 0.9431999 0.4768938 0
vt 0.9449574 0.4852613 0
vt 0.9460942 0.4937297 0
vt 0.9464442 0.5022528 0
vt 0.9459343 0.5107459 0
vt 0.9446302 0.5191278 0
vt 0.9426951 0.527363 0
vt 0.9403121 0.5354665 0
vt 0.9376948 0.5435096 0
vt 0.9352069 0.5516014 0
vt 0.9332016 0.5598431 0
vt 0.931894 0.5682673 0
vt 0.9315305 0.5768364 0
vt 0.9321938 0.5854602 0
vt 0.9338747 0.5940506 0
vt 0.936178 0.4520916 0
vt 0.4701444 0.7071426 0
vt 0.4701698 0.7136892 0
vt 0.4701828 0.7005967 0
vt 0.4702749 0.6940512 0
vt 0.4704017 0.6875059 0
vt 0.4705426 0.6809616 0
vt 0.2516262 0.1120969 0
vt 0.4707724 0.6678718 0
vt 0.47082 0.6613256 0
vt 0.4708044 0.6547797 0
vt 0.4707211 0.6482342 0
vt 0.4705748 0.6416896 0
vt 0.4703772 0.6351462 0
vt 0.4701471 0.6286047 0
vt 0.4699065 0.6220634 0
vt 0.2999222 0.1194076 0
vt 0.4704189 0.7267785 0
vt 0.4702624 0.7202344 0
vt 0.01338591 0.3943304 0
vt 0.5664083 0.7612881 0
vt 0.0669937 0.3684231 0
vt 0.5689461 0.7695893 0
vt 0.06340192 0.368919 0
vt 0.5716491 0.7777725 0
vt 0.05989276 0.3696449 0
vt 0.5743074 0.7857975 0
vt 0.05645294 0.3704827 0
vt 0.5770829 0.7936668 0
vt 0.05308493 0.3714696 0
vt 0.5795752 0.8014013 0
vt 0.04971696 0.3724849 0
vt 0.5816426 0.8089 0
vt 0.04635605 0.3736455 0
vt 0.5832589 0.8163755 0
vt 0.04306884 0.3750094 0
vt 0.5842067 0.8237887 0
vt 0.03982154 0.3764226 0
vt 0.5842053 0.8311473 0
vt 0.03664994 0.3779776 0
vt 0.5835278 0.8384967 0
vt 0.03353677 0.3795933 0
vt 0.5819276 0.8459068 0
vt 0.0305103 0.3813324 0
vt 0.5797124 0.8533676 0
vt 0.02746736 0.3830654 0
vt 0.5771119 0.8608507 0
vt 0.02447744 0.3849664 0
vt 0.5741276 0.8685322 0
vt 0.02163607 0.3870703 0
vt 0.5708942 0.8763148 0
vt 0.01876446 0.3891676 0
vt 0.5677826 0.8842604 0
vt 0.01602654 0.3915146 0
vt 0.5646186 0.8923263 0
vt 0.541887 0.7680666 0
vt 0.5451851 0.7759602 0
vt 0.5479409 0.7835694 0
vt 0.5506011 0.7908672 0
vt 0.5528841 0.7979444 0
vt 0.5550896 0.8047515 0
vt 0.5566204 0.8113666 0
vt 0.5579609 0.8178058 0
vt 0.5587761 0.824104 0
vt 0.5586683 0.8303405 0
vt 0.5582217 0.8365835 0
vt 0.5568705 0.8428688 0
vt 0.5550168 0.8492882 0
vt 0.5529968 0.8558912 0
vt 0.550333 0.8626418 0
vt 0.5476012 0.8696546 0
vt 0.5444973 0.8768368 0
vt 0.5412587 0.8843025 0
vt 0.01515416 0.3953148 0
vt 0.06705543 0.3704679 0
vt 0.5412162 0.7778168 0
vt 0.06371066 0.3710057 0
vt 0.5436811 0.7851313 0
vt 0.06033779 0.3716408 0
vt 0.5463512 0.7921998 0
vt 0.056984 0.3724384 0
vt 0.5486322 0.7990795 0
vt 0.05363916 0.3733253 0
vt 0.05694985 0.3843977 0
vt 0.05035072 0.3744165 0
vt 0.05401126 0.385291 0
vt 0.04710469 0.375613 0
vt 0.05110609 0.3862909 0
vt 0.04388787 0.3768795 0
vt 0.04823285 0.3873885 0
vt 0.04070897 0.3782438 0
vt 0.04542957 0.3886511 0
vt 0.03760152 0.3797709 0
vt 0.04264102 0.3899399 0
vt 0.03452729 0.3813532 0
vt 0.03992142 0.3913871 0
vt 0.03148348 0.3830051 0
vt 0.5506922 0.8483011 0
vt 0.02852935 0.3847951 0
vt 0.5488399 0.8547067 0
vt 0.02565758 0.3867052 0
vt 0.5461683 0.8612259 0
vt 0.02281337 0.3886446 0
vt 0.5434472 0.8680467 0
vt 0.02011546 0.3907796 0
vt 0.5403509 0.8750004 0
vt 0.01747951 0.3929182 0
vt 0.5374731 0.8821856 0
vt 0.5338444 0.888704 0
vt 0.6076355 0.7646772 0
vt 0.6057749 0.7560646 0
vt 0.6102926 0.7731642 0
vt 0.613665 0.7814574 0
vt 0.6175511 0.7895001 0
vt 0.6217547 0.7974254 0
vt 0.6260053 0.8055452 0
vt 0.6293598 0.8140039 0
vt 0.6313543 0.8229307 0
vt 0.6317635 0.8321401 0
vt 0.6300279 0.8413298 0
vt 0.6269463 0.8502105 0
vt 0.6228463 0.8586951 0
vt 0.6181622 0.8669262 0
vt 0.6137309 0.8750208 0
vt 0.6096903 0.8831911 0
vt 0.6061556 0.891521 0
vt 0.6032919 0.899982 0
vt 0.6548555 0.7682755 0
vt 0.6529828 0.759781 0
vt 0.65773 0.7762897 0
vt 0.6614638 0.783758 0
vt 0.6657005 0.7909326 0
vt 0.6698789 0.7983155 0
vt 0.6734024 0.8063366 0
vt 0.6758172 0.8150943 0
vt 0.6768481 0.8243596 0
vt 0.6763732 0.8337237 0
vt 0.6744709 0.8427386 0
vt 0.6712949 0.8510745 0
vt 0.6672417 0.8586801 0
vt 0.6628812 0.865859 0
vt 0.6588489 0.873134 0
vt 0.6556427 0.880906 0
vt 0.6535145 0.8892547 0
vt 0.652521 0.8979838 0
vt 0.1042319 0.6437092 0
vt 0.9803275 0.7585048 0
vt 0.100092 0.6487802 0
vt 0.9768697 0.7789163 0
vt 0.9771369 0.7867205 0
vt 0.977952 0.7946534 0
vt 0.9781953 0.802771 0
vt 0.979745 0.810823 0
vt 0.9815351 0.8190164 0
vt 0.9823959 0.8274754 0
vt 0.9832102 0.8359965 0
vt 0.9835951 0.844622 0
vt 0.9847566 0.8532918 0
vt 0.9841693 0.8620113 0
vt 0.9845347 0.8706621 0
vt 0.9835099 0.8790828 0
vt 0.9825287 0.8871234 0
vt 0.9817728 0.8945521 0
vt 0.9700829 0.7609575 0
vt 0.971847 0.752333 0
vt 0.9689386 0.7695685 0
vt 0.9683782 0.7781523 0
vt 0.9683942 0.786692 0
vt 0.96892 0.7951659 0
vt 0.969907 0.8035589 0
vt 0.9711554 0.8118885 0
vt 0.9725247 0.8201815 0
vt 0.973854 0.8284817 0
vt 0.9749165 0.836814 0
vt 0.9756915 0.8451982 0
vt 0.9760687 0.8536338 0
vt 0.9761106 0.8621075 0
vt 0.9757131 0.870605 0
vt 0.9750342 0.8791142 0
vt 0.9741489 0.8876381 0
vt 0.9732456 0.896188 0
vt 0.3503919 0.8808182 0
vt 0.3545202 0.8757377 0
vt 0.3468219 0.8863051 0
vt 0.3437313 0.892075 0
vt 0.3409552 0.8980036 0
vt 0.3382661 0.9039724 0
vt 0.2024942 0.09184217 0
vt 0.3321731 0.9155524 0
vt 0.3283978 0.9209006 0
vt 0.3240303 0.9257762 0
vt 0.3191022 0.9300853 0
vt 0.3137141 0.9338026 0
vt 0.3080014 0.9369994 0
vt 0.3021083 0.9398497 0
vt 0.2961687 0.9425997 0
vt 0.1911606 0.1393559 0
vt 0.2846538 0.9488153 0
vt 0.2793402 0.9526388 0
vt 0.4850329 0.976617 0
vt 0.3288661 0.4301265 0
vt 0.3288661 0.02053528 0
vt 0.9765176 0.02053529 0
vt 0.4358296 0.9960938 0
vt 0.9765176 0.4301265 0
vt 0.2827562 0.4858074 0
vt 0.1897709 0.5369829 0
vt 0.3642606 0.6721736 0
vt 0.1335215 0.4815687 0
vt 0.07662087 0.00390625 0
vt 0.5222182 0.5436644 0
vt 0.517713 0.5175573 0
vt 0.5221857 0.5503117 0
vt 0.5196403 0.5242135 0
vt 0.1053509 0.3857946 0
vt 0.521133 0.5306968 0
vt 0.5156834 0.5106893 0
vt 0.5218998 0.537146 0
vt 0.1295563 0.3818246 0
vt 0.1326419 0.3817727 0
vt 0.1357477 0.3818953 0
vt 0.1388872 0.3821147 0
vt 0.1420554 0.3823613 0
vt 0.09104587 0.3917176 0
vt 0.09667264 0.3889888 0
vt 0.0995354 0.3878432 0
vt 0.1024382 0.386801 0
vt 0.09385903 0.3903002 0
vt 0.5522309 0.812036 0
vt 0.553365 0.8182674 0
vt 0.5508534 0.8056424 0
vt 0.05990925 0.3835537 0
vt 0.0629095 0.3828171 0
vt 0.07220815 0.3812295 0
vt 0.06594661 0.3821859 0
vt 0.06906156 0.3817018 0
vt 0.5542653 0.8242611 0
vt 0.03203588 0.3962183 0
vt 0.03463326 0.3945506 0
vt 0.02948966 0.3979816 0
vt 0.02701139 0.3998362 0
vt 0.02459183 0.4018476 0
vt 0.5523234 0.8420619 0
vt 0.03725341 0.3929187 0
vt 0.5537391 0.8360777 0
vt 0.5543494 0.8301692 0
vt 0.02216373 0.4038916 0
vt 0.07039159 0.3702724 0
vt 0.07078153 0.3683529 0
vt 0.1436035 0.3693956 0
vt 0.08821787 0.393167 0
vt 0.1427522 0.3712412 0
vt 0.9828705 0.636572 0
vt 0.9834754 0.6300537 0
vt 0.9836467 0.6235104 0
vt 0.9833575 0.616971 0
vt 0.9826374 0.6104645 0
vt 0.9797914 0.707792 0
vt 0.9495884 0.4672139 0
vt 0.9511163 0.4756587 0
vt 0.9767129 0.6884101 0
vt 0.9782306 0.6623376 0
vt 0.9794344 0.6559028 0
vt 0.9807146 0.6494833 0
vt 0.9819098 0.6430474 0
vt 0.9815682 0.6040058 0
vt 0.9811778 0.7141895 0
vt 0.9764396 0.6818693 0
vt 0.9766301 0.6753264 0
vt 0.977254 0.6688106 0
vt 0.2835666 0.09260581 0
vt 0.2751802 0.09133662 0
vt 0.2910137 0.09666731 0
vt 0.2668652 0.09301232 0
vt 0.2596246 0.09743128 0
vt 0.2543324 0.1040592 0
vt 0.2966219 0.1030303 0
vt 0.2972153 0.1274466 0
vt 0.2919233 0.1340747 0
vt 0.2846832 0.1384922 0
vt 0.2763681 0.1401682 0
vt 0.2679814 0.1388988 0
vt 0.2605349 0.1348377 0
vt 0.2549266 0.1284748 0
vt 0.4706737 0.6744176 0
vt 0.2518323 0.120577 0
vt 0.4696791 0.6155208 0
vt 0.2997159 0.1109276 0
vt 0.9824882 0.7206028 0
vt 0.4694858 0.6089772 0
vt 0.6250424 0.440279 0
vt 0.4994199 0.4563374 0
vt 0.9423509 0.5885266 0
vt 0.4957731 0.4594497 0
vt 0.5242138 0.4470237 0
vt 0.5844119 0.5920324 0
vt 0.9342978 0.4436563 0
vt 0.08815222 0.6986265 0
vt 0.08320814 0.7029177 0
vt 0.07737157 0.70588 0
vt 0.07102456 0.7074831 0
vt 0.06449782 0.7079826 0
vt 0.05795133 0.7079556 0
vt 0.05140847 0.7081691 0
vt 0.04495811 0.709283 0
vt 0.03885915 0.7116616 0
vt 0.9782414 0.764409 0
vt 0.09534163 0.6675889 0
vt 0.09543648 0.6741349 0
vt 0.09529324 0.6806786 0
vt 0.0942357 0.6871386 0
vt 0.09188148 0.6932472 0
vt 0.9769958 0.7713379 0
vt 0.09726521 0.6546846 0
vt 0.09576593 0.6610568 0
vt 0.2192391 0.1253049 0
vt 0.2212074 0.1170545 0
vt 0.2202351 0.1086292 0
vt 0.2164398 0.1010432 0
vt 0.2102778 0.09521366 0
vt 0.2077569 0.13744 0
vt 0.2145675 0.132385 0
vt 0.1858979 0.09375812 0
vt 0.1790875 0.09881339 0
vt 0.174416 0.1058934 0
vt 0.1724474 0.1141436 0
vt 0.1734206 0.1225699 0
vt 0.1772169 0.1301551 0
vt 0.183377 0.1359844 0
vt 0.3354124 0.909864 0
vt 0.1940274 0.09133662 0
vt 0.2903072 0.9455149 0
vt 0.1996277 0.1398617 0
vt 0.274484 0.957028 0
vt 0.10947 0.639784 0
vt 0.6011849 0.9085306 0
vt 0.5374689 0.8919803 0
vt 0.5616051 0.9004668 0
vt 0.6526642 0.9067534 0
vt 0.5381642 0.7710801 0
vt 0.9725179 0.9047909 0
vt 0.9820432 0.9007834 0
#end 515 textures vertices 

#begin 252 normals 
vn -0.9996 -0.0295 0.0038
vn -0.9931 0.1167 0.0075
vn -0.9996 -0.0289 0.0038
vn -0 -0.0274 -0.9996
vn -0 0.0552 -0.9985
vn 0.9996 -0.0289 0.0038
vn 0.9931 0.1167 0.0075
vn 0.9996 -0.0295 0.0038
vn -0 -0 1
vn -0 0.1101 0.9939
vn -0 -1 -0
vn -0 0.9917 0.1287
vn -0 -0.1101 0.9939
vn 0.9847 -0.174 -0
vn -0 -0.1101 -0.9939
vn -0.9847 -0.174 -0
vn -0 -0.9986 -0.0536
vn 0.342 -0.9383 -0.0504
vn 0.6428 -0.7649 -0.0411
vn 0.866 -0.4993 -0.0268
vn 0.9848 -0.1734 -0.0093
vn 0.9848 0.1734 0.0093
vn 0.866 0.4993 0.0268
vn 0.6428 0.7649 0.0411
vn 0.342 0.9383 0.0504
vn -0 0.9986 0.0536
vn -0.342 0.9383 0.0504
vn -0.6428 0.7649 0.0411
vn -0.866 0.4993 0.0268
vn -0.9848 0.1734 0.0093
vn -0.9848 -0.1734 -0.0093
vn -0.866 -0.4993 -0.0268
vn -0.6428 -0.7649 -0.0411
vn 0.3342 -0.9013 -0.2757
vn 0.6299 -0.7405 -0.2342
vn -0.342 -0.9383 -0.0504
vn -0 0.0536 -0.9986
vn -0 -0.0536 0.9986
vn -0.9791 -0.1901 -0.0723
vn -0.9898 0.1361 0.0413
vn -0.9926 0.0075 0.1214
vn -0.9651 -0.1948 -0.1752
vn 0.8801 0.4456 0.1637
vn 0.6591 0.6998 0.2755
vn -0.6591 0.6998 0.2755
vn -0.8801 0.4456 0.1637
vn -0.6299 -0.7405 -0.2342
vn -0.3342 -0.9013 -0.2757
vn 0.9791 -0.1901 -0.0723
vn 0.9898 0.1361 0.0413
vn -0.8535 -0.4939 -0.1658
vn 0.8535 -0.4939 -0.1658
vn -0 -0.9572 -0.2896
vn -0.8195 -0.3776 -0.4312
vn -0.9619 -0.2135 -0.1708
vn -0.8039 -0.2907 -0.5189
vn 0.853 0.3522 0.3851
vn 0.6168 0.4712 0.6305
vn 0.3314 0.7217 0.6077
vn 0.3103 0.5246 0.7928
vn -0 -0.8541 -0.5201
vn 0.3223 -0.8072 -0.4945
vn -0.583 -0.5197 -0.6245
vn -0 0.7594 0.6506
vn 0.6166 -0.668 -0.4166
vn -0.3223 -0.8072 -0.4945
vn -0.3314 0.7217 0.6077
vn -0.3092 0.7268 0.6133
vn 0.8675 -0.248 -0.4311
vn -0.6028 0.6198 0.5024
vn 0.982 -0.0363 -0.1853
vn -0.8863 0.2024 0.4166
vn 0.9798 0.1747 0.0976
vn 0.7162 -0.0836 -0.6929
vn 0.4459 -0.2324 -0.8644
vn 0.4609 -0.2256 -0.8583
vn 0.7235 -0.0785 -0.6858
vn 0.5752 0.3144 0.7552
vn 0.2784 0.3008 0.9121
vn 0.3703 -0.2168 -0.9032
vn 0.0867 -0.2816 -0.9556
vn 0.1038 -0.2785 -0.9548
vn 0.4069 -0.2062 -0.8899
vn -0.5378 -0.327 -0.7771
vn -0.0454 0.2548 0.9659
vn -0.0337 0.2569 0.9658
vn 0.6241 -0.13 -0.7704
vn 0.6696 -0.1105 -0.7345
vn -0.2119 -0.3204 -0.9233
vn -0.2203 -0.321 -0.9211
vn -0.3694 0.1822 0.9112
vn -0.3383 0.1904 0.9216
vn 0.8693 0.0014 -0.4942
vn -0.6579 0.0897 0.7477
vn -0.6174 0.1049 0.7796
vn 0.9762 0.1172 -0.1823
vn -0.8434 0.0029 0.5372
vn 0.9613 0.2191 0.1669
vn -0.9726 -0.1087 0.2054
vn 0.8182 0.2881 0.4975
vn -0.4472 0.8256 -0.3441
vn -0.2184 -0.4282 -0.8769
vn -0.5271 -0.4516 -0.7199
vn -0.5096 -0.4518 -0.7322
vn -0.1966 -0.4248 -0.8837
vn -0.4789 0.2168 0.8507
vn -0.1631 0.3393 0.9264
vn -0.141 0.3461 0.9276
vn -0.4627 0.2244 0.8577
vn 0.897 0.0753 -0.4355
vn 0.8984 0.0771 -0.4324
vn 0.1202 -0.3523 -0.9281
vn 0.1411 -0.3461 -0.9275
vn -0.7342 0.0701 0.6753
vn -0.726 0.0759 0.6835
vn 0.9664 0.2246 -0.1248
vn 0.9663 0.2231 -0.1285
vn -0.9019 -0.0831 0.4238
vn -0.9001 -0.0807 0.4282
vn 0.9163 0.3462 0.2012
vn 0.9198 0.3429 0.1907
vn -0.966 -0.2258 0.1258
vn -0.9661 -0.2269 0.1232
vn 0.7525 0.4252 0.5029
vn 0.7633 0.4224 0.4889
vn -0.9207 -0.3429 -0.1866
vn -0.9175 -0.346 -0.1961
vn 0.4948 0.4514 0.7426
vn 0.5133 0.4514 0.7299
vn -0.7697 -0.4214 -0.4796
vn -0.7596 -0.4241 -0.493
vn 0.1758 0.4213 0.8897
vn 0.1988 0.4251 0.8831
vn -0.2593 0.9024 -0.3441
vn -0 -0.9986 -0.0536
vn 0.342 -0.9383 -0.0504
vn 0.6428 -0.7649 -0.0411
vn 0.866 -0.4993 -0.0268
vn 0.9848 -0.1734 -0.0093
vn 0.9848 0.1734 0.0093
vn 0.866 0.4993 0.0268
vn 0.6428 0.7649 0.0411
vn 0.342 0.9383 0.0504
vn -0 0.9986 0.0536
vn -0.342 0.9383 0.0504
vn -0.6428 0.7649 0.0411
vn -0.866 0.4993 0.0268
vn -0.9848 0.1734 0.0093
vn -0.9848 -0.1734 -0.0093
vn -0.866 -0.4993 -0.0268
vn -0.6428 -0.7649 -0.0411
vn 0.3342 -0.9013 -0.2757
vn 0.6299 -0.7405 -0.2342
vn -0.342 -0.9383 -0.0504
vn -0 0.0536 -0.9986
vn -0 -0.0536 0.9986
vn -0.9791 -0.1901 -0.0723
vn -0.9898 0.1361 0.0413
vn -0.9815 0.173 0.0826
vn -0.9786 -0.0397 -0.2019
vn 0.8801 0.4456 0.1637
vn 0.6591 0.6998 0.2755
vn -0.6591 0.6998 0.2755
vn -0.8801 0.4456 0.1637
vn -0.6299 -0.7405 -0.2342
vn -0.3342 -0.9013 -0.2757
vn 0.9791 -0.1901 -0.0723
vn 0.9898 0.1361 0.0413
vn -0.8535 -0.4939 -0.1658
vn 0.8535 -0.4939 -0.1658
vn -0 -0.9572 -0.2896
vn -0.8587 -0.2523 -0.4461
vn -0.9697 0.1103 -0.2179
vn -0.847 -0.0093 -0.5315
vn 0.8769 0.2044 0.4349
vn 0.6028 0.6198 0.5024
vn 0.3314 0.7217 0.6077
vn 0.3092 0.7268 0.6133
vn -0 -0.8541 -0.5201
vn 0.3223 -0.8072 -0.4945
vn -0.6166 -0.668 -0.4166
vn -0 0.7594 0.6506
vn 0.589 -0.5209 -0.6178
vn -0.3223 -0.8072 -0.4945
vn -0.3314 0.7217 0.6077
vn -0.3188 0.5257 0.7887
vn 0.8239 -0.3793 -0.4211
vn -0.6235 0.4719 0.6234
vn 0.9674 -0.1962 -0.1601
vn -0.858 0.3521 0.374
vn 0.9901 0.0077 0.1404
vn 0.6395 0.2573 -0.7245
vn 0.4079 0.3138 -0.8574
vn 0.4156 0.3124 -0.8542
vn 0.6722 0.2466 -0.6981
vn 0.3436 0.1864 0.9204
vn 0.6314 0.0944 0.7697
vn 0.5998 0.1062 0.7931
vn 0.3264 0.1909 0.9257
vn 0.2297 -0.3239 -0.9178
vn -0.064 -0.2852 -0.9563
vn -0.0633 -0.2853 -0.9563
vn 0.255 -0.3259 -0.9104
vn -0.598 -0.1367 -0.7898
vn -0.6341 -0.1217 -0.7636
vn 0.0244 0.2583 0.9658
vn 0.0288 0.2574 0.9659
vn 0.5648 -0.3309 -0.756
vn -0.3439 -0.2218 -0.9125
vn -0.3654 -0.2157 -0.9055
vn -0.2795 0.3022 0.9113
vn 0.8218 -0.2936 -0.4883
vn -0.5773 0.3168 0.7525
vn 0.9676 -0.2145 -0.1335
vn -0.8238 0.29 0.487
vn 0.9644 -0.1077 0.2415
vn -0.9656 0.2175 0.1429
vn 0.8263 0.0047 0.5633
vn 0.3078 0.887 -0.3441
vn -0.1401 0.3569 -0.9236
vn -0.4475 0.3315 -0.8306
vn -0.5397 0.3151 -0.7807
vn -0.2041 0.3549 -0.9124
vn -0.3993 -0.34 0.8514
vn -0.0954 -0.3721 0.9233
vn -0.1213 -0.3709 0.9207
vn -0.3928 -0.3411 0.854
vn 0.8338 0.177 -0.523
vn 0.876 0.1516 -0.4579
vn 0.1473 0.348 -0.9258
vn 0.1212 0.3501 -0.9289
vn -0.6651 -0.2723 0.6953
vn -0.6348 -0.2826 0.7191
vn 0.9669 0.0697 -0.2455
vn 0.9905 0.0274 -0.1349
vn -0.8783 -0.1669 0.4481
vn -0.8392 -0.1925 0.5085
vn 0.9929 -0.0625 0.1012
vn 0.9651 -0.1137 0.2358
vn -0.9939 -0.0252 0.1071
vn -0.9749 -0.0682 0.2117
vn 0.8624 -0.2005 0.4647
vn 0.7828 -0.2418 0.5733
vn -0.9506 0.1303 -0.2817
vn -0.9848 0.0801 -0.1544
vn 0.5849 -0.3087 0.75
vn 0.4954 -0.3292 0.8038
vn -0.7429 0.2577 -0.6178
vn -0.8278 0.22 -0.516
vn 0.2415 -0.3649 0.8992
vn 0.1789 -0.3695 0.9118
vn 0.0442 0.9986 0.0274
#end 252 normals 

#begin 350 faces
o Cube:039
s 1
f 9/9/1 2/2/2 4/4/2 10/10/3 
f 10/373/4 4/377/5 8/8/5 11/11/4 
f 11/11/6 8/8/7 6/6/7 12/12/8 
f 12/12/9 6/6/10 2/2/10 9/9/9 
f 3/380/11 7/7/11 5/5/11 1/382/11 
f 8/378/12 4/374/12 2/375/12 6/376/12 
f 5/379/13 12/12/9 9/9/9 1/1/13 
f 7/381/14 11/11/6 12/12/8 5/379/14 
f 3/3/15 10/373/4 11/11/4 7/381/15 
f 1/1/16 9/9/1 10/10/3 3/383/16 
o Cylinder:022
s 1
f 49/49/17 14/14/17 16/16/18 50/50/18 
f 50/50/18 16/16/18 18/18/19 51/51/19 
f 51/51/19 18/18/19 20/20/20 52/52/20 
f 52/52/20 20/20/20 22/22/21 53/53/21 
f 53/53/21 22/22/21 24/24/22 54/54/22 
f 54/54/22 24/24/22 26/26/23 55/55/23 
f 55/55/23 26/26/23 28/28/24 56/56/24 
f 56/56/24 28/28/24 30/30/25 57/57/25 
f 57/57/25 30/30/25 32/32/26 58/58/26 
f 58/58/26 32/32/26 34/34/27 59/59/27 
f 59/59/27 34/34/27 36/36/28 60/60/28 
f 60/60/28 36/36/28 38/38/29 61/61/29 
f 61/61/29 38/38/29 40/40/30 62/62/30 
f 62/62/30 40/40/30 42/42/31 63/63/31 
f 63/63/31 42/42/31 44/44/32 64/64/32 
f 64/64/32 44/44/32 46/46/33 65/65/33 
f 18/18/19 16/16/18 103/103/34 105/105/35 
f 65/465/33 46/468/33 48/48/36 66/66/36 
f 66/66/36 48/48/36 14/14/17 49/49/17 
f 39/39/37 37/37/37 90/90/37 92/92/37 
f 21/21/37 19/19/37 72/72/37 74/74/37 
f 61/61/38 62/62/38 93/93/38 91/91/38 
f 62/62/38 63/63/38 95/95/38 93/93/38 
f 47/47/37 45/45/37 98/98/37 100/100/37 
f 29/29/37 27/27/37 80/80/37 82/82/37 
f 49/49/38 50/50/38 69/69/38 102/102/38 
f 63/63/38 64/64/38 97/97/38 95/95/38 
f 50/50/38 51/51/38 71/71/38 69/69/38 
f 37/37/37 35/35/37 88/88/37 90/90/37 
f 19/19/37 17/17/37 70/70/37 72/72/37 
f 64/64/38 65/65/38 99/99/38 97/97/38 
f 51/51/38 52/52/38 73/73/38 71/71/38 
f 65/465/38 66/66/38 101/101/38 99/467/38 
f 45/45/37 43/43/37 96/96/37 98/98/37 
f 27/27/37 25/25/37 78/78/37 80/80/37 
f 52/52/38 53/53/38 75/75/38 73/73/38 
f 66/66/38 49/49/38 102/102/38 101/101/38 
f 100/100/36 101/397/36 102/424/17 67/67/17 
f 98/98/33 99/401/33 101/397/36 100/100/36 
f 96/96/32 97/398/32 99/401/33 98/98/33 
f 94/94/31 95/399/31 97/398/32 96/96/32 
f 92/92/30 93/400/30 95/399/31 94/94/31 
f 90/90/29 91/388/29 93/400/30 92/92/30 
f 88/88/28 89/89/28 91/388/29 90/90/29 
f 86/86/27 87/87/27 89/89/28 88/88/28 
f 84/84/26 85/85/26 87/87/27 86/86/27 
f 82/82/25 83/83/25 85/85/26 84/84/26 
f 80/80/24 81/81/24 83/83/25 82/82/25 
f 78/78/23 79/79/23 81/81/24 80/80/24 
f 76/76/22 77/77/22 79/79/23 78/78/23 
f 74/74/21 75/392/21 77/77/22 76/76/22 
f 72/72/20 73/393/20 75/392/21 74/74/21 
f 70/70/19 71/394/19 73/393/20 72/72/20 
f 68/68/18 69/395/18 71/394/19 70/70/19 
f 67/425/17 102/396/17 69/395/18 68/68/18 
f 60/60/38 61/61/38 91/91/38 89/386/38 
f 31/31/37 29/29/37 82/82/37 84/84/37 
f 13/13/37 47/47/37 100/100/37 67/67/37 
f 59/59/38 60/60/38 89/386/38 87/384/38 
f 58/58/38 59/59/38 87/384/38 85/391/38 
f 23/23/37 21/21/37 74/74/37 76/76/37 
f 41/41/37 39/39/37 92/92/37 94/94/37 
f 15/15/37 13/423/37 67/425/37 68/68/37 
f 57/57/38 58/58/38 85/391/38 83/389/38 
f 33/33/37 31/31/37 84/84/37 86/86/37 
f 56/56/38 57/57/38 83/389/38 81/387/38 
f 55/55/38 56/56/38 81/387/38 79/385/38 
f 25/25/37 23/23/37 76/76/37 78/78/37 
f 43/43/37 41/41/37 94/94/37 96/96/37 
f 54/54/38 55/55/38 79/385/38 77/390/38 
f 17/17/37 15/15/37 68/68/37 70/70/37 
f 35/35/37 33/33/37 86/86/37 88/88/37 
f 53/53/38 54/54/38 77/390/38 75/75/38 
f 117/117/39 116/116/40 134/134/41 135/135/42 
f 28/28/24 26/26/23 109/109/43 110/110/44 
f 38/38/29 36/36/28 114/114/45 115/115/46 
f 48/48/36 46/468/33 119/119/47 120/120/48 
f 24/24/22 22/22/21 107/107/49 108/108/50 
f 34/34/27 32/32/26 112/112/26 113/113/27 
f 44/44/32 42/42/31 117/117/39 118/118/51 
f 20/20/20 18/18/19 105/105/35 106/106/52 
f 30/30/25 28/28/24 110/110/44 111/111/25 
f 40/40/30 38/38/29 115/115/46 116/116/40 
f 16/16/18 14/14/17 104/104/53 103/103/34 
f 14/14/17 48/48/36 120/120/48 104/104/53 
f 26/26/23 24/24/22 108/108/50 109/109/43 
f 36/36/28 34/34/27 113/113/27 114/114/45 
f 46/46/33 44/44/32 118/118/51 119/469/47 
f 22/22/21 20/20/20 106/106/52 107/107/49 
f 32/32/26 30/30/25 111/111/25 112/112/26 
f 42/42/31 40/40/30 116/116/40 117/117/39 
f 136/136/54 135/135/42 171/171/55 172/172/56 
f 110/110/44 109/109/43 127/127/57 128/128/58 
f 118/118/51 117/117/39 135/135/42 136/136/54 
f 111/111/59 110/110/44 128/128/58 129/129/60 
f 103/103/34 104/104/53 122/122/61 121/121/62 
f 119/469/47 118/118/51 136/136/54 137/137/63 
f 112/112/64 111/111/59 129/129/60 130/130/64 
f 105/105/35 103/103/34 121/121/62 123/123/65 
f 120/120/48 119/119/47 137/464/63 138/138/66 
f 113/113/67 112/112/64 130/130/64 131/131/68 
f 106/106/52 105/105/35 123/123/65 124/124/69 
f 104/104/53 120/120/48 138/138/66 122/122/61 
f 114/114/45 113/113/67 131/131/68 132/132/70 
f 107/107/49 106/106/52 124/124/69 125/125/71 
f 115/115/46 114/114/45 132/132/70 133/133/72 
f 108/108/50 107/107/49 125/125/71 126/126/73 
f 116/116/40 115/115/46 133/133/72 134/134/41 
f 109/109/43 108/108/50 126/126/73 127/127/57 
f 141/141/74 139/139/75 175/175/76 177/177/77 
f 129/129/60 128/128/58 164/164/78 165/165/79 
f 121/121/80 122/122/81 158/158/82 157/157/83 
f 137/137/63 136/136/54 172/172/56 173/173/84 
f 130/130/85 129/129/60 165/165/79 166/166/86 
f 123/123/87 121/121/80 157/157/83 159/159/88 
f 138/138/89 137/464/63 173/470/84 174/174/90 
f 131/131/91 130/130/85 166/166/86 167/167/92 
f 124/124/69 123/123/87 159/159/88 160/160/93 
f 122/122/81 138/138/89 174/174/90 158/158/82 
f 132/132/94 131/131/91 167/167/92 168/168/95 
f 125/125/71 124/124/69 160/160/93 161/161/96 
f 133/133/72 132/132/94 168/168/95 169/169/97 
f 126/126/73 125/125/71 161/161/96 162/162/98 
f 134/134/41 133/133/72 169/169/97 170/170/99 
f 127/127/57 126/126/73 162/162/98 163/163/100 
f 135/135/42 134/134/41 170/170/99 171/171/55 
f 128/128/58 127/127/57 163/163/100 164/164/78 
f 140/140/101 139/432/101 157/157/101 158/158/101 
f 139/432/101 141/433/101 159/159/101 157/157/101 
f 141/433/101 142/142/101 160/160/101 159/159/101 
f 142/142/101 143/143/101 161/161/101 160/160/101 
f 143/143/101 144/144/101 162/162/101 161/161/101 
f 144/144/101 145/145/101 163/163/101 162/162/101 
f 145/145/101 146/146/101 164/164/101 163/163/101 
f 146/146/101 147/147/101 165/165/101 164/164/101 
f 147/147/101 148/148/101 166/166/101 165/165/101 
f 148/148/101 149/149/101 167/167/101 166/166/101 
f 149/149/101 150/150/101 168/168/101 167/167/101 
f 150/150/101 151/151/101 169/169/101 168/168/101 
f 151/151/101 152/152/101 170/170/101 169/169/101 
f 152/152/101 153/153/101 171/171/101 170/170/101 
f 153/153/101 154/154/101 172/172/101 171/171/101 
f 154/154/101 155/466/101 173/173/101 172/172/101 
f 155/155/101 156/156/101 174/174/101 173/470/101 
f 156/156/101 140/140/101 158/158/101 174/174/101 
f 156/440/102 155/462/103 191/191/104 192/192/105 
f 149/438/106 148/437/107 184/184/108 185/185/109 
f 142/434/110 141/141/74 177/177/77 178/178/111 
f 140/431/112 156/440/102 192/192/105 176/176/113 
f 150/426/114 149/438/106 185/185/109 186/186/115 
f 143/441/116 142/434/110 178/178/111 179/179/117 
f 151/427/118 150/426/114 186/186/115 187/187/119 
f 144/442/120 143/441/116 179/179/117 180/180/121 
f 152/428/122 151/427/118 187/187/119 188/188/123 
f 145/443/124 144/442/120 180/180/121 181/458/125 
f 153/429/126 152/428/122 188/188/123 189/189/127 
f 146/435/128 145/443/124 181/458/125 182/182/129 
f 154/430/130 153/429/126 189/189/127 190/460/131 
f 147/436/132 146/435/128 182/182/129 183/183/133 
f 139/139/75 140/431/112 176/176/113 175/175/76 
f 155/439/103 154/430/130 190/460/131 191/463/104 
f 148/437/107 147/436/132 183/183/133 184/184/108 
f 191/461/134 190/190/134 189/451/134 192/450/134 
f 192/450/134 189/451/134 188/452/134 176/446/134 
f 176/446/134 188/452/134 187/453/134 175/444/134 
f 175/444/134 187/453/134 186/454/134 177/445/134 
f 177/445/134 186/454/134 185/455/134 178/447/134 
f 178/447/134 185/455/134 184/456/134 179/448/134 
f 179/448/134 184/456/134 183/457/134 180/449/134 
f 180/449/134 183/457/134 182/459/134 181/181/134 
o Cylinder:023
s 1
f 229/229/135 194/194/135 196/196/136 230/230/136 
f 230/230/136 196/196/136 198/198/137 231/231/137 
f 231/231/137 198/198/137 200/200/138 232/232/138 
f 232/232/138 200/200/138 202/202/139 233/233/139 
f 233/233/139 202/202/139 204/204/140 234/234/140 
f 234/234/140 204/204/140 206/206/141 235/235/141 
f 235/235/141 206/206/141 208/208/142 236/236/142 
f 236/236/142 208/208/142 210/210/143 237/237/143 
f 237/237/143 210/210/143 212/212/144 238/238/144 
f 238/238/144 212/212/144 214/214/145 239/239/145 
f 239/239/145 214/214/145 216/216/146 240/240/146 
f 240/240/146 216/216/146 218/218/147 241/241/147 
f 241/241/147 218/218/147 220/220/148 242/242/148 
f 242/242/148 220/220/148 222/222/149 243/243/149 
f 243/243/149 222/222/149 224/224/150 244/244/150 
f 244/244/150 224/224/150 226/226/151 245/245/151 
f 198/198/137 196/196/136 283/283/152 285/285/153 
f 245/245/151 226/226/151 228/228/154 246/246/154 
f 246/246/154 228/228/154 194/511/135 229/510/135 
f 219/219/155 217/217/155 270/270/155 272/272/155 
f 201/201/155 199/199/155 252/252/155 254/254/155 
f 241/241/156 242/242/156 273/273/156 271/271/156 
f 242/242/156 243/243/156 275/275/156 273/273/156 
f 227/227/155 225/225/155 278/278/155 280/280/155 
f 209/209/155 207/207/155 260/260/155 262/262/155 
f 229/229/156 230/230/156 249/249/156 282/513/156 
f 243/243/156 244/244/156 277/277/156 275/275/156 
f 230/230/156 231/231/156 251/251/156 249/249/156 
f 217/217/155 215/215/155 268/268/155 270/270/155 
f 199/199/155 197/197/155 250/250/155 252/252/155 
f 244/244/156 245/245/156 279/279/156 277/277/156 
f 231/231/156 232/232/156 253/253/156 251/251/156 
f 245/245/156 246/246/156 281/281/156 279/279/156 
f 225/225/155 223/223/155 276/276/155 278/278/155 
f 207/207/155 205/205/155 258/258/155 260/260/155 
f 232/232/156 233/233/156 255/255/156 253/253/156 
f 246/246/156 229/510/156 282/282/156 281/281/156 
f 280/280/154 281/415/154 282/420/135 247/247/135 
f 278/278/151 279/414/151 281/415/154 280/280/154 
f 276/276/150 277/413/150 279/414/151 278/278/151 
f 274/274/149 275/411/149 277/413/150 276/276/150 
f 272/272/148 273/412/148 275/411/149 274/274/149 
f 270/270/147 271/417/147 273/412/148 272/272/148 
f 268/268/146 269/269/146 271/417/147 270/270/147 
f 266/266/145 267/267/145 269/269/146 268/268/146 
f 264/264/144 265/265/144 267/267/145 266/266/145 
f 262/262/143 263/263/143 265/265/144 264/264/144 
f 260/260/142 261/261/142 263/263/143 262/262/143 
f 258/258/141 259/259/141 261/261/142 260/260/142 
f 256/256/140 257/257/140 259/259/141 258/258/141 
f 254/254/139 255/405/139 257/257/140 256/256/140 
f 252/252/138 253/406/138 255/405/139 254/254/139 
f 250/250/137 251/408/137 253/406/138 252/252/138 
f 248/248/136 249/409/136 251/408/137 250/250/137 
f 247/421/135 282/407/135 249/409/136 248/248/136 
f 240/240/156 241/241/156 271/271/156 269/416/156 
f 211/211/155 209/209/155 262/262/155 264/264/155 
f 193/193/155 227/227/155 280/280/155 247/247/155 
f 239/239/156 240/240/156 269/416/156 267/418/156 
f 238/238/156 239/239/156 267/418/156 265/419/156 
f 203/203/155 201/201/155 254/254/155 256/256/155 
f 221/221/155 219/219/155 272/272/155 274/274/155 
f 195/195/155 193/422/155 247/421/155 248/248/155 
f 237/237/156 238/238/156 265/419/156 263/410/156 
f 213/213/155 211/211/155 264/264/155 266/266/155 
f 236/236/156 237/237/156 263/410/156 261/403/156 
f 235/235/156 236/236/156 261/403/156 259/402/156 
f 205/205/155 203/203/155 256/256/155 258/258/155 
f 223/223/155 221/221/155 274/274/155 276/276/155 
f 234/234/156 235/235/156 259/402/156 257/404/156 
f 197/197/155 195/195/155 248/248/155 250/250/155 
f 215/215/155 213/213/155 266/266/155 268/268/155 
f 233/233/156 234/234/156 257/404/156 255/255/156 
f 297/297/157 296/296/158 314/314/159 315/315/160 
f 208/208/142 206/206/141 289/289/161 290/290/162 
f 218/218/147 216/216/146 294/294/163 295/295/164 
f 228/228/154 226/226/151 299/299/165 300/300/166 
f 204/204/140 202/202/139 287/287/167 288/288/168 
f 214/214/145 212/212/144 292/292/144 293/293/145 
f 224/224/150 222/222/149 297/297/157 298/298/169 
f 200/200/138 198/198/137 285/285/153 286/286/170 
f 210/210/143 208/208/142 290/290/162 291/291/143 
f 220/220/148 218/218/147 295/295/164 296/296/158 
f 196/196/136 194/194/135 284/284/171 283/283/152 
f 194/511/135 228/228/154 300/300/166 284/509/171 
f 206/206/141 204/204/140 288/288/168 289/289/161 
f 216/216/146 214/214/145 293/293/145 294/294/163 
f 226/226/151 224/224/150 298/298/169 299/299/165 
f 202/202/139 200/200/138 286/286/170 287/287/167 
f 212/212/144 210/210/143 291/291/143 292/292/144 
f 222/222/149 220/220/148 296/296/158 297/297/157 
f 316/316/172 315/315/160 351/351/173 352/352/174 
f 290/290/162 289/289/161 307/307/175 308/308/176 
f 298/298/169 297/297/157 315/315/160 316/316/172 
f 291/291/177 290/290/162 308/308/176 309/309/178 
f 283/283/152 284/284/171 302/302/179 301/301/180 
f 299/299/165 298/298/169 316/316/172 317/317/181 
f 292/292/182 291/291/177 309/309/178 310/310/182 
f 285/285/153 283/283/152 301/301/180 303/303/183 
f 300/300/166 299/299/165 317/317/181 318/318/184 
f 293/293/185 292/292/182 310/310/182 311/311/186 
f 286/286/170 285/285/153 303/303/183 304/304/187 
f 284/509/171 300/300/166 318/318/184 302/512/179 
f 294/294/163 293/293/185 311/311/186 312/312/188 
f 287/287/167 286/286/170 304/304/187 305/305/189 
f 295/295/164 294/294/163 312/312/188 313/313/190 
f 288/288/168 287/287/167 305/305/189 306/306/191 
f 296/296/158 295/295/164 313/313/190 314/314/159 
f 289/289/161 288/288/168 306/306/191 307/307/175 
f 321/321/192 319/319/193 355/355/194 357/357/195 
f 309/309/196 308/308/197 344/344/198 345/345/199 
f 301/301/200 302/302/201 338/338/202 337/337/203 
f 317/317/204 316/316/172 352/352/174 353/353/205 
f 310/310/206 309/309/196 345/345/199 346/346/207 
f 303/303/183 301/301/200 337/337/203 339/339/208 
f 318/318/209 317/317/204 353/353/205 354/354/210 
f 311/311/186 310/310/206 346/346/207 347/347/211 
f 304/304/187 303/303/183 339/339/208 340/340/212 
f 302/512/201 318/318/209 354/354/210 338/514/202 
f 312/312/188 311/311/186 347/347/211 348/348/213 
f 305/305/189 304/304/187 340/340/212 341/341/214 
f 313/313/190 312/312/188 348/348/213 349/349/215 
f 306/306/191 305/305/189 341/341/214 342/342/216 
f 314/314/159 313/313/190 349/349/215 350/350/217 
f 307/307/175 306/306/191 342/342/216 343/343/218 
f 315/315/160 314/314/159 350/350/217 351/351/173 
f 308/308/197 307/307/175 343/343/218 344/344/198 
f 320/320/219 319/480/219 337/337/219 338/338/219 
f 319/480/219 321/486/219 339/339/219 337/337/219 
f 321/486/219 322/322/219 340/340/219 339/339/219 
f 322/322/219 323/323/219 341/341/219 340/340/219 
f 323/323/219 324/324/219 342/342/219 341/341/219 
f 324/324/219 325/325/219 343/343/219 342/342/219 
f 325/325/219 326/326/219 344/344/219 343/343/219 
f 326/326/219 327/327/219 345/345/219 344/344/219 
f 327/327/219 328/328/219 346/346/219 345/345/219 
f 328/328/219 329/329/219 347/347/219 346/346/219 
f 329/329/219 330/330/219 348/348/219 347/347/219 
f 330/330/219 331/331/219 349/349/219 348/348/219 
f 331/331/219 332/332/219 350/350/219 349/349/219 
f 332/332/219 333/333/219 351/351/219 350/350/219 
f 333/333/219 334/334/219 352/352/219 351/351/219 
f 334/334/219 335/335/219 353/353/219 352/352/219 
f 335/335/219 336/336/219 354/354/219 353/353/219 
f 336/336/219 320/515/219 338/514/219 354/354/219 
f 336/478/220 335/477/221 371/371/222 372/372/223 
f 329/471/224 328/485/225 364/364/226 365/365/227 
f 322/487/228 321/321/192 357/357/195 358/358/229 
f 320/479/230 336/478/220 372/372/223 356/507/231 
f 330/472/232 329/471/224 365/365/227 366/366/233 
f 323/488/234 322/487/228 358/358/229 359/359/235 
f 331/473/236 330/472/232 366/366/233 367/367/237 
f 324/481/238 323/488/234 359/359/235 360/360/239 
f 332/474/240 331/473/236 367/367/237 368/368/241 
f 325/482/242 324/481/238 360/360/239 361/503/243 
f 333/475/244 332/474/240 368/368/241 369/369/245 
f 326/483/246 325/482/242 361/503/243 362/362/247 
f 334/476/248 333/475/244 369/369/245 370/505/249 
f 327/484/250 326/483/246 362/362/247 363/363/251 
f 319/319/193 320/508/230 356/356/231 355/355/194 
f 335/477/221 334/476/248 370/505/249 371/371/222 
f 328/485/225 327/484/250 363/363/251 364/364/226 
f 371/506/252 370/370/252 369/502/252 372/494/252 
f 372/494/252 369/502/252 368/501/252 356/495/252 
f 356/495/252 368/501/252 367/500/252 355/489/252 
f 355/489/252 367/500/252 366/499/252 357/490/252 
f 357/490/252 366/499/252 365/498/252 358/491/252 
f 358/491/252 365/498/252 364/497/252 359/492/252 
f 359/492/252 364/497/252 363/496/252 360/493/252 
f 360/493/252 363/496/252 362/504/252 361/361/252 
#end 350 faces

#ZOMPROPERTIES_04{
#ZOMPROPERTIES_04 table {Mesh table {SymPlane table {Point vector3d 0 0 0 Normal vector3d 1 0 0 Threshold double 0.01 
#ZOMPROPERTIES_04 Enabled bool false EdgeID int -1 SymEdgeID int -1 UPos double 0.5 LocalMode bool false } RootGroup C
#ZOMPROPERTIES_04 SubMeshGroup {Children table {Tile_0_0 CSubMeshGroup {Children table {} BBoxUV box3d 0 0 0 0 0 0 BBo
#ZOMPROPERTIES_04 x3D box3d 0 0 0 0 0 0 Area3D double 0 AreaUV double 0.574299 IsRoot bool false Properties table {Sel
#ZOMPROPERTIES_04 ected bool false Box box3d 0 1 0 1 0 1 U int 0 V int 0 NU int 0 NV int 0 Tiling vector3d 1 1 1 TileR
#ZOMPROPERTIES_04 atioMode string "1:1" Overflow string "Off" Pack table {BoxFrameEdit bool false Behavior string "Fre
#ZOMPROPERTIES_04 e" } } IsTile bool true PolyIDs ints { 199 241 221 222 220 248 213 219 218 217 237 203 223 224 225 2
#ZOMPROPERTIES_04 26 227 228 229 230 231 232 233 234 242 250 209 200 240 247 214 204 236 244 251 208 29 71 78 43 33 48
#ZOMPROPERTIES_04  47 67 49 50 51 52 53 54 55 56 57 58 59 60 61 62 63 80 72 64 39 30 70 77 44 34 66 74 81 38 172 173 1
#ZOMPROPERTIES_04 74 175 176 177 178 179 342 343 344 345 346 347 348 349 4 289 327 330 332 334 336 338 341 326 329 331
#ZOMPROPERTIES_04  333 335 337 340 325 328 339 119 169 158 155 157 160 162 164 166 168 171 156 159 161 163 165 167 170
#ZOMPROPERTIES_04  10 11 26 93 105 108 111 90 12 41 45 13 14 15 79 76 75 73 69 68 20 96 113 129 147 148 149 133 131 13
#ZOMPROPERTIES_04 5 150 151 101 103 83 117 92 85 115 22 21 65 31 32 36 40 25 97 89 100 106 122 24 23 152 146 126 123 1
#ZOMPROPERTIES_04 20 136 143 142 134 132 141 140 139 127 130 114 116 118 95 87 124 138 137 121 154 128 125 153 109 86 
#ZOMPROPERTIES_04 94 28 27 42 46 112 102 84 91 17 18 99 88 107 104 16 144 110 145 19 82 98 37 35 180 263 196 278 281 2
#ZOMPROPERTIES_04 60 268 257 265 288 272 254 186 185 249 246 252 184 183 215 211 182 181 207 245 243 188 269 258 189 1
#ZOMPROPERTIES_04 90 266 283 299 317 318 319 320 305 303 287 285 253 273 271 292 322 321 323 295 279 276 267 256 264 2
#ZOMPROPERTIES_04 82 298 198 216 212 197 195 194 193 270 259 192 262 255 191 235 238 239 201 202 206 210 324 301 316 3
#ZOMPROPERTIES_04 15 314 290 293 277 274 261 280 306 304 312 313 311 302 300 310 309 297 294 308 307 291 284 296 187 2
#ZOMPROPERTIES_04 86 275 205 0 3 2 1 8 7 6 9 5 } } } BBoxUV box3d 0 0 0 0 0 0 BBox3D box3d 0 0 0 0 0 0 Area3D double 0
#ZOMPROPERTIES_04  AreaUV double 0 IsRoot bool true Properties table {Selected bool false Box box3d 0 1 0 1 0 1 U int 
#ZOMPROPERTIES_04 0 V int 0 NU int 1 NV int 1 Tiling vector3d 1 1 1 TileRatioMode string "1:1" Overflow string "Off" P
#ZOMPROPERTIES_04 ack table {Rotate table {Mode int 0 Min double 0 Max double 90 Step double 0 } PaddingSize double 0.
#ZOMPROPERTIES_04 0078125 MarginSize double 0.00390625 Resolution int 256 MapResolution int 2048 Scaling table {TexelD
#ZOMPROPERTIES_04 ensity double 1024 Mode int 2 } LayoutScalingMode int 2 MaxMutations int 1 } } IsTile bool false Pol
#ZOMPROPERTIES_04 yIDs ints { } } Maps table {Pin table {PrimType string "Vertex" Size int 1 DefaultValue double 0 Sca
#ZOMPROPERTIES_04 leType string "Normalized" MergeMode string "Max" MinValue double 0 MaxValue double 1 Data doubles {
#ZOMPROPERTIES_04  r 515 0 } } Density table {PrimType string "Polygon" Size int 1 DefaultValue double 1 ScaleType str
#ZOMPROPERTIES_04 ing "Log" MergeMode string "Average" MinValue double 0.1 MaxValue double 4 Data doubles { r 350 1 } 
#ZOMPROPERTIES_04 } Protect table {PrimType string "Vertex" Size int 1 DefaultValue double 0 ScaleType string "Normali
#ZOMPROPERTIES_04 zed" MergeMode string "Average" MinValue double -1 MaxValue double 1 Data doubles { r 515 0 } } } } 
#ZOMPROPERTIES_04 }
#ZOMPROPERTIES_04}


#ZOMSCENE_01{
#ZOMSCENE_01 CScene {Settings table {AxisSystem table {UpVector string "y" } Unit string "cm" TexelDensityDisplay
#ZOMSCENE_01 Unit string "tx/cm" } Root table {} }
#ZOMSCENE_01}

#begin 0 fatal error vertex (that RizomUV cannot handle)
#end 0 fatal error vertex (that RizomUV cannot handle)

#begin 0 error vertex
#end 0 error vertex
