#File written by RizomUV 2023.0.70.ge90189e8. Compilation :Sep 22 2023,12:42:11
mtllib TIRAS2.mtl
#begin vertices
v 43.14515 9.331072 -12.48908
v 43.29324 0.906281 -12.48908
v 43.14515 9.331072 -12.67434
v 43.29324 0.906281 -12.67434
v 43.12946 9.120452 -12.48908
v 43.12946 9.120452 -12.67434
v 43.33089 6.031859 -12.48908
v 43.32762 7.274451 -12.48908
v 43.35366 6.425807 -12.48908
v 43.35246 6.880628 -12.48908
v 43.32762 7.274451 -12.67434
v 43.33089 6.031859 -12.67434
v 43.35246 6.880628 -12.67434
v 43.35366 6.425807 -12.67434
v 43.33743 2.218377 -12.48908
v 43.30986 3.003465 -12.48908
v 43.33858 2.467587 -12.48908
v 43.32849 2.75495 -12.48908
v 43.30986 3.003465 -12.67434
v 43.33743 2.218377 -12.67434
v 43.32849 2.75495 -12.67434
v 43.33858 2.467587 -12.67434
v 43.24763 3.600527 -12.48908
v 43.24588 5.198513 -12.48908
v 43.21691 4.107035 -12.48908
v 43.21627 4.691938 -12.48908
v 43.24588 5.198513 -12.67434
v 43.24763 3.600527 -12.67434
v 43.21627 4.691938 -12.67434
v 43.21691 4.107035 -12.67434
v 43.14515 9.331072 -12.74121
v 43.18021 0.906281 -12.74121
v 43.14515 9.331072 -12.92648
v 43.18021 0.906281 -12.92648
v 43.12946 9.120452 -12.74121
v 43.12946 9.120452 -12.92648
v 43.15978 6.425807 -12.74121
v 43.15978 6.425807 -12.92648
v 43.20864 2.75495 -12.74121
v 43.20864 2.75495 -12.92648
v 43.12207 4.107035 -12.74121
v 43.12207 4.107035 -12.92648
v 43.14515 9.331072 -13.00984
v 43.18021 0.906281 -13.00984
v 43.14515 9.331072 -13.19511
v 43.18021 0.906281 -13.19511
v 43.12946 9.120452 -13.00984
v 43.12946 9.120452 -13.19511
v 43.21791 6.425807 -13.00984
v 43.21791 6.425807 -13.19511
v 43.20864 2.75495 -13.00984
v 43.20864 2.75495 -13.19511
v 43.12207 4.107035 -13.00984
v 43.12207 4.107035 -13.19511
v 43.14515 9.331072 -13.2783
v 43.29324 0.906281 -13.2783
v 43.14515 9.331072 -13.46357
v 43.29324 0.906281 -13.46357
v 43.12946 9.120452 -13.2783
v 43.12946 9.120452 -13.46357
v 43.33089 6.031859 -13.2783
v 43.32762 7.274451 -13.2783
v 43.35366 6.425807 -13.2783
v 43.35246 6.880628 -13.2783
v 43.32762 7.274451 -13.46357
v 43.33089 6.031859 -13.46357
v 43.35246 6.880628 -13.46357
v 43.35366 6.425807 -13.46357
v 43.33743 2.218377 -13.2783
v 43.30986 3.003465 -13.2783
v 43.33858 2.467587 -13.2783
v 43.32849 2.75495 -13.2783
v 43.30986 3.003465 -13.46357
v 43.33743 2.218377 -13.46357
v 43.32849 2.75495 -13.46357
v 43.33858 2.467587 -13.46357
v 43.24763 3.600527 -13.2783
v 43.24588 5.198513 -13.2783
v 43.21691 4.107035 -13.2783
v 43.21627 4.691938 -13.2783
v 43.24588 5.198513 -13.46357
v 43.24763 3.600527 -13.46357
v 43.21627 4.691938 -13.46357
v 43.21691 4.107035 -13.46357
v 43.14515 9.331072 -13.53044
v 43.18021 0.906281 -13.53044
v 43.14515 9.331072 -13.71571
v 43.18021 0.906281 -13.71571
v 43.12946 9.120452 -13.53044
v 43.12946 9.120452 -13.71571
v 43.15978 6.425807 -13.53044
v 43.15978 6.425807 -13.71571
v 43.20864 2.75495 -13.53044
v 43.20864 2.75495 -13.71571
v 43.12207 4.107035 -13.53044
v 43.12207 4.107035 -13.71571
v 43.14515 9.331072 -13.79907
v 43.18021 0.906281 -13.79907
v 43.14515 9.331072 -13.98434
v 43.18021 0.906281 -13.98434
v 43.12946 9.120452 -13.79907
v 43.12946 9.120452 -13.98434
v 43.21791 6.425807 -13.79907
v 43.21791 6.425807 -13.98434
v 43.20864 2.75495 -13.79907
v 43.20864 2.75495 -13.98434
v 43.12207 4.107035 -13.79907
v 43.12207 4.107035 -13.98434
v 43.14515 9.331072 -14.08325
v 43.18021 0.906281 -14.08325
v 43.14515 9.331072 -14.26852
v 43.18021 0.906281 -14.26852
v 43.12946 9.120452 -14.08325
v 43.12946 9.120452 -14.26852
v 43.15978 6.425807 -14.08325
v 43.15978 6.425807 -14.26852
v 43.20864 2.75495 -14.08325
v 43.20864 2.75495 -14.26852
v 43.12207 4.107035 -14.08325
v 43.12207 4.107035 -14.26852
v 43.14515 9.331072 -14.35188
v 43.18021 0.906281 -14.35188
v 43.14515 9.331072 -14.53715
v 43.18021 0.906281 -14.53715
v 43.12946 9.120452 -14.35188
v 43.12946 9.120452 -14.53715
v 43.21791 6.425807 -14.35188
v 43.21791 6.425807 -14.53715
v 43.20864 2.75495 -14.35188
v 43.20864 2.75495 -14.53715
v 43.12207 4.107035 -14.35188
v 43.12207 4.107035 -14.53715
v 43.14515 9.331072 -14.62734
v 43.18021 0.906281 -14.62734
v 43.14515 9.331072 -14.81261
v 43.18021 0.906281 -14.81261
v 43.12946 9.120452 -14.62734
v 43.12946 9.120452 -14.81261
v 43.15978 6.425807 -14.62734
v 43.15978 6.425807 -14.81261
v 43.20864 2.75495 -14.62734
v 43.20864 2.75495 -14.81261
v 43.12207 4.107035 -14.62734
v 43.12207 4.107035 -14.81261
v 43.14515 9.331072 -14.93897
v 43.29324 0.906281 -14.93897
v 43.14515 9.331072 -15.12424
v 43.29324 0.906281 -15.12424
v 43.12946 9.120452 -14.93897
v 43.12946 9.120452 -15.12424
v 43.33089 6.031859 -14.93897
v 43.32762 7.274451 -14.93897
v 43.35366 6.425807 -14.93897
v 43.35246 6.880628 -14.93897
v 43.32762 7.274451 -15.12424
v 43.33089 6.031859 -15.12424
v 43.35246 6.880628 -15.12424
v 43.35366 6.425807 -15.12424
v 43.33743 2.218377 -14.93897
v 43.30986 3.003465 -14.93897
v 43.33858 2.467587 -14.93897
v 43.32849 2.75495 -14.93897
v 43.30986 3.003465 -15.12424
v 43.33743 2.218377 -15.12424
v 43.32849 2.75495 -15.12424
v 43.33858 2.467587 -15.12424
v 43.24763 3.600527 -14.93897
v 43.24588 5.198513 -14.93897
v 43.21691 4.107035 -14.93897
v 43.21627 4.691938 -14.93897
v 43.24588 5.198513 -15.12424
v 43.24763 3.600527 -15.12424
v 43.21627 4.691938 -15.12424
v 43.21691 4.107035 -15.12424
v 43.14515 9.331072 -15.19111
v 43.18021 0.906281 -15.19111
v 43.14515 9.331072 -15.37638
v 43.18021 0.906281 -15.37638
v 43.12946 9.120452 -15.19111
v 43.12946 9.120452 -15.37638
v 43.15978 6.425807 -15.19111
v 43.15978 6.425807 -15.37638
v 43.20864 2.75495 -15.19111
v 43.20864 2.75495 -15.37638
v 43.12207 4.107035 -15.19111
v 43.12207 4.107035 -15.37638
v 43.14515 9.331072 -15.45974
v 43.18021 0.906281 -15.45974
v 43.14515 9.331072 -15.645
v 43.18021 0.906281 -15.645
v 43.12946 9.120452 -15.45974
v 43.12946 9.120452 -15.645
v 43.21791 6.425807 -15.45974
v 43.21791 6.425807 -15.645
v 43.20864 2.75495 -15.45974
v 43.20864 2.75495 -15.645
v 43.12207 4.107035 -15.45974
v 43.12207 4.107035 -15.645
v 43.14515 9.331072 -15.7282
v 43.29324 0.906281 -15.7282
v 43.14515 9.331072 -15.91347
v 43.29324 0.906281 -15.91347
v 43.12946 9.120452 -15.7282
v 43.12946 9.120452 -15.91347
v 43.33089 6.031859 -15.7282
v 43.32762 7.274451 -15.7282
v 43.35366 6.425807 -15.7282
v 43.35246 6.880628 -15.7282
v 43.32762 7.274451 -15.91347
v 43.33089 6.031859 -15.91347
v 43.35246 6.880628 -15.91347
v 43.35366 6.425807 -15.91347
v 43.33743 2.218377 -15.7282
v 43.30986 3.003465 -15.7282
v 43.33858 2.467587 -15.7282
v 43.32849 2.75495 -15.7282
v 43.30986 3.003465 -15.91347
v 43.33743 2.218377 -15.91347
v 43.32849 2.75495 -15.91347
v 43.33858 2.467587 -15.91347
v 43.24763 3.600527 -15.7282
v 43.24588 5.198513 -15.7282
v 43.21691 4.107035 -15.7282
v 43.21627 4.691938 -15.7282
v 43.24588 5.198513 -15.91347
v 43.24763 3.600527 -15.91347
v 43.21627 4.691938 -15.91347
v 43.21691 4.107035 -15.91347
v 43.14515 9.331072 -15.98245
v 43.29324 0.906281 -15.98245
v 43.14515 9.331072 -16.16772
v 43.29324 0.906281 -16.16772
v 43.12946 9.120452 -15.98245
v 43.12946 9.120452 -16.16772
v 43.33089 6.031859 -15.98245
v 43.32762 7.274451 -15.98245
v 43.35366 6.425807 -15.98245
v 43.35246 6.880628 -15.98245
v 43.32762 7.274451 -16.16772
v 43.33089 6.031859 -16.16772
v 43.35246 6.880628 -16.16772
v 43.35366 6.425807 -16.16772
v 43.33743 2.218377 -15.98245
v 43.30986 3.003465 -15.98245
v 43.33858 2.467587 -15.98245
v 43.32849 2.75495 -15.98245
v 43.30986 3.003465 -16.16772
v 43.33743 2.218377 -16.16772
v 43.32849 2.75495 -16.16772
v 43.33858 2.467587 -16.16772
v 43.24763 3.600527 -15.98245
v 43.24588 5.198513 -15.98245
v 43.21691 4.107035 -15.98245
v 43.21627 4.691938 -15.98245
v 43.24588 5.198513 -16.16772
v 43.24763 3.600527 -16.16772
v 43.21627 4.691938 -16.16772
v 43.21691 4.107035 -16.16772
v 43.14515 9.331072 -16.23459
v 43.18021 0.906281 -16.23459
v 43.14515 9.331072 -16.41986
v 43.18021 0.906281 -16.41986
v 43.12946 9.120452 -16.23459
v 43.12946 9.120452 -16.41986
v 43.15978 6.425807 -16.23459
v 43.15978 6.425807 -16.41986
v 43.20864 2.75495 -16.23459
v 43.20864 2.75495 -16.41986
v 43.12207 4.107035 -16.23459
v 43.12207 4.107035 -16.41986
v 43.14515 9.331072 -16.50322
v 43.18021 0.906281 -16.50322
v 43.14515 9.331072 -16.68849
v 43.18021 0.906281 -16.68849
v 43.12946 9.120452 -16.50322
v 43.12946 9.120452 -16.68849
v 43.21791 6.425807 -16.50322
v 43.21791 6.425807 -16.68849
v 43.20864 2.75495 -16.50322
v 43.20864 2.75495 -16.68849
v 43.12207 4.107035 -16.50322
v 43.12207 4.107035 -16.68849
v 43.14515 9.331072 -16.77168
v 43.29324 0.906281 -16.77168
v 43.14515 9.331072 -16.95695
v 43.29324 0.906281 -16.95695
v 43.12946 9.120452 -16.77168
v 43.12946 9.120452 -16.95695
v 43.33089 6.031859 -16.77168
v 43.32762 7.274451 -16.77168
v 43.35366 6.425807 -16.77168
v 43.35246 6.880628 -16.77168
v 43.32762 7.274451 -16.95695
v 43.33089 6.031859 -16.95695
v 43.35246 6.880628 -16.95695
v 43.35366 6.425807 -16.95695
v 43.33743 2.218377 -16.77168
v 43.30986 3.003465 -16.77168
v 43.33858 2.467587 -16.77168
v 43.32849 2.75495 -16.77168
v 43.30986 3.003465 -16.95695
v 43.33743 2.218377 -16.95695
v 43.32849 2.75495 -16.95695
v 43.33858 2.467587 -16.95695
v 43.24763 3.600527 -16.77168
v 43.24588 5.198513 -16.77168
v 43.21691 4.107035 -16.77168
v 43.21627 4.691938 -16.77168
v 43.24588 5.198513 -16.95695
v 43.24763 3.600527 -16.95695
v 43.21627 4.691938 -16.95695
v 43.21691 4.107035 -16.95695
#end vertices

#begin 312 textures vertices 
vt 0.0926267 0.9862111 0
vt 0.0926267 0.03131231 0
vt 0.1135669 0.9862111 0
vt 0.1135669 0.03131231 0
vt 0.0926267 0.9623394 0
vt 0.1135669 0.9623394 0
vt 0.0926267 0.6118827 0
vt 0.0926267 0.7524923 0
vt 0.0926267 0.6564838 0
vt 0.0926267 0.7078912 0
vt 0.1135669 0.7524923 0
vt 0.1135669 0.6118827 0
vt 0.1135669 0.7078912 0
vt 0.1135669 0.6564838 0
vt 0.0926267 0.1796989 0
vt 0.0926267 0.2685344 0
vt 0.0926267 0.2078667 0
vt 0.0926267 0.2403666 0
vt 0.1135669 0.2685344 0
vt 0.1135669 0.1796989 0
vt 0.1135669 0.2403666 0
vt 0.1135669 0.2078667 0
vt 0.0926267 0.3363842 0
vt 0.0926267 0.5172031 0
vt 0.0926267 0.3937386 0
vt 0.0926267 0.4598486 0
vt 0.1135669 0.5172031 0
vt 0.1135669 0.3363842 0
vt 0.1135669 0.4598486 0
vt 0.1135669 0.3937386 0
vt 0.5379698 0.9862111 0
vt 0.5379698 0.03352285 0
vt 0.55891 0.9862111 0
vt 0.55891 0.03352285 0
vt 0.5379698 0.9623394 0
vt 0.55891 0.9623394 0
vt 0.5379698 0.6577519 0
vt 0.55891 0.6577519 0
vt 0.5379698 0.2424975 0
vt 0.55891 0.2424975 0
vt 0.5379698 0.3956329 0
vt 0.55891 0.3956329 0
vt 0.3700659 0.9862111 0
vt 0.3700659 0.03318897 0
vt 0.3910061 0.9862111 0
vt 0.3910061 0.03318897 0
vt 0.3700659 0.9623394 0
vt 0.3910061 0.9623394 0
vt 0.3700659 0.6576071 0
vt 0.3910061 0.6576071 0
vt 0.3700659 0.2421636 0
vt 0.3910061 0.2421636 0
vt 0.3700659 0.395299 0
vt 0.3910061 0.395299 0
vt 0.03145306 0.9862111 0
vt 0.03145306 0.03131231 0
vt 0.05239339 0.9862111 0
vt 0.05239339 0.03131231 0
vt 0.03145306 0.9623394 0
vt 0.05239339 0.9623394 0
vt 0.03145306 0.6118827 0
vt 0.03145306 0.7524923 0
vt 0.03145306 0.6564838 0
vt 0.03145306 0.7078912 0
vt 0.05239339 0.7524923 0
vt 0.05239339 0.6118827 0
vt 0.05239339 0.7078912 0
vt 0.05239339 0.6564838 0
vt 0.03145306 0.1796989 0
vt 0.03145306 0.2685344 0
vt 0.03145306 0.2078667 0
vt 0.03145306 0.2403666 0
vt 0.05239339 0.2685344 0
vt 0.05239339 0.1796989 0
vt 0.05239339 0.2403666 0
vt 0.05239339 0.2078667 0
vt 0.03145306 0.3363842 0
vt 0.03145306 0.5172031 0
vt 0.03145306 0.3937386 0
vt 0.03145306 0.4598486 0
vt 0.05239339 0.5172031 0
vt 0.05239339 0.3363842 0
vt 0.05239339 0.4598486 0
vt 0.05239339 0.3937386 0
vt 0.7995485 0.9862111 0
vt 0.7995485 0.03352285 0
vt 0.8204888 0.9862111 0
vt 0.8204888 0.03352285 0
vt 0.7995485 0.9623394 0
vt 0.8204888 0.9623394 0
vt 0.7995485 0.6577519 0
vt 0.8204888 0.6577519 0
vt 0.7995485 0.2424975 0
vt 0.8204888 0.2424975 0
vt 0.7995485 0.3956329 0
vt 0.8204888 0.3956329 0
vt 0.7036819 0.9862111 0
vt 0.7036819 0.03318897 0
vt 0.7246222 0.9862111 0
vt 0.7246222 0.03318897 0
vt 0.7036819 0.9623394 0
vt 0.7246222 0.9623394 0
vt 0.7036819 0.6576071 0
vt 0.7246222 0.6576071 0
vt 0.7036819 0.2421636 0
vt 0.7246222 0.2421636 0
vt 0.7036819 0.395299 0
vt 0.7246222 0.395299 0
vt 0.8956264 0.9862111 0
vt 0.8956264 0.03352285 0
vt 0.9165667 0.9862111 0
vt 0.9165667 0.03352285 0
vt 0.8956264 0.9623394 0
vt 0.9165667 0.9623394 0
vt 0.8956264 0.6577519 0
vt 0.9165667 0.6577519 0
vt 0.8956264 0.2424975 0
vt 0.9165667 0.2424975 0
vt 0.8956264 0.3956329 0
vt 0.9165667 0.3956329 0
vt 0.655643 0.9862111 0
vt 0.655643 0.03318897 0
vt 0.6765833 0.9862111 0
vt 0.6765833 0.03318897 0
vt 0.655643 0.9623394 0
vt 0.6765833 0.9623394 0
vt 0.655643 0.6576071 0
vt 0.6765833 0.6576071 0
vt 0.655643 0.2421636 0
vt 0.6765833 0.2421636 0
vt 0.655643 0.395299 0
vt 0.6765833 0.395299 0
vt 0.9436653 0.9862111 0
vt 0.9436653 0.03352285 0
vt 0.9646056 0.9862111 0
vt 0.9646056 0.03352285 0
vt 0.9436653 0.9623394 0
vt 0.9646056 0.9623394 0
vt 0.9436653 0.6577519 0
vt 0.9646056 0.6577519 0
vt 0.9436653 0.2424975 0
vt 0.9646056 0.2424975 0
vt 0.9436653 0.3956329 0
vt 0.9646056 0.3956329 0
vt 0.03145306 0.9862111 0
vt 0.03145306 0.03131231 0
vt 0.05239339 0.9862111 0
vt 0.05239339 0.03131231 0
vt 0.03145306 0.9623394 0
vt 0.05239339 0.9623394 0
vt 0.03145306 0.6118827 0
vt 0.03145306 0.7524923 0
vt 0.03145306 0.6564838 0
vt 0.03145306 0.7078912 0
vt 0.05239339 0.7524923 0
vt 0.05239339 0.6118827 0
vt 0.05239339 0.7078912 0
vt 0.05239339 0.6564838 0
vt 0.03145306 0.1796989 0
vt 0.03145306 0.2685344 0
vt 0.03145306 0.2078667 0
vt 0.03145306 0.2403666 0
vt 0.05239339 0.2685344 0
vt 0.05239339 0.1796989 0
vt 0.05239339 0.2403666 0
vt 0.05239339 0.2078667 0
vt 0.03145306 0.3363842 0
vt 0.03145306 0.5172031 0
vt 0.03145306 0.3937386 0
vt 0.03145306 0.4598486 0
vt 0.05239339 0.5172031 0
vt 0.05239339 0.3363842 0
vt 0.05239339 0.4598486 0
vt 0.05239339 0.3937386 0
vt 0.5019406 0.9862111 0
vt 0.5019406 0.03352285 0
vt 0.5228808 0.9862111 0
vt 0.5228808 0.03352285 0
vt 0.5019406 0.9623394 0
vt 0.5228808 0.9623394 0
vt 0.5019406 0.6577519 0
vt 0.5228808 0.6577519 0
vt 0.5019406 0.2424975 0
vt 0.5228808 0.2424975 0
vt 0.5019406 0.3956329 0
vt 0.5228808 0.3956329 0
vt 0.5742314 0.9862111 0
vt 0.5742314 0.03318897 0
vt 0.5951716 0.9862111 0
vt 0.5951716 0.03318897 0
vt 0.5742314 0.9623394 0
vt 0.5951716 0.9623394 0
vt 0.5742314 0.6576071 0
vt 0.5951716 0.6576071 0
vt 0.5742314 0.2421636 0
vt 0.5951716 0.2421636 0
vt 0.5742314 0.395299 0
vt 0.5951716 0.395299 0
vt 0.7441341 0.9862111 0
vt 0.7441341 0.03131231 0
vt 0.7650743 0.9862111 0
vt 0.7650743 0.03131231 0
vt 0.7441341 0.9623394 0
vt 0.7650743 0.9623394 0
vt 0.7441341 0.6118827 0
vt 0.7441341 0.7524923 0
vt 0.7441341 0.6564838 0
vt 0.7441341 0.7078912 0
vt 0.7650743 0.7524923 0
vt 0.7650743 0.6118827 0
vt 0.7650743 0.7078912 0
vt 0.7650743 0.6564838 0
vt 0.7441341 0.1796989 0
vt 0.7441341 0.2685344 0
vt 0.7441341 0.2078667 0
vt 0.7441341 0.2403666 0
vt 0.7650743 0.2685344 0
vt 0.7650743 0.1796989 0
vt 0.7650743 0.2403666 0
vt 0.7650743 0.2078667 0
vt 0.7441341 0.3363842 0
vt 0.7441341 0.5172031 0
vt 0.7441341 0.3937386 0
vt 0.7441341 0.4598486 0
vt 0.7650743 0.5172031 0
vt 0.7650743 0.3363842 0
vt 0.7650743 0.4598486 0
vt 0.7650743 0.3937386 0
vt 0.03145306 0.9862111 0
vt 0.03145306 0.03131231 0
vt 0.05239339 0.9862111 0
vt 0.05239339 0.03131231 0
vt 0.03145306 0.9623394 0
vt 0.05239339 0.9623394 0
vt 0.03145306 0.6118827 0
vt 0.03145306 0.7524923 0
vt 0.03145306 0.6564838 0
vt 0.03145306 0.7078912 0
vt 0.05239339 0.7524923 0
vt 0.05239339 0.6118827 0
vt 0.05239339 0.7078912 0
vt 0.05239339 0.6564838 0
vt 0.03145306 0.1796989 0
vt 0.03145306 0.2685344 0
vt 0.03145306 0.2078667 0
vt 0.03145306 0.2403666 0
vt 0.05239339 0.2685344 0
vt 0.05239339 0.1796989 0
vt 0.05239339 0.2403666 0
vt 0.05239339 0.2078667 0
vt 0.03145306 0.3363842 0
vt 0.03145306 0.5172031 0
vt 0.03145306 0.3937386 0
vt 0.03145306 0.4598486 0
vt 0.05239339 0.5172031 0
vt 0.05239339 0.3363842 0
vt 0.05239339 0.4598486 0
vt 0.05239339 0.3937386 0
vt 0.8475874 0.9862111 0
vt 0.8475874 0.03352285 0
vt 0.8685278 0.9862111 0
vt 0.8685278 0.03352285 0
vt 0.8475874 0.9623394 0
vt 0.8685278 0.9623394 0
vt 0.8475874 0.6577519 0
vt 0.8685278 0.6577519 0
vt 0.8475874 0.2424975 0
vt 0.8685278 0.2424975 0
vt 0.8475874 0.3956329 0
vt 0.8685278 0.3956329 0
vt 0.7517209 0.9862111 0
vt 0.7517209 0.03318897 0
vt 0.772661 0.9862111 0
vt 0.772661 0.03318897 0
vt 0.7517209 0.9623394 0
vt 0.772661 0.9623394 0
vt 0.7517209 0.6576071 0
vt 0.772661 0.6576071 0
vt 0.7517209 0.2421636 0
vt 0.772661 0.2421636 0
vt 0.7517209 0.395299 0
vt 0.772661 0.395299 0
vt 0.03145334 0.9862111 0
vt 0.03145334 0.03131231 0
vt 0.05239344 0.9862111 0
vt 0.05239344 0.03131231 0
vt 0.03145334 0.9623394 0
vt 0.05239344 0.9623394 0
vt 0.03145334 0.6118827 0
vt 0.03145334 0.7524923 0
vt 0.03145334 0.6564838 0
vt 0.03145334 0.7078912 0
vt 0.05239344 0.7524923 0
vt 0.05239344 0.6118827 0
vt 0.05239344 0.7078912 0
vt 0.05239344 0.6564838 0
vt 0.03145334 0.1796989 0
vt 0.03145334 0.2685344 0
vt 0.03145334 0.2078667 0
vt 0.03145334 0.2403666 0
vt 0.05239344 0.2685344 0
vt 0.05239344 0.1796989 0
vt 0.05239344 0.2403666 0
vt 0.05239344 0.2078667 0
vt 0.03145334 0.3363842 0
vt 0.03145334 0.5172031 0
vt 0.03145334 0.3937386 0
vt 0.03145334 0.4598486 0
vt 0.05239344 0.5172031 0
vt 0.05239344 0.3363842 0
vt 0.05239344 0.4598486 0
vt 0.05239344 0.3937386 0
#end 312 textures vertices 

#begin 156 normals 
vn 0.9972 -0.0743 -0
vn 0.9994 -0.0337 -0
vn 0.9999 0.0163 -0
vn 0.9968 -0.0796 -0
vn 0.9964 0.0849 -0
vn 0.9996 -0.0275 -0
vn 0.9995 0.0328 -0
vn 0.9998 -0.0191 -0
vn 0.996 0.0892 -0
vn 0.9999 0.0152 -0
vn 0.9985 0.0549 -0
vn 0.9966 0.0821 -0
vn 0.9968 -0.0799 -0
vn 0.9995 0.0308 -0
vn 0.9996 -0.0286 -0
vn 0.9972 -0.0743 -0
vn 0.9999 -0.0154 -0
vn 0.9995 -0.0315 -0
vn 1 -0.0025 -0
vn 0.9997 0.0243 -0
vn 0.9997 0.0238 -0
vn 0.9972 -0.0743 -0
vn 0.9999 -0.0154 -0
vn 0.9998 -0.0208 -0
vn 1 -0.0042 -0
vn 0.9997 0.0243 -0
vn 0.9999 0.0113 -0
vn 0.9972 -0.0743 -0
vn 0.9994 -0.0337 -0
vn 0.9999 0.0163 -0
vn 0.9968 -0.0796 -0
vn 0.9964 0.0849 -0
vn 0.9996 -0.0275 -0
vn 0.9995 0.0328 -0
vn 0.9998 -0.0191 -0
vn 0.996 0.0892 -0
vn 0.9999 0.0152 -0
vn 0.9985 0.0549 -0
vn 0.9966 0.0821 -0
vn 0.9968 -0.0799 -0
vn 0.9995 0.0308 -0
vn 0.9996 -0.0286 -0
vn 0.9972 -0.0743 -0
vn 0.9999 -0.0154 -0
vn 0.9995 -0.0315 -0
vn 1 -0.0025 -0
vn 0.9997 0.0243 -0
vn 0.9997 0.0238 -0
vn 0.9972 -0.0743 -0
vn 0.9999 -0.0154 -0
vn 0.9998 -0.0208 -0
vn 1 -0.0042 -0
vn 0.9997 0.0243 -0
vn 0.9999 0.0113 -0
vn 0.9972 -0.0743 -0
vn 0.9999 -0.0154 -0
vn 0.9995 -0.0315 -0
vn 1 -0.0025 -0
vn 0.9997 0.0243 -0
vn 0.9997 0.0238 -0
vn 0.9972 -0.0743 -0
vn 0.9999 -0.0154 -0
vn 0.9998 -0.0208 -0
vn 1 -0.0042 -0
vn 0.9997 0.0243 -0
vn 0.9999 0.0113 -0
vn 0.9972 -0.0743 -0
vn 0.9999 -0.0154 -0
vn 0.9995 -0.0315 -0
vn 1 -0.0025 -0
vn 0.9997 0.0243 -0
vn 0.9997 0.0238 -0
vn 0.9972 -0.0743 -0
vn 0.9994 -0.0337 -0
vn 0.9999 0.0163 -0
vn 0.9968 -0.0796 -0
vn 0.9964 0.0849 -0
vn 0.9996 -0.0275 -0
vn 0.9995 0.0328 -0
vn 0.9998 -0.0191 -0
vn 0.996 0.0892 -0
vn 0.9999 0.0152 -0
vn 0.9985 0.0549 -0
vn 0.9966 0.0821 -0
vn 0.9968 -0.0799 -0
vn 0.9995 0.0308 -0
vn 0.9996 -0.0286 -0
vn 0.9972 -0.0743 -0
vn 0.9999 -0.0154 -0
vn 0.9995 -0.0315 -0
vn 1 -0.0025 -0
vn 0.9997 0.0243 -0
vn 0.9997 0.0238 -0
vn 0.9972 -0.0743 -0
vn 0.9999 -0.0154 -0
vn 0.9998 -0.0208 -0
vn 1 -0.0042 -0
vn 0.9997 0.0243 -0
vn 0.9999 0.0113 -0
vn 0.9972 -0.0743 -0
vn 0.9994 -0.0337 -0
vn 0.9999 0.0163 -0
vn 0.9968 -0.0796 -0
vn 0.9964 0.0849 -0
vn 0.9996 -0.0275 -0
vn 0.9995 0.0328 -0
vn 0.9998 -0.0191 -0
vn 0.996 0.0892 -0
vn 0.9999 0.0152 -0
vn 0.9985 0.0549 -0
vn 0.9966 0.0821 -0
vn 0.9968 -0.0799 -0
vn 0.9995 0.0308 -0
vn 0.9996 -0.0286 -0
vn 0.9972 -0.0743 -0
vn 0.9994 -0.0337 -0
vn 0.9999 0.0163 -0
vn 0.9968 -0.0796 -0
vn 0.9964 0.0849 -0
vn 0.9996 -0.0275 -0
vn 0.9995 0.0328 -0
vn 0.9998 -0.0191 -0
vn 0.996 0.0892 -0
vn 0.9999 0.0152 -0
vn 0.9985 0.0549 -0
vn 0.9966 0.0821 -0
vn 0.9968 -0.0799 -0
vn 0.9995 0.0308 -0
vn 0.9996 -0.0286 -0
vn 0.9972 -0.0743 -0
vn 0.9999 -0.0154 -0
vn 0.9995 -0.0315 -0
vn 1 -0.0025 -0
vn 0.9997 0.0243 -0
vn 0.9997 0.0238 -0
vn 0.9972 -0.0743 -0
vn 0.9999 -0.0154 -0
vn 0.9998 -0.0208 -0
vn 1 -0.0042 -0
vn 0.9997 0.0243 -0
vn 0.9999 0.0113 -0
vn 0.9972 -0.0743 -0
vn 0.9994 -0.0337 -0
vn 0.9999 0.0163 -0
vn 0.9968 -0.0796 -0
vn 0.9964 0.0849 -0
vn 0.9996 -0.0275 -0
vn 0.9995 0.0328 -0
vn 0.9998 -0.0191 -0
vn 0.996 0.0892 -0
vn 0.9999 0.0152 -0
vn 0.9985 0.0549 -0
vn 0.9966 0.0821 -0
vn 0.9968 -0.0799 -0
vn 0.9995 0.0308 -0
vn 0.9996 -0.0286 -0
#end 156 normals 

#begin 139 faces
o Plane:019
s 1
f 1/1/1 5/5/3 6/6/3 3/3/1 
f 23/23/12 16/16/9 19/19/9 28/28/12 
f 7/7/4 12/12/4 14/14/6 9/9/6 
f 9/9/6 14/14/6 13/13/7 10/10/7 
f 10/10/7 13/13/7 11/11/5 8/8/5 
f 5/5/3 8/8/5 11/11/5 6/6/3 
f 15/15/8 20/20/8 22/22/10 17/17/10 
f 17/17/10 22/22/10 21/21/11 18/18/11 
f 18/18/11 21/21/11 19/19/9 16/16/9 
f 15/15/8 2/2/2 4/4/2 20/20/8 
f 23/23/12 28/28/12 30/30/14 25/25/14 
f 25/25/14 30/30/14 29/29/15 26/26/15 
f 26/26/15 29/29/15 27/27/13 24/24/13 
f 7/7/4 24/24/13 27/27/13 12/12/4 
o Plane:059
s 1
f 31/31/16 35/35/18 36/36/18 33/33/16 
f 35/35/18 37/37/19 38/38/19 36/36/18 
f 39/39/20 32/32/17 34/34/17 40/40/20 
f 42/42/21 41/41/21 39/39/20 40/40/20 
f 42/42/21 38/38/19 37/37/19 41/41/21 
o Plane:060
s 1
f 43/43/22 47/47/24 48/48/24 45/45/22 
f 47/47/24 49/49/25 50/50/25 48/48/24 
f 51/51/26 44/44/23 46/46/23 52/52/26 
f 54/54/27 53/53/27 51/51/26 52/52/26 
f 54/54/27 50/50/25 49/49/25 53/53/27 
o Plane:088
s 1
f 55/55/28 59/59/30 60/60/30 57/57/28 
f 77/77/39 70/70/36 73/73/36 82/82/39 
f 61/61/31 66/66/31 68/68/33 63/63/33 
f 63/63/33 68/68/33 67/67/34 64/64/34 
f 64/64/34 67/67/34 65/65/32 62/62/32 
f 59/59/30 62/62/32 65/65/32 60/60/30 
f 69/69/35 74/74/35 76/76/37 71/71/37 
f 71/71/37 76/76/37 75/75/38 72/72/38 
f 72/72/38 75/75/38 73/73/36 70/70/36 
f 69/69/35 56/56/29 58/58/29 74/74/35 
f 77/77/39 82/82/39 84/84/41 79/79/41 
f 79/79/41 84/84/41 83/83/42 80/80/42 
f 80/80/42 83/83/42 81/81/40 78/78/40 
f 61/61/31 78/78/40 81/81/40 66/66/31 
o Plane:090
s 1
f 85/85/43 89/89/45 90/90/45 87/87/43 
f 89/89/45 91/91/46 92/92/46 90/90/45 
f 93/93/47 86/86/44 88/88/44 94/94/47 
f 96/96/48 95/95/48 93/93/47 94/94/47 
f 96/96/48 92/92/46 91/91/46 95/95/48 
o Plane:091
s 1
f 97/97/49 101/101/51 102/102/51 99/99/49 
f 101/101/51 103/103/52 104/104/52 102/102/51 
f 105/105/53 98/98/50 100/100/50 106/106/53 
f 108/108/54 107/107/54 105/105/53 106/106/53 
f 108/108/54 104/104/52 103/103/52 107/107/54 
o Plane:092
s 1
f 109/109/55 113/113/57 114/114/57 111/111/55 
f 113/113/57 115/115/58 116/116/58 114/114/57 
f 117/117/59 110/110/56 112/112/56 118/118/59 
f 120/120/60 119/119/60 117/117/59 118/118/59 
f 120/120/60 116/116/58 115/115/58 119/119/60 
o Plane:093
s 1
f 121/121/61 125/125/63 126/126/63 123/123/61 
f 125/125/63 127/127/64 128/128/64 126/126/63 
f 129/129/65 122/122/62 124/124/62 130/130/65 
f 132/132/66 131/131/66 129/129/65 130/130/65 
f 132/132/66 128/128/64 127/127/64 131/131/66 
o Plane:094
s 1
f 133/133/67 137/137/69 138/138/69 135/135/67 
f 137/137/69 139/139/70 140/140/70 138/138/69 
f 141/141/71 134/134/68 136/136/68 142/142/71 
f 144/144/72 143/143/72 141/141/71 142/142/71 
f 144/144/72 140/140/70 139/139/70 143/143/72 
o Plane:095
s 1
f 145/145/73 149/149/75 150/150/75 147/147/73 
f 167/167/84 160/160/81 163/163/81 172/172/84 
f 151/151/76 156/156/76 158/158/78 153/153/78 
f 153/153/78 158/158/78 157/157/79 154/154/79 
f 154/154/79 157/157/79 155/155/77 152/152/77 
f 149/149/75 152/152/77 155/155/77 150/150/75 
f 159/159/80 164/164/80 166/166/82 161/161/82 
f 161/161/82 166/166/82 165/165/83 162/162/83 
f 162/162/83 165/165/83 163/163/81 160/160/81 
f 159/159/80 146/146/74 148/148/74 164/164/80 
f 167/167/84 172/172/84 174/174/86 169/169/86 
f 169/169/86 174/174/86 173/173/87 170/170/87 
f 170/170/87 173/173/87 171/171/85 168/168/85 
f 151/151/76 168/168/85 171/171/85 156/156/76 
o Plane:096
s 1
f 175/175/88 179/179/90 180/180/90 177/177/88 
f 179/179/90 181/181/91 182/182/91 180/180/90 
f 183/183/92 176/176/89 178/178/89 184/184/92 
f 186/186/93 185/185/93 183/183/92 184/184/92 
f 186/186/93 182/182/91 181/181/91 185/185/93 
o Plane:097
s 1
f 187/187/94 191/191/96 192/192/96 189/189/94 
f 191/191/96 193/193/97 194/194/97 192/192/96 
f 195/195/98 188/188/95 190/190/95 196/196/98 
f 198/198/99 197/197/99 195/195/98 196/196/98 
f 198/198/99 194/194/97 193/193/97 197/197/99 
o Plane:098
s 1
f 199/199/100 203/203/102 204/204/102 201/201/100 
f 221/221/111 214/214/108 217/217/108 226/226/111 
f 205/205/103 210/210/103 212/212/105 207/207/105 
f 207/207/105 212/212/105 211/211/106 208/208/106 
f 208/208/106 211/211/106 209/209/104 206/206/104 
f 203/203/102 206/206/104 209/209/104 204/204/102 
f 213/213/107 218/218/107 220/220/109 215/215/109 
f 215/215/109 220/220/109 219/219/110 216/216/110 
f 216/216/110 219/219/110 217/217/108 214/214/108 
f 213/213/107 200/200/101 202/202/101 218/218/107 
f 221/221/111 226/226/111 228/228/113 223/223/113 
f 223/223/113 228/228/113 227/227/114 224/224/114 
f 224/224/114 227/227/114 225/225/112 222/222/112 
f 205/205/103 222/222/112 225/225/112 210/210/103 
o Plane:104
s 1
f 229/229/115 233/233/117 234/234/117 231/231/115 
f 251/251/126 244/244/123 247/247/123 256/256/126 
f 235/235/118 240/240/118 242/242/120 237/237/120 
f 237/237/120 242/242/120 241/241/121 238/238/121 
f 238/238/121 241/241/121 239/239/119 236/236/119 
f 233/233/117 236/236/119 239/239/119 234/234/117 
f 243/243/122 248/248/122 250/250/124 245/245/124 
f 245/245/124 250/250/124 249/249/125 246/246/125 
f 246/246/125 249/249/125 247/247/123 244/244/123 
f 243/243/122 230/230/116 232/232/116 248/248/122 
f 251/251/126 256/256/126 258/258/128 253/253/128 
f 253/253/128 258/258/128 257/257/129 254/254/129 
f 254/254/129 257/257/129 255/255/127 252/252/127 
f 235/235/118 252/252/127 255/255/127 240/240/118 
o Plane:105
s 1
f 259/259/130 263/263/132 264/264/132 261/261/130 
f 263/263/132 265/265/133 266/266/133 264/264/132 
f 267/267/134 260/260/131 262/262/131 268/268/134 
f 270/270/135 269/269/135 267/267/134 268/268/134 
f 270/270/135 266/266/133 265/265/133 269/269/135 
o Plane:106
s 1
f 271/271/136 275/275/138 276/276/138 273/273/136 
f 275/275/138 277/277/139 278/278/139 276/276/138 
f 279/279/140 272/272/137 274/274/137 280/280/140 
f 282/282/141 281/281/141 279/279/140 280/280/140 
f 282/282/141 278/278/139 277/277/139 281/281/141 
o Plane:107
s 1
f 283/283/142 287/287/144 288/288/144 285/285/142 
f 305/305/153 298/298/150 301/301/150 310/310/153 
f 289/289/145 294/294/145 296/296/147 291/291/147 
f 291/291/147 296/296/147 295/295/148 292/292/148 
f 292/292/148 295/295/148 293/293/146 290/290/146 
f 287/287/144 290/290/146 293/293/146 288/288/144 
f 297/297/149 302/302/149 304/304/151 299/299/151 
f 299/299/151 304/304/151 303/303/152 300/300/152 
f 300/300/152 303/303/152 301/301/150 298/298/150 
f 297/297/149 284/284/143 286/286/143 302/302/149 
f 305/305/153 310/310/153 312/312/155 307/307/155 
f 307/307/155 312/312/155 311/311/156 308/308/156 
f 308/308/156 311/311/156 309/309/154 306/306/154 
f 289/289/145 306/306/154 309/309/154 294/294/145 
#end 139 faces

#ZOMPROPERTIES_04{
#ZOMPROPERTIES_04 table {Mesh table {SymPlane table {Point vector3d 0 0 0 Normal vector3d 1 0 0 Threshold double 0.01 
#ZOMPROPERTIES_04 Enabled bool false EdgeID int -1 SymEdgeID int -1 UPos double 0.5 LocalMode bool false } RootGroup C
#ZOMPROPERTIES_04 SubMeshGroup {Children table {Tile_0_0 CSubMeshGroup {Children table {} BBoxUV box3d 0 0 0 0 0 0 BBo
#ZOMPROPERTIES_04 x3D box3d 0 0 0 0 0 0 Area3D double 0 AreaUV double 0.339455 IsRoot bool false Properties table {Sel
#ZOMPROPERTIES_04 ected bool false Box box3d 0 1 0 1 0 1 U int 0 V int 0 NU int 0 NV int 0 Tiling vector3d 1 1 1 TileR
#ZOMPROPERTIES_04 atioMode string "1:1" Overflow string "Off" Pack table {BoxFrameEdit bool false Behavior string "Fre
#ZOMPROPERTIES_04 e" } } IsTile bool true PolyIDs ints { 77 78 81 80 79 14 15 18 17 16 58 59 62 61 60 48 49 52 51 50 1
#ZOMPROPERTIES_04 15 116 119 118 117 38 39 42 41 40 120 121 124 123 122 82 83 86 85 84 19 20 23 22 21 43 44 47 46 45 5
#ZOMPROPERTIES_04 3 54 57 56 55 125 130 129 128 127 138 137 136 135 126 133 132 131 134 87 92 91 90 89 100 99 98 97 88
#ZOMPROPERTIES_04  95 94 93 96 0 5 4 3 2 13 12 11 10 1 8 7 6 9 101 106 105 104 103 114 113 112 111 102 109 108 107 110
#ZOMPROPERTIES_04  63 68 67 66 65 76 75 74 73 64 71 70 69 72 24 29 28 27 26 37 36 35 34 25 32 31 30 33 } } } BBoxUV bo
#ZOMPROPERTIES_04 x3d 0 0 0 0 0 0 BBox3D box3d 0 0 0 0 0 0 Area3D double 0 AreaUV double 0.021659 IsRoot bool true Pro
#ZOMPROPERTIES_04 perties table {Selected bool false Box box3d 0 1 0 1 0 1 U int 0 V int 0 NU int 1 NV int 1 Tiling ve
#ZOMPROPERTIES_04 ctor3d 1 1 1 TileRatioMode string "1:1" Overflow string "Off" Pack table {Rotate table {Mode int 0 M
#ZOMPROPERTIES_04 in double 0 Max double 90 Step double 0 } PaddingSize double 0.0078125 MarginSize double 0.00390625 
#ZOMPROPERTIES_04 Resolution int 256 MapResolution int 2048 Scaling table {TexelDensity double 1024 Mode int 2 } Layou
#ZOMPROPERTIES_04 tScalingMode int 2 MaxMutations int 1 } } IsTile bool false PolyIDs ints { } } Maps table {Pin table
#ZOMPROPERTIES_04  {PrimType string "Vertex" Size int 1 DefaultValue double 0 ScaleType string "Normalized" MergeMode 
#ZOMPROPERTIES_04 string "Max" MinValue double 0 MaxValue double 1 Data doubles { r 312 0 } } Density table {PrimType 
#ZOMPROPERTIES_04 string "Polygon" Size int 1 DefaultValue double 1 ScaleType string "Log" MergeMode string "Average" 
#ZOMPROPERTIES_04 MinValue double 0.1 MaxValue double 4 Data doubles { r 139 1 } } Protect table {PrimType string "Ver
#ZOMPROPERTIES_04 tex" Size int 1 DefaultValue double 0 ScaleType string "Normalized" MergeMode string "Average" MinVa
#ZOMPROPERTIES_04 lue double -1 MaxValue double 1 Data doubles { r 312 0 } } } } }
#ZOMPROPERTIES_04}


#ZOMSCENE_01{
#ZOMSCENE_01 CScene {Settings table {AxisSystem table {UpVector string "y" } Unit string "cm" TexelDensityDisplay
#ZOMSCENE_01 Unit string "tx/cm" } Root table {} }
#ZOMSCENE_01}

#begin 0 fatal error vertex (that RizomUV cannot handle)
#end 0 fatal error vertex (that RizomUV cannot handle)

#begin 0 error vertex
#end 0 error vertex
