#File written by RizomUV 2023.0.70.ge90189e8. Compilation :Sep 22 2023,12:42:11
mtllib PISO  DE CONTANINERobj.mtl
#begin vertices
v 31.28044 -0.021757 23.0173
v 31.28044 -0.021757 16.98979
v 4.840503 -0.021757 23.0173
v 4.840503 -0.021757 16.98979
v 12.1088 -0.021757 23.0173
v 12.1088 -0.021757 16.98979
v 6.681257 -0.021757 16.98979
v 6.681257 -0.021757 23.0173
v 7.45662 -0.021757 23.0173
v 8.231983 -0.021757 23.0173
v 9.007346 -0.021757 23.0173
v 9.782709 -0.021757 23.0173
v 10.55807 -0.021757 23.0173
v 11.33343 -0.021757 23.0173
v 11.33343 -0.021757 16.98979
v 10.55807 -0.021757 16.98979
v 9.782708 -0.021757 16.98979
v 9.007345 -0.021757 16.98979
v 8.231983 -0.021757 16.98979
v 7.45662 -0.021757 16.98979
v 31.28044 -0.021757 22.15622
v 31.28044 -0.021757 21.29515
v 31.28044 -0.021757 20.43408
v 31.28044 -0.021757 19.57301
v 31.28044 -0.021757 18.71193
v 31.28044 -0.021757 17.85086
v 4.840503 -0.021757 17.85086
v 4.840503 -0.021757 18.71193
v 4.840503 -0.021757 19.57301
v 4.840503 -0.021757 20.43408
v 4.840503 -0.021757 21.29515
v 4.840503 -0.021757 22.15622
v 12.1088 -0.021757 17.85086
v 12.1088 -0.021757 18.71193
v 12.1088 -0.021757 19.57301
v 12.1088 -0.021757 20.43408
v 12.1088 -0.021757 21.29515
v 12.1088 -0.021757 22.15622
v 7.641062 -0.026813 18.34935
v 7.205864 -0.025213 18.87982
v 6.928882 -0.023333 19.506
v 6.832553 -0.021325 20.17715
v 6.92468 -0.019353 20.83891
v 7.197803 -0.017575 21.43766
v 11.11976 -0.025942 18.6847
v 11.39288 -0.024164 19.28345
v 11.48502 -0.022192 19.9452
v 11.38868 -0.020184 20.61636
v 11.1117 -0.018304 21.24253
v 10.67651 -0.016704 21.773
v 10.68778 -0.02738 18.19746
v 10.11835 -0.015513 22.16479
v 10.13192 -0.028364 17.86121
v 9.482461 -0.014828 22.38615
v 9.49722 -0.028812 17.70319
v 8.820346 -0.014705 22.41916
v 8.835107 -0.028688 17.7362
v 8.18565 -0.015153 22.26114
v 8.199214 -0.028004 17.95756
v 7.62979 -0.016137 21.92489
v 31.28044 -0.021757 23.75625
v 4.840503 -0.021757 23.75625
v 12.1088 -0.021757 23.75625
v 6.681257 -0.021757 23.75625
v 7.45662 -0.021757 23.75625
v 8.231983 -0.021757 23.75625
v 9.007346 -0.021757 23.75625
v 9.782709 -0.021757 23.75625
v 10.55807 -0.021757 23.75625
v 11.33343 -0.021757 23.75625
v 31.28044 -0.021757 34.63636
v 4.840504 -0.021757 34.63636
v 12.1088 -0.021757 34.63636
v 6.681257 -0.021757 34.63636
v 7.45662 -0.021757 34.63636
v 8.231984 -0.021757 34.63636
v 9.007347 -0.021757 34.63636
v 9.782709 -0.021757 34.63636
v 10.55807 -0.021757 34.63636
v 11.33343 -0.021757 34.63636
#end vertices

#begin 80 textures vertices 
vt 0.9014607 0.5921078 0
vt 0.8523688 0.7855316 0
vt 0.05299852 0.3767641 0
vt 0.00390625 0.570188 0
vt 0.2862393 0.4359616 0
vt 0.2371475 0.6293856 0
vt 0.06297627 0.5851806 0
vt 0.1120687 0.3917562 0
vt 0.1369503 0.3980712 0
vt 0.1618318 0.404386 0
vt 0.1867134 0.4107009 0
vt 0.2115948 0.4170161 0
vt 0.2364763 0.4233313 0
vt 0.2613578 0.4296465 0
vt 0.2122659 0.6230708 0
vt 0.1873842 0.6167561 0
vt 0.1625025 0.6104414 0
vt 0.1376208 0.6041265 0
vt 0.1127392 0.5978112 0
vt 0.08785774 0.5914958 0
vt 0.8944476 0.6197397 0
vt 0.8874344 0.6473718 0
vt 0.8804213 0.6750037 0
vt 0.8734082 0.7026357 0
vt 0.866395 0.7302677 0
vt 0.8593819 0.7578997 0
vt 0.01091952 0.542556 0
vt 0.01793269 0.5149241 0
vt 0.02494588 0.4872921 0
vt 0.03195906 0.4596601 0
vt 0.03897223 0.4320281 0
vt 0.04598537 0.4043961 0
vt 0.2441605 0.6017536 0
vt 0.2511736 0.5741216 0
vt 0.2581867 0.5464896 0
vt 0.2651998 0.5188576 0
vt 0.272213 0.4912256 0
vt 0.2792261 0.4635936 0
vt 0.1048501 0.5493691 0
vt 0.09520496 0.5288017 0
vt 0.09141654 0.5064516 0
vt 0.09379167 0.4841295 0
vt 0.1021379 0.463644 0
vt 0.1157792 0.4466545 0
vt 0.2192132 0.5669404 0
vt 0.2328544 0.5499509 0
vt 0.2412007 0.5294653 0
vt 0.2435758 0.5071432 0
vt 0.2397872 0.4847932 0
vt 0.2301422 0.4642259 0
vt 0.2013822 0.5790575 0
vt 0.2154217 0.4471077 0
vt 0.180806 0.5853204 0
vt 0.1968189 0.4348253 0
vt 0.1591516 0.5852219 0
vt 0.1758407 0.4283735 0
vt 0.1381733 0.5787701 0
vt 0.1541864 0.4282748 0
vt 0.1195704 0.5664875 0
vt 0.1336102 0.4345375 0
vt 0.9074792 0.5683947 0
vt 0.05901695 0.353051 0
vt 0.2922578 0.4122486 0
vt 0.1180871 0.3680432 0
vt 0.1429687 0.3743582 0
vt 0.1678502 0.3806731 0
vt 0.1927318 0.3869881 0
vt 0.2176133 0.3933032 0
vt 0.2424948 0.3996184 0
vt 0.2673763 0.4059335 0
vt 0.9960937 0.2192502 0
vt 0.1476315 0.00390625 0
vt 0.3808724 0.06310387 0
vt 0.2067016 0.0188985 0
vt 0.2315832 0.02521354 0
vt 0.2564647 0.03152859 0
vt 0.2813463 0.03784364 0
vt 0.3062278 0.04415869 0
vt 0.3311093 0.05047374 0
vt 0.3559909 0.0567888 0
#end 80 textures vertices 

#begin 26 normals 
vn 0.0009 1 0.0019
vn -0 1 -0
vn 0.0019 1 0.0035
vn -0.0017 1 0.0015
vn -0.0025 1 0.0033
vn -0.0024 1 0.0064
vn -0.0014 1 0.0093
vn 0.0003 1 0.0094
vn 0.0015 1 0.0065
vn -0.0015 0.9999 0.0103
vn 0.0003 0.9999 0.0112
vn 0.0017 1 0.008
vn 0.0021 1 0.0043
vn 0.002 1 0.0018
vn 0.0035 1 -0.0001
vn 0.0029 1 -0.0007
vn 0.0003 1 -0.0013
vn -0.0029 1 -0.0011
vn -0.0042 1 -0.0004
vn -0.0024 1 0.003
vn -0.0007 1 0.0016
vn -0.0017 1 -0.0009
vn -0.0009 1 -0.0012
vn 0.0002 1 -0.0013
vn 0.0012 1 -0.001
vn 0.0017 1 -0.0006
#end 26 normals 

#begin 51 faces
o Plane:089
s 0
f 39/39/1 7/7/1 4/4/1 27/27/1 
f 26/26/2 2/2/2 6/6/2 33/33/2 
f 59/59/3 20/20/3 7/7/3 39/39/3 
f 33/33/4 6/6/4 15/15/4 45/45/4 
f 45/45/5 15/15/5 16/16/5 51/51/5 
f 51/51/6 16/16/6 17/17/6 53/53/6 
f 53/53/7 17/17/7 18/18/7 55/55/7 
f 55/55/8 18/18/8 19/19/8 57/57/8 
f 57/57/9 19/19/9 20/20/9 59/59/9 
f 10/10/6 58/58/6 60/60/6 9/9/6 
f 11/11/10 56/56/10 58/58/10 10/10/10 
f 12/12/11 54/54/11 56/56/11 11/11/11 
f 13/13/12 52/52/12 54/54/12 12/12/12 
f 14/14/13 50/50/13 52/52/13 13/13/13 
f 5/5/14 38/38/14 50/50/14 14/14/14 
f 38/38/15 37/37/15 49/49/15 50/50/15 
f 37/37/16 36/36/16 48/48/16 49/49/16 
f 36/36/17 35/35/17 47/47/17 48/48/17 
f 35/35/18 34/34/18 46/46/18 47/47/18 
f 34/34/19 33/33/19 45/45/19 46/46/19 
f 9/9/20 60/60/20 44/44/20 8/8/20 
f 1/1/2 21/21/2 38/38/2 5/5/2 
f 21/21/2 22/22/2 37/37/2 38/38/2 
f 22/22/2 23/23/2 36/36/2 37/37/2 
f 23/23/2 24/24/2 35/35/2 36/36/2 
f 24/24/2 25/25/2 34/34/2 35/35/2 
f 25/25/2 26/26/2 33/33/2 34/34/2 
f 8/8/21 44/44/21 32/32/21 3/3/21 
f 44/44/22 43/43/22 31/31/22 32/32/22 
f 43/43/23 42/42/23 30/30/23 31/31/23 
f 42/42/24 41/41/24 29/29/24 30/30/24 
f 41/41/25 40/40/25 28/28/25 29/29/25 
f 40/40/26 39/39/26 27/27/26 28/28/26 
f 9/9/2 8/8/2 64/64/2 65/65/2 
f 1/1/2 5/5/2 63/63/2 61/61/2 
f 13/13/2 12/12/2 68/68/2 69/69/2 
f 5/5/2 14/14/2 70/70/2 63/63/2 
f 10/10/2 9/9/2 65/65/2 66/66/2 
f 8/8/2 3/3/2 62/62/2 64/64/2 
f 14/14/2 13/13/2 69/69/2 70/70/2 
f 11/11/2 10/10/2 66/66/2 67/67/2 
f 12/12/2 11/11/2 67/67/2 68/68/2 
f 64/64/2 62/62/2 72/72/2 74/74/2 
f 68/68/2 67/67/2 77/77/2 78/78/2 
f 65/65/2 64/64/2 74/74/2 75/75/2 
f 61/61/2 63/63/2 73/73/2 71/71/2 
f 69/69/2 68/68/2 78/78/2 79/79/2 
f 66/66/2 65/65/2 75/75/2 76/76/2 
f 63/63/2 70/70/2 80/80/2 73/73/2 
f 70/70/2 69/69/2 79/79/2 80/80/2 
f 67/67/2 66/66/2 76/76/2 77/77/2 
#end 51 faces

#ZOMPROPERTIES_04{
#ZOMPROPERTIES_04 table {Mesh table {SymPlane table {Point vector3d 0 0 0 Normal vector3d 1 0 0 Threshold double 0.01 
#ZOMPROPERTIES_04 Enabled bool false EdgeID int -1 SymEdgeID int -1 UPos double 0.5 LocalMode bool false } RootGroup C
#ZOMPROPERTIES_04 SubMeshGroup {Children table {Tile_0_0 CSubMeshGroup {Children table {} BBoxUV box3d 0 0 0 0 0 0 BBo
#ZOMPROPERTIES_04 x3D box3d 0 0 0 0 0 0 Area3D double 0 AreaUV double 0.492729 IsRoot bool false Properties table {Sel
#ZOMPROPERTIES_04 ected bool false Box box3d 0 1 0 1 0 1 U int 0 V int 0 NU int 0 NV int 0 Tiling vector3d 1 1 1 TileR
#ZOMPROPERTIES_04 atioMode string "1:1" Overflow string "Off" Pack table {BoxFrameEdit bool false Behavior string "Fre
#ZOMPROPERTIES_04 e" } } IsTile bool true PolyIDs ints { 0 2 8 7 6 5 4 3 1 26 25 24 23 22 21 34 45 48 49 46 43 50 47 4
#ZOMPROPERTIES_04 4 42 38 27 28 29 30 31 32 20 9 10 11 12 13 14 39 35 41 40 37 33 36 15 16 17 18 19 } } } BBoxUV box3d
#ZOMPROPERTIES_04  0 0 0 0 0 0 BBox3D box3d 0 0 0 0 0 0 Area3D double 0 AreaUV double 0.643031 IsRoot bool true Proper
#ZOMPROPERTIES_04 ties table {Selected bool false Box box3d 0 1 0 1 0 1 U int 0 V int 0 NU int 1 NV int 1 Tiling vecto
#ZOMPROPERTIES_04 r3d 1 1 1 TileRatioMode string "1:1" Overflow string "Off" Pack table {Rotate table {Mode int 0 Min 
#ZOMPROPERTIES_04 double 0 Max double 90 Step double 0 } PaddingSize double 0.0078125 MarginSize double 0.00390625 Res
#ZOMPROPERTIES_04 olution int 256 MapResolution int 2048 Scaling table {TexelDensity double 1024 Mode int 2 } LayoutSc
#ZOMPROPERTIES_04 alingMode int 2 MaxMutations int 1 } } IsTile bool false PolyIDs ints { } } Maps table {Pin table {P
#ZOMPROPERTIES_04 rimType string "Vertex" Size int 1 DefaultValue double 0 ScaleType string "Normalized" MergeMode str
#ZOMPROPERTIES_04 ing "Max" MinValue double 0 MaxValue double 1 Data doubles { r 80 0 } } Density table {PrimType stri
#ZOMPROPERTIES_04 ng "Polygon" Size int 1 DefaultValue double 1 ScaleType string "Log" MergeMode string "Average" MinV
#ZOMPROPERTIES_04 alue double 0.1 MaxValue double 4 Data doubles { r 51 1 } } Protect table {PrimType string "Vertex" 
#ZOMPROPERTIES_04 Size int 1 DefaultValue double 0 ScaleType string "Normalized" MergeMode string "Average" MinValue d
#ZOMPROPERTIES_04 ouble -1 MaxValue double 1 Data doubles { r 80 0 } } } } }
#ZOMPROPERTIES_04}


#ZOMSCENE_01{
#ZOMSCENE_01 CScene {Settings table {AxisSystem table {UpVector string "y" } Unit string "cm" TexelDensityDisplay
#ZOMSCENE_01 Unit string "tx/cm" } Root table {} }
#ZOMSCENE_01}

#begin 0 fatal error vertex (that RizomUV cannot handle)
#end 0 fatal error vertex (that RizomUV cannot handle)

#begin 0 error vertex
#end 0 error vertex
