#File written by RizomUV 2023.0.70.ge90189e8. Compilation :Sep 22 2023,12:42:11
mtllib tshirt.mtl
#begin vertices
v 19.23462 18.00515 42.70457
v 18.9853 18.5846 36.30414
v 19.03424 17.30819 42.74352
v 18.9853 18.40501 36.39625
v 22.90798 17.92413 42.71567
v 23.04997 18.50346 36.30246
v 23.00978 17.55711 43.01477
v 23.04997 18.37261 36.39625
v 19.19497 18.58249 41.06028
v 19.1915 18.5952 39.80904
v 19.1915 18.58034 38.60174
v 18.99655 18.55491 37.50876
v 18.99655 18.40116 37.40295
v 19.1915 18.42136 38.60975
v 19.1915 18.38043 39.81716
v 19.02549 18.30647 41.02662
v 23.03872 18.38009 37.40295
v 22.84377 18.35859 38.60975
v 22.84377 18.30426 39.81716
v 22.84377 18.27289 41.05008
v 23.03872 18.5394 37.50815
v 22.84377 18.56543 38.60174
v 22.84377 18.57929 39.80904
v 22.84377 18.5647 41.05576
v 22.01371 17.55711 43.01477
v 21.01763 17.55711 43.01477
v 20.02302 17.51563 42.96957
v 20.10335 18.40364 36.32973
v 21.92948 18.38482 36.32973
v 20.03198 18.05145 42.70637
v 21.01763 18.02695 42.70889
v 22.02976 18.02082 42.69784
v 21.92948 18.50654 36.32223
v 20.10335 18.5818 36.32223
v 22.01371 18.64259 41.05718
v 21.01763 18.64259 41.05718
v 20.02243 18.6443 41.05831
v 22.01371 18.65306 39.80701
v 21.01763 18.65306 39.80701
v 20.02156 18.65306 39.80701
v 22.0133 18.62251 38.6111
v 21.01601 18.62681 38.6452
v 20.02116 18.62251 38.6111
v 22.02572 18.57511 37.59257
v 21.00546 18.5903 37.53279
v 20.0059 18.57512 37.59327
v 20.02156 18.33632 41.02662
v 21.01763 18.33632 41.02662
v 22.01371 18.27711 41.04866
v 20.02156 18.38933 39.81919
v 21.01763 18.39347 39.81919
v 22.01371 18.32325 39.81919
v 20.02116 18.39671 38.62312
v 21.01601 18.3982 38.65722
v 22.0133 18.36926 38.62312
v 20.0059 18.37741 37.47224
v 21.00546 18.37864 37.54404
v 22.02572 18.37427 37.47224
v 17.78828 18.62145 37.35264
v 17.78828 18.60028 36.30414
v 17.78828 18.40501 36.39625
v 24.24699 18.30471 36.39625
v 24.24699 18.48988 36.30246
v 17.78828 18.42126 37.20121
v 24.24699 18.32096 37.20121
v 24.24699 18.51106 37.3518
v 23.04997 18.54676 36.8035
v 22.24167 18.54649 36.7905
v 24.24699 18.54676 36.8035
v 18.9853 18.5814 36.81108
v 19.79299 18.57014 36.79702
v 17.78828 18.65979 36.81108
v 20.5123 18.36786 37.00518
v 20.5123 18.57653 36.99393
v 19.93734 18.55737 37.11502
v 18.9853 18.57235 37.13924
v 17.78828 18.66642 37.13924
v 23.04997 18.55343 37.13418
v 21.50837 18.55771 36.99393
v 22.0955 18.55415 37.11081
v 24.24699 18.55343 37.13418
v 21.50837 18.36786 37.00518
v 19.02549 17.93735 42.36627
v 23.00978 18.1051 42.36627
v 22.84377 18.41609 42.25075
v 19.20967 18.43657 42.2638
v 20.02064 18.02274 42.42889
v 21.01763 18.1051 42.36627
v 22.01371 18.1051 42.36627
v 22.01371 18.48468 42.25353
v 21.01763 18.48468 42.25642
v 20.02633 18.49443 42.26997
v 18.99223 17.71666 42.59224
v 23.00978 17.83111 42.92945
v 22.85447 18.18429 42.62893
v 20.01811 17.79367 42.85515
v 21.01763 17.82782 42.86239
v 22.01371 17.83111 42.84981
v 22.01638 18.25881 42.59175
v 21.01763 18.25983 42.60515
v 20.02937 18.27721 42.64197
v 19.21929 18.23363 42.61138
v 19.07944 17.71997 42.71999
v 18.9853 18.60115 36.54104
v 18.9853 18.49828 36.231
v 19.01324 17.51243 42.66788
v 19.52808 17.42747 42.87349
v 22.51058 18.38442 36.39282
v 23.00978 17.69411 42.97211
v 23.03318 17.76539 42.83782
v 23.04997 18.43564 36.23079
v 22.87721 18.05574 42.68004
v 22.53715 17.99955 42.6835
v 19.52271 18.58172 36.30749
v 19.20202 18.5237 41.72922
v 19.19194 18.59978 40.41824
v 19.1915 18.59015 39.20534
v 19.17123 18.56105 38.01421
v 18.98651 18.3731 36.82119
v 19.17123 18.41998 38.01033
v 19.1915 18.40255 39.21344
v 19.17772 18.36558 40.42179
v 23.04876 18.35428 36.82119
v 22.86404 18.38152 38.01033
v 22.84377 18.32861 39.21344
v 22.84377 18.29189 40.42406
v 23.04876 18.55412 37.27458
v 22.86404 18.55046 38.01414
v 22.84377 18.57391 39.20534
v 22.84377 18.5828 40.41767
v 19.54677 18.63914 41.06026
v 19.54428 18.64583 39.80727
v 19.54423 18.61616 38.60141
v 19.52204 18.56874 37.55241
v 22.96828 18.41139 41.05292
v 22.96828 18.43425 39.8131
v 22.96828 18.45611 38.60574
v 23.17899 18.45822 37.56966
v 22.49099 18.24462 41.04883
v 22.49099 18.28139 39.81894
v 22.49094 18.3418 38.61292
v 22.51277 18.36894 37.41267
v 19.05209 18.44513 41.05397
v 19.06699 18.48156 39.8131
v 19.06699 18.49937 38.60574
v 18.85628 18.48324 37.56972
v 22.51175 17.55711 43.01477
v 21.51567 17.55711 43.01477
v 20.51978 17.55193 43.00912
v 19.52442 18.40493 36.39282
v 19.5744 18.08241 42.70235
v 20.5209 18.03001 42.70857
v 21.51768 18.02618 42.70751
v 22.51233 18.5059 36.30596
v 22.49099 18.63285 41.057
v 21.51567 18.64259 41.05718
v 20.51971 18.6428 41.05732
v 22.49099 18.64384 39.80727
v 21.51567 18.65306 39.80701
v 20.5196 18.65306 39.80701
v 22.49094 18.6143 38.60141
v 21.5145 18.6252 38.63241
v 20.51843 18.6252 38.63241
v 22.51277 18.56702 37.55161
v 21.54623 18.58584 37.65718
v 20.47753 18.58585 37.65758
v 19.52352 18.3214 41.02662
v 20.5196 18.33632 41.02662
v 21.51567 18.30284 41.04682
v 19.54428 18.36318 39.81894
v 20.5196 18.40236 39.81919
v 21.51567 18.36588 39.81919
v 19.54423 18.39368 38.61292
v 20.51843 18.4002 38.64443
v 21.5145 18.38971 38.64443
v 19.52205 18.37876 37.41267
v 20.47753 18.37976 37.59282
v 21.54623 18.37937 37.59282
v 20.01864 18.38846 38.04352
v 21.01244 18.39041 38.13898
v 22.01425 18.37758 38.04352
v 20.02151 18.39881 39.21689
v 21.01743 18.40139 39.22115
v 22.01366 18.34652 39.21689
v 20.02156 18.36514 40.42291
v 21.01763 18.36891 40.42336
v 22.01371 18.3087 40.42566
v 20.01978 17.66154 42.91914
v 21.01763 17.6937 42.96373
v 22.01371 17.69411 42.96215
v 22.01425 18.59818 38.04827
v 21.01244 18.61048 38.13059
v 20.01864 18.59818 38.04836
v 22.01366 18.6401 39.20474
v 21.01743 18.64064 39.209
v 20.02151 18.6401 39.20474
v 22.01371 18.66089 40.41607
v 21.01763 18.66089 40.41607
v 20.02167 18.66111 40.41621
v 22.02207 18.1402 42.64549
v 21.01763 18.14339 42.65919
v 20.03067 18.16433 42.68284
v 21.99265 18.44366 36.22494
v 20.04201 18.49776 36.22494
v 20.75796 18.37527 37.37564
v 21.256 18.57875 37.3644
v 20.27715 18.59389 36.60686
v 22.05519 18.56123 37.30245
v 19.97658 18.56166 37.30464
v 19.99041 18.37111 36.90602
v 22.04136 18.36876 36.90602
v 17.78828 18.64818 36.54104
v 17.78828 18.50023 36.231
v 24.24699 18.3949 36.23078
v 17.78828 18.3762 36.80014
v 24.24699 18.27779 36.80014
v 24.24699 18.55009 37.25847
v 24.24699 18.41786 37.36815
v 17.78828 18.5232 37.36825
v 23.63341 18.34375 36.39625
v 23.63566 18.35912 37.22223
v 18.39961 18.41181 37.22223
v 18.40186 18.40501 36.39625
v 18.40186 18.59126 36.30414
v 18.39961 18.57755 37.36877
v 23.63341 18.49768 36.30246
v 23.63566 18.52029 37.36795
v 21.75051 18.36392 36.61764
v 23.04997 18.53721 36.5361
v 22.13556 18.53959 36.60651
v 24.24699 18.53551 36.5361
v 23.63341 18.54676 36.8035
v 22.54496 18.5467 36.80096
v 18.9853 18.57156 37.00303
v 19.89843 18.58739 36.61081
v 17.78828 18.66367 37.00303
v 18.40186 18.61472 36.81108
v 19.49021 18.5685 36.80835
v 20.27715 18.36627 36.61764
v 20.75796 18.5811 37.3644
v 19.88459 18.56057 36.94261
v 18.98651 18.5725 37.27719
v 17.78828 18.66272 37.2611
v 19.50797 18.55636 37.13621
v 18.40186 18.61233 37.13923
v 20.2564 18.56551 37.06355
v 23.04997 18.55064 36.99577
v 21.75051 18.5398 36.60686
v 22.14939 18.54958 36.93658
v 24.24699 18.55064 36.99577
v 22.52699 18.55352 37.13126
v 23.63341 18.55343 37.13418
v 21.77126 18.55566 37.06113
v 21.256 18.37527 37.37564
v 19.02549 18.12191 41.69644
v 22.8576 18.22337 41.70271
v 22.84377 18.50655 41.71685
v 19.21469 18.33881 42.52415
v 20.02145 18.16828 41.81756
v 21.01763 18.22071 41.69644
v 22.01371 18.204 41.6992
v 22.01371 18.57971 41.72361
v 21.01763 18.57971 41.72397
v 20.02422 18.585 41.72836
v 20.5202 18.4859 42.26245
v 21.51567 18.48468 42.25389
v 22.49099 18.47611 42.25318
v 21.51567 18.1051 42.36627
v 20.51948 18.05938 42.38572
v 19.5211 17.98898 42.36152
v 19.05694 18.23724 42.24482
v 22.51175 18.1051 42.36627
v 22.98557 18.27479 42.2558
v 19.55788 18.50182 42.27435
v 19.00886 17.827 42.47925
v 23.00978 17.96811 42.64786
v 22.84511 18.30623 42.5259
v 20.01894 17.90591 42.73861
v 21.01763 17.95974 42.66668
v 22.01371 17.96811 42.6379
v 22.01404 18.37514 42.50761
v 21.01763 18.37526 42.51615
v 20.02802 18.38903 42.54531
v 19.22617 18.12135 42.66092
v 19.5663 18.29785 42.63267
v 22.99639 18.03373 42.72861
v 22.51175 17.83111 42.85644
v 19.05589 18.01105 42.59475
v 19.51169 17.74877 42.74483
v 20.51917 17.81862 42.88037
v 21.51567 17.8307 42.85138
v 22.49869 18.24796 42.59363
v 21.51601 18.2597 42.5948
v 20.52058 18.262 42.6271
v 18.40216 18.37492 36.80434
v 22.51819 18.36592 36.83398
v 23.63311 18.32248 36.80434
v 19.50401 18.59249 36.54802
v 21.64009 18.37064 37.11192
v 19.52191 18.49791 36.22999
v 19.55191 18.58526 41.73314
v 19.54459 18.65376 40.41668
v 19.54427 18.63372 39.20375
v 19.53992 18.59062 38.01925
v 22.97174 18.36095 41.70587
v 22.96828 18.42929 40.42086
v 22.96828 18.44424 39.20939
v 22.99345 18.46228 38.02106
v 22.49445 18.18784 41.6999
v 22.49099 18.26763 40.42546
v 22.49099 18.30942 39.2154
v 22.49505 18.36299 38.01225
v 19.05331 18.354 41.71133
v 19.06383 18.47714 40.42078
v 19.06699 18.49204 39.20939
v 19.04182 18.4909 38.02107
v 19.53992 18.391 38.01224
v 20.51239 18.39008 38.1073
v 21.51581 18.38784 38.1073
v 19.54427 18.38201 39.2154
v 20.51945 18.40781 39.21955
v 21.51553 18.38098 39.21955
v 19.54082 18.34412 40.42269
v 20.5196 18.37557 40.42291
v 21.51567 18.34607 40.4252
v 19.52328 18.14517 41.77567
v 20.51958 18.19324 41.77801
v 21.51567 18.21564 41.69874
v 22.49505 18.58922 38.01915
v 21.51581 18.60587 38.10506
v 20.51239 18.60588 38.10511
v 22.49099 18.63169 39.20375
v 21.51553 18.64044 39.2074
v 20.51945 18.64044 39.2074
v 22.49099 18.65113 40.41627
v 21.51567 18.66089 40.41607
v 20.51961 18.66092 40.41609
v 22.49099 18.57057 41.72277
v 21.51567 18.57971 41.72366
v 20.51993 18.58037 41.72506
v 22.51326 18.44275 36.22981
v 20.38419 18.37108 37.11192
v 21.91373 18.54646 36.79903
v 20.11757 18.5758 36.80257
v 22.5311 18.53765 36.54318
v 19.51664 18.37117 36.83398
v 18.40186 18.62114 36.54104
v 18.38863 18.49691 37.39221
v 23.63341 18.41832 36.23078
v 23.64664 18.44131 37.39211
v 23.63311 18.55143 37.26146
v 18.40186 18.49911 36.231
v 23.63341 18.53649 36.5361
v 22.53456 18.55051 36.98878
v 18.40186 18.6107 37.00303
v 19.50055 18.55636 36.99588
v 19.51318 18.55965 37.28716
v 18.40216 18.61001 37.26408
v 20.38073 18.57034 37.33868
v 22.52165 18.55732 37.2846
v 23.63341 18.55064 36.99577
v 21.64355 18.5691 37.33742
v 20.52041 18.37698 42.53226
v 21.51571 18.37525 42.50885
v 22.49196 18.36633 42.50955
v 21.51567 17.96723 42.64125
v 20.51927 17.93757 42.7238
v 19.51517 17.86791 42.63828
v 19.05564 18.12728 42.49683
v 22.51175 17.96811 42.63956
v 22.98995 18.16144 42.57088
v 19.56251 18.4034 42.54276
v 19.57025 18.19037 42.67384
v 23.01202 17.90061 42.79901
v 22.51175 17.69411 42.96381
v 19.06547 17.87097 42.65981
v 19.5177 17.59697 42.81266
v 20.51938 17.68906 42.96052
v 21.51567 17.69406 42.96235
v 22.51503 18.12486 42.64117
v 21.51672 18.14299 42.65151
v 20.52074 18.14601 42.67407
#end vertices

#begin 433 textures vertices 
vt 0.4931938 0.3102989 0
vt 0.4831107 0.9450254 0
vt 0.9010296 0.1513719 0
vt 0.1266673 0.09295518 0
vt 0.852911 0.2965735 0
vt 0.8696007 0.9417048 0
vt 0.584904 0.1696144 0
vt 0.4422302 0.1009283 0
vt 0.4964717 0.4859622 0
vt 0.496994 0.6060852 0
vt 0.4981166 0.722167 0
vt 0.479228 0.8283631 0
vt 0.1239323 0.1724705 0
vt 0.1365373 0.2683598 0
vt 0.1340794 0.3633205 0
vt 0.1187654 0.4588664 0
vt 0.441572 0.1806203 0
vt 0.4237349 0.2760905 0
vt 0.4210612 0.3710111 0
vt 0.4191808 0.4680545 0
vt 0.8713714 0.8248313 0
vt 0.8507721 0.7184877 0
vt 0.849389 0.6017656 0
vt 0.8469271 0.4812777 0
vt 0.6633603 0.1675804 0
vt 0.7416437 0.1642385 0
vt 0.8203233 0.159996 0
vt 0.2145531 0.09137917 0
vt 0.3545568 0.0954439 0
vt 0.5735068 0.3051005 0
vt 0.6687476 0.3027081 0
vt 0.7665834 0.3023322 0
vt 0.7627702 0.9385498 0
vt 0.5895816 0.9399612 0
vt 0.7668017 0.4839552 0
vt 0.671742 0.4857294 0
vt 0.5765425 0.4869066 0
vt 0.7689974 0.6041251 0
vt 0.6731892 0.6058071 0
vt 0.5772773 0.6065527 0
vt 0.7705935 0.7191372 0
vt 0.6742068 0.7170975 0
vt 0.578092 0.7211616 0
vt 0.7728775 0.8169205 0
vt 0.6740656 0.8233927 0
vt 0.5772087 0.8187536 0
vt 0.1964539 0.4606248 0
vt 0.274874 0.4624353 0
vt 0.353596 0.4665843 0
vt 0.1992265 0.3655426 0
vt 0.2774288 0.3676622 0
vt 0.3557982 0.3697894 0
vt 0.2017695 0.2713898 0
vt 0.2798442 0.276348 0
vt 0.358326 0.2755702 0
vt 0.2032814 0.1808685 0
vt 0.2814141 0.1890444 0
vt 0.3614747 0.1851086 0
vt 0.3623712 0.8509516 0
vt 0.3692541 0.9522607 0
vt 0.03289633 0.08802981 0
vt 0.5362877 0.09977332 0
vt 0.9835687 0.9463664 0
vt 0.02933496 0.1512934 0
vt 0.5370589 0.1631163 0
vt 0.9884542 0.8450515 0
vt 0.8709231 0.8931956 0
vt 0.7933319 0.8936849 0
vt 0.9856322 0.8980337 0
vt 0.4807871 0.896106 0
vt 0.5583195 0.8952249 0
vt 0.3659577 0.9033366 0
vt 0.2444665 0.1455872 0
vt 0.6269824 0.8752691 0
vt 0.5713476 0.8645333 0
vt 0.4793961 0.864351 0
vt 0.3637094 0.8721051 0
vt 0.8717585 0.8611787 0
vt 0.7229475 0.87432 0
vt 0.7795684 0.8630119 0
vt 0.9871962 0.8665299 0
vt 0.321251 0.1478053 0
vt 0.1116096 0.5707641 0
vt 0.4288387 0.574231 0
vt 0.8436203 0.3654854 0
vt 0.4985251 0.3706514 0
vt 0.1927029 0.5729813 0
vt 0.2719899 0.5683258 0
vt 0.350385 0.5708436 0
vt 0.7645513 0.3678599 0
vt 0.6698516 0.3686895 0
vt 0.5759923 0.3702003 0
vt 0.9049233 0.1858485 0
vt 0.5861752 0.1919013 0
vt 0.8461097 0.3226356 0
vt 0.8210487 0.1836317 0
vt 0.7426871 0.1889406 0
vt 0.6643832 0.1930598 0
vt 0.7648936 0.3273699 0
vt 0.6690195 0.3272709 0
vt 0.5744117 0.3276535 0
vt 0.497485 0.3329077 0
vt 0.4690277 0.290503 0
vt 0.4819594 0.9221972 0
vt 0.1273223 0.07802771 0
vt 0.9029819 0.1685482 0
vt 0.8605214 0.1563589 0
vt 0.4000396 0.1006258 0
vt 0.5854685 0.1808228 0
vt 0.5774841 0.1897726 0
vt 0.4419895 0.08700664 0
vt 0.8493797 0.3095398 0
vt 0.8162919 0.3021107 0
vt 0.534168 0.9428858 0
vt 0.4968276 0.4217118 0
vt 0.4966323 0.5475776 0
vt 0.4976085 0.6641111 0
vt 0.4962687 0.7789539 0
vt 0.1252248 0.1264973 0
vt 0.1361607 0.2210221 0
vt 0.1353922 0.3158593 0
vt 0.131247 0.4109735 0
vt 0.4423373 0.1344907 0
vt 0.4267834 0.2287133 0
vt 0.4223224 0.3236163 0
vt 0.4200498 0.4186789 0
vt 0.8719674 0.8475656 0
vt 0.8536252 0.7755163 0
vt 0.850115 0.6601311 0
vt 0.8482703 0.5429184 0
vt 0.5307752 0.4867021 0
vt 0.5312974 0.6064565 0
vt 0.532159 0.7222211 0
vt 0.5303307 0.8232819 0
vt 0.4338496 0.4677006 0
vt 0.4352095 0.3706247 0
vt 0.4361627 0.2758746 0
vt 0.4533456 0.1946816 0
vt 0.3913504 0.4676778 0
vt 0.3933422 0.3706955 0
vt 0.3959592 0.2756743 0
vt 0.3999515 0.180995 0
vt 0.4774364 0.4854301 0
vt 0.4807957 0.605612 0
vt 0.483874 0.7217993 0
vt 0.4645752 0.820903 0
vt 0.6242755 0.1689453 0
vt 0.7024872 0.1659484 0
vt 0.7808776 0.1623892 0
vt 0.1689167 0.09441834 0
vt 0.5286293 0.3102852 0
vt 0.6208644 0.302954 0
vt 0.7169494 0.302482 0
vt 0.818459 0.9405613 0
vt 0.8124761 0.4827398 0
vt 0.7192527 0.4849007 0
vt 0.6241903 0.4864639 0
vt 0.8149017 0.6029282 0
vt 0.7211029 0.6050824 0
vt 0.6252466 0.6063114 0
vt 0.816594 0.719244 0
vt 0.7224169 0.7177651 0
vt 0.6260989 0.7187852 0
vt 0.8201125 0.8205994 0
vt 0.7264248 0.8110575 0
vt 0.6227885 0.8120402 0
vt 0.1574544 0.4598182 0
vt 0.2356165 0.4615203 0
vt 0.3142122 0.4652515 0
vt 0.1617493 0.3644578 0
vt 0.2383202 0.3666019 0
vt 0.3165882 0.3687325 0
vt 0.1643266 0.2694336 0
vt 0.2407834 0.2742451 0
vt 0.3190472 0.2763331 0
vt 0.1653883 0.1748124 0
vt 0.2399787 0.1915909 0
vt 0.3236522 0.193884 0
vt 0.2028405 0.2258075 0
vt 0.2806885 0.2356802 0
vt 0.3596627 0.229986 0
vt 0.2005544 0.3181158 0
vt 0.2787149 0.3206537 0
vt 0.3570345 0.322335 0
vt 0.1977809 0.413095 0
vt 0.276154 0.4151371 0
vt 0.3546511 0.4175365 0
vt 0.8206346 0.1721223 0
vt 0.7421169 0.1757117 0
vt 0.6638175 0.1791197 0
vt 0.7714038 0.7732249 0
vt 0.6743069 0.7662991 0
vt 0.578111 0.7751483 0
vt 0.7698382 0.6620371 0
vt 0.6737986 0.6631186 0
vt 0.5777353 0.66424 0
vt 0.7679911 0.5455912 0
vt 0.6725073 0.547379 0
vt 0.5768622 0.5482654 0
vt 0.7656359 0.31485 0
vt 0.6688817 0.3148854 0
vt 0.5739414 0.3161394 0
vt 0.7685985 0.9497328 0
vt 0.2099462 0.0802535 0
vt 0.2625561 0.1752479 0
vt 0.6985181 0.8392194 0
vt 0.6053343 0.912452 0
vt 0.7757567 0.8446871 0
vt 0.5747475 0.8463701 0
vt 0.203781 0.1363382 0
vt 0.3632 0.1407228 0
vt 0.3676323 0.9291439 0
vt 0.3702187 0.9641116 0
vt 0.5356763 0.08496933 0
vt 0.03120247 0.1197455 0
vt 0.5367899 0.131524 0
vt 0.9878513 0.8546835 0
vt 0.9893596 0.8360171 0
vt 0.02815376 0.1666265 0
vt 0.4879756 0.1004865 0
vt 0.488812 0.1657086 0
vt 0.07741709 0.1557927 0
vt 0.08099248 0.09069029 0
vt 0.4277607 0.9480337 0
vt 0.4214595 0.844811 0
vt 0.9250227 0.9435432 0
vt 0.9293835 0.8401947 0
vt 0.3404492 0.1178522 0
vt 0.8702294 0.9189966 0
vt 0.782904 0.9112848 0
vt 0.9845197 0.9235831 0
vt 0.9268266 0.895021 0
vt 0.8224865 0.8928049 0
vt 0.4799798 0.8775446 0
vt 0.5690259 0.9128776 0
vt 0.3647029 0.8850426 0
vt 0.42483 0.899068 0
vt 0.5292191 0.894809 0
vt 0.22729 0.1145889 0
vt 0.6501582 0.8397426 0
vt 0.5667027 0.881094 0
vt 0.4789621 0.8509794 0
vt 0.3628387 0.8605116 0
vt 0.5298669 0.8632521 0
vt 0.4229223 0.8674199 0
vt 0.6022091 0.8689646 0
vt 0.8714178 0.8745928 0
vt 0.7459908 0.9111145 0
vt 0.784616 0.8796819 0
vt 0.9865056 0.879709 0
vt 0.8212472 0.8610403 0
vt 0.928098 0.8631478 0
vt 0.7482845 0.8678306 0
vt 0.301193 0.1763504 0
vt 0.1164196 0.5139266 0
vt 0.4196719 0.5202326 0
vt 0.84535 0.417344 0
vt 0.4990859 0.3451688 0
vt 0.1942416 0.5241609 0
vt 0.2734542 0.5154741 0
vt 0.3523838 0.5179163 0
vt 0.7654685 0.4196233 0
vt 0.6708253 0.421105 0
vt 0.5763974 0.4227446 0
vt 0.6226373 0.3692211 0
vt 0.7172173 0.3682292 0
vt 0.8097956 0.367416 0
vt 0.311184 0.5695632 0
vt 0.2325104 0.5696507 0
vt 0.1522808 0.5689736 0
vt 0.4744132 0.3657688 0
vt 0.3895825 0.57227 0
vt 0.4383248 0.5614845 0
vt 0.5319468 0.3713743 0
vt 0.9037924 0.1985003 0
vt 0.5863167 0.2160961 0
vt 0.8435277 0.3375496 0
vt 0.8219437 0.1963286 0
vt 0.7434415 0.2074963 0
vt 0.6652273 0.2129098 0
vt 0.7645195 0.3412004 0
vt 0.6692409 0.3413707 0
vt 0.5750068 0.3418575 0
vt 0.495394 0.3217752 0
vt 0.5308093 0.3317951 0
vt 0.5787104 0.2125337 0
vt 0.6251644 0.1943224 0
vt 0.4748954 0.3206629 0
vt 0.8618883 0.1835051 0
vt 0.7817438 0.1858017 0
vt 0.7035556 0.1913236 0
vt 0.8112901 0.3271166 0
vt 0.7168486 0.3274579 0
vt 0.6213261 0.3266333 0
vt 0.07938691 0.1228476 0
vt 0.4006769 0.1354105 0
vt 0.4883585 0.1326689 0
vt 0.5314565 0.91985 0
vt 0.3315068 0.1563407 0
vt 0.169216 0.07965637 0
vt 0.5311045 0.4227335 0
vt 0.5309447 0.5481212 0
vt 0.5317768 0.6643382 0
vt 0.5318766 0.7783108 0
vt 0.4337195 0.5186748 0
vt 0.434642 0.4182791 0
vt 0.4356741 0.3232402 0
vt 0.4387995 0.2300699 0
vt 0.3906108 0.5192644 0
vt 0.3922771 0.4184482 0
vt 0.3945914 0.3231783 0
vt 0.3976331 0.2282766 0
vt 0.4751341 0.4204908 0
vt 0.4796048 0.5469579 0
vt 0.4823705 0.6637401 0
vt 0.482198 0.7779551 0
vt 0.1652599 0.2221025 0
vt 0.2414858 0.2320515 0
vt 0.3203141 0.2341743 0
vt 0.1631068 0.3168935 0
vt 0.2396256 0.3194527 0
vt 0.3178499 0.3215501 0
vt 0.159923 0.4120767 0
vt 0.2369591 0.4140748 0
vt 0.3153791 0.4163856 0
vt 0.1549749 0.5208771 0
vt 0.2337978 0.5213317 0
vt 0.3128942 0.5166816 0
vt 0.8179198 0.7755081 0
vt 0.7231082 0.7682603 0
vt 0.6258558 0.7692322 0
vt 0.8157652 0.6611037 0
vt 0.7218424 0.6626264 0
vt 0.6257516 0.663735 0
vt 0.8137825 0.544312 0
vt 0.7202488 0.5465915 0
vt 0.6247217 0.5479667 0
vt 0.810994 0.4187119 0
vt 0.7181133 0.4203352 0
vt 0.6235782 0.421981 0
vt 0.4002365 0.08698366 0
vt 0.2340749 0.1536018 0
vt 0.7618321 0.8928108 0
vt 0.5894768 0.8940673 0
vt 0.8206935 0.9175888 0
vt 0.1668146 0.1292328 0
vt 0.4263152 0.9250862 0
vt 0.07530288 0.1706366 0
vt 0.4875077 0.08620924 0
vt 0.9317494 0.832505 0
vt 0.9286172 0.8508737 0
vt 0.4285897 0.9593082 0
vt 0.9258711 0.92078 0
vt 0.8217844 0.8747425 0
vt 0.4237376 0.8805541 0
vt 0.5295872 0.876742 0
vt 0.5299562 0.8487482 0
vt 0.422186 0.8553747 0
vt 0.6137961 0.8426031 0
vt 0.8208832 0.8462998 0
vt 0.9275485 0.8764915 0
vt 0.7359341 0.8415472 0
vt 0.6217372 0.3410316 0
vt 0.7169016 0.3413795 0
vt 0.8099959 0.340922 0
vt 0.7043555 0.2110269 0
vt 0.7825449 0.2012352 0
vt 0.8626018 0.1959553 0
vt 0.4762211 0.3363015 0
vt 0.6261023 0.2146855 0
vt 0.5748782 0.2280235 0
vt 0.5316916 0.344836 0
vt 0.529739 0.3209169 0
vt 0.5790967 0.2007613 0
vt 0.6246532 0.1804874 0
vt 0.4722474 0.3057347 0
vt 0.8612494 0.1704732 0
vt 0.7812392 0.1738321 0
vt 0.702974 0.17748 0
vt 0.8135251 0.3146335 0
vt 0.7168859 0.3149417 0
vt 0.621078 0.3145801 0
vt 0.1187877 0.4094942 0
vt 0.3620151 0.841419 0
vt 0.1245071 0.2218465 0
vt 0.4194824 0.8368801 0
vt 0.1233689 0.3149473 0
vt 0.1114316 0.1859311 0
vt 0.1215133 0.3621955 0
vt 0.1075415 0.4575864 0
vt 0.09924573 0.5084009 0
vt 0.09261601 0.5689348 0
vt 0.125 0.2676887 0
vt 0.9196296 0.2049372 0
vt 0.09338819 0.5498638 0
vt 0.9177176 0.1929964 0
vt 0.9161428 0.1802874 0
vt 0.5345983 0.9538378 0
vt 0.03368863 0.07305867 0
vt 0.4837472 0.9558875 0
vt 0.08174685 0.07574945 0
vt 0.5842419 0.9524702 0
vt 0.3596008 0.08609739 0
vt 0.9246948 0.9538135 0
vt 0.8183573 0.9500599 0
vt 0.8693669 0.9511809 0
vt 0.9831733 0.9577846 0
vt 0.8666509 0.7177883 0
vt 0.8673843 0.6594011 0
vt 0.8601774 0.3269741 0
vt 0.8639645 0.4157875 0
vt 0.8622348 0.3607131 0
vt 0.8677595 0.6008683 0
vt 0.8672392 0.5417068 0
vt 0.8658629 0.4799312 0
vt 0.5370159 0.1782414 0
vt 0.8618278 0.3072955 0
vt 0.489893 0.1805264 0
vt 0.8863904 0.817116 0
vt 0.8685944 0.7741726 0
vt 0.8654802 0.2932811 0
vt 0.8682892 0.2799135 0
vt 0.4392147 0.5876174 0
vt 0.1105835 0.5844446 0
vt 0.9186259 0.2168511 0
vt 0.2318877 0.5974262 0
vt 0.2710952 0.5942977 0
vt 0.3102915 0.5936744 0
vt 0.4274974 0.5987162 0
vt 0.3883803 0.5963723 0
vt 0.3493854 0.5947834 0
vt 0.1926675 0.5982761 0
vt 0.1525769 0.5926404 0
#end 433 textures vertices 

#begin 472 normals 
vn -0.0012 -0.9568 -0.2908
vn -0.0117 -0.9998 -0.0132
vn -0.0083 -1 0.004
vn -0.0007 -0.9566 -0.2914
vn -0.1168 -0.9849 0.1278
vn -0.0533 -0.9668 0.2499
vn -0.0275 -0.9553 0.2944
vn -0.0058 -0.9999 0.0133
vn -0.0008 -0.9564 -0.292
vn -0.0111 -0.9999 0.0069
vn 0.004 -1 -0.0069
vn -0.0081 -0.9999 -0.0117
vn 0.0018 -1 0.0079
vn 0.0134 -0.9863 -0.1644
vn -0.0047 -0.9793 -0.2022
vn -0.0321 -0.9776 -0.2079
vn -0.0273 -0.9996 -0.0004
vn 0.089 -0.9888 0.1196
vn -0.0552 -0.9984 0.0128
vn -0.0118 -0.9689 0.2471
vn -0.0516 -0.9698 -0.2386
vn -0.0581 -0.9651 -0.2552
vn -0.0669 -0.9976 0.0186
vn -0.0478 -0.958 0.2829
vn -0.0076 0.9968 0.0791
vn -0.0066 0.9995 0.0295
vn 0.0095 0.9998 0.0195
vn 0.0116 0.9972 0.074
vn -0.0059 1 -0.0056
vn 0.0093 0.9991 -0.0417
vn 0.0171 0.9969 -0.0771
vn 0.0252 0.9997 -0.0061
vn 0.0391 0.9977 0.056
vn -0.0051 -0.9999 0.0151
vn 0.0047 -0.9999 0.013
vn -0.001 -0.9998 0.019
vn 0.0007 -0.9998 0.0187
vn 0.0059 -0.9998 0.0188
vn 0.0232 -0.9997 -0.0058
vn -0.0362 -0.8231 -0.5668
vn -0.01 -0.9533 -0.3019
vn -0.0192 -0.8474 -0.5306
vn -0.0015 -0.8698 -0.4934
vn 0.0049 0.692 -0.7219
vn 0.0039 0.6485 -0.7612
vn 0.0049 0.6924 -0.7215
vn 0.0062 0.7202 -0.6938
vn 0.0186 0.9648 0.2625
vn 0.0066 0.9921 0.1256
vn -0.0855 0.9889 0.1213
vn -0.0839 0.9634 0.2547
vn -0.0023 0.9984 0.0566
vn -0.0849 0.9949 0.0546
vn -0.1606 0.9855 0.0546
vn -0.1729 0.9776 0.1202
vn -0.1838 0.9502 0.2519
vn -0.0066 1 0.0064
vn -0.0827 0.9965 0.0066
vn -0.0074 0.9998 -0.0171
vn -0.0773 0.9969 -0.0145
vn -0.1396 0.9901 -0.0121
vn -0.1509 0.9885 0.0076
vn -0.0075 0.9997 -0.0249
vn -0.068 0.9975 -0.0217
vn -0.0089 0.9993 -0.0352
vn -0.0569 0.9978 -0.033
vn -0.3313 0.9434 -0.0159
vn -0.3827 0.9238 -0.0091
vn -0.0112 0.9989 -0.0448
vn -0.0403 0.9985 -0.0371
vn -0.0122 0.9989 -0.045
vn -0.0174 0.9996 -0.0232
vn -0.1205 0.9898 0.0762
vn -0.2594 0.9656 0.0169
vn 0.9245 -0.3344 -0.1828
vn 0.8558 -0.5023 -0.1236
vn 0.8523 -0.5088 -0.1211
vn 0.7493 -0.661 -0.04
vn 0.7491 -0.6613 -0.0395
vn 0.745 0.6626 0.0771
vn 0.7702 0.6368 0.0348
vn 0.7705 0.6366 0.0342
vn 0.7459 0.6617 0.0758
vn 0.6905 0.6973 0.1922
vn 0.6998 0.6938 0.1701
vn 0.7371 -0.6757 -0.0148
vn 0.7368 -0.6759 -0.0146
vn 0.7173 -0.6966 -0.0148
vn 0.7166 -0.6973 -0.0151
vn 0.7722 0.6353 0.0095
vn 0.7548 0.6559 0.0016
vn 0.7544 0.6564 0.0017
vn 0.7721 0.6354 0.0092
vn 0.677 -0.7356 -0.0232
vn 0.6755 -0.737 -0.0234
vn 0.6144 -0.7889 -0.0128
vn 0.6116 -0.7911 -0.0118
vn 0.7176 0.6964 0.0023
vn 0.6542 0.7562 0.0099
vn 0.6538 0.7566 0.0099
vn 0.7168 0.6972 0.0023
vn 0.2655 -0.9638 0.0264
vn 0.4989 -0.8629 0.0813
vn 0.2751 -0.9223 0.2716
vn 0.5511 0.8283 0.1013
vn 0.4923 0.8533 0.1718
vn 0.1676 0.9828 0.078
vn 0.3174 0.9479 0.0279
vn -0.0139 -0.9894 -0.1449
vn -0.0288 -0.9914 -0.1278
vn 0.0158 -0.9929 -0.1178
vn 0.013 -0.9894 -0.1448
vn -0.0568 -0.9951 -0.0812
vn 0.0089 -0.9979 -0.0648
vn 0.0816 -0.995 -0.058
vn 0.0635 -0.9906 -0.1209
vn 0.0412 -0.9871 -0.1544
vn -0.0766 -0.9963 -0.0388
vn -0.0057 -0.9995 -0.0306
vn -0.0816 -0.9962 -0.0314
vn -0.0108 -0.9994 -0.0326
vn 0.0629 -0.9975 -0.0324
vn 0.0704 -0.9971 -0.0275
vn -0.0708 -0.9968 -0.0367
vn -0.0102 -0.9989 -0.0459
vn -0.0499 -0.9984 -0.0258
vn -0.0035 -0.9992 -0.0396
vn 0.0495 -0.9978 -0.0435
vn 0.0548 -0.9974 -0.0474
vn -0.0276 -0.9996 -0.0057
vn 0.0041 -0.9999 -0.0154
vn -0.7814 0.5982 0.1776
vn -0.7508 0.6522 0.1041
vn -0.7517 0.6511 0.1049
vn -0.7826 0.5936 0.1878
vn -0.7096 0.7026 0.0524
vn -0.7101 0.7021 0.0532
vn -0.991 0.1303 0.0313
vn -0.9959 -0.0729 -0.0545
vn -0.9945 -0.086 -0.0596
vn -0.9913 0.1278 0.0315
vn -0.992 0.1217 0.0324
vn -0.9909 0.1303 0.0326
vn -0.6877 0.7259 0.0106
vn -0.6879 0.7257 0.0111
vn -0.6654 0.7465 0.0009
vn -0.666 0.746 0.0008
vn -0.6653 -0.7462 -0.0212
vn -0.6362 -0.7713 -0.0213
vn -0.6374 -0.7702 -0.0213
vn -0.9386 -0.3119 -0.1473
vn -0.617 0.7869 0.0009
vn -0.5484 0.8362 -0.0011
vn -0.5821 -0.8129 -0.0197
vn -0.531 -0.8473 0.0049
vn -0.3106 -0.9505 -0.0033
vn -0.3353 -0.9418 -0.0256
vn -0.4692 0.8793 0.0812
vn -0.4306 0.8901 0.1493
vn -0.4536 -0.8858 0.0981
vn -0.2861 -0.9186 0.2727
vn -0.2543 -0.9656 0.0549
vn -0.0354 -0.9992 0.0173
vn -0.0313 -0.9995 -0.0047
vn -0.0229 -0.9994 0.0244
vn -0.0031 -0.9999 0.0166
vn -0.0004 -0.9999 0.0163
vn 0.0093 -0.9999 0.0065
vn 0.0004 -0.9998 0.0182
vn 0.0013 -0.9999 0.0128
vn -0.0008 -0.9998 0.0187
vn -0.004 -0.9999 0.016
vn -0.0128 -0.9999 0.0076
vn -0.0146 -0.9999 0.0078
vn -0.0317 -0.9995 -0.0071
vn -0.0536 -0.9981 -0.0313
vn -0.0139 -0.9996 -0.0227
vn -0.0032 -0.9995 -0.0305
vn 0.0251 -0.9996 -0.0089
vn 0.035 -0.999 -0.0284
vn 0.0026 -1 -0.0015
vn 0.0037 -0.9996 -0.0271
vn -0.0253 -0.9997 -0.0064
vn -0.0324 -0.9991 -0.0274
vn -0.0525 -0.9984 -0.0207
vn -0.064 -0.9975 -0.029
vn -0.0075 -0.9976 -0.0686
vn -0.0289 -0.9983 -0.0502
vn 0.0063 -0.999 -0.0437
vn 0.0142 -0.9984 -0.0556
vn 0.03 -0.9986 -0.044
vn 0.0236 -0.9985 -0.0492
vn 0.0029 -0.9987 -0.0501
vn 0.0019 -0.9983 -0.0578
vn -0.0319 -0.9982 -0.05
vn -0.0324 -0.9954 -0.0901
vn -0.0621 -0.997 -0.0466
vn -0.0473 -0.9939 -0.0995
vn -0.127 0.9118 0.3906
vn -0.1137 0.9331 0.3412
vn -0.0696 0.9678 0.2421
vn -0.0728 0.9648 0.2527
vn -0.0747 0.9507 0.3008
vn -0.0474 0.9741 0.2213
vn -0.0315 0.9777 0.2078
vn -0.0515 0.9714 0.2319
vn -0.0567 0.9676 0.246
vn -0.0428 0.9569 0.2874
vn -0.0316 0.9797 0.1979
vn -0.0275 0.9402 0.3395
vn -0.0304 0.9823 0.1846
vn -0.0125 0.9838 0.1791
vn -0.0146 0.982 0.1884
vn -0.0046 -0.986 -0.1667
vn -0.0198 -0.9871 -0.1591
vn -0.022 -0.9886 -0.1489
vn -0.0081 -0.9869 -0.1609
vn 0.1347 0.9905 -0.0264
vn 0.0558 0.9978 -0.036
vn 0.0758 0.9966 -0.0314
vn 0.0325 0.9992 -0.0251
vn 0.0134 0.9988 -0.0462
vn 0.0127 0.9989 -0.0447
vn 0.0107 0.9993 -0.0351
vn 0.0093 0.9992 -0.0397
vn 0.004 0.9995 -0.0319
vn 0.015 0.9989 -0.0437
vn -0.0003 0.9992 -0.0387
vn -0 0.9994 -0.036
vn -0 0.9996 -0.0298
vn -0.0094 0.9992 -0.0396
vn -0.004 0.9995 -0.0319
vn -0.0157 0.999 -0.0411
vn 0.178 0.984 -0.0115
vn 0.1602 0.9869 -0.0178
vn 0.0892 0.9958 -0.0215
vn 0.0989 0.995 -0.0141
vn 0.0095 0.9996 -0.0249
vn 0.0097 0.9998 -0.0168
vn 0.0011 0.9997 -0.0239
vn 0.0001 0.9999 -0.017
vn -0 0.9997 -0.0232
vn -0 0.9999 -0.0169
vn -0.0011 0.9997 -0.0239
vn -0.0001 0.9999 -0.017
vn 0.1871 0.9806 0.0586
vn 0.1875 0.9822 0.0097
vn 0.1041 0.9945 0.0088
vn 0.1038 0.9928 0.0599
vn 0.0101 0.9999 0.0079
vn 0.0101 0.9981 0.0612
vn -0 1 0.0078
vn -0 0.9981 0.0613
vn 0.0001 1 0.0078
vn 0.0003 0.9981 0.0611
vn 0.0005 1 0.0074
vn 0.0024 0.9982 0.0599
vn 0.161 0.9472 0.2772
vn 0.1786 0.9754 0.129
vn 0.099 0.9863 0.1322
vn 0.0892 0.9557 0.2804
vn 0.0096 0.9908 0.1351
vn 0.0089 0.9578 0.2873
vn 0.0002 0.9908 0.1352
vn 0.0013 0.9581 0.2864
vn 0.0012 0.9909 0.1346
vn 0.0047 0.9593 0.2823
vn 0.0064 0.9912 0.1319
vn 0.0142 0.9616 0.2741
vn 0.004 -0.9285 -0.3713
vn -0.0257 -0.9306 -0.3651
vn 0.0233 -0.918 -0.3959
vn 0.0001 0.779 -0.627
vn -0.0049 0.8081 -0.5891
vn -0.0037 0.9634 -0.2682
vn -0.0016 0.9194 -0.3934
vn 0.0095 0.7233 -0.6904
vn 0.0094 0.7237 -0.6901
vn -0.0143 -0.9997 -0.0186
vn -0.011 -0.9999 0.0109
vn -0.0163 -0.9986 -0.0508
vn -0.0396 -0.999 -0.0214
vn -0.01 -0.9998 0.0182
vn -0.0021 -0.9998 0.0191
vn 0.0069 0.9995 -0.0306
vn 0.0022 0.9997 -0.0262
vn 0.0049 0.999 -0.0446
vn 0.0129 0.9993 -0.0364
vn -0.0003 0.9996 -0.029
vn -0.0024 0.9972 -0.0746
vn 0.0046 0.9979 -0.0641
vn 0.0166 0.9991 -0.0389
vn -0.0152 0.9999 0.0054
vn -0.0288 0.9993 0.0236
vn -0.0243 0.9985 0.0486
vn -0.0145 0.9988 0.0478
vn -0.0329 0.9991 0.0275
vn -0.0226 0.9992 0.0317
vn 0.0002 0.9996 -0.0282
vn 0.0019 0.9958 -0.0913
vn -0.0015 0.9964 -0.0846
vn 0.0001 0.9996 -0.028
vn 0.0034 0.9893 -0.1457
vn -0.0073 -0.9996 -0.0259
vn 0.0391 0.9977 -0.0554
vn 0.0615 0.9979 0.0188
vn 0.0259 0.9912 -0.1297
vn 0.029 0.9864 -0.1619
vn 0.044 0.9953 -0.0858
vn 0.0692 0.9976 -0.0046
vn -0.1006 -0.8961 0.4323
vn -0.2043 0.6218 0.756
vn -0.1182 0.4372 0.8915
vn -0.1136 0.4269 0.8971
vn -0.0199 0.2144 0.9765
vn -0.0437 -0.8741 0.4837
vn -0.041 -0.9092 -0.4144
vn 0.015 0.6671 -0.7448
vn 0.015 0.6664 -0.7454
vn 0.0162 0.635 -0.7723
vn -0.0455 -0.8943 -0.4452
vn 0.2425 0.6256 0.7415
vn 0.1382 0.4292 0.8926
vn 0.1529 0.4575 0.8759
vn 0.0411 -0.9025 0.4286
vn -0.0274 -0.8823 0.47
vn 0.0384 0.2312 0.9722
vn 0.0014 0.9999 -0.0127
vn 0.0178 0.9992 0.0351
vn 0.0132 0.9923 0.123
vn 0.0009 1 -0.0036
vn 0.0253 0.9732 0.2284
vn 0.0133 0.9435 0.3312
vn 0.0073 0.984 0.178
vn 0.0006 1 0.0005
vn 0.0045 0.6199 -0.7847
vn 0.0045 0.6198 -0.7848
vn -0.0007 -0.8688 -0.4951
vn -0.0008 -0.8677 -0.4971
vn 0.005 0.6056 -0.7957
vn 0.0035 0.9947 -0.1023
vn 0.0063 0.9862 -0.1657
vn 0.0004 0.9996 -0.0294
vn 0.0004 0.9995 -0.0302
vn 0.0039 0.994 -0.1093
vn 0.007 0.984 -0.1778
vn -0 0.9998 -0.0203
vn 0.0005 0.9998 -0.0213
vn 0.0025 0.9997 -0.0226
vn 0.0479 0.9988 -0.0043
vn 0.0469 0.9987 0.02
vn 0.074 0.9973 0.0029
vn 0.0768 0.997 0.0018
vn 0.0833 0.9965 -0.0078
vn 0.0868 0.9962 0.0041
vn 0.0126 0.9994 0.0315
vn 0.0121 0.9999 -0.0068
vn -0.0132 0.9995 -0.0286
vn 0.0038 0.9999 -0.0139
vn 0.031 0.9987 0.0412
vn 0.0638 0.989 0.1337
vn 0.0488 0.9687 0.2434
vn 0.0786 0.979 0.1881
vn 0.0681 0.9336 0.3517
vn -0.0245 0.9995 -0.0209
vn -0.0242 0.9994 -0.0254
vn 0.0122 0.9997 -0.0188
vn 0.0113 0.9991 -0.0397
vn -0 0.9998 -0.0202
vn 0.0177 0.9989 -0.0431
vn 0.02 0.9989 -0.0431
vn 0.0249 0.5176 0.8553
vn 0.0159 0.7946 0.6069
vn 0.0285 0.8051 0.5924
vn 0.036 0.5108 0.859
vn 0.0267 0.8146 0.5793
vn 0.0222 0.5066 0.8619
vn 0.0088 0.5004 0.8658
vn 0.0063 0.5872 0.8094
vn 0.0059 0.7861 0.6181
vn 0.0112 0.5152 0.857
vn 0.0084 0.9187 0.3949
vn 0.136 0.5674 0.8121
vn 0.3446 0.7778 0.5256
vn 0.0594 0.7923 0.6073
vn 0.0143 0.4993 0.8663
vn 0.0106 0.7192 0.6948
vn 0.0056 0.7405 0.6721
vn 0.0045 0.8679 0.4967
vn -0.0007 0.8722 0.4891
vn -0.0021 0.7448 0.6673
vn -0.0007 0.8685 0.4958
vn -0 0.8934 0.4492
vn 0.0026 0.8953 0.4454
vn -0.1447 0.5911 0.7935
vn -0.0281 0.6665 0.7449
vn -0.0265 0.8682 0.4956
vn -0.109 0.8369 0.5365
vn -0.2819 0.53 0.7998
vn -0.2526 0.5316 0.8085
vn -0.1901 0.7964 0.5742
vn -0.2063 0.7772 0.5944
vn -0.4038 0.4834 0.7767
vn -0.7625 0.536 0.3624
vn -0.7385 0.5075 0.444
vn -0.8083 0.295 0.5095
vn -0.9875 0.1472 0.0563
vn -0.9817 0.1662 0.0928
vn -0.8753 0.16 0.4564
vn -0.0309 0.7317 0.6809
vn -0.012 0.8781 0.4784
vn -0.0393 0.8757 0.4813
vn -0.0217 0.8864 0.4624
vn -0.0037 0.8966 0.4427
vn -0.0022 0.895 0.446
vn 0.9901 0.1263 0.0616
vn 0.9895 0.1315 0.06
vn 0.988 0.1442 0.0561
vn 0.9874 0.1482 0.0549
vn 0.4858 0.7043 0.5177
vn 0.383 0.6787 0.6266
vn -0.0794 0.8187 0.5687
vn -0.0672 0.5176 0.853
vn -0.1789 0.7984 0.5749
vn 0.0088 0.238 0.9712
vn 0.0128 0.2956 0.9552
vn -0.0504 0.3178 0.9468
vn -0.0404 0.2666 0.963
vn -0.3071 0.3342 0.8911
vn -0.323 0.2992 0.8979
vn -0.9581 -0.1479 -0.2454
vn -0.9648 -0.1401 -0.2227
vn -0.992 -0.0921 -0.0862
vn -0.9946 -0.0833 -0.0615
vn -0.5616 0.1483 0.814
vn -0.2921 0.3673 0.8831
vn -0.1919 0.3241 0.9263
vn -0.6079 0.1014 0.7875
vn -0.0007 0.3558 0.9346
vn -0.0047 0.3385 0.941
vn -0.0221 0.4499 0.8928
vn -0.0017 0.4987 0.8668
vn -0.0079 0.3233 0.9463
vn -0.0397 0.4026 0.9145
vn -0.0714 0.4791 0.8749
vn -0.6645 0.2302 0.711
vn -0.7712 0.1618 0.6156
vn -0.8276 0.1302 0.5461
vn -0.8282 0.1271 0.5458
vn -0.3099 0.303 0.9012
vn -0.2741 0.3087 0.9108
vn -0.2696 0.3403 0.9008
vn -0.3038 0.3206 0.8972
vn -0.1688 0.3215 0.9317
vn -0.163 0.3839 0.9089
vn -0.0552 0.335 0.9406
vn -0.0472 0.4325 0.9004
vn -0.0053 0.3479 0.9375
vn 0.0004 0.4748 0.8801
vn 0.0007 0.3559 0.9345
vn 0.0026 0.4963 0.8681
vn -0.0371 0.2832 0.9584
vn -0.0045 0.3534 0.9355
vn -0.0091 0.317 0.9484
vn 0.0175 0.399 0.9168
vn 0.0243 0.3896 0.9206
vn 0.0131 0.4211 0.9069
vn 0.0131 0.4151 0.9097
vn 0.0193 0.3955 0.9183
vn 0.0122 0.377 0.9261
vn 0.0257 0.3358 0.9416
vn 0.0161 0.2944 0.9556
#end 472 normals 

#begin 352 faces
o Cube:038
s 1
f 4/4/1 119/119/2 295/295/3 223/223/4 
f 119/119/2 13/13/5 222/222/6 295/295/3 
f 295/295/3 222/222/6 64/64/7 215/215/8 
f 223/223/4 295/295/3 215/215/8 61/61/9 
f 58/58/10 211/211/11 296/296/12 142/142/13 
f 211/211/11 29/29/14 108/108/15 296/296/12 
f 296/296/12 108/108/15 8/8/16 123/123/17 
f 142/142/13 296/296/12 123/123/17 17/17/18 
f 17/17/18 123/123/17 297/297/19 221/221/20 
f 123/123/17 8/8/16 220/220/21 297/297/19 
f 297/297/19 220/220/21 62/62/22 216/216/23 
f 221/221/20 297/297/19 216/216/23 65/65/24 
f 71/71/25 235/235/26 298/298/27 238/238/28 
f 235/235/26 34/34/29 114/114/30 298/298/27 
f 298/298/27 114/114/30 2/2/31 104/104/32 
f 238/238/28 298/298/27 104/104/32 70/70/33 
f 58/58/10 178/178/34 299/299/35 211/211/11 
f 178/178/34 57/57/36 254/254/37 299/299/35 
f 299/299/35 254/254/37 82/82/38 228/228/39 
f 211/211/11 299/299/35 228/228/39 29/29/14 
f 28/28/40 150/150/41 300/300/42 204/204/40 
f 150/150/41 4/4/1 105/105/43 300/300/42 
f 300/398/44 105/400/45 2/2/45 114/114/46 
f 204/402/47 300/398/44 114/114/46 34/34/47 
f 92/92/48 264/264/49 301/301/50 274/274/51 
f 264/264/49 37/37/52 131/131/53 301/301/50 
f 301/301/50 131/131/53 9/9/54 115/115/55 
f 274/274/51 301/301/50 115/115/55 86/86/56 
f 37/37/52 199/199/57 302/302/58 131/131/53 
f 199/199/57 40/40/59 132/132/60 302/302/58 
f 302/302/58 132/132/60 10/10/61 116/116/62 
f 131/131/53 302/302/58 116/116/62 9/9/54 
f 40/40/59 196/196/63 303/303/64 132/132/60 
f 196/196/63 43/43/65 133/133/66 303/303/64 
f 303/303/64 133/133/66 11/11/67 117/117/68 
f 132/132/60 303/303/64 117/117/68 10/10/61 
f 43/43/65 193/193/69 304/304/70 133/133/66 
f 193/193/69 46/46/71 134/134/72 304/304/70 
f 304/304/70 134/134/72 12/12/73 118/118/74 
f 133/133/66 304/304/70 118/118/74 11/11/67 
f 84/84/75 256/256/76 305/305/77 273/273/75 
f 256/256/76 20/20/78 135/135/79 305/305/77 
f 305/411/80 135/415/81 24/24/82 257/257/83 
f 273/412/84 305/411/80 257/257/83 85/85/85 
f 20/20/78 126/126/86 306/306/87 135/135/79 
f 126/126/86 19/19/88 136/136/89 306/306/87 
f 306/414/90 136/413/91 23/23/92 130/130/93 
f 135/415/81 306/414/90 130/130/93 24/24/82 
f 19/19/88 125/125/94 307/307/95 136/136/89 
f 125/125/94 18/18/96 137/137/97 307/307/95 
f 307/409/98 137/408/99 22/22/100 129/129/101 
f 136/413/91 307/409/98 129/129/101 23/23/92 
f 18/18/96 124/124/102 308/308/103 137/137/97 
f 124/124/102 17/17/18 138/138/104 308/308/103 
f 308/420/105 138/419/106 21/21/107 128/128/108 
f 137/408/99 308/420/105 128/128/108 22/22/100 
f 89/89/109 261/261/110 309/309/111 272/272/112 
f 261/261/110 49/49/113 139/139/114 309/309/111 
f 309/309/111 139/139/114 20/20/115 256/256/116 
f 272/272/112 309/309/111 256/256/116 84/84/117 
f 49/49/113 187/187/118 310/310/119 139/139/114 
f 187/187/118 52/52/120 140/140/121 310/310/119 
f 310/310/119 140/140/121 19/19/122 126/126/123 
f 139/139/114 310/310/119 126/126/123 20/20/115 
f 52/52/120 184/184/124 311/311/125 140/140/121 
f 184/184/124 55/55/126 141/141/127 311/311/125 
f 311/311/125 141/141/127 18/18/128 125/125/129 
f 140/140/121 311/311/125 125/125/129 19/19/122 
f 55/55/126 181/181/130 312/312/131 141/141/127 
f 181/181/130 58/58/10 142/142/13 312/312/131 
f 312/312/131 142/142/13 17/17/18 124/124/102 
f 141/141/127 312/312/131 124/124/102 18/18/128 
f 86/86/132 115/115/133 313/313/134 271/271/135 
f 115/115/133 9/9/136 143/143/137 313/313/134 
f 313/391/138 143/390/139 16/16/140 255/255/141 
f 271/395/142 313/391/138 255/255/141 83/83/143 
f 9/9/136 116/116/144 314/314/145 143/143/137 
f 116/116/144 10/10/146 144/144/147 314/314/145 
f 314/383/148 144/389/149 15/15/150 122/122/148 
f 143/390/139 314/383/151 122/122/151 16/16/140 
f 10/10/146 117/117/68 315/315/152 144/144/147 
f 117/117/68 11/11/67 145/145/153 315/315/152 
f 315/387/154 145/393/155 14/14/156 121/121/157 
f 144/389/149 315/387/154 121/121/157 15/15/150 
f 11/11/67 118/118/74 316/316/158 145/145/153 
f 118/118/74 12/12/73 146/146/159 316/316/158 
f 316/385/160 146/388/161 13/13/5 120/120/162 
f 145/393/155 316/385/160 120/120/162 14/14/156 
f 14/14/156 120/120/162 317/317/163 173/173/164 
f 120/120/162 13/13/5 176/176/165 317/317/163 
f 317/317/163 176/176/165 56/56/166 179/179/167 
f 173/173/164 317/317/163 179/179/167 53/53/168 
f 53/53/168 179/179/167 318/318/169 174/174/170 
f 179/179/167 56/56/166 177/177/171 318/318/169 
f 318/318/169 177/177/171 57/57/36 180/180/172 
f 174/174/170 318/318/169 180/180/172 54/54/173 
f 54/54/173 180/180/172 319/319/174 175/175/175 
f 180/180/172 57/57/36 178/178/34 319/319/174 
f 319/319/174 178/178/34 58/58/10 181/181/130 
f 175/175/175 319/319/174 181/181/130 55/55/126 
f 15/15/176 121/121/157 320/320/177 170/170/178 
f 121/121/157 14/14/156 173/173/164 320/320/177 
f 320/320/177 173/173/164 53/53/168 182/182/179 
f 170/170/178 320/320/177 182/182/179 50/50/180 
f 50/50/180 182/182/179 321/321/181 171/171/182 
f 182/182/179 53/53/168 174/174/170 321/321/181 
f 321/321/181 174/174/170 54/54/173 183/183/183 
f 171/171/182 321/321/181 183/183/183 51/51/184 
f 51/51/184 183/183/183 322/322/185 172/172/186 
f 183/183/183 54/54/173 175/175/175 322/322/185 
f 322/322/185 175/175/175 55/55/126 184/184/124 
f 172/172/186 322/322/185 184/184/124 52/52/120 
f 16/16/187 122/122/188 323/323/189 167/167/190 
f 122/122/188 15/15/176 170/170/178 323/323/189 
f 323/323/189 170/170/178 50/50/180 185/185/191 
f 167/167/190 323/323/189 185/185/191 47/47/192 
f 47/47/192 185/185/191 324/324/193 168/168/194 
f 185/185/191 50/50/180 171/171/182 324/324/193 
f 324/324/193 171/171/182 51/51/184 186/186/195 
f 168/168/194 324/324/193 186/186/195 48/48/196 
f 48/48/196 186/186/195 325/325/197 169/169/198 
f 186/186/195 51/51/184 172/172/186 325/325/197 
f 325/325/197 172/172/186 52/52/120 187/187/118 
f 169/169/198 325/325/197 187/187/118 49/49/113 
f 83/83/199 270/270/200 326/326/201 255/255/202 
f 270/270/200 87/87/203 259/259/204 326/326/201 
f 326/326/201 259/259/204 47/47/205 167/167/206 
f 255/255/202 326/326/201 167/167/206 16/16/207 
f 87/87/203 269/269/208 327/327/209 259/259/204 
f 269/269/208 88/88/210 260/260/211 327/327/209 
f 327/327/209 260/260/211 48/48/212 168/168/213 
f 259/259/204 327/327/209 168/168/213 47/47/205 
f 88/88/214 260/260/215 328/328/216 268/268/217 
f 260/260/215 48/48/196 169/169/198 328/328/216 
f 328/328/216 169/169/198 49/49/113 261/261/110 
f 268/268/217 328/328/216 261/261/110 89/89/109 
f 22/22/218 128/128/108 329/329/219 161/161/220 
f 128/128/108 21/21/107 164/164/221 329/329/219 
f 329/329/219 164/164/221 44/44/222 191/191/223 
f 161/161/220 329/329/219 191/191/223 41/41/224 
f 41/41/224 191/191/223 330/330/225 162/162/226 
f 191/191/223 44/44/222 165/165/227 330/330/225 
f 330/330/225 165/165/227 45/45/228 192/192/229 
f 162/162/226 330/330/225 192/192/229 42/42/230 
f 42/42/230 192/192/229 331/331/231 163/163/232 
f 192/192/229 45/45/228 166/166/233 331/331/231 
f 331/331/231 166/166/233 46/46/71 193/193/69 
f 163/163/232 331/331/231 193/193/69 43/43/65 
f 23/23/234 129/129/235 332/332/236 158/158/237 
f 129/129/235 22/22/218 161/161/220 332/332/236 
f 332/332/236 161/161/220 41/41/224 194/194/238 
f 158/158/237 332/332/236 194/194/238 38/38/239 
f 38/38/239 194/194/238 333/333/240 159/159/241 
f 194/194/238 41/41/224 162/162/226 333/333/240 
f 333/333/240 162/162/226 42/42/230 195/195/242 
f 159/159/241 333/333/240 195/195/242 39/39/243 
f 39/39/243 195/195/242 334/334/244 160/160/245 
f 195/195/242 42/42/230 163/163/232 334/334/244 
f 334/334/244 163/163/232 43/43/65 196/196/63 
f 160/160/245 334/334/244 196/196/63 40/40/59 
f 24/24/246 130/130/247 335/335/248 155/155/249 
f 130/130/247 23/23/234 158/158/237 335/335/248 
f 335/335/248 158/158/237 38/38/239 197/197/250 
f 155/155/249 335/335/248 197/197/250 35/35/251 
f 35/35/251 197/197/250 336/336/252 156/156/253 
f 197/197/250 38/38/239 159/159/241 336/336/252 
f 336/336/252 159/159/241 39/39/243 198/198/254 
f 156/156/253 336/336/252 198/198/254 36/36/255 
f 36/36/255 198/198/254 337/337/256 157/157/257 
f 198/198/254 39/39/243 160/160/245 337/337/256 
f 337/337/256 160/160/245 40/40/59 199/199/57 
f 157/157/257 337/337/256 199/199/57 37/37/52 
f 85/85/258 257/257/259 338/338/260 267/267/261 
f 257/257/259 24/24/246 155/155/249 338/338/260 
f 338/338/260 155/155/249 35/35/251 262/262/262 
f 267/267/261 338/338/260 262/262/262 90/90/263 
f 90/90/263 262/262/262 339/339/264 266/266/265 
f 262/262/262 35/35/251 156/156/253 339/339/264 
f 339/339/264 156/156/253 36/36/255 263/263/266 
f 266/266/265 339/339/264 263/263/266 91/91/267 
f 91/91/267 263/263/266 340/340/268 265/265/269 
f 263/263/266 36/36/255 157/157/257 340/340/268 
f 340/340/268 157/157/257 37/37/52 264/264/49 
f 265/265/269 340/340/268 264/264/49 92/92/48 
f 8/8/16 108/108/15 341/341/270 111/111/271 
f 108/108/15 29/29/14 203/403/272 341/341/270 
f 341/405/273 203/203/274 33/33/275 154/154/276 
f 111/406/277 341/405/273 154/154/276 6/6/278 
f 56/56/166 210/210/279 342/342/280 177/177/171 
f 210/210/279 28/28/281 239/239/282 342/342/280 
f 342/342/280 239/239/282 73/73/283 205/205/284 
f 177/177/171 342/342/280 205/205/284 57/57/36 
f 80/80/285 249/249/286 343/343/287 253/253/288 
f 249/249/286 68/68/289 230/230/290 343/343/287 
f 343/343/287 230/230/290 33/33/275 248/248/291 
f 253/253/288 343/343/287 248/248/291 79/79/292 
f 75/75/293 246/246/294 344/344/295 241/241/296 
f 246/246/294 74/74/297 207/207/298 344/344/295 
f 344/344/295 207/207/298 34/34/29 235/235/26 
f 241/241/296 344/344/295 235/235/26 71/71/25 
f 67/67/299 229/229/300 345/345/301 233/233/302 
f 229/229/300 6/6/303 154/154/276 345/345/301 
f 345/345/301 154/154/276 33/33/275 230/230/290 
f 233/233/302 345/345/301 230/230/290 68/68/289 
f 13/13/5 119/119/2 346/346/304 176/176/165 
f 119/119/2 4/4/1 150/150/41 346/346/304 
f 346/346/304 150/150/41 28/28/281 210/210/279 
f 176/176/165 346/346/304 210/210/279 56/56/166 
f 70/70/33 104/104/32 347/347/305 237/237/306 
f 104/104/32 2/2/31 224/224/307 347/347/305 
f 347/347/305 224/224/307 60/60/308 212/212/309 
f 237/237/306 347/347/305 212/212/309 72/72/310 
f 13/13/5 146/388/161 348/348/311 222/222/6 
f 146/146/312 12/12/312 225/225/313 348/386/314 
f 348/386/314 225/225/313 59/59/315 219/384/315 
f 222/222/6 348/348/311 219/219/316 64/64/7 
f 8/8/16 111/111/271 349/349/317 220/220/21 
f 111/406/277 6/6/278 226/226/318 349/404/319 
f 349/404/319 226/226/318 63/63/320 214/407/320 
f 220/220/21 349/349/317 214/214/321 62/62/22 
f 21/21/322 138/419/322 350/350/323 227/227/324 
f 138/138/104 17/17/18 221/221/20 350/418/325 
f 350/418/325 221/221/20 65/65/24 218/416/326 
f 227/227/324 350/350/323 218/218/327 66/66/327 
f 78/78/328 127/127/329 351/351/330 252/252/331 
f 127/127/329 21/21/107 227/227/332 351/351/330 
f 351/351/330 227/227/332 66/66/333 217/217/334 
f 252/252/331 351/351/330 217/217/334 81/81/335 
f 2/2/45 105/400/45 352/352/336 224/224/337 
f 105/105/43 4/4/1 223/223/4 352/401/338 
f 352/401/338 223/223/4 61/61/9 213/399/339 
f 224/224/337 352/352/336 213/213/340 60/60/340 
f 6/6/303 229/229/300 353/353/341 226/226/342 
f 229/229/300 67/67/299 232/232/343 353/353/341 
f 353/353/341 232/232/343 69/69/344 231/231/345 
f 226/226/342 353/353/341 231/231/345 63/63/346 
f 78/78/328 247/247/347 354/354/348 251/251/349 
f 247/247/347 67/67/299 233/233/302 354/354/348 
f 354/354/348 233/233/302 68/68/289 249/249/286 
f 251/251/349 354/354/348 249/249/286 80/80/285 
f 76/76/350 234/234/351 355/355/352 245/245/353 
f 234/234/351 70/70/33 237/237/306 355/355/352 
f 355/355/352 237/237/306 72/72/310 236/236/354 
f 245/245/353 355/355/352 236/236/354 77/77/355 
f 75/75/293 241/241/296 356/356/356 244/244/357 
f 241/241/296 71/71/25 238/238/28 356/356/356 
f 356/356/356 238/238/28 70/70/33 234/234/351 
f 244/244/357 356/356/356 234/234/351 76/76/350 
f 46/46/71 209/209/358 357/357/359 134/134/72 
f 209/209/358 75/75/293 244/244/357 357/357/359 
f 357/357/359 244/244/357 76/76/350 242/242/360 
f 134/134/72 357/357/359 242/242/360 12/12/73 
f 12/12/73 242/242/360 358/358/361 225/225/362 
f 242/242/360 76/76/350 245/245/353 358/358/361 
f 358/358/361 245/245/353 77/77/355 243/243/363 
f 225/225/362 358/358/361 243/243/363 59/59/364 
f 46/46/71 166/166/233 359/359/365 209/209/358 
f 166/166/233 45/45/228 240/240/366 359/359/365 
f 359/359/365 240/240/366 74/74/297 246/246/294 
f 209/209/358 359/359/365 246/246/294 75/75/293 
f 21/21/107 127/127/329 360/360/367 164/164/221 
f 127/127/329 78/78/328 251/251/349 360/360/367 
f 360/360/367 251/251/349 80/80/285 208/208/368 
f 164/164/221 360/360/367 208/208/368 44/44/222 
f 67/67/299 247/247/347 361/361/369 232/232/343 
f 247/247/347 78/78/328 252/252/331 361/361/369 
f 361/361/369 252/252/331 81/81/335 250/250/369 
f 232/232/343 361/361/369 250/250/369 69/69/344 
f 44/44/222 208/208/368 362/362/370 165/165/227 
f 208/208/368 80/80/285 253/253/288 362/362/370 
f 362/362/370 253/253/288 79/79/292 206/206/371 
f 165/165/227 362/362/370 206/206/371 45/45/228 
f 100/100/372 282/282/373 363/363/374 294/294/375 
f 282/282/373 91/91/267 265/265/269 363/363/374 
f 363/363/374 265/265/269 92/92/48 283/283/376 
f 294/294/375 363/363/374 283/283/376 101/101/377 
f 99/99/378 281/281/379 364/364/380 293/293/381 
f 281/281/382 90/90/263 266/266/265 364/364/380 
f 364/364/380 266/266/265 91/91/267 282/282/373 
f 293/293/381 364/364/380 282/282/373 100/100/372 
f 95/95/383 277/277/384 365/365/385 292/292/386 
f 277/277/384 85/85/258 267/267/261 365/365/385 
f 365/365/385 267/267/261 90/90/263 281/281/382 
f 292/292/386 365/365/385 281/281/379 99/99/378 
f 97/97/387 291/291/388 366/366/389 279/279/390 
f 291/291/388 98/98/391 280/280/392 366/366/389 
f 366/428/389 280/431/392 89/89/393 268/268/394 
f 279/427/390 366/428/389 268/268/394 88/88/210 
f 96/96/395 290/290/396 367/367/397 278/278/398 
f 290/290/396 97/97/387 279/279/390 367/367/397 
f 367/426/397 279/427/390 88/88/210 269/269/208 
f 278/432/398 367/426/397 269/269/208 87/87/203 
f 93/93/399 289/289/400 368/368/401 275/275/402 
f 289/289/400 96/96/395 278/278/398 368/368/401 
f 368/433/401 278/432/398 87/87/203 270/270/200 
f 275/424/402 368/433/401 270/270/200 83/83/199 
f 102/102/403 258/258/404 369/369/405 288/288/406 
f 258/258/404 86/86/132 271/271/135 369/369/405 
f 369/392/407 271/395/142 83/83/143 275/424/408 
f 288/394/406 369/425/407 275/275/408 93/93/409 
f 98/98/391 287/287/410 370/370/411 280/280/392 
f 287/287/410 94/94/412 276/276/413 370/370/411 
f 370/430/411 276/429/413 84/84/414 272/272/415 
f 280/431/392 370/430/411 272/272/415 89/89/393 
f 94/94/416 276/276/417 371/371/418 286/286/416 
f 276/429/417 84/84/419 273/273/419 371/423/418 
f 371/410/420 273/412/84 85/85/85 277/277/384 
f 286/417/421 371/410/420 277/277/384 95/95/383 
f 101/101/377 283/283/376 372/372/422 285/285/423 
f 283/283/376 92/92/48 274/274/51 372/372/422 
f 372/372/422 274/274/51 86/86/56 258/258/424 
f 285/285/423 372/372/422 258/258/424 102/102/403 
f 30/30/425 202/202/426 373/373/427 151/151/428 
f 202/202/426 101/101/377 285/285/423 373/373/427 
f 373/373/427 285/285/423 102/102/403 284/284/429 
f 151/151/428 373/373/427 284/284/429 1/1/430 
f 7/7/431 109/109/432 374/374/433 110/110/431 
f 109/109/432 94/94/434 286/286/434 374/374/433 
f 374/421/435 286/417/436 95/95/383 112/112/437 
f 110/422/438 374/421/435 112/112/437 5/5/438 
f 25/25/439 147/147/440 375/375/441 190/190/442 
f 147/147/440 7/7/443 109/109/444 375/375/441 
f 375/375/441 109/109/444 94/94/445 287/287/410 
f 190/190/442 375/375/441 287/287/410 98/98/391 
f 1/1/430 284/284/429 376/376/446 103/103/447 
f 284/284/429 102/102/403 288/288/406 376/376/446 
f 376/396/446 288/394/406 93/93/409 106/106/448 
f 103/397/447 376/396/446 106/106/448 3/3/449 
f 3/3/450 107/107/451 377/377/452 106/106/453 
f 107/107/451 27/27/454 188/188/455 377/377/452 
f 377/377/452 188/188/455 96/96/395 289/289/400 
f 106/106/453 377/377/452 289/289/400 93/93/399 
f 27/27/454 149/149/456 378/378/457 188/188/455 
f 149/149/456 26/26/458 189/189/459 378/378/457 
f 378/378/457 189/189/459 97/97/387 290/290/396 
f 188/188/455 378/378/457 290/290/396 96/96/395 
f 26/26/458 148/148/460 379/379/461 189/189/459 
f 148/148/460 25/25/439 190/190/442 379/379/461 
f 379/379/461 190/190/442 98/98/391 291/291/388 
f 189/189/459 379/379/461 291/291/388 97/97/387 
f 5/5/462 112/112/437 380/380/463 113/113/464 
f 112/112/437 95/95/383 292/292/386 380/380/463 
f 380/380/463 292/292/386 99/99/378 200/200/465 
f 113/113/464 380/380/463 200/200/465 32/32/466 
f 32/32/466 200/200/465 381/381/467 153/153/468 
f 200/200/465 99/99/378 293/293/381 381/381/467 
f 381/381/467 293/293/381 100/100/372 201/201/469 
f 153/153/468 381/381/467 201/201/469 31/31/470 
f 31/31/470 201/201/469 382/382/471 152/152/472 
f 201/201/469 100/100/372 294/294/375 382/382/471 
f 382/382/471 294/294/375 101/101/377 202/202/426 
f 152/152/472 382/382/471 202/202/426 30/30/425 
#end 352 faces

#ZOMPROPERTIES_04{
#ZOMPROPERTIES_04 table {Mesh table {SymPlane table {Point vector3d 0 0 0 Normal vector3d 1 0 0 Threshold double 0.01 
#ZOMPROPERTIES_04 Enabled bool false EdgeID int -1 SymEdgeID int -1 UPos double 0.5 LocalMode bool false } RootGroup C
#ZOMPROPERTIES_04 SubMeshGroup {Children table {Tile_0_0 CSubMeshGroup {Children table {} BBoxUV box3d 0 0 0 0 0 0 BBo
#ZOMPROPERTIES_04 x3D box3d 0 0 0 0 0 0 Area3D double 0 AreaUV double 0.455961 IsRoot bool false Properties table {Sel
#ZOMPROPERTIES_04 ected bool false Box box3d 0 1 0 1 0 1 U int 0 V int 0 NU int 0 NV int 0 Tiling vector3d 1 1 1 TileR
#ZOMPROPERTIES_04 atioMode string "1:1" Overflow string "Off" Pack table {BoxFrameEdit bool false Behavior string "Fre
#ZOMPROPERTIES_04 e" } } IsTile bool true PolyIDs ints { 284 339 334 289 288 335 330 331 292 293 299 326 327 328 329 3
#ZOMPROPERTIES_04 32 333 336 337 320 323 322 321 316 317 304 301 300 285 338 0 3 2 215 212 86 87 88 91 92 95 96 99 68 
#ZOMPROPERTIES_04 71 52 49 48 67 64 111 108 107 104 103 100 83 82 78 79 74 75 298 295 294 125 126 115 116 119 120 123 
#ZOMPROPERTIES_04 60 63 44 45 41 40 59 56 135 132 129 130 290 291 287 128 286 133 303 134 302 57 305 58 62 61 122 121 
#ZOMPROPERTIES_04 118 117 131 114 112 127 124 113 101 102 105 106 109 110 65 66 53 221 222 11 10 219 216 184 185 5 19 
#ZOMPROPERTIES_04 18 17 97 16 98 4 69 7 6 9 8 70 94 191 190 189 206 205 21 229 20 207 204 89 90 188 93 1 230 12 13 14 
#ZOMPROPERTIES_04 209 210 231 211 242 241 246 247 244 245 199 196 197 198 258 257 145 142 141 138 137 54 220 225 224 2
#ZOMPROPERTIES_04 61 236 237 238 193 194 195 192 269 262 239 263 268 271 270 202 186 187 217 232 235 234 267 266 227 2
#ZOMPROPERTIES_04 26 265 264 233 218 200 201 203 260 223 55 50 51 46 47 42 43 306 307 280 283 276 345 346 347 348 349 
#ZOMPROPERTIES_04 350 351 312 315 324 325 296 297 72 73 76 77 80 35 32 159 156 155 152 151 148 162 161 163 160 174 173
#ZOMPROPERTIES_04  175 172 282 277 278 273 274 309 310 27 24 25 26 28 31 29 171 168 167 164 178 177 179 181 180 166 18
#ZOMPROPERTIES_04 2 183 169 170 308 313 314 311 275 272 176 279 165 150 139 149 153 140 154 143 157 144 158 147 36 39 
#ZOMPROPERTIES_04 84 81 85 38 251 252 213 214 255 254 253 240 243 250 249 248 256 146 37 34 33 30 344 343 342 340 341 
#ZOMPROPERTIES_04 318 319 281 136 259 208 228 22 23 15 } } } BBoxUV box3d 0 0 0 0 0 0 BBox3D box3d 0 0 0 0 0 0 Area3D 
#ZOMPROPERTIES_04 double 0 AreaUV double 0 IsRoot bool true Properties table {Selected bool false Box box3d 0 1 0 1 0 
#ZOMPROPERTIES_04 1 U int 0 V int 0 NU int 1 NV int 1 Tiling vector3d 1 1 1 TileRatioMode string "1:1" Overflow string
#ZOMPROPERTIES_04  "Off" Pack table {Rotate table {Mode int 0 Min double 0 Max double 90 Step double 0 } PaddingSize d
#ZOMPROPERTIES_04 ouble 0.0078125 MarginSize double 0.00390625 Resolution int 256 MapResolution int 2048 Scaling table
#ZOMPROPERTIES_04  {TexelDensity double 1024 Mode int 2 } LayoutScalingMode int 2 MaxMutations int 1 } } IsTile bool f
#ZOMPROPERTIES_04 alse PolyIDs ints { } } Maps table {Pin table {PrimType string "Vertex" Size int 1 DefaultValue doub
#ZOMPROPERTIES_04 le 0 ScaleType string "Normalized" MergeMode string "Max" MinValue double 0 MaxValue double 1 Data d
#ZOMPROPERTIES_04 oubles { r 433 0 } } Density table {PrimType string "Polygon" Size int 1 DefaultValue double 1 Scale
#ZOMPROPERTIES_04 Type string "Log" MergeMode string "Average" MinValue double 0.1 MaxValue double 4 Data doubles { r 
#ZOMPROPERTIES_04 352 1 } } Protect table {PrimType string "Vertex" Size int 1 DefaultValue double 0 ScaleType string 
#ZOMPROPERTIES_04 "Normalized" MergeMode string "Average" MinValue double -1 MaxValue double 1 Data doubles { r 433 0 
#ZOMPROPERTIES_04 } } } } }
#ZOMPROPERTIES_04}


#ZOMSCENE_01{
#ZOMSCENE_01 CScene {Settings table {AxisSystem table {UpVector string "y" } Unit string "cm" TexelDensityDisplay
#ZOMSCENE_01 Unit string "tx/cm" } Root table {} }
#ZOMSCENE_01}

#begin 0 fatal error vertex (that RizomUV cannot handle)
#end 0 fatal error vertex (that RizomUV cannot handle)

#begin 0 error vertex
#end 0 error vertex
