#File written by RizomUV 2023.0.70.ge90189e8. Compilation :Sep 22 2023,12:42:11
mtllib lavarropas pared.mtl
#begin vertices
v -21.74538 6.364394 9.161804
v -21.74538 2.623396 9.161804
v -21.74538 6.364394 5.420807
v -21.74538 2.623396 5.420807
v -21.74538 6.364394 6.044307
v -21.74538 6.364394 6.667806
v -21.74538 6.364394 7.291306
v -21.74538 6.364394 7.914805
v -21.74538 6.364394 8.538305
v -21.74538 2.623396 8.538304
v -21.74538 2.623396 7.914805
v -21.74538 2.623396 7.291306
v -21.74538 2.623396 6.667806
v -21.74538 2.623396 6.044306
v -21.74538 5.740894 9.161804
v -21.74538 5.117394 9.161804
v -21.74538 4.493895 9.161804
v -21.74538 3.870395 9.161804
v -21.74538 3.246896 9.161804
v -21.74538 3.246896 5.420807
v -21.74538 3.870396 5.420807
v -21.74538 4.493895 5.420807
v -21.74538 5.117395 5.420807
v -21.74538 5.740894 5.420807
v -21.74538 3.588393 8.196808
v -21.74538 4.003841 8.474401
v -21.74538 4.493895 8.571879
v -21.74538 4.98395 8.474401
v -21.74538 5.399398 8.196808
v -21.74538 3.310799 7.78136
v -21.74538 5.676991 7.78136
v -21.74538 3.213321 7.291306
v -21.527 3.362327 7.760016
v -21.527 5.31246 8.109871
v -21.527 4.9369 8.360813
v -21.74538 5.774469 7.291306
v -21.74538 3.310799 6.801251
v -21.527 4.493895 8.448932
v -21.527 4.050891 8.360813
v -21.527 3.67533 8.109871
v -21.74538 5.676991 6.801251
v -21.74538 3.588393 6.385803
v -21.74538 4.003841 6.10821
v -21.74538 4.493895 6.010732
v -21.74538 4.98395 6.10821
v -21.74538 5.399398 6.385803
v -21.59821 3.588393 8.196808
v -21.59821 4.003841 8.474401
v -21.59821 4.493895 8.571879
v -21.59821 4.98395 8.474401
v -21.59821 5.399398 8.196808
v -21.59821 3.310799 7.78136
v -21.59821 5.676991 7.78136
v -21.59821 3.213321 7.291306
v -21.59821 5.774469 7.291306
v -21.59821 3.310799 6.801251
v -21.59821 5.676991 6.801251
v -21.59821 3.588393 6.385803
v -21.59821 4.003841 6.10821
v -21.59821 4.493895 6.010732
v -21.59821 4.98395 6.10821
v -21.59821 5.399398 6.385803
v -21.527 5.625463 7.760016
v -21.527 3.336269 7.291306
v -21.527 5.651521 7.291306
v -21.527 3.424388 6.848301
v -21.527 5.563402 6.848301
v -21.527 3.67533 6.47274
v -21.527 4.050891 6.221798
v -21.527 4.493895 6.133679
v -21.527 4.9369 6.221798
v -21.527 5.31246 6.47274
v -21.527 4.962606 8.422874
v -21.527 5.359961 8.157371
v -21.527 4.493895 8.516107
v -21.527 4.025184 8.422874
v -21.527 3.62783 8.157371
v -21.527 3.62783 6.425241
v -21.527 4.025184 6.159737
v -21.527 4.493895 6.066504
v -21.527 4.962606 6.159737
v -21.527 5.359961 6.425241
v -21.527 5.625463 6.822595
v -21.527 3.362327 6.822595
v -21.527 5.718696 7.291306
v -21.527 3.269094 7.291306
v -21.527 5.563402 7.73431
v -21.527 3.424388 7.73431
v -21.69965 5.435152 7.681187
v -21.69965 3.552639 7.681187
v -21.69965 3.475086 7.291306
v -21.69965 5.512704 7.291306
v -21.69965 3.552639 6.901424
v -21.69965 5.435152 6.901424
v -21.69965 4.883777 6.350049
v -21.69965 4.493895 6.272497
v -21.69965 4.104014 6.350049
v -21.69965 4.883776 8.232562
v -21.69965 4.493895 8.310114
v -21.69965 4.104014 8.232562
v -21.69965 5.214302 8.011712
v -21.69965 3.773489 8.011712
v -21.69965 3.773489 6.570899
v -21.69965 5.214302 6.570899
v -21.69965 4.916339 8.311175
v -21.69965 5.274469 8.071879
v -21.69965 4.493895 8.395205
v -21.69965 4.071452 8.311175
v -21.69965 3.713321 8.071879
v -21.69965 3.713321 6.510731
v -21.69965 4.071452 6.271436
v -21.69965 4.493895 6.187407
v -21.69965 4.916339 6.271436
v -21.69965 5.274469 6.510731
v -21.69965 5.513764 6.868862
v -21.69965 3.474026 6.868862
v -21.69965 5.597794 7.291306
v -21.69965 3.389997 7.291306
v -21.69965 5.513764 7.713749
v -21.69965 3.474026 7.713749
v -21.44421 5.319296 7.633198
v -21.44421 3.668494 7.633198
v -21.44421 3.600488 7.291306
v -21.44421 5.387302 7.291306
v -21.44421 3.668494 6.949413
v -21.44421 5.319296 6.949413
v -21.44421 4.835787 6.465905
v -21.44421 4.493895 6.397899
v -21.44421 4.152003 6.465905
v -21.44421 4.835787 8.116706
v -21.44421 4.493895 8.184712
v -21.44421 4.152003 8.116706
v -21.44421 5.125629 7.92304
v -21.44421 3.862161 7.92304
v -21.44421 3.862161 6.659571
v -21.44421 5.125629 6.659571
v -21.44421 4.854238 8.16125
v -21.44421 5.159721 7.957132
v -21.44421 4.493895 8.232926
v -21.44421 4.133553 8.16125
v -21.44421 3.828069 7.957132
v -21.44421 3.828069 6.625479
v -21.44421 4.133553 6.421361
v -21.44421 4.493895 6.349685
v -21.44421 4.854238 6.421361
v -21.44421 5.159721 6.625479
v -21.44421 5.363839 6.930963
v -21.44421 3.623951 6.930963
v -21.44421 5.435516 7.291306
v -21.44421 3.552274 7.291306
v -21.44421 5.363839 7.651649
v -21.44421 3.623951 7.651648
v -21.53636 5.22298 7.593302
v -21.53636 3.764811 7.593302
v -21.53636 3.70474 7.291306
v -21.53636 5.283051 7.291306
v -21.53636 3.764811 6.989309
v -21.53636 5.22298 6.989309
v -21.53636 4.795892 6.562221
v -21.53636 4.493895 6.502151
v -21.53636 4.191898 6.562221
v -21.53636 4.795892 8.020391
v -21.53636 4.493895 8.080461
v -21.53636 4.191898 8.020391
v -21.53636 5.051912 7.849323
v -21.53636 3.935878 7.849323
v -21.53636 3.935878 6.733289
v -21.53636 5.051912 6.733289
v -21.59702 2.419604 6.044306
v -21.59702 2.419604 5.420807
v -21.59702 2.419604 9.161804
v -21.59702 2.419604 8.538304
v -21.59702 2.419604 7.914805
v -21.59702 2.419604 7.291306
v -21.59702 2.419604 6.667806
v -21.59702 2.468337 7.291306
v -21.59702 2.468337 8.538304
v -21.59702 2.468337 9.161804
v -21.59702 2.468337 6.667806
v -21.59702 2.468337 7.914805
v -21.59702 2.468337 6.044306
v -21.59702 2.468337 5.420807
v -21.73283 2.623396 6.044306
v -21.68679 2.577355 6.044306
v -21.72477 2.623396 6.044306
v -21.72132 2.619943 6.044306
v -21.71952 2.610827 6.044306
v -21.71441 2.60498 6.044306
v -21.70603 2.601389 6.044306
v -21.69908 2.597291 6.044306
v -21.69599 2.588866 6.044306
v -21.69254 2.588866 6.044306
v -21.69047 2.584722 6.044306
v -21.73283 2.623396 5.420807
v -21.68679 2.577355 5.420807
v -21.72477 2.623396 5.420807
v -21.72132 2.619943 5.420807
v -21.71952 2.610827 5.420807
v -21.71441 2.60498 5.420807
v -21.70603 2.601389 5.420807
v -21.69908 2.597291 5.420807
v -21.69599 2.588866 5.420807
v -21.69254 2.588866 5.420807
v -21.69047 2.584722 5.420807
v -21.68679 2.577355 9.161804
v -21.73283 2.623396 9.161804
v -21.69047 2.584722 9.161804
v -21.69254 2.588866 9.161804
v -21.69599 2.588866 9.161804
v -21.69908 2.597291 9.161804
v -21.70603 2.601389 9.161804
v -21.71441 2.60498 9.161804
v -21.71952 2.610827 9.161804
v -21.72132 2.619943 9.161804
v -21.72477 2.623396 9.161804
v -21.68679 2.577355 8.538304
v -21.73283 2.623396 8.538304
v -21.69047 2.584722 8.538304
v -21.69254 2.588866 8.538304
v -21.69599 2.588866 8.538304
v -21.69908 2.597291 8.538304
v -21.70603 2.601389 8.538304
v -21.71441 2.60498 8.538304
v -21.71952 2.610827 8.538304
v -21.72132 2.619943 8.538304
v -21.72477 2.623396 8.538304
v -21.68679 2.577355 7.914805
v -21.73283 2.623396 7.914805
v -21.69047 2.584722 7.914805
v -21.69254 2.588866 7.914805
v -21.69599 2.588866 7.914805
v -21.69908 2.597291 7.914805
v -21.70603 2.601389 7.914805
v -21.71441 2.60498 7.914805
v -21.71952 2.610827 7.914805
v -21.72132 2.619943 7.914805
v -21.72477 2.623396 7.914805
v -21.68679 2.577355 7.291306
v -21.73283 2.623396 7.291306
v -21.69047 2.584722 7.291306
v -21.69254 2.588866 7.291306
v -21.69599 2.588866 7.291306
v -21.69908 2.597291 7.291306
v -21.70603 2.601389 7.291306
v -21.71441 2.60498 7.291306
v -21.71952 2.610827 7.291306
v -21.72132 2.619943 7.291306
v -21.72477 2.623396 7.291306
v -21.68679 2.577355 6.667806
v -21.73283 2.623396 6.667806
v -21.69047 2.584722 6.667806
v -21.69254 2.588866 6.667806
v -21.69599 2.588866 6.667806
v -21.69908 2.597291 6.667806
v -21.70603 2.601389 6.667806
v -21.71441 2.60498 6.667806
v -21.71952 2.610827 6.667806
v -21.72132 2.619943 6.667806
v -21.72477 2.623396 6.667806
v -21.68679 2.534967 6.667806
v -21.62016 2.468337 6.667806
v -21.68679 2.501652 6.667806
v -21.68679 2.501652 6.667806
v -21.68516 2.491357 6.667806
v -21.68042 2.48207 6.667806
v -21.67305 2.474699 6.667806
v -21.66377 2.469967 6.667806
v -21.62016 2.468337 7.291306
v -21.68679 2.534967 7.291306
v -21.66377 2.469967 7.291306
v -21.67305 2.474699 7.291306
v -21.68042 2.48207 7.291306
v -21.68516 2.491357 7.291306
v -21.68679 2.501652 7.291306
v -21.68679 2.501652 7.291306
v -21.68679 2.534967 7.914805
v -21.62016 2.468337 7.914805
v -21.68679 2.501652 7.914805
v -21.68679 2.501652 7.914805
v -21.68516 2.491357 7.914805
v -21.68042 2.48207 7.914805
v -21.67305 2.474699 7.914805
v -21.66377 2.469967 7.914805
v -21.62016 2.468337 8.538304
v -21.68679 2.534967 8.538304
v -21.66377 2.469967 8.538304
v -21.67305 2.474699 8.538304
v -21.68042 2.48207 8.538304
v -21.68516 2.491357 8.538304
v -21.68679 2.501652 8.538304
v -21.68679 2.501652 8.538304
v -21.68679 2.534967 6.044306
v -21.62016 2.468337 6.044306
v -21.68679 2.501652 6.044306
v -21.68679 2.501652 6.044306
v -21.68516 2.491357 6.044306
v -21.68042 2.48207 6.044306
v -21.67305 2.474699 6.044306
v -21.66377 2.469967 6.044306
v -21.68679 2.534967 5.420807
v -21.62016 2.468337 5.420807
v -21.68679 2.501652 5.420807
v -21.68679 2.501652 5.420807
v -21.68516 2.491357 5.420807
v -21.68042 2.48207 5.420807
v -21.67305 2.474699 5.420807
v -21.66377 2.469967 5.420807
v -21.62016 2.468337 9.161804
v -21.68679 2.534967 9.161804
v -21.66377 2.469967 9.161804
v -21.67305 2.474699 9.161804
v -21.68042 2.48207 9.161804
v -21.68516 2.491357 9.161804
v -21.68679 2.501652 9.161804
v -21.68679 2.501652 9.161804
v -21.82995 4.185405 8.741411
v -21.82995 4.725394 8.741411
v -21.61464 4.185405 8.201422
v -21.61464 4.725394 8.201422
v -21.4911 4.218668 8.708228
v -21.4911 4.692131 8.708228
v -21.512 4.218668 8.234604
v -21.512 4.692131 8.234604
v -21.51346 4.725394 8.201422
v -21.51346 4.185405 8.201422
v -21.48963 4.185405 8.741411
v -21.48963 4.725394 8.741411
v -21.52555 4.656205 8.27111
v -21.52555 4.254594 8.27111
v -21.50781 4.254594 8.673059
v -21.50781 4.656205 8.673059
v -21.52713 4.692131 8.235271
v -21.52713 4.218668 8.235271
v -21.50622 4.218668 8.708897
v -21.50622 4.692131 8.708897
v -21.50085 4.625737 8.300572
v -21.50085 4.285062 8.300572
v -21.4858 4.285062 8.641534
v -21.4858 4.625737 8.641534
v -21.82255 4.197143 8.795613
v -21.82255 4.713656 8.795613
v -21.64148 4.713656 8.795613
v -21.64148 4.197143 8.795613
v -21.53636 5.22298 7.593303
v -21.53636 3.764811 7.593303
v -21.53636 3.70474 7.291306
v -21.53636 5.283051 7.291306
v -21.53636 3.764811 6.989309
v -21.53636 5.22298 6.989309
v -21.53636 4.795892 6.562222
v -21.53636 4.493896 6.502151
v -21.53636 4.191899 6.562222
v -21.53636 4.795892 8.020391
v -21.53636 4.493896 8.080462
v -21.53636 4.191899 8.020391
v -21.53636 5.051913 7.849323
v -21.53636 3.935879 7.849323
v -21.53636 3.935879 6.733289
v -21.53636 5.051913 6.733289
v -21.53636 5.22298 7.593303
v -21.53636 3.764811 7.593303
v -21.53636 3.70474 7.291306
v -21.53636 5.283051 7.291306
v -21.53636 3.764811 6.989309
v -21.53636 5.22298 6.989309
v -21.53636 4.795892 6.562222
v -21.53636 4.493896 6.502151
v -21.53636 4.191899 6.562222
v -21.53636 4.795892 8.020391
v -21.53636 4.493896 8.080462
v -21.53636 4.191899 8.020391
v -21.53636 5.051913 7.849323
v -21.53636 3.935879 7.849323
v -21.53636 3.935879 6.733289
v -21.53636 5.051913 6.733289
v -21.83389 4.795892 8.020391
v -21.83389 5.051913 7.849323
v -21.83389 4.493896 8.080462
v -21.83389 4.191899 8.020391
v -21.83389 3.935879 7.849323
v -21.83389 3.935879 6.733289
v -21.83389 4.191899 6.562222
v -21.83389 4.493896 6.502151
v -21.83389 4.795892 6.562222
v -21.83389 5.051913 6.733289
v -21.83389 5.22298 6.989309
v -21.83389 3.764811 6.989309
v -21.83389 5.283051 7.291306
v -21.83389 3.70474 7.291306
v -21.83389 5.22298 7.593303
v -21.83389 3.764811 7.593303
#end vertices

#begin 450 textures vertices 
vt 0.00390625 0.543943 0
vt 0.4071872 0.9666939 0
vt 0.5439429 0.5831235 0
vt 0.5831233 0.04308668 0
vt 0.4539367 0.5765934 0
vt 0.3639307 0.5700633 0
vt 0.2739245 0.5635332 0
vt 0.1839185 0.5570032 0
vt 0.09391229 0.5504731 0
vt 0.1330929 0.01043633 0
vt 0.2230989 0.01696639 0
vt 0.3131049 0.02349646 0
vt 0.4031111 0.03002653 0
vt 0.4931173 0.03655661 0
vt 0.01043633 0.4539369 0
vt 0.0169664 0.3639307 0
vt 0.02349647 0.2739246 0
vt 0.03002655 0.1839185 0
vt 0.03655661 0.09391243 0
vt 0.5765933 0.1330929 0
vt 0.5700632 0.223099 0
vt 0.5635331 0.3131051 0
vt 0.557003 0.4031113 0
vt 0.550473 0.4931173 0
vt 0.1722833 0.1533163 0
vt 0.00390625 0.7486708 0
vt 0.006681048 0.8326693 0
vt 0.04161923 0.9089111 0
vt 0.1025726 0.9662805 0
vt 0.2351632 0.117595 0
vt 0.180925 0.9960938 0
vt 0.3069265 0.1086559 0
vt 0.1109491 0.6359671 0
vt 0.1257822 0.928955 0
vt 0.0773099 0.8830804 0
vt 0.2801029 0.4783738 0
vt 0.3766481 0.1278599 0
vt 0.04943667 0.8223401 0
vt 0.04746651 0.7554845 0
vt 0.07088856 0.6928327 0
vt 0.3518664 0.4694347 0
vt 0.4337134 0.1722835 0
vt 0.3922605 0.6589004 0
vt 0.4261408 0.7359852 0
vt 0.4591697 0.3766483 0
vt 0.3982916 0.8981183 0
vt 0.05150326 0.6809327 0
vt 0.02490503 0.7518905 0
vt 0.02729269 0.8276502 0
vt 0.05880581 0.8964337 0
vt 0.1137608 0.9482339 0
vt 0.1032452 0.6253041 0
vt 0.1843658 0.9751314 0
vt 0.1726939 0.59394 0
vt 0.2599811 0.9730272 0
vt 0.2487122 0.5922631 0
vt 0.3288799 0.9417797 0
vt 0.3195155 0.6194194 0
vt 0.3744868 0.6715146 0
vt 0.405985 0.7405166 0
vt 0.4075208 0.8162803 0
vt 0.3804274 0.8866493 0
vt 0.1865578 0.9621854 0
vt 0.1777671 0.6162637 0
vt 0.2548146 0.950735 0
vt 0.2447715 0.6146834 0
vt 0.315591 0.9232135 0
vt 0.3072446 0.6387261 0
vt 0.3559001 0.6846284 0
vt 0.3836743 0.7454975 0
vt 0.3851161 0.8123063 0
vt 0.3611809 0.8745367 0
vt 0.06943815 0.88874 0
vt 0.1206569 0.9371788 0
vt 0.0400259 0.8245754 0
vt 0.03788122 0.7539421 0
vt 0.06266159 0.6877591 0
vt 0.312445 0.6305165 0
vt 0.3637909 0.6790455 0
vt 0.3931469 0.7433658 0
vt 0.3946404 0.813971 0
vt 0.3693962 0.8796941 0
vt 0.3212203 0.9311132 0
vt 0.2464224 0.6051494 0
vt 0.2569981 0.9601675 0
vt 0.1756212 0.6068206 0
vt 0.1881507 0.9526121 0
vt 0.1166161 0.6438637 0
vt 0.7001493 0.5882784 0
vt 0.7041442 0.2555496 0
vt 0.7735993 0.2409711 0
vt 0.7688767 0.6020866 0
vt 0.8426746 0.2572475 0
vt 0.8370023 0.5882515 0
vt 0.9361428 0.4939501 0
vt 0.9522362 0.4249041 0
vt 0.9379742 0.3556065 0
vt 0.6019175 0.4898517 0
vt 0.5905777 0.4195965 0
vt 0.6062452 0.3511912 0
vt 0.6416691 0.5489312 0
vt 0.6464759 0.2946333 0
vt 0.8992787 0.297831 0
vt 0.8958195 0.5512944 0
vt 0.09796327 0.8682549 0
vt 0.1395973 0.9069095 0
vt 0.07537842 0.8162012 0
vt 0.07257078 0.7595109 0
vt 0.09302564 0.7064279 0
vt 0.2936607 0.6602148 0
vt 0.3347208 0.6997171 0
vt 0.3575535 0.751403 0
vt 0.3594932 0.8077936 0
vt 0.3396968 0.8609871 0
vt 0.3004442 0.9020164 0
vt 0.2402893 0.6403099 0
vt 0.2488172 0.9246737 0
vt 0.1837526 0.6423368 0
vt 0.1925291 0.9268743 0
vt 0.1318949 0.6650486 0
vt 0.7181853 0.5437862 0
vt 0.7224964 0.2998591 0
vt 0.7729523 0.2907459 0
vt 0.7687163 0.5542717 0
vt 0.8231531 0.3010385 0
vt 0.8196692 0.5450381 0
vt 0.8921629 0.4742919 0
vt 0.9024644 0.4241783 0
vt 0.8935914 0.3737458 0
vt 0.6482455 0.4715418 0
vt 0.6386677 0.4212071 0
vt 0.649837 0.3708145 0
vt 0.6756394 0.5148078 0
vt 0.6790057 0.327926 0
vt 0.8658278 0.3301721 0
vt 0.8629027 0.5166126 0
vt 0.6414378 0.4742382 0
vt 0.6703143 0.5199414 0
vt 0.6312779 0.4211299 0
vt 0.6430847 0.367926 0
vt 0.673859 0.3226182 0
vt 0.8711405 0.3250258 0
vt 0.9004761 0.3711038 0
vt 0.9097801 0.4242882 0
vt 0.898983 0.4771668 0
vt 0.8680591 0.5218445 0
vt 0.8224233 0.5519051 0
vt 0.8260123 0.2942385 0
vt 0.7686137 0.5616138 0
vt 0.7730489 0.2834296 0
vt 0.7152924 0.5505619 0
vt 0.7198258 0.2929808 0
vt 0.7266653 0.524113 0
vt 0.7304057 0.3197937 0
vt 0.7726635 0.3122901 0
vt 0.7689926 0.5326739 0
vt 0.8146787 0.3207319 0
vt 0.8116293 0.5251367 0
vt 0.8725865 0.4659632 0
vt 0.8809342 0.4238506 0
vt 0.873806 0.3814548 0
vt 0.6679265 0.4637558 0
vt 0.6603118 0.4214754 0
vt 0.6693014 0.379186 0
vt 0.6910729 0.4999148 0
vt 0.6939759 0.3432785 0
vt 0.8503873 0.3450645 0
vt 0.8478932 0.5013935 0
vt 0.8835728 0.9012259 0
vt 0.9738063 0.9025078 0
vt 0.4324048 0.8948165 0
vt 0.5226385 0.8960983 0
vt 0.612872 0.8973802 0
vt 0.7031055 0.8986621 0
vt 0.7933391 0.899944 0
vt 0.6926648 0.9320154 0
vt 0.5029488 0.9278308 0
vt 0.4323046 0.9018691 0
vt 0.787523 0.9341063 0
vt 0.5978068 0.929923 0
vt 0.8834726 0.9082786 0
vt 0.9772392 0.9382923 0
vt 0.8815198 0.9752494 0
vt 0.881763 0.9642226 0
vt 0.8815468 0.9740234 0
vt 0.8815632 0.9732805 0
vt 0.8815944 0.971867 0
vt 0.8816204 0.9706856 0
vt 0.881651 0.9692987 0
vt 0.8816781 0.9680709 0
vt 0.8817082 0.9667059 0
vt 0.8817198 0.9661804 0
vt 0.8817353 0.9654756 0
vt 0.9763779 0.9773406 0
vt 0.976621 0.9663138 0
vt 0.9764049 0.9761147 0
vt 0.9764213 0.9753717 0
vt 0.9764525 0.9739582 0
vt 0.9764785 0.9727768 0
vt 0.9765091 0.9713899 0
vt 0.9765362 0.9701621 0
vt 0.9765663 0.9687971 0
vt 0.9765778 0.9682716 0
vt 0.9765934 0.9675668 0
vt 0.4074725 0.9537577 0
vt 0.4072293 0.9647845 0
vt 0.4074449 0.9550108 0
vt 0.4074294 0.9557156 0
vt 0.4074178 0.9562411 0
vt 0.4073876 0.9576061 0
vt 0.4073606 0.9588338 0
vt 0.40733 0.9602207 0
vt 0.4073039 0.9614021 0
vt 0.4072727 0.9628157 0
vt 0.4072563 0.9635586 0
vt 0.5023307 0.9558505 0
vt 0.5020874 0.9668773 0
vt 0.5023031 0.9571035 0
vt 0.5022875 0.9578083 0
vt 0.5022759 0.9583338 0
vt 0.5022458 0.9596988 0
vt 0.5022187 0.9609265 0
vt 0.5021881 0.9623135 0
vt 0.5021621 0.9634948 0
vt 0.5021309 0.9649084 0
vt 0.5021145 0.9656513 0
vt 0.5971887 0.9579432 0
vt 0.5969454 0.96897 0
vt 0.5971611 0.9591963 0
vt 0.5971455 0.9599011 0
vt 0.5971339 0.9604266 0
vt 0.5971038 0.9617916 0
vt 0.5970767 0.9630193 0
vt 0.5970461 0.9644062 0
vt 0.5970201 0.9655876 0
vt 0.5969889 0.9670012 0
vt 0.5969725 0.9677441 0
vt 0.6920467 0.9600358 0
vt 0.6918034 0.9710626 0
vt 0.6920191 0.9612889 0
vt 0.6920035 0.9619937 0
vt 0.6919919 0.9625192 0
vt 0.6919618 0.9638841 0
vt 0.6919347 0.9651119 0
vt 0.6919041 0.9664988 0
vt 0.6918781 0.9676802 0
vt 0.6918469 0.9690937 0
vt 0.6918305 0.9698367 0
vt 0.7869049 0.9621295 0
vt 0.7866615 0.9731563 0
vt 0.7868772 0.9633825 0
vt 0.7868617 0.9640873 0
vt 0.7868501 0.9646128 0
vt 0.7868199 0.9659778 0
vt 0.7867928 0.9672056 0
vt 0.7867622 0.9685925 0
vt 0.7867362 0.9697739 0
vt 0.786705 0.9711874 0
vt 0.7866886 0.9719303 0
vt 0.7870472 0.9556806 0
vt 0.7874454 0.9376259 0
vt 0.7871578 0.9506118 0
vt 0.7871574 0.9506098 0
vt 0.7871941 0.9490228 0
vt 0.787229 0.947437 0
vt 0.787264 0.945851 0
vt 0.787299 0.9442653 0
vt 0.6925872 0.9355349 0
vt 0.692189 0.953587 0
vt 0.6924408 0.9421743 0
vt 0.6924058 0.9437601 0
vt 0.6923708 0.9453461 0
vt 0.6923359 0.9469318 0
vt 0.6923011 0.9485164 0
vt 0.6923009 0.9485185 0
vt 0.597331 0.9514944 0
vt 0.5977292 0.9334426 0
vt 0.5974443 0.9464259 0
vt 0.5974443 0.9464239 0
vt 0.5974778 0.9448395 0
vt 0.5975128 0.9432537 0
vt 0.5975477 0.9416677 0
vt 0.5975827 0.940082 0
vt 0.5028712 0.9313503 0
vt 0.502473 0.9494016 0
vt 0.5027247 0.9379897 0
vt 0.5026897 0.9395755 0
vt 0.5026548 0.9411615 0
vt 0.5026198 0.9427472 0
vt 0.5025865 0.944332 0
vt 0.5025848 0.9443331 0
vt 0.8819052 0.9577737 0
vt 0.8823036 0.9397179 0
vt 0.8820181 0.9527036 0
vt 0.8820159 0.9527012 0
vt 0.8820521 0.9511148 0
vt 0.8820871 0.949529 0
vt 0.8821221 0.947943 0
vt 0.8821571 0.9463572 0
vt 0.9767632 0.9598649 0
vt 0.9771615 0.9418118 0
vt 0.9768749 0.9547964 0
vt 0.9768733 0.9547952 0
vt 0.97691 0.9532087 0
vt 0.976945 0.951623 0
vt 0.97698 0.950037 0
vt 0.977015 0.9484512 0
vt 0.408013 0.9292579 0
vt 0.4076148 0.9473089 0
vt 0.4078666 0.9358973 0
vt 0.4078316 0.937483 0
vt 0.4077966 0.939069 0
vt 0.4077616 0.9406548 0
vt 0.4077276 0.942241 0
vt 0.407726 0.9422421 0
vt 0.7297197 0.07378715 0
vt 0.8670745 0.2441648 0
vt 0.8492712 0.02839461 0
vt 0.909945 0.130398 0
vt 0.7896112 0.1070253 0
vt 0.8142017 0.1923702 0
vt 0.8458435 0.05545698 0
vt 0.8826994 0.1272336 0
vt 0.890919 0.128191 0
vt 0.8473545 0.04642371 0
vt 0.7825854 0.1043808 0
vt 0.8148971 0.2014735 0
vt 0.5461861 0.763691 0
vt 0.5810732 0.6398574 0
vt 0.4901115 0.6886275 0
vt 0.5099051 0.6978796 0
vt 0.8800364 0.1268324 0
vt 0.8453073 0.05811702 0
vt 0.7921534 0.1080522 0
vt 0.811684 0.190285 0
vt 0.548852 0.7547159 0
vt 0.6029215 0.7248322 0
vt 0.5730187 0.670504 0
vt 0.5188768 0.700547 0
vt 0.7240538 0.09077082 0
vt 0.7309854 0.201512 0
vt 0.7669966 0.2010154 0
vt 0.7558141 0.1004347 0
vt 0.8478645 0.8820438 0
vt 0.7357892 0.6493171 0
vt 0.7793714 0.6165181 0
vt 0.9006809 0.8684197 0
vt 0.8321878 0.602894 0
vt 0.9442631 0.8356207 0
vt 0.9796009 0.7346305 0
vt 0.9659769 0.6818143 0
vt 0.9331779 0.638232 0
vt 0.7468743 0.8467058 0
vt 0.7140753 0.8031237 0
vt 0.7004512 0.7503073 0
vt 0.7938549 0.874419 0
vt 0.7080762 0.6962977 0
vt 0.8861975 0.610519 0
vt 0.9719762 0.7886403 0
vt 0.2168032 0.4037734 0
vt 0.2581027 0.1255549 0
vt 0.3168677 0.1236722 0
vt 0.2725666 0.4218892 0
vt 0.3713267 0.1441415 0
vt 0.3325076 0.4222499 0
vt 0.4232156 0.3493105 0
vt 0.4462787 0.2944799 0
vt 0.4405347 0.2351559 0
vt 0.1443161 0.3113034 0
vt 0.1446826 0.2511854 0
vt 0.1617429 0.1933618 0
vt 0.1720051 0.3648932 0
vt 0.2038801 0.1500278 0
vt 0.4131266 0.1838106 0
vt 0.3855019 0.3942755 0
vt 0.1864515 0.3000493 0
vt 0.2046843 0.3393853 0
vt 0.1836131 0.2570097 0
vt 0.1988245 0.2163531 0
vt 0.2276465 0.1841885 0
vt 0.3823459 0.2072853 0
vt 0.4008638 0.2461684 0
vt 0.4029845 0.2890897 0
vt 0.3894289 0.3297046 0
vt 0.3603145 0.3617682 0
vt 0.3212733 0.3801297 0
vt 0.3498198 0.1788629 0
vt 0.2778755 0.3833333 0
vt 0.3093686 0.1641701 0
vt 0.2370305 0.3684192 0
vt 0.2665192 0.1659073 0
vt 0.3292312 0.8544057 0
vt 0.1034664 0.7129765 0
vt 0.2933628 0.8919111 0
vt 0.08479102 0.7614713 0
vt 0.2460636 0.9126646 0
vt 0.1390285 0.6751389 0
vt 0.108028 0.8610582 0
vt 0.08734554 0.8133757 0
vt 0.1460519 0.8964035 0
vt 0.1944941 0.9146775 0
vt 0.1865049 0.6543447 0
vt 0.2382922 0.6524824 0
vt 0.2870656 0.6706844 0
vt 0.3246171 0.7067876 0
vt 0.3455321 0.7541263 0
vt 0.3473256 0.8057744 0
vt 0.1278599 0.2103816 0
vt 0.1086559 0.2801031 0
vt 0.117595 0.3518665 0
vt 0.1678498 0.5732977 0
vt 0.09121001 0.6085114 0
vt 0.2525148 0.570779 0
vt 0.0329322 0.6694967 0
vt 0.4694346 0.2351633 0
vt 0.4783737 0.3069266 0
vt 0.3306176 0.6019656 0
vt 0.2103814 0.4591698 0
vt 0.1533162 0.4147464 0
vt 0.2649059 0.9936505 0
vt 0.3409281 0.9585657 0
vt 0.4290013 0.8200926 0
vt 0.4147463 0.4337135 0
vt 0.6297549 0.7306542 0
vt 0.5387932 0.7794243 0
vt 0.5755927 0.6615651 0
vt 0.6119866 0.7274619 0
vt 0.8083764 0.191092 0
vt 0.8024173 0.1984557 0
vt 0.831231 0.2289765 0
vt 0.8589568 0.2516854 0
vt 0.5350378 0.7918949 0
vt 0.811684 0.190285 0
vt 0.6422201 0.734428 0
vt 0.4776465 0.6848536 0
vt 0.5848288 0.6273867 0
vt 0.8814777 0.9771587 0
vt 0.6917613 0.9729719 0
vt 0.9763358 0.9792499 0
vt 0.04308669 0.00390625 0
vt 0.5020453 0.9687866 0
vt 0.5969033 0.9708794 0
vt 0.7866194 0.9750656 0
vt 0.9737061 0.9095605 0
vt 0.8823812 0.9361983 0
vt 0.7932389 0.9069967 0
vt 0.7030053 0.9057148 0
vt 0.6127718 0.9044329 0
vt 0.5225383 0.903151 0
vt 0.4080907 0.9257383 0
#end 450 textures vertices 

#begin 134 normals 
vn 1 -0 -0
vn -0 -0.3827 -0.9239
vn -0 -0 -1
vn -0 -0.7071 0.7071
vn -0 -0.9239 0.3827
vn -0 -0.9239 -0.3827
vn -0 -0.7071 -0.7071
vn -0 1 -0
vn -0 0.9239 0.3827
vn -0 -1 -0
vn -0 0.7071 0.7071
vn -0 0.3827 0.9239
vn -0 -0 1
vn -0 0.7071 -0.7071
vn -0 0.9239 -0.3827
vn -0 -0.3827 0.9239
vn -0 0.3827 -0.9239
vn 0.6166 0.3013 -0.7273
vn 0.6166 0.5567 -0.5567
vn 0.6166 -0 -0.7872
vn 0.6166 0.5567 0.5567
vn 0.6166 0.3013 0.7273
vn 0.6166 0.7273 -0.3013
vn 0.6166 0.7873 -0
vn 0.6166 -0.3013 -0.7273
vn 0.6166 -0 0.7872
vn 0.6166 -0.5567 0.5567
vn 0.6166 -0.7273 0.3013
vn 0.6166 -0.7273 -0.3013
vn 0.6166 -0.5567 -0.5567
vn 0.6166 -0.3013 0.7273
vn 0.6166 0.7273 0.3013
vn 0.6166 -0.7873 -0
vn 0.2971 -0.8822 -0.3654
vn 0.2971 -0.6752 -0.6752
vn 0.2971 -0 0.9548
vn 0.2971 -0.3654 0.8822
vn 0.2971 0.8822 -0.3654
vn 0.2971 0.9548 -0
vn 0.2971 0.3654 0.8822
vn 0.2971 -0.9548 -0
vn 0.2971 0.6752 0.6752
vn 0.2971 0.8822 0.3654
vn 0.2971 0.3654 -0.8822
vn 0.2971 0.6752 -0.6752
vn 0.2971 -0.8822 0.3654
vn 0.2971 -0 -0.9548
vn 0.2971 -0.3654 -0.8822
vn 0.2971 -0.6752 0.6752
vn 0.2893 -0 0.9572
vn 0.2893 -0.3663 0.8844
vn 0.2893 -0.8844 -0.3663
vn 0.2893 -0.6769 -0.6769
vn 0.2893 0.3663 0.8844
vn 0.2893 0.6769 -0.6769
vn 0.2893 0.8844 -0.3663
vn 0.2893 -0.6769 0.6769
vn 0.2893 -0.8844 0.3663
vn 0.2893 0.6769 0.6769
vn 0.2893 0.3663 -0.8844
vn 0.2893 0.8844 0.3663
vn 0.2893 -0 -0.9572
vn 0.2893 -0.9573 -0
vn 0.2893 -0.3663 -0.8844
vn 0.2893 0.9572 -0
vn 0.7493 -0.6623 -0
vn 0.7493 -0.6119 -0.2534
vn 0.7493 0.4683 0.4683
vn 0.7493 0.2534 0.6119
vn 0.7493 0.6623 -0
vn 0.7493 0.6119 0.2534
vn 0.7493 0.2534 -0.6119
vn 0.7493 0.4683 -0.4683
vn 0.7493 -0.6119 0.2534
vn 0.7493 -0 -0.6623
vn 0.7493 -0.2534 -0.6119
vn 0.7493 -0.4683 0.4683
vn 0.7493 0.6119 -0.2534
vn 0.7493 -0.4683 -0.4683
vn 0.7493 -0.2534 0.6119
vn 0.7493 -0 0.6623
vn 0.0187 0.9998 -0
vn 0.9732 0.2298 -0
vn 0.8944 0.4473 -0
vn 0.8944 0.4474 -0
vn 0.9391 0.3438 -0
vn 0.5078 0.8615 -0
vn 0.4518 0.8921 -0
vn 0.5881 0.8088 -0
vn 0.753 0.658 -0
vn 0.9811 0.1933 -0
vn 0.7071 0.7071 -0
vn 0.2516 0.9678 -0
vn 0.5878 0.809 -0
vn 0.809 0.5878 -0
vn 0.9511 0.309 -0
vn 0.9877 0.1564 -0
vn -0 -0 -1
vn -0 -1 -0
vn -0 -0.9996 0.0278
vn -0 -0.9925 0.1224
vn -0 1 -0
vn -0 0.9925 0.1224
vn -0 0.9996 0.0278
vn 0.999 -0 -0.0441
vn 0.7927 0.6086 -0.035
vn 0.0441 -0 0.999
vn -0.0441 -0 -0.999
vn 0.7664 -0 -0.6424
vn 0.82 -0 0.5723
vn 0.7927 -0.6086 -0.035
vn 0.1761 -0 0.9844
vn -0 -0 1
vn -0 -0.9773 0.2117
vn -0 0.9773 0.2117
vn 0.3362 -0 0.9418
vn 1 -0 -0
vn 1 -0 -0
vn -0 -0.7071 0.7071
vn -0 -0.9239 0.3827
vn -0 -0.3827 -0.9239
vn -0 -0 -1
vn -0 0.9239 0.3827
vn -0 0.7071 0.7071
vn -0 0.3827 -0.9239
vn -0 -1 -0
vn -0 0.7071 -0.7071
vn -0 1 -0
vn -0 0.3827 0.9239
vn -0 -0.9239 -0.3827
vn -0 -0 1
vn -0 0.9239 -0.3827
vn -0 -0.3827 0.9239
vn -0 -0.7071 -0.7071
#end 134 normals 

#begin 328 faces
o Plane:050
s 1
f 42/42/1 14/14/1 4/4/1 20/20/1 
f 19/19/1 2/440/1 10/10/1 25/25/1 
f 25/25/1 10/10/1 11/11/1 30/30/1 
f 30/30/1 11/11/1 12/12/1 32/32/1 
f 32/32/1 12/12/1 13/13/1 37/37/1 
f 37/37/1 13/13/1 14/14/1 42/42/1 
f 6/6/1 41/41/1 46/423/1 5/5/1 
f 43/43/2 44/44/3 60/60/3 59/59/2 
f 25/414/4 30/412/5 52/52/5 47/47/4 
f 37/413/6 42/417/7 58/58/7 56/56/6 
f 42/417/7 43/43/2 59/59/2 58/58/7 
f 7/7/1 36/36/1 41/41/1 6/6/1 
f 36/420/8 31/31/9 53/53/9 55/55/8 
f 32/411/10 37/413/6 56/56/6 54/54/10 
f 29/29/11 28/28/12 50/50/12 51/51/11 
f 28/28/12 27/27/13 49/49/13 50/50/12 
f 8/8/1 31/418/1 36/36/1 7/7/1 
f 31/31/9 29/29/11 51/51/11 53/53/9 
f 46/46/14 41/421/15 57/57/15 62/62/14 
f 27/27/13 26/26/16 48/48/16 49/49/13 
f 30/412/5 32/411/10 54/54/10 52/52/5 
f 9/9/1 29/419/1 31/418/1 8/8/1 
f 45/422/17 46/46/14 62/62/14 61/61/17 
f 26/26/16 25/414/4 47/47/4 48/48/16 
f 44/44/3 45/422/17 61/61/17 60/60/3 
f 41/421/15 36/420/8 55/55/8 57/57/15 
f 1/1/1 15/15/1 29/419/1 9/9/1 
f 15/15/1 16/16/1 28/410/1 29/419/1 
f 16/16/1 17/17/1 27/409/1 28/410/1 
f 17/17/1 18/18/1 26/408/1 27/409/1 
f 18/18/1 19/19/1 25/25/1 26/408/1 
f 5/5/1 46/423/1 24/24/1 3/3/1 
f 46/423/1 45/45/1 23/23/1 24/24/1 
f 45/45/1 44/416/1 22/22/1 23/23/1 
f 44/416/1 43/415/1 21/21/1 22/22/1 
f 43/415/1 42/42/1 20/20/1 21/21/1 
f 61/61/18 62/62/19 82/82/19 81/81/18 
f 60/60/20 61/61/18 81/81/18 80/80/20 
f 51/51/21 50/50/22 73/73/22 74/74/21 
f 57/57/23 55/55/24 85/85/24 83/83/23 
f 59/59/25 60/60/20 80/80/20 79/79/25 
f 50/50/22 49/49/26 75/75/26 73/73/22 
f 47/47/27 52/52/28 33/33/28 77/77/27 
f 56/56/29 58/58/30 78/78/30 84/84/29 
f 58/58/30 59/59/25 79/79/25 78/78/30 
f 49/49/26 48/48/31 76/76/31 75/75/26 
f 55/55/24 53/53/32 63/63/32 85/85/24 
f 48/48/31 47/47/27 77/77/27 76/76/31 
f 54/54/33 56/56/29 84/84/29 86/86/33 
f 53/53/32 51/51/21 74/74/21 63/63/32 
f 62/62/19 57/57/23 83/83/23 82/82/19 
f 52/52/28 54/54/33 86/86/33 33/33/28 
f 87/87/34 34/34/35 106/106/35 119/119/34 
f 70/70/36 71/71/37 113/113/37 112/112/36 
f 88/88/38 64/64/39 118/118/39 120/120/38 
f 69/69/40 70/70/36 112/112/36 111/111/40 
f 65/65/41 87/87/34 119/119/34 117/117/41 
f 68/68/42 69/69/40 111/111/40 110/110/42 
f 64/64/39 66/66/43 116/116/43 118/118/39 
f 39/39/44 40/40/45 109/109/45 108/108/44 
f 67/67/46 65/65/41 117/117/41 115/115/46 
f 38/38/47 39/39/44 108/108/44 107/107/47 
f 66/66/43 68/68/42 110/110/42 116/116/43 
f 35/35/48 38/38/47 107/107/47 105/105/48 
f 72/72/49 67/67/46 115/115/46 114/114/49 
f 40/40/45 88/88/38 120/120/38 109/109/45 
f 34/34/35 35/35/48 105/105/48 106/106/35 
f 71/71/37 72/72/49 114/114/49 113/113/37 
f 35/35/1 34/34/1 74/74/1 73/73/1 
f 38/38/1 35/35/1 73/73/1 75/75/1 
f 39/39/1 38/38/1 75/75/1 76/76/1 
f 40/40/1 39/39/1 76/76/1 77/77/1 
f 69/69/1 68/68/1 78/78/1 79/79/1 
f 70/70/1 69/69/1 79/79/1 80/80/1 
f 71/71/1 70/70/1 80/80/1 81/81/1 
f 72/72/1 71/71/1 81/81/1 82/82/1 
f 67/67/1 72/72/1 82/82/1 83/83/1 
f 68/68/1 66/66/1 84/84/1 78/78/1 
f 65/65/1 67/67/1 83/83/1 85/85/1 
f 66/66/1 64/64/1 86/86/1 84/84/1 
f 87/87/1 65/65/1 85/85/1 63/63/1 
f 64/64/1 88/88/1 33/33/1 86/86/1 
f 34/34/1 87/87/1 63/63/1 74/74/1 
f 88/88/1 40/40/1 77/77/1 33/33/1 
f 99/99/50 100/100/51 140/140/51 139/139/50 
f 93/93/52 103/103/53 142/142/53 148/148/52 
f 98/98/54 99/99/50 139/139/50 137/137/54 
f 104/104/55 94/94/56 147/147/56 146/146/55 
f 102/102/57 90/90/58 152/152/58 141/141/57 
f 101/101/59 98/98/54 137/137/54 138/138/59 
f 95/95/60 104/104/55 146/146/55 145/145/60 
f 89/89/61 101/101/59 138/138/59 151/151/61 
f 96/96/62 95/95/60 145/145/60 144/144/62 
f 90/90/58 91/91/63 150/150/63 152/152/58 
f 97/97/64 96/96/62 144/144/62 143/143/64 
f 92/92/65 89/89/61 151/151/61 149/149/65 
f 103/103/53 97/97/64 143/143/64 142/142/53 
f 91/91/63 93/93/52 148/148/52 150/150/63 
f 100/100/51 102/102/57 141/141/57 140/140/51 
f 94/94/56 92/92/65 149/149/65 147/147/56 
f 98/398/1 101/400/1 106/106/1 105/105/1 
f 99/399/1 98/398/1 105/105/1 107/107/1 
f 100/395/1 99/399/1 107/107/1 108/108/1 
f 102/393/1 100/395/1 108/108/1 109/109/1 
f 97/405/1 103/404/1 110/110/1 111/111/1 
f 96/406/1 97/405/1 111/111/1 112/112/1 
f 95/407/1 96/406/1 112/112/1 113/113/1 
f 104/392/1 95/407/1 113/113/1 114/114/1 
f 94/394/1 104/392/1 114/114/1 115/115/1 
f 103/404/1 93/403/1 116/116/1 110/110/1 
f 92/396/1 94/394/1 115/115/1 117/117/1 
f 93/403/1 91/402/1 118/118/1 116/116/1 
f 89/401/1 92/396/1 117/117/1 119/119/1 
f 91/402/1 90/397/1 120/120/1 118/118/1 
f 101/400/1 89/401/1 119/119/1 106/106/1 
f 90/397/1 102/393/1 109/109/1 120/120/1 
f 124/124/66 121/121/67 153/153/67 156/156/66 
f 135/135/68 129/129/69 161/161/69 167/167/68 
f 123/123/70 125/125/71 157/157/71 155/155/70 
f 132/132/72 134/134/73 166/166/73 164/164/72 
f 126/126/74 124/124/66 156/156/66 158/158/74 
f 131/131/75 132/132/72 164/164/72 163/163/75 
f 125/125/71 135/135/68 167/167/68 157/157/71 
f 130/130/76 131/131/75 163/163/75 162/162/76 
f 136/136/77 126/126/74 158/158/74 168/168/77 
f 134/134/73 122/122/78 154/154/78 166/166/73 
f 133/133/79 130/130/76 162/162/76 165/165/79 
f 127/127/80 136/136/77 168/168/77 159/159/80 
f 121/121/67 133/133/79 165/165/79 153/153/67 
f 128/128/81 127/127/80 159/159/80 160/160/81 
f 122/122/78 123/123/70 155/155/70 154/154/78 
f 129/129/69 128/128/81 160/160/81 161/161/69 
f 130/130/1 133/133/1 138/138/1 137/137/1 
f 131/131/1 130/130/1 137/137/1 139/139/1 
f 132/132/1 131/131/1 139/139/1 140/140/1 
f 134/134/1 132/132/1 140/140/1 141/141/1 
f 129/129/1 135/135/1 142/142/1 143/143/1 
f 128/128/1 129/129/1 143/143/1 144/144/1 
f 127/127/1 128/128/1 144/144/1 145/145/1 
f 136/136/1 127/127/1 145/145/1 146/146/1 
f 126/126/1 136/136/1 146/146/1 147/147/1 
f 135/135/1 125/125/1 148/148/1 142/142/1 
f 124/124/1 126/126/1 147/147/1 149/149/1 
f 125/125/1 123/123/1 150/150/1 148/148/1 
f 121/121/1 124/124/1 149/149/1 151/151/1 
f 123/123/1 122/122/1 152/152/1 150/150/1 
f 133/133/1 121/121/1 151/151/1 138/138/1 
f 122/122/1 134/134/1 141/141/1 152/152/1 
f 4/439/8 14/437/8 183/183/8 194/194/8 
f 268/268/82 277/277/82 180/180/8 176/176/8 
f 277/277/82 284/284/82 177/177/8 180/180/8 
f 195/195/83 184/184/83 292/292/1 300/300/1 
f 249/249/83 238/238/83 269/269/1 260/260/1 
f 261/261/82 268/268/82 176/176/8 179/179/8 
f 12/438/8 11/442/8 228/228/8 239/239/8 
f 284/284/82 308/308/82 178/450/8 177/177/8 
f 10/441/8 2/2/8 206/206/8 217/217/8 
f 13/443/8 12/438/8 239/239/8 250/250/8 
f 14/437/8 13/443/8 250/250/8 183/183/8 
f 11/442/8 10/441/8 217/217/8 228/228/8 
f 216/216/83 205/205/83 309/309/1 285/285/1 
f 179/446/1 176/447/1 174/174/1 175/175/1 
f 180/448/1 177/449/1 172/172/1 173/173/1 
f 181/181/1 179/446/1 175/175/1 169/169/1 
f 182/444/1 181/181/1 169/169/1 170/170/1 
f 176/447/1 180/448/1 173/173/1 174/174/1 
f 177/449/1 178/178/1 171/171/1 172/172/1 
f 238/238/83 227/227/83 276/276/1 269/269/1 
f 184/184/83 249/249/83 260/260/1 292/292/1 
f 227/227/83 216/216/83 285/285/1 276/276/1 
f 184/184/83 195/195/83 204/204/84 193/193/84 
f 193/193/84 204/204/84 203/203/85 192/192/85 
f 192/192/8 203/203/8 202/202/8 191/191/8 
f 191/191/86 202/202/86 201/201/86 190/190/86 
f 190/190/87 201/201/87 200/200/88 189/189/88 
f 189/189/88 200/200/88 199/199/89 188/188/89 
f 188/188/89 199/199/89 198/198/90 187/187/90 
f 187/187/91 198/198/91 197/197/91 186/186/91 
f 186/186/92 197/197/92 196/196/92 185/185/92 
f 185/185/8 196/196/8 194/194/8 183/183/8 
f 205/205/83 216/216/83 218/218/84 207/207/84 
f 207/207/84 218/218/84 219/219/85 208/208/85 
f 208/208/8 219/219/8 220/220/8 209/209/8 
f 209/209/86 220/220/86 221/221/86 210/210/86 
f 210/210/87 221/221/87 222/222/88 211/211/88 
f 211/211/88 222/222/88 223/223/89 212/212/89 
f 212/212/89 223/223/89 224/224/90 213/213/90 
f 213/213/91 224/224/91 225/225/91 214/214/91 
f 214/214/92 225/225/92 226/226/92 215/215/92 
f 215/215/8 226/226/8 217/217/8 206/206/8 
f 216/216/83 227/227/83 229/229/84 218/218/84 
f 218/218/84 229/229/84 230/230/85 219/219/85 
f 219/219/8 230/230/8 231/231/8 220/220/8 
f 220/220/86 231/231/86 232/232/86 221/221/86 
f 221/221/87 232/232/87 233/233/88 222/222/88 
f 222/222/88 233/233/88 234/234/89 223/223/89 
f 223/223/89 234/234/89 235/235/90 224/224/90 
f 224/224/91 235/235/91 236/236/91 225/225/91 
f 225/225/92 236/236/92 237/237/92 226/226/92 
f 226/226/8 237/237/8 228/228/8 217/217/8 
f 227/227/83 238/238/83 240/240/84 229/229/84 
f 229/229/84 240/240/84 241/241/85 230/230/85 
f 230/230/8 241/241/8 242/242/8 231/231/8 
f 231/231/86 242/242/86 243/243/86 232/232/86 
f 232/232/87 243/243/87 244/244/88 233/233/88 
f 233/233/88 244/244/88 245/245/89 234/234/89 
f 234/234/89 245/245/89 246/246/90 235/235/90 
f 235/235/91 246/246/91 247/247/91 236/236/91 
f 236/236/92 247/247/92 248/248/92 237/237/92 
f 237/237/8 248/248/8 239/239/8 228/228/8 
f 238/238/83 249/249/83 251/251/84 240/240/84 
f 240/240/84 251/251/84 252/252/85 241/241/85 
f 241/241/8 252/252/8 253/253/8 242/242/8 
f 242/242/86 253/253/86 254/254/86 243/243/86 
f 243/243/87 254/254/87 255/255/88 244/244/88 
f 244/244/88 255/255/88 256/256/89 245/245/89 
f 245/245/89 256/256/89 257/257/90 246/246/90 
f 246/246/91 257/257/91 258/258/91 247/247/91 
f 247/247/92 258/258/92 259/259/92 248/248/92 
f 248/248/8 259/259/8 250/250/8 239/239/8 
f 249/249/83 184/184/83 193/193/84 251/251/84 
f 251/251/84 193/193/84 192/192/85 252/252/85 
f 252/252/8 192/192/8 191/191/8 253/253/8 
f 253/253/86 191/191/86 190/190/86 254/254/86 
f 254/254/87 190/190/87 189/189/88 255/255/88 
f 255/255/88 189/189/88 188/188/89 256/256/89 
f 256/256/89 188/188/89 187/187/90 257/257/90 
f 257/257/91 187/187/91 186/186/91 258/258/91 
f 258/258/92 186/186/92 185/185/92 259/259/92 
f 259/259/8 185/185/8 183/183/8 250/250/8 
f 301/301/82 293/293/82 181/445/8 182/182/8 
f 308/308/82 284/284/82 286/286/93 310/310/93 
f 310/310/93 286/286/93 287/287/94 311/311/94 
f 311/311/94 287/287/94 288/288/95 312/312/95 
f 312/312/95 288/288/95 289/289/96 313/313/96 
f 313/313/96 289/289/96 290/290/97 314/314/97 
f 314/314/8 290/290/8 291/291/8 315/315/8 
f 315/315/1 291/291/1 285/285/1 309/309/1 
f 277/277/82 268/268/82 270/270/93 283/283/93 
f 283/283/93 270/270/93 271/271/94 282/282/94 
f 282/282/94 271/271/94 272/272/95 281/281/95 
f 281/281/95 272/272/95 273/273/96 280/280/96 
f 280/280/96 273/273/96 274/274/97 279/279/97 
f 279/279/8 274/274/8 275/275/8 278/278/8 
f 278/278/1 275/275/1 269/269/1 276/276/1 
f 293/293/82 301/301/82 307/307/93 299/299/93 
f 299/299/93 307/307/93 306/306/94 298/298/94 
f 298/298/94 306/306/94 305/305/95 297/297/95 
f 297/297/95 305/305/95 304/304/96 296/296/96 
f 296/296/96 304/304/96 303/303/97 295/295/97 
f 295/295/8 303/303/8 302/302/8 294/294/8 
f 294/294/1 302/302/1 300/300/1 292/292/1 
f 261/261/82 293/293/82 299/299/93 267/267/93 
f 267/267/93 299/299/93 298/298/94 266/266/94 
f 266/266/94 298/298/94 297/297/95 265/265/95 
f 265/265/95 297/297/95 296/296/96 264/264/96 
f 264/264/96 296/296/96 295/295/97 263/263/97 
f 263/263/8 295/295/8 294/294/8 262/262/8 
f 262/262/1 294/294/1 292/292/1 260/260/1 
f 284/284/82 277/277/82 283/283/93 286/286/93 
f 286/286/93 283/283/93 282/282/94 287/287/94 
f 287/287/94 282/282/94 281/281/95 288/288/95 
f 288/288/95 281/281/95 280/280/96 289/289/96 
f 289/289/96 280/280/96 279/279/97 290/290/97 
f 290/290/8 279/279/8 278/278/8 291/291/8 
f 291/291/1 278/278/1 276/276/1 285/285/1 
f 268/268/82 261/261/82 267/267/93 270/270/93 
f 270/270/93 267/267/93 266/266/94 271/271/94 
f 271/271/94 266/266/94 265/265/95 272/272/95 
f 272/272/95 265/265/95 264/264/96 273/273/96 
f 273/273/96 264/264/96 263/263/97 274/274/97 
f 274/274/8 263/263/8 262/262/8 275/275/8 
f 275/275/1 262/262/1 260/260/1 269/269/1 
f 293/293/82 261/261/82 179/179/8 181/445/8 
o Cube:033
s 1
f 318/318/98 319/319/98 324/324/98 325/325/98 
f 323/323/99 321/321/99 335/433/99 332/332/99 
f 318/318/99 325/325/99 326/326/100 316/316/101 
f 324/324/102 319/319/102 317/317/103 327/327/104 
f 323/323/105 322/322/105 325/325/105 324/324/105 
f 322/322/105 320/320/105 326/326/105 325/325/105 
f 321/321/105 323/323/105 324/324/105 327/327/105 
f 320/320/105 321/428/105 327/429/105 326/326/105 
f 328/328/106 331/331/106 339/339/106 336/336/106 
f 322/322/107 323/323/107 332/332/107 333/333/107 
f 321/428/108 320/320/108 334/334/108 335/335/108 
f 320/320/102 322/322/102 333/333/102 334/334/102 
f 328/424/105 329/329/105 333/436/105 332/434/105 
f 329/329/105 330/330/105 334/435/105 333/436/105 
f 331/425/105 328/424/105 332/434/105 335/432/105 
f 330/330/105 331/425/105 335/432/105 334/435/105 
f 337/337/105 336/336/105 339/339/105 338/338/105 
f 329/427/109 328/328/109 336/336/109 337/337/109 
f 331/331/110 330/426/110 338/338/110 339/339/110 
f 330/426/111 329/427/111 337/337/111 338/338/111 
f 343/343/112 342/342/112 341/341/113 340/340/113 
f 316/316/101 326/326/100 343/343/114 340/340/114 
f 327/327/104 317/317/103 341/431/115 342/430/115 
f 326/326/116 327/429/116 342/342/112 343/343/112 
o Plane:051
s 1
f 349/349/117 351/351/117 350/350/117 359/359/117 
f 347/347/117 352/352/117 351/351/117 349/349/117 
f 344/344/117 358/358/117 352/352/117 347/347/117 
f 356/356/117 348/348/117 358/358/117 344/344/117 
f 353/353/117 346/346/117 348/348/117 356/356/117 
f 354/354/117 345/345/117 346/346/117 353/353/117 
f 355/355/117 357/357/117 345/345/117 354/354/117 
o Plane:052
s 1
f 386/386/118 383/383/118 384/384/118 385/385/118 
f 388/388/118 382/382/118 383/383/118 386/386/118 
f 390/390/118 381/381/118 382/382/118 388/388/118 
f 377/377/118 387/387/118 381/381/118 390/390/118 
f 376/376/118 389/389/118 387/387/118 377/377/118 
f 378/378/118 391/391/118 389/389/118 376/376/118 
f 379/379/118 380/380/118 391/391/118 378/378/118 
f 375/375/119 365/365/120 386/386/120 385/385/119 
f 369/369/121 370/370/122 378/378/122 376/376/121 
f 364/364/123 374/374/124 381/381/124 387/387/123 
f 370/370/122 371/371/125 379/379/125 378/378/122 
f 365/365/120 363/363/126 388/388/126 386/386/120 
f 371/371/125 373/373/127 380/380/127 379/379/125 
f 362/362/128 364/364/123 387/387/123 389/389/128 
f 374/374/124 368/368/129 382/382/129 381/381/124 
f 363/363/126 360/360/130 390/390/130 388/388/126 
f 368/368/129 367/367/131 383/383/131 382/382/129 
f 361/361/132 362/362/128 389/389/128 391/391/132 
f 367/367/131 366/366/133 384/384/133 383/383/131 
f 360/360/130 372/372/134 377/377/134 390/390/130 
f 366/366/133 375/375/119 385/385/119 384/384/133 
f 372/372/134 369/369/121 376/376/121 377/377/134 
f 373/373/127 361/361/132 391/391/132 380/380/127 
#end 328 faces

#ZOMPROPERTIES_04{
#ZOMPROPERTIES_04 table {Mesh table {SymPlane table {Point vector3d 0 0 0 Normal vector3d 1 0 0 Threshold double 0.01 
#ZOMPROPERTIES_04 Enabled bool false EdgeID int -1 SymEdgeID int -1 UPos double 0.5 LocalMode bool false } RootGroup C
#ZOMPROPERTIES_04 SubMeshGroup {Children table {Tile_0_0 CSubMeshGroup {Children table {} BBoxUV box3d 0 0 0 0 0 0 BBo
#ZOMPROPERTIES_04 x3D box3d 0 0 0 0 0 0 Area3D double 0 AreaUV double 0.525557 IsRoot bool false Properties table {Sel
#ZOMPROPERTIES_04 ected bool false Box box3d 0 1 0 1 0 1 U int 0 V int 0 NU int 0 NV int 0 Tiling vector3d 1 1 1 TileR
#ZOMPROPERTIES_04 atioMode string "1:1" Overflow string "Off" Pack table {BoxFrameEdit bool false Behavior string "Fre
#ZOMPROPERTIES_04 e" } } IsTile bool true PolyIDs ints { 161 165 162 166 163 164 286 287 289 288 282 292 293 290 291 2
#ZOMPROPERTIES_04 74 278 283 275 285 284 281 297 295 276 294 279 280 277 296 148 179 178 177 176 175 174 173 172 171 1
#ZOMPROPERTIES_04 70 151 168 152 167 169 160 180 181 182 183 193 194 195 205 206 207 217 218 228 208 209 154 159 156 1
#ZOMPROPERTIES_04 89 199 198 197 187 186 196 185 184 188 157 158 229 219 227 226 216 215 225 214 224 213 223 212 222 2
#ZOMPROPERTIES_04 11 221 210 201 200 191 190 202 203 204 192 237 236 264 265 243 244 271 272 257 258 251 250 249 248 2
#ZOMPROPERTIES_04 47 246 245 230 273 153 149 150 155 231 232 260 239 267 253 266 268 254 269 255 241 240 262 261 233 2
#ZOMPROPERTIES_04 34 235 263 242 270 238 259 252 256 220 298 299 300 301 302 303 304 84 86 89 132 126 128 146 144 142 
#ZOMPROPERTIES_04 99 95 87 90 92 94 137 138 129 127 139 124 120 116 140 131 117 136 141 85 96 97 93 88 98 135 119 125 
#ZOMPROPERTIES_04 130 145 118 122 121 123 147 134 143 91 133 305 312 316 320 307 319 321 306 323 325 314 318 322 327 3
#ZOMPROPERTIES_04 17 315 313 326 309 324 308 310 311 7 24 37 36 75 74 73 55 105 104 109 62 57 72 44 43 9 10 13 48 51 2
#ZOMPROPERTIES_04 0 8 23 47 45 70 69 41 15 19 14 38 49 17 12 46 39 78 60 64 108 110 112 114 52 66 100 101 63 61 102 10
#ZOMPROPERTIES_04 3 115 65 54 81 83 71 113 111 58 59 68 82 80 56 107 67 106 76 50 18 25 22 42 79 77 40 53 0 5 4 3 2 1 
#ZOMPROPERTIES_04 30 29 28 27 26 21 16 11 6 31 32 33 34 35 } } } BBoxUV box3d 0 0 0 0 0 0 BBox3D box3d 0 0 0 0 0 0 Are
#ZOMPROPERTIES_04 a3D double 0 AreaUV double 0 IsRoot bool true Properties table {Selected bool false Box box3d 0 1 0 
#ZOMPROPERTIES_04 1 0 1 U int 0 V int 0 NU int 1 NV int 1 Tiling vector3d 1 1 1 TileRatioMode string "1:1" Overflow st
#ZOMPROPERTIES_04 ring "Off" Pack table {Rotate table {Mode int 0 Min double 0 Max double 90 Step double 0 } PaddingSi
#ZOMPROPERTIES_04 ze double 0.0078125 MarginSize double 0.00390625 Resolution int 256 MapResolution int 2048 Scaling t
#ZOMPROPERTIES_04 able {TexelDensity double 1024 Mode int 2 } LayoutScalingMode int 2 MaxMutations int 1 } } IsTile bo
#ZOMPROPERTIES_04 ol false PolyIDs ints { } } Maps table {Pin table {PrimType string "Vertex" Size int 1 DefaultValue 
#ZOMPROPERTIES_04 double 0 ScaleType string "Normalized" MergeMode string "Max" MinValue double 0 MaxValue double 1 Da
#ZOMPROPERTIES_04 ta doubles { r 450 0 } } Density table {PrimType string "Polygon" Size int 1 DefaultValue double 1 S
#ZOMPROPERTIES_04 caleType string "Log" MergeMode string "Average" MinValue double 0.1 MaxValue double 4 Data doubles 
#ZOMPROPERTIES_04 { r 328 1 } } Protect table {PrimType string "Vertex" Size int 1 DefaultValue double 0 ScaleType str
#ZOMPROPERTIES_04 ing "Normalized" MergeMode string "Average" MinValue double -1 MaxValue double 1 Data doubles { r 45
#ZOMPROPERTIES_04 0 0 } } } } }
#ZOMPROPERTIES_04}


#ZOMSCENE_01{
#ZOMSCENE_01 CScene {Settings table {AxisSystem table {UpVector string "y" } Unit string "cm" TexelDensityDisplay
#ZOMSCENE_01 Unit string "tx/cm" } Root table {} }
#ZOMSCENE_01}

#begin 0 fatal error vertex (that RizomUV cannot handle)
#end 0 fatal error vertex (that RizomUV cannot handle)

#begin 0 error vertex
#end 0 error vertex
