# Blender 4.2.8 LTS
# www.blender.org
mtllib lavarropas pared.mtl
o Plane.050
v -21.745378 6.364394 9.161804
v -21.745378 2.623396 9.161804
v -21.745378 6.364394 5.420807
v -21.745378 2.623396 5.420807
v -21.745378 6.364394 6.044307
v -21.745378 6.364394 6.667806
v -21.745378 6.364394 7.291306
v -21.745378 6.364394 7.914805
v -21.745378 6.364394 8.538305
v -21.745378 2.623396 8.538304
v -21.745378 2.623396 7.914805
v -21.745378 2.623396 7.291306
v -21.745378 2.623396 6.667806
v -21.745378 2.623396 6.044306
v -21.745378 5.740894 9.161804
v -21.745378 5.117394 9.161804
v -21.745378 4.493895 9.161804
v -21.745378 3.870395 9.161804
v -21.745378 3.246896 9.161804
v -21.745378 3.246896 5.420807
v -21.745378 3.870396 5.420807
v -21.745378 4.493895 5.420807
v -21.745378 5.117395 5.420807
v -21.745378 5.740894 5.420807
v -21.745378 3.588393 8.196808
v -21.745378 4.003841 8.474401
v -21.745378 4.493895 8.571879
v -21.745378 4.983950 8.474401
v -21.745378 5.399398 8.196808
v -21.745378 3.310799 7.781360
v -21.745378 5.676991 7.781360
v -21.745378 3.213321 7.291306
v -21.527000 3.362327 7.760016
v -21.527002 5.312460 8.109871
v -21.527002 4.936900 8.360813
v -21.745378 5.774469 7.291306
v -21.745378 3.310799 6.801251
v -21.527002 4.493895 8.448932
v -21.527000 4.050891 8.360813
v -21.527000 3.675330 8.109871
v -21.745378 5.676991 6.801251
v -21.745378 3.588393 6.385803
v -21.745378 4.003841 6.108210
v -21.745378 4.493895 6.010732
v -21.745378 4.983950 6.108210
v -21.745378 5.399398 6.385803
v -21.598207 3.588393 8.196808
v -21.598207 4.003841 8.474401
v -21.598207 4.493895 8.571879
v -21.598207 4.983950 8.474401
v -21.598207 5.399398 8.196808
v -21.598207 3.310799 7.781360
v -21.598207 5.676991 7.781360
v -21.598207 3.213321 7.291306
v -21.598207 5.774469 7.291306
v -21.598207 3.310799 6.801251
v -21.598207 5.676991 6.801251
v -21.598207 3.588393 6.385803
v -21.598207 4.003841 6.108210
v -21.598207 4.493895 6.010732
v -21.598207 4.983950 6.108210
v -21.598207 5.399398 6.385803
v -21.527002 5.625463 7.760016
v -21.527000 3.336269 7.291306
v -21.527002 5.651521 7.291306
v -21.527000 3.424388 6.848301
v -21.527002 5.563402 6.848301
v -21.527000 3.675330 6.472740
v -21.527000 4.050891 6.221798
v -21.527002 4.493895 6.133679
v -21.527002 4.936900 6.221798
v -21.527002 5.312460 6.472740
v -21.527002 4.962606 8.422874
v -21.527002 5.359961 8.157371
v -21.527002 4.493895 8.516107
v -21.527000 4.025184 8.422874
v -21.527000 3.627830 8.157371
v -21.527000 3.627830 6.425241
v -21.527000 4.025184 6.159737
v -21.527002 4.493895 6.066504
v -21.527002 4.962606 6.159737
v -21.527002 5.359961 6.425241
v -21.527002 5.625463 6.822595
v -21.527000 3.362327 6.822595
v -21.527002 5.718696 7.291306
v -21.527000 3.269094 7.291306
v -21.527002 5.563402 7.734310
v -21.527000 3.424388 7.734310
v -21.699650 5.435152 7.681187
v -21.699650 3.552639 7.681187
v -21.699650 3.475086 7.291306
v -21.699650 5.512704 7.291306
v -21.699650 3.552639 6.901424
v -21.699650 5.435152 6.901424
v -21.699650 4.883777 6.350049
v -21.699650 4.493895 6.272497
v -21.699650 4.104014 6.350049
v -21.699650 4.883776 8.232562
v -21.699650 4.493895 8.310114
v -21.699650 4.104014 8.232562
v -21.699650 5.214302 8.011712
v -21.699650 3.773489 8.011712
v -21.699650 3.773489 6.570899
v -21.699650 5.214302 6.570899
v -21.699650 4.916339 8.311175
v -21.699650 5.274469 8.071879
v -21.699650 4.493895 8.395205
v -21.699650 4.071452 8.311175
v -21.699650 3.713321 8.071879
v -21.699650 3.713321 6.510731
v -21.699650 4.071452 6.271436
v -21.699650 4.493895 6.187407
v -21.699650 4.916339 6.271436
v -21.699650 5.274469 6.510731
v -21.699650 5.513764 6.868862
v -21.699650 3.474026 6.868862
v -21.699650 5.597794 7.291306
v -21.699650 3.389997 7.291306
v -21.699650 5.513764 7.713749
v -21.699650 3.474026 7.713749
v -21.444214 5.319296 7.633198
v -21.444214 3.668494 7.633198
v -21.444214 3.600488 7.291306
v -21.444214 5.387302 7.291306
v -21.444214 3.668494 6.949413
v -21.444214 5.319296 6.949413
v -21.444214 4.835787 6.465905
v -21.444214 4.493895 6.397899
v -21.444214 4.152003 6.465905
v -21.444214 4.835787 8.116706
v -21.444214 4.493895 8.184712
v -21.444214 4.152003 8.116706
v -21.444214 5.125629 7.923040
v -21.444214 3.862161 7.923040
v -21.444214 3.862161 6.659571
v -21.444214 5.125629 6.659571
v -21.444214 4.854238 8.161250
v -21.444214 5.159721 7.957132
v -21.444214 4.493895 8.232926
v -21.444214 4.133553 8.161250
v -21.444214 3.828069 7.957132
v -21.444214 3.828069 6.625479
v -21.444214 4.133553 6.421361
v -21.444214 4.493895 6.349685
v -21.444214 4.854238 6.421361
v -21.444214 5.159721 6.625479
v -21.444214 5.363839 6.930963
v -21.444214 3.623951 6.930963
v -21.444214 5.435516 7.291306
v -21.444214 3.552274 7.291306
v -21.444214 5.363839 7.651649
v -21.444214 3.623951 7.651648
v -21.536362 5.222980 7.593302
v -21.536362 3.764811 7.593302
v -21.536362 3.704740 7.291306
v -21.536362 5.283051 7.291306
v -21.536362 3.764811 6.989309
v -21.536362 5.222980 6.989309
v -21.536362 4.795892 6.562221
v -21.536362 4.493895 6.502151
v -21.536362 4.191898 6.562221
v -21.536362 4.795892 8.020391
v -21.536362 4.493895 8.080461
v -21.536362 4.191898 8.020391
v -21.536362 5.051912 7.849323
v -21.536362 3.935878 7.849323
v -21.536362 3.935878 6.733289
v -21.536362 5.051912 6.733289
v -21.597021 2.419604 6.044306
v -21.597021 2.419604 5.420807
v -21.597021 2.419604 9.161804
v -21.597021 2.419604 8.538304
v -21.597021 2.419604 7.914805
v -21.597021 2.419604 7.291306
v -21.597021 2.419604 6.667806
v -21.597021 2.468337 7.291306
v -21.597021 2.468337 8.538304
v -21.597021 2.468337 9.161804
v -21.597021 2.468337 6.667806
v -21.597021 2.468337 7.914805
v -21.597021 2.468337 6.044306
v -21.597021 2.468337 5.420807
v -21.732828 2.623396 6.044306
v -21.686787 2.577355 6.044306
v -21.724770 2.623396 6.044306
v -21.721317 2.619943 6.044306
v -21.719521 2.610827 6.044306
v -21.714411 2.604980 6.044306
v -21.706032 2.601389 6.044306
v -21.699080 2.597291 6.044306
v -21.695995 2.588866 6.044306
v -21.692541 2.588866 6.044306
v -21.690470 2.584722 6.044306
v -21.732828 2.623396 5.420807
v -21.686787 2.577355 5.420807
v -21.724770 2.623396 5.420807
v -21.721317 2.619943 5.420807
v -21.719521 2.610827 5.420807
v -21.714411 2.604980 5.420807
v -21.706032 2.601389 5.420807
v -21.699080 2.597291 5.420807
v -21.695995 2.588866 5.420807
v -21.692541 2.588866 5.420807
v -21.690470 2.584722 5.420807
v -21.686787 2.577355 9.161804
v -21.732828 2.623396 9.161804
v -21.690470 2.584722 9.161804
v -21.692541 2.588866 9.161804
v -21.695995 2.588866 9.161804
v -21.699080 2.597291 9.161804
v -21.706032 2.601389 9.161804
v -21.714411 2.604980 9.161804
v -21.719521 2.610827 9.161804
v -21.721317 2.619943 9.161804
v -21.724770 2.623396 9.161804
v -21.686787 2.577355 8.538304
v -21.732828 2.623396 8.538304
v -21.690470 2.584722 8.538304
v -21.692541 2.588866 8.538304
v -21.695995 2.588866 8.538304
v -21.699080 2.597291 8.538304
v -21.706032 2.601389 8.538304
v -21.714411 2.604980 8.538304
v -21.719521 2.610827 8.538304
v -21.721317 2.619943 8.538304
v -21.724770 2.623396 8.538304
v -21.686787 2.577355 7.914805
v -21.732828 2.623396 7.914805
v -21.690470 2.584722 7.914805
v -21.692541 2.588866 7.914805
v -21.695995 2.588866 7.914805
v -21.699080 2.597291 7.914805
v -21.706032 2.601389 7.914805
v -21.714411 2.604980 7.914805
v -21.719521 2.610827 7.914805
v -21.721317 2.619943 7.914805
v -21.724770 2.623396 7.914805
v -21.686787 2.577355 7.291306
v -21.732828 2.623396 7.291306
v -21.690470 2.584722 7.291306
v -21.692541 2.588866 7.291306
v -21.695995 2.588866 7.291306
v -21.699080 2.597291 7.291306
v -21.706032 2.601389 7.291306
v -21.714411 2.604980 7.291306
v -21.719521 2.610827 7.291306
v -21.721317 2.619943 7.291306
v -21.724770 2.623396 7.291306
v -21.686787 2.577355 6.667806
v -21.732828 2.623396 6.667806
v -21.690470 2.584722 6.667806
v -21.692541 2.588866 6.667806
v -21.695995 2.588866 6.667806
v -21.699080 2.597291 6.667806
v -21.706032 2.601389 6.667806
v -21.714411 2.604980 6.667806
v -21.719521 2.610827 6.667806
v -21.721317 2.619943 6.667806
v -21.724770 2.623396 6.667806
v -21.686787 2.534967 6.667806
v -21.620155 2.468337 6.667806
v -21.686787 2.501652 6.667806
v -21.686787 2.501652 6.667806
v -21.685156 2.491357 6.667806
v -21.680424 2.482070 6.667806
v -21.673052 2.474699 6.667806
v -21.663765 2.469967 6.667806
v -21.620155 2.468337 7.291306
v -21.686787 2.534967 7.291306
v -21.663765 2.469967 7.291306
v -21.673052 2.474699 7.291306
v -21.680424 2.482070 7.291306
v -21.685156 2.491357 7.291306
v -21.686787 2.501652 7.291306
v -21.686787 2.501652 7.291306
v -21.686787 2.534967 7.914805
v -21.620155 2.468337 7.914805
v -21.686787 2.501652 7.914805
v -21.686787 2.501652 7.914805
v -21.685156 2.491357 7.914805
v -21.680424 2.482070 7.914805
v -21.673052 2.474699 7.914805
v -21.663765 2.469967 7.914805
v -21.620155 2.468337 8.538304
v -21.686787 2.534967 8.538304
v -21.663765 2.469967 8.538304
v -21.673052 2.474699 8.538304
v -21.680424 2.482070 8.538304
v -21.685156 2.491357 8.538304
v -21.686787 2.501652 8.538304
v -21.686787 2.501652 8.538304
v -21.686787 2.534967 6.044306
v -21.620155 2.468337 6.044306
v -21.686787 2.501652 6.044306
v -21.686787 2.501652 6.044306
v -21.685156 2.491357 6.044306
v -21.680424 2.482070 6.044306
v -21.673052 2.474699 6.044306
v -21.663765 2.469967 6.044306
v -21.686787 2.534967 5.420807
v -21.620155 2.468337 5.420807
v -21.686787 2.501652 5.420807
v -21.686787 2.501652 5.420807
v -21.685156 2.491357 5.420807
v -21.680424 2.482070 5.420807
v -21.673052 2.474699 5.420807
v -21.663765 2.469967 5.420807
v -21.620155 2.468337 9.161804
v -21.686787 2.534967 9.161804
v -21.663765 2.469967 9.161804
v -21.673052 2.474699 9.161804
v -21.680424 2.482070 9.161804
v -21.685156 2.491357 9.161804
v -21.686787 2.501652 9.161804
v -21.686787 2.501652 9.161804
vn 1.0000 -0.0000 -0.0000
vn -0.0000 -0.3827 -0.9239
vn -0.0000 -0.0000 -1.0000
vn -0.0000 -0.7071 0.7071
vn -0.0000 -0.9239 0.3827
vn -0.0000 -0.9239 -0.3827
vn -0.0000 -0.7071 -0.7071
vn -0.0000 1.0000 -0.0000
vn -0.0000 0.9239 0.3827
vn -0.0000 -1.0000 -0.0000
vn -0.0000 0.7071 0.7071
vn -0.0000 0.3827 0.9239
vn -0.0000 -0.0000 1.0000
vn -0.0000 0.7071 -0.7071
vn -0.0000 0.9239 -0.3827
vn -0.0000 -0.3827 0.9239
vn -0.0000 0.3827 -0.9239
vn 0.6166 0.3013 -0.7273
vn 0.6166 0.5567 -0.5567
vn 0.6166 -0.0000 -0.7872
vn 0.6166 0.5567 0.5567
vn 0.6166 0.3013 0.7273
vn 0.6166 0.7273 -0.3013
vn 0.6166 0.7873 -0.0000
vn 0.6166 -0.3013 -0.7273
vn 0.6166 -0.0000 0.7872
vn 0.6166 -0.5567 0.5567
vn 0.6166 -0.7273 0.3013
vn 0.6166 -0.7273 -0.3013
vn 0.6166 -0.5567 -0.5567
vn 0.6166 -0.3013 0.7273
vn 0.6166 0.7273 0.3013
vn 0.6166 -0.7873 -0.0000
vn 0.2971 -0.8822 -0.3654
vn 0.2971 -0.6752 -0.6752
vn 0.2971 -0.0000 0.9548
vn 0.2971 -0.3654 0.8822
vn 0.2971 0.8822 -0.3654
vn 0.2971 0.9548 -0.0000
vn 0.2971 0.3654 0.8822
vn 0.2971 -0.9548 -0.0000
vn 0.2971 0.6752 0.6752
vn 0.2971 0.8822 0.3654
vn 0.2971 0.3654 -0.8822
vn 0.2971 0.6752 -0.6752
vn 0.2971 -0.8822 0.3654
vn 0.2971 -0.0000 -0.9548
vn 0.2971 -0.3654 -0.8822
vn 0.2971 -0.6752 0.6752
vn 0.2893 -0.0000 0.9572
vn 0.2893 -0.3663 0.8844
vn 0.2893 -0.8844 -0.3663
vn 0.2893 -0.6769 -0.6769
vn 0.2893 0.3663 0.8844
vn 0.2893 0.6769 -0.6769
vn 0.2893 0.8844 -0.3663
vn 0.2893 -0.6769 0.6769
vn 0.2893 -0.8844 0.3663
vn 0.2893 0.6769 0.6769
vn 0.2893 0.3663 -0.8844
vn 0.2893 0.8844 0.3663
vn 0.2893 -0.0000 -0.9572
vn 0.2893 -0.9573 -0.0000
vn 0.2893 -0.3663 -0.8844
vn 0.2893 0.9572 -0.0000
vn 0.7493 -0.6623 -0.0000
vn 0.7493 -0.6119 -0.2534
vn 0.7493 0.4683 0.4683
vn 0.7493 0.2534 0.6119
vn 0.7493 0.6623 -0.0000
vn 0.7493 0.6119 0.2534
vn 0.7493 0.2534 -0.6119
vn 0.7493 0.4683 -0.4683
vn 0.7493 -0.6119 0.2534
vn 0.7493 -0.0000 -0.6623
vn 0.7493 -0.2534 -0.6119
vn 0.7493 -0.4683 0.4683
vn 0.7493 0.6119 -0.2534
vn 0.7493 -0.4683 -0.4683
vn 0.7493 -0.2534 0.6119
vn 0.7493 -0.0000 0.6623
vn 0.0187 0.9998 -0.0000
vn 0.9732 0.2298 -0.0000
vn 0.8944 0.4473 -0.0000
vn 0.8944 0.4474 -0.0000
vn 0.9391 0.3438 -0.0000
vn 0.5078 0.8615 -0.0000
vn 0.4518 0.8921 -0.0000
vn 0.5881 0.8088 -0.0000
vn 0.7530 0.6580 -0.0000
vn 0.9811 0.1933 -0.0000
vn 0.7071 0.7071 -0.0000
vn 0.2516 0.9678 -0.0000
vn 0.5878 0.8090 -0.0000
vn 0.8090 0.5878 -0.0000
vn 0.9511 0.3090 -0.0000
vn 0.9877 0.1564 -0.0000
vt 0.833333 0.833333
vt 1.000000 0.833333
vt 1.000000 1.000000
vt 0.833333 1.000000
vt 0.833333 0.000000
vt 1.000000 0.000000
vt 1.000000 0.166667
vt 0.833333 0.166667
vt 1.000000 0.333333
vt 0.833333 0.333333
vt 1.000000 0.500000
vt 0.833333 0.500000
vt 1.000000 0.666667
vt 0.833333 0.666667
vt 0.000000 0.666667
vt 0.166667 0.666667
vt 0.166667 0.833333
vt 0.000000 0.833333
vt 0.666667 0.833333
vt 0.500000 0.833333
vt 0.000000 0.500000
vt 0.166667 0.500000
vt 0.166667 0.333333
vt 0.166667 0.166667
vt 0.333333 0.166667
vt 0.500000 0.166667
vt 0.000000 0.333333
vt 0.666667 0.166667
vt 0.000000 0.166667
vt 0.333333 0.833333
vt 0.000000 0.000000
vt 0.166667 0.000000
vt 0.333333 0.000000
vt 0.500000 0.000000
vt 0.666667 0.000000
vt 0.166667 1.000000
vt 0.000000 1.000000
vt 0.333333 1.000000
vt 0.500000 1.000000
vt 0.666667 1.000000
vt 0.188610 0.346136
vt 0.199750 0.199750
vt 0.500000 0.817294
vt 0.346136 0.811390
vt 0.811390 0.346136
vt 0.817294 0.500000
vt 0.655675 0.815052
vt 0.182706 0.500000
vt 0.800250 0.800250
vt 0.815052 0.655675
vt 0.653864 0.188610
vt 0.800250 0.199750
vt 0.184948 0.655675
vt 0.500000 0.182706
vt 0.344325 0.184948
vt 0.199750 0.800250
vt 0.500000 0.204011
vt 0.638011 0.216605
vt 0.791061 0.641317
vt 0.762630 0.762630
vt 0.358683 0.208939
vt 0.237587 0.762190
vt 0.208939 0.641317
vt 0.761973 0.238027
vt 0.783395 0.361989
vt 0.237810 0.237587
vt 0.362070 0.783354
vt 0.216646 0.362071
vt 0.500000 0.795989
vt 0.795989 0.500000
vt 0.641317 0.791061
vt 0.204011 0.500000
vt 0.217073 0.500000
vt 0.233056 0.371125
vt 0.742486 0.742486
vt 0.632666 0.776536
vt 0.782927 0.500000
vt 0.776536 0.632666
vt 0.629116 0.232945
vt 0.741064 0.258936
vt 0.223464 0.632666
vt 0.500000 0.217073
vt 0.367334 0.223464
vt 0.257964 0.741502
vt 0.767055 0.370884
vt 0.258498 0.257964
vt 0.371125 0.766944
vt 0.500000 0.782927
vt 1.000000 0.166667
vt 1.000000 0.833333
vt 1.000000 0.333333
s 1
f 42/1/1 14/2/1 4/3/1 20/4/1
f 19/5/1 2/6/1 10/7/1 25/8/1
f 25/8/1 10/7/1 11/9/1 30/10/1
f 30/10/1 11/9/1 12/11/1 32/12/1
f 32/12/1 12/11/1 13/13/1 37/14/1
f 37/14/1 13/13/1 14/2/1 42/1/1
f 6/15/1 41/16/1 46/17/1 5/18/1
f 43/19/2 44/20/3 60/20/3 59/19/2
f 25/8/4 30/10/5 52/10/5 47/8/4
f 37/14/6 42/1/7 58/1/7 56/14/6
f 42/1/7 43/19/2 59/19/2 58/1/7
f 7/21/1 36/22/1 41/16/1 6/15/1
f 36/22/8 31/23/9 53/23/9 55/22/8
f 32/12/10 37/14/6 56/14/6 54/12/10
f 29/24/11 28/25/12 50/25/12 51/24/11
f 28/25/12 27/26/13 49/26/13 50/25/12
f 8/27/1 31/23/1 36/22/1 7/21/1
f 31/23/9 29/24/11 51/24/11 53/23/9
f 46/17/14 41/16/15 57/16/15 62/17/14
f 27/26/13 26/28/16 48/28/16 49/26/13
f 30/10/5 32/12/10 54/12/10 52/10/5
f 9/29/1 29/24/1 31/23/1 8/27/1
f 45/30/17 46/17/14 62/17/14 61/30/17
f 26/28/16 25/8/4 47/8/4 48/28/16
f 44/20/3 45/30/17 61/30/17 60/20/3
f 41/16/15 36/22/8 55/22/8 57/16/15
f 1/31/1 15/32/1 29/24/1 9/29/1
f 15/32/1 16/33/1 28/25/1 29/24/1
f 16/33/1 17/34/1 27/26/1 28/25/1
f 17/34/1 18/35/1 26/28/1 27/26/1
f 18/35/1 19/5/1 25/8/1 26/28/1
f 5/18/1 46/17/1 24/36/1 3/37/1
f 46/17/1 45/30/1 23/38/1 24/36/1
f 45/30/1 44/20/1 22/39/1 23/38/1
f 44/20/1 43/19/1 21/40/1 22/39/1
f 43/19/1 42/1/1 20/4/1 21/40/1
f 61/30/18 62/17/19 82/17/19 81/30/18
f 60/20/20 61/30/18 81/30/18 80/20/20
f 51/24/21 50/25/22 73/25/22 74/24/21
f 57/16/23 55/22/24 85/22/24 83/16/23
f 59/19/25 60/20/20 80/20/20 79/19/25
f 50/25/22 49/26/26 75/26/26 73/25/22
f 47/8/27 52/10/28 33/10/28 77/8/27
f 56/14/29 58/1/30 78/1/30 84/14/29
f 58/1/30 59/19/25 79/19/25 78/1/30
f 49/26/26 48/28/31 76/28/31 75/26/26
f 55/22/24 53/23/32 63/23/32 85/22/24
f 48/28/31 47/8/27 77/8/27 76/28/31
f 54/12/33 56/14/29 84/14/29 86/12/33
f 53/23/32 51/24/21 74/24/21 63/23/32
f 62/17/19 57/16/23 83/16/23 82/17/19
f 52/10/28 54/12/33 86/12/33 33/10/28
f 87/41/34 34/42/35 106/42/35 119/41/34
f 70/43/36 71/44/37 113/44/37 112/43/36
f 88/45/38 64/46/39 118/46/39 120/45/38
f 69/47/40 70/43/36 112/43/36 111/47/40
f 65/48/41 87/41/34 119/41/34 117/48/41
f 68/49/42 69/47/40 111/47/40 110/49/42
f 64/46/39 66/50/43 116/50/43 118/46/39
f 39/51/44 40/52/45 109/52/45 108/51/44
f 67/53/46 65/48/41 117/48/41 115/53/46
f 38/54/47 39/51/44 108/51/44 107/54/47
f 66/50/43 68/49/42 110/49/42 116/50/43
f 35/55/48 38/54/47 107/54/47 105/55/48
f 72/56/49 67/53/46 115/53/46 114/56/49
f 40/52/45 88/45/38 120/45/38 109/52/45
f 34/42/35 35/55/48 105/55/48 106/42/35
f 71/44/37 72/56/49 114/56/49 113/44/37
f 35/55/1 34/42/1 74/24/1 73/25/1
f 38/54/1 35/55/1 73/25/1 75/26/1
f 39/51/1 38/54/1 75/26/1 76/28/1
f 40/52/1 39/51/1 76/28/1 77/8/1
f 69/47/1 68/49/1 78/1/1 79/19/1
f 70/43/1 69/47/1 79/19/1 80/20/1
f 71/44/1 70/43/1 80/20/1 81/30/1
f 72/56/1 71/44/1 81/30/1 82/17/1
f 67/53/1 72/56/1 82/17/1 83/16/1
f 68/49/1 66/50/1 84/14/1 78/1/1
f 65/48/1 67/53/1 83/16/1 85/22/1
f 66/50/1 64/46/1 86/12/1 84/14/1
f 87/41/1 65/48/1 85/22/1 63/23/1
f 64/46/1 88/45/1 33/10/1 86/12/1
f 34/42/1 87/41/1 63/23/1 74/24/1
f 88/45/1 40/52/1 77/8/1 33/10/1
f 99/57/50 100/58/51 140/58/51 139/57/50
f 93/59/52 103/60/53 142/60/53 148/59/52
f 98/61/54 99/57/50 139/57/50 137/61/54
f 104/62/55 94/63/56 147/63/56 146/62/55
f 102/64/57 90/65/58 152/65/58 141/64/57
f 101/66/59 98/61/54 137/61/54 138/66/59
f 95/67/60 104/62/55 146/62/55 145/67/60
f 89/68/61 101/66/59 138/66/59 151/68/61
f 96/69/62 95/67/60 145/67/60 144/69/62
f 90/65/58 91/70/63 150/70/63 152/65/58
f 97/71/64 96/69/62 144/69/62 143/71/64
f 92/72/65 89/68/61 151/68/61 149/72/65
f 103/60/53 97/71/64 143/71/64 142/60/53
f 91/70/63 93/59/52 148/59/52 150/70/63
f 100/58/51 102/64/57 141/64/57 140/58/51
f 94/63/56 92/72/65 149/72/65 147/63/56
f 98/61/1 101/66/1 106/42/1 105/55/1
f 99/57/1 98/61/1 105/55/1 107/54/1
f 100/58/1 99/57/1 107/54/1 108/51/1
f 102/64/1 100/58/1 108/51/1 109/52/1
f 97/71/1 103/60/1 110/49/1 111/47/1
f 96/69/1 97/71/1 111/47/1 112/43/1
f 95/67/1 96/69/1 112/43/1 113/44/1
f 104/62/1 95/67/1 113/44/1 114/56/1
f 94/63/1 104/62/1 114/56/1 115/53/1
f 103/60/1 93/59/1 116/50/1 110/49/1
f 92/72/1 94/63/1 115/53/1 117/48/1
f 93/59/1 91/70/1 118/46/1 116/50/1
f 89/68/1 92/72/1 117/48/1 119/41/1
f 91/70/1 90/65/1 120/45/1 118/46/1
f 101/66/1 89/68/1 119/41/1 106/42/1
f 90/65/1 102/64/1 109/52/1 120/45/1
f 124/73/66 121/74/67 153/74/67 156/73/66
f 135/75/68 129/76/69 161/76/69 167/75/68
f 123/77/70 125/78/71 157/78/71 155/77/70
f 132/79/72 134/80/73 166/80/73 164/79/72
f 126/81/74 124/73/66 156/73/66 158/81/74
f 131/82/75 132/79/72 164/79/72 163/82/75
f 125/78/71 135/75/68 167/75/68 157/78/71
f 130/83/76 131/82/75 163/82/75 162/83/76
f 136/84/77 126/81/74 158/81/74 168/84/77
f 134/80/73 122/85/78 154/85/78 166/80/73
f 133/86/79 130/83/76 162/83/76 165/86/79
f 127/87/80 136/84/77 168/84/77 159/87/80
f 121/74/67 133/86/79 165/86/79 153/74/67
f 128/88/81 127/87/80 159/87/80 160/88/81
f 122/85/78 123/77/70 155/77/70 154/85/78
f 129/76/69 128/88/81 160/88/81 161/76/69
f 130/83/1 133/86/1 138/66/1 137/61/1
f 131/82/1 130/83/1 137/61/1 139/57/1
f 132/79/1 131/82/1 139/57/1 140/58/1
f 134/80/1 132/79/1 140/58/1 141/64/1
f 129/76/1 135/75/1 142/60/1 143/71/1
f 128/88/1 129/76/1 143/71/1 144/69/1
f 127/87/1 128/88/1 144/69/1 145/67/1
f 136/84/1 127/87/1 145/67/1 146/62/1
f 126/81/1 136/84/1 146/62/1 147/63/1
f 135/75/1 125/78/1 148/59/1 142/60/1
f 124/73/1 126/81/1 147/63/1 149/72/1
f 125/78/1 123/77/1 150/70/1 148/59/1
f 121/74/1 124/73/1 149/72/1 151/68/1
f 123/77/1 122/85/1 152/65/1 150/70/1
f 133/86/1 121/74/1 151/68/1 138/66/1
f 122/85/1 134/80/1 141/64/1 152/65/1
f 4/3/8 14/2/8 183/2/8 194/3/8
f 268/11/82 277/9/82 180/9/8 176/11/8
f 277/9/82 284/7/82 177/7/8 180/9/8
f 195/3/83 184/2/83 292/2/1 300/3/1
f 249/13/83 238/11/83 269/11/1 260/13/1
f 261/13/82 268/11/82 176/11/8 179/13/8
f 12/11/8 11/9/8 228/9/8 239/11/8
f 284/7/82 308/6/82 178/6/8 177/7/8
f 10/7/8 2/6/8 206/6/8 217/89/8
f 13/13/8 12/11/8 239/11/8 250/13/8
f 14/2/8 13/13/8 250/13/8 183/90/8
f 11/9/8 10/7/8 217/7/8 228/91/8
f 216/7/83 205/6/83 309/6/1 285/7/1
f 179/13/1 176/11/1 174/11/1 175/13/1
f 180/9/1 177/7/1 172/7/1 173/9/1
f 181/2/1 179/13/1 175/13/1 169/2/1
f 182/3/1 181/2/1 169/2/1 170/3/1
f 176/11/1 180/9/1 173/9/1 174/11/1
f 177/7/1 178/6/1 171/6/1 172/7/1
f 238/11/83 227/9/83 276/91/1 269/11/1
f 184/90/83 249/13/83 260/13/1 292/90/1
f 227/9/83 216/7/83 285/89/1 276/9/1
f 184/2/83 195/3/83 204/3/84 193/2/84
f 193/2/84 204/3/84 203/3/85 192/2/85
f 192/2/8 203/3/8 202/3/8 191/2/8
f 191/2/86 202/3/86 201/3/86 190/2/86
f 190/2/87 201/3/87 200/3/88 189/2/88
f 189/2/88 200/3/88 199/3/89 188/2/89
f 188/2/89 199/3/89 198/3/90 187/2/90
f 187/2/91 198/3/91 197/3/91 186/2/91
f 186/2/92 197/3/92 196/3/92 185/2/92
f 185/2/8 196/3/8 194/3/8 183/2/8
f 205/6/83 216/7/83 218/7/84 207/6/84
f 207/6/84 218/7/84 219/7/85 208/6/85
f 208/6/8 219/7/8 220/7/8 209/6/8
f 209/6/86 220/7/86 221/7/86 210/6/86
f 210/6/87 221/7/87 222/7/88 211/6/88
f 211/6/88 222/7/88 223/7/89 212/6/89
f 212/6/89 223/7/89 224/7/90 213/6/90
f 213/6/91 224/7/91 225/7/91 214/6/91
f 214/6/92 225/7/92 226/89/92 215/6/92
f 215/6/8 226/89/8 217/89/8 206/6/8
f 216/7/83 227/9/83 229/9/84 218/7/84
f 218/7/84 229/9/84 230/9/85 219/7/85
f 219/7/8 230/9/8 231/9/8 220/7/8
f 220/7/86 231/9/86 232/9/86 221/7/86
f 221/7/87 232/9/87 233/9/88 222/7/88
f 222/7/88 233/9/88 234/9/89 223/7/89
f 223/7/89 234/9/89 235/9/90 224/7/90
f 224/7/91 235/9/91 236/9/91 225/7/91
f 225/7/92 236/9/92 237/91/92 226/89/92
f 226/89/8 237/91/8 228/91/8 217/7/8
f 227/9/83 238/11/83 240/11/84 229/9/84
f 229/9/84 240/11/84 241/11/85 230/9/85
f 230/9/8 241/11/8 242/11/8 231/9/8
f 231/9/86 242/11/86 243/11/86 232/9/86
f 232/9/87 243/11/87 244/11/88 233/9/88
f 233/9/88 244/11/88 245/11/89 234/9/89
f 234/9/89 245/11/89 246/11/90 235/9/90
f 235/9/91 246/11/91 247/11/91 236/9/91
f 236/9/92 247/11/92 248/11/92 237/91/92
f 237/91/8 248/11/8 239/11/8 228/9/8
f 238/11/83 249/13/83 251/13/84 240/11/84
f 240/11/84 251/13/84 252/13/85 241/11/85
f 241/11/8 252/13/8 253/13/8 242/11/8
f 242/11/86 253/13/86 254/13/86 243/11/86
f 243/11/87 254/13/87 255/13/88 244/11/88
f 244/11/88 255/13/88 256/13/89 245/11/89
f 245/11/89 256/13/89 257/13/90 246/11/90
f 246/11/91 257/13/91 258/13/91 247/11/91
f 247/11/92 258/13/92 259/13/92 248/11/92
f 248/11/8 259/13/8 250/13/8 239/11/8
f 249/13/83 184/90/83 193/2/84 251/13/84
f 251/13/84 193/2/84 192/2/85 252/13/85
f 252/13/8 192/2/8 191/2/8 253/13/8
f 253/13/86 191/2/86 190/2/86 254/13/86
f 254/13/87 190/2/87 189/2/88 255/13/88
f 255/13/88 189/2/88 188/2/89 256/13/89
f 256/13/89 188/2/89 187/2/90 257/13/90
f 257/13/91 187/2/91 186/2/91 258/13/91
f 258/13/92 186/2/92 185/2/92 259/13/92
f 259/13/8 185/2/8 183/90/8 250/13/8
f 301/3/82 293/90/82 181/2/8 182/3/8
f 308/6/82 284/7/82 286/7/93 310/6/93
f 310/6/93 286/7/93 287/7/94 311/6/94
f 311/6/94 287/7/94 288/7/95 312/6/95
f 312/6/95 288/7/95 289/89/96 313/6/96
f 313/6/96 289/89/96 290/7/97 314/6/97
f 314/6/8 290/7/8 291/7/8 315/6/8
f 315/6/1 291/7/1 285/7/1 309/6/1
f 277/9/82 268/11/82 270/11/93 283/9/93
f 283/9/93 270/11/93 271/11/94 282/9/94
f 282/9/94 271/11/94 272/11/95 281/9/95
f 281/9/95 272/11/95 273/11/96 280/91/96
f 280/91/96 273/11/96 274/11/97 279/9/97
f 279/9/8 274/11/8 275/11/8 278/9/8
f 278/9/1 275/11/1 269/11/1 276/91/1
f 293/90/82 301/3/82 307/3/93 299/2/93
f 299/2/93 307/3/93 306/3/94 298/2/94
f 298/2/94 306/3/94 305/3/95 297/2/95
f 297/2/95 305/3/95 304/3/96 296/90/96
f 296/90/96 304/3/96 303/3/97 295/2/97
f 295/2/8 303/3/8 302/3/8 294/2/8
f 294/2/1 302/3/1 300/3/1 292/2/1
f 261/13/82 293/2/82 299/2/93 267/13/93
f 267/13/93 299/2/93 298/2/94 266/13/94
f 266/13/94 298/2/94 297/2/95 265/13/95
f 265/13/95 297/2/95 296/90/96 264/13/96
f 264/13/96 296/90/96 295/2/97 263/13/97
f 263/13/8 295/2/8 294/2/8 262/13/8
f 262/13/1 294/2/1 292/90/1 260/13/1
f 284/7/82 277/9/82 283/9/93 286/7/93
f 286/7/93 283/9/93 282/9/94 287/7/94
f 287/7/94 282/9/94 281/9/95 288/7/95
f 288/7/95 281/9/95 280/91/96 289/89/96
f 289/89/96 280/91/96 279/9/97 290/7/97
f 290/7/8 279/9/8 278/9/8 291/7/8
f 291/7/1 278/9/1 276/9/1 285/89/1
f 268/11/82 261/13/82 267/13/93 270/11/93
f 270/11/93 267/13/93 266/13/94 271/11/94
f 271/11/94 266/13/94 265/13/95 272/11/95
f 272/11/95 265/13/95 264/13/96 273/11/96
f 273/11/96 264/13/96 263/13/97 274/11/97
f 274/11/8 263/13/8 262/13/8 275/11/8
f 275/11/1 262/13/1 260/13/1 269/11/1
f 293/2/82 261/13/82 179/13/8 181/2/8
o Cube.033
v -21.829950 4.185405 8.741411
v -21.829950 4.725394 8.741411
v -21.614645 4.185405 8.201422
v -21.614645 4.725394 8.201422
v -21.491095 4.218668 8.708228
v -21.491095 4.692131 8.708228
v -21.511997 4.218668 8.234604
v -21.511997 4.692131 8.234604
v -21.513462 4.725394 8.201422
v -21.513462 4.185405 8.201422
v -21.489630 4.185405 8.741411
v -21.489630 4.725394 8.741411
v -21.525547 4.656205 8.271110
v -21.525547 4.254594 8.271110
v -21.507807 4.254594 8.673059
v -21.507807 4.656205 8.673059
v -21.527128 4.692131 8.235271
v -21.527128 4.218668 8.235271
v -21.506224 4.218668 8.708897
v -21.506224 4.692131 8.708897
v -21.500851 4.625737 8.300572
v -21.500851 4.285062 8.300572
v -21.485804 4.285062 8.641534
v -21.485804 4.625737 8.641534
v -21.822552 4.197143 8.795613
v -21.822552 4.713656 8.795613
v -21.641476 4.713656 8.795613
v -21.641476 4.197143 8.795613
vn -0.0000 -0.0000 -1.0000
vn -0.0000 -1.0000 -0.0000
vn -0.0000 -0.9996 0.0278
vn -0.0000 -0.9925 0.1224
vn -0.0000 1.0000 -0.0000
vn -0.0000 0.9925 0.1224
vn -0.0000 0.9996 0.0278
vn 0.9990 -0.0000 -0.0441
vn 0.7927 0.6086 -0.0350
vn 0.0441 -0.0000 0.9990
vn -0.0441 -0.0000 -0.9990
vn 0.7664 -0.0000 -0.6424
vn 0.8200 -0.0000 0.5723
vn 0.7927 -0.6086 -0.0350
vn 0.1761 -0.0000 0.9844
vn -0.0000 -0.0000 1.0000
vn -0.0000 -0.9773 0.2117
vn -0.0000 0.9773 0.2117
vn 0.3362 -0.0000 0.9418
vt 0.375000 0.250000
vt 0.625000 0.250000
vt 0.625000 0.500000
vt 0.375000 0.500000
vt 0.609600 0.515363
vt 0.609600 0.734637
vt 0.125000 0.500000
vt 0.375000 0.750000
vt 0.125000 0.750000
vt 0.875000 0.500000
vt 0.875000 0.750000
vt 0.625000 0.750000
vt 0.390400 0.515363
vt 0.390400 0.734637
vt 0.592967 0.531955
vt 0.592967 0.718045
vt 0.407033 0.531955
vt 0.407033 0.718045
vt 0.625000 1.000000
vt 0.375000 1.000000
s 1
f 318/92/98 319/93/98 324/94/98 325/95/98
f 323/96/99 321/97/99 335/97/99 332/96/99
f 318/98/99 325/95/99 326/99/100 316/100/101
f 324/94/102 319/101/102 317/102/103 327/103/104
f 323/96/105 322/104/105 325/95/105 324/94/105
f 322/104/105 320/105/105 326/99/105 325/95/105
f 321/97/105 323/96/105 324/94/105 327/103/105
f 320/105/105 321/97/105 327/103/105 326/99/105
f 328/106/106 331/107/106 339/107/106 336/106/106
f 322/104/107 323/96/107 332/96/107 333/104/107
f 321/97/108 320/105/108 334/105/108 335/97/108
f 320/105/102 322/104/102 333/104/102 334/105/102
f 328/106/105 329/108/105 333/104/105 332/96/105
f 329/108/105 330/109/105 334/105/105 333/104/105
f 331/107/105 328/106/105 332/96/105 335/97/105
f 330/109/105 331/107/105 335/97/105 334/105/105
f 337/108/105 336/106/105 339/107/105 338/109/105
f 329/108/109 328/106/109 336/106/109 337/108/109
f 331/107/110 330/109/110 338/109/110 339/107/110
f 330/109/111 329/108/111 337/108/111 338/109/111
f 343/99/112 342/103/112 341/110/113 340/111/113
f 316/100/101 326/99/100 343/99/114 340/100/114
f 327/103/104 317/102/103 341/102/115 342/103/115
f 326/99/116 327/103/116 342/103/112 343/99/112
o Plane.051
v -21.536362 5.222980 7.593303
v -21.536362 3.764811 7.593303
v -21.536362 3.704740 7.291306
v -21.536362 5.283051 7.291306
v -21.536362 3.764811 6.989309
v -21.536362 5.222980 6.989309
v -21.536362 4.795892 6.562222
v -21.536362 4.493896 6.502151
v -21.536362 4.191899 6.562222
v -21.536362 4.795892 8.020391
v -21.536362 4.493896 8.080462
v -21.536362 4.191899 8.020391
v -21.536362 5.051913 7.849323
v -21.536362 3.935879 7.849323
v -21.536362 3.935879 6.733289
v -21.536362 5.051913 6.733289
vn 1.0000 -0.0000 -0.0000
vt 0.223464 0.632666
vt 0.500000 0.782927
vt 0.371125 0.766944
vt 0.257964 0.741502
vt 0.217073 0.500000
vt 0.632666 0.776536
vt 0.233056 0.371125
vt 0.742486 0.742486
vt 0.258498 0.257964
vt 0.776536 0.632666
vt 0.367334 0.223464
vt 0.782927 0.500000
vt 0.500000 0.217073
vt 0.767055 0.370884
vt 0.629116 0.232945
vt 0.741064 0.258936
s 1
f 349/112/117 351/113/117 350/114/117 359/115/117
f 347/116/117 352/117/117 351/113/117 349/112/117
f 344/118/117 358/119/117 352/117/117 347/116/117
f 356/120/117 348/121/117 358/119/117 344/118/117
f 353/122/117 346/123/117 348/121/117 356/120/117
f 354/124/117 345/125/117 346/123/117 353/122/117
f 355/126/117 357/127/117 345/125/117 354/124/117
o Plane.052
v -21.536360 5.222980 7.593303
v -21.536360 3.764811 7.593303
v -21.536360 3.704740 7.291306
v -21.536360 5.283051 7.291306
v -21.536360 3.764811 6.989309
v -21.536360 5.222980 6.989309
v -21.536360 4.795892 6.562222
v -21.536360 4.493896 6.502151
v -21.536360 4.191899 6.562222
v -21.536360 4.795892 8.020391
v -21.536360 4.493896 8.080462
v -21.536360 4.191899 8.020391
v -21.536360 5.051913 7.849323
v -21.536360 3.935879 7.849323
v -21.536360 3.935879 6.733289
v -21.536360 5.051913 6.733289
v -21.833895 4.795892 8.020391
v -21.833895 5.051913 7.849323
v -21.833895 4.493896 8.080462
v -21.833895 4.191899 8.020391
v -21.833895 3.935879 7.849323
v -21.833895 3.935879 6.733289
v -21.833895 4.191899 6.562222
v -21.833895 4.493896 6.502151
v -21.833895 4.795892 6.562222
v -21.833895 5.051913 6.733289
v -21.833895 5.222980 6.989309
v -21.833895 3.764811 6.989309
v -21.833895 5.283051 7.291306
v -21.833895 3.704740 7.291306
v -21.833895 5.222980 7.593303
v -21.833895 3.764811 7.593303
vn 1.0000 -0.0000 -0.0000
vn -0.0000 -0.7071 0.7071
vn -0.0000 -0.9239 0.3827
vn -0.0000 -0.3827 -0.9239
vn -0.0000 -0.0000 -1.0000
vn -0.0000 0.9239 0.3827
vn -0.0000 0.7071 0.7071
vn -0.0000 0.3827 -0.9239
vn -0.0000 -1.0000 -0.0000
vn -0.0000 0.7071 -0.7071
vn -0.0000 1.0000 -0.0000
vn -0.0000 0.3827 0.9239
vn -0.0000 -0.9239 -0.3827
vn -0.0000 -0.0000 1.0000
vn -0.0000 0.9239 -0.3827
vn -0.0000 -0.3827 0.9239
vn -0.0000 -0.7071 -0.7071
vt 0.223464 0.632666
vt 0.500000 0.782927
vt 0.371125 0.766944
vt 0.257964 0.741502
vt 0.217073 0.500000
vt 0.632666 0.776536
vt 0.233056 0.371125
vt 0.742486 0.742486
vt 0.258498 0.257964
vt 0.776536 0.632666
vt 0.367334 0.223464
vt 0.782927 0.500000
vt 0.500000 0.217073
vt 0.767055 0.370884
vt 0.629116 0.232945
vt 0.741064 0.258936
s 1
f 386/128/118 383/129/118 384/130/118 385/131/118
f 388/132/118 382/133/118 383/129/118 386/128/118
f 390/134/118 381/135/118 382/133/118 388/132/118
f 377/136/118 387/137/118 381/135/118 390/134/118
f 376/138/118 389/139/118 387/137/118 377/136/118
f 378/140/118 391/141/118 389/139/118 376/138/118
f 379/142/118 380/143/118 391/141/118 378/140/118
f 375/131/119 365/128/120 386/128/120 385/131/119
f 369/138/121 370/140/122 378/140/122 376/138/121
f 364/137/123 374/135/124 381/135/124 387/137/123
f 370/140/122 371/142/125 379/142/125 378/140/122
f 365/128/120 363/132/126 388/132/126 386/128/120
f 371/142/125 373/143/127 380/143/127 379/142/125
f 362/139/128 364/137/123 387/137/123 389/139/128
f 374/135/124 368/133/129 382/133/129 381/135/124
f 363/132/126 360/134/130 390/134/130 388/132/126
f 368/133/129 367/129/131 383/129/131 382/133/129
f 361/141/132 362/139/128 389/139/128 391/141/132
f 367/129/131 366/130/133 384/130/133 383/129/131
f 360/134/130 372/136/134 377/136/134 390/134/130
f 366/130/133 375/131/119 385/131/119 384/130/133
f 372/136/134 369/138/121 376/138/121 377/136/134
f 373/143/127 361/141/132 391/141/132 380/143/127
